<?xml version="1.0" encoding="UTF-8" standalone="no"?>
<svg
   xmlns:v="http://schemas.microsoft.com/visio/2003/SVGExtensions/"
   xmlns:dc="http://purl.org/dc/elements/1.1/"
   xmlns:cc="http://creativecommons.org/ns#"
   xmlns:rdf="http://www.w3.org/1999/02/22-rdf-syntax-ns#"
   xmlns:svg="http://www.w3.org/2000/svg"
   xmlns="http://www.w3.org/2000/svg"
   xmlns:sodipodi="http://sodipodi.sourceforge.net/DTD/sodipodi-0.dtd"
   xmlns:inkscape="http://www.inkscape.org/namespaces/inkscape"
   inkscape:version="1.0 (4035a4fb49, 2020-05-01)"
   sodipodi:docname="Room 0210.svg"
   id="svg460"
   version="1.1"
   class="st14"
   color-interpolation-filters="sRGB"
   xml:space="preserve"
   viewBox="0 0 378.35742 755.69174"
   height="10.495687in"
   width="5.2549639in"><metadata
   id="metadata466"><rdf:RDF><cc:Work
       rdf:about=""><dc:format>image/svg+xml</dc:format><dc:type
         rdf:resource="http://purl.org/dc/dcmitype/StillImage" /><dc:title></dc:title></cc:Work></rdf:RDF></metadata><defs
   id="defs464">
		
		
		
		
		
		
		
		
		
		
		
		
		
		
		
		
		
		
		
		
		
		
		
		
		
		
		
		
		
		
		
		
		
		
		
		
		
	
			
			
			
			
			
			
			
		
			
			
			
			
			
			
			
		
			
			
			
			
			
		
			
			
			
			
			
		
			
			
			
			
			
		
			
			
			
			
			
		
			
			
			
			
			
		
			
			
			
			
			
		
			
			
			
			
			
		
			
			
			
			
			
		
			
			
			
			
			
		
			
			
			
			
			
		
			
			
			
			
			
		
			
			
			
			
			
		
			
			
			
			
			
		
			
			
			
			
			
		
			
			
			
			
			
		
			
			
			
			
			
			
			
			
			
			
			
			
		
			
			
			
			
			
			
			
			
			
			
			
			
			
			
			
		
				
				
				
				
				
				
				
				
				
			
				
				
				
				
				
				
				
				
				
			
				
				
				
				
				
				
				
				
				
			
				
				
				
				
				
				
				
				
				
			
				
				
				
				
			
				
				
			
				
				
			
				
				
			
				
				
			
				
				
			
				
				
			
				
				
			
				
				
			
				
				
			
				
				
			
				
				
			
				
				
			
				
				
			
				
				
			
				
				
			
				
				
			
				
				
			
				
				
			
				
				
			
				
				
			
				
				
			
				
				
			
				
				
			
				
				
			
				
				
			
				
				
			
				
				
			
				
				
			
				
				
			
				
				
			
				
				
			
				
				
			
				
				
			
				
				
				
			
				
			
				
			
				
			
				
				
				
			
				
				
				
			
				
				
				
			
				
				
				
			
				
				
				
				
				
			
				
				
				
			
				
				
			
				
				
			
				
			
				
				
				
				
			
				
				
				
				
			
				
				
				
				
			
				
				
				
			
				
				
			
				
				
			
				
				
				
			
				
				
				
				
				
			
					
					
					
				
					
					
					
				
					
					
					
				
					
					
				
					
					
					
					
				
					
					
					
					
					
				
					
					
					
				
					
					
					
				
					
					
					
				
					
					
				
					
					
					
					
				
					
					
					
					
					
				
					
					
					
				
					
					
					
				
					
					
					
				
					
					
				
					
					
					
					
				
					
					
					
					
					
				
					
					
					
				
					
					
					
				
					
					
					
				
					
					
				
					
					
					
					
				
					
					
					
					
					
				</defs><sodipodi:namedview
   inkscape:current-layer="svg460"
   inkscape:window-maximized="1"
   inkscape:window-y="-8"
   inkscape:window-x="-8"
   inkscape:cy="223.50286"
   inkscape:cx="-127.97573"
   inkscape:zoom="0.3950179"
   showgrid="false"
   id="namedview462"
   inkscape:window-height="1057"
   inkscape:window-width="1920"
   inkscape:pageshadow="2"
   inkscape:pageopacity="0"
   guidetolerance="10"
   gridtolerance="10"
   objecttolerance="10"
   borderopacity="1"
   bordercolor="#666666"
   pagecolor="#ffffff" />
	<v:documentProperties
   v:viewMarkup="false"
   v:langID="1033">
		<v:userDefs>
			<v:ud
   v:val="VT4(Rectangle)"
   v:prompt=""
   v:nameU="msvSubprocessMaster" />
			<v:ud
   v:val="VT0(1):26"
   v:nameU="msvNoAutoConnect" />
			<v:ud
   v:val="VT0(1):26"
   v:nameU="VisAecDocument" />
			<v:ud
   v:val="VT0(16):26"
   v:nameU="VisAecVersion" />
			<v:ud
   v:val="VT0(0):26"
   v:nameU="Ifc__CustomPropsLevel" />
			<v:ud
   v:nameU="msvConvertTheme" />
		</v:userDefs>
	</v:documentProperties>

	<style
   id="style2"
   type="text/css">
	<![CDATA[
		.st1 {fill:#b3b3b3}
		.st2 {fill:#b3b3b3;stroke:#000000;stroke-linecap:round;stroke-linejoin:round;stroke-width:0.75;visibility:hidden}
		.st3 {stroke:#000000;stroke-linecap:butt;stroke-width:0.24}
		.st4 {fill:#564747}
		.st5 {stroke:none;stroke-linecap:butt;stroke-width:0.75}
		.st6 {fill:#8e8686;stroke:none;stroke-linecap:butt;stroke-width:0.75}
		.st7 {fill:#7f7069;stroke:none;stroke-linecap:butt;stroke-width:0.75}
		.st8 {fill:none;stroke:#000000;stroke-linecap:butt;stroke-width:0.75}
		.st9 {fill:#ffffff;stroke:#000000;stroke-linecap:round;stroke-linejoin:round;stroke-width:0.24}
		.st10 {fill:#ffffff;stroke:#ffffff;stroke-linecap:round;stroke-linejoin:round;stroke-width:0.24}
		.st11 {fill:#ffffff}
		.st12 {stroke:#000000;stroke-linecap:round;stroke-linejoin:round;stroke-width:0.24}
		.st13 {fill:#ffffff;stroke:#000000;stroke-linecap:round;stroke-linejoin:round;stroke-width:0.24;visibility:hidden}
		.st14 {fill:none;fill-rule:evenodd;font-size:12px;overflow:visible;stroke-linecap:square;stroke-miterlimit:3}
	]]>
	</style>

	<g
   id="c210"><g
     id="1"
     class="ws"><path
       d="m 236.88659,37.347274 -4.92,-12.29 h -79.94 l -4.92,12.29 V 457.81727 l 4.92,12.28 h 79.94 l 4.92,-12.28 z"
       class="st4"
       id="path137" /><path
       d="m 147.10659,247.57727 h 89.78"
       class="st5"
       id="path139" /><path
       d="m 236.88659,37.347274 -4.92,-12.29 h -79.94 l -4.92,12.29 V 457.81727 l 4.92,12.28 h 79.94 l 4.92,-12.28 V 37.347274"
       class="st5"
       id="path141" /><path
       d="m 230.73659,28.127274 h -77.48 l -4.92,12.29 V 454.74727 l 4.92,12.28 h 77.48 l 4.92,-12.28 V 40.417274 Z m -83.63,9.22 4.92,-12.29 h 79.94 l 4.92,12.29 V 457.81727 l -4.92,12.28 h -79.94 l -4.92,-12.28 z"
       class="st6"
       id="path146" /><path
       d="m 162.40999,61.916474 -2.48,-6.15 h 64.13 l -2.48,6.15 z m 59.71,0.82 2.46,-6.1 V 438.51647 l -2.46,-6.1 z m -0.54,370.509996 2.48,6.14 h -64.13 l 2.48,-6.14 z m -62.17,5.27 V 56.636474 l 2.46,6.1 V 432.41647 Z"
       class="st7"
       id="path151" /><path
       d="m 236.88659,37.347274 -4.92,-12.29 h -79.94 l -4.92,12.29 V 457.81727 l 4.92,12.28 h 79.94 l 4.92,-12.28 z"
       class="st8"
       id="path156" /><rect
       x="100.3436"
       y="46.916279"
       width="37.331699"
       height="37.331699"
       rx="3"
       ry="3"
       class="st9"
       id="rect164" /><rect
       x="100.3436"
       y="46.916279"
       width="6.9436998"
       height="37.331699"
       rx="3"
       ry="3"
       class="st9"
       id="rect169" /><rect
       x="100.3436"
       y="107.13927"
       width="37.331699"
       height="37.331699"
       rx="3"
       ry="3"
       class="st9"
       id="rect177" /><rect
       x="100.3436"
       y="107.13927"
       width="6.9436998"
       height="37.331699"
       rx="3"
       ry="3"
       class="st9"
       id="rect182" /><rect
       x="100.3436"
       y="168.32428"
       width="37.331699"
       height="37.331699"
       rx="3"
       ry="3"
       class="st9"
       id="rect190" /><rect
       x="100.3436"
       y="168.32428"
       width="6.9436998"
       height="37.331699"
       rx="3"
       ry="3"
       class="st9"
       id="rect195" /><rect
       x="100.3436"
       y="229.51028"
       width="37.331699"
       height="37.331699"
       rx="3"
       ry="3"
       class="st9"
       id="rect203" /><rect
       x="100.3436"
       y="229.51028"
       width="6.9436998"
       height="37.331699"
       rx="3"
       ry="3"
       class="st9"
       id="rect208" /><rect
       x="100.3436"
       y="290.69528"
       width="37.331699"
       height="37.331699"
       rx="3"
       ry="3"
       class="st9"
       id="rect216" /><rect
       x="100.3436"
       y="290.69528"
       width="6.9436998"
       height="37.331699"
       rx="3"
       ry="3"
       class="st9"
       id="rect221" /><rect
       transform="rotate(-90)"
       x="-518.28625"
       y="170.51361"
       width="37.331699"
       height="37.331699"
       rx="3"
       ry="3"
       class="st9"
       id="rect229" /><rect
       transform="rotate(-90)"
       x="-518.28625"
       y="170.51361"
       width="6.9436998"
       height="37.331699"
       rx="3"
       ry="3"
       class="st9"
       id="rect234" /><rect
       transform="rotate(179.9)"
       x="-282.15524"
       y="-328.49045"
       width="37.331699"
       height="37.331699"
       rx="3"
       ry="3"
       class="st9"
       id="rect242" /><rect
       transform="rotate(179.9)"
       x="-282.15524"
       y="-328.49045"
       width="6.9436998"
       height="37.331699"
       rx="3"
       ry="3"
       class="st9"
       id="rect247" /><rect
       transform="rotate(179.9)"
       x="-282.15436"
       y="-268.26035"
       width="37.331699"
       height="37.331699"
       rx="3"
       ry="3"
       class="st9"
       id="rect255" /><rect
       transform="rotate(179.9)"
       x="-282.15436"
       y="-268.26035"
       width="6.9436998"
       height="37.331699"
       rx="3"
       ry="3"
       class="st9"
       id="rect260" /><rect
       transform="rotate(179.9)"
       x="-282.15512"
       y="-207.08026"
       width="37.331699"
       height="37.331699"
       rx="3"
       ry="3"
       class="st9"
       id="rect268" /><rect
       transform="rotate(179.9)"
       x="-282.15512"
       y="-207.08026"
       width="6.9436998"
       height="37.331699"
       rx="3"
       ry="3"
       class="st9"
       id="rect273" /><rect
       transform="rotate(179.9)"
       x="-282.15494"
       y="-145.89217"
       width="37.331699"
       height="37.331699"
       rx="3"
       ry="3"
       class="st9"
       id="rect281" /><rect
       transform="rotate(179.9)"
       x="-282.15494"
       y="-145.89217"
       width="6.9436998"
       height="37.331699"
       rx="3"
       ry="3"
       class="st9"
       id="rect286" /><rect
       transform="rotate(179.9)"
       x="-282.15472"
       y="-84.707062"
       width="37.331699"
       height="37.331699"
       rx="3"
       ry="3"
       class="st9"
       id="rect294" /><rect
       transform="rotate(179.9)"
       x="-282.15472"
       y="-84.707062"
       width="6.9436998"
       height="37.331699"
       rx="3"
       ry="3"
       class="st9"
       id="rect299" /><rect
       x="98.470596"
       y="348.20828"
       width="37.331699"
       height="37.331699"
       rx="3"
       ry="3"
       class="st9"
       id="rect307" /><rect
       x="98.470596"
       y="348.20828"
       width="6.9436998"
       height="37.331699"
       rx="3"
       ry="3"
       class="st9"
       id="rect312" /><rect
       x="98.470596"
       y="409.39328"
       width="37.331699"
       height="37.331699"
       rx="3"
       ry="3"
       class="st9"
       id="rect320" /><rect
       x="98.470596"
       y="409.39328"
       width="6.9436998"
       height="37.331699"
       rx="3"
       ry="3"
       class="st9"
       id="rect325" /><rect
       transform="rotate(179.9)"
       x="-281.94971"
       y="-446.25027"
       width="37.331699"
       height="37.331699"
       rx="3"
       ry="3"
       class="st9"
       id="rect333" /><rect
       transform="rotate(179.9)"
       x="-281.94971"
       y="-446.25027"
       width="6.9436998"
       height="37.331699"
       rx="3"
       ry="3"
       class="st9"
       id="rect338" /><rect
       transform="rotate(179.9)"
       x="-281.94882"
       y="-386.03015"
       width="37.331699"
       height="37.331699"
       rx="3"
       ry="3"
       class="st9"
       id="rect346" /><rect
       transform="rotate(179.9)"
       x="-281.94882"
       y="-386.03015"
       width="6.9436998"
       height="37.331699"
       rx="3"
       ry="3"
       class="st9"
       id="rect351" /></g><g
     id="g1405"
     class="any"><path
       id="path12"
       class="st1"
       d="m 0.67559,689.78027 v -689.1 l 4.25,4.25 v 680.6 z" /><rect
       transform="rotate(135)"
       id="rect17"
       class="st2"
       height="0.42519701"
       width="6.0131898"
       y="-488.65421"
       x="481.25665" /><rect
       transform="rotate(45)"
       id="rect22"
       class="st2"
       height="0.42519701"
       width="6.0131898"
       y="-0.42134634"
       x="0.95166415" /><path
       id="path30"
       class="st3"
       d="m 0.67559,689.78027 v -689.1" /><path
       id="path32"
       class="st3"
       d="m 4.92559,685.53027 v -680.6" /><rect
       transform="rotate(-135)"
       id="rect48"
       class="st2"
       height="0.42519701"
       width="6.0131898"
       y="-0.43079817"
       x="-6.9733801" /><path
       id="path43"
       class="st1"
       d="m 0.67659,0.68027 h 377.01 l -4.26,4.25 h -368.5 z" /><rect
       transform="rotate(135)"
       id="rect53"
       class="st2"
       height="0.42519701"
       width="6.0131898"
       y="-267.96408"
       x="-266.58441" /><path
       id="path61"
       class="st3"
       d="m 0.67659,0.68027 h 377.01" /><path
       id="path63"
       class="st3"
       d="m 4.92659,4.93027 h 368.5" /><rect
       transform="rotate(-45)"
       id="rect79"
       class="st2"
       height="0.42519701"
       width="6.0131898"
       y="267.11404"
       x="260.56342" /><path
       id="path74"
       class="st1"
       d="m 377.67959,0.68227 v 689.1 l -4.25,-4.25 v -680.6 z" /><rect
       transform="rotate(-135)"
       id="rect84"
       class="st2"
       height="0.42519701"
       width="6.0131898"
       y="-221.11458"
       x="-754.81659" /><path
       id="path92"
       class="st3"
       d="m 377.67959,0.68227 v 689.1" /><path
       id="path94"
       class="st3"
       d="m 373.42959,4.93227 v 680.6" /><rect
       transform="rotate(45)"
       id="rect110"
       class="st2"
       height="0.42519701"
       width="6.0131898"
       y="220.26031"
       x="748.79559" /><path
       id="path105"
       class="st1"
       d="m 377.68058,689.78128 h -377.01 l 4.26,-4.25 h 368.5 z" /><rect
       transform="rotate(-45)"
       id="rect115"
       class="st2"
       height="0.42519701"
       width="6.0131898"
       y="487.80487"
       x="-487.27554" /><path
       id="path123"
       class="st3"
       d="M 377.68058,689.78128 H 0.67058" /><path
       id="path125"
       class="st3"
       d="m 373.43058,685.53128 h -368.5" /><path
       d="m 112.6436,5.08027 h 153.07 v -4.54 h -153.07 z"
       class="st10"
       id="path359" /><path
       d="m 114.06092,2.09295 h 1.42 v 1.42 h -1.42 z m 150.24,0 h -1.42 v 1.42 h 1.42 z"
       class="st9"
       id="path380" /><path
       d="m 115.47825,2.80429 h 147.4"
       class="st12"
       id="path385" /><path
       d="m 112.6436,4.93027 v -4.25"
       class="st12"
       id="path390" /><path
       d="m 265.7136,4.93027 v -4.25"
       class="st12"
       id="path392" /><path
       d="m 112.6436,4.93027 v -4.25 h 1.42 v 1.42 1.41 1.42 z m 153.07,0 v -4.25 h -1.42 v 1.42 1.41 1.42 z"
       class="st11"
       id="path373" /><path
       d="m 112.6436,4.93027 v -4.25 h 1.42 v 1.42 m 0,1.41 v 1.42 h -1.42 m 153.07,0 v -4.25 h -1.42 v 1.42 m 0,1.41 v 1.42 h 1.42"
       class="st12"
       id="path375" /><path
       d="m 162.2526,685.38626 h -100.63 v 4.54 h 100.63 z"
       class="st10"
       id="path403" /><path
       d="m 63.0326,688.37358 h 0.57 v -1.42 h -0.57 z m 97.8,0 h -0.57 v -1.42 h 0.57 z"
       class="st11"
       id="path424" /><path
       d="m 63.0326,688.37358 h 0.57 v -1.42 h -0.57 m 97.8,1.42 h -0.57 v -1.42 h 0.57"
       class="st12"
       id="path426" /><path
       d="m 61.61992,685.53626 v 4.25"
       class="st12"
       id="path431" /><path
       d="m 162.24992,685.53626 v 4.25"
       class="st12"
       id="path433" /><path
       d="m 160.8326,689.78822 a -97.7953,-97.7953 0 0 1 -25.43,65.78"
       class="st12"
       id="path438" /><path
       d="m 61.61992,685.53626 v 4.25 h 1.42 v -1.42 -1.41 -1.42 z m 100.63,0 v 4.25 h -1.42 v -1.42 -1.41 -1.42 z"
       class="st11"
       id="path417" /><path
       d="m 61.61992,685.53626 v 4.25 h 1.42 v -1.42 m 0,-1.41 v -1.42 h -1.42 m 100.63,0 v 4.25 h -1.42 v -1.42 m 0,-1.41 v -1.42 h 1.42"
       class="st12"
       id="path419" /><rect
       transform="rotate(-137.7263)"
       x="-608.44086"
       y="-467.9975"
       width="97.795303"
       height="1.41732"
       class="st9"
       id="rect443" /><rect
       transform="rotate(137.7263)"
       x="318.6087"
       y="-553.1723"
       width="97.795303"
       height="1.41732"
       class="st13"
       id="rect451" /></g></g>
</svg>
