<?xml version="1.0" encoding="UTF-8" standalone="no"?>
<svg
   xmlns:v="http://schemas.microsoft.com/visio/2003/SVGExtensions/"
   xmlns:dc="http://purl.org/dc/elements/1.1/"
   xmlns:cc="http://creativecommons.org/ns#"
   xmlns:rdf="http://www.w3.org/1999/02/22-rdf-syntax-ns#"
   xmlns:svg="http://www.w3.org/2000/svg"
   xmlns="http://www.w3.org/2000/svg"
   xmlns:xlink="http://www.w3.org/1999/xlink"
   xmlns:sodipodi="http://sodipodi.sourceforge.net/DTD/sodipodi-0.dtd"
   xmlns:inkscape="http://www.inkscape.org/namespaces/inkscape"
   inkscape:version="1.0 (4035a4fb49, 2020-05-01)"
   sodipodi:docname="Room 0203.svg"
   id="svg839"
   version="1.1"
   class="st3"
   color-interpolation-filters="sRGB"
   xml:space="preserve"
   viewBox="0 0 683.68412 773.70107"
   height="10.74585in"
   width="9.4956112in"><metadata
   id="metadata845"><rdf:RDF><cc:Work
       rdf:about=""><dc:format>image/svg+xml</dc:format><dc:type
         rdf:resource="http://purl.org/dc/dcmitype/StillImage" /><dc:title></dc:title></cc:Work></rdf:RDF></metadata><defs
   id="defs843">
		
		
		
		
		
		
		
		
		
		
		
		
		
		
		
		
		
		
		
	
			
			
			
			
			
			
			
					
				
				
				
			
					<clipPath
   id="mfid1">
						<rect
   id="mfid2"
   height="852.97998"
   width="833"
   y="-0.51081002"
   x="-0.51006001" />
					</clipPath>
					
				
						<mask
   id="mfid3">
							<rect
   width="833"
   height="853"
   fill="#ffffff"
   stroke="none"
   id="rect14"
   x="0"
   y="0" />
						</mask>
						<mask
   id="mfid4"
   fill="#ffffff"
   stroke="none">
							<g
   id="g21">
								<g
   mask="url(#mfid3)"
   id="g19">
									<use
   xlink:href="#mfid2"
   id="use17"
   x="0"
   y="0"
   width="100%"
   height="100%" />
								</g>
							</g>
						</mask>
						
						<mask
   id="mfid5"
   fill-rule="evenodd"
   fill="#ffffff"
   stroke="none">
							<rect
   x="0"
   y="0"
   width="833"
   height="853"
   id="rect24" />
						</mask>
						
						<defs
   id="defs28">
							<path
   id="mfid6"
   d="M -5.9055,-5.9055 H 172.05 L 166.14,0 H 0 Z" />
						</defs>
						
						
						
						
						<defs
   id="defs377">
							<path
   id="mfid49"
   d="m 6.2719,0 c 7.5671,0 6.4401,-4.9994 6.4401,-4.9991 l -0.71,-4.9765 C 11.691,-12.812 9.2044,-12.807 9.2044,-12.807 H 4.0679 C 0.90754,-12.325 0.72997,-9.5319 0.72997,-9.5319 0.63547,-8.7276 0.032438,-4.5933 0.032438,-4.5933 -0.2707,-1.8787 1.6506,-0.80378 1.6506,-0.80378 3.0675,0 6.2719,0 6.2719,0 Z M 1.746,-19.603 c 0,0 2.2263,-0.24 5.005,-0.24 2.7788,0 4.365,0.24 4.365,0.24 2.125,0.261 1.514,2.344 1.514,2.344 -0.023,0.224 -0.354,1.71 -0.449,1.983 -0.245,0.711 -0.704,1.193 -1.333,1.455 -0.456,0.191 -0.9292,0.322 -1.4184,0.323 -0.0951,0 -0.1902,0 -0.2854,0 H 3.718 c -0.095,0 -0.1903,0 -0.2857,0 -0.4889,-0.001 -0.962,-0.132 -1.4184,-0.323 -0.6289,-0.262 -1.08737,-0.744 -1.3329,-1.455 -0.0945,-0.273 -0.42612,-1.759 -0.4492,-1.983 0,0 -0.61038,-2.083 1.5142,-2.344 z" />
						</defs>
						
						
						
						
						<defs
   id="defs494">
							<path
   id="mfid62"
   d="m 6.2719,0 c 7.5671,0 6.4401,-4.9994 6.4401,-4.9991 l -0.71,-4.9765 C 11.691,-12.812 9.2044,-12.807 9.2044,-12.807 H 4.0679 C 0.90754,-12.325 0.72997,-9.5319 0.72997,-9.5319 0.63547,-8.7276 0.032438,-4.5933 0.032438,-4.5933 -0.2707,-1.8787 1.6506,-0.80378 1.6506,-0.80378 3.0675,0 6.2719,0 6.2719,0 Z M 1.746,-19.603 c 0,0 2.2263,-0.24 5.005,-0.24 2.7788,0 4.365,0.24 4.365,0.24 2.125,0.261 1.514,2.344 1.514,2.344 -0.023,0.224 -0.354,1.71 -0.449,1.983 -0.245,0.711 -0.704,1.193 -1.333,1.455 -0.456,0.191 -0.9292,0.322 -1.4184,0.323 -0.0951,0 -0.1902,0 -0.2854,0 H 3.718 c -0.095,0 -0.1903,0 -0.2857,0 -0.4889,-0.001 -0.962,-0.132 -1.4184,-0.323 -0.6289,-0.262 -1.08737,-0.744 -1.3329,-1.455 -0.0945,-0.273 -0.42612,-1.759 -0.4492,-1.983 0,0 -0.61038,-2.083 1.5142,-2.344 z" />
						</defs>
						
						
						
						
						<defs
   id="defs624">
							<path
   id="mfid76"
   d="m 6.2719,0 c 7.5671,0 6.4401,-4.9994 6.4401,-4.9991 l -0.71,-4.9765 C 11.691,-12.812 9.2044,-12.807 9.2044,-12.807 H 4.0679 C 0.90754,-12.325 0.72997,-9.5319 0.72997,-9.5319 0.63547,-8.7276 0.032438,-4.5933 0.032438,-4.5933 -0.2707,-1.8787 1.6506,-0.80378 1.6506,-0.80378 3.0675,0 6.2719,0 6.2719,0 Z M 1.746,-19.603 c 0,0 2.2263,-0.24 5.005,-0.24 2.7788,0 4.365,0.24 4.365,0.24 2.125,0.261 1.514,2.344 1.514,2.344 -0.023,0.224 -0.354,1.71 -0.449,1.983 -0.245,0.711 -0.704,1.193 -1.333,1.455 -0.456,0.191 -0.9292,0.322 -1.4184,0.323 -0.0951,0 -0.1902,0 -0.2854,0 H 3.718 c -0.095,0 -0.1903,0 -0.2857,0 -0.4889,-0.001 -0.962,-0.132 -1.4184,-0.323 -0.6289,-0.262 -1.08737,-0.744 -1.3329,-1.455 -0.0945,-0.273 -0.42612,-1.759 -0.4492,-1.983 0,0 -0.61038,-2.083 1.5142,-2.344 z" />
						</defs>
						
						
						
						
						<defs
   id="defs741">
							<path
   id="mfid89"
   d="m 6.2719,0 c 7.5671,0 6.4401,-4.9994 6.4401,-4.9991 l -0.71,-4.9765 C 11.691,-12.812 9.2044,-12.807 9.2044,-12.807 H 4.0679 C 0.90754,-12.325 0.72997,-9.5319 0.72997,-9.5319 0.63547,-8.7276 0.032438,-4.5933 0.032438,-4.5933 -0.2707,-1.8787 1.6506,-0.80378 1.6506,-0.80378 3.0675,0 6.2719,0 6.2719,0 Z M 1.746,-19.603 c 0,0 2.2263,-0.24 5.005,-0.24 2.7788,0 4.365,0.24 4.365,0.24 2.125,0.261 1.514,2.344 1.514,2.344 -0.023,0.224 -0.354,1.71 -0.449,1.983 -0.245,0.711 -0.704,1.193 -1.333,1.455 -0.456,0.191 -0.9292,0.322 -1.4184,0.323 -0.0951,0 -0.1902,0 -0.2854,0 H 3.718 c -0.095,0 -0.1903,0 -0.2857,0 -0.4889,-0.001 -0.962,-0.132 -1.4184,-0.323 -0.6289,-0.262 -1.08737,-0.744 -1.3329,-1.455 -0.0945,-0.273 -0.42612,-1.759 -0.4492,-1.983 0,0 -0.61038,-2.083 1.5142,-2.344 z" />
						</defs>
						
					
							
							
							
							
							
							
							
							
							
							
							
							
							
							
							
							
							
							
							
							
							
							
							
							
							
						
							
						
							
							
							
							
							
							
							
							
						
							
						
							
							
							
							
							
							
							
							
							
						
							
						
							
							
							
							
							
							
							
							
						
							
						
							
							
							
							
							
							
						
								
								
							
								
							
								
							
								
							
								
								
							
								
							
								
							
								
							
								
								
							
								
							
								
							
								
							
								
								
							
								
								
							
								
							
								
							
								
							
								
							
								
								
								
							
								
							
								
							
								
							
								
								
							
								
							
								
							
								
							
								
								
							
								
							
								
								
							
								
							
								
								
							
								
								
							
								
							
								
							
								
							
								
								
							
								
							
								
								
							
								
							
								
								
							
								
								
							
								
								
							
								
							
								
							
								
							
								
								
							
								
							
								
								
							
								
							
								
								
							
								
								
							
								
							
								
							
								
							
								
								
							
								
							
								
								
							
								
							
								
								
							
								
								
							
									
								
									
									<defs
   id="defs814">
										<path
   d="M 0,0 H 31.496 V -1.9685 H 0 Z"
   id="mfid98" />
									</defs>
								
									
								
									
									<defs
   id="defs801">
										<path
   d="M 9.9213,-2.1928 H 18.701 L 16.771,0 H 9.9213 3.0711 L 1.1418,-2.1928 Z M 19.843,-2.6371 H 0"
   id="mfid97" />
									</defs>
								
									
									<defs
   id="defs792">
										<path
   d="M 9.9213,-2.1928 H 18.701 L 16.771,0 H 9.9213 3.0711 L 1.1418,-2.1928 Z"
   id="mfid96" />
									</defs>
								
									
									<defs
   id="defs783">
										<path
   d="m 2.9257,-12.826 v -0.716 h 0.7367 v 0.716 H 2.9257 v 0.86 -0.715 h 0.7365 v 0.715 H 2.9257 Z m 0,1.721 v -0.716 h 0.7365 v 0.716 H 2.9257 v 1.2318 -0.7158 h 0.7365 v 0.7158 H 2.9257 Z m 0,2.0918 v -0.7153 h 0.7365 v 0.7153 H 2.9257 v 0.8606 -0.7156 h 0.7365 v 0.7156 H 2.9257 Z m 0,2.1286 v -0.7151 h 0.7365 v 0.7151 H 2.9257 v 0.8603 -0.7148 h 0.7365 v 0.7148 H 2.9257 Z m 0,5.1634 v -4.1579 h 0.7365 v 4.1579 H 2.9257 v 0.86037 -0.71557 h 0.7365 v 0.71557 H 2.9257 Z m 0,1.72095005 V -0.7156 H 3.6622 V -2.4995e-4 H 2.9257 L 2.0408,-9.0132 v -0.7153 h 0.736 v 0.7153 H 2.0408 Z M 2.0408,-6.024 v -1.5757 h 0.736 v 1.5757 h -0.736 v 0.8605 -0.7156 h 0.736 v 0.7156 h -0.736 z m -3e-4,-5.081 v -0.716 h 0.736 v 0.716 h -0.736 l -2e-4,-1.721 v -0.716 h 0.7365 v 0.716 H 2.0403 Z m -2e-4,-0.861 v -0.715 h 0.7365 v 0.715 H 2.0403 v 7.6626 -0.7153 H 2.777 v 0.7153 H 2.0403 Z m 0,8.5232 V -4.1577 H 2.777 v 0.7149 H 2.0403 V -2.582 -3.2976 H 2.777 V -2.582 H 2.0403 Z m 0,1.7214 V -2.437 H 2.777 v 0.7156 H 2.0403 V 0 -1.5764 H 2.777 V 0 H 2.0403 Z M 1.1551,-6.8846 v -0.7151 h 0.7363 v 0.7151 H 1.1551 v 0.8603 -0.7148 h 0.7363 v 0.7148 H 1.1551 Z m 0,1.7211 v -0.7156 h 0.7363 v 0.7156 H 1.1551 v 0.8601 -0.7153 h 0.7365 v 0.7153 H 1.1551 Z m 0,1.7207 v -0.7149 h 0.7365 v 0.7149 H 1.1551 V -2.582 -3.2976 H 1.8916 V -2.582 H 1.1551 Z m 0,1.7214 V -2.437 h 0.7365 v 0.7156 H 1.1551 v 0.86057 -0.71557 h 0.7365 v 0.71557 H 1.1551 Z m 0,1.72115005 V -0.7156 H 1.8916 V -2.4995e-4 H 1.1551 L 1.1549,-12.826 v -0.716 h 0.736 v 0.716 H 1.1549 Z M 1.1549,-11.966 v -0.715 h 0.736 v 0.715 h -0.736 v 0.861 -0.716 h 0.736 v 0.716 H 1.1549 Z M 2.5716e-4,-6.8846 V -7.5997 H 0.73675 v 0.7151 H 2.5716e-4 v 0.8603 -0.7148 H 0.73675 v 0.7148 H 2.5716e-4 Z m 0,1.7211 V -5.8791 H 0.73675 v 0.7156 H 2.5716e-4 v 0.8601 -0.7153 H 0.73675 v 0.7153 H 2.5716e-4 Z m 0,1.7207 V -4.1577 H 0.73675 v 0.7149 H 2.5716e-4 V -2.582 -3.2976 H 0.73675 V -2.582 H 2.5716e-4 Z m 0,1.7214 V -2.437 H 0.73675 v 0.7156 H 2.5716e-4 V -0.86083 -1.5764 H 0.73675 v 0.71557 H 2.5716e-4 Z m 0,1.72115005 V -0.7156 H 0.73675 V -2.4995e-4 H 2.5716e-4 V -8.1526 -8.8682 H 0.73701 v 0.7156 H 2.5716e-4 Z M 0,-12.826 v -0.716 h 0.73675 v 0.716 H 0 v 0.86 -0.715 h 0.73675 v 0.715 H 0 Z m 0,1.721 v -0.716 h 0.7365 v 0.716 H 0 v 1.2318 -0.7158 h 0.73675 v 0.7158 H 0 Z m 0,2.0918 v -0.7153 h 0.7365 v 0.7153 z"
   id="mfid95" />
									</defs>
								
									
									<defs
   id="defs776">
										<path
   d="M 10.247,-17.081 H 5.8944 c -0.1234,0 -0.224,0.097 -0.224,0.218 v 13.9943 c 0,0.12 0.1006,0.2172 0.224,0.2172 h 4.3516 c 0.124,0 0.224,-0.0972 0.224,-0.2172 V -16.863 c 0,-0.121 -0.1,-0.218 -0.223,-0.218 z m -6.734,4.145 v -0.021 h 0.6892 c 0.3255,0 0.5894,0.311 0.5894,0.695 v 4.6943 c 0,0.3841 -0.2639,0.6953 -0.5894,0.6953 H 3.513 Z m -3e-4,0 V -2.8382 L 0.5768,0 0,-0.21121 V -19.632 l 0.5768,-0.211 2.9359,2.839 z"
   id="mfid94" />
									</defs>
								
									
									<defs
   id="defs762">
										<path
   d="m 5.4726,-14.961 c 0,0 2.2298,-0.205 5.0084,-0.162 2.778,0.043 4.361,0.307 4.361,0.307 0.998,0.139 1.383,0.671 1.513,1.197 0.087,-0.356 0.398,-2.038 -1.496,-2.301 0,0 -1.583,-0.264 -4.361,-0.307 -2.7785,-0.043 -5.0083,0.162 -5.0083,0.162 -1.9018,0.204 -1.6428,1.895 -1.5661,2.253 0.1451,-0.521 0.547,-1.041 1.549,-1.149 z M 19.837,-1.7548 18.405,-7.2111 c -0.475,-1.6853 -1.245,-1.5851 -1.551,-1.5303 -0.797,0.1429 -0.682,0.8921 -0.619,1.8893 l 0.67,5.3237 c 0.153,0.88777 0.753,1.586933 1.562,1.524524 0.81,-0.06265 1.424,-0.846164 1.37,-1.750924 z M 0.007504,-2.0623 1.6081,-7.4716 c 0.5274,-1.6697 1.2936,-1.5457 1.598,-1.4815 0.7921,0.1676 0.6539,0.9129 0.5597,1.9077 L 2.9312,-1.7451 C 2.7507,-0.86249 2.1299,-0.18225 1.3223,-0.26974 0.51513,-0.35746 -0.073817,-1.1596 0.007504,-2.0623 Z M 3.9437,-3.5581 3.2186,-3.5694 l 0.2628,-1.67 0.7172,0.0338 z m 5.3037,-5.6518 1.6426,0.0255 0.011,-0.6909 -1.6429,-0.0255 z m 6.7016,5.8379 0.725,0.0113 -0.211,-1.6774 -0.717,0.0116 z"
   id="mfid92" />
									</defs>
									
									<defs
   id="defs767">
										<path
   d="M 10.247,-17.081 H 5.8944 c -0.1234,0 -0.224,0.097 -0.224,0.218 v 13.9943 c 0,0.12 0.1006,0.2172 0.224,0.2172 h 4.3516 c 0.124,0 0.224,-0.0972 0.224,-0.2172 V -16.863 c 0,-0.121 -0.1,-0.218 -0.223,-0.218 z m -6.734,4.145 v -0.021 h 0.6892 c 0.3255,0 0.5894,0.311 0.5894,0.695 v 4.6943 c 0,0.3841 -0.2639,0.6953 -0.5894,0.6953 H 3.513 Z m -3e-4,0 V -2.8382 L 0.5768,0 0,-0.21121 V -19.632 l 0.5768,-0.211 2.9359,2.839 z"
   id="mfid93" />
									</defs>
								
									
									<defs
   id="defs753">
										<path
   d="m 5.4726,-14.961 c 0,0 2.2298,-0.205 5.0084,-0.162 2.778,0.043 4.361,0.307 4.361,0.307 0.998,0.139 1.383,0.671 1.513,1.197 0.087,-0.356 0.398,-2.038 -1.496,-2.301 0,0 -1.583,-0.264 -4.361,-0.307 -2.7785,-0.043 -5.0083,0.162 -5.0083,0.162 -1.9018,0.204 -1.6428,1.895 -1.5661,2.253 0.1451,-0.521 0.547,-1.041 1.549,-1.149 z M 19.837,-1.7548 18.405,-7.2111 c -0.475,-1.6853 -1.245,-1.5851 -1.551,-1.5303 -0.797,0.1429 -0.682,0.8921 -0.619,1.8893 l 0.67,5.3237 c 0.153,0.88777 0.753,1.586933 1.562,1.524524 0.81,-0.06265 1.424,-0.846164 1.37,-1.750924 z M 0.007504,-2.0623 1.6081,-7.4716 c 0.5274,-1.6697 1.2936,-1.5457 1.598,-1.4815 0.7921,0.1676 0.6539,0.9129 0.5597,1.9077 L 2.9312,-1.7451 C 2.7507,-0.86249 2.1299,-0.18225 1.3223,-0.26974 0.51513,-0.35746 -0.073817,-1.1596 0.007504,-2.0623 Z M 3.9437,-3.5581 3.2186,-3.5694 l 0.2628,-1.67 0.7172,0.0338 z m 5.3037,-5.6518 1.6426,0.0255 0.011,-0.6909 -1.6429,-0.0255 z m 6.7016,5.8379 0.725,0.0113 -0.211,-1.6774 -0.717,0.0116 z"
   id="mfid91" />
									</defs>
								
									
									<defs
   id="defs746">
										<path
   d="m 6.2719,0 c 7.5671,0 6.4401,-4.9994 6.4401,-4.9991 l -0.71,-4.9765 C 11.691,-12.812 9.2044,-12.807 9.2044,-12.807 H 4.0679 C 0.90754,-12.325 0.72997,-9.5319 0.72997,-9.5319 0.63547,-8.7276 0.032438,-4.5933 0.032438,-4.5933 -0.2707,-1.8787 1.6506,-0.80378 1.6506,-0.80378 3.0675,0 6.2719,0 6.2719,0 Z M 1.746,-19.603 c 0,0 2.2263,-0.24 5.005,-0.24 2.7788,0 4.365,0.24 4.365,0.24 2.125,0.261 1.514,2.344 1.514,2.344 -0.023,0.224 -0.354,1.71 -0.449,1.983 -0.245,0.711 -0.704,1.193 -1.333,1.455 -0.456,0.191 -0.9292,0.322 -1.4184,0.323 -0.0951,0 -0.1902,0 -0.2854,0 H 3.718 c -0.095,0 -0.1903,0 -0.2857,0 -0.4889,-0.001 -0.962,-0.132 -1.4184,-0.323 -0.6289,-0.262 -1.08737,-0.744 -1.3329,-1.455 -0.0945,-0.273 -0.42612,-1.759 -0.4492,-1.983 0,0 -0.61038,-2.083 1.5142,-2.344 z"
   id="mfid90" />
									</defs>
								
									
								
									
								
									
									<defs
   id="defs716">
										<path
   d="m 2.9528,-1.4764 c 0,-0.8154 -0.661,-1.4764 -1.4764,-1.4764 C 0.661,-2.9528 0,-2.2918 0,-1.4764 0,-0.661 0.661,0 1.4764,0 2.2918,0 2.9528,-0.661 2.9528,-1.4764 Z"
   id="mfid88" />
									</defs>
								
									
									<defs
   id="defs707">
										<path
   d="M 4.252,-2.126 C 4.252,-3.3001 3.3001,-4.252 2.126,-4.252 0.95184,-4.252 0,-3.3001 0,-2.126 0,-0.95184 0.95184,0 2.126,0 3.3001,0 4.252,-0.95184 4.252,-2.126 Z"
   id="mfid87" />
									</defs>
								
									
									<defs
   id="defs700">
										<path
   d="m 0,-62.3 c 0,-0.382 0.27828,-0.692 0.62163,-0.692 H 30.874 c 0.344,0 0.622,0.31 0.622,0.692 V -0.69222 C 31.496,-0.31012 31.217,0 30.874,0 H 0.62163 C 0.27828,0 0,-0.31012 0,-0.69222 Z"
   id="mfid86" />
									</defs>
								
									
									<defs
   id="defs691">
										<path
   d="m 0,-62.3 c 0,-0.382 0.27828,-0.692 0.62163,-0.692 H 30.874 c 0.344,0 0.622,0.31 0.622,0.692 V -0.69222 C 31.496,-0.31012 31.217,0 30.874,0 H 0.62163 C 0.27828,0 0,-0.31012 0,-0.69222 Z"
   id="mfid85" />
									</defs>
								
									
									<defs
   id="defs684">
										<path
   d="M 9.9213,-2.1928 H 18.701 L 16.771,0 H 9.9213 3.0711 L 1.1418,-2.1928 Z M 19.843,-2.6371 H 0"
   id="mfid84" />
									</defs>
								
									
									<defs
   id="defs675">
										<path
   d="M 9.9213,-2.1928 H 18.701 L 16.771,0 H 9.9213 3.0711 L 1.1418,-2.1928 Z"
   id="mfid83" />
									</defs>
								
									
									<defs
   id="defs666">
										<path
   d="m 2.9257,-12.826 v -0.716 h 0.7367 v 0.716 H 2.9257 v 0.86 -0.715 h 0.7365 v 0.715 H 2.9257 Z m 0,1.721 v -0.716 h 0.7365 v 0.716 H 2.9257 v 1.2318 -0.7158 h 0.7365 v 0.7158 H 2.9257 Z m 0,2.0918 v -0.7153 h 0.7365 v 0.7153 H 2.9257 v 0.8606 -0.7156 h 0.7365 v 0.7156 H 2.9257 Z m 0,2.1286 v -0.7151 h 0.7365 v 0.7151 H 2.9257 v 0.8603 -0.7148 h 0.7365 v 0.7148 H 2.9257 Z m 0,5.1634 v -4.1579 h 0.7365 v 4.1579 H 2.9257 v 0.86037 -0.71557 h 0.7365 v 0.71557 H 2.9257 Z m 0,1.72095005 V -0.7156 H 3.6622 V -2.4995e-4 H 2.9257 L 2.0408,-9.0132 v -0.7153 h 0.736 v 0.7153 H 2.0408 Z M 2.0408,-6.024 v -1.5757 h 0.736 v 1.5757 h -0.736 v 0.8605 -0.7156 h 0.736 v 0.7156 h -0.736 z m -3e-4,-5.081 v -0.716 h 0.736 v 0.716 h -0.736 l -2e-4,-1.721 v -0.716 h 0.7365 v 0.716 H 2.0403 Z m -2e-4,-0.861 v -0.715 h 0.7365 v 0.715 H 2.0403 v 7.6626 -0.7153 H 2.777 v 0.7153 H 2.0403 Z m 0,8.5232 V -4.1577 H 2.777 v 0.7149 H 2.0403 V -2.582 -3.2976 H 2.777 V -2.582 H 2.0403 Z m 0,1.7214 V -2.437 H 2.777 v 0.7156 H 2.0403 V 0 -1.5764 H 2.777 V 0 H 2.0403 Z M 1.1551,-6.8846 v -0.7151 h 0.7363 v 0.7151 H 1.1551 v 0.8603 -0.7148 h 0.7363 v 0.7148 H 1.1551 Z m 0,1.7211 v -0.7156 h 0.7363 v 0.7156 H 1.1551 v 0.8601 -0.7153 h 0.7365 v 0.7153 H 1.1551 Z m 0,1.7207 v -0.7149 h 0.7365 v 0.7149 H 1.1551 V -2.582 -3.2976 H 1.8916 V -2.582 H 1.1551 Z m 0,1.7214 V -2.437 h 0.7365 v 0.7156 H 1.1551 v 0.86057 -0.71557 h 0.7365 v 0.71557 H 1.1551 Z m 0,1.72115005 V -0.7156 H 1.8916 V -2.4995e-4 H 1.1551 L 1.1549,-12.826 v -0.716 h 0.736 v 0.716 H 1.1549 Z M 1.1549,-11.966 v -0.715 h 0.736 v 0.715 h -0.736 v 0.861 -0.716 h 0.736 v 0.716 H 1.1549 Z M 2.5716e-4,-6.8846 V -7.5997 H 0.73675 v 0.7151 H 2.5716e-4 v 0.8603 -0.7148 H 0.73675 v 0.7148 H 2.5716e-4 Z m 0,1.7211 V -5.8791 H 0.73675 v 0.7156 H 2.5716e-4 v 0.8601 -0.7153 H 0.73675 v 0.7153 H 2.5716e-4 Z m 0,1.7207 V -4.1577 H 0.73675 v 0.7149 H 2.5716e-4 V -2.582 -3.2976 H 0.73675 V -2.582 H 2.5716e-4 Z m 0,1.7214 V -2.437 H 0.73675 v 0.7156 H 2.5716e-4 V -0.86083 -1.5764 H 0.73675 v 0.71557 H 2.5716e-4 Z m 0,1.72115005 V -0.7156 H 0.73675 V -2.4995e-4 H 2.5716e-4 V -8.1526 -8.8682 H 0.73701 v 0.7156 H 2.5716e-4 Z M 0,-12.826 v -0.716 h 0.73675 v 0.716 H 0 v 0.86 -0.715 h 0.73675 v 0.715 H 0 Z m 0,1.721 v -0.716 h 0.7365 v 0.716 H 0 v 1.2318 -0.7158 h 0.73675 v 0.7158 H 0 Z m 0,2.0918 v -0.7153 h 0.7365 v 0.7153 z"
   id="mfid82" />
									</defs>
								
									
									<defs
   id="defs659">
										<path
   d="M 10.247,-17.081 H 5.8944 c -0.1234,0 -0.224,0.097 -0.224,0.218 v 13.9943 c 0,0.12 0.1006,0.2172 0.224,0.2172 h 4.3516 c 0.124,0 0.224,-0.0972 0.224,-0.2172 V -16.863 c 0,-0.121 -0.1,-0.218 -0.223,-0.218 z m -6.734,4.145 v -0.021 h 0.6892 c 0.3255,0 0.5894,0.311 0.5894,0.695 v 4.6943 c 0,0.3841 -0.2639,0.6953 -0.5894,0.6953 H 3.513 Z m -3e-4,0 V -2.8382 L 0.5768,0 0,-0.21121 V -19.632 l 0.5768,-0.211 2.9359,2.839 z"
   id="mfid81" />
									</defs>
								
									
									<defs
   id="defs645">
										<path
   d="m 5.4726,-14.961 c 0,0 2.2298,-0.205 5.0084,-0.162 2.778,0.043 4.361,0.307 4.361,0.307 0.998,0.139 1.383,0.671 1.513,1.197 0.087,-0.356 0.398,-2.038 -1.496,-2.301 0,0 -1.583,-0.264 -4.361,-0.307 -2.7785,-0.043 -5.0083,0.162 -5.0083,0.162 -1.9018,0.204 -1.6428,1.895 -1.5661,2.253 0.1451,-0.521 0.547,-1.041 1.549,-1.149 z M 19.837,-1.7548 18.405,-7.2111 c -0.475,-1.6853 -1.245,-1.5851 -1.551,-1.5303 -0.797,0.1429 -0.682,0.8921 -0.619,1.8893 l 0.67,5.3237 c 0.153,0.88777 0.753,1.586933 1.562,1.524524 0.81,-0.06265 1.424,-0.846164 1.37,-1.750924 z M 0.007504,-2.0623 1.6081,-7.4716 c 0.5274,-1.6697 1.2936,-1.5457 1.598,-1.4815 0.7921,0.1676 0.6539,0.9129 0.5597,1.9077 L 2.9312,-1.7451 C 2.7507,-0.86249 2.1299,-0.18225 1.3223,-0.26974 0.51513,-0.35746 -0.073817,-1.1596 0.007504,-2.0623 Z M 3.9437,-3.5581 3.2186,-3.5694 l 0.2628,-1.67 0.7172,0.0338 z m 5.3037,-5.6518 1.6426,0.0255 0.011,-0.6909 -1.6429,-0.0255 z m 6.7016,5.8379 0.725,0.0113 -0.211,-1.6774 -0.717,0.0116 z"
   id="mfid79" />
									</defs>
									
									<defs
   id="defs650">
										<path
   d="M 10.247,-17.081 H 5.8944 c -0.1234,0 -0.224,0.097 -0.224,0.218 v 13.9943 c 0,0.12 0.1006,0.2172 0.224,0.2172 h 4.3516 c 0.124,0 0.224,-0.0972 0.224,-0.2172 V -16.863 c 0,-0.121 -0.1,-0.218 -0.223,-0.218 z m -6.734,4.145 v -0.021 h 0.6892 c 0.3255,0 0.5894,0.311 0.5894,0.695 v 4.6943 c 0,0.3841 -0.2639,0.6953 -0.5894,0.6953 H 3.513 Z m -3e-4,0 V -2.8382 L 0.5768,0 0,-0.21121 V -19.632 l 0.5768,-0.211 2.9359,2.839 z"
   id="mfid80" />
									</defs>
								
									
									<defs
   id="defs636">
										<path
   d="m 5.4726,-14.961 c 0,0 2.2298,-0.205 5.0084,-0.162 2.778,0.043 4.361,0.307 4.361,0.307 0.998,0.139 1.383,0.671 1.513,1.197 0.087,-0.356 0.398,-2.038 -1.496,-2.301 0,0 -1.583,-0.264 -4.361,-0.307 -2.7785,-0.043 -5.0083,0.162 -5.0083,0.162 -1.9018,0.204 -1.6428,1.895 -1.5661,2.253 0.1451,-0.521 0.547,-1.041 1.549,-1.149 z M 19.837,-1.7548 18.405,-7.2111 c -0.475,-1.6853 -1.245,-1.5851 -1.551,-1.5303 -0.797,0.1429 -0.682,0.8921 -0.619,1.8893 l 0.67,5.3237 c 0.153,0.88777 0.753,1.586933 1.562,1.524524 0.81,-0.06265 1.424,-0.846164 1.37,-1.750924 z M 0.007504,-2.0623 1.6081,-7.4716 c 0.5274,-1.6697 1.2936,-1.5457 1.598,-1.4815 0.7921,0.1676 0.6539,0.9129 0.5597,1.9077 L 2.9312,-1.7451 C 2.7507,-0.86249 2.1299,-0.18225 1.3223,-0.26974 0.51513,-0.35746 -0.073817,-1.1596 0.007504,-2.0623 Z M 3.9437,-3.5581 3.2186,-3.5694 l 0.2628,-1.67 0.7172,0.0338 z m 5.3037,-5.6518 1.6426,0.0255 0.011,-0.6909 -1.6429,-0.0255 z m 6.7016,5.8379 0.725,0.0113 -0.211,-1.6774 -0.717,0.0116 z"
   id="mfid78" />
									</defs>
								
									
									<defs
   id="defs629">
										<path
   d="m 6.2719,0 c 7.5671,0 6.4401,-4.9994 6.4401,-4.9991 l -0.71,-4.9765 C 11.691,-12.812 9.2044,-12.807 9.2044,-12.807 H 4.0679 C 0.90754,-12.325 0.72997,-9.5319 0.72997,-9.5319 0.63547,-8.7276 0.032438,-4.5933 0.032438,-4.5933 -0.2707,-1.8787 1.6506,-0.80378 1.6506,-0.80378 3.0675,0 6.2719,0 6.2719,0 Z M 1.746,-19.603 c 0,0 2.2263,-0.24 5.005,-0.24 2.7788,0 4.365,0.24 4.365,0.24 2.125,0.261 1.514,2.344 1.514,2.344 -0.023,0.224 -0.354,1.71 -0.449,1.983 -0.245,0.711 -0.704,1.193 -1.333,1.455 -0.456,0.191 -0.9292,0.322 -1.4184,0.323 -0.0951,0 -0.1902,0 -0.2854,0 H 3.718 c -0.095,0 -0.1903,0 -0.2857,0 -0.4889,-0.001 -0.962,-0.132 -1.4184,-0.323 -0.6289,-0.262 -1.08737,-0.744 -1.3329,-1.455 -0.0945,-0.273 -0.42612,-1.759 -0.4492,-1.983 0,0 -0.61038,-2.083 1.5142,-2.344 z"
   id="mfid77" />
									</defs>
								
									
								
									
								
									
									<defs
   id="defs599">
										<path
   d="m 2.9528,-1.4764 c 0,-0.8154 -0.661,-1.4764 -1.4764,-1.4764 C 0.661,-2.9528 0,-2.2918 0,-1.4764 0,-0.661 0.661,0 1.4764,0 2.2918,0 2.9528,-0.661 2.9528,-1.4764 Z"
   id="mfid75" />
									</defs>
								
									
									<defs
   id="defs590">
										<path
   d="M 4.252,-2.126 C 4.252,-3.3001 3.3001,-4.252 2.126,-4.252 0.95184,-4.252 0,-3.3001 0,-2.126 0,-0.95184 0.95184,0 2.126,0 3.3001,0 4.252,-0.95184 4.252,-2.126 Z"
   id="mfid74" />
									</defs>
								
									
									<defs
   id="defs583">
										<path
   d="m 0,-62.3 c 0,-0.382 0.27828,-0.692 0.62163,-0.692 H 30.874 c 0.344,0 0.622,0.31 0.622,0.692 V -0.69222 C 31.496,-0.31012 31.217,0 30.874,0 H 0.62163 C 0.27828,0 0,-0.31012 0,-0.69222 Z"
   id="mfid73" />
									</defs>
								
									
									<defs
   id="defs574">
										<path
   d="m 0,-62.3 c 0,-0.382 0.27828,-0.692 0.62163,-0.692 H 30.874 c 0.344,0 0.622,0.31 0.622,0.692 V -0.69222 C 31.496,-0.31012 31.217,0 30.874,0 H 0.62163 C 0.27828,0 0,-0.31012 0,-0.69222 Z"
   id="mfid72" />
									</defs>
								
									
									<defs
   id="defs567">
										<path
   d="M 0,0 H 31.496 V -1.9685 H 0 Z"
   id="mfid71" />
									</defs>
								
									
								
									
									<defs
   id="defs554">
										<path
   d="M 9.9213,-2.1928 H 18.701 L 16.771,0 H 9.9213 3.0711 L 1.1418,-2.1928 Z M 19.843,-2.6371 H 0"
   id="mfid70" />
									</defs>
								
									
									<defs
   id="defs545">
										<path
   d="M 9.9213,-2.1928 H 18.701 L 16.771,0 H 9.9213 3.0711 L 1.1418,-2.1928 Z"
   id="mfid69" />
									</defs>
								
									
									<defs
   id="defs536">
										<path
   d="m 2.9257,-12.826 v -0.716 h 0.7367 v 0.716 H 2.9257 v 0.86 -0.715 h 0.7365 v 0.715 H 2.9257 Z m 0,1.721 v -0.716 h 0.7365 v 0.716 H 2.9257 v 1.2318 -0.7158 h 0.7365 v 0.7158 H 2.9257 Z m 0,2.0918 v -0.7153 h 0.7365 v 0.7153 H 2.9257 v 0.8606 -0.7156 h 0.7365 v 0.7156 H 2.9257 Z m 0,2.1286 v -0.7151 h 0.7365 v 0.7151 H 2.9257 v 0.8603 -0.7148 h 0.7365 v 0.7148 H 2.9257 Z m 0,5.1634 v -4.1579 h 0.7365 v 4.1579 H 2.9257 v 0.86037 -0.71557 h 0.7365 v 0.71557 H 2.9257 Z m 0,1.72095005 V -0.7156 H 3.6622 V -2.4995e-4 H 2.9257 L 2.0408,-9.0132 v -0.7153 h 0.736 v 0.7153 H 2.0408 Z M 2.0408,-6.024 v -1.5757 h 0.736 v 1.5757 h -0.736 v 0.8605 -0.7156 h 0.736 v 0.7156 h -0.736 z m -3e-4,-5.081 v -0.716 h 0.736 v 0.716 h -0.736 l -2e-4,-1.721 v -0.716 h 0.7365 v 0.716 H 2.0403 Z m -2e-4,-0.861 v -0.715 h 0.7365 v 0.715 H 2.0403 v 7.6626 -0.7153 H 2.777 v 0.7153 H 2.0403 Z m 0,8.5232 V -4.1577 H 2.777 v 0.7149 H 2.0403 V -2.582 -3.2976 H 2.777 V -2.582 H 2.0403 Z m 0,1.7214 V -2.437 H 2.777 v 0.7156 H 2.0403 V 0 -1.5764 H 2.777 V 0 H 2.0403 Z M 1.1551,-6.8846 v -0.7151 h 0.7363 v 0.7151 H 1.1551 v 0.8603 -0.7148 h 0.7363 v 0.7148 H 1.1551 Z m 0,1.7211 v -0.7156 h 0.7363 v 0.7156 H 1.1551 v 0.8601 -0.7153 h 0.7365 v 0.7153 H 1.1551 Z m 0,1.7207 v -0.7149 h 0.7365 v 0.7149 H 1.1551 V -2.582 -3.2976 H 1.8916 V -2.582 H 1.1551 Z m 0,1.7214 V -2.437 h 0.7365 v 0.7156 H 1.1551 v 0.86057 -0.71557 h 0.7365 v 0.71557 H 1.1551 Z m 0,1.72115005 V -0.7156 H 1.8916 V -2.4995e-4 H 1.1551 L 1.1549,-12.826 v -0.716 h 0.736 v 0.716 H 1.1549 Z M 1.1549,-11.966 v -0.715 h 0.736 v 0.715 h -0.736 v 0.861 -0.716 h 0.736 v 0.716 H 1.1549 Z M 2.5716e-4,-6.8846 V -7.5997 H 0.73675 v 0.7151 H 2.5716e-4 v 0.8603 -0.7148 H 0.73675 v 0.7148 H 2.5716e-4 Z m 0,1.7211 V -5.8791 H 0.73675 v 0.7156 H 2.5716e-4 v 0.8601 -0.7153 H 0.73675 v 0.7153 H 2.5716e-4 Z m 0,1.7207 V -4.1577 H 0.73675 v 0.7149 H 2.5716e-4 V -2.582 -3.2976 H 0.73675 V -2.582 H 2.5716e-4 Z m 0,1.7214 V -2.437 H 0.73675 v 0.7156 H 2.5716e-4 V -0.86083 -1.5764 H 0.73675 v 0.71557 H 2.5716e-4 Z m 0,1.72115005 V -0.7156 H 0.73675 V -2.4995e-4 H 2.5716e-4 V -8.1526 -8.8682 H 0.73701 v 0.7156 H 2.5716e-4 Z M 0,-12.826 v -0.716 h 0.73675 v 0.716 H 0 v 0.86 -0.715 h 0.73675 v 0.715 H 0 Z m 0,1.721 v -0.716 h 0.7365 v 0.716 H 0 v 1.2318 -0.7158 h 0.73675 v 0.7158 H 0 Z m 0,2.0918 v -0.7153 h 0.7365 v 0.7153 z"
   id="mfid68" />
									</defs>
								
									
									<defs
   id="defs529">
										<path
   d="M 10.247,-17.081 H 5.8944 c -0.1234,0 -0.224,0.097 -0.224,0.218 v 13.9943 c 0,0.12 0.1006,0.2172 0.224,0.2172 h 4.3516 c 0.124,0 0.224,-0.0972 0.224,-0.2172 V -16.863 c 0,-0.121 -0.1,-0.218 -0.223,-0.218 z m -6.734,4.145 v -0.021 h 0.6892 c 0.3255,0 0.5894,0.311 0.5894,0.695 v 4.6943 c 0,0.3841 -0.2639,0.6953 -0.5894,0.6953 H 3.513 Z m -3e-4,0 V -2.8382 L 0.5768,0 0,-0.21121 V -19.632 l 0.5768,-0.211 2.9359,2.839 z"
   id="mfid67" />
									</defs>
								
									
									<defs
   id="defs515">
										<path
   d="m 5.4726,-14.961 c 0,0 2.2298,-0.205 5.0084,-0.162 2.778,0.043 4.361,0.307 4.361,0.307 0.998,0.139 1.383,0.671 1.513,1.197 0.087,-0.356 0.398,-2.038 -1.496,-2.301 0,0 -1.583,-0.264 -4.361,-0.307 -2.7785,-0.043 -5.0083,0.162 -5.0083,0.162 -1.9018,0.204 -1.6428,1.895 -1.5661,2.253 0.1451,-0.521 0.547,-1.041 1.549,-1.149 z M 19.837,-1.7548 18.405,-7.2111 c -0.475,-1.6853 -1.245,-1.5851 -1.551,-1.5303 -0.797,0.1429 -0.682,0.8921 -0.619,1.8893 l 0.67,5.3237 c 0.153,0.88777 0.753,1.586933 1.562,1.524524 0.81,-0.06265 1.424,-0.846164 1.37,-1.750924 z M 0.007504,-2.0623 1.6081,-7.4716 c 0.5274,-1.6697 1.2936,-1.5457 1.598,-1.4815 0.7921,0.1676 0.6539,0.9129 0.5597,1.9077 L 2.9312,-1.7451 C 2.7507,-0.86249 2.1299,-0.18225 1.3223,-0.26974 0.51513,-0.35746 -0.073817,-1.1596 0.007504,-2.0623 Z M 3.9437,-3.5581 3.2186,-3.5694 l 0.2628,-1.67 0.7172,0.0338 z m 5.3037,-5.6518 1.6426,0.0255 0.011,-0.6909 -1.6429,-0.0255 z m 6.7016,5.8379 0.725,0.0113 -0.211,-1.6774 -0.717,0.0116 z"
   id="mfid65" />
									</defs>
									
									<defs
   id="defs520">
										<path
   d="M 10.247,-17.081 H 5.8944 c -0.1234,0 -0.224,0.097 -0.224,0.218 v 13.9943 c 0,0.12 0.1006,0.2172 0.224,0.2172 h 4.3516 c 0.124,0 0.224,-0.0972 0.224,-0.2172 V -16.863 c 0,-0.121 -0.1,-0.218 -0.223,-0.218 z m -6.734,4.145 v -0.021 h 0.6892 c 0.3255,0 0.5894,0.311 0.5894,0.695 v 4.6943 c 0,0.3841 -0.2639,0.6953 -0.5894,0.6953 H 3.513 Z m -3e-4,0 V -2.8382 L 0.5768,0 0,-0.21121 V -19.632 l 0.5768,-0.211 2.9359,2.839 z"
   id="mfid66" />
									</defs>
								
									
									<defs
   id="defs506">
										<path
   d="m 5.4726,-14.961 c 0,0 2.2298,-0.205 5.0084,-0.162 2.778,0.043 4.361,0.307 4.361,0.307 0.998,0.139 1.383,0.671 1.513,1.197 0.087,-0.356 0.398,-2.038 -1.496,-2.301 0,0 -1.583,-0.264 -4.361,-0.307 -2.7785,-0.043 -5.0083,0.162 -5.0083,0.162 -1.9018,0.204 -1.6428,1.895 -1.5661,2.253 0.1451,-0.521 0.547,-1.041 1.549,-1.149 z M 19.837,-1.7548 18.405,-7.2111 c -0.475,-1.6853 -1.245,-1.5851 -1.551,-1.5303 -0.797,0.1429 -0.682,0.8921 -0.619,1.8893 l 0.67,5.3237 c 0.153,0.88777 0.753,1.586933 1.562,1.524524 0.81,-0.06265 1.424,-0.846164 1.37,-1.750924 z M 0.007504,-2.0623 1.6081,-7.4716 c 0.5274,-1.6697 1.2936,-1.5457 1.598,-1.4815 0.7921,0.1676 0.6539,0.9129 0.5597,1.9077 L 2.9312,-1.7451 C 2.7507,-0.86249 2.1299,-0.18225 1.3223,-0.26974 0.51513,-0.35746 -0.073817,-1.1596 0.007504,-2.0623 Z M 3.9437,-3.5581 3.2186,-3.5694 l 0.2628,-1.67 0.7172,0.0338 z m 5.3037,-5.6518 1.6426,0.0255 0.011,-0.6909 -1.6429,-0.0255 z m 6.7016,5.8379 0.725,0.0113 -0.211,-1.6774 -0.717,0.0116 z"
   id="mfid64" />
									</defs>
								
									
									<defs
   id="defs499">
										<path
   d="m 6.2719,0 c 7.5671,0 6.4401,-4.9994 6.4401,-4.9991 l -0.71,-4.9765 C 11.691,-12.812 9.2044,-12.807 9.2044,-12.807 H 4.0679 C 0.90754,-12.325 0.72997,-9.5319 0.72997,-9.5319 0.63547,-8.7276 0.032438,-4.5933 0.032438,-4.5933 -0.2707,-1.8787 1.6506,-0.80378 1.6506,-0.80378 3.0675,0 6.2719,0 6.2719,0 Z M 1.746,-19.603 c 0,0 2.2263,-0.24 5.005,-0.24 2.7788,0 4.365,0.24 4.365,0.24 2.125,0.261 1.514,2.344 1.514,2.344 -0.023,0.224 -0.354,1.71 -0.449,1.983 -0.245,0.711 -0.704,1.193 -1.333,1.455 -0.456,0.191 -0.9292,0.322 -1.4184,0.323 -0.0951,0 -0.1902,0 -0.2854,0 H 3.718 c -0.095,0 -0.1903,0 -0.2857,0 -0.4889,-0.001 -0.962,-0.132 -1.4184,-0.323 -0.6289,-0.262 -1.08737,-0.744 -1.3329,-1.455 -0.0945,-0.273 -0.42612,-1.759 -0.4492,-1.983 0,0 -0.61038,-2.083 1.5142,-2.344 z"
   id="mfid63" />
									</defs>
								
									
								
									
								
									
									<defs
   id="defs469">
										<path
   d="m 2.9528,-1.4764 c 0,-0.8154 -0.661,-1.4764 -1.4764,-1.4764 C 0.661,-2.9528 0,-2.2918 0,-1.4764 0,-0.661 0.661,0 1.4764,0 2.2918,0 2.9528,-0.661 2.9528,-1.4764 Z"
   id="mfid61" />
									</defs>
								
									
									<defs
   id="defs460">
										<path
   d="M 4.252,-2.126 C 4.252,-3.3001 3.3001,-4.252 2.126,-4.252 0.95184,-4.252 0,-3.3001 0,-2.126 0,-0.95184 0.95184,0 2.126,0 3.3001,0 4.252,-0.95184 4.252,-2.126 Z"
   id="mfid60" />
									</defs>
								
									
									<defs
   id="defs453">
										<path
   d="m 0,-62.3 c 0,-0.382 0.27828,-0.692 0.62163,-0.692 H 30.874 c 0.344,0 0.622,0.31 0.622,0.692 V -0.69222 C 31.496,-0.31012 31.217,0 30.874,0 H 0.62163 C 0.27828,0 0,-0.31012 0,-0.69222 Z"
   id="mfid59" />
									</defs>
								
									
									<defs
   id="defs444">
										<path
   d="m 0,-62.3 c 0,-0.382 0.27828,-0.692 0.62163,-0.692 H 30.874 c 0.344,0 0.622,0.31 0.622,0.692 V -0.69222 C 31.496,-0.31012 31.217,0 30.874,0 H 0.62163 C 0.27828,0 0,-0.31012 0,-0.69222 Z"
   id="mfid58" />
									</defs>
								
									
									<defs
   id="defs437">
										<path
   d="M 9.9213,-2.1928 H 18.701 L 16.771,0 H 9.9213 3.0711 L 1.1418,-2.1928 Z M 19.843,-2.6371 H 0"
   id="mfid57" />
									</defs>
								
									
									<defs
   id="defs428">
										<path
   d="M 9.9213,-2.1928 H 18.701 L 16.771,0 H 9.9213 3.0711 L 1.1418,-2.1928 Z"
   id="mfid56" />
									</defs>
								
									
									<defs
   id="defs419">
										<path
   d="m 2.9257,-12.826 v -0.716 h 0.7367 v 0.716 H 2.9257 v 0.86 -0.715 h 0.7365 v 0.715 H 2.9257 Z m 0,1.721 v -0.716 h 0.7365 v 0.716 H 2.9257 v 1.2318 -0.7158 h 0.7365 v 0.7158 H 2.9257 Z m 0,2.0918 v -0.7153 h 0.7365 v 0.7153 H 2.9257 v 0.8606 -0.7156 h 0.7365 v 0.7156 H 2.9257 Z m 0,2.1286 v -0.7151 h 0.7365 v 0.7151 H 2.9257 v 0.8603 -0.7148 h 0.7365 v 0.7148 H 2.9257 Z m 0,5.1634 v -4.1579 h 0.7365 v 4.1579 H 2.9257 v 0.86037 -0.71557 h 0.7365 v 0.71557 H 2.9257 Z m 0,1.72095005 V -0.7156 H 3.6622 V -2.4995e-4 H 2.9257 L 2.0408,-9.0132 v -0.7153 h 0.736 v 0.7153 H 2.0408 Z M 2.0408,-6.024 v -1.5757 h 0.736 v 1.5757 h -0.736 v 0.8605 -0.7156 h 0.736 v 0.7156 h -0.736 z m -3e-4,-5.081 v -0.716 h 0.736 v 0.716 h -0.736 l -2e-4,-1.721 v -0.716 h 0.7365 v 0.716 H 2.0403 Z m -2e-4,-0.861 v -0.715 h 0.7365 v 0.715 H 2.0403 v 7.6626 -0.7153 H 2.777 v 0.7153 H 2.0403 Z m 0,8.5232 V -4.1577 H 2.777 v 0.7149 H 2.0403 V -2.582 -3.2976 H 2.777 V -2.582 H 2.0403 Z m 0,1.7214 V -2.437 H 2.777 v 0.7156 H 2.0403 V 0 -1.5764 H 2.777 V 0 H 2.0403 Z M 1.1551,-6.8846 v -0.7151 h 0.7363 v 0.7151 H 1.1551 v 0.8603 -0.7148 h 0.7363 v 0.7148 H 1.1551 Z m 0,1.7211 v -0.7156 h 0.7363 v 0.7156 H 1.1551 v 0.8601 -0.7153 h 0.7365 v 0.7153 H 1.1551 Z m 0,1.7207 v -0.7149 h 0.7365 v 0.7149 H 1.1551 V -2.582 -3.2976 H 1.8916 V -2.582 H 1.1551 Z m 0,1.7214 V -2.437 h 0.7365 v 0.7156 H 1.1551 v 0.86057 -0.71557 h 0.7365 v 0.71557 H 1.1551 Z m 0,1.72115005 V -0.7156 H 1.8916 V -2.4995e-4 H 1.1551 L 1.1549,-12.826 v -0.716 h 0.736 v 0.716 H 1.1549 Z M 1.1549,-11.966 v -0.715 h 0.736 v 0.715 h -0.736 v 0.861 -0.716 h 0.736 v 0.716 H 1.1549 Z M 2.5716e-4,-6.8846 V -7.5997 H 0.73675 v 0.7151 H 2.5716e-4 v 0.8603 -0.7148 H 0.73675 v 0.7148 H 2.5716e-4 Z m 0,1.7211 V -5.8791 H 0.73675 v 0.7156 H 2.5716e-4 v 0.8601 -0.7153 H 0.73675 v 0.7153 H 2.5716e-4 Z m 0,1.7207 V -4.1577 H 0.73675 v 0.7149 H 2.5716e-4 V -2.582 -3.2976 H 0.73675 V -2.582 H 2.5716e-4 Z m 0,1.7214 V -2.437 H 0.73675 v 0.7156 H 2.5716e-4 V -0.86083 -1.5764 H 0.73675 v 0.71557 H 2.5716e-4 Z m 0,1.72115005 V -0.7156 H 0.73675 V -2.4995e-4 H 2.5716e-4 V -8.1526 -8.8682 H 0.73701 v 0.7156 H 2.5716e-4 Z M 0,-12.826 v -0.716 h 0.73675 v 0.716 H 0 v 0.86 -0.715 h 0.73675 v 0.715 H 0 Z m 0,1.721 v -0.716 h 0.7365 v 0.716 H 0 v 1.2318 -0.7158 h 0.73675 v 0.7158 H 0 Z m 0,2.0918 v -0.7153 h 0.7365 v 0.7153 z"
   id="mfid55" />
									</defs>
								
									
									<defs
   id="defs412">
										<path
   d="M 10.247,-17.081 H 5.8944 c -0.1234,0 -0.224,0.097 -0.224,0.218 v 13.9943 c 0,0.12 0.1006,0.2172 0.224,0.2172 h 4.3516 c 0.124,0 0.224,-0.0972 0.224,-0.2172 V -16.863 c 0,-0.121 -0.1,-0.218 -0.223,-0.218 z m -6.734,4.145 v -0.021 h 0.6892 c 0.3255,0 0.5894,0.311 0.5894,0.695 v 4.6943 c 0,0.3841 -0.2639,0.6953 -0.5894,0.6953 H 3.513 Z m -3e-4,0 V -2.8382 L 0.5768,0 0,-0.21121 V -19.632 l 0.5768,-0.211 2.9359,2.839 z"
   id="mfid54" />
									</defs>
								
									
									<defs
   id="defs398">
										<path
   d="m 5.4726,-14.961 c 0,0 2.2298,-0.205 5.0084,-0.162 2.778,0.043 4.361,0.307 4.361,0.307 0.998,0.139 1.383,0.671 1.513,1.197 0.087,-0.356 0.398,-2.038 -1.496,-2.301 0,0 -1.583,-0.264 -4.361,-0.307 -2.7785,-0.043 -5.0083,0.162 -5.0083,0.162 -1.9018,0.204 -1.6428,1.895 -1.5661,2.253 0.1451,-0.521 0.547,-1.041 1.549,-1.149 z M 19.837,-1.7548 18.405,-7.2111 c -0.475,-1.6853 -1.245,-1.5851 -1.551,-1.5303 -0.797,0.1429 -0.682,0.8921 -0.619,1.8893 l 0.67,5.3237 c 0.153,0.88777 0.753,1.586933 1.562,1.524524 0.81,-0.06265 1.424,-0.846164 1.37,-1.750924 z M 0.007504,-2.0623 1.6081,-7.4716 c 0.5274,-1.6697 1.2936,-1.5457 1.598,-1.4815 0.7921,0.1676 0.6539,0.9129 0.5597,1.9077 L 2.9312,-1.7451 C 2.7507,-0.86249 2.1299,-0.18225 1.3223,-0.26974 0.51513,-0.35746 -0.073817,-1.1596 0.007504,-2.0623 Z M 3.9437,-3.5581 3.2186,-3.5694 l 0.2628,-1.67 0.7172,0.0338 z m 5.3037,-5.6518 1.6426,0.0255 0.011,-0.6909 -1.6429,-0.0255 z m 6.7016,5.8379 0.725,0.0113 -0.211,-1.6774 -0.717,0.0116 z"
   id="mfid52" />
									</defs>
									
									<defs
   id="defs403">
										<path
   d="M 10.247,-17.081 H 5.8944 c -0.1234,0 -0.224,0.097 -0.224,0.218 v 13.9943 c 0,0.12 0.1006,0.2172 0.224,0.2172 h 4.3516 c 0.124,0 0.224,-0.0972 0.224,-0.2172 V -16.863 c 0,-0.121 -0.1,-0.218 -0.223,-0.218 z m -6.734,4.145 v -0.021 h 0.6892 c 0.3255,0 0.5894,0.311 0.5894,0.695 v 4.6943 c 0,0.3841 -0.2639,0.6953 -0.5894,0.6953 H 3.513 Z m -3e-4,0 V -2.8382 L 0.5768,0 0,-0.21121 V -19.632 l 0.5768,-0.211 2.9359,2.839 z"
   id="mfid53" />
									</defs>
								
									
									<defs
   id="defs389">
										<path
   d="m 5.4726,-14.961 c 0,0 2.2298,-0.205 5.0084,-0.162 2.778,0.043 4.361,0.307 4.361,0.307 0.998,0.139 1.383,0.671 1.513,1.197 0.087,-0.356 0.398,-2.038 -1.496,-2.301 0,0 -1.583,-0.264 -4.361,-0.307 -2.7785,-0.043 -5.0083,0.162 -5.0083,0.162 -1.9018,0.204 -1.6428,1.895 -1.5661,2.253 0.1451,-0.521 0.547,-1.041 1.549,-1.149 z M 19.837,-1.7548 18.405,-7.2111 c -0.475,-1.6853 -1.245,-1.5851 -1.551,-1.5303 -0.797,0.1429 -0.682,0.8921 -0.619,1.8893 l 0.67,5.3237 c 0.153,0.88777 0.753,1.586933 1.562,1.524524 0.81,-0.06265 1.424,-0.846164 1.37,-1.750924 z M 0.007504,-2.0623 1.6081,-7.4716 c 0.5274,-1.6697 1.2936,-1.5457 1.598,-1.4815 0.7921,0.1676 0.6539,0.9129 0.5597,1.9077 L 2.9312,-1.7451 C 2.7507,-0.86249 2.1299,-0.18225 1.3223,-0.26974 0.51513,-0.35746 -0.073817,-1.1596 0.007504,-2.0623 Z M 3.9437,-3.5581 3.2186,-3.5694 l 0.2628,-1.67 0.7172,0.0338 z m 5.3037,-5.6518 1.6426,0.0255 0.011,-0.6909 -1.6429,-0.0255 z m 6.7016,5.8379 0.725,0.0113 -0.211,-1.6774 -0.717,0.0116 z"
   id="mfid51" />
									</defs>
								
									
									<defs
   id="defs382">
										<path
   d="m 6.2719,0 c 7.5671,0 6.4401,-4.9994 6.4401,-4.9991 l -0.71,-4.9765 C 11.691,-12.812 9.2044,-12.807 9.2044,-12.807 H 4.0679 C 0.90754,-12.325 0.72997,-9.5319 0.72997,-9.5319 0.63547,-8.7276 0.032438,-4.5933 0.032438,-4.5933 -0.2707,-1.8787 1.6506,-0.80378 1.6506,-0.80378 3.0675,0 6.2719,0 6.2719,0 Z M 1.746,-19.603 c 0,0 2.2263,-0.24 5.005,-0.24 2.7788,0 4.365,0.24 4.365,0.24 2.125,0.261 1.514,2.344 1.514,2.344 -0.023,0.224 -0.354,1.71 -0.449,1.983 -0.245,0.711 -0.704,1.193 -1.333,1.455 -0.456,0.191 -0.9292,0.322 -1.4184,0.323 -0.0951,0 -0.1902,0 -0.2854,0 H 3.718 c -0.095,0 -0.1903,0 -0.2857,0 -0.4889,-0.001 -0.962,-0.132 -1.4184,-0.323 -0.6289,-0.262 -1.08737,-0.744 -1.3329,-1.455 -0.0945,-0.273 -0.42612,-1.759 -0.4492,-1.983 0,0 -0.61038,-2.083 1.5142,-2.344 z"
   id="mfid50" />
									</defs>
								
									
								
									
								
									
									<defs
   id="defs352">
										<path
   d="m 2.9528,-1.4764 c 0,-0.8154 -0.661,-1.4764 -1.4764,-1.4764 C 0.661,-2.9528 0,-2.2918 0,-1.4764 0,-0.661 0.661,0 1.4764,0 2.2918,0 2.9528,-0.661 2.9528,-1.4764 Z"
   id="mfid48" />
									</defs>
								
									
									<defs
   id="defs343">
										<path
   d="M 4.252,-2.126 C 4.252,-3.3001 3.3001,-4.252 2.126,-4.252 0.95184,-4.252 0,-3.3001 0,-2.126 0,-0.95184 0.95184,0 2.126,0 3.3001,0 4.252,-0.95184 4.252,-2.126 Z"
   id="mfid47" />
									</defs>
								
									
									<defs
   id="defs336">
										<path
   d="m 0,-62.3 c 0,-0.382 0.27828,-0.692 0.62163,-0.692 H 30.874 c 0.344,0 0.622,0.31 0.622,0.692 V -0.69222 C 31.496,-0.31012 31.217,0 30.874,0 H 0.62163 C 0.27828,0 0,-0.31012 0,-0.69222 Z"
   id="mfid46" />
									</defs>
								
									
									<defs
   id="defs327">
										<path
   d="m 0,-62.3 c 0,-0.382 0.27828,-0.692 0.62163,-0.692 H 30.874 c 0.344,0 0.622,0.31 0.622,0.692 V -0.69222 C 31.496,-0.31012 31.217,0 30.874,0 H 0.62163 C 0.27828,0 0,-0.31012 0,-0.69222 Z"
   id="mfid45" />
									</defs>
								
									
									<defs
   id="defs318">
										<path
   d="M 0,0 V -5.9055 M 66.929,0 v -5.9055"
   id="mfid44" />
									</defs>
								
									
									<defs
   id="defs304">
										<path
   d="M 0,-1.9685 H 1.9685 V 0 H 0 Z m 62.992,0 H 61.024 V 0 h 1.968 z"
   id="mfid42" />
									</defs>
									
									<defs
   id="defs309">
										<path
   d="M 0,0 H 59.055"
   id="mfid43" />
									</defs>
								
									
									<defs
   id="defs295">
										<path
   d="M 0,-1.9685 H 1.9685 V 0 H 0 Z m 62.992,0 H 61.024 V 0 h 1.968 z"
   id="mfid41" />
									</defs>
								
									
									<defs
   id="defs283">
										<path
   d="M 0,0 V -5.9055 H 1.9685 V -3.937 -1.9685 0 Z M 66.929,0 V -5.9055 H 64.961 V -3.937 -1.9685 0 Z"
   id="mfid39" />
									</defs>
									
									<defs
   id="defs288">
										<path
   d="m 0,0 v -5.9055 h 1.9685 v 1.9685 m 0,1.9685 V 0 H 0 m 66.929,0 v -5.9055 h -1.968 v 1.9685 m 0,1.9685 V 0 h 1.968"
   id="mfid40" />
									</defs>
								
									
									<defs
   id="defs276">
										<path
   d="M 0,0.05 H 66.929 V -5.9555 H 0 Z"
   id="mfid38" />
									</defs>
								
									
									<defs
   id="defs265">
										<path
   d="M 0,0 H 35.433 V -1.9685 H 0 Z"
   id="mfid37" />
									</defs>
									
								
									
									<defs
   id="defs256">
										<path
   d="M 0,0 H 35.433 V -1.9685 H 0 Z"
   id="mfid36" />
									</defs>
								
									
									<defs
   id="defs247">
										<path
   d="M 0,0 C 0,-8.4337 3.0082,-16.591 8.4839,-23.005"
   id="mfid35" />
									</defs>
								
									
									<defs
   id="defs233">
										<path
   d="M 35.433,-1.9685 H 34.646 V 0 h 0.787 M 0,-1.9685 H 0.7874 V 0 H 0"
   id="mfid33" />
									</defs>
									
									<defs
   id="defs238">
										<path
   d="M 39.37,0 V -5.9055 M 0,0 v -5.9055"
   id="mfid34" />
									</defs>
								
									
									<defs
   id="defs224">
										<path
   d="M 35.433,-1.9685 H 34.646 V 0 h 0.787 z M 0,-1.9685 H 0.7874 V 0 H 0 Z"
   id="mfid32" />
									</defs>
								
									
									<defs
   id="defs217">
										<path
   d="m 39.37,0 v -5.9055 h -1.968 v 1.9685 m 0,1.9685 V 0 H 39.37 M 0,0 v -5.9055 h 1.9685 v 1.9685 m 0,1.9685 V 0 H 0"
   id="mfid31" />
									</defs>
								
									
									<defs
   id="defs208">
										<path
   d="M 39.37,0 V -5.9055 H 37.402 V -3.937 -1.9685 0 Z M 0,0 V -5.9055 H 1.9685 V -3.937 -1.9685 0 Z"
   id="mfid30" />
									</defs>
								
									
									<defs
   id="defs201">
										<path
   d="M -1.9685,0.05 H 37.402 V -5.9555 H -1.9685 Z"
   id="mfid29" />
									</defs>
								
									
									<defs
   id="defs190">
										<path
   d="m 0.61076,-0.35679 0.36851,-0.3937 M 0,-0.54612 C 0,-0.84774 0.30515,-1.0922 0.68156,-1.0922 1.058,-1.0922 1.3631,-0.84774 1.3631,-0.54612 1.3631,-0.24451 1.058,-6.1534e-8 0.68156,-6.1534e-8 0.30515,-6.1534e-8 2.8661e-8,-0.24451 2.8661e-8,-0.54612 Z"
   id="mfid28" />
									</defs>
									
								
									
									<defs
   id="defs176">
										<path
   d="M 0,0 H 3.5315 V -0.98425 H 0 Z"
   id="mfid26" />
									</defs>
									
									<defs
   id="defs181">
										<path
   d="M 0,-0.54612 C 0,-0.84774 0.30515,-1.0922 0.68156,-1.0922 1.058,-1.0922 1.3631,-0.84774 1.3631,-0.54612 1.3631,-0.24451 1.058,-6.1534e-8 0.68156,-6.1534e-8 0.30515,-6.1534e-8 2.8661e-8,-0.24451 2.8661e-8,-0.54612 Z"
   id="mfid27" />
									</defs>
								
									
									<defs
   id="defs165">
										<path
   d="M 0,0 H 3.8386 V -7.0658 C 3.6569,-7.4063 3.3197,-7.636 2.9363,-7.6805 2.759,-7.7839 2.6388,-7.9629 2.6102,-8.1662 V -8.7177 H 1.2283 v 0.5515 C 1.1998,-7.9629 1.0796,-7.7839 0.90228,-7.6805 0.51888,-7.636 0.18169,-7.4063 3.0776e-8,-7.0658 Z"
   id="mfid25" />
									</defs>
									
								
									
									<defs
   id="defs156">
										<path
   d="M 0,0 H 3.8386 V -7.0658 C 3.6569,-7.4063 3.3197,-7.636 2.9363,-7.6805 2.759,-7.7839 2.6388,-7.9629 2.6102,-8.1662 V -8.7177 H 1.2283 v 0.5515 C 1.1998,-7.9629 1.0796,-7.7839 0.90228,-7.6805 0.51888,-7.636 0.18169,-7.4063 3.0776e-8,-7.0658 Z"
   id="mfid24" />
									</defs>
								
									
									<defs
   id="defs149">
										<path
   d="M 3.0028,-7.8248 C 2.4164,-7.7902 1.5821,-7.823 1.0353,-7.6264 0.66319,-7.4926 0.42424,-7.2525 0.26809,-6.9124 -0.14567,-6.0112 0.021887,-4.4073 0.10326,-3.3056 0.21709,-1.7643 0.16225,-1.2057 0.39256,0 H 0.69965 C 0.65359,-0.56594 0.55425,-0.95216 0.45367,-2.0635 0.44748,-2.1319 0.44129,-2.203 0.43561,-2.273 0.37166,-3.0602 0.37185,-3.7057 0.34581,-4.2721 0.32046,-4.8233 0.27027,-5.2997 0.30267,-5.8075 0.3327,-6.2779 0.4336,-6.7754 0.70387,-7.0908 1.1097,-7.5645 1.8973,-7.628 2.7725,-7.6403 Z m 0.0077,0.1225 C 3.4544,-8.3281 4.3929,-8.606 5.3059,-8.8282 l -0.111,0.2401 C 4.8516,-8.4258 4.6539,-8.3503 4.2196,-8.2268 4.1306,-8.2015 4.0318,-8.1742 3.94,-8.1452 3.5245,-8.0142 3.2554,-7.85 3.1766,-7.5849 Z m 0.023,-0.0073 C 3.854,-7.7278 4.7269,-7.857 5.5056,-7.7034 l -0.1152,0.1661 c -0.154,0.0146 -0.2425,-0.074 -0.6257,-0.024 -0.0046,6e-4 -0.0092,0.0012 -0.0134,0.0017 -0.0083,8e-4 -0.015,9e-4 -0.0217,10e-4 -0.744,0.0084 -0.9668,-0.1202 -1.6961,-0.151 z"
   id="mfid23" />
									</defs>
								
									
									<defs
   id="defs135">
										<path
   d="M 0,0 V -31.496 H 16.732 V 0 Z m 16.732,-15.748 h 0.985 M 16.732,0 h 0.985 v -31.496 h -0.985 z"
   id="mfid21" />
									</defs>
									
									<defs
   id="defs140">
										<path
   d="M 3.0028,-7.8248 C 2.4164,-7.7902 1.5821,-7.823 1.0353,-7.6264 0.66319,-7.4926 0.42424,-7.2525 0.26809,-6.9124 -0.14567,-6.0112 0.021887,-4.4073 0.10326,-3.3056 0.21709,-1.7643 0.16225,-1.2057 0.39256,0 H 0.69965 C 0.65359,-0.56594 0.55425,-0.95216 0.45367,-2.0635 0.44748,-2.1319 0.44129,-2.203 0.43561,-2.273 0.37166,-3.0602 0.37185,-3.7057 0.34581,-4.2721 0.32046,-4.8233 0.27027,-5.2997 0.30267,-5.8075 0.3327,-6.2779 0.4336,-6.7754 0.70387,-7.0908 1.1097,-7.5645 1.8973,-7.628 2.7725,-7.6403 Z m 0.0077,0.1225 C 3.4544,-8.3281 4.3929,-8.606 5.3059,-8.8282 l -0.111,0.2401 C 4.8516,-8.4258 4.6539,-8.3503 4.2196,-8.2268 4.1306,-8.2015 4.0318,-8.1742 3.94,-8.1452 3.5245,-8.0142 3.2554,-7.85 3.1766,-7.5849 Z m 0.023,-0.0073 C 3.854,-7.7278 4.7269,-7.857 5.5056,-7.7034 l -0.1152,0.1661 c -0.154,0.0146 -0.2425,-0.074 -0.6257,-0.024 -0.0046,6e-4 -0.0092,0.0012 -0.0134,0.0017 -0.0083,8e-4 -0.015,9e-4 -0.0217,10e-4 -0.744,0.0084 -0.9668,-0.1202 -1.6961,-0.151 z"
   id="mfid22" />
									</defs>
								
									
									<defs
   id="defs121">
										<path
   d="M 0,0 H 0.98425 V -0.98425 H 0 Z M 0,-2.9528 H 0.98425 V -3.937 H 0 Z"
   id="mfid19" />
									</defs>
									
									<defs
   id="defs126">
										<path
   d="M 0,0 V -31.496 H 16.732 V 0 Z m 16.732,0 h 0.985 v -31.496 h -0.985 z"
   id="mfid20" />
									</defs>
								
									
									<defs
   id="defs107">
										<path
   d="M 0,0 V -31.496 H 22.638 V 0 Z m 22.638,-15.748 h 0.984 M 22.638,0 h 0.984 v -31.496 h -0.984 z"
   id="mfid17" />
									</defs>
									
									<defs
   id="defs112">
										<path
   d="M 0,0 H 0.98425 V -0.98425 H 0 Z M 0,-2.9528 H 0.98425 V -3.937 H 0 Z"
   id="mfid18" />
									</defs>
								
									
									<defs
   id="defs98">
										<path
   d="M 0,0 V -31.496 H 22.638 V 0 Z m 22.638,0 h 0.984 v -31.496 h -0.984 z"
   id="mfid16" />
									</defs>
								
									
									<defs
   id="defs91">
										<path
   d="M 0,0 H 0.98425 V -0.98425 H 0 Z M 0,-2.9528 H 0.98425 V -3.937 H 0 Z"
   id="mfid15" />
									</defs>
								
									
									<defs
   id="defs77">
										<path
   d="M -5.9055,-5.9055 H 172.44 M 0,0 h 166.54"
   id="mfid13" />
									</defs>
									
									<defs
   id="defs82">
										<path
   d="M 0,0 H 0.98425 V -0.98425 H 0 Z M 0,-2.9528 H 0.98425 V -3.937 H 0 Z"
   id="mfid14" />
									</defs>
								
									
									<defs
   id="defs63">
										<path
   d="M -5.9055,-5.9055 H 172.05 M 0,0 h 166.14"
   id="mfid11" />
									</defs>
									
									<defs
   id="defs68">
										<path
   d="M -5.9055,-5.9055 H 172.44 L 166.54,0 H 0 Z"
   id="mfid12" />
									</defs>
								
									
									<defs
   id="defs49">
										<path
   d="M -5.9055,-5.9055 H 172.44 M 0,0 h 166.54"
   id="mfid9" />
									</defs>
									
									<defs
   id="defs54">
										<path
   d="M -5.9055,-5.9055 H 172.05 L 166.14,0 H 0 Z"
   id="mfid10" />
									</defs>
								
									
									<defs
   id="defs40">
										<path
   d="M -5.9055,-5.9055 H 172.44 L 166.54,0 H 0 Z"
   id="mfid8" />
									</defs>
								
									
									<defs
   id="defs33">
										<path
   d="M -5.9055,-5.9055 H 172.05 M 0,0 h 166.14"
   id="mfid7" />
									</defs>
								
										
									
										
									
										
									
										
									</defs><sodipodi:namedview
   inkscape:current-layer="svg839"
   inkscape:window-maximized="1"
   inkscape:window-y="-8"
   inkscape:window-x="-8"
   inkscape:cy="719.06342"
   inkscape:cx="-70.014584"
   inkscape:zoom="0.48105397"
   showgrid="false"
   id="namedview841"
   inkscape:window-height="1057"
   inkscape:window-width="1920"
   inkscape:pageshadow="2"
   inkscape:pageopacity="0"
   guidetolerance="10"
   gridtolerance="10"
   objecttolerance="10"
   borderopacity="1"
   bordercolor="#666666"
   pagecolor="#ffffff" />
	<v:documentProperties
   v:viewMarkup="false"
   v:langID="1033">
		<v:userDefs>
			<v:ud
   v:val="VT4(Rectangle)"
   v:prompt=""
   v:nameU="msvSubprocessMaster" />
			<v:ud
   v:val="VT0(1):26"
   v:nameU="msvNoAutoConnect" />
			<v:ud
   v:val="VT0(1):26"
   v:nameU="VisAecDocument" />
			<v:ud
   v:val="VT0(16):26"
   v:nameU="VisAecVersion" />
			<v:ud
   v:val="VT0(0):26"
   v:nameU="Ifc__CustomPropsLevel" />
			<v:ud
   v:nameU="msvConvertTheme" />
		</v:userDefs>
	</v:documentProperties>

	<style
   id="style2"
   type="text/css">
	<![CDATA[
		.st1 {fill:none;stroke:none;stroke-linecap:round;stroke-linejoin:round;stroke-width:0.75}
		.st2 {fill:#000000;font-family:Calibri;font-size:1.00001em}
		.st3 {fill:none;fill-rule:evenodd;font-size:12px;overflow:visible;stroke-linecap:square;stroke-miterlimit:3}
	]]>
	</style>

	<rect
   id="rect10"
   class="st1"
   height="639.01398"
   width="624.50098"
   y="-30.6859"
   x="-100.833"
   v:rectContext="foreign" /><g
   id="r203"><g
     id="g4480"
     class="any"><use
       transform="matrix(3.84,0,0,3.84,22.851999,111.1792)"
       height="100%"
       width="100%"
       y="0"
       x="0"
       id="use30"
       stroke="none"
       fill-rule="evenodd"
       xlink:href="#mfid6"
       style="fill:#b3b3b3" /><use
       transform="matrix(3.84,0,0,3.84,22.851999,111.1792)"
       height="100%"
       width="100%"
       y="0"
       x="0"
       id="use37"
       fill="none"
       xlink:href="#mfid7"
       style="stroke:#000000;stroke-width:0.083333;stroke-miterlimit:2" /><use
       transform="matrix(0,3.84,-3.84,0,660.832,111.1792)"
       height="100%"
       width="100%"
       y="0"
       x="0"
       id="use46"
       stroke="none"
       fill-rule="evenodd"
       xlink:href="#mfid8"
       style="fill:#b3b3b3;stroke-width:0.083333;stroke-miterlimit:2" /><use
       transform="matrix(0,3.84,-3.84,0,660.832,111.1792)"
       height="100%"
       width="100%"
       y="0"
       x="0"
       id="use51"
       fill="none"
       xlink:href="#mfid9"
       style="stroke:#000000;stroke-width:0.083333;stroke-miterlimit:2" /><use
       transform="matrix(-3.84,0,0,-3.84,660.832,750.6792)"
       height="100%"
       width="100%"
       y="0"
       x="0"
       id="use60"
       stroke="none"
       fill-rule="evenodd"
       xlink:href="#mfid10"
       style="fill:#b3b3b3;stroke-width:0.083333;stroke-miterlimit:2" /><use
       transform="matrix(-3.84,0,0,-3.84,660.832,750.6792)"
       height="100%"
       width="100%"
       y="0"
       x="0"
       id="use65"
       fill="none"
       xlink:href="#mfid11"
       style="stroke:#000000;stroke-width:0.083333;stroke-miterlimit:2" /><use
       transform="matrix(0,-3.84,3.84,0,22.851999,750.6792)"
       height="100%"
       width="100%"
       y="0"
       x="0"
       id="use74"
       stroke="none"
       fill-rule="evenodd"
       xlink:href="#mfid12"
       style="fill:#b3b3b3;stroke-width:0.083333;stroke-miterlimit:2" /><use
       transform="matrix(0,-3.84,3.84,0,22.851999,750.6792)"
       height="100%"
       width="100%"
       y="0"
       x="0"
       id="use79"
       fill="none"
       xlink:href="#mfid13"
       style="stroke:#000000;stroke-width:0.083333;stroke-miterlimit:2" /><use
       transform="matrix(-3.84,0,0,-3.84,570.122,167.5992)"
       height="100%"
       width="100%"
       y="0"
       x="0"
       id="use88"
       stroke="none"
       fill-rule="evenodd"
       xlink:href="#mfid14"
       style="fill:#7aa69c;stroke-width:0.083333;stroke-miterlimit:2" /><use
       transform="matrix(-3.84,0,0,-3.84,570.122,167.5992)"
       height="100%"
       width="100%"
       y="0"
       x="0"
       id="use95"
       fill="none"
       xlink:href="#mfid15"
       style="stroke:#658a82;stroke-width:0.43403;stroke-miterlimit:2" /><use
       transform="matrix(-3.84,0,0,-3.84,660.832,114.6792)"
       height="100%"
       width="100%"
       y="0"
       x="0"
       id="use104"
       stroke="none"
       fill-rule="evenodd"
       xlink:href="#mfid16"
       style="fill:#7aa69c;stroke-width:0.43403;stroke-miterlimit:2" /><use
       transform="matrix(-3.84,0,0,-3.84,660.832,114.6792)"
       height="100%"
       width="100%"
       y="0"
       x="0"
       id="use109"
       fill="none"
       xlink:href="#mfid17"
       style="stroke:#658a82;stroke-width:0.43403;stroke-miterlimit:2" /><use
       transform="matrix(0,3.84,-3.84,0,334.282,182.7192)"
       height="100%"
       width="100%"
       y="0"
       x="0"
       id="use118"
       stroke="none"
       fill-rule="evenodd"
       xlink:href="#mfid18"
       style="fill:#7aa69c;stroke-width:0.43403;stroke-miterlimit:2" /><use
       transform="matrix(0,3.84,-3.84,0,334.282,182.7192)"
       height="100%"
       width="100%"
       y="0"
       x="0"
       id="use123"
       fill="none"
       xlink:href="#mfid19"
       style="stroke:#658a82;stroke-width:0.43403;stroke-miterlimit:2" /><use
       transform="matrix(0,3.84,-3.84,0,281.372,114.6792)"
       height="100%"
       width="100%"
       y="0"
       x="0"
       id="use132"
       stroke="none"
       fill-rule="evenodd"
       xlink:href="#mfid20"
       style="fill:#7aa69c;stroke-width:0.43403;stroke-miterlimit:2" /><use
       transform="matrix(0,3.84,-3.84,0,281.372,114.6792)"
       height="100%"
       width="100%"
       y="0"
       x="0"
       id="use137"
       fill="none"
       xlink:href="#mfid21"
       style="stroke:#658a82;stroke-width:0.43403;stroke-miterlimit:2" /><use
       transform="matrix(3.84,0,0,3.84,25.991999,144.7992)"
       height="100%"
       width="100%"
       y="0"
       x="0"
       id="use146"
       stroke="none"
       fill-rule="evenodd"
       xlink:href="#mfid22"
       style="fill:#000000;stroke-width:0.43403;stroke-miterlimit:2" /><use
       transform="matrix(3.84,0,0,3.84,25.991999,144.7992)"
       height="100%"
       width="100%"
       y="0"
       x="0"
       id="use153"
       fill="none"
       xlink:href="#mfid23"
       style="stroke:#000000;stroke-width:0.083333;stroke-linecap:round;stroke-linejoin:round" /><use
       transform="matrix(3.84,0,0,3.84,30.411999,148.6992)"
       height="100%"
       width="100%"
       y="0"
       x="0"
       id="use162"
       stroke="none"
       fill-rule="evenodd"
       xlink:href="#mfid24"
       style="fill:#ff0000;stroke-width:0.083333;stroke-linecap:round;stroke-linejoin:round" /><use
       transform="matrix(3.84,0,0,3.84,30.411999,148.6992)"
       height="100%"
       width="100%"
       y="0"
       x="0"
       id="use167"
       fill="none"
       xlink:href="#mfid25"
       style="stroke:#000000;stroke-width:0.083333;stroke-linecap:round;stroke-linejoin:round" /><rect
       x="31.002007"
       id="rect173"
       stroke="none"
       height="3.77952"
       width="13.560961"
       y="132.63968"
       style="fill:#ffffff;stroke-width:0.319999;stroke-linecap:round;stroke-linejoin:round" /><use
       transform="matrix(3.84,0,0,3.84,31.001999,136.4192)"
       height="100%"
       width="100%"
       y="0"
       x="0"
       id="use178"
       fill="none"
       xlink:href="#mfid26"
       style="stroke:#000000;stroke-width:0.083333;stroke-linecap:round;stroke-linejoin:round" /><use
       transform="matrix(3.84,0,0,3.84,35.161999,118.3392)"
       height="100%"
       width="100%"
       y="0"
       x="0"
       id="use187"
       stroke="none"
       fill-rule="evenodd"
       xlink:href="#mfid27"
       style="fill:#ffffff;stroke-width:0.083333;stroke-linecap:round;stroke-linejoin:round" /><use
       transform="matrix(3.84,0,0,3.84,35.161999,118.3392)"
       height="100%"
       width="100%"
       y="0"
       x="0"
       id="use192"
       fill="none"
       xlink:href="#mfid28"
       style="stroke:#000000;stroke-width:0.083333;stroke-linecap:round;stroke-linejoin:round" /><rect
       transform="scale(-1,1)"
       id="rect198"
       stroke="none"
       height="23.061119"
       width="151.1808"
       y="88.310081"
       x="-226.94104"
       style="fill:#ffffff;stroke-width:0.319999;stroke-linecap:round;stroke-linejoin:round" /><use
       transform="matrix(-3.84,0,0,3.84,219.382,111.1792)"
       height="100%"
       width="100%"
       y="0"
       x="0"
       id="use205"
       fill="none"
       xlink:href="#mfid29"
       style="stroke:#ffffff;stroke-width:0.083333;stroke-linecap:round;stroke-linejoin:round" /><use
       transform="matrix(-3.84,0,0,3.84,226.942,111.1792)"
       height="100%"
       width="100%"
       y="0"
       x="0"
       id="use214"
       stroke="none"
       fill-rule="evenodd"
       xlink:href="#mfid30"
       style="fill:#ffffff;stroke-width:0.083333;stroke-linecap:round;stroke-linejoin:round" /><use
       transform="matrix(-3.84,0,0,3.84,226.942,111.1792)"
       height="100%"
       width="100%"
       y="0"
       x="0"
       id="use221"
       fill="none"
       xlink:href="#mfid31"
       style="stroke:#000000;stroke-width:0.083333;stroke-linecap:round;stroke-linejoin:round" /><use
       transform="matrix(-3.84,0,0,3.84,219.382,103.6192)"
       height="100%"
       width="100%"
       y="0"
       x="0"
       id="use230"
       stroke="none"
       fill-rule="evenodd"
       xlink:href="#mfid32"
       style="fill:#ffffff;stroke-width:0.083333;stroke-linecap:round;stroke-linejoin:round" /><use
       transform="matrix(-3.84,0,0,3.84,219.382,103.6192)"
       height="100%"
       width="100%"
       y="0"
       x="0"
       id="use235"
       fill="none"
       xlink:href="#mfid33"
       style="stroke:#000000;stroke-width:0.083333;stroke-linecap:round;stroke-linejoin:round" /><use
       transform="matrix(-3.84,0,0,3.84,226.942,111.1792)"
       height="100%"
       width="100%"
       y="0"
       x="0"
       id="use244"
       fill="none"
       xlink:href="#mfid34"
       style="stroke:#000000;stroke-width:0.083333;stroke-linecap:round;stroke-linejoin:round" /><use
       transform="matrix(-3.84,0,0,3.84,219.382,88.499199)"
       height="100%"
       width="100%"
       y="0"
       x="0"
       id="use253"
       fill="none"
       xlink:href="#mfid35"
       style="stroke:#000000;stroke-width:0.083333;stroke-linecap:round;stroke-linejoin:round" /><use
       transform="matrix(-2.9206,2.4932,2.4932,2.9206,191.712,5.9111994)"
       height="100%"
       width="100%"
       y="0"
       x="0"
       id="use262"
       stroke="none"
       fill-rule="evenodd"
       xlink:href="#mfid36"
       style="fill:#ffffff;stroke-width:0.083333;stroke-linecap:round;stroke-linejoin:round" /><use
       transform="matrix(-2.9206,2.4932,2.4932,2.9206,191.712,5.9111994)"
       height="100%"
       width="100%"
       y="0"
       x="0"
       id="use267"
       fill="none"
       xlink:href="#mfid37"
       style="stroke:#000000;stroke-width:0.083333;stroke-linecap:round;stroke-linejoin:round" /><rect
       x="83.321999"
       id="rect273"
       stroke="none"
       height="23.061119"
       width="257.00735"
       y="750.4801"
       style="fill:#ffffff;stroke-width:0.319999;stroke-linecap:round;stroke-linejoin:round" /><use
       transform="matrix(3.84,0,0,3.84,83.321999,773.3492)"
       height="100%"
       width="100%"
       y="0"
       x="0"
       id="use280"
       fill="none"
       xlink:href="#mfid38"
       style="stroke:#ffffff;stroke-width:0.083333;stroke-linecap:round;stroke-linejoin:round" /><use
       transform="matrix(3.84,0,0,3.84,83.321999,773.3492)"
       height="100%"
       width="100%"
       y="0"
       x="0"
       id="use285"
       stroke="none"
       fill-rule="evenodd"
       xlink:href="#mfid39"
       style="fill:#ffffff;stroke-width:0.083333;stroke-linecap:round;stroke-linejoin:round" /><use
       transform="matrix(3.84,0,0,3.84,83.321999,773.3492)"
       height="100%"
       width="100%"
       y="0"
       x="0"
       id="use292"
       fill="none"
       xlink:href="#mfid40"
       style="stroke:#000000;stroke-width:0.083333;stroke-linecap:round;stroke-linejoin:round" /><use
       transform="matrix(3.84,0,0,3.84,90.881999,765.7892)"
       height="100%"
       width="100%"
       y="0"
       x="0"
       id="use301"
       stroke="none"
       fill-rule="evenodd"
       xlink:href="#mfid41"
       style="fill:#ffffff;stroke-width:0.083333;stroke-linecap:round;stroke-linejoin:round" /><use
       transform="matrix(3.84,0,0,3.84,90.881999,765.7892)"
       height="100%"
       width="100%"
       y="0"
       x="0"
       id="use306"
       fill="none"
       xlink:href="#mfid42"
       style="stroke:#000000;stroke-width:0.083333;stroke-linecap:round;stroke-linejoin:round" /><use
       transform="matrix(3.84,0,0,3.84,98.441999,762.0092)"
       height="100%"
       width="100%"
       y="0"
       x="0"
       id="use315"
       fill="none"
       xlink:href="#mfid43"
       style="stroke:#000000;stroke-width:0.083333;stroke-linecap:round;stroke-linejoin:round" /><use
       transform="matrix(3.84,0,0,3.84,83.321999,773.3492)"
       height="100%"
       width="100%"
       y="0"
       x="0"
       id="use324"
       fill="none"
       xlink:href="#mfid44"
       style="stroke:#000000;stroke-width:0.083333;stroke-linecap:round;stroke-linejoin:round" /></g><g
     id="4"
     class="ws"><use
       transform="matrix(3.84,0,0,3.84,225.842,489.1292)"
       height="100%"
       width="100%"
       y="0"
       x="0"
       id="use450"
       stroke="none"
       fill-rule="evenodd"
       xlink:href="#mfid58"
       style="fill:#ffffff;stroke-width:0.13021;stroke-miterlimit:2" /><use
       transform="matrix(3.84,0,0,3.84,225.842,489.1292)"
       height="100%"
       width="100%"
       y="0"
       x="0"
       id="use457"
       fill="none"
       xlink:href="#mfid59"
       style="stroke:#000000;stroke-width:0.26042;stroke-miterlimit:2" /><use
       transform="matrix(3.84,0,0,3.84,247.312,285.0392)"
       height="100%"
       width="100%"
       y="0"
       x="0"
       id="use466"
       stroke="none"
       fill-rule="evenodd"
       xlink:href="#mfid60"
       style="fill:#ffffff;stroke-width:0.26042;stroke-miterlimit:2" /><use
       transform="matrix(3.84,0,0,3.84,249.802,282.5392)"
       height="100%"
       width="100%"
       y="0"
       x="0"
       id="use475"
       stroke="none"
       fill-rule="evenodd"
       xlink:href="#mfid61"
       style="fill:#ffffff;stroke-width:0.26042;stroke-miterlimit:2" /><text
       stroke="none"
       fill="#000000"
       x="281.952 297.952"
       y="301.09921 301.09921"
       xml:space="preserve"
       id="text483"
       style="font-style:normal;font-weight:400;font-size:32px;font-family:Calibri, swiss, sans-serif;stroke-miterlimit:10">4</text><use
       transform="matrix(0.059539,-3.8395,3.8395,0.059539,219.602,394.8492)"
       height="100%"
       width="100%"
       y="0"
       x="0"
       id="use496"
       stroke="none"
       fill-rule="evenodd"
       xlink:href="#mfid62"
       style="fill:#ffffff;stroke-width:0.26042;stroke-miterlimit:2" /><use
       transform="matrix(0.059539,-3.8395,3.8395,0.059539,219.602,394.8492)"
       height="100%"
       width="100%"
       y="0"
       x="0"
       id="use503"
       fill="none"
       xlink:href="#mfid63"
       style="stroke:#000000;stroke-width:0.26042;stroke-linecap:round;stroke-linejoin:round" /><use
       transform="matrix(0,-3.84,3.84,0,206.132,408.0592)"
       height="100%"
       width="100%"
       y="0"
       x="0"
       id="use512"
       stroke="none"
       fill-rule="evenodd"
       xlink:href="#mfid64"
       style="fill:#ffffff;stroke-width:0.26042;stroke-linecap:round;stroke-linejoin:round" /><use
       transform="matrix(0,-3.84,3.84,0,206.132,408.0592)"
       height="100%"
       width="100%"
       y="0"
       x="0"
       id="use517"
       fill="none"
       xlink:href="#mfid65"
       style="stroke:#000000;stroke-width:0.26042;stroke-linecap:round;stroke-linejoin:round" /><use
       transform="matrix(-3.84,0,0,-3.84,279.092,331.4192)"
       height="100%"
       width="100%"
       y="0"
       x="0"
       id="use526"
       stroke="none"
       fill-rule="evenodd"
       xlink:href="#mfid66"
       style="fill:#ffffff;stroke-width:0.26042;stroke-linecap:round;stroke-linejoin:round" /><use
       transform="matrix(-3.84,0,0,-3.84,279.092,331.4192)"
       height="100%"
       width="100%"
       y="0"
       x="0"
       id="use533"
       fill="none"
       xlink:href="#mfid67"
       style="stroke:#000000;stroke-width:0.26042;stroke-miterlimit:2" /><use
       transform="matrix(-3.84,0,0,-3.84,254.712,343.3092)"
       height="100%"
       width="100%"
       y="0"
       x="0"
       id="use542"
       stroke="none"
       fill-rule="evenodd"
       xlink:href="#mfid68"
       style="fill:#ffffff;stroke-width:0.26042;stroke-miterlimit:2" /><use
       transform="matrix(0,3.84,-3.84,0,266.772,331.4192)"
       height="100%"
       width="100%"
       y="0"
       x="0"
       id="use551"
       stroke="none"
       fill-rule="evenodd"
       xlink:href="#mfid69"
       style="fill:#ffffff;stroke-width:0.26042;stroke-miterlimit:2" /><use
       transform="matrix(0,3.84,-3.84,0,266.772,331.4192)"
       height="100%"
       width="100%"
       y="0"
       x="0"
       id="use558"
       fill="none"
       xlink:href="#mfid70"
       style="stroke:#000000;stroke-width:0.13021;stroke-miterlimit:2" /></g><g
     id="3"
     class="ws"><use
       transform="matrix(3.84,0,0,3.84,226.042,740.0892)"
       height="100%"
       width="100%"
       y="0"
       x="0"
       id="use333"
       stroke="none"
       fill-rule="evenodd"
       xlink:href="#mfid45"
       style="fill:#ffffff;stroke-width:0.083333;stroke-linecap:round;stroke-linejoin:round" /><use
       transform="matrix(3.84,0,0,3.84,226.042,740.0892)"
       height="100%"
       width="100%"
       y="0"
       x="0"
       id="use340"
       fill="none"
       xlink:href="#mfid46"
       style="stroke:#000000;stroke-width:0.26042;stroke-miterlimit:2" /><use
       transform="matrix(3.84,0,0,3.84,247.512,535.9992)"
       height="100%"
       width="100%"
       y="0"
       x="0"
       id="use349"
       stroke="none"
       fill-rule="evenodd"
       xlink:href="#mfid47"
       style="fill:#ffffff;stroke-width:0.26042;stroke-miterlimit:2" /><use
       transform="matrix(3.84,0,0,3.84,250.002,533.4992)"
       height="100%"
       width="100%"
       y="0"
       x="0"
       id="use358"
       stroke="none"
       fill-rule="evenodd"
       xlink:href="#mfid48"
       style="fill:#ffffff;stroke-width:0.26042;stroke-miterlimit:2" /><text
       stroke="none"
       fill="#000000"
       x="281.952 297.952"
       y="542.7392 542.7392"
       xml:space="preserve"
       id="text366"
       style="font-style:normal;font-weight:400;font-size:32px;font-family:Calibri, swiss, sans-serif;stroke-miterlimit:10">3</text><use
       transform="matrix(0.059539,-3.8395,3.8395,0.059539,219.812,645.8192)"
       height="100%"
       width="100%"
       y="0"
       x="0"
       id="use379"
       stroke="none"
       fill-rule="evenodd"
       xlink:href="#mfid49"
       style="fill:#ffffff;stroke-width:0.26042;stroke-miterlimit:2" /><use
       transform="matrix(0.059539,-3.8395,3.8395,0.059539,219.812,645.8192)"
       height="100%"
       width="100%"
       y="0"
       x="0"
       id="use386"
       fill="none"
       xlink:href="#mfid50"
       style="stroke:#000000;stroke-width:0.26042;stroke-linecap:round;stroke-linejoin:round" /><use
       transform="matrix(0,-3.84,3.84,0,206.332,659.0192)"
       height="100%"
       width="100%"
       y="0"
       x="0"
       id="use395"
       stroke="none"
       fill-rule="evenodd"
       xlink:href="#mfid51"
       style="fill:#ffffff;stroke-width:0.26042;stroke-linecap:round;stroke-linejoin:round" /><use
       transform="matrix(0,-3.84,3.84,0,206.332,659.0192)"
       height="100%"
       width="100%"
       y="0"
       x="0"
       id="use400"
       fill="none"
       xlink:href="#mfid52"
       style="stroke:#000000;stroke-width:0.26042;stroke-linecap:round;stroke-linejoin:round" /><use
       transform="matrix(-3.84,0,0,-3.84,279.302,582.3792)"
       height="100%"
       width="100%"
       y="0"
       x="0"
       id="use409"
       stroke="none"
       fill-rule="evenodd"
       xlink:href="#mfid53"
       style="fill:#ffffff;stroke-width:0.26042;stroke-linecap:round;stroke-linejoin:round" /><use
       transform="matrix(-3.84,0,0,-3.84,279.302,582.3792)"
       height="100%"
       width="100%"
       y="0"
       x="0"
       id="use416"
       fill="none"
       xlink:href="#mfid54"
       style="stroke:#000000;stroke-width:0.26042;stroke-miterlimit:2" /><use
       transform="matrix(-3.84,0,0,-3.84,254.912,594.2692)"
       height="100%"
       width="100%"
       y="0"
       x="0"
       id="use425"
       stroke="none"
       fill-rule="evenodd"
       xlink:href="#mfid55"
       style="fill:#ffffff;stroke-width:0.26042;stroke-miterlimit:2" /><use
       transform="matrix(0,3.84,-3.84,0,266.972,582.3792)"
       height="100%"
       width="100%"
       y="0"
       x="0"
       id="use434"
       stroke="none"
       fill-rule="evenodd"
       xlink:href="#mfid56"
       style="fill:#ffffff;stroke-width:0.26042;stroke-miterlimit:2" /><use
       transform="matrix(0,3.84,-3.84,0,266.972,582.3792)"
       height="100%"
       width="100%"
       y="0"
       x="0"
       id="use441"
       fill="none"
       xlink:href="#mfid57"
       style="stroke:#000000;stroke-width:0.13021;stroke-miterlimit:2" /><rect
       x="226.392"
       id="rect564"
       stroke="none"
       height="7.5590401"
       width="120.94464"
       y="489.8902"
       style="fill:#ffffff;stroke-width:0.500006;stroke-miterlimit:2" /></g><g
     id="2"
     class="ws"><use
       transform="matrix(-3.84,0,0,-3.84,465.882,498.1992)"
       height="100%"
       width="100%"
       y="0"
       x="0"
       id="use697"
       stroke="none"
       fill-rule="evenodd"
       xlink:href="#mfid85"
       style="fill:#ffffff;stroke-width:0.13021;stroke-miterlimit:2" /><use
       transform="matrix(-3.84,0,0,-3.84,465.882,498.1992)"
       height="100%"
       width="100%"
       y="0"
       x="0"
       id="use704"
       fill="none"
       xlink:href="#mfid86"
       style="stroke:#000000;stroke-width:0.26042;stroke-miterlimit:2" /><use
       transform="matrix(-3.84,0,0,-3.84,444.412,702.2992)"
       height="100%"
       width="100%"
       y="0"
       x="0"
       id="use713"
       stroke="none"
       fill-rule="evenodd"
       xlink:href="#mfid87"
       style="fill:#ffffff;stroke-width:0.26042;stroke-miterlimit:2" /><use
       transform="matrix(-3.84,0,0,-3.84,441.922,704.7892)"
       height="100%"
       width="100%"
       y="0"
       x="0"
       id="use722"
       stroke="none"
       fill-rule="evenodd"
       xlink:href="#mfid88"
       style="fill:#ffffff;stroke-width:0.26042;stroke-miterlimit:2" /><text
       stroke="none"
       fill="#000000"
       x="397.89197 413.89197"
       y="542.7392 542.7392"
       xml:space="preserve"
       id="text730"
       style="font-style:normal;font-weight:400;font-size:32px;font-family:Calibri, swiss, sans-serif;stroke-miterlimit:10">2</text><use
       transform="matrix(-0.059539,3.8395,-3.8395,-0.059539,472.122,592.4792)"
       height="100%"
       width="100%"
       y="0"
       x="0"
       id="use743"
       stroke="none"
       fill-rule="evenodd"
       xlink:href="#mfid89"
       style="fill:#ffffff;stroke-width:0.26042;stroke-miterlimit:2" /><use
       transform="matrix(-0.059539,3.8395,-3.8395,-0.059539,472.122,592.4792)"
       height="100%"
       width="100%"
       y="0"
       x="0"
       id="use750"
       fill="none"
       xlink:href="#mfid90"
       style="stroke:#000000;stroke-width:0.26042;stroke-linecap:round;stroke-linejoin:round" /><use
       transform="matrix(0,3.84,-3.84,0,485.592,579.2692)"
       height="100%"
       width="100%"
       y="0"
       x="0"
       id="use759"
       stroke="none"
       fill-rule="evenodd"
       xlink:href="#mfid91"
       style="fill:#ffffff;stroke-width:0.26042;stroke-linecap:round;stroke-linejoin:round" /><use
       transform="matrix(0,3.84,-3.84,0,485.592,579.2692)"
       height="100%"
       width="100%"
       y="0"
       x="0"
       id="use764"
       fill="none"
       xlink:href="#mfid92"
       style="stroke:#000000;stroke-width:0.26042;stroke-linecap:round;stroke-linejoin:round" /><use
       transform="matrix(3.84,0,0,3.84,412.632,655.9092)"
       height="100%"
       width="100%"
       y="0"
       x="0"
       id="use773"
       stroke="none"
       fill-rule="evenodd"
       xlink:href="#mfid93"
       style="fill:#ffffff;stroke-width:0.26042;stroke-linecap:round;stroke-linejoin:round" /><use
       transform="matrix(3.84,0,0,3.84,412.632,655.9092)"
       height="100%"
       width="100%"
       y="0"
       x="0"
       id="use780"
       fill="none"
       xlink:href="#mfid94"
       style="stroke:#000000;stroke-width:0.26042;stroke-miterlimit:2" /><use
       transform="matrix(3.84,0,0,3.84,437.012,644.0292)"
       height="100%"
       width="100%"
       y="0"
       x="0"
       id="use789"
       stroke="none"
       fill-rule="evenodd"
       xlink:href="#mfid95"
       style="fill:#ffffff;stroke-width:0.26042;stroke-miterlimit:2" /><use
       transform="matrix(0,-3.84,3.84,0,424.952,655.9192)"
       height="100%"
       width="100%"
       y="0"
       x="0"
       id="use798"
       stroke="none"
       fill-rule="evenodd"
       xlink:href="#mfid96"
       style="fill:#ffffff;stroke-width:0.26042;stroke-miterlimit:2" /><use
       transform="matrix(0,-3.84,3.84,0,424.952,655.9192)"
       height="100%"
       width="100%"
       y="0"
       x="0"
       id="use805"
       fill="none"
       xlink:href="#mfid97"
       style="stroke:#000000;stroke-width:0.13021;stroke-miterlimit:2" /></g><g
     id="1"
     class="ws"><use
       transform="matrix(-3.84,0,0,-3.84,465.682,247.2392)"
       height="100%"
       width="100%"
       y="0"
       x="0"
       id="use580"
       stroke="none"
       fill-rule="evenodd"
       xlink:href="#mfid72"
       style="fill:#ffffff;stroke-width:0.083333;stroke-linecap:round;stroke-linejoin:round" /><use
       transform="matrix(-3.84,0,0,-3.84,465.682,247.2392)"
       height="100%"
       width="100%"
       y="0"
       x="0"
       id="use587"
       fill="none"
       xlink:href="#mfid73"
       style="stroke:#000000;stroke-width:0.26042;stroke-miterlimit:2" /><use
       transform="matrix(-3.84,0,0,-3.84,444.212,451.3392)"
       height="100%"
       width="100%"
       y="0"
       x="0"
       id="use596"
       stroke="none"
       fill-rule="evenodd"
       xlink:href="#mfid74"
       style="fill:#ffffff;stroke-width:0.26042;stroke-miterlimit:2" /><use
       transform="matrix(-3.84,0,0,-3.84,441.722,453.8292)"
       height="100%"
       width="100%"
       y="0"
       x="0"
       id="use605"
       stroke="none"
       fill-rule="evenodd"
       xlink:href="#mfid75"
       style="fill:#ffffff;stroke-width:0.26042;stroke-miterlimit:2" /><text
       stroke="none"
       fill="#000000"
       x="397.89197 413.89197"
       y="299.32922 299.32922"
       xml:space="preserve"
       id="text613"
       style="font-style:normal;font-weight:400;font-size:32px;font-family:Calibri, swiss, sans-serif;stroke-miterlimit:10">1</text><use
       transform="matrix(-0.059539,3.8395,-3.8395,-0.059539,471.912,341.5192)"
       height="100%"
       width="100%"
       y="0"
       x="0"
       id="use626"
       stroke="none"
       fill-rule="evenodd"
       xlink:href="#mfid76"
       style="fill:#ffffff;stroke-width:0.26042;stroke-miterlimit:2" /><use
       transform="matrix(-0.059539,3.8395,-3.8395,-0.059539,471.912,341.5192)"
       height="100%"
       width="100%"
       y="0"
       x="0"
       id="use633"
       fill="none"
       xlink:href="#mfid77"
       style="stroke:#000000;stroke-width:0.26042;stroke-linecap:round;stroke-linejoin:round" /><use
       transform="matrix(0,3.84,-3.84,0,485.392,328.3092)"
       height="100%"
       width="100%"
       y="0"
       x="0"
       id="use642"
       stroke="none"
       fill-rule="evenodd"
       xlink:href="#mfid78"
       style="fill:#ffffff;stroke-width:0.26042;stroke-linecap:round;stroke-linejoin:round" /><use
       transform="matrix(0,3.84,-3.84,0,485.392,328.3092)"
       height="100%"
       width="100%"
       y="0"
       x="0"
       id="use647"
       fill="none"
       xlink:href="#mfid79"
       style="stroke:#000000;stroke-width:0.26042;stroke-linecap:round;stroke-linejoin:round" /><use
       transform="matrix(3.84,0,0,3.84,412.432,404.9492)"
       height="100%"
       width="100%"
       y="0"
       x="0"
       id="use656"
       stroke="none"
       fill-rule="evenodd"
       xlink:href="#mfid80"
       style="fill:#ffffff;stroke-width:0.26042;stroke-linecap:round;stroke-linejoin:round" /><use
       transform="matrix(3.84,0,0,3.84,412.432,404.9492)"
       height="100%"
       width="100%"
       y="0"
       x="0"
       id="use663"
       fill="none"
       xlink:href="#mfid81"
       style="stroke:#000000;stroke-width:0.26042;stroke-miterlimit:2" /><use
       transform="matrix(3.84,0,0,3.84,436.812,393.0692)"
       height="100%"
       width="100%"
       y="0"
       x="0"
       id="use672"
       stroke="none"
       fill-rule="evenodd"
       xlink:href="#mfid82"
       style="fill:#ffffff;stroke-width:0.26042;stroke-miterlimit:2" /><use
       transform="matrix(0,-3.84,3.84,0,424.752,404.9592)"
       height="100%"
       width="100%"
       y="0"
       x="0"
       id="use681"
       stroke="none"
       fill-rule="evenodd"
       xlink:href="#mfid83"
       style="fill:#ffffff;stroke-width:0.26042;stroke-miterlimit:2" /><use
       transform="matrix(0,-3.84,3.84,0,424.752,404.9592)"
       height="100%"
       width="100%"
       y="0"
       x="0"
       id="use688"
       fill="none"
       xlink:href="#mfid84"
       style="stroke:#000000;stroke-width:0.13021;stroke-miterlimit:2" /><rect
       x="344.94199"
       id="rect811"
       stroke="none"
       height="7.5590401"
       width="120.94464"
       y="489.41016"
       style="fill:#ffffff;stroke-width:0.500006;stroke-miterlimit:2" /></g><g
     id="g4243"
     class="wp"><use
       transform="matrix(3.84,0,0,3.84,226.392,497.4492)"
       height="100%"
       width="100%"
       y="0"
       x="0"
       id="use571"
       fill="none"
       xlink:href="#mfid71"
       style="stroke:#000000;stroke-width:0.083333;stroke-linecap:round;stroke-linejoin:round" /><use
       transform="matrix(3.84,0,0,3.84,344.942,496.9692)"
       height="100%"
       width="100%"
       y="0"
       x="0"
       id="use818"
       fill="none"
       xlink:href="#mfid98"
       style="stroke:#000000;stroke-width:0.083333;stroke-linecap:round;stroke-linejoin:round" /></g></g><rect
   id="rect832"
   class="st1"
   height="639.01398"
   width="624.50098"
   y="-30.6859"
   x="-100.833"
   v:rectContext="foreign" />
</svg>
