<?xml version="1.0" encoding="UTF-8" standalone="no"?>
<svg
   xmlns:dc="http://purl.org/dc/elements/1.1/"
   xmlns:cc="http://creativecommons.org/ns#"
   xmlns:rdf="http://www.w3.org/1999/02/22-rdf-syntax-ns#"
   xmlns:svg="http://www.w3.org/2000/svg"
   xmlns="http://www.w3.org/2000/svg"
   xmlns:sodipodi="http://sodipodi.sourceforge.net/DTD/sodipodi-0.dtd"
   xmlns:inkscape="http://www.inkscape.org/namespaces/inkscape"
   inkscape:version="1.0 (4035a4fb49, 2020-05-01)"
   sodipodi:docname="Room 0202 Conference.svg"
   fill="#808080"
   width="422.64703"
   height="698.69092"
   viewBox="0 0 316.98502 524.01841"
   color-interpolation-filters="sRGB"
   class="st14"
   version="1.1"
   id="svg351">
  <metadata
     id="metadata144">
    <rdf:RDF>
      <cc:Work
         rdf:about="">
        <dc:format>image/svg+xml</dc:format>
        <dc:type
           rdf:resource="http://purl.org/dc/dcmitype/StillImage" />
        <dc:title></dc:title>
      </cc:Work>
    </rdf:RDF>
  </metadata>
  <defs
     id="defs142" />
  <sodipodi:namedview
     inkscape:current-layer="c202"
     inkscape:window-maximized="1"
     inkscape:window-y="-8"
     inkscape:window-x="-8"
     inkscape:cy="424.96183"
     inkscape:cx="103.21227"
     inkscape:zoom="0.84828755"
     showgrid="false"
     id="namedview140"
     inkscape:window-height="1057"
     inkscape:window-width="1920"
     inkscape:pageshadow="2"
     inkscape:pageopacity="0"
     guidetolerance="10"
     gridtolerance="10"
     objecttolerance="10"
     borderopacity="1"
     bordercolor="#666666"
     pagecolor="#ffffff" />
  <g
     id="g2149">
    <g
       id="c202">
      <g
         class="ws"
         id="1">
        <path
           d="m 202.25052,24.394439 -4.93,-9.29 h -79.94 l -4.92,9.29 V 342.31444 l 4.92,9.29 h 79.94 l 4.93,-9.29 z"
           class="st4"
           id="path137" />
        <path
           d="m 112.46052,183.35444 h 89.79"
           class="st5"
           id="path139" />
        <path
           d="m 202.25052,24.394439 -4.93,-9.29 h -79.94 l -4.92,9.29 V 342.31444 l 4.92,9.29 h 79.94 l 4.93,-9.29 V 24.394439"
           class="st5"
           id="path141" />
        <path
           d="m 196.09052,17.424439 h -77.48 l -4.92,9.29 V 339.99444 l 4.92,9.29 h 77.48 l 4.92,-9.29 V 26.714439 Z m -83.63,6.97 4.92,-9.29 h 79.94 l 4.93,9.29 V 342.31444 l -4.93,9.29 h -79.94 l -4.92,-9.29 z"
           class="st6"
           id="path146" />
        <path
           d="m 127.77352,42.963439 -2.48,-4.64 h 64.12 l -2.47,4.64 z m 59.7,0.63 2.47,-4.61 V 327.72344 l -2.47,-4.61 z m -0.53,280.150001 2.47,4.64 h -64.12 l 2.47,-4.64 z m -62.18,3.98 V 38.983439 l 2.47,4.61 V 323.11344 Z"
           class="st7"
           id="path151" />
        <path
           d="m 202.25052,24.394439 -4.93,-9.29 h -79.94 l -4.92,9.29 V 342.31444 l 4.92,9.29 h 79.94 l 4.93,-9.29 z"
           class="st8"
           id="path156" />
        <rect
           x="65.701515"
           y="36.959431"
           width="37.332001"
           height="37.332001"
           rx="3"
           ry="3"
           class="st9"
           id="rect164" />
        <rect
           x="65.701515"
           y="36.959431"
           width="6.9439998"
           height="37.332001"
           rx="3"
           ry="3"
           class="st9"
           id="rect169" />
        <rect
           x="65.701515"
           y="97.182434"
           width="37.332001"
           height="37.332001"
           rx="3"
           ry="3"
           class="st9"
           id="rect177" />
        <rect
           x="65.701515"
           y="97.182434"
           width="6.9439998"
           height="37.332001"
           rx="3"
           ry="3"
           class="st9"
           id="rect182" />
        <rect
           x="65.701515"
           y="158.36743"
           width="37.332001"
           height="37.332001"
           rx="3"
           ry="3"
           class="st9"
           id="rect190" />
        <rect
           x="65.701515"
           y="158.36743"
           width="6.9439998"
           height="37.332001"
           rx="3"
           ry="3"
           class="st9"
           id="rect195" />
        <rect
           x="65.701515"
           y="219.55344"
           width="37.332001"
           height="37.332001"
           rx="3"
           ry="3"
           class="st9"
           id="rect203" />
        <rect
           x="65.701515"
           y="219.55344"
           width="6.9439998"
           height="37.332001"
           rx="3"
           ry="3"
           class="st9"
           id="rect208" />
        <rect
           x="65.701515"
           y="280.73843"
           width="37.332001"
           height="37.332001"
           rx="3"
           ry="3"
           class="st9"
           id="rect216" />
        <rect
           x="65.701515"
           y="280.73843"
           width="6.9439998"
           height="37.332001"
           rx="3"
           ry="3"
           class="st9"
           id="rect221" />
        <rect
           transform="rotate(179.9)"
           x="-247.53023"
           y="-318.47183"
           width="37.332001"
           height="37.332001"
           rx="3"
           ry="3"
           class="st9"
           id="rect229" />
        <rect
           transform="rotate(179.9)"
           x="-247.53023"
           y="-318.47183"
           width="6.9439998"
           height="37.332001"
           rx="3"
           ry="3"
           class="st9"
           id="rect234" />
        <rect
           transform="rotate(179.9)"
           x="-247.53079"
           y="-258.24783"
           width="37.332001"
           height="37.332001"
           rx="3"
           ry="3"
           class="st9"
           id="rect242" />
        <rect
           transform="rotate(179.9)"
           x="-247.53079"
           y="-258.24783"
           width="6.9439998"
           height="37.332001"
           rx="3"
           ry="3"
           class="st9"
           id="rect247" />
        <rect
           transform="rotate(179.9)"
           x="-247.53018"
           y="-197.06181"
           width="37.332001"
           height="37.332001"
           rx="3"
           ry="3"
           class="st9"
           id="rect255" />
        <rect
           transform="rotate(179.9)"
           x="-247.53018"
           y="-197.06181"
           width="6.9439998"
           height="37.332001"
           rx="3"
           ry="3"
           class="st9"
           id="rect260" />
        <rect
           transform="rotate(179.9)"
           x="-247.52957"
           y="-135.87582"
           width="37.332001"
           height="37.332001"
           rx="3"
           ry="3"
           class="st9"
           id="rect268" />
        <rect
           transform="rotate(179.9)"
           x="-247.52957"
           y="-135.87582"
           width="6.9439998"
           height="37.332001"
           rx="3"
           ry="3"
           class="st9"
           id="rect273" />
        <rect
           transform="rotate(179.9)"
           x="-247.53098"
           y="-74.689819"
           width="37.332001"
           height="37.332001"
           rx="3"
           ry="3"
           class="st9"
           id="rect281" />
        <rect
           transform="rotate(179.9)"
           x="-247.53098"
           y="-74.689819"
           width="6.9439998"
           height="37.332001"
           rx="3"
           ry="3"
           class="st9"
           id="rect286" />
      </g>
      <g
         id="g2323"
         class="any">
        <path
           id="path12"
           class="st1"
           d="M 0.296519,458.23444 V 0.294439 l 4.26,4.26 V 453.98444 Z" />
        <path
           id="rect17"
           class="st2"
           d="M 4.8513323,454.28425 0.59949927,458.53609 0.29897889,458.23557 4.550812,453.98373 Z" />
        <path
           id="rect22"
           class="st2"
           d="M 0.599003,-1.1775361e-6 4.8508361,4.2518319 4.5503157,4.5523523 0.29848262,0.3005192 Z" />
        <path
           id="path30"
           class="st3"
           d="M 0.296519,458.23444 V 0.294439" />
        <path
           id="path32"
           class="st3"
           d="M 4.556519,453.98444 V 4.554439" />
        <path
           id="path43"
           class="st1"
           d="M 0.302519,0.29444 H 316.68252 l -4.25,4.26 H 4.552519 Z" />
        <path
           id="rect48"
           class="st2"
           d="M 4.2527091,4.8492498 8.7604512e-4,0.59741672 0.30139643,0.29689634 4.5532295,4.5487294 Z" />
        <path
           id="rect53"
           class="st2"
           d="M 316.98523,0.5975783 312.7334,4.8494114 312.43288,4.548891 316.68471,0.29705791 Z" />
        <path
           id="path61"
           class="st3"
           d="M 0.302519,0.29444 H 316.68252" />
        <path
           id="path63"
           class="st3"
           d="M 4.552519,4.55444 H 312.43252" />
        <path
           id="path74"
           class="st1"
           d="m 316.68652,0.30244 v 457.94 l -4.26,-4.26 v -449.43 z" />
        <path
           id="rect79"
           class="st2"
           d="M 312.13171,4.2526263 316.38354,7.9318445e-4 316.68406,0.30131357 312.43223,4.5531466 Z" />
        <path
           id="rect84"
           class="st2"
           d="m 316.38404,458.53688 -4.25183,-4.25183 0.30052,-0.30052 4.25183,4.25183 z" />
        <path
           id="path92"
           class="st3"
           d="m 316.68652,0.30244 v 457.94" />
        <path
           id="path94"
           class="st3"
           d="m 312.42652,4.55244 v 449.43" />
        <path
           id="path105"
           class="st1"
           d="m 316.68252,458.24044 h -316.38 l 4.25,-4.26 h 307.88 z" />
        <path
           id="rect110"
           class="st2"
           d="m 312.73233,453.68562 4.25183,4.25184 -0.30052,0.30052 -4.25183,-4.25184 z" />
        <path
           id="rect115"
           class="st2"
           d="M -1.8697749e-4,457.93731 4.2516461,453.68548 4.5521665,453.986 0.3003334,458.23783 Z" />
        <path
           id="path123"
           class="st3"
           d="M 316.68252,458.24044 H 0.30252" />
        <path
           id="path125"
           class="st3"
           d="M 312.43252,453.98044 H 4.55252" />
        <path
           d="M 97.704516,453.8364 H 198.33452 v 4.54 H 97.704516 Z"
           class="st10"
           id="path294" />
        <path
           d="m 198.33752,453.9764 v 4.26 h -1.42 v -4.26 z m -100.630004,0 v 4.26 h 1.42 v -4.26 z"
           class="st11"
           id="path308" />
        <path
           d="m 198.33752,453.9764 v 4.26 h -1.42 v -1.42 m 0,-1.42 v -1.42 h 1.42 m -100.630004,0 v 4.26 h 1.42 v -1.42 m 0,-1.42 v -1.42 h -1.42"
           class="st12"
           id="path310" />
        <path
           d="m 196.92452,456.8134 h -0.57 v -1.42 h 0.57 z m -97.800004,0 h 0.57 v -1.42 h -0.57 z"
           class="st11"
           id="path315" />
        <path
           d="m 196.92452,456.8134 h -0.57 v -1.42 h 0.57 m -97.800004,1.42 h 0.57 v -1.42 h -0.57"
           class="st12"
           id="path317" />
        <path
           d="m 198.33752,453.9764 v 4.26"
           class="st12"
           id="path322" />
        <path
           d="m 97.707516,453.9764 v 4.26"
           class="st12"
           id="path324" />
        <path
           d="m 99.124516,458.2284 a 97.795,97.795 0 0 0 25.430004,65.79"
           class="st12"
           id="path329" />
        <path
           class="st9"
           id="rect334"
           d="m 124.55765,524.01637 72.36208,-65.78443 -0.95318,-1.04849 -72.36208,65.78443 z" />
        <path
           class="st13"
           id="rect342"
           d="m 123.6043,392.07833 72.36208,65.78443 0.95319,-1.04849 -72.36209,-65.78443 z" />
      </g>
    </g>
  </g>
</svg>
