<?xml version="1.0" encoding="UTF-8" standalone="no"?>
<svg
   xmlns:v="http://schemas.microsoft.com/visio/2003/SVGExtensions/"
   xmlns:dc="http://purl.org/dc/elements/1.1/"
   xmlns:cc="http://creativecommons.org/ns#"
   xmlns:rdf="http://www.w3.org/1999/02/22-rdf-syntax-ns#"
   xmlns:svg="http://www.w3.org/2000/svg"
   xmlns="http://www.w3.org/2000/svg"
   xmlns:sodipodi="http://sodipodi.sourceforge.net/DTD/sodipodi-0.dtd"
   xmlns:inkscape="http://www.inkscape.org/namespaces/inkscape"
   inkscape:version="1.0 (4035a4fb49, 2020-05-01)"
   sodipodi:docname="Room 0207.svg"
   id="svg599"
   version="1.1"
   class="st16"
   color-interpolation-filters="sRGB"
   xml:space="preserve"
   viewBox="0 0 375.52907 582.48471"
   height="8.0900574in"
   width="5.2156825in"><metadata
   id="metadata605"><rdf:RDF><cc:Work
       rdf:about=""><dc:format>image/svg+xml</dc:format><dc:type
         rdf:resource="http://purl.org/dc/dcmitype/StillImage" /><dc:title></dc:title></cc:Work></rdf:RDF></metadata><defs
   id="defs603">
		
		
		
		
		
		
		
		
		
		
		
		
		
		
		
		
		
		
		
		
		
		
		
		
		
		
		
		
		
		
		
		
		
		
		
		
		
		
		
		
		
		
		
		
		
		
		
	
			
			
			
			
			
			
			
		
			
			
			
			
		
			
			
			
			
		
			
			
			
			
			
		
			
			
			
			
			
			
			
			
			
		
			
			
			
			
			
		
			
			
			
			
			
		
			
			
			
			
			
		
			
			
			
			
		
			
			
			
			
		
			
			
			
			
			
		
			
			
			
			
			
			
			
			
			
		
			
			
			
			
			
		
			
			
			
			
			
		
			
			
			
			
			
		
			
			
			
			
			
			
		
			
			
			
			
		
			
			
			
			
		
			
			
			
			
			
		
			
			
			
			
			
			
			
			
			
		
			
			
			
			
			
		
			
			
			
			
			
		
			
			
			
			
			
		
			
			
			
			
			
			
		
			
			
			
			
		
			
			
			
			
		
			
			
			
			
			
		
			
			
			
			
			
			
			
			
			
		
			
			
			
			
			
			
			
			
			
			
			
			
			
			
			
		
			
			
			
			
			
			
			
			
			
			
			
			
		
				
				
				
				
				
				
				
				
				
			
				
				
				
				
				
				
				
				
				
			
				
				
				
				
				
				
				
				
				
			
				
				
				
				
				
				
				
				
				
			
				
				
				
			
				
			
				
				
				
							
				
				
			
				
				
			
				
				
			
				
				
			
				
				
			
				
				
			
				
				
				
				
			
				
			
				
				
				
				
			
				
			
				
				
				
				
			
				
			
				
				
				
			
				
			
				
				
				
							
				
				
			
				
				
			
				
				
			
				
				
			
				
				
			
				
				
			
				
				
				
				
			
				
			
				
				
				
				
			
				
			
				
				
				
				
			
				
			
				
			
				
				
				
			
				
				
				
				
				
				
			
				
				
				
			
				
			
				
				
				
							
				
				
			
				
				
			
				
				
			
				
				
			
				
				
			
				
				
			
				
				
				
				
			
				
			
				
				
				
				
			
				
			
				
				
				
				
			
				
			
				
			
				
				
				
			
				
				
				
				
				
				
			
				
				
				
			
				
			
				
				
				
							
				
				
			
				
				
			
				
				
			
				
				
			
				
				
			
				
				
			
				
				
				
			
				
				
			
				
				
			
				
			
				
				
				
				
			
				
				
				
				
			
				
				
				
				
			
				
				
				
			
				
				
			
				
				
			
				
				
				
			
				
				
				
				
				
			
				
				
				
			
				
			
				
			
				
			
				
				
				
			
				
				
				
			
				
				
				
			
				
				
				
			
				
				
				
				
				
			</defs><sodipodi:namedview
   inkscape:current-layer="svg599"
   inkscape:window-maximized="1"
   inkscape:window-y="-8"
   inkscape:window-x="-8"
   inkscape:cy="430.15442"
   inkscape:cx="374.05795"
   inkscape:zoom="0.81482982"
   showgrid="false"
   id="namedview601"
   inkscape:window-height="1057"
   inkscape:window-width="1920"
   inkscape:pageshadow="2"
   inkscape:pageopacity="0"
   guidetolerance="10"
   gridtolerance="10"
   objecttolerance="10"
   borderopacity="1"
   bordercolor="#666666"
   pagecolor="#ffffff" />
	<v:documentProperties
   v:viewMarkup="false"
   v:langID="1033">
		<v:userDefs>
			<v:ud
   v:val="VT4(Rectangle)"
   v:prompt=""
   v:nameU="msvSubprocessMaster" />
			<v:ud
   v:val="VT0(1):26"
   v:nameU="msvNoAutoConnect" />
			<v:ud
   v:val="VT0(1):26"
   v:nameU="VisAecDocument" />
			<v:ud
   v:val="VT0(16):26"
   v:nameU="VisAecVersion" />
			<v:ud
   v:val="VT0(0):26"
   v:nameU="Ifc__CustomPropsLevel" />
			<v:ud
   v:nameU="msvConvertTheme" />
		</v:userDefs>
	</v:documentProperties>

	<style
   id="style2"
   type="text/css">
	<![CDATA[
		.st1 {fill:#b3b3b3}
		.st2 {fill:#b3b3b3;stroke:#000000;stroke-linecap:round;stroke-linejoin:round;stroke-width:0.75;visibility:hidden}
		.st3 {stroke:#000000;stroke-linecap:butt;stroke-width:0.24}
		.st4 {fill:#ffffff}
		.st5 {stroke:#000000;stroke-linecap:round;stroke-linejoin:round;stroke-width:0.24}
		.st6 {fill:#ffffff;stroke:#000000;stroke-linecap:round;stroke-linejoin:round;stroke-width:0.24}
		.st7 {fill:#000000;font-family:Arial;font-size:1.99999em;font-weight:bold}
		.st8 {fill:#00ff00;stroke:none;stroke-linecap:round;stroke-linejoin:round;stroke-width:0.72}
		.st9 {fill:#e6e6e6;stroke:none;stroke-linecap:round;stroke-linejoin:round;stroke-width:0.72}
		.st10 {fill:#b3b3b3;stroke:none;stroke-linecap:round;stroke-linejoin:round;stroke-width:0.72}
		.st11 {fill:#7aa69c;stroke:#658a82;stroke-linecap:butt;stroke-width:1.25}
		.st12 {fill:#7aa69c}
		.st13 {stroke:#658a82;stroke-linecap:butt;stroke-width:1.25}
		.st14 {fill:#ffffff;stroke:#ffffff;stroke-linecap:round;stroke-linejoin:round;stroke-width:0.24}
		.st15 {fill:#ffffff;stroke:#000000;stroke-linecap:round;stroke-linejoin:round;stroke-width:0.24;visibility:hidden}
		.st16 {fill:none;fill-rule:evenodd;font-size:12px;overflow:visible;stroke-linecap:square;stroke-miterlimit:3}
	]]>
	</style>

	<g
   transform="translate(-159.92557,-340.42189)"
   id="r207"><g
     v:layerMember="0;1"
     v:groupContext="shape"
     v:mID="965"
     id="shape965-10"
     transform="rotate(-90,-70.45021,923.20286)">
					<title
   id="title25">Sheet.965</title>
					<v:userDefs>
						<v:ud
   v:prompt="Shape Identifier"
   v:nameU="WallRefLine" />
					</v:userDefs>
				</g><g
     transform="rotate(-90,-179.61919,818.28584)"
     v:layerMember="0;1"
     v:groupContext="shape"
     v:mID="967"
     id="shape967-16">
					<title
   id="title35">Sheet.967</title>
					<v:custProps>
						<v:cp
   v:val="VT4(0)"
   v:langID="1033"
   v:invis="false"
   v:sortKey="2"
   v:format="0;0.0;0.00;0.000;0.0000"
   v:type="1"
   v:lbl="Precision"
   v:nameU="LPrec" />
						<v:cp
   v:val="VT4( Use Drawing Page's Units)"
   v:langID="1033"
   v:invis="false"
   v:sortKey="1"
   v:format=" Use Drawing Page's Units;.Feet-Inch (1'-0&quot;);.Feet (1.00');.Inches;.Feet (1.00ft);.Miles;-Millimeters;-Centimeters;-Meters;-Kilometers"
   v:type="1"
   v:lbl="Units"
   v:nameU="LUnits" />
						<v:cp
   v:val="VT4(Show Units)"
   v:langID="1033"
   v:invis="false"
   v:sortKey="4"
   v:format="Don't Show Units;Show Units"
   v:type="1"
   v:lbl="Units display"
   v:nameU="ShowUnits" />
						<v:cp
   v:val="VT4(1/16 in.)"
   v:langID="1033"
   v:invis="true"
   v:sortKey="3"
   v:format="    1 in.; 1/2 in.; 1/4 in.; 1/8 in.;1/16 in."
   v:type="1"
   v:lbl="Precision"
   v:nameU="LInchPrec" />
					</v:custProps>
					<v:userDefs>
						<v:ud
   v:val="VT0(1):5"
   v:nameU="Hide" />
						<v:ud
   v:val="VT0(0):21"
   v:nameU="LUnitsFactor" />
						<v:ud
   v:val="VT4(0u)"
   v:nameU="FormatString" />
						<v:ud
   v:val="VT4(3m.)"
   v:nameU="LengthText" />
						<v:ud
   v:val="VT0(118.11023622047):21"
   v:nameU="Length" />
						<v:ud
   v:val="VT4(0)"
   v:prompt="Linear Precision Formatting String"
   v:nameU="LPFString" />
						<v:ud
   v:val="VT0(0):26"
   v:nameU="LPrec" />
						<v:ud
   v:val="VT0(0):26"
   v:nameU="LPrecInd" />
						<v:ud
   v:val="VT4(0)"
   v:nameU="LPrecVal" />
						<v:ud
   v:val="VT0(0):26"
   v:nameU="LUnits" />
						<v:ud
   v:val="VT0(0):26"
   v:prompt="0=Dwg, 1=Arch, 2=Dec Ft, 3+ = other"
   v:nameU="LUnitsInd" />
						<v:ud
   v:val="VT4( Use Drawing Page's Units)"
   v:nameU="LUnitsVal" />
						<v:ud
   v:val="VT0(1):26"
   v:nameU="ShowUnits" />
						<v:ud
   v:val="VT0(1):26"
   v:nameU="ShowUnitsInd" />
						<v:ud
   v:val="VT4(Show Units)"
   v:nameU="ShowUnitsVal" />
						<v:ud
   v:val="VT0(0):26"
   v:nameU="FeetInch" />
						<v:ud
   v:val="VT0(0):26"
   v:nameU="Feet" />
						<v:ud
   v:val="VT0(0):26"
   v:nameU="Inch" />
						<v:ud
   v:val="VT0(16):26"
   v:nameU="InchPrec" />
						<v:ud
   v:val="VT0(118.11023622047):21"
   v:nameU="WatchLength" />
						<v:ud
   v:val="VT0(0):21"
   v:nameU="DrawingUnitFactor" />
						<v:ud
   v:val="VT0(0):5"
   v:nameU="HideArrow" />
						<v:ud
   v:val="VT0(4):26"
   v:nameU="LInchPrecInd" />
						<v:ud
   v:val="VT0(9.1681666666667):1"
   v:nameU="DirArrowSize" />
						<v:ud
   v:val="VT0(21.064151367738):1"
   v:nameU="DirArrowOffset" />
						<v:ud
   v:val="VT0(4):26"
   v:nameU="LInchPrec" />
						<v:ud
   v:val="VT4(1/16 in.)"
   v:nameU="LInchPrecVal" />
						<v:ud
   v:val="VT0(0):24"
   v:prompt=""
   v:nameU="LUnitsFactor" />
						<v:ud
   v:val="VT4(17900mm.)"
   v:prompt=""
   v:nameU="LengthText" />
						<v:ud
   v:val="VT0(704.72444649246):24"
   v:prompt=""
   v:nameU="Length" />
						<v:ud
   v:val="VT0(704.72444649246):1"
   v:prompt=""
   v:nameU="WatchLength" />
						<v:ud
   v:val="VT0(0):24"
   v:prompt=""
   v:nameU="DrawingUnitFactor" />
						<v:ud
   v:val="VT0(0.091681666666667):1"
   v:prompt=""
   v:nameU="DirArrowSize" />
						<v:ud
   v:val="VT0(0.59924014703438):1"
   v:prompt=""
   v:nameU="DirArrowOffset" />
					</v:userDefs>
					<v:textBlock
   v:margins="rect(4,0,0,0)" />
					<v:textRect
   height="22.0036"
   width="79.24"
   cy="1147.51"
   cx="39.6152" />
				</g><g
     v:layerMember="0;1"
     v:groupContext="shape"
     v:mID="972"
     id="shape972-26"
     transform="translate(164.85393,-813.15735)">
					<title
   id="title56">Sheet.972</title>
					<v:userDefs>
						<v:ud
   v:prompt="Shape Identifier"
   v:nameU="WallRefLine" />
					</v:userDefs>
				</g><g
     transform="translate(308.07293,-817.40932)"
     v:layerMember="0;1"
     v:groupContext="shape"
     v:mID="974"
     id="shape974-32">
					<title
   id="title66">Sheet.974</title>
					<v:custProps>
						<v:cp
   v:val="VT4(0)"
   v:langID="1033"
   v:invis="false"
   v:sortKey="2"
   v:format="0;0.0;0.00;0.000;0.0000"
   v:type="1"
   v:lbl="Precision"
   v:nameU="LPrec" />
						<v:cp
   v:val="VT4( Use Drawing Page's Units)"
   v:langID="1033"
   v:invis="false"
   v:sortKey="1"
   v:format=" Use Drawing Page's Units;.Feet-Inch (1'-0&quot;);.Feet (1.00');.Inches;.Feet (1.00ft);.Miles;-Millimeters;-Centimeters;-Meters;-Kilometers"
   v:type="1"
   v:lbl="Units"
   v:nameU="LUnits" />
						<v:cp
   v:val="VT4(Show Units)"
   v:langID="1033"
   v:invis="false"
   v:sortKey="4"
   v:format="Don't Show Units;Show Units"
   v:type="1"
   v:lbl="Units display"
   v:nameU="ShowUnits" />
						<v:cp
   v:val="VT4(1/16 in.)"
   v:langID="1033"
   v:invis="true"
   v:sortKey="3"
   v:format="    1 in.; 1/2 in.; 1/4 in.; 1/8 in.;1/16 in."
   v:type="1"
   v:lbl="Precision"
   v:nameU="LInchPrec" />
					</v:custProps>
					<v:userDefs>
						<v:ud
   v:val="VT0(1):5"
   v:nameU="Hide" />
						<v:ud
   v:val="VT0(0):21"
   v:nameU="LUnitsFactor" />
						<v:ud
   v:val="VT4(0u)"
   v:nameU="FormatString" />
						<v:ud
   v:val="VT4(3m.)"
   v:nameU="LengthText" />
						<v:ud
   v:val="VT0(98.425196850394):21"
   v:nameU="Length" />
						<v:ud
   v:val="VT4(0)"
   v:prompt="Linear Precision Formatting String"
   v:nameU="LPFString" />
						<v:ud
   v:val="VT0(0):26"
   v:nameU="LPrec" />
						<v:ud
   v:val="VT0(0):26"
   v:nameU="LPrecInd" />
						<v:ud
   v:val="VT4(0)"
   v:nameU="LPrecVal" />
						<v:ud
   v:val="VT0(0):26"
   v:nameU="LUnits" />
						<v:ud
   v:val="VT0(0):26"
   v:prompt="0=Dwg, 1=Arch, 2=Dec Ft, 3+ = other"
   v:nameU="LUnitsInd" />
						<v:ud
   v:val="VT4( Use Drawing Page's Units)"
   v:nameU="LUnitsVal" />
						<v:ud
   v:val="VT0(1):26"
   v:nameU="ShowUnits" />
						<v:ud
   v:val="VT0(1):26"
   v:nameU="ShowUnitsInd" />
						<v:ud
   v:val="VT4(Show Units)"
   v:nameU="ShowUnitsVal" />
						<v:ud
   v:val="VT0(0):26"
   v:nameU="FeetInch" />
						<v:ud
   v:val="VT0(0):26"
   v:nameU="Feet" />
						<v:ud
   v:val="VT0(0):26"
   v:nameU="Inch" />
						<v:ud
   v:val="VT0(16):26"
   v:nameU="InchPrec" />
						<v:ud
   v:val="VT0(98.425196850394):21"
   v:nameU="WatchLength" />
						<v:ud
   v:val="VT0(0):21"
   v:nameU="DrawingUnitFactor" />
						<v:ud
   v:val="VT0(0):5"
   v:nameU="HideArrow" />
						<v:ud
   v:val="VT0(4):26"
   v:nameU="LInchPrecInd" />
						<v:ud
   v:val="VT0(9.1681666666667):1"
   v:nameU="DirArrowSize" />
						<v:ud
   v:val="VT0(21.064151367738):1"
   v:nameU="DirArrowOffset" />
						<v:ud
   v:val="VT0(4):26"
   v:nameU="LInchPrec" />
						<v:ud
   v:val="VT4(1/16 in.)"
   v:nameU="LInchPrecVal" />
						<v:ud
   v:val="VT0(0):24"
   v:prompt=""
   v:nameU="LUnitsFactor" />
						<v:ud
   v:val="VT4(12900mm.)"
   v:prompt=""
   v:nameU="LengthText" />
						<v:ud
   v:val="VT0(507.87404244429):24"
   v:prompt=""
   v:nameU="Length" />
						<v:ud
   v:val="VT0(507.87404244429):1"
   v:prompt=""
   v:nameU="WatchLength" />
						<v:ud
   v:val="VT0(0):24"
   v:prompt=""
   v:nameU="DrawingUnitFactor" />
						<v:ud
   v:val="VT0(0.091681666666667):1"
   v:prompt=""
   v:nameU="DirArrowSize" />
						<v:ud
   v:val="VT0(0.59924014703438):1"
   v:prompt=""
   v:nameU="DirArrowOffset" />
					</v:userDefs>
					<v:textBlock
   v:margins="rect(4,0,0,0)" />
					<v:textRect
   transform="rotate(-180)"
   height="22.0036"
   width="79.24"
   cy="1147.51"
   cx="39.6152" />
				</g><g
     v:layerMember="0;1"
     v:groupContext="shape"
     v:mID="979"
     id="shape979-42"
     transform="rotate(90,671.83764,1017.1883)">
					<title
   id="title87">Sheet.979</title>
					<v:userDefs>
						<v:ud
   v:prompt="Shape Identifier"
   v:nameU="WallRefLine" />
					</v:userDefs>
				</g><g
     transform="rotate(90,566.92062,1126.3573)"
     v:layerMember="0;1"
     v:groupContext="shape"
     v:mID="981"
     id="shape981-48">
					<title
   id="title97">Sheet.981</title>
					<v:custProps>
						<v:cp
   v:val="VT4(0)"
   v:langID="1033"
   v:invis="false"
   v:sortKey="2"
   v:format="0;0.0;0.00;0.000;0.0000"
   v:type="1"
   v:lbl="Precision"
   v:nameU="LPrec" />
						<v:cp
   v:val="VT4( Use Drawing Page's Units)"
   v:langID="1033"
   v:invis="false"
   v:sortKey="1"
   v:format=" Use Drawing Page's Units;.Feet-Inch (1'-0&quot;);.Feet (1.00');.Inches;.Feet (1.00ft);.Miles;-Millimeters;-Centimeters;-Meters;-Kilometers"
   v:type="1"
   v:lbl="Units"
   v:nameU="LUnits" />
						<v:cp
   v:val="VT4(Show Units)"
   v:langID="1033"
   v:invis="false"
   v:sortKey="4"
   v:format="Don't Show Units;Show Units"
   v:type="1"
   v:lbl="Units display"
   v:nameU="ShowUnits" />
						<v:cp
   v:val="VT4(1/16 in.)"
   v:langID="1033"
   v:invis="true"
   v:sortKey="3"
   v:format="    1 in.; 1/2 in.; 1/4 in.; 1/8 in.;1/16 in."
   v:type="1"
   v:lbl="Precision"
   v:nameU="LInchPrec" />
					</v:custProps>
					<v:userDefs>
						<v:ud
   v:val="VT0(1):5"
   v:nameU="Hide" />
						<v:ud
   v:val="VT0(0):21"
   v:nameU="LUnitsFactor" />
						<v:ud
   v:val="VT4(0u)"
   v:nameU="FormatString" />
						<v:ud
   v:val="VT4(3m.)"
   v:nameU="LengthText" />
						<v:ud
   v:val="VT0(118.11023622047):21"
   v:nameU="Length" />
						<v:ud
   v:val="VT4(0)"
   v:prompt="Linear Precision Formatting String"
   v:nameU="LPFString" />
						<v:ud
   v:val="VT0(0):26"
   v:nameU="LPrec" />
						<v:ud
   v:val="VT0(0):26"
   v:nameU="LPrecInd" />
						<v:ud
   v:val="VT4(0)"
   v:nameU="LPrecVal" />
						<v:ud
   v:val="VT0(0):26"
   v:nameU="LUnits" />
						<v:ud
   v:val="VT0(0):26"
   v:prompt="0=Dwg, 1=Arch, 2=Dec Ft, 3+ = other"
   v:nameU="LUnitsInd" />
						<v:ud
   v:val="VT4( Use Drawing Page's Units)"
   v:nameU="LUnitsVal" />
						<v:ud
   v:val="VT0(1):26"
   v:nameU="ShowUnits" />
						<v:ud
   v:val="VT0(1):26"
   v:nameU="ShowUnitsInd" />
						<v:ud
   v:val="VT4(Show Units)"
   v:nameU="ShowUnitsVal" />
						<v:ud
   v:val="VT0(0):26"
   v:nameU="FeetInch" />
						<v:ud
   v:val="VT0(0):26"
   v:nameU="Feet" />
						<v:ud
   v:val="VT0(0):26"
   v:nameU="Inch" />
						<v:ud
   v:val="VT0(16):26"
   v:nameU="InchPrec" />
						<v:ud
   v:val="VT0(118.11023622047):21"
   v:nameU="WatchLength" />
						<v:ud
   v:val="VT0(0):21"
   v:nameU="DrawingUnitFactor" />
						<v:ud
   v:val="VT0(0):5"
   v:nameU="HideArrow" />
						<v:ud
   v:val="VT0(4):26"
   v:nameU="LInchPrecInd" />
						<v:ud
   v:val="VT0(9.1681666666667):1"
   v:nameU="DirArrowSize" />
						<v:ud
   v:val="VT0(21.064151367738):1"
   v:nameU="DirArrowOffset" />
						<v:ud
   v:val="VT0(4):26"
   v:nameU="LInchPrec" />
						<v:ud
   v:val="VT4(1/16 in.)"
   v:nameU="LInchPrecVal" />
						<v:ud
   v:val="VT0(0):24"
   v:prompt=""
   v:nameU="LUnitsFactor" />
						<v:ud
   v:val="VT4(17900mm.)"
   v:prompt=""
   v:nameU="LengthText" />
						<v:ud
   v:val="VT0(704.72444649247):24"
   v:prompt=""
   v:nameU="Length" />
						<v:ud
   v:val="VT0(704.72444649247):1"
   v:prompt=""
   v:nameU="WatchLength" />
						<v:ud
   v:val="VT0(0):24"
   v:prompt=""
   v:nameU="DrawingUnitFactor" />
						<v:ud
   v:val="VT0(0.091681666666667):1"
   v:prompt=""
   v:nameU="DirArrowSize" />
						<v:ud
   v:val="VT0(0.59924014703438):1"
   v:prompt=""
   v:nameU="DirArrowOffset" />
					</v:userDefs>
					<v:textBlock
   v:margins="rect(4,0,0,0)" />
					<v:textRect
   transform="rotate(-180)"
   height="22.0036"
   width="79.24"
   cy="1147.51"
   cx="39.6152" />
				</g><g
     v:layerMember="0;1"
     v:groupContext="shape"
     v:mID="986"
     id="shape986-58"
     transform="rotate(180,265.26296,1005.6313)">
					<title
   id="title118">Sheet.986</title>
					<v:userDefs>
						<v:ud
   v:prompt="Shape Identifier"
   v:nameU="WallRefLine" />
					</v:userDefs>
				</g><g
     transform="rotate(180,193.65346,1007.7573)"
     v:layerMember="0;1"
     v:groupContext="shape"
     v:mID="988"
     id="shape988-64">
					<title
   id="title128">Sheet.988</title>
					<v:custProps>
						<v:cp
   v:val="VT4(0)"
   v:langID="1033"
   v:invis="false"
   v:sortKey="2"
   v:format="0;0.0;0.00;0.000;0.0000"
   v:type="1"
   v:lbl="Precision"
   v:nameU="LPrec" />
						<v:cp
   v:val="VT4( Use Drawing Page's Units)"
   v:langID="1033"
   v:invis="false"
   v:sortKey="1"
   v:format=" Use Drawing Page's Units;.Feet-Inch (1'-0&quot;);.Feet (1.00');.Inches;.Feet (1.00ft);.Miles;-Millimeters;-Centimeters;-Meters;-Kilometers"
   v:type="1"
   v:lbl="Units"
   v:nameU="LUnits" />
						<v:cp
   v:val="VT4(Show Units)"
   v:langID="1033"
   v:invis="false"
   v:sortKey="4"
   v:format="Don't Show Units;Show Units"
   v:type="1"
   v:lbl="Units display"
   v:nameU="ShowUnits" />
						<v:cp
   v:val="VT4(1/16 in.)"
   v:langID="1033"
   v:invis="true"
   v:sortKey="3"
   v:format="    1 in.; 1/2 in.; 1/4 in.; 1/8 in.;1/16 in."
   v:type="1"
   v:lbl="Precision"
   v:nameU="LInchPrec" />
					</v:custProps>
					<v:userDefs>
						<v:ud
   v:val="VT0(1):5"
   v:nameU="Hide" />
						<v:ud
   v:val="VT0(0):21"
   v:nameU="LUnitsFactor" />
						<v:ud
   v:val="VT4(0u)"
   v:nameU="FormatString" />
						<v:ud
   v:val="VT4(3m.)"
   v:nameU="LengthText" />
						<v:ud
   v:val="VT0(98.425196850394):21"
   v:nameU="Length" />
						<v:ud
   v:val="VT4(0)"
   v:prompt="Linear Precision Formatting String"
   v:nameU="LPFString" />
						<v:ud
   v:val="VT0(0):26"
   v:nameU="LPrec" />
						<v:ud
   v:val="VT0(0):26"
   v:nameU="LPrecInd" />
						<v:ud
   v:val="VT4(0)"
   v:nameU="LPrecVal" />
						<v:ud
   v:val="VT0(0):26"
   v:nameU="LUnits" />
						<v:ud
   v:val="VT0(0):26"
   v:prompt="0=Dwg, 1=Arch, 2=Dec Ft, 3+ = other"
   v:nameU="LUnitsInd" />
						<v:ud
   v:val="VT4( Use Drawing Page's Units)"
   v:nameU="LUnitsVal" />
						<v:ud
   v:val="VT0(1):26"
   v:nameU="ShowUnits" />
						<v:ud
   v:val="VT0(1):26"
   v:nameU="ShowUnitsInd" />
						<v:ud
   v:val="VT4(Show Units)"
   v:nameU="ShowUnitsVal" />
						<v:ud
   v:val="VT0(0):26"
   v:nameU="FeetInch" />
						<v:ud
   v:val="VT0(0):26"
   v:nameU="Feet" />
						<v:ud
   v:val="VT0(0):26"
   v:nameU="Inch" />
						<v:ud
   v:val="VT0(16):26"
   v:nameU="InchPrec" />
						<v:ud
   v:val="VT0(98.425196850394):21"
   v:nameU="WatchLength" />
						<v:ud
   v:val="VT0(0):21"
   v:nameU="DrawingUnitFactor" />
						<v:ud
   v:val="VT0(0):5"
   v:nameU="HideArrow" />
						<v:ud
   v:val="VT0(4):26"
   v:nameU="LInchPrecInd" />
						<v:ud
   v:val="VT0(9.1681666666667):1"
   v:nameU="DirArrowSize" />
						<v:ud
   v:val="VT0(21.064151367738):1"
   v:nameU="DirArrowOffset" />
						<v:ud
   v:val="VT0(4):26"
   v:nameU="LInchPrec" />
						<v:ud
   v:val="VT4(1/16 in.)"
   v:nameU="LInchPrecVal" />
						<v:ud
   v:val="VT0(0):24"
   v:prompt=""
   v:nameU="LUnitsFactor" />
						<v:ud
   v:val="VT4(12900mm.)"
   v:prompt=""
   v:nameU="LengthText" />
						<v:ud
   v:val="VT0(507.87404244429):24"
   v:prompt=""
   v:nameU="Length" />
						<v:ud
   v:val="VT0(507.87404244429):1"
   v:prompt=""
   v:nameU="WatchLength" />
						<v:ud
   v:val="VT0(0):24"
   v:prompt=""
   v:nameU="DrawingUnitFactor" />
						<v:ud
   v:val="VT0(0.091681666666667):1"
   v:prompt=""
   v:nameU="DirArrowSize" />
						<v:ud
   v:val="VT0(0.59924014703438):1"
   v:prompt=""
   v:nameU="DirArrowOffset" />
					</v:userDefs>
					<v:textBlock
   v:margins="rect(4,0,0,0)" />
					<v:textRect
   height="22.0036"
   width="79.24"
   cy="1147.51"
   cx="39.6152" />
				</g><g
     id="3"
     class="ws"><path
       d="m 404.68499,612.51968 a 157.589,157.613 45 0 0 -15.70484,15.66242 28.1601,28.1601 0 0 0 0.10606,18.75954 l 12.38144,12.38144 a 4.03074,4.03074 0 0 1 0.81318,4.56084 l 2.07182,2.07182 a 16.1451,16.1451 0 0 0 22.83248,-0.007 l 15.22401,-15.22401 a 16.1368,16.1368 0 0 0 0,-22.82541 l -2.0789,-2.07889 a 4.04017,4.04017 0 0 1 -4.62448,-0.76367 l -12.46629,-12.4663 a 28.1592,28.1592 0 0 0 -18.55448,-0.0707 z m -7.98324,7.79939 a 57.3933,57.4021 45 0 1 14.31184,-12.33194 3.00956,3.01002 45 0 0 -0.007,-5.70635 30.7886,30.7933 45 0 0 -21.87081,10.47225 30.2025,30.2071 45 0 0 -10.47225,21.87081 3.03264,3.0331 45 0 0 5.71342,0 55.7557,55.7642 45 0 1 12.32487,-14.30477 z m 4.77297,44.71036 a 4.03857,4.03857 0 0 0 0,-5.71342 l -17.11905,-17.11906 a 4.0344,4.0344 0 0 0 -5.71342,0 4.04087,4.04087 0 0 0 -0.007,5.7205 l 17.11906,17.11905 a 4.04504,4.04504 0 0 0 5.72049,-0.007 z m 39.94447,-39.98689 a 4.02268,4.02268 0 0 0 0.0141,-5.68514 l -17.11906,-17.11905 a 4.05535,4.05535 0 0 0 -5.73463,-0.007 4.0489,4.0489 0 0 0 0.0141,5.72756 l 17.11905,17.11906 a 4.02411,4.02411 0 0 0 5.69221,-0.0212 z"
       class="st4"
       id="path137" /><path
       d="m 404.68499,612.51968 a 157.589,157.613 45 0 0 -15.70484,15.66242 28.1601,28.1601 0 0 0 0.10606,18.75954 l 12.38144,12.38144 a 4.03074,4.03074 0 0 1 0.81318,4.56084 l 2.07182,2.07182 a 16.1451,16.1451 0 0 0 22.83248,-0.007 l 15.22401,-15.22401 a 16.1368,16.1368 0 0 0 0,-22.82541 l -2.0789,-2.07889 a 4.04017,4.04017 0 0 1 -4.62448,-0.76367 l -12.46629,-12.4663 a 28.1592,28.1592 0 0 0 -18.55448,-0.0707 m -7.98324,7.79939 a 57.3933,57.4021 45 0 1 14.31184,-12.33194 3.00956,3.01002 45 0 0 -0.007,-5.70635 30.7886,30.7933 45 0 0 -21.87081,10.47225 30.2025,30.2071 45 0 0 -10.47225,21.87081 3.03264,3.0331 45 0 0 5.71342,0 55.7557,55.7642 45 0 1 12.32487,-14.30477 m 4.77297,44.71036 a 4.03857,4.03857 0 0 0 0,-5.71342 l -17.11905,-17.11906 a 4.0344,4.0344 0 0 0 -5.71342,0 4.04087,4.04087 0 0 0 -0.007,5.7205 l 17.11906,17.11905 a 4.04504,4.04504 0 0 0 5.72049,-0.007 m 39.94447,-39.98689 a 4.02268,4.02268 0 0 0 0.0141,-5.68514 L 424.31438,602.2385 a 4.05535,4.05535 0 0 0 -5.73463,-0.007 4.0489,4.0489 0 0 0 0.0141,5.72756 l 17.11905,17.11906 a 4.02411,4.02411 0 0 0 5.69221,-0.0212"
       class="st5"
       id="path139" /><path
       d="m 380.51893,740.74465 h 137.48 v -134.94 h -65.2 v 69.74 h -72.28 z"
       class="st6"
       id="path145" /><rect
       transform="scale(-1)"
       x="-517.99591"
       y="-605.24469"
       width="65.196899"
       height="57.817501"
       class="st6"
       id="rect153" /><text
       x="478.72595"
       y="583.53467"
       class="st7"
       v:langID="1033"
       id="text155"><v:paragraph
   v:horizAlign="1" /><v:tabList />3</text><rect
       transform="rotate(45)"
       x="822.11884"
       y="135.71613"
       width="38.142799"
       height="39.563301"
       class="st6"
       id="rect163" /><rect
       transform="rotate(45)"
       x="803.62531"
       y="134.56618"
       width="15.026"
       height="41.890598"
       class="st6"
       id="rect168" /><path
       d="m 466.99761,711.60873 10.39447,4.94975 19.27573,-19.27573 -4.9851,-10.35912 a 235.919,233.239 45 0 0 -24.6851,24.6851 z m 10.39447,4.94975 13.03905,13.03905 a 91.6217,90.9621 45 0 0 19.27573,-19.27574 l -13.03905,-13.03904 z m -16.00183,-10.55711 5.60736,5.60736 a 235.919,233.239 45 0 1 24.6851,-24.6851 l -5.60736,-5.60736 a 150.587,148.876 45 0 0 -24.6851,24.6851 z"
       class="st6"
       id="path173" /><rect
       transform="rotate(135)"
       x="169.74619"
       y="-817.20929"
       width="1.16363"
       height="0.28896099"
       class="st8"
       id="rect178" /><path
       d="m 479.21553,674.85247 -1.0253,1.0253 1.01823,1.01824 1.02531,-1.02531 z m -1.23036,1.23036 -1.03238,1.03238 1.01823,1.01823 1.03238,-1.03237 z m -1.23744,1.23744 -1.02531,1.0253 1.01824,1.01824 1.0253,-1.02531 z m -1.23037,1.23037 -1.03237,1.03237 1.01823,1.01824 1.03238,-1.03238 z m -7.91959,7.91959 -1.03238,1.03238 1.01824,1.01823 1.03237,-1.03237 z m -1.23744,1.23744 -1.0253,1.0253 1.01823,1.01824 1.0253,-1.02531 z m -1.23744,1.23744 -1.0253,1.0253 1.01823,1.01823 1.02531,-1.0253 z m -1.23036,1.23036 -1.03238,1.03238 1.01824,1.01823 1.03237,-1.03238 z m 15.13208,-19.21916 -1.64756,1.64756 1.01824,1.01823 1.64756,-1.64756 z m -1.85262,1.85262 -1.0253,1.0253 1.01823,1.01824 1.02531,-1.02531 z m -1.23036,1.23036 -1.03238,1.03238 1.01824,1.01823 1.03237,-1.03237 z m -1.23744,1.23744 -1.0253,1.02531 1.01823,1.01823 1.0253,-1.02531 z m -1.23037,1.23037 -1.03237,1.03237 1.01823,1.01824 1.03238,-1.03238 z m -1.23743,1.23743 -1.02531,1.02531 1.01824,1.01823 1.0253,-1.0253 z m -1.23744,1.23744 -1.0253,1.02531 1.01823,1.01823 1.0253,-1.02531 z m -1.23037,1.23037 -1.03237,1.03237 1.01823,1.01824 1.03238,-1.03238 z m -1.23743,1.23743 -1.02531,1.02531 1.01824,1.01823 1.0253,-1.0253 z m -1.23037,1.23037 -1.03237,1.03238 1.01823,1.01823 1.03238,-1.03238 z m -1.23743,1.23744 -1.02531,1.0253 1.01823,1.01823 1.02531,-1.0253 z m -1.23037,1.23036 -1.03238,1.03238 1.01824,1.01823 1.03237,-1.03237 z m -1.23744,1.23744 -1.0253,1.0253 1.01823,1.01824 1.02531,-1.02531 z m 12.29659,-14.85631 -1.02531,1.0253 1.02531,1.0253 1.0253,-1.0253 z m -1.23037,1.23036 -1.03237,1.03238 1.0253,1.0253 1.03238,-1.03237 z m -1.23743,1.23744 -1.02531,1.0253 1.02531,1.02531 1.0253,-1.02531 z m -1.23037,1.23036 -1.03237,1.03238 1.0253,1.0253 1.03238,-1.03237 z m -1.23744,1.23744 -1.0253,1.02531 1.0253,1.0253 1.02531,-1.0253 z m -1.23743,1.23744 -1.02531,1.0253 1.02531,1.02531 1.0253,-1.02531 z m -1.23037,1.23036 -1.03237,1.03238 1.0253,1.0253 1.03238,-1.03237 z m -1.23744,1.23744 -1.0253,1.0253 1.0253,1.02531 1.02531,-1.02531 z m -1.23036,1.23037 -1.03238,1.03237 1.02531,1.02531 1.03237,-1.03238 z m -1.23744,1.23743 -1.0253,1.02531 1.0253,1.0253 1.02531,-1.0253 z m -1.23036,1.23037 -1.03238,1.03237 1.02531,1.02531 1.03237,-1.03238 z m -1.23744,1.23744 -1.02531,1.0253 1.02531,1.02531 1.0253,-1.02531 z m 12.29659,-14.85632 -1.02531,1.02531 1.02531,1.0253 1.0253,-1.0253 z m -1.23037,1.23037 -1.03238,1.03237 1.02531,1.02531 1.03238,-1.03238 z m -1.23744,1.23743 -1.0253,1.02531 1.0253,1.0253 1.02531,-1.0253 z m -1.23036,1.23037 -1.03238,1.03238 1.02531,1.0253 1.03237,-1.03237 z m -1.23744,1.23744 -1.0253,1.0253 1.0253,1.02531 1.02531,-1.02531 z m -1.23744,1.23743 -1.0253,1.02531 1.0253,1.0253 1.02531,-1.0253 z m -1.23036,1.23037 -1.03238,1.03238 1.02531,1.0253 1.03237,-1.03238 z m -1.23744,1.23744 -1.0253,1.0253 1.0253,1.02531 1.02531,-1.02531 z m -1.23036,1.23036 -1.03238,1.03238 1.0253,1.0253 1.03238,-1.03237 z m -1.23744,1.23744 -1.02531,1.0253 1.02531,1.02531 1.0253,-1.02531 z m -1.23037,1.23037 -1.03237,1.03237 1.0253,1.02531 1.03238,-1.03238 z m -1.23743,1.23743 -1.02531,1.02531 1.02531,1.0253 1.0253,-1.0253 z m 12.30365,-14.84924 -1.0253,1.0253 1.01823,1.01824 1.02531,-1.02531 z m -1.23036,1.23037 -1.03238,1.03237 1.01824,1.01824 1.03237,-1.03238 z m -1.23744,1.23743 -1.0253,1.02531 1.01823,1.01823 1.02531,-1.0253 z m -1.23036,1.23037 -1.03238,1.03237 1.01823,1.01824 1.03238,-1.03238 z m -1.23744,1.23744 -1.02531,1.0253 1.01824,1.01823 1.0253,-1.0253 z m -1.23744,1.23743 -1.0253,1.02531 1.01823,1.01823 1.02531,-1.0253 z m -1.23036,1.23037 -1.03238,1.03237 1.01823,1.01824 1.03238,-1.03238 z m -1.23744,1.23743 -1.02531,1.02531 1.01824,1.01823 1.0253,-1.0253 z m -1.23037,1.23037 -1.03237,1.03238 1.01823,1.01823 1.03238,-1.03238 z m -1.23743,1.23744 -1.02531,1.0253 1.01824,1.01824 1.0253,-1.02531 z m -1.23037,1.23036 -1.03238,1.03238 1.01824,1.01823 1.03237,-1.03237 z m 8.59135,-11.15107 -8.43579,8.43578 1.02531,1.02531 8.43578,-8.43579 z m -18.71712,18.71712 -2.4678,2.4678 1.0253,1.0253 2.46781,-2.4678 z m -2.67286,2.67286 -1.03238,1.03238 1.02531,1.0253 1.03237,-1.03238 z m 1.27986,1.27986 -1.03237,1.03238 1.01823,1.01823 1.03238,-1.03237 z m 1.33643,-1.33643 -1.03237,1.03238 1.01823,1.01823 1.03238,-1.03238 z m 1.33644,-1.33643 -1.03238,1.03237 1.01823,1.01824 1.03238,-1.03238 z m 1.27279,1.27279 -1.03238,1.03238 1.02531,1.0253 1.03237,-1.03237 z m 1.27986,1.27986 -1.03238,1.03238 1.02531,1.02531 1.03238,-1.03238 z m -1.33643,1.33644 -1.03238,1.03237 1.02531,1.02531 1.03237,-1.03238 z m -1.33643,1.33643 -1.03238,1.03237 1.02531,1.02531 1.03237,-1.03238 z m -1.27987,-1.27987 -1.03237,1.03238 1.0253,1.02531 1.03238,-1.03238 z m 1.33644,-1.33643 -1.03238,1.03238 1.0253,1.0253 1.03238,-1.03237 z"
       class="st9"
       id="path183" /><path
       d="m 481.06815,672.99985 -1.0253,1.0253 1.01823,1.01824 1.02531,-1.02531 z m -3.3234,-3.3234 -1.64756,1.64755 1.02531,1.02531 1.64755,-1.64756 z m -1.27986,-1.27987 -1.64756,1.64756 1.0253,1.02531 1.64756,-1.64756 z m -1.2728,-1.27279 -1.64755,1.64756 1.01823,1.01823 1.64756,-1.64756 z m -1.27986,-1.27986 -1.64756,1.64756 1.02531,1.0253 1.64756,-1.64756 z m -1.85262,1.85262 -1.0253,1.0253 1.0253,1.02531 1.02531,-1.02531 z m -1.23036,1.23036 -1.03238,1.03238 1.0253,1.0253 1.03238,-1.03237 z m -9.87829,9.87828 -1.0253,1.02531 1.0253,1.0253 1.02531,-1.0253 z m -1.23036,1.23037 -1.03238,1.03238 1.02531,1.0253 1.03237,-1.03238 z m -1.23744,1.23744 -1.0253,1.0253 1.0253,1.02531 1.02531,-1.02531 z m -1.23037,1.23036 -1.64755,1.64756 1.0253,1.02531 1.64756,-1.64756 z m -2.26274,2.26274 -1.03237,1.03238 1.0253,1.0253 1.03238,-1.03237 z m -1.23743,1.23744 -1.02531,1.02531 1.02531,1.0253 1.0253,-1.0253 z m -1.23037,1.23037 -1.03238,1.03237 1.02531,1.02531 1.03238,-1.03238 z m -5.65685,5.65685 -1.03238,1.03238 2.2486,2.2486 1.03238,-1.03238 z m 2.45366,2.45366 -1.03238,1.03238 2.40416,2.40416 1.03238,-1.03238 z m 2.65872,2.65872 -1.03238,1.03238 1.01824,1.01823 1.03237,-1.03237 z m 1.33643,-1.33643 -1.03238,1.03238 1.01824,1.01823 1.03237,-1.03237 z m 1.33643,-1.33643 -1.03237,1.03238 1.01823,1.01823 1.03238,-1.03238 z m 1.33643,-1.33643 -1.03237,1.03237 1.01823,1.01824 1.03238,-1.03238 z m 1.64756,-1.64756 -1.03237,1.03237 1.01823,1.01824 1.03238,-1.03238 z m -1.27986,-1.27986 -1.03238,1.03237 1.02531,1.02531 1.03237,-1.03238 z m -1.32229,-3.78303 -1.02531,1.02531 1.01824,1.01823 1.0253,-1.0253 z m 4.74469,-4.7164 -2.87793,2.87793 1.02531,1.0253 2.87792,-2.87792 z m 0.0636,2.52437 -1.64756,1.64756 2.2486,2.2486 1.64756,-1.64756 z m -1.01824,3.50725 -1.03237,1.03238 1.0253,1.0253 1.03238,-1.03237 z m -1.23743,1.23744 -1.02531,1.0253 1.02531,1.02531 1.0253,-1.02531 z m 1.27986,1.27986 -1.02531,1.02531 1.01824,1.01823 1.0253,-1.0253 z m 3.50018,-3.50018 -1.64756,1.64756 1.01823,1.01824 1.64756,-1.64756 z m -7.22663,12.52994 -0.82025,0.82024 0.20506,0.20506 0.82025,-0.82024 z m 1.23743,-1.23744 -0.82731,0.82731 0.20506,0.20507 0.82731,-0.82732 z m 3.30219,-4.51841 -1.03237,1.03237 1.01823,1.01824 1.03237,-1.03238 z m 1.23037,-1.23037 -1.02531,1.02531 1.01824,1.01823 1.0253,-1.0253 z m 1.23743,-1.23744 -1.03237,1.03238 1.01823,1.01823 1.03238,-1.03237 z m 7.60847,-7.60846 -1.0253,1.0253 1.01823,1.01823 1.02531,-1.0253 z m 1.23744,-1.23744 -1.03238,1.03237 1.01824,1.01824 1.03237,-1.03238 z m 1.23037,-1.23037 -1.02531,1.02531 1.01823,1.01823 1.02531,-1.0253 z m 1.23743,-1.23743 -1.03237,1.03237 1.01823,1.01824 1.03238,-1.03238 z m -13.35724,9.27017 -1.03238,1.03237 1.01823,1.01824 1.03238,-1.03238 z"
       class="st10"
       id="path188" /></g><g
     id="1"
     class="ws"><path
       d="m 286.55988,481.55364 a 157.589,157.613 45 0 0 15.70484,-15.66242 28.1601,28.1601 0 0 0 -0.10607,-18.75954 l -12.38144,-12.38144 a 4.03074,4.03074 0 0 1 -0.81317,-4.56084 l -2.07182,-2.07182 a 16.1451,16.1451 0 0 0 -22.83248,0.007 l -15.22401,15.22401 a 16.1368,16.1368 0 0 0 0,22.82541 l 2.0789,2.07889 a 4.04017,4.04017 0 0 1 4.62447,0.76368 l 12.4663,12.46629 a 28.1592,28.1592 0 0 0 18.55448,0.0707 z m 7.98323,-7.79939 a 57.3933,57.4021 45 0 1 -14.31184,12.33194 3.00956,3.01002 45 0 0 0.007,5.70635 30.7886,30.7933 45 0 0 21.87082,-10.47225 30.2025,30.2071 45 0 0 10.47225,-21.87081 3.03264,3.0331 45 0 0 -5.71342,0 55.7557,55.7642 45 0 1 -12.32488,14.30477 z m -4.77297,-44.71036 a 4.03857,4.03857 0 0 0 0,5.71342 l 17.11906,17.11906 a 4.0344,4.0344 0 0 0 5.71342,0 4.04087,4.04087 0 0 0 0.007,-5.7205 l -17.11905,-17.11905 a 4.04504,4.04504 0 0 0 -5.7205,0.007 z m -39.94446,39.98689 a 4.02268,4.02268 0 0 0 -0.0141,5.68514 l 17.11905,17.11905 a 4.05535,4.05535 0 0 0 5.73464,0.007 4.0489,4.0489 0 0 0 -0.0141,-5.72756 l -17.11906,-17.11906 a 4.02411,4.02411 0 0 0 -5.69221,0.0212 z"
       class="st4"
       id="path331" /><path
       d="m 286.55988,481.55364 a 157.589,157.613 45 0 0 15.70484,-15.66242 28.1601,28.1601 0 0 0 -0.10607,-18.75954 l -12.38144,-12.38144 a 4.03074,4.03074 0 0 1 -0.81317,-4.56084 l -2.07182,-2.07182 a 16.1451,16.1451 0 0 0 -22.83248,0.007 l -15.22401,15.22401 a 16.1368,16.1368 0 0 0 0,22.82541 l 2.0789,2.07889 a 4.04017,4.04017 0 0 1 4.62447,0.76368 l 12.4663,12.46629 a 28.1592,28.1592 0 0 0 18.55448,0.0707 m 7.98323,-7.79939 a 57.3933,57.4021 45 0 1 -14.31184,12.33194 3.00956,3.01002 45 0 0 0.007,5.70635 30.7886,30.7933 45 0 0 21.87082,-10.47225 30.2025,30.2071 45 0 0 10.47225,-21.87081 3.03264,3.0331 45 0 0 -5.71342,0 55.7557,55.7642 45 0 1 -12.32488,14.30477 m -4.77297,-44.71036 a 4.03857,4.03857 0 0 0 0,5.71342 l 17.11906,17.11906 a 4.0344,4.0344 0 0 0 5.71342,0 4.04087,4.04087 0 0 0 0.007,-5.7205 L 295.4905,429.03674 a 4.04504,4.04504 0 0 0 -5.7205,0.007 m -39.94446,39.98689 a 4.02268,4.02268 0 0 0 -0.0141,5.68514 l 17.11905,17.11905 a 4.05535,4.05535 0 0 0 5.73464,0.007 4.0489,4.0489 0 0 0 -0.0141,-5.72756 L 255.53197,468.9952 a 4.02411,4.02411 0 0 0 -5.69221,0.0212"
       class="st5"
       id="path333" /><path
       d="m 310.71693,353.33165 h -137.48 v 134.94 h 65.2 v -69.74 h 72.28 z"
       class="st6"
       id="path339" /><rect
       transform="scale(-1)"
       x="-238.44093"
       y="-546.65472"
       width="65.196899"
       height="57.817501"
       class="st6"
       id="rect347" /><text
       x="199.17094"
       y="524.9447"
       class="st7"
       v:langID="1033"
       id="text349"><v:paragraph
   v:horizAlign="1" /><v:tabList />1</text><rect
       transform="rotate(-135)"
       x="-440.29248"
       y="-149.13443"
       width="38.142799"
       height="39.563301"
       class="st6"
       id="rect357" /><rect
       transform="rotate(-135)"
       x="-458.78598"
       y="-150.28438"
       width="15.026"
       height="41.890598"
       class="st6"
       id="rect362" /><path
       d="m 224.24223,382.47062 -10.39447,-4.94975 -19.27573,19.27573 4.98511,10.35912 a 235.919,233.239 45 0 0 24.68509,-24.6851 z m -10.39447,-4.94975 -13.03905,-13.03905 a 91.6217,90.9621 45 0 0 -19.27573,19.27573 l 13.03905,13.03905 z m 16.00183,10.55711 -5.60736,-5.60736 a 235.919,233.239 45 0 1 -24.68509,24.6851 l 5.60735,5.60735 a 150.587,148.876 45 0 0 24.6851,-24.68509 z"
       class="st6"
       id="path367" /><rect
       transform="rotate(-45)"
       x="-115.10436"
       y="445.20203"
       width="1.16363"
       height="0.28896099"
       class="st8"
       id="rect372" /><path
       d="m 212.02435,419.22695 1.02531,-1.02531 -1.01824,-1.01823 -1.0253,1.0253 z m 1.23037,-1.23037 1.03237,-1.03237 -1.01823,-1.01824 -1.03238,1.03238 z m 1.23743,-1.23744 1.02531,-1.0253 -1.01823,-1.01823 -1.02531,1.0253 z m 1.23037,-1.23036 1.03238,-1.03238 -1.01824,-1.01823 -1.03237,1.03237 z m 7.9196,-7.9196 1.03237,-1.03237 -1.01823,-1.01824 -1.03238,1.03238 z m 1.23743,-1.23743 1.02531,-1.02531 -1.01824,-1.01823 -1.0253,1.0253 z m 1.23744,-1.23744 1.02531,-1.02531 -1.01824,-1.01823 -1.0253,1.0253 z m 1.23037,-1.23037 1.03237,-1.03237 -1.01823,-1.01824 -1.03238,1.03238 z m -15.13209,19.21917 1.64756,-1.64756 -1.01823,-1.01824 -1.64756,1.64756 z m 1.85262,-1.85262 1.02531,-1.02531 -1.01824,-1.01823 -1.0253,1.0253 z m 1.23037,-1.23037 1.03237,-1.03238 -1.01823,-1.01823 -1.03238,1.03238 z m 1.23743,-1.23744 1.02531,-1.0253 -1.01824,-1.01824 -1.0253,1.02531 z m 1.23037,-1.23036 1.03238,-1.03238 -1.01824,-1.01823 -1.03237,1.03237 z m 1.23744,-1.23744 1.0253,-1.0253 -1.01823,-1.01824 -1.02531,1.02531 z m 1.23743,-1.23744 1.02531,-1.0253 -1.01824,-1.01824 -1.0253,1.02531 z m 1.23037,-1.23036 1.03237,-1.03238 -1.01823,-1.01823 -1.03238,1.03237 z m 1.23744,-1.23744 1.0253,-1.0253 -1.01823,-1.01824 -1.02531,1.02531 z m 1.23036,-1.23037 1.03238,-1.03237 -1.01824,-1.01823 -1.03237,1.03237 z m 1.23744,-1.23743 1.0253,-1.02531 -1.01823,-1.01823 -1.02531,1.0253 z m 1.23036,-1.23037 1.03238,-1.03237 -1.01823,-1.01824 -1.03238,1.03238 z m 1.23744,-1.23743 1.02531,-1.02531 -1.01824,-1.01823 -1.0253,1.0253 z m -12.29659,14.85631 1.02531,-1.02531 -1.02531,-1.0253 -1.0253,1.0253 z m 1.23037,-1.23037 1.03238,-1.03237 -1.02531,-1.02531 -1.03238,1.03238 z m 1.23744,-1.23743 1.0253,-1.02531 -1.0253,-1.0253 -1.02531,1.0253 z m 1.23036,-1.23037 1.03238,-1.03238 -1.02531,-1.0253 -1.03237,1.03238 z m 1.23744,-1.23744 1.0253,-1.0253 -1.0253,-1.02531 -1.02531,1.02531 z m 1.23744,-1.23743 1.0253,-1.02531 -1.0253,-1.0253 -1.02531,1.0253 z m 1.23036,-1.23037 1.03238,-1.03238 -1.02531,-1.0253 -1.03237,1.03238 z m 1.23744,-1.23744 1.0253,-1.0253 -1.0253,-1.02531 -1.02531,1.02531 z m 1.23036,-1.23036 1.03238,-1.03238 -1.0253,-1.0253 -1.03238,1.03237 z m 1.23744,-1.23744 1.02531,-1.0253 -1.02531,-1.02531 -1.0253,1.02531 z m 1.23037,-1.23036 1.03237,-1.03238 -1.0253,-1.02531 -1.03238,1.03238 z m 1.23743,-1.23744 1.02531,-1.02531 -1.02531,-1.0253 -1.0253,1.0253 z m -12.29658,14.85631 1.0253,-1.0253 -1.0253,-1.02531 -1.02531,1.02531 z m 1.23036,-1.23036 1.03238,-1.03238 -1.02531,-1.0253 -1.03237,1.03237 z m 1.23744,-1.23744 1.0253,-1.02531 -1.0253,-1.0253 -1.0253,1.0253 z m 1.23037,-1.23037 1.03237,-1.03237 -1.0253,-1.02531 -1.03238,1.03238 z m 1.23743,-1.23743 1.02531,-1.02531 -1.02531,-1.0253 -1.0253,1.0253 z m 1.23744,-1.23744 1.0253,-1.02531 -1.0253,-1.0253 -1.02531,1.0253 z m 1.23037,-1.23037 1.03237,-1.03237 -1.0253,-1.02531 -1.03238,1.03238 z m 1.23743,-1.23743 1.02531,-1.02531 -1.02531,-1.0253 -1.0253,1.0253 z m 1.23037,-1.23037 1.03237,-1.03237 -1.0253,-1.02531 -1.03238,1.03238 z m 1.23743,-1.23744 1.02531,-1.0253 -1.02531,-1.02531 -1.0253,1.02531 z m 1.23037,-1.23036 1.03238,-1.03238 -1.02531,-1.0253 -1.03237,1.03237 z m 1.23744,-1.23744 1.0253,-1.0253 -1.0253,-1.02531 -1.02531,1.02531 z m -12.30366,14.84924 1.0253,-1.0253 -1.01823,-1.01823 -1.0253,1.0253 z m 1.23037,-1.23036 1.03237,-1.03238 -1.01823,-1.01823 -1.03238,1.03237 z m 1.23743,-1.23744 1.02531,-1.0253 -1.01824,-1.01824 -1.0253,1.02531 z m 1.23037,-1.23036 1.03237,-1.03238 -1.01823,-1.01823 -1.03238,1.03237 z m 1.23743,-1.23744 1.02531,-1.02531 -1.01823,-1.01823 -1.02531,1.02531 z m 1.23744,-1.23744 1.02531,-1.0253 -1.01824,-1.01824 -1.0253,1.02531 z m 1.23037,-1.23036 1.03237,-1.03238 -1.01823,-1.01823 -1.03238,1.03237 z m 1.23743,-1.23744 1.02531,-1.02531 -1.01823,-1.01823 -1.02531,1.02531 z m 1.23037,-1.23037 1.03238,-1.03237 -1.01824,-1.01824 -1.03237,1.03238 z m 1.23744,-1.23743 1.0253,-1.02531 -1.01823,-1.01823 -1.02531,1.0253 z m 1.23036,-1.23037 1.03238,-1.03238 -1.01824,-1.01823 -1.03237,1.03238 z m -8.59134,11.15107 8.43578,-8.43578 -1.02531,-1.0253 -8.43578,8.43578 z m 18.71711,-18.71711 2.4678,-2.4678 -1.0253,-1.02531 -2.4678,2.4678 z m 2.67287,-2.67287 1.03237,-1.03237 -1.0253,-1.02531 -1.03238,1.03238 z m -1.27987,-1.27986 1.03238,-1.03237 -1.01824,-1.01824 -1.03237,1.03238 z m -1.33643,1.33643 1.03238,-1.03237 -1.01824,-1.01824 -1.03237,1.03238 z m -1.33643,1.33644 1.03237,-1.03238 -1.01823,-1.01823 -1.03238,1.03237 z m -1.27279,-1.2728 1.03237,-1.03237 -1.0253,-1.02531 -1.03238,1.03238 z m -1.27987,-1.27986 1.03238,-1.03238 -1.02531,-1.0253 -1.03237,1.03237 z m 1.33643,-1.33643 1.03238,-1.03238 -1.0253,-1.0253 -1.03238,1.03237 z m 1.33644,-1.33643 1.03237,-1.03238 -1.0253,-1.0253 -1.03238,1.03237 z m 1.27986,1.27986 1.03238,-1.03238 -1.02531,-1.0253 -1.03237,1.03237 z m -1.33643,1.33643 1.03237,-1.03237 -1.0253,-1.02531 -1.03238,1.03238 z"
       class="st9"
       id="path377" /><path
       d="m 210.17173,421.07957 1.02531,-1.02531 -1.01824,-1.01823 -1.0253,1.0253 z m 3.3234,3.3234 1.64756,-1.64756 -1.0253,-1.02531 -1.64756,1.64756 z m 1.27987,1.27986 1.64756,-1.64756 -1.02531,-1.0253 -1.64756,1.64756 z m 1.27279,1.27279 1.64756,-1.64755 -1.01824,-1.01824 -1.64755,1.64756 z m 1.27986,1.27987 1.64756,-1.64756 -1.0253,-1.02531 -1.64756,1.64756 z m 1.85262,-1.85262 1.02531,-1.02531 -1.02531,-1.0253 -1.0253,1.0253 z m 1.23037,-1.23037 1.03237,-1.03237 -1.0253,-1.02531 -1.03238,1.03238 z m 9.87828,-9.87828 1.02531,-1.0253 -1.02531,-1.02531 -1.0253,1.02531 z m 1.23037,-1.23037 1.03237,-1.03237 -1.0253,-1.02531 -1.03238,1.03238 z m 1.23743,-1.23743 1.02531,-1.02531 -1.02531,-1.0253 -1.0253,1.0253 z m 1.23037,-1.23037 1.64756,-1.64756 -1.02531,-1.0253 -1.64756,1.64756 z m 2.26274,-2.26274 1.03238,-1.03238 -1.02531,-1.0253 -1.03237,1.03237 z m 1.23744,-1.23744 1.0253,-1.0253 -1.0253,-1.02531 -1.02531,1.02531 z m 1.23036,-1.23036 1.03238,-1.03238 -1.02531,-1.0253 -1.03237,1.03237 z m 5.65686,-5.65686 1.03237,-1.03237 -2.2486,-2.2486 -1.03237,1.03237 z m -2.45366,-2.45366 1.03237,-1.03237 -2.40416,-2.40417 -1.03238,1.03238 z m -2.65872,-2.65872 1.03237,-1.03238 -1.01823,-1.01823 -1.03238,1.03238 z m -1.33644,1.33643 1.03238,-1.03237 -1.01823,-1.01824 -1.03238,1.03238 z m -1.33643,1.33643 1.03238,-1.03237 -1.01824,-1.01824 -1.03237,1.03238 z m -1.33643,1.33644 1.03238,-1.03238 -1.01824,-1.01823 -1.03237,1.03237 z m -1.64756,1.64756 1.03238,-1.03238 -1.01824,-1.01823 -1.03237,1.03237 z m 1.27986,1.27986 1.03238,-1.03238 -1.0253,-1.0253 -1.03238,1.03237 z m 1.32229,3.78302 1.02531,-1.02531 -1.01823,-1.01823 -1.02531,1.02531 z m -4.74468,4.7164 2.87792,-2.87792 -1.0253,-1.02531 -2.87793,2.87793 z m -0.0636,-2.52437 1.64756,-1.64756 -2.2486,-2.2486 -1.64756,1.64756 z m 1.01823,-3.50725 1.03238,-1.03237 -1.02531,-1.02531 -1.03237,1.03238 z m 1.23744,-1.23744 1.0253,-1.0253 -1.0253,-1.02531 -1.02531,1.02531 z m -1.27986,-1.27986 1.0253,-1.0253 -1.01823,-1.01824 -1.02531,1.02531 z m -3.50018,3.50018 1.64756,-1.64756 -1.01824,-1.01823 -1.64756,1.64756 z m 7.22663,-12.52993 0.82024,-0.82025 -0.20506,-0.20506 -0.82024,0.82025 z m -1.23744,1.23743 0.82732,-0.82731 -0.20506,-0.20506 -0.82732,0.82731 z m -3.30219,4.51842 1.03238,-1.03238 -1.01824,-1.01823 -1.03237,1.03237 z m -1.23036,1.23036 1.0253,-1.0253 -1.01823,-1.01824 -1.02531,1.02531 z m -1.23744,1.23744 1.03238,-1.03238 -1.01824,-1.01823 -1.03237,1.03238 z m -7.60847,7.60847 1.02531,-1.02531 -1.01824,-1.01823 -1.0253,1.0253 z m -1.23744,1.23743 1.03238,-1.03237 -1.01823,-1.01823 -1.03238,1.03237 z m -1.23036,1.23037 1.0253,-1.0253 -1.01823,-1.01824 -1.02531,1.02531 z m -1.23744,1.23744 1.03238,-1.03238 -1.01824,-1.01823 -1.03237,1.03237 z m 13.35725,-9.27017 1.03237,-1.03238 -1.01823,-1.01823 -1.03238,1.03237 z"
       class="st10"
       id="path382" /></g><g
     id="g1450"
     class="wp"><rect
       transform="rotate(-179.835)"
       x="-521.55127"
       y="-746.33057"
       width="137.48199"
       height="5.6692901"
       class="st6"
       id="rect197" /><rect
       transform="rotate(-90)"
       x="-742.16162"
       y="519.41589"
       width="134.938"
       height="5.6692901"
       class="st6"
       id="rect206" /><rect
       transform="rotate(-90)"
       x="-607.22363"
       y="519.41589"
       width="57.817501"
       height="5.6692901"
       class="st6"
       id="rect215" /><rect
       transform="matrix(-0.99999584,0.00288461,0.00288461,0.99999584,0,0)"
       x="-518.40222"
       y="348.52066"
       width="137.48199"
       height="5.6692901"
       class="st6"
       id="rect283" /><rect
       transform="matrix(0,1,1,0,0,0)"
       x="352.69064"
       y="519.41589"
       width="134.938"
       height="5.6692901"
       class="st6"
       id="rect292" /><rect
       transform="matrix(0,1,1,0,0,0)"
       x="487.62866"
       y="519.41589"
       width="57.817501"
       height="5.6692901"
       class="st6"
       id="rect301" /><rect
       transform="rotate(0.165276)"
       x="172.83253"
       y="345.7507"
       width="137.48199"
       height="5.6692901"
       class="st6"
       id="rect391" /><rect
       transform="rotate(90)"
       x="351.91464"
       y="-171.82697"
       width="134.938"
       height="5.6692901"
       class="st6"
       id="rect400" /><rect
       transform="rotate(90)"
       x="486.85364"
       y="-171.82697"
       width="57.817501"
       height="5.6692901"
       class="st6"
       id="rect409" /></g><g
     id="4"
     class="ws"><path
       d="m 287.77488,614.82067 a 157.613,157.589 45 0 1 15.70484,15.66242 28.1601,28.1601 0 0 1 -0.10606,18.75954 l -12.38144,12.38144 a 4.03074,4.03074 0 0 0 -0.81318,4.56084 l -2.07182,2.07182 a 16.1451,16.1451 0 0 1 -22.83248,-0.007 l -15.22401,-15.22401 a 16.1368,16.1368 0 0 1 0,-22.82541 l 2.0789,-2.07889 a 4.04017,4.04017 0 0 0 4.62448,-0.76368 l 12.46629,-12.46629 a 28.1592,28.1592 0 0 1 18.55448,-0.0707 z m 7.98324,7.79939 a 57.4021,57.3933 45 0 0 -14.31184,-12.33194 3.01002,3.00956 45 0 1 0.007,-5.70636 30.7933,30.7886 45 0 1 21.87081,10.47226 30.2071,30.2025 45 0 1 10.47225,21.87081 3.0331,3.03264 45 0 1 -5.71342,0 55.7642,55.7557 45 0 0 -12.32487,-14.30477 z m -4.77297,44.71036 a 4.03857,4.03857 0 0 1 0,-5.71342 l 17.11905,-17.11906 a 4.0344,4.0344 0 0 1 5.71342,0 4.04087,4.04087 0 0 1 0.007,5.7205 l -17.11905,17.11905 a 4.04504,4.04504 0 0 1 -5.72049,-0.007 z m -39.94447,-39.98689 a 4.02268,4.02268 0 0 1 -0.0141,-5.68514 l 17.11906,-17.11905 a 4.05535,4.05535 0 0 1 5.73463,-0.007 4.0489,4.0489 0 0 1 -0.0141,5.72756 l -17.11905,17.11906 a 4.02411,4.02411 0 0 1 -5.69221,-0.0212 z"
       class="st4"
       id="path439" /><path
       d="m 287.77488,614.82067 a 157.613,157.589 45 0 1 15.70484,15.66242 28.1601,28.1601 0 0 1 -0.10606,18.75954 l -12.38144,12.38144 a 4.03074,4.03074 0 0 0 -0.81318,4.56084 l -2.07182,2.07182 a 16.1451,16.1451 0 0 1 -22.83248,-0.007 l -15.22401,-15.22401 a 16.1368,16.1368 0 0 1 0,-22.82541 l 2.0789,-2.07889 a 4.04017,4.04017 0 0 0 4.62448,-0.76368 l 12.46629,-12.46629 a 28.1592,28.1592 0 0 1 18.55448,-0.0707 m 7.98324,7.79939 a 57.4021,57.3933 45 0 0 -14.31184,-12.33194 3.01002,3.00956 45 0 1 0.007,-5.70636 30.7933,30.7886 45 0 1 21.87081,10.47226 30.2071,30.2025 45 0 1 10.47225,21.87081 3.0331,3.03264 45 0 1 -5.71342,0 55.7642,55.7557 45 0 0 -12.32487,-14.30477 m -4.77297,44.71036 a 4.03857,4.03857 0 0 1 0,-5.71342 l 17.11905,-17.11906 a 4.0344,4.0344 0 0 1 5.71342,0 4.04087,4.04087 0 0 1 0.007,5.7205 l -17.11905,17.11905 a 4.04504,4.04504 0 0 1 -5.72049,-0.007 m -39.94447,-39.98689 a 4.02268,4.02268 0 0 1 -0.0141,-5.68514 l 17.11906,-17.11905 a 4.05535,4.05535 0 0 1 5.73463,-0.007 4.0489,4.0489 0 0 1 -0.0141,5.72756 l -17.11905,17.11906 a 4.02411,4.02411 0 0 1 -5.69221,-0.0212"
       class="st5"
       id="path441" /><path
       d="m 311.9369,743.04565 h -137.48 v -134.94 h 65.2 v 69.74 h 72.28 z"
       class="st6"
       id="path447" /><rect
       transform="scale(1,-1)"
       x="174.45892"
       y="-607.54474"
       width="65.196899"
       height="57.817501"
       class="st6"
       id="rect455" /><text
       x="200.37894"
       y="585.83466"
       class="st7"
       v:langID="1033"
       id="text457"><v:paragraph
   v:horizAlign="1" /><v:tabList />4</text><rect
       transform="matrix(-0.70710678,0.70710678,0.70710678,0.70710678,0,0)"
       x="334.10214"
       y="626.98553"
       width="38.142799"
       height="39.563301"
       class="st6"
       id="rect465" /><rect
       transform="matrix(-0.70710678,0.70710678,0.70710678,0.70710678,0,0)"
       x="315.60864"
       y="625.83563"
       width="15.026"
       height="41.890598"
       class="st6"
       id="rect470" /><path
       d="m 225.46226,713.90876 -10.39447,4.94975 -19.27573,-19.27573 4.9851,-10.35911 a 233.239,235.919 45 0 1 24.6851,24.68509 z m -10.39447,4.94975 -13.03905,13.03905 a 90.9621,91.6217 45 0 1 -19.27573,-19.27573 l 13.03905,-13.03905 z m 16.00182,-10.5571 -5.60735,5.60735 a 233.239,235.919 45 0 0 -24.6851,-24.68509 l 5.60736,-5.60736 a 148.876,150.587 45 0 1 24.68509,24.6851 z"
       class="st6"
       id="path475" /><rect
       transform="matrix(0.70710678,0.70710678,0.70710678,-0.70710678,0,0)"
       x="661.01562"
       y="-329.19257"
       width="1.16363"
       height="0.28896099"
       class="st8"
       id="rect480" /><path
       d="m 213.24436,677.15246 1.02531,1.02531 -1.01823,1.01823 -1.02531,-1.0253 z m 1.23037,1.23037 1.03238,1.03238 -1.01824,1.01823 -1.03237,-1.03238 z m 1.23744,1.23744 1.0253,1.0253 -1.01823,1.01824 -1.02531,-1.02531 z m 1.23036,1.23036 1.03238,1.03238 -1.01823,1.01823 -1.03238,-1.03237 z m 7.9196,7.9196 1.03238,1.03237 -1.01824,1.01824 -1.03237,-1.03238 z m 1.23744,1.23744 1.0253,1.0253 -1.01823,1.01823 -1.02531,-1.0253 z m 1.23743,1.23743 1.02531,1.02531 -1.01824,1.01823 -1.0253,-1.0253 z m 1.23037,1.23037 1.03237,1.03237 -1.01823,1.01824 -1.03237,-1.03238 z m -15.13209,-19.21916 1.64756,1.64756 -1.01823,1.01823 -1.64756,-1.64756 z m 1.85262,1.85262 1.02531,1.0253 -1.01824,1.01823 -1.0253,-1.0253 z m 1.23037,1.23036 1.03238,1.03238 -1.01824,1.01823 -1.03237,-1.03237 z m 1.23744,1.23744 1.0253,1.0253 -1.01823,1.01824 -1.02531,-1.02531 z m 1.23036,1.23036 1.03238,1.03238 -1.01824,1.01823 -1.03237,-1.03237 z m 1.23744,1.23744 1.0253,1.02531 -1.01823,1.01823 -1.0253,-1.0253 z m 1.23744,1.23744 1.0253,1.0253 -1.01823,1.01824 -1.02531,-1.02531 z m 1.23036,1.23036 1.03238,1.03238 -1.01824,1.01823 -1.03237,-1.03237 z m 1.23744,1.23744 1.0253,1.02531 -1.01823,1.01823 -1.02531,-1.02531 z m 1.23036,1.23037 1.03238,1.03237 -1.01823,1.01824 -1.03238,-1.03238 z m 1.23744,1.23743 1.02531,1.02531 -1.01824,1.01823 -1.0253,-1.0253 z m 1.23037,1.23037 1.03237,1.03238 -1.01823,1.01823 -1.03238,-1.03238 z m 1.23743,1.23744 1.02531,1.0253 -1.01824,1.01823 -1.0253,-1.0253 z m -12.29658,-14.85632 1.0253,1.02531 -1.0253,1.0253 -1.02531,-1.0253 z m 1.23036,1.23037 1.03238,1.03237 -1.02531,1.02531 -1.03237,-1.03238 z m 1.23744,1.23744 1.0253,1.0253 -1.0253,1.02531 -1.02531,-1.02531 z m 1.23037,1.23036 1.03237,1.03238 -1.0253,1.0253 -1.03238,-1.03237 z m 1.23743,1.23744 1.02531,1.0253 -1.02531,1.02531 -1.0253,-1.02531 z m 1.23744,1.23744 1.0253,1.0253 -1.0253,1.0253 -1.02531,-1.0253 z m 1.23036,1.23036 1.03238,1.03238 -1.0253,1.0253 -1.03238,-1.03237 z m 1.23744,1.23744 1.02531,1.0253 -1.02531,1.02531 -1.0253,-1.02531 z m 1.23037,1.23036 1.03237,1.03238 -1.0253,1.0253 -1.03238,-1.03237 z m 1.23743,1.23744 1.02531,1.02531 -1.02531,1.0253 -1.0253,-1.0253 z m 1.23037,1.23037 1.03238,1.03237 -1.02531,1.02531 -1.03237,-1.03238 z m 1.23744,1.23743 1.0253,1.02531 -1.0253,1.0253 -1.02531,-1.0253 z m -12.29659,-14.85631 1.0253,1.0253 -1.0253,1.02531 -1.0253,-1.02531 z m 1.23037,1.23037 1.03237,1.03237 -1.0253,1.02531 -1.03238,-1.03238 z m 1.23743,1.23743 1.02531,1.02531 -1.02531,1.0253 -1.0253,-1.0253 z m 1.23037,1.23037 1.03237,1.03237 -1.0253,1.02531 -1.03238,-1.03238 z m 1.23744,1.23743 1.0253,1.02531 -1.0253,1.0253 -1.02531,-1.0253 z m 1.23743,1.23744 1.02531,1.02531 -1.02531,1.0253 -1.0253,-1.0253 z m 1.23037,1.23037 1.03237,1.03237 -1.0253,1.02531 -1.03238,-1.03238 z m 1.23743,1.23743 1.02531,1.02531 -1.02531,1.0253 -1.0253,-1.0253 z m 1.23037,1.23037 1.03238,1.03238 -1.02531,1.0253 -1.03237,-1.03237 z m 1.23744,1.23744 1.0253,1.0253 -1.0253,1.02531 -1.02531,-1.02531 z m 1.23036,1.23036 1.03238,1.03238 -1.02531,1.0253 -1.03237,-1.03237 z m 1.23744,1.23744 1.0253,1.0253 -1.0253,1.02531 -1.0253,-1.02531 z m -12.30366,-14.84924 1.02531,1.0253 -1.01824,1.01824 -1.0253,-1.02531 z m 1.23037,1.23036 1.03237,1.03238 -1.01823,1.01823 -1.03238,-1.03237 z m 1.23743,1.23744 1.02531,1.0253 -1.01823,1.01824 -1.02531,-1.02531 z m 1.23037,1.23037 1.03238,1.03237 -1.01824,1.01824 -1.03237,-1.03238 z m 1.23744,1.23743 1.0253,1.02531 -1.01823,1.01823 -1.02531,-1.0253 z m 1.23743,1.23744 1.02531,1.0253 -1.01823,1.01824 -1.02531,-1.02531 z m 1.23037,1.23037 1.03238,1.03237 -1.01824,1.01823 -1.03237,-1.03237 z m 1.23744,1.23743 1.0253,1.02531 -1.01823,1.01823 -1.02531,-1.0253 z m 1.23036,1.23037 1.03238,1.03237 -1.01824,1.01824 -1.03237,-1.03238 z m 1.23744,1.23743 1.0253,1.02531 -1.01823,1.01823 -1.0253,-1.0253 z m 1.23037,1.23037 1.03237,1.03238 -1.01823,1.01823 -1.03238,-1.03238 z m -8.59135,-11.15107 8.43578,8.43578 -1.0253,1.02531 -8.43579,-8.43579 z m 18.71711,18.71711 2.46781,2.46781 -1.02531,1.0253 -2.4678,-2.4678 z m 2.67287,2.67287 1.03237,1.03237 -1.0253,1.02531 -1.03238,-1.03238 z m -1.27987,1.27986 1.03238,1.03238 -1.01823,1.01823 -1.03238,-1.03238 z m -1.33643,-1.33643 1.03238,1.03237 -1.01823,1.01824 -1.03238,-1.03238 z m -1.33643,-1.33643 1.03238,1.03237 -1.01824,1.01824 -1.03237,-1.03238 z m -1.27279,1.27279 1.03238,1.03237 -1.02531,1.02531 -1.03238,-1.03238 z m -1.27986,1.27986 1.03237,1.03238 -1.0253,1.0253 -1.03238,-1.03237 z m 1.33643,1.33643 1.03237,1.03238 -1.0253,1.0253 -1.03238,-1.03237 z m 1.33643,1.33644 1.03238,1.03237 -1.02531,1.02531 -1.03238,-1.03238 z m 1.27986,-1.27987 1.03238,1.03238 -1.02531,1.0253 -1.03237,-1.03237 z m -1.33643,-1.33643 1.03238,1.03238 -1.02531,1.0253 -1.03237,-1.03237 z"
       class="st9"
       id="path485" /><path
       d="m 211.39175,675.29984 1.0253,1.02531 -1.01823,1.01823 -1.02531,-1.0253 z m 3.3234,-3.3234 1.64756,1.64756 -1.02531,1.02531 -1.64756,-1.64756 z m 1.27986,-1.27986 1.64756,1.64756 -1.02531,1.0253 -1.64755,-1.64756 z m 1.27279,-1.27279 1.64756,1.64756 -1.01823,1.01823 -1.64756,-1.64756 z m 1.27987,-1.27987 1.64755,1.64756 -1.0253,1.02531 -1.64756,-1.64756 z m 1.85262,1.85262 1.0253,1.02531 -1.0253,1.0253 -1.02531,-1.0253 z m 1.23036,1.23037 1.03238,1.03238 -1.02531,1.0253 -1.03237,-1.03238 z m 9.87828,9.87828 1.02531,1.02531 -1.02531,1.0253 -1.0253,-1.0253 z m 1.23037,1.23037 1.03237,1.03237 -1.0253,1.02531 -1.03238,-1.03238 z m 1.23744,1.23743 1.0253,1.02531 -1.0253,1.0253 -1.02531,-1.0253 z m 1.23036,1.23037 1.64756,1.64756 -1.0253,1.0253 -1.64756,-1.64756 z m 2.26274,2.26274 1.03238,1.03238 -1.02531,1.0253 -1.03237,-1.03237 z m 1.23744,1.23744 1.0253,1.0253 -1.0253,1.02531 -1.0253,-1.02531 z m 1.23037,1.23036 1.03237,1.03238 -1.0253,1.02531 -1.03238,-1.03238 z m 5.65685,5.65686 1.03238,1.03237 -2.2486,2.2486 -1.03238,-1.03237 z m -2.45366,2.45366 1.03238,1.03238 -2.40417,2.40416 -1.03237,-1.03238 z m -2.65872,2.65872 1.03237,1.03238 -1.01823,1.01823 -1.03238,-1.03238 z m -1.33643,-1.33643 1.03237,1.03237 -1.01823,1.01824 -1.03238,-1.03238 z m -1.33644,-1.33643 1.03238,1.03237 -1.01823,1.01824 -1.03238,-1.03238 z m -1.33643,-1.33643 1.03238,1.03237 -1.01824,1.01823 -1.03237,-1.03237 z m -1.64756,-1.64756 1.03238,1.03237 -1.01823,1.01824 -1.03238,-1.03238 z m 1.27987,-1.27987 1.03237,1.03238 -1.0253,1.0253 -1.03238,-1.03237 z m 1.32229,-3.78302 1.0253,1.02531 -1.01823,1.01823 -1.02531,-1.0253 z m -4.74469,-4.7164 2.87792,2.87792 -1.0253,1.02531 -2.87792,-2.87793 z m -0.0636,2.52437 1.64756,1.64756 -2.2486,2.2486 -1.64756,-1.64756 z m 1.01823,3.50725 1.03238,1.03238 -1.0253,1.0253 -1.03238,-1.03237 z m 1.23744,1.23744 1.02531,1.0253 -1.02531,1.02531 -1.0253,-1.02531 z m -1.27986,1.27986 1.0253,1.02531 -1.01823,1.01823 -1.02531,-1.02531 z m -3.50018,-3.50018 1.64756,1.64756 -1.01824,1.01823 -1.64755,-1.64755 z m 7.22663,12.52993 0.82024,0.82025 -0.20506,0.20506 -0.82024,-0.82024 z m -1.23744,-1.23743 0.82732,0.82731 -0.20506,0.20506 -0.82732,-0.82731 z m -3.30218,-4.51841 1.03237,1.03237 -1.01823,1.01823 -1.03238,-1.03237 z m -1.23037,-1.23037 1.0253,1.0253 -1.01823,1.01824 -1.0253,-1.02531 z m -1.23744,-1.23744 1.03238,1.03238 -1.01824,1.01823 -1.03237,-1.03237 z m -7.60847,-7.60847 1.02531,1.02531 -1.01824,1.01823 -1.0253,-1.0253 z m -1.23743,-1.23743 1.03237,1.03237 -1.01823,1.01824 -1.03238,-1.03238 z m -1.23037,-1.23037 1.02531,1.02531 -1.01824,1.01823 -1.0253,-1.02531 z m -1.23744,-1.23744 1.03238,1.03238 -1.01823,1.01823 -1.03238,-1.03237 z m 13.35725,9.27017 1.03238,1.03238 -1.01824,1.01823 -1.03237,-1.03237 z"
       class="st10"
       id="path490" /></g><g
     id="2"
     class="ws"><g
       id="shape971-24"
       v:mID="971"
       v:groupContext="shape"
       v:layerMember="0;1"
       transform="rotate(135,436.67956,860.55639)">
					<title
   id="title51">Sheet.971</title>
					<v:userDefs>
						<v:ud
   v:nameU="WallCap"
   v:prompt="Shape Identifier" />
					</v:userDefs>
					<rect
   x="0"
   y="1158.08"
   width="6.0131898"
   height="0.42519701"
   class="st2"
   id="rect53" />
				</g><g
       id="shape977-38"
       v:mID="977"
       v:groupContext="shape"
       v:layerMember="0;1"
       transform="rotate(-45,-716.30931,111.54176)">
					<title
   id="title77">Sheet.977</title>
					<v:userDefs>
						<v:ud
   v:nameU="WallCap"
   v:prompt="Shape Identifier" />
					</v:userDefs>
					<rect
   x="0"
   y="1158.08"
   width="6.0131898"
   height="0.42519701"
   class="st2"
   id="rect79" />
				</g><path
       d="m 404.68495,482.33368 a 157.613,157.589 45 0 1 -15.70484,-15.66242 28.1601,28.1601 0 0 1 0.10606,-18.75954 l 12.38144,-12.38144 a 4.03074,4.03074 0 0 0 0.81318,-4.56084 l 2.07182,-2.07182 a 16.1451,16.1451 0 0 1 22.83248,0.007 l 15.22401,15.22401 a 16.1368,16.1368 0 0 1 0,22.82541 l -2.0789,2.07889 a 4.04017,4.04017 0 0 0 -4.62448,0.76368 l -12.46629,12.46629 a 28.1592,28.1592 0 0 1 -18.55448,0.0707 z m -7.98324,-7.79939 a 57.4021,57.3933 45 0 0 14.31184,12.33194 3.01002,3.00956 45 0 1 -0.007,5.70636 30.7933,30.7886 45 0 1 -21.87081,-10.47226 30.2071,30.2025 45 0 1 -10.47225,-21.87081 3.0331,3.03264 45 0 1 5.71342,0 55.7642,55.7557 45 0 0 12.32487,14.30477 z m 4.77297,-44.71036 a 4.03857,4.03857 0 0 1 0,5.71342 l -17.11905,17.11906 a 4.0344,4.0344 0 0 1 -5.71342,0 4.04087,4.04087 0 0 1 -0.007,-5.7205 l 17.11905,-17.11905 a 4.04504,4.04504 0 0 1 5.72049,0.007 z m 39.94447,39.98689 a 4.02268,4.02268 0 0 1 0.0141,5.68514 l -17.11906,17.11905 a 4.05535,4.05535 0 0 1 -5.73463,0.007 4.0489,4.0489 0 0 1 0.0141,-5.72756 l 17.11905,-17.11906 a 4.02411,4.02411 0 0 1 5.69221,0.0212 z"
       class="st4"
       id="path223" /><path
       d="m 404.68495,482.33368 a 157.613,157.589 45 0 1 -15.70484,-15.66242 28.1601,28.1601 0 0 1 0.10606,-18.75954 l 12.38144,-12.38144 a 4.03074,4.03074 0 0 0 0.81318,-4.56084 l 2.07182,-2.07182 a 16.1451,16.1451 0 0 1 22.83248,0.007 l 15.22401,15.22401 a 16.1368,16.1368 0 0 1 0,22.82541 l -2.0789,2.07889 a 4.04017,4.04017 0 0 0 -4.62448,0.76368 l -12.46629,12.46629 a 28.1592,28.1592 0 0 1 -18.55448,0.0707 m -7.98324,-7.79939 a 57.4021,57.3933 45 0 0 14.31184,12.33194 3.01002,3.00956 45 0 1 -0.007,5.70636 30.7933,30.7886 45 0 1 -21.87081,-10.47226 30.2071,30.2025 45 0 1 -10.47225,-21.87081 3.0331,3.03264 45 0 1 5.71342,0 55.7642,55.7557 45 0 0 12.32487,14.30477 m 4.77297,-44.71036 a 4.03857,4.03857 0 0 1 0,5.71342 l -17.11905,17.11906 a 4.0344,4.0344 0 0 1 -5.71342,0 4.04087,4.04087 0 0 1 -0.007,-5.7205 l 17.11905,-17.11905 a 4.04504,4.04504 0 0 1 5.72049,0.007 m 39.94447,39.98689 a 4.02268,4.02268 0 0 1 0.0141,5.68514 l -17.11906,17.11905 a 4.05535,4.05535 0 0 1 -5.73463,0.007 4.0489,4.0489 0 0 1 0.0141,-5.72756 l 17.11905,-17.11906 a 4.02411,4.02411 0 0 1 5.69221,0.0212"
       class="st5"
       id="path225" /><path
       d="m 380.51893,354.10765 h 137.48 v 134.94 h -65.2 v -69.74 h -72.28 z"
       class="st6"
       id="path231" /><rect
       transform="scale(1,-1)"
       x="452.79892"
       y="-547.42474"
       width="65.196899"
       height="57.817501"
       class="st6"
       id="rect239" /><text
       x="478.71893"
       y="525.71466"
       class="st7"
       v:langID="1033"
       id="text241"><v:paragraph
   v:horizAlign="1" /><v:tabList />2</text><rect
       transform="matrix(0.70710678,-0.70710678,-0.70710678,-0.70710678,0,0)"
       x="47.93993"
       y="-638.46271"
       width="38.142799"
       height="39.563301"
       class="st6"
       id="rect249" /><rect
       transform="matrix(0.70710678,-0.70710678,-0.70710678,-0.70710678,0,0)"
       x="29.446402"
       y="-639.61273"
       width="15.026"
       height="41.890598"
       class="st6"
       id="rect254" /><path
       d="m 466.99757,383.24558 10.39447,-4.94975 19.27573,19.27573 -4.9851,10.35911 a 233.239,235.919 45 0 1 -24.6851,-24.68509 z m 10.39447,-4.94975 13.03905,-13.03905 a 90.9621,91.6217 45 0 1 19.27573,19.27573 l -13.03905,13.03905 z m -16.00182,10.5571 5.60735,-5.60735 a 233.239,235.919 45 0 0 24.6851,24.68509 l -5.60736,5.60736 a 148.876,150.587 45 0 1 -24.68509,-24.6851 z"
       class="st6"
       id="path259" /><rect
       transform="matrix(-0.70710678,-0.70710678,-0.70710678,0.70710678,0,0)"
       x="-604.43268"
       y="-43.030334"
       width="1.16363"
       height="0.28896099"
       class="st8"
       id="rect264" /><path
       d="m 479.21553,420.00192 -1.02531,-1.02531 1.01823,-1.01823 1.02531,1.0253 z m -1.23037,-1.23037 -1.03238,-1.03238 1.01824,-1.01823 1.03237,1.03238 z m -1.23744,-1.23744 -1.0253,-1.0253 1.01823,-1.01824 1.02531,1.02531 z m -1.23036,-1.23036 -1.03238,-1.03238 1.01823,-1.01823 1.03238,1.03237 z m -7.9196,-7.9196 -1.03238,-1.03237 1.01824,-1.01824 1.03237,1.03238 z m -1.23744,-1.23744 -1.0253,-1.0253 1.01823,-1.01823 1.02531,1.0253 z m -1.23743,-1.23743 -1.02531,-1.02531 1.01824,-1.01823 1.0253,1.0253 z m -1.23037,-1.23037 -1.03237,-1.03237 1.01823,-1.01824 1.03237,1.03238 z m 15.13209,19.21916 -1.64756,-1.64756 1.01823,-1.01823 1.64756,1.64756 z m -1.85262,-1.85262 -1.02531,-1.0253 1.01824,-1.01823 1.0253,1.0253 z m -1.23037,-1.23036 -1.03238,-1.03238 1.01824,-1.01823 1.03237,1.03237 z m -1.23744,-1.23744 -1.0253,-1.0253 1.01823,-1.01824 1.02531,1.02531 z m -1.23036,-1.23036 -1.03238,-1.03238 1.01824,-1.01823 1.03237,1.03237 z m -1.23744,-1.23744 -1.0253,-1.02531 1.01823,-1.01823 1.0253,1.0253 z m -1.23744,-1.23744 -1.0253,-1.0253 1.01823,-1.01824 1.02531,1.02531 z m -1.23036,-1.23036 -1.03238,-1.03238 1.01824,-1.01823 1.03237,1.03237 z m -1.23744,-1.23744 -1.0253,-1.02531 1.01823,-1.01823 1.02531,1.02531 z m -1.23036,-1.23037 -1.03238,-1.03237 1.01823,-1.01824 1.03238,1.03238 z m -1.23744,-1.23743 -1.02531,-1.02531 1.01824,-1.01823 1.0253,1.0253 z m -1.23037,-1.23037 -1.03237,-1.03238 1.01823,-1.01823 1.03238,1.03238 z m -1.23743,-1.23744 -1.02531,-1.0253 1.01824,-1.01823 1.0253,1.0253 z m 12.29658,14.85632 -1.0253,-1.02531 1.0253,-1.0253 1.02531,1.0253 z m -1.23036,-1.23037 -1.03238,-1.03237 1.02531,-1.02531 1.03237,1.03238 z m -1.23744,-1.23744 -1.0253,-1.0253 1.0253,-1.02531 1.02531,1.02531 z m -1.23037,-1.23036 -1.03237,-1.03238 1.0253,-1.0253 1.03238,1.03237 z m -1.23743,-1.23744 -1.02531,-1.0253 1.02531,-1.02531 1.0253,1.02531 z m -1.23744,-1.23744 -1.0253,-1.0253 1.0253,-1.0253 1.02531,1.0253 z m -1.23036,-1.23036 -1.03238,-1.03238 1.0253,-1.0253 1.03238,1.03237 z m -1.23744,-1.23744 -1.02531,-1.0253 1.02531,-1.02531 1.0253,1.02531 z m -1.23037,-1.23036 -1.03237,-1.03238 1.0253,-1.0253 1.03238,1.03237 z m -1.23743,-1.23744 -1.02531,-1.02531 1.02531,-1.0253 1.0253,1.0253 z m -1.23037,-1.23037 -1.03238,-1.03237 1.02531,-1.02531 1.03237,1.03238 z m -1.23744,-1.23743 -1.0253,-1.02531 1.0253,-1.0253 1.02531,1.0253 z m 12.29659,14.85631 -1.0253,-1.0253 1.0253,-1.02531 1.0253,1.02531 z m -1.23037,-1.23037 -1.03237,-1.03237 1.0253,-1.02531 1.03238,1.03238 z m -1.23743,-1.23743 -1.02531,-1.02531 1.02531,-1.0253 1.0253,1.0253 z m -1.23037,-1.23037 -1.03237,-1.03237 1.0253,-1.02531 1.03238,1.03238 z m -1.23744,-1.23743 -1.0253,-1.02531 1.0253,-1.0253 1.02531,1.0253 z m -1.23743,-1.23744 -1.02531,-1.02531 1.02531,-1.0253 1.0253,1.0253 z m -1.23037,-1.23037 -1.03237,-1.03237 1.0253,-1.02531 1.03238,1.03238 z m -1.23743,-1.23743 -1.02531,-1.02531 1.02531,-1.0253 1.0253,1.0253 z m -1.23037,-1.23037 -1.03238,-1.03238 1.02531,-1.0253 1.03237,1.03237 z m -1.23744,-1.23744 -1.0253,-1.0253 1.0253,-1.02531 1.02531,1.02531 z m -1.23036,-1.23036 -1.03238,-1.03238 1.02531,-1.0253 1.03237,1.03237 z m -1.23744,-1.23744 -1.0253,-1.0253 1.0253,-1.02531 1.0253,1.02531 z m 12.30366,14.84924 -1.02531,-1.0253 1.01824,-1.01824 1.0253,1.02531 z m -1.23037,-1.23036 -1.03237,-1.03238 1.01823,-1.01823 1.03238,1.03237 z m -1.23743,-1.23744 -1.02531,-1.0253 1.01823,-1.01824 1.02531,1.02531 z m -1.23037,-1.23037 -1.03238,-1.03237 1.01824,-1.01824 1.03237,1.03238 z m -1.23744,-1.23743 -1.0253,-1.02531 1.01823,-1.01823 1.02531,1.0253 z m -1.23743,-1.23744 -1.02531,-1.0253 1.01823,-1.01824 1.02531,1.02531 z m -1.23037,-1.23037 -1.03238,-1.03237 1.01824,-1.01823 1.03237,1.03237 z m -1.23744,-1.23743 -1.0253,-1.02531 1.01823,-1.01823 1.02531,1.0253 z m -1.23036,-1.23037 -1.03238,-1.03237 1.01824,-1.01824 1.03237,1.03238 z m -1.23744,-1.23743 -1.0253,-1.02531 1.01823,-1.01823 1.0253,1.0253 z m -1.23037,-1.23037 -1.03237,-1.03238 1.01823,-1.01823 1.03238,1.03238 z m 8.59135,11.15107 -8.43578,-8.43578 1.0253,-1.02531 8.43579,8.43579 z m -18.71711,-18.71711 -2.46781,-2.46781 1.02531,-1.0253 2.4678,2.4678 z m -2.67287,-2.67287 -1.03237,-1.03237 1.0253,-1.02531 1.03238,1.03238 z m 1.27987,-1.27986 -1.03238,-1.03238 1.01823,-1.01823 1.03238,1.03238 z m 1.33643,1.33643 -1.03238,-1.03237 1.01823,-1.01824 1.03238,1.03238 z m 1.33643,1.33643 -1.03238,-1.03237 1.01824,-1.01824 1.03237,1.03238 z m 1.27279,-1.27279 -1.03238,-1.03237 1.02531,-1.02531 1.03238,1.03238 z m 1.27986,-1.27986 -1.03237,-1.03238 1.0253,-1.0253 1.03238,1.03237 z m -1.33643,-1.33643 -1.03237,-1.03238 1.0253,-1.0253 1.03238,1.03237 z m -1.33643,-1.33644 -1.03238,-1.03237 1.02531,-1.02531 1.03238,1.03238 z m -1.27986,1.27987 -1.03238,-1.03238 1.02531,-1.0253 1.03237,1.03237 z m 1.33643,1.33643 -1.03238,-1.03238 1.02531,-1.0253 1.03237,1.03237 z"
       class="st9"
       id="path269" /><path
       d="m 481.06814,421.85454 -1.0253,-1.02531 1.01823,-1.01823 1.02531,1.0253 z m -3.3234,3.3234 -1.64756,-1.64756 1.02531,-1.02531 1.64756,1.64756 z m -1.27986,1.27986 -1.64756,-1.64756 1.02531,-1.0253 1.64755,1.64756 z m -1.27279,1.27279 -1.64756,-1.64756 1.01823,-1.01823 1.64756,1.64756 z m -1.27987,1.27987 -1.64755,-1.64756 1.0253,-1.02531 1.64756,1.64756 z m -1.85262,-1.85262 -1.0253,-1.02531 1.0253,-1.0253 1.02531,1.0253 z m -1.23036,-1.23037 -1.03238,-1.03238 1.02531,-1.0253 1.03237,1.03238 z m -9.87828,-9.87828 -1.02531,-1.02531 1.02531,-1.0253 1.0253,1.0253 z m -1.23037,-1.23037 -1.03237,-1.03237 1.0253,-1.02531 1.03238,1.03238 z m -1.23744,-1.23743 -1.0253,-1.02531 1.0253,-1.0253 1.02531,1.0253 z m -1.23036,-1.23037 -1.64756,-1.64756 1.0253,-1.0253 1.64756,1.64756 z m -2.26274,-2.26274 -1.03238,-1.03238 1.02531,-1.0253 1.03237,1.03237 z m -1.23744,-1.23744 -1.0253,-1.0253 1.0253,-1.02531 1.0253,1.02531 z m -1.23037,-1.23036 -1.03237,-1.03238 1.0253,-1.02531 1.03238,1.03238 z m -5.65685,-5.65686 -1.03238,-1.03237 2.2486,-2.2486 1.03238,1.03237 z m 2.45366,-2.45366 -1.03238,-1.03238 2.40417,-2.40416 1.03237,1.03238 z m 2.65872,-2.65872 -1.03237,-1.03238 1.01823,-1.01823 1.03238,1.03238 z m 1.33643,1.33643 -1.03237,-1.03237 1.01823,-1.01824 1.03238,1.03238 z m 1.33644,1.33643 -1.03238,-1.03237 1.01823,-1.01824 1.03238,1.03238 z m 1.33643,1.33643 -1.03238,-1.03237 1.01824,-1.01823 1.03237,1.03237 z m 1.64756,1.64756 -1.03238,-1.03237 1.01823,-1.01824 1.03238,1.03238 z m -1.27987,1.27987 -1.03237,-1.03238 1.0253,-1.0253 1.03238,1.03237 z m -1.32229,3.78302 -1.0253,-1.02531 1.01823,-1.01823 1.02531,1.0253 z m 4.74469,4.7164 -2.87792,-2.87792 1.0253,-1.02531 2.87792,2.87793 z m 0.0636,-2.52437 -1.64756,-1.64756 2.2486,-2.2486 1.64756,1.64756 z m -1.01823,-3.50725 -1.03238,-1.03238 1.0253,-1.0253 1.03238,1.03237 z m -1.23744,-1.23744 -1.02531,-1.0253 1.02531,-1.02531 1.0253,1.02531 z m 1.27986,-1.27986 -1.0253,-1.02531 1.01823,-1.01823 1.02531,1.02531 z m 3.50018,3.50018 -1.64756,-1.64756 1.01824,-1.01823 1.64755,1.64755 z m -7.22663,-12.52993 -0.82024,-0.82025 0.20506,-0.20506 0.82024,0.82024 z m 1.23744,1.23743 -0.82732,-0.82731 0.20506,-0.20506 0.82732,0.82731 z m 3.30218,4.51841 -1.03237,-1.03237 1.01823,-1.01823 1.03238,1.03237 z m 1.23037,1.23037 -1.0253,-1.0253 1.01823,-1.01824 1.0253,1.02531 z m 1.23744,1.23744 -1.03238,-1.03238 1.01824,-1.01823 1.03237,1.03237 z m 7.60847,7.60847 -1.02531,-1.02531 1.01824,-1.01823 1.0253,1.0253 z m 1.23743,1.23743 -1.03237,-1.03237 1.01823,-1.01824 1.03238,1.03238 z m 1.23037,1.23037 -1.02531,-1.02531 1.01824,-1.01823 1.0253,1.02531 z m 1.23744,1.23744 -1.03238,-1.03238 1.01823,-1.01823 1.03238,1.03237 z m -13.35725,-9.27017 -1.03238,-1.03238 1.01824,-1.01823 1.03237,1.03237 z"
       class="st10"
       id="path274" /><path
       d="m 431.31094,341.09466 v 4.25"
       class="st5"
       id="path588" /></g><g
     id="g1583"
     class="any"><g
       transform="rotate(-90,-70.45021,923.20286)"
       id="shape962-3"
       v:mID="962"
       v:groupContext="shape"
       v:layerMember="0;1">
					<title
   id="title10">Sheet.962</title>
					<v:userDefs>
						<v:ud
   v:nameU="WallFill"
   v:prompt="Shape Identifier" />
					</v:userDefs>
					<path
   d="m -4.25,1154.26 h 515.9 l -4.25,4.25 H 0 Z"
   class="st1"
   id="path12" />
				</g><g
       id="shape963-6"
       v:mID="963"
       v:groupContext="shape"
       v:layerMember="0;1"
       transform="rotate(135,145.75323,1039.7731)">
					<title
   id="title15">Sheet.963</title>
					<v:userDefs>
						<v:ud
   v:nameU="WallCap"
   v:prompt="Shape Identifier" />
					</v:userDefs>
					<rect
   x="0"
   y="1158.08"
   width="6.0131898"
   height="0.42519701"
   class="st2"
   id="rect17" />
				</g><g
       id="shape964-8"
       v:mID="964"
       v:groupContext="shape"
       v:layerMember="0;1"
       transform="rotate(45,1066.996,943.6638)">
					<title
   id="title20">Sheet.964</title>
					<v:userDefs>
						<v:ud
   v:nameU="WallCap"
   v:prompt="Shape Identifier" />
					</v:userDefs>
					<rect
   x="0"
   y="1158.08"
   width="6.0131898"
   height="0.42519701"
   class="st2"
   id="rect22" />
				</g><g
       transform="rotate(-90,-70.45021,923.20286)"
       id="shape966-12"
       v:mID="966"
       v:groupContext="shape"
       v:layerMember="0;1">
					<title
   id="title28">Sheet.966</title>
					<v:userDefs>
						<v:ud
   v:nameU="WallCompGeom1"
   v:prompt="Shape Identifier"
   v:val="VT0(-0.66693806165226):26" />
					</v:userDefs>
					<path
   d="m -4.25,1154.26 h 515.9"
   class="st3"
   id="path30" />
					<path
   d="M 0,1158.51 H 507.4"
   class="st3"
   id="path32" />
				</g><g
       transform="translate(164.85393,-813.15735)"
       id="shape969-19"
       v:mID="969"
       v:groupContext="shape"
       v:layerMember="0;1">
					<title
   id="title41">Sheet.969</title>
					<v:userDefs>
						<v:ud
   v:nameU="WallFill"
   v:prompt="Shape Identifier" />
					</v:userDefs>
					<path
   d="m -4.25,1154.26 h 374.17 l -4.25,4.25 H 0 Z"
   class="st1"
   id="path43" />
				</g><g
       id="shape970-22"
       v:mID="970"
       v:groupContext="shape"
       v:layerMember="0;1"
       transform="rotate(-135,-85.982355,717.78836)">
					<title
   id="title46">Sheet.970</title>
					<v:userDefs>
						<v:ud
   v:nameU="WallCap"
   v:prompt="Shape Identifier" />
					</v:userDefs>
					<rect
   x="0"
   y="1158.08"
   width="6.0131898"
   height="0.42519701"
   class="st2"
   id="rect48" />
				</g><g
       transform="translate(164.85393,-813.15735)"
       id="shape973-28"
       v:mID="973"
       v:groupContext="shape"
       v:layerMember="0;1">
					<title
   id="title59">Sheet.973</title>
					<v:userDefs>
						<v:ud
   v:nameU="WallCompGeom1"
   v:prompt="Shape Identifier"
   v:val="VT0(-0.66693806165226):26" />
					</v:userDefs>
					<path
   d="M -4.25,1154.26 H 369.92"
   class="st3"
   id="path61" />
					<path
   d="M 0,1158.51 H 365.67"
   class="st3"
   id="path63" />
				</g><g
       transform="rotate(90,671.83764,1017.1883)"
       id="shape976-35"
       v:mID="976"
       v:groupContext="shape"
       v:layerMember="0;1">
					<title
   id="title72">Sheet.976</title>
					<v:userDefs>
						<v:ud
   v:nameU="WallFill"
   v:prompt="Shape Identifier" />
					</v:userDefs>
					<path
   d="m -4.25,1154.26 h 515.9 l -4.25,4.25 H 0 Z"
   class="st1"
   id="path74" />
				</g><g
       id="shape978-40"
       v:mID="978"
       v:groupContext="shape"
       v:layerMember="0;1"
       transform="rotate(-135,204.94341,896.99942)">
					<title
   id="title82">Sheet.978</title>
					<v:userDefs>
						<v:ud
   v:nameU="WallCap"
   v:prompt="Shape Identifier" />
					</v:userDefs>
					<rect
   x="0"
   y="1158.08"
   width="6.0131898"
   height="0.42519701"
   class="st2"
   id="rect84" />
				</g><g
       transform="rotate(90,671.83764,1017.1883)"
       id="shape980-44"
       v:mID="980"
       v:groupContext="shape"
       v:layerMember="0;1">
					<title
   id="title90">Sheet.980</title>
					<v:userDefs>
						<v:ud
   v:nameU="WallCompGeom1"
   v:prompt="Shape Identifier"
   v:val="VT0(-0.66693806165226):26" />
					</v:userDefs>
					<path
   d="m -4.25,1154.26 h 515.9"
   class="st3"
   id="path92" />
					<path
   d="M 0,1158.51 H 507.4"
   class="st3"
   id="path94" />
				</g><g
       transform="rotate(180,265.26296,1005.6313)"
       id="shape983-51"
       v:mID="983"
       v:groupContext="shape"
       v:layerMember="0;1">
					<title
   id="title103">Sheet.983</title>
					<v:userDefs>
						<v:ud
   v:nameU="WallFill"
   v:prompt="Shape Identifier" />
					</v:userDefs>
					<path
   d="m -4.25,1154.26 h 374.17 l -4.25,4.25 H 0 Z"
   class="st1"
   id="path105" />
				</g><g
       id="shape984-54"
       v:mID="984"
       v:groupContext="shape"
       v:layerMember="0;1"
       transform="rotate(45,634.34334,1646.0301)">
					<title
   id="title108">Sheet.984</title>
					<v:userDefs>
						<v:ud
   v:nameU="WallCap"
   v:prompt="Shape Identifier" />
					</v:userDefs>
					<rect
   x="0"
   y="1158.08"
   width="6.0131898"
   height="0.42519701"
   class="st2"
   id="rect110" />
				</g><g
       id="shape985-56"
       v:mID="985"
       v:groupContext="shape"
       v:layerMember="0;1"
       transform="rotate(-45,-283.63602,813.8926)">
					<title
   id="title113">Sheet.985</title>
					<v:userDefs>
						<v:ud
   v:nameU="WallCap"
   v:prompt="Shape Identifier" />
					</v:userDefs>
					<rect
   x="0"
   y="1158.08"
   width="6.0131898"
   height="0.42519701"
   class="st2"
   id="rect115" />
				</g><g
       transform="rotate(180,265.26296,1005.6313)"
       id="shape987-60"
       v:mID="987"
       v:groupContext="shape"
       v:layerMember="0;1">
					<title
   id="title121">Sheet.987</title>
					<v:userDefs>
						<v:ud
   v:nameU="WallCompGeom1"
   v:prompt="Shape Identifier"
   v:val="VT0(-0.66693806165226):26" />
					</v:userDefs>
					<path
   d="M -4.25,1154.26 H 369.92"
   class="st3"
   id="path123" />
					<path
   d="M 0,1158.51 H 365.67"
   class="st3"
   id="path125" />
				</g><path
       d="m 527.68894,753.53466 v 90.71 h -48.19 v -90.71 z m -48.19,0 h -2.83 v 90.71 h 2.83 z"
       class="st12"
       id="path317" /><path
       d="m 527.68894,753.53466 v 90.71 h -48.19 v -90.71 h 48.19"
       class="st13"
       id="path319" /><path
       d="m 479.49894,798.89466 h -2.83"
       class="st13"
       id="path321" /><path
       d="m 479.49894,753.53466 h -2.83 v 90.71 h 2.83 v -90.71"
       class="st13"
       id="path323" /><path
       d="m 476.66534,793.21966 h -2.83 v 2.84 h 2.83 z m 0,8.51 h -2.83 v 2.83 h 2.83 z"
       class="st11"
       id="path312" /><path
       d="m 167.68893,847.08565 v -90.71 h 54.98 v 90.71 z m 54.98,0 h 2.84 v -90.71 h -2.84 z"
       class="st12"
       id="path425" /><path
       d="m 167.68893,847.08565 v -90.71 h 54.98 v 90.71 h -54.98"
       class="st13"
       id="path427" /><path
       d="m 222.66893,801.72565 h 2.84"
       class="st13"
       id="path429" /><path
       d="m 222.66893,847.08565 h 2.84 v -90.71 h -2.84 v 90.71"
       class="st13"
       id="path431" /><path
       d="m 225.50643,807.40065 h 2.83 v -2.84 h -2.83 z m 0,-8.51 h 2.83 v -2.83 h -2.83 z"
       class="st11"
       id="path420" /><path
       d="m 413.59694,852.6046 h -100.63 v 4.54 h 100.63 z"
       class="st14"
       id="path498" /><path
       d="m 314.37694,855.582 h 0.57 v -1.42 h -0.57 z m 97.8,0 h -0.57 v -1.42 h 0.57 z"
       class="st4"
       id="path519" /><path
       d="m 314.37694,855.582 h 0.57 v -1.42 h -0.57 m 97.8,1.42 h -0.57 v -1.42 h 0.57"
       class="st5"
       id="path521" /><path
       d="m 312.96426,852.7446 v 4.25"
       class="st5"
       id="path526" /><path
       d="m 413.59426,852.7446 v 4.25"
       class="st5"
       id="path528" /><path
       d="m 412.17694,856.9966 a 97.7953,97.7953 0 0 1 -25.43,65.79"
       class="st5"
       id="path533" /><path
       d="m 312.96426,852.7446 v 4.25 h 1.42 v -1.41 -1.42 -1.42 z m 100.63,0 v 4.25 h -1.42 v -1.41 -1.42 -1.42 z"
       class="st4"
       id="path512" /><path
       d="m 312.96426,852.7446 v 4.25 h 1.42 v -1.41 m 0,-1.42 v -1.42 h -1.42 m 100.63,0 v 4.25 h -1.42 v -1.41 m 0,-1.42 v -1.42 h 1.42"
       class="st5"
       id="path514" /><rect
       transform="rotate(-137.7263)"
       x="-906.8996"
       y="-422.65146"
       width="97.795303"
       height="1.41732"
       class="st6"
       id="rect538" /><rect
       transform="rotate(137.7263)"
       x="245.10796"
       y="-845.97278"
       width="97.795303"
       height="1.41732"
       class="st15"
       id="rect546" /><path
       d="m 431.31094,340.95466 h -153.07 v 4.54 h 153.07 z"
       class="st14"
       id="path557" /><path
       d="m 429.89362,343.93198 h -1.42 v -1.42 h 1.42 z m -150.24,0 h 1.42 v -1.42 h -1.42 z"
       class="st6"
       id="path578" /><path
       d="m 428.47628,343.22064 h -147.4"
       class="st5"
       id="path583" /><path
       d="m 278.24094,341.09466 v 4.25"
       class="st5"
       id="path590" /><path
       d="m 431.31094,341.09466 v 4.25 h -1.42 v -1.41 -1.42 -1.42 z m -153.07,0 v 4.25 h 1.42 v -1.41 -1.42 -1.42 z"
       class="st4"
       id="path571" /><path
       d="m 431.31094,341.09466 v 4.25 h -1.42 v -1.41 m 0,-1.42 v -1.42 h 1.42 m -153.07,0 v 4.25 h 1.42 v -1.41 m 0,-1.42 v -1.42 h -1.42"
       class="st5"
       id="path573" /></g></g>
</svg>
