<svg xmlns="http://www.w3.org/2000/svg" width="422.647" height="698.691" viewBox="0 0 316.985 524.018" color-interpolation-filters="sRGB" class="st14" version="1.1" id="svg351" fill="none"><g id="g2149"><g id="c202"><g class="ws" id="1"><path d="m202.25 24.394-4.93-9.29h-79.94l-4.92 9.29v317.92l4.92 9.29h79.94l4.93-9.29z" class="st4" id="path137"/><path d="M112.46 183.354h89.79" class="st5" id="path139"/><path d="m202.25 24.394-4.93-9.29h-79.94l-4.92 9.29v317.92l4.92 9.29h79.94l4.93-9.29V24.394" class="st5" id="path141"/><path d="M196.09 17.424h-77.48l-4.92 9.29v313.28l4.92 9.29h77.48l4.92-9.29V26.714zm-83.63 6.97 4.92-9.29h79.94l4.93 9.29v317.92l-4.93 9.29h-79.94l-4.92-9.29z" class="st6" id="path146"/><path d="m127.774 42.963-2.48-4.64h64.12l-2.47 4.64zm59.7.63 2.47-4.61v288.74l-2.47-4.61zm-.53 280.15 2.47 4.64h-64.12l2.47-4.64zm-62.18 3.98V38.983l2.47 4.61v279.52z" class="st7" id="path151"/><path d="m202.25 24.394-4.93-9.29h-79.94l-4.92 9.29v317.92l4.92 9.29h79.94l4.93-9.29z" class="st8" id="path156"/><rect x="65.702" y="36.959" width="37.332" height="37.332" rx="3" ry="3" class="st9" id="rect164"/><rect x="65.702" y="36.959" width="6.944" height="37.332" rx="3" ry="3" class="st9" id="rect169"/><rect x="65.702" y="97.182" width="37.332" height="37.332" rx="3" ry="3" class="st9" id="rect177"/><rect x="65.702" y="97.182" width="6.944" height="37.332" rx="3" ry="3" class="st9" id="rect182"/><rect x="65.702" y="158.367" width="37.332" height="37.332" rx="3" ry="3" class="st9" id="rect190"/><rect x="65.702" y="158.367" width="6.944" height="37.332" rx="3" ry="3" class="st9" id="rect195"/><rect x="65.702" y="219.553" width="37.332" height="37.332" rx="3" ry="3" class="st9" id="rect203"/><rect x="65.702" y="219.553" width="6.944" height="37.332" rx="3" ry="3" class="st9" id="rect208"/><rect x="65.702" y="280.738" width="37.332" height="37.332" rx="3" ry="3" class="st9" id="rect216"/><rect x="65.702" y="280.738" width="6.944" height="37.332" rx="3" ry="3" class="st9" id="rect221"/><rect transform="rotate(179.9)" x="-247.53" y="-318.472" width="37.332" height="37.332" rx="3" ry="3" class="st9" id="rect229"/><rect transform="rotate(179.9)" x="-247.53" y="-318.472" width="6.944" height="37.332" rx="3" ry="3" class="st9" id="rect234"/><rect transform="rotate(179.9)" x="-247.531" y="-258.248" width="37.332" height="37.332" rx="3" ry="3" class="st9" id="rect242"/><rect transform="rotate(179.9)" x="-247.531" y="-258.248" width="6.944" height="37.332" rx="3" ry="3" class="st9" id="rect247"/><rect transform="rotate(179.9)" x="-247.53" y="-197.062" width="37.332" height="37.332" rx="3" ry="3" class="st9" id="rect255"/><rect transform="rotate(179.9)" x="-247.53" y="-197.062" width="6.944" height="37.332" rx="3" ry="3" class="st9" id="rect260"/><rect transform="rotate(179.9)" x="-247.53" y="-135.876" width="37.332" height="37.332" rx="3" ry="3" class="st9" id="rect268"/><rect transform="rotate(179.9)" x="-247.53" y="-135.876" width="6.944" height="37.332" rx="3" ry="3" class="st9" id="rect273"/><rect transform="rotate(179.9)" x="-247.531" y="-74.69" width="37.332" height="37.332" rx="3" ry="3" class="st9" id="rect281"/><rect transform="rotate(179.9)" x="-247.531" y="-74.69" width="6.944" height="37.332" rx="3" ry="3" class="st9" id="rect286"/></g><g id="g2323" class="any"><path id="path12" class="st1" d="M.297 458.234V.294l4.26 4.26v449.43z"/><path id="rect17" class="st2" d="M4.851 454.284.6 458.536l-.3-.3 4.252-4.252z"/><path id="rect22" class="st2" d="m.599 0 4.252 4.252-.3.3L.297.301z"/><path id="path30" class="st3" d="M.297 458.234V.294"/><path id="path32" class="st3" d="M4.557 453.984V4.554"/><path id="path43" class="st1" d="M.303.294h316.38l-4.25 4.26H4.553z"/><path id="rect48" class="st2" d="M4.253 4.85 0 .596l.3-.3 4.252 4.252z"/><path id="rect53" class="st2" d="m316.985.598-4.252 4.251-.3-.3 4.252-4.252z"/><path id="path61" class="st3" d="M.303.294h316.38"/><path id="path63" class="st3" d="M4.553 4.554h307.88"/><path id="path74" class="st1" d="M316.687.302v457.94l-4.26-4.26V4.552z"/><path id="rect79" class="st2" d="M312.132 4.253 316.384 0l.3.3-4.252 4.252z"/><path id="rect84" class="st2" d="m316.384 458.537-4.252-4.252.3-.3 4.253 4.251z"/><path id="path92" class="st3" d="M316.687.302v457.94"/><path id="path94" class="st3" d="M312.427 4.552v449.43"/><path id="path105" class="st1" d="M316.683 458.24H.303l4.25-4.26h307.88z"/><path id="rect110" class="st2" d="m312.732 453.686 4.252 4.251-.3.301-4.252-4.252z"/><path id="rect115" class="st2" d="m0 457.937 4.252-4.252.3.301L.3 458.238z"/><path id="path123" class="st3" d="M316.683 458.24H.303"/><path id="path125" class="st3" d="M312.433 453.98H4.553"/><path d="M97.705 453.836h100.63v4.54H97.705z" class="st10" id="path294"/><path d="M198.338 453.976v4.26h-1.42v-4.26zm-100.63 0v4.26h1.42v-4.26z" class="st11" id="path308"/><path d="M198.338 453.976v4.26h-1.42v-1.42m0-1.42v-1.42h1.42m-100.63 0v4.26h1.42v-1.42m0-1.42v-1.42h-1.42" class="st12" id="path310"/><path d="M196.925 456.813h-.57v-1.42h.57zm-97.8 0h.57v-1.42h-.57z" class="st11" id="path315"/><path d="M196.925 456.813h-.57v-1.42h.57m-97.8 1.42h.57v-1.42h-.57" class="st12" id="path317"/><path d="M198.338 453.976v4.26" class="st12" id="path322"/><path d="M97.708 453.976v4.26" class="st12" id="path324"/><path d="M99.125 458.228a97.795 97.795 0 0 0 25.43 65.79" class="st12" id="path329"/><path class="st9" id="rect334" d="m124.558 524.016 72.362-65.784-.953-1.049-72.363 65.785z"/><path class="st13" id="rect342" d="m123.604 392.078 72.362 65.785.954-1.049-72.363-65.784z"/></g></g></g></svg>