<svg xmlns="http://www.w3.org/2000/svg" width="1299.686" height="15.586in" viewBox="0 0 974.763 1122.19" color-interpolation-filters="sRGB" class="st2" fill="none"><g id="shape1-1" transform="translate(12.883 -272.721)"><path class="st1" d="M0 440.205h938.013v681.987H0z"/><switch><svg viewBox="-0.51 -0.511 1251 910.99" height="681.987" preserveAspectRatio="none" width="938.013" y="440.205"><clipPath id="mfid1"><path id="mfid2" d="M-.51-.511h1251v910.99H-.51z"/></clipPath><g clip-path="url(#mfid1)"><mask id="mfid3"><path d="M0 0h1251v911H0z"/></mask><mask id="mfid4" stroke="none"><g mask="url(#mfid3)"><use xlinkHref="#mfid2"/></g></mask><mask id="mfid5" fill-rule="evenodd" stroke="none"><path d="M0 0h1251v911H0z"/></mask><defs><path id="mfid6" d="M-5.905-5.905H251.57L245.67 0H0l-5.905-5.905Z"/></defs><g mask="url(#mfid4)"><g><g transform="matrix(3.84 0 0 3.84 254.76 160.24)"><use fill-rule="evenodd" xlinkHref="#mfid6"/><defs><path id="mfid7" d="M-5.905-5.905H251.57M0 0h245.67"/></defs></g><g stroke-width=".083" stroke="#000" stroke-miterlimit="2" transform="matrix(3.84 0 0 3.84 254.76 160.24)"><use xlinkHref="#mfid7"/><defs><path id="mfid8" d="M-5.905-5.905H177.56L171.65 0H0l-5.905-5.905Z"/></defs></g></g><g stroke-width=".083" stroke="#000" stroke-miterlimit="2" transform="rotate(90 518.93 679.17) scale(3.84)"><use fill-rule="evenodd" stroke="none" xlinkHref="#mfid8"/><defs><path id="mfid9" d="M-5.905-5.905H177.56M0 0h171.65"/></defs><use xlinkHref="#mfid9"/><defs><path id="mfid10" d="M-5.905-5.905H251.57L245.67 0H0l-5.905-5.905Z"/></defs></g><g stroke-width=".083" stroke="#000" stroke-miterlimit="2" transform="matrix(-3.84 0 0 -3.84 1198.1 819.39)"><use fill-rule="evenodd" stroke="none" xlinkHref="#mfid10"/><defs><path id="mfid11" d="M-5.905-5.905H251.57M0 0h245.67"/></defs><use xlinkHref="#mfid11"/><defs><path id="mfid12" d="M-5.905-5.905H177.56L171.65 0H0l-5.905-5.905Z"/></defs></g><g stroke-width=".083" stroke="#000" stroke-miterlimit="2" transform="matrix(0 -3.84 3.84 0 254.76 819.39)"><use fill-rule="evenodd" stroke="none" xlinkHref="#mfid12"/><defs><path id="mfid13" d="M-5.905-5.905H177.56M0 0h171.65"/></defs><use xlinkHref="#mfid13"/><defs><path id="mfid14" d="M0 0h.984v-.984H0V0Zm0-2.953h.984v-.984H0v.984Z"/></defs></g><g stroke-miterlimit="2"><g stroke-width=".083" stroke="#000" transform="rotate(180 553.7 106.2) scale(3.84)"><use fill-rule="evenodd" stroke="none" xlinkHref="#mfid14"/><defs><path id="mfid15" d="M0 0h.984v-.984H0V0Zm0-2.953h.984v-.984H0v.984Z"/></defs></g><g stroke-width=".434" stroke="#658a82" transform="rotate(180 553.7 106.2) scale(3.84)"><use xlinkHref="#mfid15"/><defs><path id="mfid16" d="M0 0v-31.496h22.638V0H0Zm22.638 0h.984v-31.496h-.984V0Z"/></defs></g></g><g stroke-width=".434" stroke="#658a82" stroke-miterlimit="2" transform="rotate(180 599.05 79.74) scale(3.84)"><use fill-rule="evenodd" stroke="none" xlinkHref="#mfid16"/><defs><path id="mfid17" d="M0 0v-31.496h22.638V0H0Zm22.638-15.748h.984M22.638 0h.984v-31.496h-.984V0Z"/></defs><use xlinkHref="#mfid17"/><defs><path id="mfid18" d="M0 0h.984v-.984H0V0Zm0-2.953h.984v-.984H0v.984Z"/></defs></g><g stroke-width=".434" stroke="#658a82" stroke-miterlimit="2" transform="matrix(3.84 0 0 3.84 322.79 765.72)"><use fill-rule="evenodd" stroke="none" xlinkHref="#mfid18"/><defs><path id="mfid19" d="M0 0h.984v-.984H0V0Zm0-2.953h.984v-.984H0v.984Z"/></defs><use xlinkHref="#mfid19"/><defs><path id="mfid20" d="M0 0v-31.496h16.732V0H0Zm16.732 0h.985v-31.496h-.985V0Z"/></defs></g><g stroke-width=".434" stroke="#658a82" stroke-miterlimit="2" transform="matrix(3.84 0 0 3.84 254.76 818.63)"><use fill-rule="evenodd" stroke="none" xlinkHref="#mfid20"/><defs><path id="mfid21" d="M0 0v-31.496h16.732V0H0Zm16.732-15.748h.985M16.732 0h.985v-31.496h-.985V0Z"/></defs><use xlinkHref="#mfid21"/><defs><path id="mfid22" d="M3.003-7.825c-.587.035-1.42.002-1.968.199a1.284 1.284 0 0 0-.767.714c-.414.9-.246 2.505-.165 3.606.114 1.542.06 2.1.29 3.306H.7C.654-.566.554-.952.454-2.063c-.007-.069-.013-.14-.018-.21-.064-.787-.064-1.433-.09-2C.32-4.822.27-5.3.303-5.807c.03-.47.13-.967.4-1.283.407-.473 1.194-.537 2.07-.55l.23-.184Zm.007.123c.444-.626 1.383-.904 2.296-1.126l-.111.24a5.302 5.302 0 0 1-.975.361c-.09.026-.188.053-.28.082-.415.13-.685.295-.763.56l-.167-.117Zm.024-.008c.82-.018 1.693-.147 2.472.007l-.116.166c-.154.014-.242-.074-.625-.024l-.014.001-.021.001c-.744.009-.967-.12-1.697-.15Z"/></defs></g><g stroke-width=".434" stroke="#658a82" stroke-miterlimit="2" transform="matrix(3.84 0 0 3.84 274.72 208.5)"><use fill-rule="evenodd" stroke="none" xlinkHref="#mfid22"/><defs><path id="mfid23" d="M3.003-7.825c-.587.035-1.42.002-1.968.199a1.284 1.284 0 0 0-.767.714c-.414.9-.246 2.505-.165 3.606.114 1.542.06 2.1.29 3.306H.7C.654-.566.554-.952.454-2.063c-.007-.069-.013-.14-.018-.21-.064-.787-.064-1.433-.09-2C.32-4.822.27-5.3.303-5.807c.03-.47.13-.967.4-1.283.407-.473 1.194-.537 2.07-.55l.23-.184Zm.007.123c.444-.626 1.383-.904 2.296-1.126l-.111.24a5.302 5.302 0 0 1-.975.361c-.09.026-.188.053-.28.082-.415.13-.685.295-.763.56l-.167-.117Zm.024-.008c.82-.018 1.693-.147 2.472.007l-.116.166c-.154.014-.242-.074-.625-.024l-.014.001-.021.001c-.744.009-.967-.12-1.697-.15Z"/></defs></g><g stroke-width=".083" stroke="#000" stroke-linecap="round" stroke-linejoin="round" transform="matrix(3.84 0 0 3.84 274.72 208.5)"><use xlinkHref="#mfid23"/><defs><path id="mfid24" d="M0 0h3.839v-7.066a1.176 1.176 0 0 0-.903-.615.67.67 0 0 1-.326-.485v-.552H1.228v.552a.67.67 0 0 1-.326.486c-.383.044-.72.274-.902.614V0Z"/></defs></g><g stroke-width=".083" stroke="#000" stroke-linecap="round" stroke-linejoin="round" transform="matrix(3.84 0 0 3.84 279.14 212.4)"><use fill-rule="evenodd" stroke="none" xlinkHref="#mfid24"/><defs><path id="mfid25" d="M0 0h3.839v-7.066a1.176 1.176 0 0 0-.903-.615.67.67 0 0 1-.326-.485v-.552H1.228v.552a.67.67 0 0 1-.326.486c-.383.044-.72.274-.902.614V0Z"/></defs><use xlinkHref="#mfid25"/></g><g stroke-width=".083" stroke="#000" stroke-linecap="round" stroke-linejoin="round" transform="matrix(3.84 0 0 3.84 279.73 200.11)"><path stroke="none" d="M0-.984h3.531V0H0z"/><defs><path id="mfid26" d="M0 0h3.531v-.984H0V0Z"/></defs><use xlinkHref="#mfid26"/><defs><path id="mfid27" d="M0-.546c0-.302.305-.546.682-.546.376 0 .681.244.681.546 0 .301-.305.546-.681.546C.305 0 0-.245 0-.546Z"/></defs></g><g stroke-width=".083" stroke="#000" stroke-linecap="round" stroke-linejoin="round" transform="matrix(3.84 0 0 3.84 283.89 182.04)"><use fill-rule="evenodd" stroke="none" xlinkHref="#mfid27"/><defs><path id="mfid28" d="M.61-.357.98-.75M0-.546c0-.302.305-.546.682-.546.376 0 .681.244.681.546 0 .301-.305.546-.681.546C.305 0 0-.245 0-.546Z"/></defs><use xlinkHref="#mfid28"/><defs><path id="mfid29" d="M0 0h62.992v-1.968H0V0Z"/></defs></g><g stroke-width=".083" stroke="#000" stroke-linecap="round" stroke-linejoin="round" transform="matrix(0 -3.84 -3.84 0 639.24 815.61)"><use fill-rule="evenodd" stroke="none" xlinkHref="#mfid29"/><defs><path id="mfid30" d="M0 0h62.992v-1.968H0V0Z"/></defs><use xlinkHref="#mfid30"/><defs><path id="mfid31" d="M0-62.3c0-.382.278-.692.622-.692h30.252c.344 0 .622.31.622.692V-.692c0 .382-.279.692-.622.692H.622C.278 0 0-.31 0-.692V-62.3Z"/></defs></g><g stroke="#000"><g stroke-width=".083" stroke-linecap="round" stroke-linejoin="round" transform="matrix(3.84 0 0 -3.84 1071.1 575.23)"><use fill-rule="evenodd" stroke="none" xlinkHref="#mfid31"/><defs><path id="mfid32" d="M0-62.3c0-.382.278-.692.622-.692h30.252c.344 0 .622.31.622.692V-.692c0 .382-.279.692-.622.692H.622C.278 0 0-.31 0-.692V-62.3Z"/></defs></g><g stroke-width=".26" stroke-miterlimit="2" transform="matrix(3.84 0 0 -3.84 1071.1 575.23)"><use xlinkHref="#mfid32"/><defs><path id="mfid33" d="M4.252-2.126a2.126 2.126 0 1 0-4.252 0 2.126 2.126 0 0 0 4.252 0Z"/></defs></g></g><g stroke-width=".26" stroke="#000" stroke-miterlimit="2" transform="matrix(3.84 0 0 -3.84 1092.6 779.33)"><use fill-rule="evenodd" stroke="none" xlinkHref="#mfid33"/><defs><path id="mfid34" d="M2.953-1.476a1.476 1.476 0 1 0-2.953 0 1.476 1.476 0 0 0 2.953 0Z"/></defs></g><g><use fill-rule="evenodd" stroke="none" stroke-width=".26" stroke-miterlimit="2" transform="matrix(3.84 0 0 -3.84 1095.1 781.82)" xlinkHref="#mfid34"/></g></g><g mask="url(#mfid5)"><text stroke="none" x="0,16" transform="translate(1126.8 631.73)" font-family="'Calibri',swiss,sans-serif" font-weight="400" font-size="32" stroke-miterlimit="10">2</text></g><defs><path id="mfid35" d="M6.272 0c7.567 0 6.44-5 6.44-5l-.71-4.976c-.311-2.836-2.798-2.831-2.798-2.831H4.068C.908-12.325.73-9.532.73-9.532.635-8.728.032-4.593.032-4.593-.27-1.88 1.651-.803 1.651-.803 3.067 0 6.27 0 6.27 0ZM1.746-19.603s2.226-.24 5.005-.24 4.365.24 4.365.24c2.125.261 1.514 2.344 1.514 2.344-.023.224-.354 1.71-.449 1.983-.245.711-.704 1.193-1.333 1.455-.456.191-.93.322-1.418.323H3.432c-.489-.001-.962-.132-1.418-.323-.629-.262-1.087-.744-1.333-1.455-.095-.273-.426-1.759-.45-1.983 0 0-.61-2.083 1.515-2.344Z"/></defs><g mask="url(#mfid4)"><g stroke-width=".26" stroke="#000"><g stroke-miterlimit="2" transform="matrix(.05954 3.8395 3.8395 -.05954 1064.9 669.51)"><use fill-rule="evenodd" stroke="none" xlinkHref="#mfid35"/><defs><path id="mfid36" d="M6.272 0c7.567 0 6.44-5 6.44-5l-.71-4.976c-.311-2.836-2.798-2.831-2.798-2.831H4.068C.908-12.325.73-9.532.73-9.532.635-8.728.032-4.593.032-4.593-.27-1.88 1.651-.803 1.651-.803 3.067 0 6.27 0 6.27 0ZM1.746-19.603s2.226-.24 5.005-.24 4.365.24 4.365.24c2.125.261 1.514 2.344 1.514 2.344-.023.224-.354 1.71-.449 1.983-.245.711-.704 1.193-1.333 1.455-.456.191-.93.322-1.418.323H3.432c-.489-.001-.962-.132-1.418-.323-.629-.262-1.087-.744-1.333-1.455-.095-.273-.426-1.759-.45-1.983 0 0-.61-2.083 1.515-2.344Z"/></defs></g><g stroke-linecap="round" stroke-linejoin="round" transform="matrix(.05954 3.8395 3.8395 -.05954 1064.9 669.51)"><use xlinkHref="#mfid36"/><defs><path id="mfid37" d="M5.473-14.961s2.23-.205 5.008-.162c2.778.043 4.361.307 4.361.307.998.139 1.383.671 1.513 1.197.087-.356.398-2.038-1.496-2.301 0 0-1.583-.264-4.361-.307-2.778-.043-5.008.162-5.008.162-1.902.204-1.643 1.895-1.566 2.253.145-.521.547-1.041 1.549-1.149ZM19.837-1.755 18.405-7.21c-.475-1.685-1.245-1.585-1.551-1.53-.797.143-.682.892-.619 1.889l.67 5.324c.153.887.753 1.587 1.562 1.524.81-.063 1.424-.846 1.37-1.75ZM.007-2.062l1.601-5.41c.527-1.67 1.294-1.545 1.598-1.481.792.167.654.913.56 1.908l-.835 5.3C2.751-.862 2.13-.182 1.322-.27.515-.357-.074-1.16.008-2.062Zm3.937-1.496-.725-.011.262-1.67.718.033-.255 1.648ZM9.247-9.21l1.643.026.011-.691-1.643-.026-.01.691Zm6.702 5.838.725.011-.211-1.677-.717.011.203 1.655Z"/></defs></g></g><g stroke-width=".26" stroke="#000" stroke-linecap="round" stroke-linejoin="round" transform="matrix(0 3.84 3.84 0 1051.4 656.3)"><use fill-rule="evenodd" stroke="none" xlinkHref="#mfid37"/><defs><path id="mfid38" d="M5.473-14.961s2.23-.205 5.008-.162c2.778.043 4.361.307 4.361.307.998.139 1.383.671 1.513 1.197.087-.356.398-2.038-1.496-2.301 0 0-1.583-.264-4.361-.307-2.778-.043-5.008.162-5.008.162-1.902.204-1.643 1.895-1.566 2.253.145-.521.547-1.041 1.549-1.149ZM19.837-1.755 18.405-7.21c-.475-1.685-1.245-1.585-1.551-1.53-.797.143-.682.892-.619 1.889l.67 5.324c.153.887.753 1.587 1.562 1.524.81-.063 1.424-.846 1.37-1.75ZM.007-2.062l1.601-5.41c.527-1.67 1.294-1.545 1.598-1.481.792.167.654.913.56 1.908l-.835 5.3C2.751-.862 2.13-.182 1.322-.27.515-.357-.074-1.16.008-2.062Zm3.937-1.496-.725-.011.262-1.67.718.033-.255 1.648ZM9.247-9.21l1.643.026.011-.691-1.643-.026-.01.691Zm6.702 5.838.725.011-.211-1.677-.717.011.203 1.655Z"/></defs><use xlinkHref="#mfid38"/><defs><path id="mfid39" d="M10.247-17.081H5.894a.22.22 0 0 0-.224.218v13.994c0 .12.101.218.224.218h4.352a.22.22 0 0 0 .224-.218v-13.994a.22.22 0 0 0-.223-.218Zm-6.734 4.145v-.021h.69c.325 0 .589.311.589.695v4.694c0 .384-.264.696-.59.696h-.689v-6.064Zm0 0v10.098L.577 0 0-.211v-19.421l.577-.211 2.936 2.839v4.068Z"/></defs></g><g stroke-width=".26" stroke="#000"><g stroke-linecap="round" stroke-linejoin="round" transform="matrix(-3.84 0 0 3.84 1124.4 732.94)"><use fill-rule="evenodd" stroke="none" xlinkHref="#mfid39"/><defs><path id="mfid40" d="M10.247-17.081H5.894a.22.22 0 0 0-.224.218v13.994c0 .12.101.218.224.218h4.352a.22.22 0 0 0 .224-.218v-13.994a.22.22 0 0 0-.223-.218Zm-6.734 4.145v-.021h.69c.325 0 .589.311.589.695v4.694c0 .384-.264.696-.59.696h-.689v-6.064Zm0 0v10.098L.577 0 0-.211v-19.421l.577-.211 2.936 2.839v4.068Z"/></defs></g><g stroke-miterlimit="2" transform="matrix(-3.84 0 0 3.84 1124.4 732.94)"><use xlinkHref="#mfid40"/><defs><path id="mfid41" d="M2.926-12.826v-.716h.736v.716h-.736v.86-.715h.736v.715h-.736v-.86Zm0 1.721v-.716h.736v.716h-.736v1.232-.716h.736v.716h-.736v-1.232Zm0 2.092v-.716h.736v.716h-.736v.86-.715h.736v.715h-.736v-.86Zm0 2.128V-7.6h.736v.715h-.736v.86-.714h.736v.715h-.736v-.86Zm0 5.164V-5.88h.736v4.158h-.736v.86-.715h.736v.715h-.736v-.86Zm0 1.72v-.715h.736V0h-.736L2.04-9.013v-.716h.736v.716H2.04L2.926 0ZM2.04-6.023V-7.6h.736v1.576H2.04v.86-.715h.736v.715H2.04v-.86Zm0-5.081v-.716h.736v.716H2.04V-13.542h.736v.716H2.04v1.721Zm0-.861v-.715h.736v.715H2.04v7.663-.716h.737v.716H2.04v-7.663Zm0 8.523v-.715h.736v.715H2.04v.861-.716h.737v.716H2.04v-.86Zm0 1.722v-.716h.736v.716H2.04V0v-1.576h.737V0H2.04v-1.721Zm-.886-5.164V-7.6h.736v.715h-.736v.86-.714h.736v.715h-.736v-.86Zm0 1.721v-.715h.736v.715h-.736v.86-.715h.737v.716h-.737v-.86Zm0 1.721v-.715h.737v.715h-.737v.861-.716h.737v.716h-.737v-.86Zm0 1.722v-.716h.737v.716h-.737v.86-.715h.737v.715h-.737v-.86Zm0 1.72v-.715h.737V0h-.737v-13.542h.736v.716h-.736V0Zm0-11.965v-.715h.736v.715h-.736v.861-.716h.736v.716h-.736v-.861ZM0-6.885V-7.6h.737v.715H0v.86-.714h.737v.715H0v-.86Zm0 1.721v-.715h.737v.715H0v.86-.715h.737v.716H0v-.86Zm0 1.721v-.715h.737v.715H0v.861-.716h.737v.716H0v-.86ZM0-1.72v-.716h.737v.716H0v.86-.715h.737v.715H0v-.86Zm0 1.72v-.715h.737V0H0v-8.868h.737v.715H0V0Zm0-12.825v-.716h.737v.716H0v.86-.715h.737v.715H0v-.86Zm0 1.721v-.716h.737v.716H0v1.232-.716h.737v.716H0v-1.232Zm0 2.092v-.716h.737v.716H0Z"/></defs></g></g><g stroke-width=".26" stroke="#000" stroke-miterlimit="2" transform="matrix(-3.84 0 0 3.84 1100 721.06)"><use fill-rule="evenodd" stroke="none" xlinkHref="#mfid41"/><defs><path id="mfid42" d="M9.921-2.193h8.78L16.771 0h-13.7l-1.93-2.193h8.78Z"/></defs></g><g stroke="#000" stroke-miterlimit="2"><g stroke-width=".26" transform="matrix(0 -3.84 -3.84 0 1112.1 732.95)"><use fill-rule="evenodd" stroke="none" xlinkHref="#mfid42"/><defs><path id="mfid43" d="M9.921-2.193h8.78L16.771 0h-13.7l-1.93-2.193h8.78Zm9.922-.444H0"/></defs></g><g stroke-width=".13" transform="matrix(0 -3.84 -3.84 0 1112.1 732.95)"><use xlinkHref="#mfid43"/><defs><path id="mfid44" d="M0-62.3c0-.382.278-.692.622-.692h30.252c.344 0 .622.31.622.692V-.692c0 .382-.279.692-.622.692H.622C.278 0 0-.31 0-.692V-62.3Z"/></defs></g></g><g stroke="#000" stroke-miterlimit="2"><g stroke-width=".13" transform="matrix(3.84 0 0 -3.84 1071.3 325.18)"><use fill-rule="evenodd" stroke="none" xlinkHref="#mfid44"/><defs><path id="mfid45" d="M0-62.3c0-.382.278-.692.622-.692h30.252c.344 0 .622.31.622.692V-.692c0 .382-.279.692-.622.692H.622C.278 0 0-.31 0-.692V-62.3Z"/></defs></g><g stroke-width=".26" transform="matrix(3.84 0 0 -3.84 1071.3 325.18)"><use xlinkHref="#mfid45"/><defs><path id="mfid46" d="M4.252-2.126a2.126 2.126 0 1 0-4.252 0 2.126 2.126 0 0 0 4.252 0Z"/></defs></g></g><g stroke-width=".26" stroke="#000" stroke-miterlimit="2" transform="matrix(3.84 0 0 -3.84 1092.8 529.27)"><use fill-rule="evenodd" stroke="none" xlinkHref="#mfid46"/><defs><path id="mfid47" d="M2.953-1.476a1.476 1.476 0 1 0-2.953 0 1.476 1.476 0 0 0 2.953 0Z"/></defs></g><use fill-rule="evenodd" stroke="none" stroke-width=".26" stroke-miterlimit="2" transform="matrix(3.84 0 0 -3.84 1095.3 531.77)" xlinkHref="#mfid47"/></g><g mask="url(#mfid5)"><text stroke="none" x="0,16" transform="translate(1123.6 363.53)" font-family="'Calibri',swiss,sans-serif" font-weight="400" font-size="32" stroke-miterlimit="10">1</text></g><defs><path id="mfid48" d="M6.272 0c7.567 0 6.44-5 6.44-5l-.71-4.976c-.311-2.836-2.798-2.831-2.798-2.831H4.068C.908-12.325.73-9.532.73-9.532.635-8.728.032-4.593.032-4.593-.27-1.88 1.651-.803 1.651-.803 3.067 0 6.27 0 6.27 0ZM1.746-19.603s2.226-.24 5.005-.24 4.365.24 4.365.24c2.125.261 1.514 2.344 1.514 2.344-.023.224-.354 1.71-.449 1.983-.245.711-.704 1.193-1.333 1.455-.456.191-.93.322-1.418.323H3.432c-.489-.001-.962-.132-1.418-.323-.629-.262-1.087-.744-1.333-1.455-.095-.273-.426-1.759-.45-1.983 0 0-.61-2.083 1.515-2.344Z"/></defs><g mask="url(#mfid4)"><g stroke-width=".26" stroke="#000"><g stroke-miterlimit="2" transform="matrix(.05954 3.8395 3.8395 -.05954 1065.1 419.46)"><use fill-rule="evenodd" stroke="none" xlinkHref="#mfid48"/><defs><path id="mfid49" d="M6.272 0c7.567 0 6.44-5 6.44-5l-.71-4.976c-.311-2.836-2.798-2.831-2.798-2.831H4.068C.908-12.325.73-9.532.73-9.532.635-8.728.032-4.593.032-4.593-.27-1.88 1.651-.803 1.651-.803 3.067 0 6.27 0 6.27 0ZM1.746-19.603s2.226-.24 5.005-.24 4.365.24 4.365.24c2.125.261 1.514 2.344 1.514 2.344-.023.224-.354 1.71-.449 1.983-.245.711-.704 1.193-1.333 1.455-.456.191-.93.322-1.418.323H3.432c-.489-.001-.962-.132-1.418-.323-.629-.262-1.087-.744-1.333-1.455-.095-.273-.426-1.759-.45-1.983 0 0-.61-2.083 1.515-2.344Z"/></defs></g><g stroke-linecap="round" stroke-linejoin="round" transform="matrix(.05954 3.8395 3.8395 -.05954 1065.1 419.46)"><use xlinkHref="#mfid49"/><defs><path id="mfid50" d="M5.473-14.961s2.23-.205 5.008-.162c2.778.043 4.361.307 4.361.307.998.139 1.383.671 1.513 1.197.087-.356.398-2.038-1.496-2.301 0 0-1.583-.264-4.361-.307-2.778-.043-5.008.162-5.008.162-1.902.204-1.643 1.895-1.566 2.253.145-.521.547-1.041 1.549-1.149ZM19.837-1.755 18.405-7.21c-.475-1.685-1.245-1.585-1.551-1.53-.797.143-.682.892-.619 1.889l.67 5.324c.153.887.753 1.587 1.562 1.524.81-.063 1.424-.846 1.37-1.75ZM.007-2.062l1.601-5.41c.527-1.67 1.294-1.545 1.598-1.481.792.167.654.913.56 1.908l-.835 5.3C2.751-.862 2.13-.182 1.322-.27.515-.357-.074-1.16.008-2.062Zm3.937-1.496-.725-.011.262-1.67.718.033-.255 1.648ZM9.247-9.21l1.643.026.011-.691-1.643-.026-.01.691Zm6.702 5.838.725.011-.211-1.677-.717.011.203 1.655Z"/></defs></g></g><g stroke-width=".26" stroke="#000" stroke-linecap="round" stroke-linejoin="round" transform="matrix(0 3.84 3.84 0 1051.6 406.25)"><use fill-rule="evenodd" stroke="none" xlinkHref="#mfid50"/><defs><path id="mfid51" d="M5.473-14.961s2.23-.205 5.008-.162c2.778.043 4.361.307 4.361.307.998.139 1.383.671 1.513 1.197.087-.356.398-2.038-1.496-2.301 0 0-1.583-.264-4.361-.307-2.778-.043-5.008.162-5.008.162-1.902.204-1.643 1.895-1.566 2.253.145-.521.547-1.041 1.549-1.149ZM19.837-1.755 18.405-7.21c-.475-1.685-1.245-1.585-1.551-1.53-.797.143-.682.892-.619 1.889l.67 5.324c.153.887.753 1.587 1.562 1.524.81-.063 1.424-.846 1.37-1.75ZM.007-2.062l1.601-5.41c.527-1.67 1.294-1.545 1.598-1.481.792.167.654.913.56 1.908l-.835 5.3C2.751-.862 2.13-.182 1.322-.27.515-.357-.074-1.16.008-2.062Zm3.937-1.496-.725-.011.262-1.67.718.033-.255 1.648ZM9.247-9.21l1.643.026.011-.691-1.643-.026-.01.691Zm6.702 5.838.725.011-.211-1.677-.717.011.203 1.655Z"/></defs><use xlinkHref="#mfid51"/><defs><path id="mfid52" d="M10.247-17.081H5.894a.22.22 0 0 0-.224.218v13.994c0 .12.101.218.224.218h4.352a.22.22 0 0 0 .224-.218v-13.994a.22.22 0 0 0-.223-.218Zm-6.734 4.145v-.021h.69c.325 0 .589.311.589.695v4.694c0 .384-.264.696-.59.696h-.689v-6.064Zm0 0v10.098L.577 0 0-.211v-19.421l.577-.211 2.936 2.839v4.068Z"/></defs></g><g stroke-width=".26" stroke="#000"><g stroke-linecap="round" stroke-linejoin="round" transform="matrix(-3.84 0 0 3.84 1124.6 482.89)"><use fill-rule="evenodd" stroke="none" xlinkHref="#mfid52"/><defs><path id="mfid53" d="M10.247-17.081H5.894a.22.22 0 0 0-.224.218v13.994c0 .12.101.218.224.218h4.352a.22.22 0 0 0 .224-.218v-13.994a.22.22 0 0 0-.223-.218Zm-6.734 4.145v-.021h.69c.325 0 .589.311.589.695v4.694c0 .384-.264.696-.59.696h-.689v-6.064Zm0 0v10.098L.577 0 0-.211v-19.421l.577-.211 2.936 2.839v4.068Z"/></defs></g><g stroke-miterlimit="2" transform="matrix(-3.84 0 0 3.84 1124.6 482.89)"><use xlinkHref="#mfid53"/><defs><path id="mfid54" d="M2.926-12.826v-.716h.736v.716h-.736v.86-.715h.736v.715h-.736v-.86Zm0 1.721v-.716h.736v.716h-.736v1.232-.716h.736v.716h-.736v-1.232Zm0 2.092v-.716h.736v.716h-.736v.86-.715h.736v.715h-.736v-.86Zm0 2.128V-7.6h.736v.715h-.736v.86-.714h.736v.715h-.736v-.86Zm0 5.164V-5.88h.736v4.158h-.736v.86-.715h.736v.715h-.736v-.86Zm0 1.72v-.715h.736V0h-.736L2.04-9.013v-.716h.736v.716H2.04L2.926 0ZM2.04-6.023V-7.6h.736v1.576H2.04v.86-.715h.736v.715H2.04v-.86Zm0-5.081v-.716h.736v.716H2.04V-13.542h.736v.716H2.04v1.721Zm0-.861v-.715h.736v.715H2.04v7.663-.716h.737v.716H2.04v-7.663Zm0 8.523v-.715h.736v.715H2.04v.861-.716h.737v.716H2.04v-.86Zm0 1.722v-.716h.736v.716H2.04V0v-1.576h.737V0H2.04v-1.721Zm-.886-5.164V-7.6h.736v.715h-.736v.86-.714h.736v.715h-.736v-.86Zm0 1.721v-.715h.736v.715h-.736v.86-.715h.737v.716h-.737v-.86Zm0 1.721v-.715h.737v.715h-.737v.861-.716h.737v.716h-.737v-.86Zm0 1.722v-.716h.737v.716h-.737v.86-.715h.737v.715h-.737v-.86Zm0 1.72v-.715h.737V0h-.737v-13.542h.736v.716h-.736V0Zm0-11.965v-.715h.736v.715h-.736v.861-.716h.736v.716h-.736v-.861ZM0-6.885V-7.6h.737v.715H0v.86-.714h.737v.715H0v-.86Zm0 1.721v-.715h.737v.715H0v.86-.715h.737v.716H0v-.86Zm0 1.721v-.715h.737v.715H0v.861-.716h.737v.716H0v-.86ZM0-1.72v-.716h.737v.716H0v.86-.715h.737v.715H0v-.86Zm0 1.72v-.715h.737V0H0v-8.868h.737v.715H0V0Zm0-12.825v-.716h.737v.716H0v.86-.715h.737v.715H0v-.86Zm0 1.721v-.716h.737v.716H0v1.232-.716h.737v.716H0v-1.232Zm0 2.092v-.716h.737v.716H0Z"/></defs></g></g><g stroke-width=".26" stroke="#000" stroke-miterlimit="2" transform="matrix(-3.84 0 0 3.84 1100.2 471)"><use fill-rule="evenodd" stroke="none" xlinkHref="#mfid54"/><defs><path id="mfid55" d="M9.921-2.193h8.78L16.771 0h-13.7l-1.93-2.193h8.78Z"/></defs></g><g stroke="#000" stroke-miterlimit="2"><g stroke-width=".26" transform="matrix(0 -3.84 -3.84 0 1112.3 482.9)"><use fill-rule="evenodd" stroke="none" xlinkHref="#mfid55"/><defs><path id="mfid56" d="M9.921-2.193h8.78L16.771 0h-13.7l-1.93-2.193h8.78Zm9.922-.444H0"/></defs></g><g stroke-width=".13" transform="matrix(0 -3.84 -3.84 0 1112.3 482.9)"><use xlinkHref="#mfid56"/><defs><path id="mfid57" d="M0-62.3c0-.382.278-.692.622-.692h30.252c.344 0 .622.31.622.692V-.692c0 .382-.279.692-.622.692H.622C.278 0 0-.31 0-.692V-62.3Z"/></defs></g></g><g stroke="#000" stroke-miterlimit="2"><g stroke-width=".13" transform="matrix(3.84 0 0 -3.84 517.82 573.72)"><use fill-rule="evenodd" stroke="none" xlinkHref="#mfid57"/><defs><path id="mfid58" d="M0-62.3c0-.382.278-.692.622-.692h30.252c.344 0 .622.31.622.692V-.692c0 .382-.279.692-.622.692H.622C.278 0 0-.31 0-.692V-62.3Z"/></defs></g><g stroke-width=".26" transform="matrix(3.84 0 0 -3.84 517.82 573.72)"><use xlinkHref="#mfid58"/><defs><path id="mfid59" d="M4.252-2.126a2.126 2.126 0 1 0-4.252 0 2.126 2.126 0 0 0 4.252 0Z"/></defs></g></g><g stroke-width=".26" stroke="#000" stroke-miterlimit="2" transform="matrix(3.84 0 0 -3.84 539.29 777.81)"><use fill-rule="evenodd" stroke="none" xlinkHref="#mfid59"/><defs><path id="mfid60" d="M2.953-1.476a1.476 1.476 0 1 0-2.953 0 1.476 1.476 0 0 0 2.953 0Z"/></defs></g><use fill-rule="evenodd" stroke="none" stroke-width=".26" stroke-miterlimit="2" transform="matrix(3.84 0 0 -3.84 541.78 780.31)" xlinkHref="#mfid60"/></g><g mask="url(#mfid5)"><text stroke="none" x="0,16" transform="translate(565.22 631.73)" font-family="'Calibri',swiss,sans-serif" font-weight="400" font-size="32" stroke-miterlimit="10">6</text></g><defs><path id="mfid61" d="M6.272 0c7.567 0 6.44-5 6.44-5l-.71-4.976c-.311-2.836-2.798-2.831-2.798-2.831H4.068C.908-12.325.73-9.532.73-9.532.635-8.728.032-4.593.032-4.593-.27-1.88 1.651-.803 1.651-.803 3.067 0 6.27 0 6.27 0ZM1.746-19.603s2.226-.24 5.005-.24 4.365.24 4.365.24c2.125.261 1.514 2.344 1.514 2.344-.023.224-.354 1.71-.449 1.983-.245.711-.704 1.193-1.333 1.455-.456.191-.93.322-1.418.323H3.432c-.489-.001-.962-.132-1.418-.323-.629-.262-1.087-.744-1.333-1.455-.095-.273-.426-1.759-.45-1.983 0 0-.61-2.083 1.515-2.344Z"/></defs><g mask="url(#mfid4)"><g stroke-width=".26" stroke="#000"><g stroke-miterlimit="2" transform="matrix(.05954 3.8395 3.8395 -.05954 511.31 667.24)"><use fill-rule="evenodd" stroke="none" xlinkHref="#mfid61"/><defs><path id="mfid62" d="M6.272 0c7.567 0 6.44-5 6.44-5l-.71-4.976c-.311-2.836-2.798-2.831-2.798-2.831H4.068C.908-12.325.73-9.532.73-9.532.635-8.728.032-4.593.032-4.593-.27-1.88 1.651-.803 1.651-.803 3.067 0 6.27 0 6.27 0ZM1.746-19.603s2.226-.24 5.005-.24 4.365.24 4.365.24c2.125.261 1.514 2.344 1.514 2.344-.023.224-.354 1.71-.449 1.983-.245.711-.704 1.193-1.333 1.455-.456.191-.93.322-1.418.323H3.432c-.489-.001-.962-.132-1.418-.323-.629-.262-1.087-.744-1.333-1.455-.095-.273-.426-1.759-.45-1.983 0 0-.61-2.083 1.515-2.344Z"/></defs></g><g stroke-linecap="round" stroke-linejoin="round" transform="matrix(.05954 3.8395 3.8395 -.05954 511.31 667.24)"><use xlinkHref="#mfid62"/><defs><path id="mfid63" d="M5.473-14.961s2.23-.205 5.008-.162c2.778.043 4.361.307 4.361.307.998.139 1.383.671 1.513 1.197.087-.356.398-2.038-1.496-2.301 0 0-1.583-.264-4.361-.307-2.778-.043-5.008.162-5.008.162-1.902.204-1.643 1.895-1.566 2.253.145-.521.547-1.041 1.549-1.149ZM19.837-1.755 18.405-7.21c-.475-1.685-1.245-1.585-1.551-1.53-.797.143-.682.892-.619 1.889l.67 5.324c.153.887.753 1.587 1.562 1.524.81-.063 1.424-.846 1.37-1.75ZM.007-2.062l1.601-5.41c.527-1.67 1.294-1.545 1.598-1.481.792.167.654.913.56 1.908l-.835 5.3C2.751-.862 2.13-.182 1.322-.27.515-.357-.074-1.16.008-2.062Zm3.937-1.496-.725-.011.262-1.67.718.033-.255 1.648ZM9.247-9.21l1.643.026.011-.691-1.643-.026-.01.691Zm6.702 5.838.725.011-.211-1.677-.717.011.203 1.655Z"/></defs></g></g><g stroke-width=".26" stroke="#000" stroke-linecap="round" stroke-linejoin="round" transform="matrix(0 3.84 3.84 0 497.83 654.03)"><use fill-rule="evenodd" stroke="none" xlinkHref="#mfid63"/><defs><path id="mfid64" d="M5.473-14.961s2.23-.205 5.008-.162c2.778.043 4.361.307 4.361.307.998.139 1.383.671 1.513 1.197.087-.356.398-2.038-1.496-2.301 0 0-1.583-.264-4.361-.307-2.778-.043-5.008.162-5.008.162-1.902.204-1.643 1.895-1.566 2.253.145-.521.547-1.041 1.549-1.149ZM19.837-1.755 18.405-7.21c-.475-1.685-1.245-1.585-1.551-1.53-.797.143-.682.892-.619 1.889l.67 5.324c.153.887.753 1.587 1.562 1.524.81-.063 1.424-.846 1.37-1.75ZM.007-2.062l1.601-5.41c.527-1.67 1.294-1.545 1.598-1.481.792.167.654.913.56 1.908l-.835 5.3C2.751-.862 2.13-.182 1.322-.27.515-.357-.074-1.16.008-2.062Zm3.937-1.496-.725-.011.262-1.67.718.033-.255 1.648ZM9.247-9.21l1.643.026.011-.691-1.643-.026-.01.691Zm6.702 5.838.725.011-.211-1.677-.717.011.203 1.655Z"/></defs><use xlinkHref="#mfid64"/><defs><path id="mfid65" d="M10.247-17.081H5.894a.22.22 0 0 0-.224.218v13.994c0 .12.101.218.224.218h4.352a.22.22 0 0 0 .224-.218v-13.994a.22.22 0 0 0-.223-.218Zm-6.734 4.145v-.021h.69c.325 0 .589.311.589.695v4.694c0 .384-.264.696-.59.696h-.689v-6.064Zm0 0v10.098L.577 0 0-.211v-19.421l.577-.211 2.936 2.839v4.068Z"/></defs></g><g stroke-width=".26" stroke="#000"><g stroke-linecap="round" stroke-linejoin="round" transform="matrix(-3.84 0 0 3.84 570.8 730.67)"><use fill-rule="evenodd" stroke="none" xlinkHref="#mfid65"/><defs><path id="mfid66" d="M10.247-17.081H5.894a.22.22 0 0 0-.224.218v13.994c0 .12.101.218.224.218h4.352a.22.22 0 0 0 .224-.218v-13.994a.22.22 0 0 0-.223-.218Zm-6.734 4.145v-.021h.69c.325 0 .589.311.589.695v4.694c0 .384-.264.696-.59.696h-.689v-6.064Zm0 0v10.098L.577 0 0-.211v-19.421l.577-.211 2.936 2.839v4.068Z"/></defs></g><g stroke-miterlimit="2" transform="matrix(-3.84 0 0 3.84 570.8 730.67)"><use xlinkHref="#mfid66"/><defs><path id="mfid67" d="M2.926-12.826v-.716h.736v.716h-.736v.86-.715h.736v.715h-.736v-.86Zm0 1.721v-.716h.736v.716h-.736v1.232-.716h.736v.716h-.736v-1.232Zm0 2.092v-.716h.736v.716h-.736v.86-.715h.736v.715h-.736v-.86Zm0 2.128V-7.6h.736v.715h-.736v.86-.714h.736v.715h-.736v-.86Zm0 5.164V-5.88h.736v4.158h-.736v.86-.715h.736v.715h-.736v-.86Zm0 1.72v-.715h.736V0h-.736L2.04-9.013v-.716h.736v.716H2.04L2.926 0ZM2.04-6.023V-7.6h.736v1.576H2.04v.86-.715h.736v.715H2.04v-.86Zm0-5.081v-.716h.736v.716H2.04V-13.542h.736v.716H2.04v1.721Zm0-.861v-.715h.736v.715H2.04v7.663-.716h.737v.716H2.04v-7.663Zm0 8.523v-.715h.736v.715H2.04v.861-.716h.737v.716H2.04v-.86Zm0 1.722v-.716h.736v.716H2.04V0v-1.576h.737V0H2.04v-1.721Zm-.886-5.164V-7.6h.736v.715h-.736v.86-.714h.736v.715h-.736v-.86Zm0 1.721v-.715h.736v.715h-.736v.86-.715h.737v.716h-.737v-.86Zm0 1.721v-.715h.737v.715h-.737v.861-.716h.737v.716h-.737v-.86Zm0 1.722v-.716h.737v.716h-.737v.86-.715h.737v.715h-.737v-.86Zm0 1.72v-.715h.737V0h-.737v-13.542h.736v.716h-.736V0Zm0-11.965v-.715h.736v.715h-.736v.861-.716h.736v.716h-.736v-.861ZM0-6.885V-7.6h.737v.715H0v.86-.714h.737v.715H0v-.86Zm0 1.721v-.715h.737v.715H0v.86-.715h.737v.716H0v-.86Zm0 1.721v-.715h.737v.715H0v.861-.716h.737v.716H0v-.86ZM0-1.72v-.716h.737v.716H0v.86-.715h.737v.715H0v-.86Zm0 1.72v-.715h.737V0H0v-8.868h.737v.715H0V0Zm0-12.825v-.716h.737v.716H0v.86-.715h.737v.715H0v-.86Zm0 1.721v-.716h.737v.716H0v1.232-.716h.737v.716H0v-1.232Zm0 2.092v-.716h.737v.716H0Z"/></defs></g></g><g stroke-width=".26" stroke="#000" stroke-miterlimit="2" transform="matrix(-3.84 0 0 3.84 546.41 718.79)"><use fill-rule="evenodd" stroke="none" xlinkHref="#mfid67"/><defs><path id="mfid68" d="M9.921-2.193h8.78L16.771 0h-13.7l-1.93-2.193h8.78Z"/></defs></g><g stroke="#000" stroke-miterlimit="2"><g stroke-width=".26" transform="matrix(0 -3.84 -3.84 0 558.47 730.68)"><use fill-rule="evenodd" stroke="none" xlinkHref="#mfid68"/><defs><path id="mfid69" d="M9.921-2.193h8.78L16.771 0h-13.7l-1.93-2.193h8.78Zm9.922-.444H0"/></defs></g><g stroke-width=".13" transform="matrix(0 -3.84 -3.84 0 558.47 730.68)"><use xlinkHref="#mfid69"/><defs><path id="mfid70" d="M0-62.3c0-.382.278-.692.622-.692h30.252c.344 0 .622.31.622.692V-.692c0 .382-.279.692-.622.692H.622C.278 0 0-.31 0-.692V-62.3Z"/></defs></g></g><g stroke="#000" stroke-miterlimit="2"><g stroke-width=".13" transform="matrix(-3.84 0 0 3.84 768.37 815.61)"><use fill-rule="evenodd" stroke="none" xlinkHref="#mfid70"/><defs><path id="mfid71" d="M0-62.3c0-.382.278-.692.622-.692h30.252c.344 0 .622.31.622.692V-.692c0 .382-.279.692-.622.692H.622C.278 0 0-.31 0-.692V-62.3Z"/></defs></g><g stroke-width=".26" transform="matrix(-3.84 0 0 3.84 768.37 815.61)"><use xlinkHref="#mfid71"/><defs><path id="mfid72" d="M4.252-2.126a2.126 2.126 0 1 0-4.252 0 2.126 2.126 0 0 0 4.252 0Z"/></defs></g></g><g stroke-width=".26" stroke="#000" stroke-miterlimit="2" transform="matrix(-3.84 0 0 3.84 746.9 611.52)"><use fill-rule="evenodd" stroke="none" xlinkHref="#mfid72"/><defs><path id="mfid73" d="M2.953-1.476a1.476 1.476 0 1 0-2.953 0 1.476 1.476 0 0 0 2.953 0Z"/></defs></g><use fill-rule="evenodd" stroke="none" stroke-width=".26" stroke-miterlimit="2" transform="matrix(-3.84 0 0 3.84 744.41 609.02)" xlinkHref="#mfid73"/></g><g mask="url(#mfid5)"><text stroke="none" x="0,16" transform="translate(695.83 631.73)" font-family="'Calibri',swiss,sans-serif" font-weight="400" font-size="32" stroke-miterlimit="10">3</text></g><defs><path id="mfid74" d="M6.272 0c7.567 0 6.44-5 6.44-5l-.71-4.976c-.311-2.836-2.798-2.831-2.798-2.831H4.068C.908-12.325.73-9.532.73-9.532.635-8.728.032-4.593.032-4.593-.27-1.88 1.651-.803 1.651-.803 3.067 0 6.27 0 6.27 0ZM1.746-19.603s2.226-.24 5.005-.24 4.365.24 4.365.24c2.125.261 1.514 2.344 1.514 2.344-.023.224-.354 1.71-.449 1.983-.245.711-.704 1.193-1.333 1.455-.456.191-.93.322-1.418.323H3.432c-.489-.001-.962-.132-1.418-.323-.629-.262-1.087-.744-1.333-1.455-.095-.273-.426-1.759-.45-1.983 0 0-.61-2.083 1.515-2.344Z"/></defs><g mask="url(#mfid4)"><g stroke-width=".26" stroke="#000"><g stroke-miterlimit="2" transform="matrix(-.05954 -3.8395 -3.8395 .05954 774.61 721.33)"><use fill-rule="evenodd" stroke="none" xlinkHref="#mfid74"/><defs><path id="mfid75" d="M6.272 0c7.567 0 6.44-5 6.44-5l-.71-4.976c-.311-2.836-2.798-2.831-2.798-2.831H4.068C.908-12.325.73-9.532.73-9.532.635-8.728.032-4.593.032-4.593-.27-1.88 1.651-.803 1.651-.803 3.067 0 6.27 0 6.27 0ZM1.746-19.603s2.226-.24 5.005-.24 4.365.24 4.365.24c2.125.261 1.514 2.344 1.514 2.344-.023.224-.354 1.71-.449 1.983-.245.711-.704 1.193-1.333 1.455-.456.191-.93.322-1.418.323H3.432c-.489-.001-.962-.132-1.418-.323-.629-.262-1.087-.744-1.333-1.455-.095-.273-.426-1.759-.45-1.983 0 0-.61-2.083 1.515-2.344Z"/></defs></g><g stroke-linecap="round" stroke-linejoin="round" transform="matrix(-.05954 -3.8395 -3.8395 .05954 774.61 721.33)"><use xlinkHref="#mfid75"/><defs><path id="mfid76" d="M5.473-14.961s2.23-.205 5.008-.162c2.778.043 4.361.307 4.361.307.998.139 1.383.671 1.513 1.197.087-.356.398-2.038-1.496-2.301 0 0-1.583-.264-4.361-.307-2.778-.043-5.008.162-5.008.162-1.902.204-1.643 1.895-1.566 2.253.145-.521.547-1.041 1.549-1.149ZM19.837-1.755 18.405-7.21c-.475-1.685-1.245-1.585-1.551-1.53-.797.143-.682.892-.619 1.889l.67 5.324c.153.887.753 1.587 1.562 1.524.81-.063 1.424-.846 1.37-1.75ZM.007-2.062l1.601-5.41c.527-1.67 1.294-1.545 1.598-1.481.792.167.654.913.56 1.908l-.835 5.3C2.751-.862 2.13-.182 1.322-.27.515-.357-.074-1.16.008-2.062Zm3.937-1.496-.725-.011.262-1.67.718.033-.255 1.648ZM9.247-9.21l1.643.026.011-.691-1.643-.026-.01.691Zm6.702 5.838.725.011-.211-1.677-.717.011.203 1.655Z"/></defs></g></g><g stroke-width=".26" stroke="#000" stroke-linecap="round" stroke-linejoin="round" transform="matrix(0 -3.84 -3.84 0 788.08 734.54)"><use fill-rule="evenodd" stroke="none" xlinkHref="#mfid76"/><defs><path id="mfid77" d="M5.473-14.961s2.23-.205 5.008-.162c2.778.043 4.361.307 4.361.307.998.139 1.383.671 1.513 1.197.087-.356.398-2.038-1.496-2.301 0 0-1.583-.264-4.361-.307-2.778-.043-5.008.162-5.008.162-1.902.204-1.643 1.895-1.566 2.253.145-.521.547-1.041 1.549-1.149ZM19.837-1.755 18.405-7.21c-.475-1.685-1.245-1.585-1.551-1.53-.797.143-.682.892-.619 1.889l.67 5.324c.153.887.753 1.587 1.562 1.524.81-.063 1.424-.846 1.37-1.75ZM.007-2.062l1.601-5.41c.527-1.67 1.294-1.545 1.598-1.481.792.167.654.913.56 1.908l-.835 5.3C2.751-.862 2.13-.182 1.322-.27.515-.357-.074-1.16.008-2.062Zm3.937-1.496-.725-.011.262-1.67.718.033-.255 1.648ZM9.247-9.21l1.643.026.011-.691-1.643-.026-.01.691Zm6.702 5.838.725.011-.211-1.677-.717.011.203 1.655Z"/></defs><use xlinkHref="#mfid77"/><defs><path id="mfid78" d="M10.247-17.081H5.894a.22.22 0 0 0-.224.218v13.994c0 .12.101.218.224.218h4.352a.22.22 0 0 0 .224-.218v-13.994a.22.22 0 0 0-.223-.218Zm-6.734 4.145v-.021h.69c.325 0 .589.311.589.695v4.694c0 .384-.264.696-.59.696h-.689v-6.064Zm0 0v10.098L.577 0 0-.211v-19.421l.577-.211 2.936 2.839v4.068Z"/></defs></g><g stroke-width=".26" stroke="#000"><g stroke-linecap="round" stroke-linejoin="round" transform="matrix(3.84 0 0 -3.84 715.12 657.9)"><use fill-rule="evenodd" stroke="none" xlinkHref="#mfid78"/><defs><path id="mfid79" d="M10.247-17.081H5.894a.22.22 0 0 0-.224.218v13.994c0 .12.101.218.224.218h4.352a.22.22 0 0 0 .224-.218v-13.994a.22.22 0 0 0-.223-.218Zm-6.734 4.145v-.021h.69c.325 0 .589.311.589.695v4.694c0 .384-.264.696-.59.696h-.689v-6.064Zm0 0v10.098L.577 0 0-.211v-19.421l.577-.211 2.936 2.839v4.068Z"/></defs></g><g stroke-miterlimit="2" transform="matrix(3.84 0 0 -3.84 715.12 657.9)"><use xlinkHref="#mfid79"/><defs><path id="mfid80" d="M2.926-12.826v-.716h.736v.716h-.736v.86-.715h.736v.715h-.736v-.86Zm0 1.721v-.716h.736v.716h-.736v1.232-.716h.736v.716h-.736v-1.232Zm0 2.092v-.716h.736v.716h-.736v.86-.715h.736v.715h-.736v-.86Zm0 2.128V-7.6h.736v.715h-.736v.86-.714h.736v.715h-.736v-.86Zm0 5.164V-5.88h.736v4.158h-.736v.86-.715h.736v.715h-.736v-.86Zm0 1.72v-.715h.736V0h-.736L2.04-9.013v-.716h.736v.716H2.04L2.926 0ZM2.04-6.023V-7.6h.736v1.576H2.04v.86-.715h.736v.715H2.04v-.86Zm0-5.081v-.716h.736v.716H2.04V-13.542h.736v.716H2.04v1.721Zm0-.861v-.715h.736v.715H2.04v7.663-.716h.737v.716H2.04v-7.663Zm0 8.523v-.715h.736v.715H2.04v.861-.716h.737v.716H2.04v-.86Zm0 1.722v-.716h.736v.716H2.04V0v-1.576h.737V0H2.04v-1.721Zm-.886-5.164V-7.6h.736v.715h-.736v.86-.714h.736v.715h-.736v-.86Zm0 1.721v-.715h.736v.715h-.736v.86-.715h.737v.716h-.737v-.86Zm0 1.721v-.715h.737v.715h-.737v.861-.716h.737v.716h-.737v-.86Zm0 1.722v-.716h.737v.716h-.737v.86-.715h.737v.715h-.737v-.86Zm0 1.72v-.715h.737V0h-.737v-13.542h.736v.716h-.736V0Zm0-11.965v-.715h.736v.715h-.736v.861-.716h.736v.716h-.736v-.861ZM0-6.885V-7.6h.737v.715H0v.86-.714h.737v.715H0v-.86Zm0 1.721v-.715h.737v.715H0v.86-.715h.737v.716H0v-.86Zm0 1.721v-.715h.737v.715H0v.861-.716h.737v.716H0v-.86ZM0-1.72v-.716h.737v.716H0v.86-.715h.737v.715H0v-.86Zm0 1.72v-.715h.737V0H0v-8.868h.737v.715H0V0Zm0-12.825v-.716h.737v.716H0v.86-.715h.737v.715H0v-.86Zm0 1.721v-.716h.737v.716H0v1.232-.716h.737v.716H0v-1.232Zm0 2.092v-.716h.737v.716H0Z"/></defs></g></g><g stroke-width=".26" stroke="#000" stroke-miterlimit="2" transform="matrix(3.84 0 0 -3.84 739.5 669.79)"><use fill-rule="evenodd" stroke="none" xlinkHref="#mfid80"/><defs><path id="mfid81" d="M9.921-2.193h8.78L16.771 0h-13.7l-1.93-2.193h8.78Z"/></defs></g><g stroke="#000" stroke-miterlimit="2"><g stroke-width=".26" transform="matrix(0 3.84 3.84 0 727.44 657.89)"><use fill-rule="evenodd" stroke="none" xlinkHref="#mfid81"/><defs><path id="mfid82" d="M9.921-2.193h8.78L16.771 0h-13.7l-1.93-2.193h8.78Zm9.922-.444H0"/></defs></g><use stroke-width=".13" transform="matrix(0 3.84 3.84 0 727.44 657.89)" xlinkHref="#mfid82"/></g><g stroke="#000"><g stroke-width=".13" stroke-miterlimit="2" transform="matrix(3.84 0 0 -3.84 647.43 565.41)"><path stroke="none" d="M0-1.968h31.496V0H0z"/><defs><path id="mfid83" d="M0 0h31.496v-1.968H0V0Z"/></defs></g><use stroke-width=".083" stroke-linecap="round" stroke-linejoin="round" transform="matrix(3.84 0 0 -3.84 647.43 565.41)" xlinkHref="#mfid83"/></g><g stroke-width=".083" stroke="#000" stroke-linecap="round" stroke-linejoin="round" transform="matrix(3.84 0 0 -3.84 517.82 565.41)"><path stroke="none" d="M0-1.968h31.496V0H0z"/><defs><path id="mfid84" d="M0 0h31.496v-1.968H0V0Z"/></defs><use xlinkHref="#mfid84"/><defs><path id="mfid85" d="M0 0h62.992v-1.968H0V0Z"/></defs></g><g stroke-width=".083" stroke="#000" stroke-linecap="round" stroke-linejoin="round" transform="matrix(0 -3.84 -3.84 0 639.24 564.65)"><use fill-rule="evenodd" stroke="none" xlinkHref="#mfid85"/><defs><path id="mfid86" d="M0 0h62.992v-1.968H0V0Z"/></defs><use xlinkHref="#mfid86"/><defs><path id="mfid87" d="M0-62.3c0-.382.278-.692.622-.692h30.252c.344 0 .622.31.622.692V-.692c0 .382-.279.692-.622.692H.622C.278 0 0-.31 0-.692V-62.3Z"/></defs></g><g stroke="#000"><g stroke-width=".083" stroke-linecap="round" stroke-linejoin="round" transform="matrix(-3.84 0 0 3.84 768.37 564.65)"><use fill-rule="evenodd" stroke="none" xlinkHref="#mfid87"/><defs><path id="mfid88" d="M0-62.3c0-.382.278-.692.622-.692h30.252c.344 0 .622.31.622.692V-.692c0 .382-.279.692-.622.692H.622C.278 0 0-.31 0-.692V-62.3Z"/></defs></g><g stroke-width=".26" stroke-miterlimit="2" transform="matrix(-3.84 0 0 3.84 768.37 564.65)"><use xlinkHref="#mfid88"/><defs><path id="mfid89" d="M4.252-2.126a2.126 2.126 0 1 0-4.252 0 2.126 2.126 0 0 0 4.252 0Z"/></defs></g></g><g stroke-width=".26" stroke="#000" stroke-miterlimit="2" transform="matrix(-3.84 0 0 3.84 746.9 360.56)"><use fill-rule="evenodd" stroke="none" xlinkHref="#mfid89"/><defs><path id="mfid90" d="M2.953-1.476a1.476 1.476 0 1 0-2.953 0 1.476 1.476 0 0 0 2.953 0Z"/></defs></g><use fill-rule="evenodd" stroke="none" stroke-width=".26" stroke-miterlimit="2" transform="matrix(-3.84 0 0 3.84 744.41 358.06)" xlinkHref="#mfid90"/></g><g mask="url(#mfid5)"><text stroke="none" x="0,16" transform="translate(700.65 364.29)" font-family="'Calibri',swiss,sans-serif" font-weight="400" font-size="32" stroke-miterlimit="10">4</text></g><defs><path id="mfid91" d="M6.272 0c7.567 0 6.44-5 6.44-5l-.71-4.976c-.311-2.836-2.798-2.831-2.798-2.831H4.068C.908-12.325.73-9.532.73-9.532.635-8.728.032-4.593.032-4.593-.27-1.88 1.651-.803 1.651-.803 3.067 0 6.27 0 6.27 0ZM1.746-19.603s2.226-.24 5.005-.24 4.365.24 4.365.24c2.125.261 1.514 2.344 1.514 2.344-.023.224-.354 1.71-.449 1.983-.245.711-.704 1.193-1.333 1.455-.456.191-.93.322-1.418.323H3.432c-.489-.001-.962-.132-1.418-.323-.629-.262-1.087-.744-1.333-1.455-.095-.273-.426-1.759-.45-1.983 0 0-.61-2.083 1.515-2.344Z"/></defs><g mask="url(#mfid4)"><g stroke-width=".26" stroke="#000"><g stroke-miterlimit="2" transform="matrix(-.05954 -3.8395 -3.8395 .05954 774.61 470.37)"><use fill-rule="evenodd" stroke="none" xlinkHref="#mfid91"/><defs><path id="mfid92" d="M6.272 0c7.567 0 6.44-5 6.44-5l-.71-4.976c-.311-2.836-2.798-2.831-2.798-2.831H4.068C.908-12.325.73-9.532.73-9.532.635-8.728.032-4.593.032-4.593-.27-1.88 1.651-.803 1.651-.803 3.067 0 6.27 0 6.27 0ZM1.746-19.603s2.226-.24 5.005-.24 4.365.24 4.365.24c2.125.261 1.514 2.344 1.514 2.344-.023.224-.354 1.71-.449 1.983-.245.711-.704 1.193-1.333 1.455-.456.191-.93.322-1.418.323H3.432c-.489-.001-.962-.132-1.418-.323-.629-.262-1.087-.744-1.333-1.455-.095-.273-.426-1.759-.45-1.983 0 0-.61-2.083 1.515-2.344Z"/></defs></g><g stroke-linecap="round" stroke-linejoin="round" transform="matrix(-.05954 -3.8395 -3.8395 .05954 774.61 470.37)"><use xlinkHref="#mfid92"/><defs><path id="mfid93" d="M5.473-14.961s2.23-.205 5.008-.162c2.778.043 4.361.307 4.361.307.998.139 1.383.671 1.513 1.197.087-.356.398-2.038-1.496-2.301 0 0-1.583-.264-4.361-.307-2.778-.043-5.008.162-5.008.162-1.902.204-1.643 1.895-1.566 2.253.145-.521.547-1.041 1.549-1.149ZM19.837-1.755 18.405-7.21c-.475-1.685-1.245-1.585-1.551-1.53-.797.143-.682.892-.619 1.889l.67 5.324c.153.887.753 1.587 1.562 1.524.81-.063 1.424-.846 1.37-1.75ZM.007-2.062l1.601-5.41c.527-1.67 1.294-1.545 1.598-1.481.792.167.654.913.56 1.908l-.835 5.3C2.751-.862 2.13-.182 1.322-.27.515-.357-.074-1.16.008-2.062Zm3.937-1.496-.725-.011.262-1.67.718.033-.255 1.648ZM9.247-9.21l1.643.026.011-.691-1.643-.026-.01.691Zm6.702 5.838.725.011-.211-1.677-.717.011.203 1.655Z"/></defs></g></g><g stroke-width=".26" stroke="#000" stroke-linecap="round" stroke-linejoin="round" transform="matrix(0 -3.84 -3.84 0 788.08 483.58)"><use fill-rule="evenodd" stroke="none" xlinkHref="#mfid93"/><defs><path id="mfid94" d="M5.473-14.961s2.23-.205 5.008-.162c2.778.043 4.361.307 4.361.307.998.139 1.383.671 1.513 1.197.087-.356.398-2.038-1.496-2.301 0 0-1.583-.264-4.361-.307-2.778-.043-5.008.162-5.008.162-1.902.204-1.643 1.895-1.566 2.253.145-.521.547-1.041 1.549-1.149ZM19.837-1.755 18.405-7.21c-.475-1.685-1.245-1.585-1.551-1.53-.797.143-.682.892-.619 1.889l.67 5.324c.153.887.753 1.587 1.562 1.524.81-.063 1.424-.846 1.37-1.75ZM.007-2.062l1.601-5.41c.527-1.67 1.294-1.545 1.598-1.481.792.167.654.913.56 1.908l-.835 5.3C2.751-.862 2.13-.182 1.322-.27.515-.357-.074-1.16.008-2.062Zm3.937-1.496-.725-.011.262-1.67.718.033-.255 1.648ZM9.247-9.21l1.643.026.011-.691-1.643-.026-.01.691Zm6.702 5.838.725.011-.211-1.677-.717.011.203 1.655Z"/></defs><use xlinkHref="#mfid94"/><defs><path id="mfid95" d="M10.247-17.081H5.894a.22.22 0 0 0-.224.218v13.994c0 .12.101.218.224.218h4.352a.22.22 0 0 0 .224-.218v-13.994a.22.22 0 0 0-.223-.218Zm-6.734 4.145v-.021h.69c.325 0 .589.311.589.695v4.694c0 .384-.264.696-.59.696h-.689v-6.064Zm0 0v10.098L.577 0 0-.211v-19.421l.577-.211 2.936 2.839v4.068Z"/></defs></g><g stroke-width=".26" stroke="#000"><g stroke-linecap="round" stroke-linejoin="round" transform="matrix(3.84 0 0 -3.84 715.12 406.94)"><use fill-rule="evenodd" stroke="none" xlinkHref="#mfid95"/><defs><path id="mfid96" d="M10.247-17.081H5.894a.22.22 0 0 0-.224.218v13.994c0 .12.101.218.224.218h4.352a.22.22 0 0 0 .224-.218v-13.994a.22.22 0 0 0-.223-.218Zm-6.734 4.145v-.021h.69c.325 0 .589.311.589.695v4.694c0 .384-.264.696-.59.696h-.689v-6.064Zm0 0v10.098L.577 0 0-.211v-19.421l.577-.211 2.936 2.839v4.068Z"/></defs></g><g stroke-miterlimit="2" transform="matrix(3.84 0 0 -3.84 715.12 406.94)"><use xlinkHref="#mfid96"/><defs><path id="mfid97" d="M2.926-12.826v-.716h.736v.716h-.736v.86-.715h.736v.715h-.736v-.86Zm0 1.721v-.716h.736v.716h-.736v1.232-.716h.736v.716h-.736v-1.232Zm0 2.092v-.716h.736v.716h-.736v.86-.715h.736v.715h-.736v-.86Zm0 2.128V-7.6h.736v.715h-.736v.86-.714h.736v.715h-.736v-.86Zm0 5.164V-5.88h.736v4.158h-.736v.86-.715h.736v.715h-.736v-.86Zm0 1.72v-.715h.736V0h-.736L2.04-9.013v-.716h.736v.716H2.04L2.926 0ZM2.04-6.023V-7.6h.736v1.576H2.04v.86-.715h.736v.715H2.04v-.86Zm0-5.081v-.716h.736v.716H2.04V-13.542h.736v.716H2.04v1.721Zm0-.861v-.715h.736v.715H2.04v7.663-.716h.737v.716H2.04v-7.663Zm0 8.523v-.715h.736v.715H2.04v.861-.716h.737v.716H2.04v-.86Zm0 1.722v-.716h.736v.716H2.04V0v-1.576h.737V0H2.04v-1.721Zm-.886-5.164V-7.6h.736v.715h-.736v.86-.714h.736v.715h-.736v-.86Zm0 1.721v-.715h.736v.715h-.736v.86-.715h.737v.716h-.737v-.86Zm0 1.721v-.715h.737v.715h-.737v.861-.716h.737v.716h-.737v-.86Zm0 1.722v-.716h.737v.716h-.737v.86-.715h.737v.715h-.737v-.86Zm0 1.72v-.715h.737V0h-.737v-13.542h.736v.716h-.736V0Zm0-11.965v-.715h.736v.715h-.736v.861-.716h.736v.716h-.736v-.861ZM0-6.885V-7.6h.737v.715H0v.86-.714h.737v.715H0v-.86Zm0 1.721v-.715h.737v.715H0v.86-.715h.737v.716H0v-.86Zm0 1.721v-.715h.737v.715H0v.861-.716h.737v.716H0v-.86ZM0-1.72v-.716h.737v.716H0v.86-.715h.737v.715H0v-.86Zm0 1.72v-.715h.737V0H0v-8.868h.737v.715H0V0Zm0-12.825v-.716h.737v.716H0v.86-.715h.737v.715H0v-.86Zm0 1.721v-.716h.737v.716H0v1.232-.716h.737v.716H0v-1.232Zm0 2.092v-.716h.737v.716H0Z"/></defs></g></g><g stroke-width=".26" stroke="#000" stroke-miterlimit="2" transform="matrix(3.84 0 0 -3.84 739.5 418.82)"><use fill-rule="evenodd" stroke="none" xlinkHref="#mfid97"/><defs><path id="mfid98" d="M9.921-2.193h8.78L16.771 0h-13.7l-1.93-2.193h8.78Z"/></defs></g><g stroke="#000" stroke-miterlimit="2"><g stroke-width=".26" transform="matrix(0 3.84 3.84 0 727.44 406.93)"><use fill-rule="evenodd" stroke="none" xlinkHref="#mfid98"/><defs><path id="mfid99" d="M9.921-2.193h8.78L16.771 0h-13.7l-1.93-2.193h8.78Zm9.922-.444H0"/></defs></g><use stroke-width=".13" transform="matrix(0 3.84 3.84 0 727.44 406.93)" xlinkHref="#mfid99"/></g><g stroke="#000"><g stroke-width=".13" stroke-miterlimit="2" transform="matrix(3.84 0 0 -3.84 1072.7 567.22)"><path stroke="none" d="M0-1.968h31.496V0H0z"/><defs><path id="mfid100" d="M0 0h31.496v-1.968H0V0Z"/></defs></g><use stroke-width=".083" stroke-linecap="round" stroke-linejoin="round" transform="matrix(3.84 0 0 -3.84 1072.7 567.22)" xlinkHref="#mfid100"/></g><g stroke-width=".083" stroke-linecap="round" stroke-linejoin="round"><g stroke="#000" transform="matrix(-3.84 0 0 3.84 451.3 160.24)"><path stroke="none" d="M-1.968-5.955h39.37V.05h-39.37z"/><defs><path id="mfid101" d="M-1.968.05h39.37v-6.005h-39.37V.05Z"/></defs></g><g stroke="#fff" transform="matrix(-3.84 0 0 3.84 451.3 160.24)"><use xlinkHref="#mfid101"/><defs><path id="mfid102" d="M39.37 0v-5.905h-1.968V0h1.968ZM0 0v-5.905h1.968V0H0Z"/></defs></g></g><g stroke-width=".083" stroke-linecap="round" stroke-linejoin="round"><g stroke="#fff" transform="matrix(-3.84 0 0 3.84 458.86 160.24)"><use fill-rule="evenodd" stroke="none" xlinkHref="#mfid102"/><defs><path id="mfid103" d="M39.37 0v-5.905h-1.968v1.968m0 1.968V0h1.968M0 0v-5.905h1.968v1.968m0 1.968V0H0"/></defs></g><g stroke="#000" transform="matrix(-3.84 0 0 3.84 458.86 160.24)"><use xlinkHref="#mfid103"/><defs><path id="mfid104" d="M35.433-1.968h-.787V0h.787v-1.968ZM0-1.968h.787V0H0v-1.968Z"/></defs></g></g><g stroke-width=".083" stroke="#000" stroke-linecap="round" stroke-linejoin="round" transform="matrix(-3.84 0 0 3.84 451.3 152.68)"><use fill-rule="evenodd" stroke="none" xlinkHref="#mfid104"/><defs><path id="mfid105" d="M35.433-1.968h-.787V0h.787M0-1.968h.787V0H0"/></defs><use xlinkHref="#mfid105"/><defs><path id="mfid106" d="M39.37 0v-5.905M0 0v-5.905"/></defs></g><g stroke-width=".083" stroke="#000" stroke-linecap="round" stroke-linejoin="round" transform="matrix(-3.84 0 0 3.84 458.86 160.24)"><use xlinkHref="#mfid106"/><defs><path id="mfid107" d="M0 0a35.431 35.431 0 0 1 8.484-23.005"/></defs></g><g stroke-width=".083" stroke="#000" stroke-linecap="round" stroke-linejoin="round" transform="matrix(-3.84 0 0 3.84 451.3 137.56)"><use xlinkHref="#mfid107"/><defs><path id="mfid108" d="M0 0h35.433v-1.968H0V0Z"/></defs></g><g stroke-width=".083" stroke="#000" stroke-linecap="round" stroke-linejoin="round" transform="scale(-3.84 3.84) rotate(40.486 -74.569 -142.415)"><use fill-rule="evenodd" stroke="none" xlinkHref="#mfid108"/><defs><path id="mfid109" d="M0 0h35.433v-1.968H0V0Z"/></defs><use xlinkHref="#mfid109"/></g><g stroke-width=".083" stroke-linecap="round" stroke-linejoin="round"><g stroke="#000" transform="matrix(3.84 0 0 3.84 316.75 842.07)"><path stroke="none" d="M0-5.955h43.307V.05H0z"/><defs><path id="mfid110" d="M0 .05h43.307v-6.005H0V.05Z"/></defs></g><g stroke="#fff" transform="matrix(3.84 0 0 3.84 316.75 842.07)"><use xlinkHref="#mfid110"/><defs><path id="mfid111" d="M0 0v-5.905h1.968V0H0Zm43.307 0v-5.905h-1.968V0h1.968Z"/></defs><use fill-rule="evenodd" stroke="none" xlinkHref="#mfid111"/><defs><path id="mfid112" d="M0 0v-5.905h1.968v1.968m0 1.968V0H0m43.307 0v-5.905h-1.968v1.968m0 1.968V0h1.968"/></defs></g><g stroke="#000" transform="matrix(3.84 0 0 3.84 316.75 842.07)"><use xlinkHref="#mfid112"/><defs><path id="mfid113" d="M0-1.968h1.968V0H0v-1.968Zm39.37 0h-1.968V0h1.968v-1.968Z"/></defs></g></g><g stroke-width=".083" stroke="#000" stroke-linecap="round" stroke-linejoin="round" transform="matrix(3.84 0 0 3.84 324.31 834.51)"><use fill-rule="evenodd" stroke="none" xlinkHref="#mfid113"/><defs><path id="mfid114" d="M0-1.968h1.968V0H0v-1.968Zm39.37 0h-1.968V0h1.968v-1.968Z"/></defs><use xlinkHref="#mfid114"/><defs><path id="mfid115" d="M0 0h35.433"/></defs></g><g stroke-width=".083" stroke="#000" stroke-linecap="round" stroke-linejoin="round" transform="matrix(3.84 0 0 3.84 331.86 830.73)"><use xlinkHref="#mfid115"/><defs><path id="mfid116" d="M0 0v-5.905M43.307 0v-5.905"/></defs></g><use stroke-width=".083" stroke="#000" stroke-linecap="round" stroke-linejoin="round" transform="matrix(3.84 0 0 3.84 316.75 842.07)" xlinkHref="#mfid116"/><g stroke-width=".083" stroke-linecap="round" stroke-linejoin="round"><g stroke="#000" transform="matrix(3.84 0 0 3.84 558.64 842.07)"><path stroke="none" d="M0-5.955h43.307V.05H0z"/><defs><path id="mfid117" d="M0 .05h43.307v-6.005H0V.05Z"/></defs></g><g stroke="#fff" transform="matrix(3.84 0 0 3.84 558.64 842.07)"><use xlinkHref="#mfid117"/><defs><path id="mfid118" d="M0 0v-5.905h1.968V0H0Zm43.307 0v-5.905h-1.968V0h1.968Z"/></defs><use fill-rule="evenodd" stroke="none" xlinkHref="#mfid118"/><defs><path id="mfid119" d="M0 0v-5.905h1.968v1.968m0 1.968V0H0m43.307 0v-5.905h-1.968v1.968m0 1.968V0h1.968"/></defs></g><g stroke="#000" transform="matrix(3.84 0 0 3.84 558.64 842.07)"><use xlinkHref="#mfid119"/><defs><path id="mfid120" d="M0-1.968h1.968V0H0v-1.968Zm39.37 0h-1.968V0h1.968v-1.968Z"/></defs></g></g><g stroke-width=".083" stroke="#000" stroke-linecap="round" stroke-linejoin="round" transform="matrix(3.84 0 0 3.84 566.2 834.51)"><use fill-rule="evenodd" stroke="none" xlinkHref="#mfid120"/><defs><path id="mfid121" d="M0-1.968h1.968V0H0v-1.968Zm39.37 0h-1.968V0h1.968v-1.968Z"/></defs><use xlinkHref="#mfid121"/><defs><path id="mfid122" d="M0 0h35.433"/></defs></g><g stroke-width=".083" stroke="#000" stroke-linecap="round" stroke-linejoin="round" transform="matrix(3.84 0 0 3.84 573.75 830.73)"><use xlinkHref="#mfid122"/><defs><path id="mfid123" d="M0 0v-5.905M43.307 0v-5.905"/></defs></g><g stroke-width=".083" stroke="#000" stroke-linecap="round" stroke-linejoin="round" transform="matrix(3.84 0 0 3.84 558.64 842.07)"><use xlinkHref="#mfid123"/><defs><path id="mfid124" d="M0-62.3c0-.382.278-.692.622-.692h30.252c.344 0 .622.31.622.692V-.692c0 .382-.279.692-.622.692H.622C.278 0 0-.31 0-.692V-62.3Z"/></defs></g><g stroke="#000"><g stroke-width=".083" stroke-linecap="round" stroke-linejoin="round" transform="matrix(3.84 0 0 -3.84 517.82 322.76)"><use fill-rule="evenodd" stroke="none" xlinkHref="#mfid124"/><defs><path id="mfid125" d="M0-62.3c0-.382.278-.692.622-.692h30.252c.344 0 .622.31.622.692V-.692c0 .382-.279.692-.622.692H.622C.278 0 0-.31 0-.692V-62.3Z"/></defs></g><g stroke-width=".26" stroke-miterlimit="2" transform="matrix(3.84 0 0 -3.84 517.82 322.76)"><use xlinkHref="#mfid125"/><defs><path id="mfid126" d="M4.252-2.126a2.126 2.126 0 1 0-4.252 0 2.126 2.126 0 0 0 4.252 0Z"/></defs></g></g><g stroke-width=".26" stroke="#000" stroke-miterlimit="2" transform="matrix(3.84 0 0 -3.84 539.29 526.85)"><use fill-rule="evenodd" stroke="none" xlinkHref="#mfid126"/><defs><path id="mfid127" d="M2.953-1.476a1.476 1.476 0 1 0-2.953 0 1.476 1.476 0 0 0 2.953 0Z"/></defs></g><use fill-rule="evenodd" stroke="none" stroke-width=".26" stroke-miterlimit="2" transform="matrix(3.84 0 0 -3.84 541.78 529.35)" xlinkHref="#mfid127"/></g><g mask="url(#mfid5)"><text stroke="none" x="0,16" transform="translate(567.23 359.83)" font-family="'Calibri',swiss,sans-serif" font-weight="400" font-size="32" stroke-miterlimit="10">5</text></g><defs><path id="mfid128" d="M6.272 0c7.567 0 6.44-5 6.44-5l-.71-4.976c-.311-2.836-2.798-2.831-2.798-2.831H4.068C.908-12.325.73-9.532.73-9.532.635-8.728.032-4.593.032-4.593-.27-1.88 1.651-.803 1.651-.803 3.067 0 6.27 0 6.27 0ZM1.746-19.603s2.226-.24 5.005-.24 4.365.24 4.365.24c2.125.261 1.514 2.344 1.514 2.344-.023.224-.354 1.71-.449 1.983-.245.711-.704 1.193-1.333 1.455-.456.191-.93.322-1.418.323H3.432c-.489-.001-.962-.132-1.418-.323-.629-.262-1.087-.744-1.333-1.455-.095-.273-.426-1.759-.45-1.983 0 0-.61-2.083 1.515-2.344Z"/></defs><g mask="url(#mfid4)"><g stroke-width=".26" stroke="#000"><g stroke-miterlimit="2" transform="matrix(.05954 3.8395 3.8395 -.05954 511.31 416.28)"><use fill-rule="evenodd" stroke="none" xlinkHref="#mfid128"/><defs><path id="mfid129" d="M6.272 0c7.567 0 6.44-5 6.44-5l-.71-4.976c-.311-2.836-2.798-2.831-2.798-2.831H4.068C.908-12.325.73-9.532.73-9.532.635-8.728.032-4.593.032-4.593-.27-1.88 1.651-.803 1.651-.803 3.067 0 6.27 0 6.27 0ZM1.746-19.603s2.226-.24 5.005-.24 4.365.24 4.365.24c2.125.261 1.514 2.344 1.514 2.344-.023.224-.354 1.71-.449 1.983-.245.711-.704 1.193-1.333 1.455-.456.191-.93.322-1.418.323H3.432c-.489-.001-.962-.132-1.418-.323-.629-.262-1.087-.744-1.333-1.455-.095-.273-.426-1.759-.45-1.983 0 0-.61-2.083 1.515-2.344Z"/></defs></g><g stroke-linecap="round" stroke-linejoin="round" transform="matrix(.05954 3.8395 3.8395 -.05954 511.31 416.28)"><use xlinkHref="#mfid129"/><defs><path id="mfid130" d="M5.473-14.961s2.23-.205 5.008-.162c2.778.043 4.361.307 4.361.307.998.139 1.383.671 1.513 1.197.087-.356.398-2.038-1.496-2.301 0 0-1.583-.264-4.361-.307-2.778-.043-5.008.162-5.008.162-1.902.204-1.643 1.895-1.566 2.253.145-.521.547-1.041 1.549-1.149ZM19.837-1.755 18.405-7.21c-.475-1.685-1.245-1.585-1.551-1.53-.797.143-.682.892-.619 1.889l.67 5.324c.153.887.753 1.587 1.562 1.524.81-.063 1.424-.846 1.37-1.75ZM.007-2.062l1.601-5.41c.527-1.67 1.294-1.545 1.598-1.481.792.167.654.913.56 1.908l-.835 5.3C2.751-.862 2.13-.182 1.322-.27.515-.357-.074-1.16.008-2.062Zm3.937-1.496-.725-.011.262-1.67.718.033-.255 1.648ZM9.247-9.21l1.643.026.011-.691-1.643-.026-.01.691Zm6.702 5.838.725.011-.211-1.677-.717.011.203 1.655Z"/></defs></g></g><g stroke-width=".26" stroke="#000" stroke-linecap="round" stroke-linejoin="round" transform="matrix(0 3.84 3.84 0 497.83 403.07)"><use fill-rule="evenodd" stroke="none" xlinkHref="#mfid130"/><defs><path id="mfid131" d="M5.473-14.961s2.23-.205 5.008-.162c2.778.043 4.361.307 4.361.307.998.139 1.383.671 1.513 1.197.087-.356.398-2.038-1.496-2.301 0 0-1.583-.264-4.361-.307-2.778-.043-5.008.162-5.008.162-1.902.204-1.643 1.895-1.566 2.253.145-.521.547-1.041 1.549-1.149ZM19.837-1.755 18.405-7.21c-.475-1.685-1.245-1.585-1.551-1.53-.797.143-.682.892-.619 1.889l.67 5.324c.153.887.753 1.587 1.562 1.524.81-.063 1.424-.846 1.37-1.75ZM.007-2.062l1.601-5.41c.527-1.67 1.294-1.545 1.598-1.481.792.167.654.913.56 1.908l-.835 5.3C2.751-.862 2.13-.182 1.322-.27.515-.357-.074-1.16.008-2.062Zm3.937-1.496-.725-.011.262-1.67.718.033-.255 1.648ZM9.247-9.21l1.643.026.011-.691-1.643-.026-.01.691Zm6.702 5.838.725.011-.211-1.677-.717.011.203 1.655Z"/></defs><use xlinkHref="#mfid131"/><defs><path id="mfid132" d="M10.247-17.081H5.894a.22.22 0 0 0-.224.218v13.994c0 .12.101.218.224.218h4.352a.22.22 0 0 0 .224-.218v-13.994a.22.22 0 0 0-.223-.218Zm-6.734 4.145v-.021h.69c.325 0 .589.311.589.695v4.694c0 .384-.264.696-.59.696h-.689v-6.064Zm0 0v10.098L.577 0 0-.211v-19.421l.577-.211 2.936 2.839v4.068Z"/></defs></g><g stroke-width=".26" stroke="#000"><g stroke-linecap="round" stroke-linejoin="round" transform="matrix(-3.84 0 0 3.84 570.8 479.71)"><use fill-rule="evenodd" stroke="none" xlinkHref="#mfid132"/><defs><path id="mfid133" d="M10.247-17.081H5.894a.22.22 0 0 0-.224.218v13.994c0 .12.101.218.224.218h4.352a.22.22 0 0 0 .224-.218v-13.994a.22.22 0 0 0-.223-.218Zm-6.734 4.145v-.021h.69c.325 0 .589.311.589.695v4.694c0 .384-.264.696-.59.696h-.689v-6.064Zm0 0v10.098L.577 0 0-.211v-19.421l.577-.211 2.936 2.839v4.068Z"/></defs></g><g stroke-miterlimit="2" transform="matrix(-3.84 0 0 3.84 570.8 479.71)"><use xlinkHref="#mfid133"/><defs><path id="mfid134" d="M2.926-12.826v-.716h.736v.716h-.736v.86-.715h.736v.715h-.736v-.86Zm0 1.721v-.716h.736v.716h-.736v1.232-.716h.736v.716h-.736v-1.232Zm0 2.092v-.716h.736v.716h-.736v.86-.715h.736v.715h-.736v-.86Zm0 2.128V-7.6h.736v.715h-.736v.86-.714h.736v.715h-.736v-.86Zm0 5.164V-5.88h.736v4.158h-.736v.86-.715h.736v.715h-.736v-.86Zm0 1.72v-.715h.736V0h-.736L2.04-9.013v-.716h.736v.716H2.04L2.926 0ZM2.04-6.023V-7.6h.736v1.576H2.04v.86-.715h.736v.715H2.04v-.86Zm0-5.081v-.716h.736v.716H2.04V-13.542h.736v.716H2.04v1.721Zm0-.861v-.715h.736v.715H2.04v7.663-.716h.737v.716H2.04v-7.663Zm0 8.523v-.715h.736v.715H2.04v.861-.716h.737v.716H2.04v-.86Zm0 1.722v-.716h.736v.716H2.04V0v-1.576h.737V0H2.04v-1.721Zm-.886-5.164V-7.6h.736v.715h-.736v.86-.714h.736v.715h-.736v-.86Zm0 1.721v-.715h.736v.715h-.736v.86-.715h.737v.716h-.737v-.86Zm0 1.721v-.715h.737v.715h-.737v.861-.716h.737v.716h-.737v-.86Zm0 1.722v-.716h.737v.716h-.737v.86-.715h.737v.715h-.737v-.86Zm0 1.72v-.715h.737V0h-.737v-13.542h.736v.716h-.736V0Zm0-11.965v-.715h.736v.715h-.736v.861-.716h.736v.716h-.736v-.861ZM0-6.885V-7.6h.737v.715H0v.86-.714h.737v.715H0v-.86Zm0 1.721v-.715h.737v.715H0v.86-.715h.737v.716H0v-.86Zm0 1.721v-.715h.737v.715H0v.861-.716h.737v.716H0v-.86ZM0-1.72v-.716h.737v.716H0v.86-.715h.737v.715H0v-.86Zm0 1.72v-.715h.737V0H0v-8.868h.737v.715H0V0Zm0-12.825v-.716h.737v.716H0v.86-.715h.737v.715H0v-.86Zm0 1.721v-.716h.737v.716H0v1.232-.716h.737v.716H0v-1.232Zm0 2.092v-.716h.737v.716H0Z"/></defs></g></g><g stroke-width=".26" stroke="#000" stroke-miterlimit="2" transform="matrix(-3.84 0 0 3.84 546.41 467.83)"><use fill-rule="evenodd" stroke="none" xlinkHref="#mfid134"/><defs><path id="mfid135" d="M9.921-2.193h8.78L16.771 0h-13.7l-1.93-2.193h8.78Z"/></defs></g><g stroke="#000" stroke-miterlimit="2"><g stroke-width=".26" transform="matrix(0 -3.84 -3.84 0 558.47 479.72)"><use fill-rule="evenodd" stroke="none" xlinkHref="#mfid135"/><defs><path id="mfid136" d="M9.921-2.193h8.78L16.771 0h-13.7l-1.93-2.193h8.78Zm9.922-.444H0"/></defs></g><use stroke-width=".13" transform="matrix(0 -3.84 -3.84 0 558.47 479.72)" xlinkHref="#mfid136"/></g></g></g></svg></switch><path class="st1" d="M0 440.205h938.013v681.987H0z"/></g></svg>