<svg xmlns="http://www.w3.org/2000/svg" id="svg691" version="1.1" class="st16" color-interpolation-filters="sRGB" viewBox="0 0 742.936 556.409" height="741.877" width="990.583" fill="none"><g transform="translate(-142.506 -165.107)" class="ws" id="5"><g id="shape715-67" transform="rotate(44.3 961.964 1532.407)"><path d="M10.91 853.43a157.589 157.613-180 0 0-.03 22.18 28.16 28.16-180 0 0 13.34 13.19h17.51a4.03 4.03 0 0 1 3.8 2.65h2.93A16.145 16.145-180 0 0 64.6 875.3v-21.53a16.137 16.137-180 0 0-16.14-16.14h-2.94a4.04 4.04 0 0 1-3.81 2.73H24.08a28.16 28.16-180 0 0-13.17 13.07zm-.13 11.16a57.393 57.402 0 0 1 1.4-18.84 3.01 3.01-180 0 0-4.04-4.03 30.789 30.793-180 0 0-8.06 22.87 30.203 30.207-180 0 0 8.06 22.87 3.033 3.033-180 0 0 4.04-4.04 55.756 55.764 0 0 1-1.4-18.83zm34.99 28.24a4.039 4.039-180 0 0-4.04-4.04H17.52a4.034 4.034-180 0 0-4.04 4.04 4.04 4.04-180 0 0 4.04 4.05h24.21a4.045 4.045-180 0 0 4.04-4.05zm-.03-56.52a4.023 4.023-180 0 0-4.01-4.03H17.52a4.055 4.055-180 0 0-4.06 4.05 4.049 4.049-180 0 0 4.06 4.04h24.21a4.024 4.024-180 0 0 4.01-4.04z" class="st4" id="path137"/><path d="M10.91 853.43a157.589 157.613-180 0 0-.03 22.18 28.16 28.16-180 0 0 13.34 13.19h17.51a4.03 4.03 0 0 1 3.8 2.65h2.93A16.145 16.145-180 0 0 64.6 875.3v-21.53a16.137 16.137-180 0 0-16.14-16.14h-2.94a4.04 4.04 0 0 1-3.81 2.73H24.08a28.16 28.16-180 0 0-13.17 13.07m-.13 11.16a57.393 57.402 0 0 1 1.4-18.84 3.01 3.01-180 0 0-4.04-4.03 30.789 30.793-180 0 0-8.06 22.87 30.203 30.207-180 0 0 8.06 22.87 3.033 3.033-180 0 0 4.04-4.04 55.756 55.764 0 0 1-1.4-18.83m34.99 28.24a4.039 4.039-180 0 0-4.04-4.04H17.52a4.034 4.034-180 0 0-4.04 4.04 4.04 4.04-180 0 0 4.04 4.05h24.21a4.045 4.045-180 0 0 4.04-4.05m-.03-56.52a4.023 4.023-180 0 0-4.01-4.03H17.52a4.055 4.055-180 0 0-4.06 4.05 4.049 4.049-180 0 0 4.06 4.04h24.21a4.024 4.024-180 0 0 4.01-4.04" class="st5" id="path139"/></g><g id="shape716-71" transform="rotate(-90.7 243.641 273.067)"><path d="M0 759.4v137.48h134.94v-65.2H65.2V759.4Z" class="st6" id="path145"/></g><g id="shape717-74" transform="rotate(179.3 435.784 608.97)"><path class="st6" id="rect153" d="M0 839.06h65.197v57.818H0z"/><text x="-39.27" y="-860.77" transform="scale(-1)" class="st7" id="text155">5</text></g><g id="shape719-78" transform="rotate(44.3 923.666 1679.697)"><path class="st6" id="rect163" d="M0 857.314h38.143v39.563H0z"/></g><g id="shape720-80" transform="rotate(44.3 931.475 1656.397)"><path class="st6" id="rect168" d="M0 854.987h15.026v41.891H0z"/></g><g id="shape721-82" transform="rotate(44.3 925.36 1683.696)"><path d="m8.97 896.88 10.85-3.85v-27.26l-10.85-3.8a235.919 233.239-180 0 0 0 34.91zm10.85-3.85h18.44a91.622 90.962-180 0 0 0-27.26H19.82Zm-18.78 3.85h7.93a235.919 233.239 0 0 1 0-34.91H1.04a150.587 148.876-180 0 0 0 34.91z" class="st6" id="path173"/></g><g id="shape722-84" transform="rotate(134.3 495.367 852.363)"><path class="st8" id="rect178" d="M0 896.588h1.164v.289H0z"/></g><g id="shape723-86" transform="rotate(134.3 510.071 839.702)"><path d="M2.62 886.76h1.45v-1.44H2.62Zm1.74 0h1.46v-1.44H4.36Zm1.75 0h1.45v-1.44H6.11Zm1.74 0h1.46v-1.44H7.85Zm11.2 0h1.46v-1.44h-1.46zm1.75 0h1.45v-1.44H20.8Zm1.75 0H24v-1.44h-1.45zm1.74 0h1.46v-1.44h-1.46ZM0 889.65h2.33v-1.44H0Zm2.62 0h1.45v-1.44H2.62Zm1.74 0h1.46v-1.44H4.36Zm1.75 0h1.45v-1.44H6.11Zm1.74 0h1.46v-1.44H7.85Zm1.75 0h1.45v-1.44H9.6Zm1.75 0h1.45v-1.44h-1.45zm1.74 0h1.46v-1.44h-1.46zm1.75 0h1.45v-1.44h-1.45zm1.74 0h1.46v-1.44h-1.46zm1.75 0h1.45v-1.44h-1.45zm1.74 0h1.46v-1.44h-1.46zm1.75 0h1.45v-1.44h-1.45zm-19.2 1.81h1.45v-1.45H2.62Zm1.74 0h1.46v-1.45H4.36Zm1.75 0h1.45v-1.45H6.11Zm1.74 0h1.46v-1.45H7.85Zm1.75 0h1.45v-1.45H9.6Zm1.75 0h1.45v-1.45h-1.45zm1.74 0h1.46v-1.45h-1.46zm1.75 0h1.45v-1.45h-1.45zm1.74 0h1.46v-1.45h-1.46zm1.75 0h1.45v-1.45h-1.45zm1.74 0h1.46v-1.45h-1.46zm1.75 0h1.45v-1.45h-1.45zm-19.2 1.81h1.45v-1.45H2.62Zm1.74 0h1.46v-1.45H4.36Zm1.75 0h1.45v-1.45H6.11Zm1.74 0h1.46v-1.45H7.85Zm1.75 0h1.45v-1.45H9.6Zm1.75 0h1.45v-1.45h-1.45zm1.74 0h1.46v-1.45h-1.46zm1.75 0h1.45v-1.45h-1.45zm1.74 0h1.46v-1.45h-1.46zm1.75 0h1.45v-1.45h-1.45zm1.74 0h1.46v-1.45h-1.46zm1.75 0h1.45v-1.45h-1.45zm-19.2 1.8h1.45v-1.44H2.62Zm1.74 0h1.46v-1.44H4.36Zm1.75 0h1.45v-1.44H6.11Zm1.74 0h1.46v-1.44H7.85Zm1.75 0h1.45v-1.44H9.6Zm1.75 0h1.45v-1.44h-1.45zm1.74 0h1.46v-1.44h-1.46zm1.75 0h1.45v-1.44h-1.45zm1.74 0h1.46v-1.44h-1.46zm1.75 0h1.45v-1.44h-1.45zm1.74 0h1.46v-1.44h-1.46zm-13.96 1.81h11.93v-1.45H6.11Zm26.47 0h3.49v-1.45h-3.49zm3.78 0h1.46v-1.45h-1.46zm0-1.81h1.46v-1.44h-1.46zm-1.89 0h1.46v-1.44h-1.46zm-1.89 0h1.46v-1.44h-1.46zm0-1.8h1.46v-1.45h-1.46zm0-1.81h1.46v-1.45h-1.46zm1.89 0h1.46v-1.45h-1.46zm1.89 0h1.46v-1.45h-1.46zm0 1.81h1.46v-1.45h-1.46zm-1.89 0h1.46v-1.45h-1.46z" class="st9" id="path183"/></g><g id="shape724-88" transform="rotate(134.3 510.071 839.702)"><path d="M0 886.76h1.45v-1.44H0Zm0 4.7h2.33v-1.45H0Zm0 1.81h2.33v-1.45H0Zm0 1.8h2.33v-1.44H0Zm0 1.81h2.33v-1.45H0Zm2.62 0h1.45v-1.45H2.62Zm1.74 0h1.46v-1.45H4.36Zm13.97 0h1.45v-1.45h-1.45zm1.74 0h1.46v-1.45h-1.46zm1.75 0h1.45v-1.45h-1.45zm1.74 0h2.33v-1.45h-2.33zm3.2 0h1.46v-1.45h-1.46zm1.75 0h1.45v-1.45h-1.45zm1.74 0h1.46v-1.45h-1.46zm8 0h1.46v-3.18h-1.46zm0-3.47h1.46v-3.4h-1.46zm0-3.76h1.46v-1.44h-1.46zm-1.89 0h1.46v-1.44h-1.46zm-1.89 0h1.46v-1.44h-1.46zm-1.89 0h1.46v-1.44h-1.46zm-2.33 0h1.46v-1.44h-1.46zm0 1.81h1.46v-1.45h-1.46zm-1.74 3.61h1.45v-1.44h-1.45zm-6.69-.02h4.07v-1.45h-4.07zm1.74-1.83h2.33v-3.18h-2.33zm3.2-1.76h1.46v-1.45h-1.46zm1.75 0h1.45v-1.45h-1.45zm0-1.81h1.45v-1.44h-1.45zm-4.95 0h2.33v-1.44h-2.33zm13.97-3.75h1.16v-.29h-1.16zm-1.75 0h1.17v-.29h-1.17zm-5.53.86h1.46v-1.44h-1.46zm-1.74 0h1.45v-1.44h-1.45zm-1.75 0h1.46v-1.44h-1.46zm-10.76 0h1.45v-1.44H16Zm-1.75 0h1.46v-1.44h-1.46zm-1.74 0h1.45v-1.44h-1.45zm-1.75 0h1.46v-1.44h-1.46zm16 2.89h1.46v-1.44h-1.46z" class="st10" id="path188"/></g></g><g transform="translate(-142.506 -165.107)" class="ws" id="2"><g id="shape854-126" transform="rotate(-45.4 -543.794 276.496)"><path d="M10.91 853.43a157.589 157.613-180 0 0-.03 22.18 28.16 28.16-180 0 0 13.34 13.19h17.51a4.03 4.03 0 0 1 3.8 2.65h2.93A16.145 16.145-180 0 0 64.6 875.3v-21.53a16.137 16.137-180 0 0-16.14-16.14h-2.94a4.04 4.04 0 0 1-3.81 2.73H24.08a28.16 28.16-180 0 0-13.17 13.07zm-.13 11.16a57.393 57.402 0 0 1 1.4-18.84 3.01 3.01-180 0 0-4.04-4.03 30.789 30.793-180 0 0-8.06 22.87 30.203 30.207-180 0 0 8.06 22.87 3.033 3.033-180 0 0 4.04-4.04 55.756 55.764 0 0 1-1.4-18.83zm34.99 28.24a4.039 4.039-180 0 0-4.04-4.04H17.52a4.034 4.034-180 0 0-4.04 4.04 4.04 4.04-180 0 0 4.04 4.05h24.21a4.045 4.045-180 0 0 4.04-4.05zm-.03-56.52a4.023 4.023-180 0 0-4.01-4.03H17.52a4.055 4.055-180 0 0-4.06 4.05 4.049 4.049-180 0 0 4.06 4.04h24.21a4.024 4.024-180 0 0 4.01-4.04z" class="st4" id="path267"/><path d="M10.91 853.43a157.589 157.613-180 0 0-.03 22.18 28.16 28.16-180 0 0 13.34 13.19h17.51a4.03 4.03 0 0 1 3.8 2.65h2.93A16.145 16.145-180 0 0 64.6 875.3v-21.53a16.137 16.137-180 0 0-16.14-16.14h-2.94a4.04 4.04 0 0 1-3.81 2.73H24.08a28.16 28.16-180 0 0-13.17 13.07m-.13 11.16a57.393 57.402 0 0 1 1.4-18.84 3.01 3.01-180 0 0-4.04-4.03 30.789 30.793-180 0 0-8.06 22.87 30.203 30.207-180 0 0 8.06 22.87 3.033 3.033-180 0 0 4.04-4.04 55.756 55.764 0 0 1-1.4-18.83m34.99 28.24a4.039 4.039-180 0 0-4.04-4.04H17.52a4.034 4.034-180 0 0-4.04 4.04 4.04 4.04-180 0 0 4.04 4.05h24.21a4.045 4.045-180 0 0 4.04-4.05m-.03-56.52a4.023 4.023-180 0 0-4.01-4.03H17.52a4.055 4.055-180 0 0-4.06 4.05 4.049 4.049-180 0 0 4.06 4.04h24.21a4.024 4.024-180 0 0 4.01-4.04" class="st5" id="path269"/></g><g id="shape855-130" transform="rotate(179.6 191.167 538.459)"><path d="M0 759.4v137.48h134.94v-65.2H65.2V759.4Z" class="st6" id="path275"/></g><g id="shape856-133" transform="rotate(89.6 454.177 632.379)"><path class="st6" id="rect283" d="M0 839.06h65.197v57.818H0z"/><text x="-874.64" y="39.8" transform="rotate(-90)" class="st7" id="text285">2</text></g><g id="shape858-137" transform="rotate(-45.4 -613.284 156.12)"><path class="st6" id="rect293" d="M0 857.314h38.143v39.563H0z"/></g><g id="shape859-139" transform="rotate(-45.4 -602.639 177.64)"><path class="st6" id="rect298" d="M0 854.987h15.026v41.891H0z"/></g><g id="shape860-141" transform="rotate(-45.4 -617.213 154.516)"><path d="m8.97 896.88 10.85-3.85v-27.26l-10.85-3.8a235.919 233.239-180 0 0 0 34.91zm10.85-3.85h18.44a91.622 90.962-180 0 0 0-27.26H19.82Zm-18.78 3.85h7.93a235.919 233.239 0 0 1 0-34.91H1.04a150.587 148.876-180 0 0 0 34.91z" class="st6" id="path303"/></g><g id="shape861-143" transform="rotate(44.6 970.152 979.2)"><path class="st8" id="rect308" d="M0 896.588h1.164v.289H0z"/></g><g id="shape862-145" transform="rotate(44.6 973.784 932.216)"><path d="M2.62 886.76h1.45v-1.44H2.62Zm1.74 0h1.46v-1.44H4.36Zm1.75 0h1.45v-1.44H6.11Zm1.74 0h1.46v-1.44H7.85Zm11.2 0h1.46v-1.44h-1.46zm1.75 0h1.45v-1.44H20.8Zm1.75 0H24v-1.44h-1.45zm1.74 0h1.46v-1.44h-1.46ZM0 889.65h2.33v-1.44H0Zm2.62 0h1.45v-1.44H2.62Zm1.74 0h1.46v-1.44H4.36Zm1.75 0h1.45v-1.44H6.11Zm1.74 0h1.46v-1.44H7.85Zm1.75 0h1.45v-1.44H9.6Zm1.75 0h1.45v-1.44h-1.45zm1.74 0h1.46v-1.44h-1.46zm1.75 0h1.45v-1.44h-1.45zm1.74 0h1.46v-1.44h-1.46zm1.75 0h1.45v-1.44h-1.45zm1.74 0h1.46v-1.44h-1.46zm1.75 0h1.45v-1.44h-1.45zm-19.2 1.81h1.45v-1.45H2.62Zm1.74 0h1.46v-1.45H4.36Zm1.75 0h1.45v-1.45H6.11Zm1.74 0h1.46v-1.45H7.85Zm1.75 0h1.45v-1.45H9.6Zm1.75 0h1.45v-1.45h-1.45zm1.74 0h1.46v-1.45h-1.46zm1.75 0h1.45v-1.45h-1.45zm1.74 0h1.46v-1.45h-1.46zm1.75 0h1.45v-1.45h-1.45zm1.74 0h1.46v-1.45h-1.46zm1.75 0h1.45v-1.45h-1.45zm-19.2 1.81h1.45v-1.45H2.62Zm1.74 0h1.46v-1.45H4.36Zm1.75 0h1.45v-1.45H6.11Zm1.74 0h1.46v-1.45H7.85Zm1.75 0h1.45v-1.45H9.6Zm1.75 0h1.45v-1.45h-1.45zm1.74 0h1.46v-1.45h-1.46zm1.75 0h1.45v-1.45h-1.45zm1.74 0h1.46v-1.45h-1.46zm1.75 0h1.45v-1.45h-1.45zm1.74 0h1.46v-1.45h-1.46zm1.75 0h1.45v-1.45h-1.45zm-19.2 1.8h1.45v-1.44H2.62Zm1.74 0h1.46v-1.44H4.36Zm1.75 0h1.45v-1.44H6.11Zm1.74 0h1.46v-1.44H7.85Zm1.75 0h1.45v-1.44H9.6Zm1.75 0h1.45v-1.44h-1.45zm1.74 0h1.46v-1.44h-1.46zm1.75 0h1.45v-1.44h-1.45zm1.74 0h1.46v-1.44h-1.46zm1.75 0h1.45v-1.44h-1.45zm1.74 0h1.46v-1.44h-1.46zm-13.96 1.81h11.93v-1.45H6.11Zm26.47 0h3.49v-1.45h-3.49zm3.78 0h1.46v-1.45h-1.46zm0-1.81h1.46v-1.44h-1.46zm-1.89 0h1.46v-1.44h-1.46zm-1.89 0h1.46v-1.44h-1.46zm0-1.8h1.46v-1.45h-1.46zm0-1.81h1.46v-1.45h-1.46zm1.89 0h1.46v-1.45h-1.46zm1.89 0h1.46v-1.45h-1.46zm0 1.81h1.46v-1.45h-1.46zm-1.89 0h1.46v-1.45h-1.46z" class="st9" id="path313"/></g><g id="shape863-147" transform="rotate(44.6 973.784 932.216)"><path d="M0 886.76h1.45v-1.44H0Zm0 4.7h2.33v-1.45H0Zm0 1.81h2.33v-1.45H0Zm0 1.8h2.33v-1.44H0Zm0 1.81h2.33v-1.45H0Zm2.62 0h1.45v-1.45H2.62Zm1.74 0h1.46v-1.45H4.36Zm13.97 0h1.45v-1.45h-1.45zm1.74 0h1.46v-1.45h-1.46zm1.75 0h1.45v-1.45h-1.45zm1.74 0h2.33v-1.45h-2.33zm3.2 0h1.46v-1.45h-1.46zm1.75 0h1.45v-1.45h-1.45zm1.74 0h1.46v-1.45h-1.46zm8 0h1.46v-3.18h-1.46zm0-3.47h1.46v-3.4h-1.46zm0-3.76h1.46v-1.44h-1.46zm-1.89 0h1.46v-1.44h-1.46zm-1.89 0h1.46v-1.44h-1.46zm-1.89 0h1.46v-1.44h-1.46zm-2.33 0h1.46v-1.44h-1.46zm0 1.81h1.46v-1.45h-1.46zm-1.74 3.61h1.45v-1.44h-1.45zm-6.69-.02h4.07v-1.45h-4.07zm1.74-1.83h2.33v-3.18h-2.33zm3.2-1.76h1.46v-1.45h-1.46zm1.75 0h1.45v-1.45h-1.45zm0-1.81h1.45v-1.44h-1.45zm-4.95 0h2.33v-1.44h-2.33zm13.97-3.75h1.16v-.29h-1.16zm-1.75 0h1.17v-.29h-1.17zm-5.53.86h1.46v-1.44h-1.46zm-1.74 0h1.45v-1.44h-1.45zm-1.75 0h1.46v-1.44h-1.46zm-10.76 0h1.45v-1.44H16Zm-1.75 0h1.46v-1.44h-1.46zm-1.74 0h1.45v-1.44h-1.45zm-1.75 0h1.46v-1.44h-1.46zm16 2.89h1.46v-1.44h-1.46z" class="st10" id="path318"/></g></g><g transform="translate(-142.506 -165.107)" class="ws" id="4"><g id="shape871-155" transform="scale(-1 1) rotate(45.4 319.002 4.845)"><path d="M10.91 853.43a157.589 157.613-180 0 0-.03 22.18 28.16 28.16-180 0 0 13.34 13.19h17.51a4.03 4.03 0 0 1 3.8 2.65h2.93A16.145 16.145-180 0 0 64.6 875.3v-21.53a16.137 16.137-180 0 0-16.14-16.14h-2.94a4.04 4.04 0 0 1-3.81 2.73H24.08a28.16 28.16-180 0 0-13.17 13.07zm-.13 11.16a57.393 57.402 0 0 1 1.4-18.84 3.01 3.01-180 0 0-4.04-4.03 30.789 30.793-180 0 0-8.06 22.87 30.203 30.207-180 0 0 8.06 22.87 3.033 3.033-180 0 0 4.04-4.04 55.756 55.764 0 0 1-1.4-18.83zm34.99 28.24a4.039 4.039-180 0 0-4.04-4.04H17.52a4.034 4.034-180 0 0-4.04 4.04 4.04 4.04-180 0 0 4.04 4.05h24.21a4.045 4.045-180 0 0 4.04-4.05zm-.03-56.52a4.023 4.023-180 0 0-4.01-4.03H17.52a4.055 4.055-180 0 0-4.06 4.05 4.049 4.049-180 0 0 4.06 4.04h24.21a4.024 4.024-180 0 0 4.01-4.04z" class="st4" id="path335"/><path d="M10.91 853.43a157.589 157.613-180 0 0-.03 22.18 28.16 28.16-180 0 0 13.34 13.19h17.51a4.03 4.03 0 0 1 3.8 2.65h2.93A16.145 16.145-180 0 0 64.6 875.3v-21.53a16.137 16.137-180 0 0-16.14-16.14h-2.94a4.04 4.04 0 0 1-3.81 2.73H24.08a28.16 28.16-180 0 0-13.17 13.07m-.13 11.16a57.393 57.402 0 0 1 1.4-18.84 3.01 3.01-180 0 0-4.04-4.03 30.789 30.793-180 0 0-8.06 22.87 30.203 30.207-180 0 0 8.06 22.87 3.033 3.033-180 0 0 4.04-4.04 55.756 55.764 0 0 1-1.4-18.83m34.99 28.24a4.039 4.039-180 0 0-4.04-4.04H17.52a4.034 4.034-180 0 0-4.04 4.04 4.04 4.04-180 0 0 4.04 4.05h24.21a4.045 4.045-180 0 0 4.04-4.05m-.03-56.52a4.023 4.023-180 0 0-4.01-4.03H17.52a4.055 4.055-180 0 0-4.06 4.05 4.049 4.049-180 0 0 4.06 4.04h24.21a4.024 4.024-180 0 0 4.01-4.04" class="st5" id="path337"/></g><g id="shape872-159" transform="scale(-1 1) rotate(-89.6 -389.193 899.526)"><path d="M0 759.4v137.48h134.94v-65.2H65.2V759.4Z" class="st6" id="path343"/></g><g id="shape873-162" transform="scale(-1 1) rotate(.4 74616.464 -64304.775)"><path class="st6" id="rect351" d="M0 839.06h65.197v57.818H0z"/><text x="-39.27" y="875.17" transform="scale(-1 1)" class="st7" id="text353">4</text></g><g id="shape875-166" transform="scale(-1 1) rotate(45.4 280.214 148.387)"><path class="st6" id="rect361" d="M0 857.314h38.143v39.563H0z"/></g><g id="shape876-168" transform="scale(-1 1) rotate(45.4 288.062 125.697)"><path class="st6" id="rect366" d="M0 854.987h15.026v41.891H0z"/></g><g id="shape877-170" transform="scale(-1 1) rotate(45.4 281.831 152.31)"><path d="m8.97 896.88 10.85-3.85v-27.26l-10.85-3.8a235.919 233.239-180 0 0 0 34.91zm10.85-3.85h18.44a91.622 90.962-180 0 0 0-27.26H19.82Zm-18.78 3.85h7.93a235.919 233.239 0 0 1 0-34.91H1.04a150.587 148.876-180 0 0 0 34.91z" class="st6" id="path371"/></g><g id="shape878-172" transform="scale(1 -1) rotate(-44.6 -1437.936 -332.605)"><path class="st8" id="rect376" d="M0 896.588h1.164v.289H0z"/></g><g id="shape879-174" transform="scale(1 -1) rotate(-44.6 -1407.532 -296.6)"><path d="M2.62 886.76h1.45v-1.44H2.62Zm1.74 0h1.46v-1.44H4.36Zm1.75 0h1.45v-1.44H6.11Zm1.74 0h1.46v-1.44H7.85Zm11.2 0h1.46v-1.44h-1.46zm1.75 0h1.45v-1.44H20.8Zm1.75 0H24v-1.44h-1.45zm1.74 0h1.46v-1.44h-1.46ZM0 889.65h2.33v-1.44H0Zm2.62 0h1.45v-1.44H2.62Zm1.74 0h1.46v-1.44H4.36Zm1.75 0h1.45v-1.44H6.11Zm1.74 0h1.46v-1.44H7.85Zm1.75 0h1.45v-1.44H9.6Zm1.75 0h1.45v-1.44h-1.45zm1.74 0h1.46v-1.44h-1.46zm1.75 0h1.45v-1.44h-1.45zm1.74 0h1.46v-1.44h-1.46zm1.75 0h1.45v-1.44h-1.45zm1.74 0h1.46v-1.44h-1.46zm1.75 0h1.45v-1.44h-1.45zm-19.2 1.81h1.45v-1.45H2.62Zm1.74 0h1.46v-1.45H4.36Zm1.75 0h1.45v-1.45H6.11Zm1.74 0h1.46v-1.45H7.85Zm1.75 0h1.45v-1.45H9.6Zm1.75 0h1.45v-1.45h-1.45zm1.74 0h1.46v-1.45h-1.46zm1.75 0h1.45v-1.45h-1.45zm1.74 0h1.46v-1.45h-1.46zm1.75 0h1.45v-1.45h-1.45zm1.74 0h1.46v-1.45h-1.46zm1.75 0h1.45v-1.45h-1.45zm-19.2 1.81h1.45v-1.45H2.62Zm1.74 0h1.46v-1.45H4.36Zm1.75 0h1.45v-1.45H6.11Zm1.74 0h1.46v-1.45H7.85Zm1.75 0h1.45v-1.45H9.6Zm1.75 0h1.45v-1.45h-1.45zm1.74 0h1.46v-1.45h-1.46zm1.75 0h1.45v-1.45h-1.45zm1.74 0h1.46v-1.45h-1.46zm1.75 0h1.45v-1.45h-1.45zm1.74 0h1.46v-1.45h-1.46zm1.75 0h1.45v-1.45h-1.45zm-19.2 1.8h1.45v-1.44H2.62Zm1.74 0h1.46v-1.44H4.36Zm1.75 0h1.45v-1.44H6.11Zm1.74 0h1.46v-1.44H7.85Zm1.75 0h1.45v-1.44H9.6Zm1.75 0h1.45v-1.44h-1.45zm1.74 0h1.46v-1.44h-1.46zm1.75 0h1.45v-1.44h-1.45zm1.74 0h1.46v-1.44h-1.46zm1.75 0h1.45v-1.44h-1.45zm1.74 0h1.46v-1.44h-1.46zm-13.96 1.81h11.93v-1.45H6.11Zm26.47 0h3.49v-1.45h-3.49zm3.78 0h1.46v-1.45h-1.46zm0-1.81h1.46v-1.44h-1.46zm-1.89 0h1.46v-1.44h-1.46zm-1.89 0h1.46v-1.44h-1.46zm0-1.8h1.46v-1.45h-1.46zm0-1.81h1.46v-1.45h-1.46zm1.89 0h1.46v-1.45h-1.46zm1.89 0h1.46v-1.45h-1.46zm0 1.81h1.46v-1.45h-1.46zm-1.89 0h1.46v-1.45h-1.46z" class="st9" id="path381"/></g><g id="shape880-176" transform="scale(1 -1) rotate(-44.6 -1407.532 -296.6)"><path d="M0 886.76h1.45v-1.44H0Zm0 4.7h2.33v-1.45H0Zm0 1.81h2.33v-1.45H0Zm0 1.8h2.33v-1.44H0Zm0 1.81h2.33v-1.45H0Zm2.62 0h1.45v-1.45H2.62Zm1.74 0h1.46v-1.45H4.36Zm13.97 0h1.45v-1.45h-1.45zm1.74 0h1.46v-1.45h-1.46zm1.75 0h1.45v-1.45h-1.45zm1.74 0h2.33v-1.45h-2.33zm3.2 0h1.46v-1.45h-1.46zm1.75 0h1.45v-1.45h-1.45zm1.74 0h1.46v-1.45h-1.46zm8 0h1.46v-3.18h-1.46zm0-3.47h1.46v-3.4h-1.46zm0-3.76h1.46v-1.44h-1.46zm-1.89 0h1.46v-1.44h-1.46zm-1.89 0h1.46v-1.44h-1.46zm-1.89 0h1.46v-1.44h-1.46zm-2.33 0h1.46v-1.44h-1.46zm0 1.81h1.46v-1.45h-1.46zm-1.74 3.61h1.45v-1.44h-1.45zm-6.69-.02h4.07v-1.45h-4.07zm1.74-1.83h2.33v-3.18h-2.33zm3.2-1.76h1.46v-1.45h-1.46zm1.75 0h1.45v-1.45h-1.45zm0-1.81h1.45v-1.44h-1.45zm-4.95 0h2.33v-1.44h-2.33zm13.97-3.75h1.16v-.29h-1.16zm-1.75 0h1.17v-.29h-1.17zm-5.53.86h1.46v-1.44h-1.46zm-1.74 0h1.45v-1.44h-1.45zm-1.75 0h1.46v-1.44h-1.46zm-10.76 0h1.45v-1.44H16Zm-1.75 0h1.46v-1.44h-1.46zm-1.74 0h1.45v-1.44h-1.45zm-1.75 0h1.46v-1.44h-1.46zm16 2.89h1.46v-1.44h-1.46z" class="st10" id="path386"/></g></g><g transform="translate(-142.506 -165.107)" class="ws" id="3"><g id="shape906-189" transform="scale(-1 1) rotate(-44.7 -935.716 1212.15)"><path d="M10.91 853.43a157.589 157.613-180 0 0-.03 22.18 28.16 28.16-180 0 0 13.34 13.19h17.51a4.03 4.03 0 0 1 3.8 2.65h2.93A16.145 16.145-180 0 0 64.6 875.3v-21.53a16.137 16.137-180 0 0-16.14-16.14h-2.94a4.04 4.04 0 0 1-3.81 2.73H24.08a28.16 28.16-180 0 0-13.17 13.07zm-.13 11.16a57.393 57.402 0 0 1 1.4-18.84 3.01 3.01-180 0 0-4.04-4.03 30.789 30.793-180 0 0-8.06 22.87 30.203 30.207-180 0 0 8.06 22.87 3.033 3.033-180 0 0 4.04-4.04 55.756 55.764 0 0 1-1.4-18.83zm34.99 28.24a4.039 4.039-180 0 0-4.04-4.04H17.52a4.034 4.034-180 0 0-4.04 4.04 4.04 4.04-180 0 0 4.04 4.05h24.21a4.045 4.045-180 0 0 4.04-4.05zm-.03-56.52a4.023 4.023-180 0 0-4.01-4.03H17.52a4.055 4.055-180 0 0-4.06 4.05 4.049 4.049-180 0 0 4.06 4.04h24.21a4.024 4.024-180 0 0 4.01-4.04z" class="st4" id="path412"/><path d="M10.91 853.43a157.589 157.613-180 0 0-.03 22.18 28.16 28.16-180 0 0 13.34 13.19h17.51a4.03 4.03 0 0 1 3.8 2.65h2.93A16.145 16.145-180 0 0 64.6 875.3v-21.53a16.137 16.137-180 0 0-16.14-16.14h-2.94a4.04 4.04 0 0 1-3.81 2.73H24.08a28.16 28.16-180 0 0-13.17 13.07m-.13 11.16a57.393 57.402 0 0 1 1.4-18.84 3.01 3.01-180 0 0-4.04-4.03 30.789 30.793-180 0 0-8.06 22.87 30.203 30.207-180 0 0 8.06 22.87 3.033 3.033-180 0 0 4.04-4.04 55.756 55.764 0 0 1-1.4-18.83m34.99 28.24a4.039 4.039-180 0 0-4.04-4.04H17.52a4.034 4.034-180 0 0-4.04 4.04 4.04 4.04-180 0 0 4.04 4.05h24.21a4.045 4.045-180 0 0 4.04-4.05m-.03-56.52a4.023 4.023-180 0 0-4.01-4.03H17.52a4.055 4.055-180 0 0-4.06 4.05 4.049 4.049-180 0 0 4.06 4.04h24.21a4.024 4.024-180 0 0 4.01-4.04" class="st5" id="path414"/></g><g id="shape907-193" transform="scale(1 -1) rotate(.3 205608.22 74148.881)"><path d="M0 759.4v137.48h134.94v-65.2H65.2V759.4Z" class="st6" id="path420"/></g><g id="shape908-196" transform="scale(1 -1) rotate(-89.7 -250.253 68.245)"><path class="st6" id="rect428" d="M0 839.06h65.197v57.818H0z"/><text x="861.29" y="39.8" transform="matrix(0 1 1 0 0 0)" class="st7" id="text430">3</text></g><g id="shape910-200" transform="scale(-1 1) rotate(-44.7 -1010.996 1081.377)"><path class="st6" id="rect438" d="M0 857.314h38.143v39.563H0z"/></g><g id="shape911-202" transform="scale(-1 1) rotate(-44.7 -1000.326 1103.282)"><path class="st6" id="rect443" d="M0 854.987h15.026v41.891H0z"/></g><g id="shape912-204" transform="scale(-1 1) rotate(-44.7 -1014.973 1079.726)"><path d="m8.97 896.88 10.85-3.85v-27.26l-10.85-3.8a235.919 233.239-180 0 0 0 34.91zm10.85-3.85h18.44a91.622 90.962-180 0 0 0-27.26H19.82Zm-18.78 3.85h7.93a235.919 233.239 0 0 1 0-34.91H1.04a150.587 148.876-180 0 0 0 34.91z" class="st6" id="path448"/></g><g id="shape913-206" transform="scale(-1 1) rotate(45.3 573.613 52.922)"><path class="st8" id="rect453" d="M0 896.588h1.164v.289H0z"/></g><g id="shape914-208" transform="scale(-1 1) rotate(45.3 577.475 6.649)"><path d="M2.62 886.76h1.45v-1.44H2.62Zm1.74 0h1.46v-1.44H4.36Zm1.75 0h1.45v-1.44H6.11Zm1.74 0h1.46v-1.44H7.85Zm11.2 0h1.46v-1.44h-1.46zm1.75 0h1.45v-1.44H20.8Zm1.75 0H24v-1.44h-1.45zm1.74 0h1.46v-1.44h-1.46ZM0 889.65h2.33v-1.44H0Zm2.62 0h1.45v-1.44H2.62Zm1.74 0h1.46v-1.44H4.36Zm1.75 0h1.45v-1.44H6.11Zm1.74 0h1.46v-1.44H7.85Zm1.75 0h1.45v-1.44H9.6Zm1.75 0h1.45v-1.44h-1.45zm1.74 0h1.46v-1.44h-1.46zm1.75 0h1.45v-1.44h-1.45zm1.74 0h1.46v-1.44h-1.46zm1.75 0h1.45v-1.44h-1.45zm1.74 0h1.46v-1.44h-1.46zm1.75 0h1.45v-1.44h-1.45zm-19.2 1.81h1.45v-1.45H2.62Zm1.74 0h1.46v-1.45H4.36Zm1.75 0h1.45v-1.45H6.11Zm1.74 0h1.46v-1.45H7.85Zm1.75 0h1.45v-1.45H9.6Zm1.75 0h1.45v-1.45h-1.45zm1.74 0h1.46v-1.45h-1.46zm1.75 0h1.45v-1.45h-1.45zm1.74 0h1.46v-1.45h-1.46zm1.75 0h1.45v-1.45h-1.45zm1.74 0h1.46v-1.45h-1.46zm1.75 0h1.45v-1.45h-1.45zm-19.2 1.81h1.45v-1.45H2.62Zm1.74 0h1.46v-1.45H4.36Zm1.75 0h1.45v-1.45H6.11Zm1.74 0h1.46v-1.45H7.85Zm1.75 0h1.45v-1.45H9.6Zm1.75 0h1.45v-1.45h-1.45zm1.74 0h1.46v-1.45h-1.46zm1.75 0h1.45v-1.45h-1.45zm1.74 0h1.46v-1.45h-1.46zm1.75 0h1.45v-1.45h-1.45zm1.74 0h1.46v-1.45h-1.46zm1.75 0h1.45v-1.45h-1.45zm-19.2 1.8h1.45v-1.44H2.62Zm1.74 0h1.46v-1.44H4.36Zm1.75 0h1.45v-1.44H6.11Zm1.74 0h1.46v-1.44H7.85Zm1.75 0h1.45v-1.44H9.6Zm1.75 0h1.45v-1.44h-1.45zm1.74 0h1.46v-1.44h-1.46zm1.75 0h1.45v-1.44h-1.45zm1.74 0h1.46v-1.44h-1.46zm1.75 0h1.45v-1.44h-1.45zm1.74 0h1.46v-1.44h-1.46zm-13.96 1.81h11.93v-1.45H6.11Zm26.47 0h3.49v-1.45h-3.49zm3.78 0h1.46v-1.45h-1.46zm0-1.81h1.46v-1.44h-1.46zm-1.89 0h1.46v-1.44h-1.46zm-1.89 0h1.46v-1.44h-1.46zm0-1.8h1.46v-1.45h-1.46zm0-1.81h1.46v-1.45h-1.46zm1.89 0h1.46v-1.45h-1.46zm1.89 0h1.46v-1.45h-1.46zm0 1.81h1.46v-1.45h-1.46zm-1.89 0h1.46v-1.45h-1.46z" class="st9" id="path458"/></g><g id="shape915-210" transform="scale(-1 1) rotate(45.3 577.475 6.649)"><path d="M0 886.76h1.45v-1.44H0Zm0 4.7h2.33v-1.45H0Zm0 1.81h2.33v-1.45H0Zm0 1.8h2.33v-1.44H0Zm0 1.81h2.33v-1.45H0Zm2.62 0h1.45v-1.45H2.62Zm1.74 0h1.46v-1.45H4.36Zm13.97 0h1.45v-1.45h-1.45zm1.74 0h1.46v-1.45h-1.46zm1.75 0h1.45v-1.45h-1.45zm1.74 0h2.33v-1.45h-2.33zm3.2 0h1.46v-1.45h-1.46zm1.75 0h1.45v-1.45h-1.45zm1.74 0h1.46v-1.45h-1.46zm8 0h1.46v-3.18h-1.46zm0-3.47h1.46v-3.4h-1.46zm0-3.76h1.46v-1.44h-1.46zm-1.89 0h1.46v-1.44h-1.46zm-1.89 0h1.46v-1.44h-1.46zm-1.89 0h1.46v-1.44h-1.46zm-2.33 0h1.46v-1.44h-1.46zm0 1.81h1.46v-1.45h-1.46zm-1.74 3.61h1.45v-1.44h-1.45zm-6.69-.02h4.07v-1.45h-4.07zm1.74-1.83h2.33v-3.18h-2.33zm3.2-1.76h1.46v-1.45h-1.46zm1.75 0h1.45v-1.45h-1.45zm0-1.81h1.45v-1.44h-1.45zm-4.95 0h2.33v-1.44h-2.33zm13.97-3.75h1.16v-.29h-1.16zm-1.75 0h1.17v-.29h-1.17zm-5.53.86h1.46v-1.44h-1.46zm-1.74 0h1.45v-1.44h-1.45zm-1.75 0h1.46v-1.44h-1.46zm-10.76 0h1.45v-1.44H16Zm-1.75 0h1.46v-1.44h-1.46zm-1.74 0h1.45v-1.44h-1.45zm-1.75 0h1.46v-1.44h-1.46zm16 2.89h1.46v-1.44h-1.46z" class="st10" id="path463"/></g></g><g transform="translate(-141.084 -163.696)" class="ws" id="1"><g id="shape923-218" transform="rotate(44.7 711.765 929.006)"><path d="M10.91 853.43a157.589 157.613-180 0 0-.03 22.18 28.16 28.16-180 0 0 13.34 13.19h17.51a4.03 4.03 0 0 1 3.8 2.65h2.93A16.145 16.145-180 0 0 64.6 875.3v-21.53a16.137 16.137-180 0 0-16.14-16.14h-2.94a4.04 4.04 0 0 1-3.81 2.73H24.08a28.16 28.16-180 0 0-13.17 13.07zm-.13 11.16a57.393 57.402 0 0 1 1.4-18.84 3.01 3.01-180 0 0-4.04-4.03 30.789 30.793-180 0 0-8.06 22.87 30.203 30.207-180 0 0 8.06 22.87 3.033 3.033-180 0 0 4.04-4.04 55.756 55.764 0 0 1-1.4-18.83zm34.99 28.24a4.039 4.039-180 0 0-4.04-4.04H17.52a4.034 4.034-180 0 0-4.04 4.04 4.04 4.04-180 0 0 4.04 4.05h24.21a4.045 4.045-180 0 0 4.04-4.05zm-.03-56.52a4.023 4.023-180 0 0-4.01-4.03H17.52a4.055 4.055-180 0 0-4.06 4.05 4.049 4.049-180 0 0 4.06 4.04h24.21a4.024 4.024-180 0 0 4.01-4.04z" class="st4" id="path480"/><path d="M10.91 853.43a157.589 157.613-180 0 0-.03 22.18 28.16 28.16-180 0 0 13.34 13.19h17.51a4.03 4.03 0 0 1 3.8 2.65h2.93A16.145 16.145-180 0 0 64.6 875.3v-21.53a16.137 16.137-180 0 0-16.14-16.14h-2.94a4.04 4.04 0 0 1-3.81 2.73H24.08a28.16 28.16-180 0 0-13.17 13.07m-.13 11.16a57.393 57.402 0 0 1 1.4-18.84 3.01 3.01-180 0 0-4.04-4.03 30.789 30.793-180 0 0-8.06 22.87 30.203 30.207-180 0 0 8.06 22.87 3.033 3.033-180 0 0 4.04-4.04 55.756 55.764 0 0 1-1.4-18.83m34.99 28.24a4.039 4.039-180 0 0-4.04-4.04H17.52a4.034 4.034-180 0 0-4.04 4.04 4.04 4.04-180 0 0 4.04 4.05h24.21a4.045 4.045-180 0 0 4.04-4.05m-.03-56.52a4.023 4.023-180 0 0-4.01-4.03H17.52a4.055 4.055-180 0 0-4.06 4.05 4.049 4.049-180 0 0 4.06 4.04h24.21a4.024 4.024-180 0 0 4.01-4.04" class="st5" id="path482"/></g><g id="shape924-222" transform="rotate(-90.3 -2.088 514.03)"><path d="M0 759.4v137.48h134.94v-65.2H65.2V759.4Z" class="st6" id="path488"/></g><g id="shape925-225" transform="rotate(-.3 -99555.4 -59493.665)"><path class="st6" id="rect496" d="M0 839.06h65.197v57.818H0z"/><text x="25.92" y="875.17" class="st7" id="text498">1</text></g><g id="shape927-229" transform="rotate(44.7 673.287 1074.913)"><path class="st6" id="rect506" d="M0 857.314h38.143v39.563H0z"/></g><g id="shape928-231" transform="rotate(44.7 681.111 1051.838)"><path class="st6" id="rect511" d="M0 854.987h15.026v41.891H0z"/></g><g id="shape929-233" transform="rotate(44.7 674.953 1078.884)"><path d="m8.97 896.88 10.85-3.85v-27.26l-10.85-3.8a235.919 233.239-180 0 0 0 34.91zm10.85-3.85h18.44a91.622 90.962-180 0 0 0-27.26H19.82Zm-18.78 3.85h7.93a235.919 233.239 0 0 1 0-34.91H1.04a150.587 148.876-180 0 0 0 34.91z" class="st6" id="path516"/></g><g id="shape930-235" transform="rotate(134.7 249.721 748.826)"><path class="st8" id="rect521" d="M0 896.588h1.164v.289H0z"/></g><g id="shape931-237" transform="rotate(134.7 264.448 736.235)"><path d="M2.62 886.76h1.45v-1.44H2.62Zm1.74 0h1.46v-1.44H4.36Zm1.75 0h1.45v-1.44H6.11Zm1.74 0h1.46v-1.44H7.85Zm11.2 0h1.46v-1.44h-1.46zm1.75 0h1.45v-1.44H20.8Zm1.75 0H24v-1.44h-1.45zm1.74 0h1.46v-1.44h-1.46ZM0 889.65h2.33v-1.44H0Zm2.62 0h1.45v-1.44H2.62Zm1.74 0h1.46v-1.44H4.36Zm1.75 0h1.45v-1.44H6.11Zm1.74 0h1.46v-1.44H7.85Zm1.75 0h1.45v-1.44H9.6Zm1.75 0h1.45v-1.44h-1.45zm1.74 0h1.46v-1.44h-1.46zm1.75 0h1.45v-1.44h-1.45zm1.74 0h1.46v-1.44h-1.46zm1.75 0h1.45v-1.44h-1.45zm1.74 0h1.46v-1.44h-1.46zm1.75 0h1.45v-1.44h-1.45zm-19.2 1.81h1.45v-1.45H2.62Zm1.74 0h1.46v-1.45H4.36Zm1.75 0h1.45v-1.45H6.11Zm1.74 0h1.46v-1.45H7.85Zm1.75 0h1.45v-1.45H9.6Zm1.75 0h1.45v-1.45h-1.45zm1.74 0h1.46v-1.45h-1.46zm1.75 0h1.45v-1.45h-1.45zm1.74 0h1.46v-1.45h-1.46zm1.75 0h1.45v-1.45h-1.45zm1.74 0h1.46v-1.45h-1.46zm1.75 0h1.45v-1.45h-1.45zm-19.2 1.81h1.45v-1.45H2.62Zm1.74 0h1.46v-1.45H4.36Zm1.75 0h1.45v-1.45H6.11Zm1.74 0h1.46v-1.45H7.85Zm1.75 0h1.45v-1.45H9.6Zm1.75 0h1.45v-1.45h-1.45zm1.74 0h1.46v-1.45h-1.46zm1.75 0h1.45v-1.45h-1.45zm1.74 0h1.46v-1.45h-1.46zm1.75 0h1.45v-1.45h-1.45zm1.74 0h1.46v-1.45h-1.46zm1.75 0h1.45v-1.45h-1.45zm-19.2 1.8h1.45v-1.44H2.62Zm1.74 0h1.46v-1.44H4.36Zm1.75 0h1.45v-1.44H6.11Zm1.74 0h1.46v-1.44H7.85Zm1.75 0h1.45v-1.44H9.6Zm1.75 0h1.45v-1.44h-1.45zm1.74 0h1.46v-1.44h-1.46zm1.75 0h1.45v-1.44h-1.45zm1.74 0h1.46v-1.44h-1.46zm1.75 0h1.45v-1.44h-1.45zm1.74 0h1.46v-1.44h-1.46zm-13.96 1.81h11.93v-1.45H6.11Zm26.47 0h3.49v-1.45h-3.49zm3.78 0h1.46v-1.45h-1.46zm0-1.81h1.46v-1.44h-1.46zm-1.89 0h1.46v-1.44h-1.46zm-1.89 0h1.46v-1.44h-1.46zm0-1.8h1.46v-1.45h-1.46zm0-1.81h1.46v-1.45h-1.46zm1.89 0h1.46v-1.45h-1.46zm1.89 0h1.46v-1.45h-1.46zm0 1.81h1.46v-1.45h-1.46zm-1.89 0h1.46v-1.45h-1.46z" class="st9" id="path526"/></g><g id="shape932-239" transform="rotate(134.7 264.448 736.235)"><path d="M0 886.76h1.45v-1.44H0Zm0 4.7h2.33v-1.45H0Zm0 1.81h2.33v-1.45H0Zm0 1.8h2.33v-1.44H0Zm0 1.81h2.33v-1.45H0Zm2.62 0h1.45v-1.45H2.62Zm1.74 0h1.46v-1.45H4.36Zm13.97 0h1.45v-1.45h-1.45zm1.74 0h1.46v-1.45h-1.46zm1.75 0h1.45v-1.45h-1.45zm1.74 0h2.33v-1.45h-2.33zm3.2 0h1.46v-1.45h-1.46zm1.75 0h1.45v-1.45h-1.45zm1.74 0h1.46v-1.45h-1.46zm8 0h1.46v-3.18h-1.46zm0-3.47h1.46v-3.4h-1.46zm0-3.76h1.46v-1.44h-1.46zm-1.89 0h1.46v-1.44h-1.46zm-1.89 0h1.46v-1.44h-1.46zm-1.89 0h1.46v-1.44h-1.46zm-2.33 0h1.46v-1.44h-1.46zm0 1.81h1.46v-1.45h-1.46zm-1.74 3.61h1.45v-1.44h-1.45zm-6.69-.02h4.07v-1.45h-4.07zm1.74-1.83h2.33v-3.18h-2.33zm3.2-1.76h1.46v-1.45h-1.46zm1.75 0h1.45v-1.45h-1.45zm0-1.81h1.45v-1.44h-1.45zm-4.95 0h2.33v-1.44h-2.33zm13.97-3.75h1.16v-.29h-1.16zm-1.75 0h1.17v-.29h-1.17zm-5.53.86h1.46v-1.44h-1.46zm-1.74 0h1.45v-1.44h-1.45zm-1.75 0h1.46v-1.44h-1.46zm-10.76 0h1.45v-1.44H16Zm-1.75 0h1.46v-1.44h-1.46zm-1.74 0h1.45v-1.44h-1.45zm-1.75 0h1.46v-1.44h-1.46zm16 2.89h1.46v-1.44h-1.46z" class="st10" id="path531"/></g></g><g transform="translate(-142.506 -165.107)" class="ws" id="6"><g id="shape1173-252" transform="rotate(-45.4 -300.26 -305.692)"><path d="M10.91 853.43a157.589 157.613-180 0 0-.03 22.18 28.16 28.16-180 0 0 13.34 13.19h17.51a4.03 4.03 0 0 1 3.8 2.65h2.93A16.145 16.145-180 0 0 64.6 875.3v-21.53a16.137 16.137-180 0 0-16.14-16.14h-2.94a4.04 4.04 0 0 1-3.81 2.73H24.08a28.16 28.16-180 0 0-13.17 13.07zm-.13 11.16a57.393 57.402 0 0 1 1.4-18.84 3.01 3.01-180 0 0-4.04-4.03 30.789 30.793-180 0 0-8.06 22.87 30.203 30.207-180 0 0 8.06 22.87 3.033 3.033-180 0 0 4.04-4.04 55.756 55.764 0 0 1-1.4-18.83zm34.99 28.24a4.039 4.039-180 0 0-4.04-4.04H17.52a4.034 4.034-180 0 0-4.04 4.04 4.04 4.04-180 0 0 4.04 4.05h24.21a4.045 4.045-180 0 0 4.04-4.05zm-.03-56.52a4.023 4.023-180 0 0-4.01-4.03H17.52a4.055 4.055-180 0 0-4.06 4.05 4.049 4.049-180 0 0 4.06 4.04h24.21a4.024 4.024-180 0 0 4.01-4.04z" class="st4" id="path557"/><path d="M10.91 853.43a157.589 157.613-180 0 0-.03 22.18 28.16 28.16-180 0 0 13.34 13.19h17.51a4.03 4.03 0 0 1 3.8 2.65h2.93A16.145 16.145-180 0 0 64.6 875.3v-21.53a16.137 16.137-180 0 0-16.14-16.14h-2.94a4.04 4.04 0 0 1-3.81 2.73H24.08a28.16 28.16-180 0 0-13.17 13.07m-.13 11.16a57.393 57.402 0 0 1 1.4-18.84 3.01 3.01-180 0 0-4.04-4.03 30.789 30.793-180 0 0-8.06 22.87 30.203 30.207-180 0 0 8.06 22.87 3.033 3.033-180 0 0 4.04-4.04 55.756 55.764 0 0 1-1.4-18.83m34.99 28.24a4.039 4.039-180 0 0-4.04-4.04H17.52a4.034 4.034-180 0 0-4.04 4.04 4.04 4.04-180 0 0 4.04 4.05h24.21a4.045 4.045-180 0 0 4.04-4.05m-.03-56.52a4.023 4.023-180 0 0-4.01-4.03H17.52a4.055 4.055-180 0 0-4.06 4.05 4.049 4.049-180 0 0 4.06 4.04h24.21a4.024 4.024-180 0 0 4.01-4.04" class="st5" id="path559"/></g><g id="shape1174-256" transform="rotate(179.6 434.702 539.309)"><path d="M0 759.4v137.48h134.94v-65.2H65.2V759.4Z" class="st6" id="path565"/></g><g id="shape1175-259" transform="rotate(89.6 697.712 877.62)"><path class="st6" id="rect573" d="M0 839.06h65.197v57.818H0z"/><text x="861.29" y="-25.4" transform="rotate(90)" class="st7" id="text575">9</text></g><g id="shape1177-263" transform="rotate(-45.4 -369.751 -426.065)"><path class="st6" id="rect583" d="M0 857.314h38.143v39.563H0z"/></g><g id="shape1178-265" transform="rotate(-45.4 -359.106 -404.545)"><path class="st6" id="rect588" d="M0 854.987h15.026v41.891H0z"/></g><g id="shape1179-267" transform="rotate(-45.4 -373.68 -427.668)"><path d="m8.97 896.88 10.85-3.85v-27.26l-10.85-3.8a235.919 233.239-180 0 0 0 34.91zm10.85-3.85h18.44a91.622 90.962-180 0 0 0-27.26H19.82Zm-18.78 3.85h7.93a235.919 233.239 0 0 1 0-34.91H1.04a150.587 148.876-180 0 0 0 34.91z" class="st6" id="path593"/></g><g id="shape1180-269" transform="rotate(44.6 1213.685 1572.995)"><path class="st8" id="rect598" d="M0 896.588h1.164v.289H0z"/></g><g id="shape1181-271" transform="rotate(44.6 1217.317 1526.01)"><path d="M2.62 886.76h1.45v-1.44H2.62Zm1.74 0h1.46v-1.44H4.36Zm1.75 0h1.45v-1.44H6.11Zm1.74 0h1.46v-1.44H7.85Zm11.2 0h1.46v-1.44h-1.46zm1.75 0h1.45v-1.44H20.8Zm1.75 0H24v-1.44h-1.45zm1.74 0h1.46v-1.44h-1.46ZM0 889.65h2.33v-1.44H0Zm2.62 0h1.45v-1.44H2.62Zm1.74 0h1.46v-1.44H4.36Zm1.75 0h1.45v-1.44H6.11Zm1.74 0h1.46v-1.44H7.85Zm1.75 0h1.45v-1.44H9.6Zm1.75 0h1.45v-1.44h-1.45zm1.74 0h1.46v-1.44h-1.46zm1.75 0h1.45v-1.44h-1.45zm1.74 0h1.46v-1.44h-1.46zm1.75 0h1.45v-1.44h-1.45zm1.74 0h1.46v-1.44h-1.46zm1.75 0h1.45v-1.44h-1.45zm-19.2 1.81h1.45v-1.45H2.62Zm1.74 0h1.46v-1.45H4.36Zm1.75 0h1.45v-1.45H6.11Zm1.74 0h1.46v-1.45H7.85Zm1.75 0h1.45v-1.45H9.6Zm1.75 0h1.45v-1.45h-1.45zm1.74 0h1.46v-1.45h-1.46zm1.75 0h1.45v-1.45h-1.45zm1.74 0h1.46v-1.45h-1.46zm1.75 0h1.45v-1.45h-1.45zm1.74 0h1.46v-1.45h-1.46zm1.75 0h1.45v-1.45h-1.45zm-19.2 1.81h1.45v-1.45H2.62Zm1.74 0h1.46v-1.45H4.36Zm1.75 0h1.45v-1.45H6.11Zm1.74 0h1.46v-1.45H7.85Zm1.75 0h1.45v-1.45H9.6Zm1.75 0h1.45v-1.45h-1.45zm1.74 0h1.46v-1.45h-1.46zm1.75 0h1.45v-1.45h-1.45zm1.74 0h1.46v-1.45h-1.46zm1.75 0h1.45v-1.45h-1.45zm1.74 0h1.46v-1.45h-1.46zm1.75 0h1.45v-1.45h-1.45zm-19.2 1.8h1.45v-1.44H2.62Zm1.74 0h1.46v-1.44H4.36Zm1.75 0h1.45v-1.44H6.11Zm1.74 0h1.46v-1.44H7.85Zm1.75 0h1.45v-1.44H9.6Zm1.75 0h1.45v-1.44h-1.45zm1.74 0h1.46v-1.44h-1.46zm1.75 0h1.45v-1.44h-1.45zm1.74 0h1.46v-1.44h-1.46zm1.75 0h1.45v-1.44h-1.45zm1.74 0h1.46v-1.44h-1.46zm-13.96 1.81h11.93v-1.45H6.11Zm26.47 0h3.49v-1.45h-3.49zm3.78 0h1.46v-1.45h-1.46zm0-1.81h1.46v-1.44h-1.46zm-1.89 0h1.46v-1.44h-1.46zm-1.89 0h1.46v-1.44h-1.46zm0-1.8h1.46v-1.45h-1.46zm0-1.81h1.46v-1.45h-1.46zm1.89 0h1.46v-1.45h-1.46zm1.89 0h1.46v-1.45h-1.46zm0 1.81h1.46v-1.45h-1.46zm-1.89 0h1.46v-1.45h-1.46z" class="st9" id="path603"/></g><g id="shape1182-273" transform="rotate(44.6 1217.317 1526.01)"><path d="M0 886.76h1.45v-1.44H0Zm0 4.7h2.33v-1.45H0Zm0 1.81h2.33v-1.45H0Zm0 1.8h2.33v-1.44H0Zm0 1.81h2.33v-1.45H0Zm2.62 0h1.45v-1.45H2.62Zm1.74 0h1.46v-1.45H4.36Zm13.97 0h1.45v-1.45h-1.45zm1.74 0h1.46v-1.45h-1.46zm1.75 0h1.45v-1.45h-1.45zm1.74 0h2.33v-1.45h-2.33zm3.2 0h1.46v-1.45h-1.46zm1.75 0h1.45v-1.45h-1.45zm1.74 0h1.46v-1.45h-1.46zm8 0h1.46v-3.18h-1.46zm0-3.47h1.46v-3.4h-1.46zm0-3.76h1.46v-1.44h-1.46zm-1.89 0h1.46v-1.44h-1.46zm-1.89 0h1.46v-1.44h-1.46zm-1.89 0h1.46v-1.44h-1.46zm-2.33 0h1.46v-1.44h-1.46zm0 1.81h1.46v-1.45h-1.46zm-1.74 3.61h1.45v-1.44h-1.45zm-6.69-.02h4.07v-1.45h-4.07zm1.74-1.83h2.33v-3.18h-2.33zm3.2-1.76h1.46v-1.45h-1.46zm1.75 0h1.45v-1.45h-1.45zm0-1.81h1.45v-1.44h-1.45zm-4.95 0h2.33v-1.44h-2.33zm13.97-3.75h1.16v-.29h-1.16zm-1.75 0h1.17v-.29h-1.17zm-5.53.86h1.46v-1.44h-1.46zm-1.74 0h1.45v-1.44h-1.45zm-1.75 0h1.46v-1.44h-1.46zm-10.76 0h1.45v-1.44H16Zm-1.75 0h1.46v-1.44h-1.46zm-1.74 0h1.45v-1.44h-1.45zm-1.75 0h1.46v-1.44h-1.46zm16 2.89h1.46v-1.44h-1.46z" class="st10" id="path608"/></g></g><g transform="translate(-142.506 -165.107)" class="wp" id="g1481"><g id="shape725-93" transform="rotate(179.465 436.812 705.71)"><path class="st6" id="rect197" d="M0 891.208h137.482v5.669H0z"/></g><g id="shape727-98" transform="rotate(-90.7 247.85 270.224)"><path class="st6" id="rect206" d="M0 891.208h134.938v5.669H0z"/></g><g id="shape729-103" transform="rotate(-90.7 180.38 203.574)"><path class="st6" id="rect215" d="M0 891.208h57.818v5.669H0z"/></g><g id="shape864-152" transform="rotate(89.765 551.894 728.473)"><path class="st6" id="rect327" d="M0 891.208h137.482v5.669H0z"/></g><g id="shape883-181" transform="scale(-1 1) rotate(-89.6 -384.914 896.695)"><path class="st6" id="rect395" d="M0 891.208h134.938v5.669H0z"/></g><g id="shape885-186" transform="scale(-1 1) rotate(-89.6 -452.385 828.754)"><path class="st6" id="rect404" d="M0 891.208h57.818v5.669H0z"/></g><g id="shape916-215" transform="scale(1 -1) rotate(-89.535 -348.978 165.77)"><path class="st6" id="rect472" d="M0 891.208h137.482v5.669H0z"/></g><g id="shape935-244" transform="rotate(-90.3 2.146 511.192)"><path class="st6" id="rect540" d="M0 891.208h134.938v5.669H0z"/></g><g id="shape937-249" transform="rotate(-90.3 -65.323 444.075)"><path class="st6" id="rect549" d="M0 891.208h57.818v5.669H0z"/></g><g id="shape1183-278" transform="rotate(89.765 795.429 973.008)"><path class="st6" id="rect617" d="M0 891.208h137.482v5.669H0z"/></g><g id="shape1185-283" transform="scale(1 -1) rotate(-89.535 -105.444 -79.75)"><path class="st6" id="rect626" d="M0 891.208h137.482v5.669H0z"/></g></g><g transform="translate(-142.506 -165.107)" class="any" id="g1843"><g id="group631-2" transform="rotate(-90 -64.987 684.455)"><g id="shape632-3"><path d="M-4.25 892.63h457.94l-4.26 4.25H0Z" class="st1" id="path12"/></g><g id="shape633-6" transform="rotate(-135 .001 896.88)"><path class="st2" id="rect17" d="M0 896.452h6.013v.425H0z"/></g><g id="shape634-8" transform="rotate(135 227.722 988.71)"><path class="st2" id="rect22" d="M0 896.452h6.013v.425H0z"/></g><g id="shape635-10"/><g id="shape636-12"><path d="M-4.25 892.63h457.94" class="st3" id="path30"/><path d="M0 896.88h449.43" class="st3" id="path32"/></g><g id="shape637-16" transform="translate(185.101 -4.252)"/></g><g id="group638-18" transform="translate(147.435 -726.842)"><g id="shape639-19"><path d="M-4.25 892.63h741.58l-4.25 4.25H0Z" class="st1" id="path43"/></g><g id="shape640-22" transform="rotate(-135 .001 896.88)"><path class="st2" id="rect48" d="M0 896.452h6.013v.425H0z"/></g><g id="shape641-24" transform="rotate(135 369.547 1047.456)"><path class="st2" id="rect53" d="M0 896.452h6.013v.425H0z"/></g><g id="shape642-26"/><g id="shape643-28"><path d="M-4.25 892.63h741.58" class="st3" id="path61"/><path d="M0 896.88h733.08" class="st3" id="path63"/></g><g id="shape644-32" transform="translate(326.923 -4.252)"/></g><g id="group645-34" transform="rotate(90 803.675 973.71)"><g id="shape646-35"><path d="M-4.25 892.63h457.94l-4.26 4.25H0Z" class="st1" id="path74"/></g><g id="shape647-38" transform="rotate(-135 .001 896.88)"><path class="st2" id="rect79" d="M0 896.452h6.013v.425H0z"/></g><g id="shape648-40" transform="rotate(135 227.722 988.71)"><path class="st2" id="rect84" d="M0 896.452h6.013v.425H0z"/></g><g id="shape649-42"/><g id="shape650-44"><path d="M-4.25 892.63h457.94" class="st3" id="path92"/><path d="M0 896.88h449.43" class="st3" id="path94"/></g><g id="shape651-48" transform="translate(185.101 -4.252)"/></g><g id="group652-50" transform="rotate(180 440.256 758.173)"><g id="shape653-51"><path d="M-4.25 892.63h741.58l-4.25 4.25H0Z" class="st1" id="path105"/></g><g id="shape654-54" transform="rotate(-135 .001 896.88)"><path class="st2" id="rect110" d="M0 896.452h6.013v.425H0z"/></g><g id="shape655-56" transform="rotate(135 369.547 1047.456)"><path class="st2" id="rect115" d="M0 896.452h6.013v.425H0z"/></g><g id="shape656-58"/><g id="shape657-60"><path d="M-4.25 892.63h741.58" class="st3" id="path123"/><path d="M0 896.88h733.08" class="st3" id="path125"/></g><g id="shape658-64" transform="translate(326.923 -4.252)"/></g><g id="shape726-91" transform="rotate(179.465 515.714 708.176)"/><g id="shape728-96" transform="rotate(-90.7 324.574 351.617)"/><g id="shape730-101" transform="rotate(-90.7 276.385 304.014)"/><g id="shape759-106" transform="rotate(-90 127.075 443.912)"/><g id="shape760-108" transform="rotate(-90 107.232 463.754)"><path d="M0 896.88h2.83v-2.84H0Zm0-8.51h2.83v-2.83H0Z" class="st11" id="path226"/></g><g id="shape761-110" transform="rotate(-90 150.46 467.298)"><path d="M0 896.88v-90.71h43.94v90.71zm43.94 0h2.83v-90.71h-2.83z" class="st12" id="path231"/><path d="M0 896.88v-90.71h43.94v90.71H0" class="st13" id="path233"/><path d="M43.94 851.52h2.83" class="st13" id="path235"/><path d="M43.94 896.88h2.83v-90.71h-2.83v90.71" class="st13" id="path237"/></g><g id="shape821-116" transform="rotate(-90 169.74 390.2)"/><g id="shape822-118" transform="rotate(-90 149.898 410.043)"><path d="M0 896.88h2.83v-2.84H0Zm0-8.51h2.83v-2.83H0Z" class="st11" id="path248"/></g><g id="shape823-120" transform="rotate(-90 198.649 419.109)"><path d="M0 896.88v-90.71h54.98v90.71zm54.98 0h2.84v-90.71h-2.84z" class="st12" id="path253"/><path d="M0 896.88v-90.71h54.98v90.71H0" class="st13" id="path255"/><path d="M54.98 851.52h2.84" class="st13" id="path257"/><path d="M54.98 896.88h2.84v-90.71h-2.84v90.71" class="st13" id="path259"/></g><g id="shape865-150" transform="rotate(89.765 633.629 652.095)"/><g id="shape884-179" transform="scale(-1 1) rotate(-89.6 -308.244 979.612)"/><g id="shape886-184" transform="scale(-1 1) rotate(-89.6 -356.434 931.085)"/><g id="shape917-213" transform="scale(1 -1) rotate(-89.535 -272.947 248.137)"/><g id="shape936-242" transform="rotate(-90.3 78.851 593.137)"/><g id="shape938-247" transform="rotate(-90.3 30.662 545.199)"/><g id="shape1184-276" transform="rotate(89.765 877.164 896.63)"/><g id="shape1186-281" transform="scale(1 -1) rotate(-89.535 -29.412 2.616)"/><g id="shape841-286" transform="matrix(1 0 0 -1 246.118 1516.34)"><path d="M-1.42 897.02H99.21v-4.54H-1.42Z" class="st14" id="path634"/></g><g id="shape842-288" transform="matrix(1 0 0 -1 243.283 1514.923)"/><g id="shape843-290" transform="matrix(1 0 0 -1 243.283 1520.592)"/><g id="shape844-292" transform="matrix(1 0 0 -1 244.7 1516.34)"/><g id="shape845-294" transform="matrix(1 0 0 -1 244.7 1516.34)"><path d="M100.63 896.88v-4.25h-1.42v4.25zM0 896.88v-4.25h1.42v4.25z" class="st4" id="path648"/><path d="M100.63 896.88v-4.25h-1.42v1.41m0 1.42v1.42h1.42M0 896.88v-4.25h1.42v1.41m0 1.42v1.42H0" class="st5" id="path650"/></g><g id="shape846-297" transform="matrix(1 0 0 -1 246.118 1517.757)"><path d="M97.8 895.46h-.57v1.42h.57zm-97.8 0h.57v1.42H0Z" class="st4" id="path655"/><path d="M97.8 895.46h-.57v1.42h.57M0 895.46h.57v1.42H0" class="st5" id="path657"/></g><g id="shape847-300" transform="matrix(1 0 0 -1 244.7 1516.34)"><path d="M100.63 896.88v-4.25" class="st5" id="path662"/><path d="M0 896.88v-4.25" class="st5" id="path664"/></g><g id="shape848-304" transform="matrix(1 0 0 -1 246.118 1520.592)"><path d="M0 896.88a97.795 97.795 0 0 1 25.43-65.79" class="st5" id="path669"/></g><g id="shape849-307" transform="scale(1 -1) rotate(42.274 2185.608 454.177)"><path class="st6" id="rect674" d="M0 895.46h97.795v1.417H0z"/></g><g id="shape850-309" transform="translate(246.118 -274.58)"/><g id="shape851-311" transform="scale(1 -1) rotate(-42.274 -1743.9 -181.016)"><path class="st15" id="rect682" d="M0 895.46h97.795v1.417H0z"/></g><g id="shape852-313" transform="matrix(1 0 0 -1 260.008 1520.592)"/></g></svg>