<svg xmlns="http://www.w3.org/2000/svg" width="15.411in" height="1590.499" viewBox="0 0 1109.59 1192.87" color-interpolation-filters="sRGB" class="st16" fill="none"><g id="group630-1" transform="rotate(-90 405.736 667.084)"><g id="group631-2" transform="translate(0 -761.642)"><g id="shape632-3"><path d="M-4.25 1188.62H700.3l-4.25 4.25H0l-4.25-4.25Z" class="st1"/></g><g id="shape633-6" transform="rotate(-135 0 1192.872)"><path class="st2" d="M0 1192.45h6.013v.425H0z"/></g><g id="shape634-8" transform="rotate(135 351.031 1335.784)"><path class="st2" d="M0 1192.45h6.013v.425H0z"/></g><g id="shape636-12"><path d="M-4.25 1188.62H700.3M0 1192.87h696.05" class="st3"/></g></g><g id="group638-18" transform="rotate(90 728.845 1160.075)"><g id="shape639-19"><path d="M-4.25 1188.62h770.14l-4.25 4.25H0l-4.25-4.25Z" class="st1"/></g><g id="shape640-22" transform="rotate(-135 0 1192.872)"><path class="st2" d="M0 1192.45h6.013v.425H0z"/></g><g id="shape641-24" transform="rotate(135 383.826 1349.369)"><path class="st2" d="M0 1192.45h6.013v.425H0z"/></g><g id="shape643-28"><path d="M-4.25 1188.62h770.14M0 1192.87h761.64" class="st3"/></g></g><g id="group645-34" transform="rotate(180 348.023 1192.87)"><g id="shape646-35"><path d="M-4.25 1188.62H700.3l-4.25 4.25H0l-4.25-4.25Z" class="st1"/></g><g id="shape647-38" transform="rotate(-135 0 1192.872)"><path class="st2" d="M0 1192.45h6.013v.425H0z"/></g><g id="shape648-40" transform="rotate(135 351.031 1335.784)"><path class="st2" d="M0 1192.45h6.013v.425H0z"/></g><g id="shape650-44"><path d="M-4.25 1188.62H700.3M0 1192.87h696.05" class="st3"/></g></g><g id="group652-50" transform="rotate(-90 0 1192.87)"><g id="shape653-51"><path d="M-4.25 1188.62h770.14l-4.25 4.25H0l-4.25-4.25Z" class="st1"/></g><g id="shape654-54" transform="rotate(-135 0 1192.872)"><path class="st2" d="M0 1192.45h6.013v.425H0z"/></g><g id="shape655-56" transform="rotate(135 383.826 1349.369)"><path class="st2" d="M0 1192.45h6.013v.425H0z"/></g><g id="shape657-60"><path d="M-4.25 1188.62h770.14M0 1192.87h761.64" class="st3"/></g></g></g><g id="group714-66" transform="rotate(-135.4 21.647 773.972)"><g id="shape715-67"><path d="M10.91 1149.42a157.589 157.613-180 0 0-.03 22.18 28.16 28.16-180 0 0 13.34 13.2h17.51a4.03 4.03 0 0 1 3.8 2.65h2.93a16.145 16.145-180 0 0 16.14-16.16v-21.53a16.137 16.137-180 0 0-16.14-16.13h-2.94a4.04 4.04 0 0 1-3.81 2.73H24.08a28.16 28.16-180 0 0-13.17 13.06Zm-.13 11.16a57.393 57.402 0 0 1 1.4-18.84 3.01 3.01-180 0 0-4.04-4.03 30.789 30.793-180 0 0-8.06 22.88 30.203 30.207-180 0 0 8.06 22.87 3.033 3.033-180 0 0 4.04-4.04 55.756 55.764 0 0 1-1.4-18.84Zm34.99 28.24a4.039 4.039-180 0 0-4.04-4.04H17.52a4.034 4.034-180 0 0-4.04 4.04 4.04 4.04-180 0 0 4.04 4.05h24.21a4.045 4.045-180 0 0 4.04-4.05Zm-.03-56.51a4.023 4.023-180 0 0-4.01-4.04H17.52a4.055 4.055-180 0 0-4.06 4.05 4.049 4.049-180 0 0 4.06 4.04h24.21a4.024 4.024-180 0 0 4.01-4.04v-.01Z" class="st4"/><path d="M10.91 1149.42a157.589 157.613-180 0 0-.03 22.18 28.16 28.16-180 0 0 13.34 13.2h17.51a4.03 4.03 0 0 1 3.8 2.65h2.93a16.145 16.145-180 0 0 16.14-16.16v-21.53a16.137 16.137-180 0 0-16.14-16.13h-2.94a4.04 4.04 0 0 1-3.81 2.73H24.08a28.16 28.16-180 0 0-13.17 13.06m-.13 11.16a57.393 57.402 0 0 1 1.4-18.84 3.01 3.01-180 0 0-4.04-4.03 30.789 30.793-180 0 0-8.06 22.88 30.203 30.207-180 0 0 8.06 22.87 3.033 3.033-180 0 0 4.04-4.04 55.756 55.764 0 0 1-1.4-18.84m34.99 28.24a4.039 4.039-180 0 0-4.04-4.04H17.52a4.034 4.034-180 0 0-4.04 4.04 4.04 4.04-180 0 0 4.04 4.05h24.21a4.045 4.045-180 0 0 4.04-4.05m-.03-56.51a4.023 4.023-180 0 0-4.01-4.04H17.52a4.055 4.055-180 0 0-4.06 4.05 4.049 4.049-180 0 0 4.06 4.04h24.21a4.024 4.024-180 0 0 4.01-4.04" class="st5"/></g></g><g id="group716-70" transform="rotate(89.6 495.237 879.792)"><path d="M0 1055.39v137.48h134.94v-65.19H65.2v-72.29H0Z" class="st6" id="shape716-71"/></g><g id="group717-73" transform="rotate(-.4 -87687.617 -24905.086)"><g id="shape717-74"><path class="st6" d="M0 1135.05h65.197v57.818H0z"/><text x="25.92" y="1171.16" class="st7">3</text></g></g><g id="group718-77" transform="rotate(44.6 1030.97 1028.319)"><g id="shape719-78" transform="rotate(180 20.805 1172.51)"><path class="st6" d="M0 1153.31h38.143v39.563H0z"/></g><g id="shape720-80" transform="rotate(180 30.052 1171.925)"><path class="st6" d="M0 1150.98h15.026v41.891H0z"/></g><g id="shape721-82" transform="rotate(180 19.65 1173.67)"><path d="m8.97 1192.87 10.85-3.85v-27.25l-10.85-3.81a235.919 233.239-180 0 0 0 34.91Zm10.85-3.85h18.44a91.622 90.962-180 0 0 0-27.26H19.82v27.26Zm-18.78 3.85h7.93a235.919 233.239 0 0 1 0-34.91H1.04a150.587 148.876-180 0 0 0 34.91Z" class="st6"/></g><g id="shape722-84" transform="rotate(-90 5.81 1151.87)"><path class="st8" d="M0 1192.58h1.164v.289H0z"/></g><g id="shape723-86" transform="rotate(-90 28.32 1163.4)"><path d="M2.62 1182.76h1.45v-1.45H2.62v1.45Zm1.74 0h1.46v-1.45H4.36v1.45Zm1.75 0h1.45v-1.45H6.11v1.45Zm1.74 0h1.46v-1.45H7.85v1.45Zm11.2 0h1.46v-1.45h-1.46v1.45Zm1.75 0h1.45v-1.45H20.8v1.45Zm1.75 0H24v-1.45h-1.45v1.45Zm1.74 0h1.46v-1.45h-1.46v1.45ZM0 1185.65h2.33v-1.45H0v1.45Zm2.62 0h1.45v-1.45H2.62v1.45Zm1.74 0h1.46v-1.45H4.36v1.45Zm1.75 0h1.45v-1.45H6.11v1.45Zm1.74 0h1.46v-1.45H7.85v1.45Zm1.75 0h1.45v-1.45H9.6v1.45Zm1.75 0h1.45v-1.45h-1.45v1.45Zm1.74 0h1.46v-1.45h-1.46v1.45Zm1.75 0h1.45v-1.45h-1.45v1.45Zm1.74 0h1.46v-1.45h-1.46v1.45Zm1.75 0h1.45v-1.45h-1.45v1.45Zm1.74 0h1.46v-1.45h-1.46v1.45Zm1.75 0h1.45v-1.45h-1.45v1.45Zm-19.2 1.8h1.45v-1.44H2.62v1.44Zm1.74 0h1.46v-1.44H4.36v1.44Zm1.75 0h1.45v-1.44H6.11v1.44Zm1.74 0h1.46v-1.44H7.85v1.44Zm1.75 0h1.45v-1.44H9.6v1.44Zm1.75 0h1.45v-1.44h-1.45v1.44Zm1.74 0h1.46v-1.44h-1.46v1.44Zm1.75 0h1.45v-1.44h-1.45v1.44Zm1.74 0h1.46v-1.44h-1.46v1.44Zm1.75 0h1.45v-1.44h-1.45v1.44Zm1.74 0h1.46v-1.44h-1.46v1.44Zm1.75 0h1.45v-1.44h-1.45v1.44Zm-19.2 1.81h1.45v-1.44H2.62v1.44Zm1.74 0h1.46v-1.44H4.36v1.44Zm1.75 0h1.45v-1.44H6.11v1.44Zm1.74 0h1.46v-1.44H7.85v1.44Zm1.75 0h1.45v-1.44H9.6v1.44Zm1.75 0h1.45v-1.44h-1.45v1.44Zm1.74 0h1.46v-1.44h-1.46v1.44Zm1.75 0h1.45v-1.44h-1.45v1.44Zm1.74 0h1.46v-1.44h-1.46v1.44Zm1.75 0h1.45v-1.44h-1.45v1.44Zm1.74 0h1.46v-1.44h-1.46v1.44Zm1.75 0h1.45v-1.44h-1.45v1.44Zm-19.2 1.81h1.45v-1.45H2.62v1.45Zm1.74 0h1.46v-1.45H4.36v1.45Zm1.75 0h1.45v-1.45H6.11v1.45Zm1.74 0h1.46v-1.45H7.85v1.45Zm1.75 0h1.45v-1.45H9.6v1.45Zm1.75 0h1.45v-1.45h-1.45v1.45Zm1.74 0h1.46v-1.45h-1.46v1.45Zm1.75 0h1.45v-1.45h-1.45v1.45Zm1.74 0h1.46v-1.45h-1.46v1.45Zm1.75 0h1.45v-1.45h-1.45v1.45Zm1.74 0h1.46v-1.45h-1.46v1.45Zm-13.96 1.8h11.93v-1.44H6.11v1.44Zm26.47 0h3.49v-1.44h-3.49v1.44Zm3.78 0h1.46v-1.44h-1.46v1.44Zm0-1.8h1.46v-1.45h-1.46v1.45Zm-1.89 0h1.46v-1.45h-1.46v1.45Zm-1.89 0h1.46v-1.45h-1.46v1.45Zm0-1.81h1.46v-1.44h-1.46v1.44Zm0-1.81h1.46v-1.44h-1.46v1.44Zm1.89 0h1.46v-1.44h-1.46v1.44Zm1.89 0h1.46v-1.44h-1.46v1.44Zm0 1.81h1.46v-1.44h-1.46v1.44Zm-1.89 0h1.46v-1.44h-1.46v1.44Z" class="st9"/></g><g id="shape724-88" transform="rotate(-90 28.32 1163.4)"><path d="M0 1182.76h1.45v-1.45H0v1.45Zm0 4.69h2.33v-1.44H0v1.44Zm0 1.81h2.33v-1.44H0v1.44Zm0 1.81h2.33v-1.45H0v1.45Zm0 1.8h2.33v-1.44H0v1.44Zm2.62 0h1.45v-1.44H2.62v1.44Zm1.74 0h1.46v-1.44H4.36v1.44Zm13.97 0h1.45v-1.44h-1.45v1.44Zm1.74 0h1.46v-1.44h-1.46v1.44Zm1.75 0h1.45v-1.44h-1.45v1.44Zm1.74 0h2.33v-1.44h-2.33v1.44Zm3.2 0h1.46v-1.44h-1.46v1.44Zm1.75 0h1.45v-1.44h-1.45v1.44Zm1.74 0h1.46v-1.44h-1.46v1.44Zm8 0h1.46v-3.18h-1.46v3.18Zm0-3.47h1.46v-3.39h-1.46v3.39Zm0-3.75h1.46v-1.45h-1.46v1.45Zm-1.89 0h1.46v-1.45h-1.46v1.45Zm-1.89 0h1.46v-1.45h-1.46v1.45Zm-1.89 0h1.46v-1.45h-1.46v1.45Zm-2.33 0h1.46v-1.45h-1.46v1.45Zm0 1.8h1.46v-1.44h-1.46v1.44Zm-1.74 3.62h1.45v-1.45h-1.45v1.45Zm-6.69-.03h4.07v-1.44h-4.07v1.44Zm1.74-1.83h2.33v-3.18h-2.33v3.18Zm3.2-1.76h1.46v-1.44h-1.46v1.44Zm1.75 0h1.45v-1.44h-1.45v1.44Zm0-1.8h1.45v-1.45h-1.45v1.45Zm-4.95 0h2.33v-1.45h-2.33v1.45Zm13.97-3.76h1.16v-.29h-1.16v.29Zm-1.75 0h1.17v-.29h-1.17v.29Zm-5.53.87h1.46v-1.45h-1.46v1.45Zm-1.74 0h1.45v-1.45h-1.45v1.45Zm-1.75 0h1.46v-1.45h-1.46v1.45Zm-10.76 0h1.45v-1.45H16v1.45Zm-1.75 0h1.46v-1.45h-1.46v1.45Zm-1.74 0h1.45v-1.45h-1.45v1.45Zm-1.75 0h1.46v-1.45h-1.46v1.45Zm16 2.89h1.46v-1.45h-1.46v1.45Z" class="st10"/></g></g><g id="group725-90" transform="rotate(-.235 -197027.23 -42483.354)"><path class="st6" d="M0 1187.2h137.482v5.669H0z" id="shape725-93"/></g><g id="group727-95" transform="rotate(89.6 492.38 875.538)"><path class="st6" d="M0 1187.2h134.938v5.669H0z" id="shape727-98"/></g><g id="group729-100" transform="rotate(89.6 424.91 943.48)"><path class="st6" d="M0 1187.2h57.818v5.669H0z" id="shape729-103"/></g><g id="group731-105" transform="scale(-1 1) rotate(45.4 462.23 532.648)"><g id="shape732-106"><path d="M10.91 1149.42a157.589 157.613-180 0 0-.03 22.18 28.16 28.16-180 0 0 13.34 13.2h17.51a4.03 4.03 0 0 1 3.8 2.65h2.93a16.145 16.145-180 0 0 16.14-16.16v-21.53a16.137 16.137-180 0 0-16.14-16.13h-2.94a4.04 4.04 0 0 1-3.81 2.73H24.08a28.16 28.16-180 0 0-13.17 13.06Zm-.13 11.16a57.393 57.402 0 0 1 1.4-18.84 3.01 3.01-180 0 0-4.04-4.03 30.789 30.793-180 0 0-8.06 22.88 30.203 30.207-180 0 0 8.06 22.87 3.033 3.033-180 0 0 4.04-4.04 55.756 55.764 0 0 1-1.4-18.84Zm34.99 28.24a4.039 4.039-180 0 0-4.04-4.04H17.52a4.034 4.034-180 0 0-4.04 4.04 4.04 4.04-180 0 0 4.04 4.05h24.21a4.045 4.045-180 0 0 4.04-4.05Zm-.03-56.51a4.023 4.023-180 0 0-4.01-4.04H17.52a4.055 4.055-180 0 0-4.06 4.05 4.049 4.049-180 0 0 4.06 4.04h24.21a4.024 4.024-180 0 0 4.01-4.04v-.01Z" class="st4"/><path d="M10.91 1149.42a157.589 157.613-180 0 0-.03 22.18 28.16 28.16-180 0 0 13.34 13.2h17.51a4.03 4.03 0 0 1 3.8 2.65h2.93a16.145 16.145-180 0 0 16.14-16.16v-21.53a16.137 16.137-180 0 0-16.14-16.13h-2.94a4.04 4.04 0 0 1-3.81 2.73H24.08a28.16 28.16-180 0 0-13.17 13.06m-.13 11.16a57.393 57.402 0 0 1 1.4-18.84 3.01 3.01-180 0 0-4.04-4.03 30.789 30.793-180 0 0-8.06 22.88 30.203 30.207-180 0 0 8.06 22.87 3.033 3.033-180 0 0 4.04-4.04 55.756 55.764 0 0 1-1.4-18.84m34.99 28.24a4.039 4.039-180 0 0-4.04-4.04H17.52a4.034 4.034-180 0 0-4.04 4.04 4.04 4.04-180 0 0 4.04 4.05h24.21a4.045 4.045-180 0 0 4.04-4.05m-.03-56.51a4.023 4.023-180 0 0-4.01-4.04H17.52a4.055 4.055-180 0 0-4.06 4.05 4.049 4.049-180 0 0 4.06 4.04h24.21a4.024 4.024-180 0 0 4.01-4.04" class="st5"/></g></g><g id="group733-109" transform="scale(-1 1) rotate(-89.6 -301.92 1074.465)"><path d="M0 1055.39v137.48h134.94v-65.19H65.2v-72.29H0Z" class="st6" id="shape733-110"/></g><g id="group734-112" transform="scale(-1 1) rotate(.4 79438.493 -34272.732)"><g id="shape734-113"><path class="st6" d="M0 1135.05h65.197v57.818H0z"/><text x="-39.27" y="1171.16" transform="scale(-1 1)" class="st7">2</text></g></g><g id="group735-116" transform="scale(1 -1) rotate(45.4 2400.342 446.592)"><g id="shape736-117" transform="rotate(180 20.805 1172.51)"><path class="st6" d="M0 1153.31h38.143v39.563H0z"/></g><g id="shape737-119" transform="rotate(180 30.052 1171.925)"><path class="st6" d="M0 1150.98h15.026v41.891H0z"/></g><g id="shape738-121" transform="rotate(180 19.65 1173.67)"><path d="m8.97 1192.87 10.85-3.85v-27.25l-10.85-3.81a235.919 233.239-180 0 0 0 34.91Zm10.85-3.85h18.44a91.622 90.962-180 0 0 0-27.26H19.82v27.26Zm-18.78 3.85h7.93a235.919 233.239 0 0 1 0-34.91H1.04a150.587 148.876-180 0 0 0 34.91Z" class="st6"/></g><g id="shape739-123" transform="rotate(-90 5.81 1151.87)"><path class="st8" d="M0 1192.58h1.164v.289H0z"/></g><g id="shape740-125" transform="rotate(-90 28.32 1163.4)"><path d="M2.62 1182.76h1.45v-1.45H2.62v1.45Zm1.74 0h1.46v-1.45H4.36v1.45Zm1.75 0h1.45v-1.45H6.11v1.45Zm1.74 0h1.46v-1.45H7.85v1.45Zm11.2 0h1.46v-1.45h-1.46v1.45Zm1.75 0h1.45v-1.45H20.8v1.45Zm1.75 0H24v-1.45h-1.45v1.45Zm1.74 0h1.46v-1.45h-1.46v1.45ZM0 1185.65h2.33v-1.45H0v1.45Zm2.62 0h1.45v-1.45H2.62v1.45Zm1.74 0h1.46v-1.45H4.36v1.45Zm1.75 0h1.45v-1.45H6.11v1.45Zm1.74 0h1.46v-1.45H7.85v1.45Zm1.75 0h1.45v-1.45H9.6v1.45Zm1.75 0h1.45v-1.45h-1.45v1.45Zm1.74 0h1.46v-1.45h-1.46v1.45Zm1.75 0h1.45v-1.45h-1.45v1.45Zm1.74 0h1.46v-1.45h-1.46v1.45Zm1.75 0h1.45v-1.45h-1.45v1.45Zm1.74 0h1.46v-1.45h-1.46v1.45Zm1.75 0h1.45v-1.45h-1.45v1.45Zm-19.2 1.8h1.45v-1.44H2.62v1.44Zm1.74 0h1.46v-1.44H4.36v1.44Zm1.75 0h1.45v-1.44H6.11v1.44Zm1.74 0h1.46v-1.44H7.85v1.44Zm1.75 0h1.45v-1.44H9.6v1.44Zm1.75 0h1.45v-1.44h-1.45v1.44Zm1.74 0h1.46v-1.44h-1.46v1.44Zm1.75 0h1.45v-1.44h-1.45v1.44Zm1.74 0h1.46v-1.44h-1.46v1.44Zm1.75 0h1.45v-1.44h-1.45v1.44Zm1.74 0h1.46v-1.44h-1.46v1.44Zm1.75 0h1.45v-1.44h-1.45v1.44Zm-19.2 1.81h1.45v-1.44H2.62v1.44Zm1.74 0h1.46v-1.44H4.36v1.44Zm1.75 0h1.45v-1.44H6.11v1.44Zm1.74 0h1.46v-1.44H7.85v1.44Zm1.75 0h1.45v-1.44H9.6v1.44Zm1.75 0h1.45v-1.44h-1.45v1.44Zm1.74 0h1.46v-1.44h-1.46v1.44Zm1.75 0h1.45v-1.44h-1.45v1.44Zm1.74 0h1.46v-1.44h-1.46v1.44Zm1.75 0h1.45v-1.44h-1.45v1.44Zm1.74 0h1.46v-1.44h-1.46v1.44Zm1.75 0h1.45v-1.44h-1.45v1.44Zm-19.2 1.81h1.45v-1.45H2.62v1.45Zm1.74 0h1.46v-1.45H4.36v1.45Zm1.75 0h1.45v-1.45H6.11v1.45Zm1.74 0h1.46v-1.45H7.85v1.45Zm1.75 0h1.45v-1.45H9.6v1.45Zm1.75 0h1.45v-1.45h-1.45v1.45Zm1.74 0h1.46v-1.45h-1.46v1.45Zm1.75 0h1.45v-1.45h-1.45v1.45Zm1.74 0h1.46v-1.45h-1.46v1.45Zm1.75 0h1.45v-1.45h-1.45v1.45Zm1.74 0h1.46v-1.45h-1.46v1.45Zm-13.96 1.8h11.93v-1.44H6.11v1.44Zm26.47 0h3.49v-1.44h-3.49v1.44Zm3.78 0h1.46v-1.44h-1.46v1.44Zm0-1.8h1.46v-1.45h-1.46v1.45Zm-1.89 0h1.46v-1.45h-1.46v1.45Zm-1.89 0h1.46v-1.45h-1.46v1.45Zm0-1.81h1.46v-1.44h-1.46v1.44Zm0-1.81h1.46v-1.44h-1.46v1.44Zm1.89 0h1.46v-1.44h-1.46v1.44Zm1.89 0h1.46v-1.44h-1.46v1.44Zm0 1.81h1.46v-1.44h-1.46v1.44Zm-1.89 0h1.46v-1.44h-1.46v1.44Z" class="st9"/></g><g id="shape741-127" transform="rotate(-90 28.32 1163.4)"><path d="M0 1182.76h1.45v-1.45H0v1.45Zm0 4.69h2.33v-1.44H0v1.44Zm0 1.81h2.33v-1.44H0v1.44Zm0 1.81h2.33v-1.45H0v1.45Zm0 1.8h2.33v-1.44H0v1.44Zm2.62 0h1.45v-1.44H2.62v1.44Zm1.74 0h1.46v-1.44H4.36v1.44Zm13.97 0h1.45v-1.44h-1.45v1.44Zm1.74 0h1.46v-1.44h-1.46v1.44Zm1.75 0h1.45v-1.44h-1.45v1.44Zm1.74 0h2.33v-1.44h-2.33v1.44Zm3.2 0h1.46v-1.44h-1.46v1.44Zm1.75 0h1.45v-1.44h-1.45v1.44Zm1.74 0h1.46v-1.44h-1.46v1.44Zm8 0h1.46v-3.18h-1.46v3.18Zm0-3.47h1.46v-3.39h-1.46v3.39Zm0-3.75h1.46v-1.45h-1.46v1.45Zm-1.89 0h1.46v-1.45h-1.46v1.45Zm-1.89 0h1.46v-1.45h-1.46v1.45Zm-1.89 0h1.46v-1.45h-1.46v1.45Zm-2.33 0h1.46v-1.45h-1.46v1.45Zm0 1.8h1.46v-1.44h-1.46v1.44Zm-1.74 3.62h1.45v-1.45h-1.45v1.45Zm-6.69-.03h4.07v-1.44h-4.07v1.44Zm1.74-1.83h2.33v-3.18h-2.33v3.18Zm3.2-1.76h1.46v-1.44h-1.46v1.44Zm1.75 0h1.45v-1.44h-1.45v1.44Zm0-1.8h1.45v-1.45h-1.45v1.45Zm-4.95 0h2.33v-1.45h-2.33v1.45Zm13.97-3.76h1.16v-.29h-1.16v.29Zm-1.75 0h1.17v-.29h-1.17v.29Zm-5.53.87h1.46v-1.45h-1.46v1.45Zm-1.74 0h1.45v-1.45h-1.45v1.45Zm-1.75 0h1.46v-1.45h-1.46v1.45Zm-10.76 0h1.45v-1.45H16v1.45Zm-1.75 0h1.46v-1.45h-1.46v1.45Zm-1.74 0h1.45v-1.45h-1.45v1.45Zm-1.75 0h1.46v-1.45h-1.46v1.45Zm16 2.89h1.46v-1.45h-1.46v1.45Z" class="st10"/></g></g><g id="group742-129" transform="scale(1 -1) rotate(.565 199530.152 18452.827)"><path class="st6" d="M0 1187.2h137.482v5.669H0z" id="shape742-132"/></g><g id="group744-134" transform="scale(-1 1) rotate(-89.6 -297.645 1071.639)"><path class="st6" d="M0 1187.2h134.938v5.669H0z" id="shape744-137"/></g><g id="group746-139" transform="scale(-1 1) rotate(-89.6 -365.11 1003.693)"><path class="st6" d="M0 1187.2h57.818v5.669H0z" id="shape746-142"/></g><g id="group758-144" transform="rotate(-90 68.569 1000.851)"><g id="shape760-147" transform="translate(46.772 -39.685)"><path d="M0 1192.87h2.83v-2.83H0v2.83Zm0-8.5h2.83v-2.84H0v2.84Z" class="st11"/></g><g id="shape761-149"><path d="M0 1192.87v-90.71h43.94v90.71H0Zm43.94 0h2.83v-90.71h-2.83v90.71Z" class="st12"/><path d="M0 1192.87v-90.71h43.94v90.71H0M43.94 1147.52h2.83M43.94 1192.87h2.83v-90.71h-2.83v90.71" class="st13"/></g></g><g id="group820-154" transform="rotate(-90.5 339.707 733.198)"><g id="shape822-157" transform="translate(57.818 -39.685)"><path d="M0 1192.87h2.83v-2.83H0v2.83Zm0-8.5h2.83v-2.84H0v2.84Z" class="st11"/></g><g id="shape823-159"><path d="M0 1192.87v-90.71h54.98v90.71H0Zm54.98 0h2.84v-90.71h-2.84v90.71Z" class="st12"/><path d="M0 1192.87v-90.71h54.98v90.71H0M54.98 1147.52h2.84" class="st13"/><path d="M54.98 1192.87h2.84v-90.71h-2.84v90.71" class="st13"/></g></g><g id="group824-164" transform="rotate(89.6 297.883 1078.573)"><path d="M0 1055.39v137.48h134.94v-65.19H65.2v-72.29H0Z" class="st6" id="shape824-165"/></g><g id="group825-167" transform="rotate(-.4 -31143.68 -25108.21)"><g id="shape825-168"><path class="st6" d="M0 1135.05h65.197v57.818H0z"/><text x="25.92" y="1171.16" class="st7">1</text></g></g><g id="group826-171" transform="rotate(44.6 551.124 1229.092)"><g id="shape827-172" transform="rotate(180 20.805 1172.51)"><path class="st6" d="M0 1153.31h38.143v39.563H0z"/></g><g id="shape828-174" transform="rotate(180 30.052 1171.925)"><path class="st6" d="M0 1150.98h15.026v41.891H0z"/></g><g id="shape829-176" transform="rotate(180 19.65 1173.67)"><path d="m8.97 1192.87 10.85-3.85v-27.25l-10.85-3.81a235.919 233.239-180 0 0 0 34.91Zm10.85-3.85h18.44a91.622 90.962-180 0 0 0-27.26H19.82v27.26Zm-18.78 3.85h7.93a235.919 233.239 0 0 1 0-34.91H1.04a150.587 148.876-180 0 0 0 34.91Z" class="st6"/></g><g id="shape830-178" transform="rotate(-90 5.81 1151.87)"><path class="st8" d="M0 1192.58h1.164v.289H0z"/></g><g id="shape831-180" transform="rotate(-90 28.32 1163.4)"><path d="M2.62 1182.76h1.45v-1.45H2.62v1.45Zm1.74 0h1.46v-1.45H4.36v1.45Zm1.75 0h1.45v-1.45H6.11v1.45Zm1.74 0h1.46v-1.45H7.85v1.45Zm11.2 0h1.46v-1.45h-1.46v1.45Zm1.75 0h1.45v-1.45H20.8v1.45Zm1.75 0H24v-1.45h-1.45v1.45Zm1.74 0h1.46v-1.45h-1.46v1.45ZM0 1185.65h2.33v-1.45H0v1.45Zm2.62 0h1.45v-1.45H2.62v1.45Zm1.74 0h1.46v-1.45H4.36v1.45Zm1.75 0h1.45v-1.45H6.11v1.45Zm1.74 0h1.46v-1.45H7.85v1.45Zm1.75 0h1.45v-1.45H9.6v1.45Zm1.75 0h1.45v-1.45h-1.45v1.45Zm1.74 0h1.46v-1.45h-1.46v1.45Zm1.75 0h1.45v-1.45h-1.45v1.45Zm1.74 0h1.46v-1.45h-1.46v1.45Zm1.75 0h1.45v-1.45h-1.45v1.45Zm1.74 0h1.46v-1.45h-1.46v1.45Zm1.75 0h1.45v-1.45h-1.45v1.45Zm-19.2 1.8h1.45v-1.44H2.62v1.44Zm1.74 0h1.46v-1.44H4.36v1.44Zm1.75 0h1.45v-1.44H6.11v1.44Zm1.74 0h1.46v-1.44H7.85v1.44Zm1.75 0h1.45v-1.44H9.6v1.44Zm1.75 0h1.45v-1.44h-1.45v1.44Zm1.74 0h1.46v-1.44h-1.46v1.44Zm1.75 0h1.45v-1.44h-1.45v1.44Zm1.74 0h1.46v-1.44h-1.46v1.44Zm1.75 0h1.45v-1.44h-1.45v1.44Zm1.74 0h1.46v-1.44h-1.46v1.44Zm1.75 0h1.45v-1.44h-1.45v1.44Zm-19.2 1.81h1.45v-1.44H2.62v1.44Zm1.74 0h1.46v-1.44H4.36v1.44Zm1.75 0h1.45v-1.44H6.11v1.44Zm1.74 0h1.46v-1.44H7.85v1.44Zm1.75 0h1.45v-1.44H9.6v1.44Zm1.75 0h1.45v-1.44h-1.45v1.44Zm1.74 0h1.46v-1.44h-1.46v1.44Zm1.75 0h1.45v-1.44h-1.45v1.44Zm1.74 0h1.46v-1.44h-1.46v1.44Zm1.75 0h1.45v-1.44h-1.45v1.44Zm1.74 0h1.46v-1.44h-1.46v1.44Zm1.75 0h1.45v-1.44h-1.45v1.44Zm-19.2 1.81h1.45v-1.45H2.62v1.45Zm1.74 0h1.46v-1.45H4.36v1.45Zm1.75 0h1.45v-1.45H6.11v1.45Zm1.74 0h1.46v-1.45H7.85v1.45Zm1.75 0h1.45v-1.45H9.6v1.45Zm1.75 0h1.45v-1.45h-1.45v1.45Zm1.74 0h1.46v-1.45h-1.46v1.45Zm1.75 0h1.45v-1.45h-1.45v1.45Zm1.74 0h1.46v-1.45h-1.46v1.45Zm1.75 0h1.45v-1.45h-1.45v1.45Zm1.74 0h1.46v-1.45h-1.46v1.45Zm-13.96 1.8h11.93v-1.44H6.11v1.44Zm26.47 0h3.49v-1.44h-3.49v1.44Zm3.78 0h1.46v-1.44h-1.46v1.44Zm0-1.8h1.46v-1.45h-1.46v1.45Zm-1.89 0h1.46v-1.45h-1.46v1.45Zm-1.89 0h1.46v-1.45h-1.46v1.45Zm0-1.81h1.46v-1.44h-1.46v1.44Zm0-1.81h1.46v-1.44h-1.46v1.44Zm1.89 0h1.46v-1.44h-1.46v1.44Zm1.89 0h1.46v-1.44h-1.46v1.44Zm0 1.81h1.46v-1.44h-1.46v1.44Zm-1.89 0h1.46v-1.44h-1.46v1.44Z" class="st9"/></g><g id="shape832-182" transform="rotate(-90 28.32 1163.4)"><path d="M0 1182.76h1.45v-1.45H0v1.45Zm0 4.69h2.33v-1.44H0v1.44Zm0 1.81h2.33v-1.44H0v1.44Zm0 1.81h2.33v-1.45H0v1.45Zm0 1.8h2.33v-1.44H0v1.44Zm2.62 0h1.45v-1.44H2.62v1.44Zm1.74 0h1.46v-1.44H4.36v1.44Zm13.97 0h1.45v-1.44h-1.45v1.44Zm1.74 0h1.46v-1.44h-1.46v1.44Zm1.75 0h1.45v-1.44h-1.45v1.44Zm1.74 0h2.33v-1.44h-2.33v1.44Zm3.2 0h1.46v-1.44h-1.46v1.44Zm1.75 0h1.45v-1.44h-1.45v1.44Zm1.74 0h1.46v-1.44h-1.46v1.44Zm8 0h1.46v-3.18h-1.46v3.18Zm0-3.47h1.46v-3.39h-1.46v3.39Zm0-3.75h1.46v-1.45h-1.46v1.45Zm-1.89 0h1.46v-1.45h-1.46v1.45Zm-1.89 0h1.46v-1.45h-1.46v1.45Zm-1.89 0h1.46v-1.45h-1.46v1.45Zm-2.33 0h1.46v-1.45h-1.46v1.45Zm0 1.8h1.46v-1.44h-1.46v1.44Zm-1.74 3.62h1.45v-1.45h-1.45v1.45Zm-6.69-.03h4.07v-1.44h-4.07v1.44Zm1.74-1.83h2.33v-3.18h-2.33v3.18Zm3.2-1.76h1.46v-1.44h-1.46v1.44Zm1.75 0h1.45v-1.44h-1.45v1.44Zm0-1.8h1.45v-1.45h-1.45v1.45Zm-4.95 0h2.33v-1.45h-2.33v1.45Zm13.97-3.76h1.16v-.29h-1.16v.29Zm-1.75 0h1.17v-.29h-1.17v.29Zm-5.53.87h1.46v-1.45h-1.46v1.45Zm-1.74 0h1.45v-1.45h-1.45v1.45Zm-1.75 0h1.46v-1.45h-1.46v1.45Zm-10.76 0h1.45v-1.45H16v1.45Zm-1.75 0h1.46v-1.45h-1.46v1.45Zm-1.74 0h1.45v-1.45h-1.45v1.45Zm-1.75 0h1.46v-1.45h-1.46v1.45Zm16 2.89h1.46v-1.45h-1.46v1.45Z" class="st10"/></g></g><g id="group833-184" transform="rotate(-.235 -100669.543 -42968.48)"><path class="st6" d="M0 1187.2h137.482v5.669H0z" id="shape833-187"/></g><g id="group835-189" transform="rotate(89.6 295.021 1074.314)"><path class="st6" d="M0 1187.2h134.938v5.669H0z" id="shape835-192"/></g><g id="group837-194" transform="rotate(89.6 227.55 1142.256)"><path class="st6" d="M0 1187.2h57.818v5.669H0z" id="shape837-197"/></g><g id="group853-199" transform="rotate(-135.4 208.766 697.23)"><g id="shape854-200"><path d="M10.91 1149.42a157.589 157.613-180 0 0-.03 22.18 28.16 28.16-180 0 0 13.34 13.2h17.51a4.03 4.03 0 0 1 3.8 2.65h2.93a16.145 16.145-180 0 0 16.14-16.16v-21.53a16.137 16.137-180 0 0-16.14-16.13h-2.94a4.04 4.04 0 0 1-3.81 2.73H24.08a28.16 28.16-180 0 0-13.17 13.06Zm-.13 11.16a57.393 57.402 0 0 1 1.4-18.84 3.01 3.01-180 0 0-4.04-4.03 30.789 30.793-180 0 0-8.06 22.88 30.203 30.207-180 0 0 8.06 22.87 3.033 3.033-180 0 0 4.04-4.04 55.756 55.764 0 0 1-1.4-18.84Zm34.99 28.24a4.039 4.039-180 0 0-4.04-4.04H17.52a4.034 4.034-180 0 0-4.04 4.04 4.04 4.04-180 0 0 4.04 4.05h24.21a4.045 4.045-180 0 0 4.04-4.05Zm-.03-56.51a4.023 4.023-180 0 0-4.01-4.04H17.52a4.055 4.055-180 0 0-4.06 4.05 4.049 4.049-180 0 0 4.06 4.04h24.21a4.024 4.024-180 0 0 4.01-4.04v-.01Z" class="st4"/><path d="M10.91 1149.42a157.589 157.613-180 0 0-.03 22.18 28.16 28.16-180 0 0 13.34 13.2h17.51a4.03 4.03 0 0 1 3.8 2.65h2.93a16.145 16.145-180 0 0 16.14-16.16v-21.53a16.137 16.137-180 0 0-16.14-16.13h-2.94a4.04 4.04 0 0 1-3.81 2.73H24.08a28.16 28.16-180 0 0-13.17 13.06m-.13 11.16a57.393 57.402 0 0 1 1.4-18.84 3.01 3.01-180 0 0-4.04-4.03 30.789 30.793-180 0 0-8.06 22.88 30.203 30.207-180 0 0 8.06 22.87 3.033 3.033-180 0 0 4.04-4.04 55.756 55.764 0 0 1-1.4-18.84m34.99 28.24a4.039 4.039-180 0 0-4.04-4.04H17.52a4.034 4.034-180 0 0-4.04 4.04 4.04 4.04-180 0 0 4.04 4.05h24.21a4.045 4.045-180 0 0 4.04-4.05m-.03-56.51a4.023 4.023-180 0 0-4.01-4.04H17.52a4.055 4.055-180 0 0-4.06 4.05 4.049 4.049-180 0 0 4.06 4.04h24.21a4.024 4.024-180 0 0 4.01-4.04" class="st5"/></g></g><g id="group855-203" transform="rotate(89.6 682.357 1068.223)"><path d="M0 1055.39v137.48h134.94v-65.19H65.2v-72.29H0Z" class="st6" id="shape855-204"/></g><g id="group856-206" transform="rotate(-.4 -87500.5 -78510.226)"><g id="shape856-207"><path class="st6" d="M0 1135.05h65.197v57.818H0z"/><text x="25.92" y="1171.16" class="st7">9</text></g></g><g id="group857-210" transform="rotate(44.6 1218.086 1484.553)"><g id="shape858-211" transform="rotate(180 20.805 1172.51)"><path class="st6" d="M0 1153.31h38.143v39.563H0z"/></g><g id="shape859-213" transform="rotate(180 30.052 1171.925)"><path class="st6" d="M0 1150.98h15.026v41.891H0z"/></g><g id="shape860-215" transform="rotate(180 19.65 1173.67)"><path d="m8.97 1192.87 10.85-3.85v-27.25l-10.85-3.81a235.919 233.239-180 0 0 0 34.91Zm10.85-3.85h18.44a91.622 90.962-180 0 0 0-27.26H19.82v27.26Zm-18.78 3.85h7.93a235.919 233.239 0 0 1 0-34.91H1.04a150.587 148.876-180 0 0 0 34.91Z" class="st6"/></g><g id="shape861-217" transform="rotate(-90 5.81 1151.87)"><path class="st8" d="M0 1192.58h1.164v.289H0z"/></g><g id="shape862-219" transform="rotate(-90 28.32 1163.4)"><path d="M2.62 1182.76h1.45v-1.45H2.62v1.45Zm1.74 0h1.46v-1.45H4.36v1.45Zm1.75 0h1.45v-1.45H6.11v1.45Zm1.74 0h1.46v-1.45H7.85v1.45Zm11.2 0h1.46v-1.45h-1.46v1.45Zm1.75 0h1.45v-1.45H20.8v1.45Zm1.75 0H24v-1.45h-1.45v1.45Zm1.74 0h1.46v-1.45h-1.46v1.45ZM0 1185.65h2.33v-1.45H0v1.45Zm2.62 0h1.45v-1.45H2.62v1.45Zm1.74 0h1.46v-1.45H4.36v1.45Zm1.75 0h1.45v-1.45H6.11v1.45Zm1.74 0h1.46v-1.45H7.85v1.45Zm1.75 0h1.45v-1.45H9.6v1.45Zm1.75 0h1.45v-1.45h-1.45v1.45Zm1.74 0h1.46v-1.45h-1.46v1.45Zm1.75 0h1.45v-1.45h-1.45v1.45Zm1.74 0h1.46v-1.45h-1.46v1.45Zm1.75 0h1.45v-1.45h-1.45v1.45Zm1.74 0h1.46v-1.45h-1.46v1.45Zm1.75 0h1.45v-1.45h-1.45v1.45Zm-19.2 1.8h1.45v-1.44H2.62v1.44Zm1.74 0h1.46v-1.44H4.36v1.44Zm1.75 0h1.45v-1.44H6.11v1.44Zm1.74 0h1.46v-1.44H7.85v1.44Zm1.75 0h1.45v-1.44H9.6v1.44Zm1.75 0h1.45v-1.44h-1.45v1.44Zm1.74 0h1.46v-1.44h-1.46v1.44Zm1.75 0h1.45v-1.44h-1.45v1.44Zm1.74 0h1.46v-1.44h-1.46v1.44Zm1.75 0h1.45v-1.44h-1.45v1.44Zm1.74 0h1.46v-1.44h-1.46v1.44Zm1.75 0h1.45v-1.44h-1.45v1.44Zm-19.2 1.81h1.45v-1.44H2.62v1.44Zm1.74 0h1.46v-1.44H4.36v1.44Zm1.75 0h1.45v-1.44H6.11v1.44Zm1.74 0h1.46v-1.44H7.85v1.44Zm1.75 0h1.45v-1.44H9.6v1.44Zm1.75 0h1.45v-1.44h-1.45v1.44Zm1.74 0h1.46v-1.44h-1.46v1.44Zm1.75 0h1.45v-1.44h-1.45v1.44Zm1.74 0h1.46v-1.44h-1.46v1.44Zm1.75 0h1.45v-1.44h-1.45v1.44Zm1.74 0h1.46v-1.44h-1.46v1.44Zm1.75 0h1.45v-1.44h-1.45v1.44Zm-19.2 1.81h1.45v-1.45H2.62v1.45Zm1.74 0h1.46v-1.45H4.36v1.45Zm1.75 0h1.45v-1.45H6.11v1.45Zm1.74 0h1.46v-1.45H7.85v1.45Zm1.75 0h1.45v-1.45H9.6v1.45Zm1.75 0h1.45v-1.45h-1.45v1.45Zm1.74 0h1.46v-1.45h-1.46v1.45Zm1.75 0h1.45v-1.45h-1.45v1.45Zm1.74 0h1.46v-1.45h-1.46v1.45Zm1.75 0h1.45v-1.45h-1.45v1.45Zm1.74 0h1.46v-1.45h-1.46v1.45Zm-13.96 1.8h11.93v-1.44H6.11v1.44Zm26.47 0h3.49v-1.44h-3.49v1.44Zm3.78 0h1.46v-1.44h-1.46v1.44Zm0-1.8h1.46v-1.45h-1.46v1.45Zm-1.89 0h1.46v-1.45h-1.46v1.45Zm-1.89 0h1.46v-1.45h-1.46v1.45Zm0-1.81h1.46v-1.44h-1.46v1.44Zm0-1.81h1.46v-1.44h-1.46v1.44Zm1.89 0h1.46v-1.44h-1.46v1.44Zm1.89 0h1.46v-1.44h-1.46v1.44Zm0 1.81h1.46v-1.44h-1.46v1.44Zm-1.89 0h1.46v-1.44h-1.46v1.44Z" class="st9"/></g><g id="shape863-221" transform="rotate(-90 28.32 1163.4)"><path d="M0 1182.76h1.45v-1.45H0v1.45Zm0 4.69h2.33v-1.44H0v1.44Zm0 1.81h2.33v-1.44H0v1.44Zm0 1.81h2.33v-1.45H0v1.45Zm0 1.8h2.33v-1.44H0v1.44Zm2.62 0h1.45v-1.44H2.62v1.44Zm1.74 0h1.46v-1.44H4.36v1.44Zm13.97 0h1.45v-1.44h-1.45v1.44Zm1.74 0h1.46v-1.44h-1.46v1.44Zm1.75 0h1.45v-1.44h-1.45v1.44Zm1.74 0h2.33v-1.44h-2.33v1.44Zm3.2 0h1.46v-1.44h-1.46v1.44Zm1.75 0h1.45v-1.44h-1.45v1.44Zm1.74 0h1.46v-1.44h-1.46v1.44Zm8 0h1.46v-3.18h-1.46v3.18Zm0-3.47h1.46v-3.39h-1.46v3.39Zm0-3.75h1.46v-1.45h-1.46v1.45Zm-1.89 0h1.46v-1.45h-1.46v1.45Zm-1.89 0h1.46v-1.45h-1.46v1.45Zm-1.89 0h1.46v-1.45h-1.46v1.45Zm-2.33 0h1.46v-1.45h-1.46v1.45Zm0 1.8h1.46v-1.44h-1.46v1.44Zm-1.74 3.62h1.45v-1.45h-1.45v1.45Zm-6.69-.03h4.07v-1.44h-4.07v1.44Zm1.74-1.83h2.33v-3.18h-2.33v3.18Zm3.2-1.76h1.46v-1.44h-1.46v1.44Zm1.75 0h1.45v-1.44h-1.45v1.44Zm0-1.8h1.45v-1.45h-1.45v1.45Zm-4.95 0h2.33v-1.45h-2.33v1.45Zm13.97-3.76h1.16v-.29h-1.16v.29Zm-1.75 0h1.17v-.29h-1.17v.29Zm-5.53.87h1.46v-1.45h-1.46v1.45Zm-1.74 0h1.45v-1.45h-1.45v1.45Zm-1.75 0h1.46v-1.45h-1.46v1.45Zm-10.76 0h1.45v-1.45H16v1.45Zm-1.75 0h1.46v-1.45h-1.46v1.45Zm-1.74 0h1.45v-1.45h-1.45v1.45Zm-1.75 0h1.46v-1.45h-1.46v1.45Zm16 2.89h1.46v-1.45h-1.46v1.45Z" class="st10"/></g></g><g id="group864-223" transform="rotate(-.235 -196840.112 -133833.678)"><path class="st6" d="M0 1187.2h137.482v5.669H0z" id="shape864-226"/></g><g id="group866-228" transform="rotate(89.6 679.496 1063.964)"><path class="st6" d="M0 1187.2h134.938v5.669H0z" id="shape866-231"/></g><g id="group868-233" transform="rotate(89.6 612.03 1131.91)"><path class="st6" d="M0 1187.2h57.818v5.669H0z" id="shape868-236"/></g><g id="group870-238" transform="scale(-1 1) rotate(45.4 275.112 85.326)"><g id="shape871-239"><path d="M10.91 1149.42a157.589 157.613-180 0 0-.03 22.18 28.16 28.16-180 0 0 13.34 13.2h17.51a4.03 4.03 0 0 1 3.8 2.65h2.93a16.145 16.145-180 0 0 16.14-16.16v-21.53a16.137 16.137-180 0 0-16.14-16.13h-2.94a4.04 4.04 0 0 1-3.81 2.73H24.08a28.16 28.16-180 0 0-13.17 13.06Zm-.13 11.16a57.393 57.402 0 0 1 1.4-18.84 3.01 3.01-180 0 0-4.04-4.03 30.789 30.793-180 0 0-8.06 22.88 30.203 30.207-180 0 0 8.06 22.87 3.033 3.033-180 0 0 4.04-4.04 55.756 55.764 0 0 1-1.4-18.84Zm34.99 28.24a4.039 4.039-180 0 0-4.04-4.04H17.52a4.034 4.034-180 0 0-4.04 4.04 4.04 4.04-180 0 0 4.04 4.05h24.21a4.045 4.045-180 0 0 4.04-4.05Zm-.03-56.51a4.023 4.023-180 0 0-4.01-4.04H17.52a4.055 4.055-180 0 0-4.06 4.05 4.049 4.049-180 0 0 4.06 4.04h24.21a4.024 4.024-180 0 0 4.01-4.04v-.01Z" class="st4"/><path d="M10.91 1149.42a157.589 157.613-180 0 0-.03 22.18 28.16 28.16-180 0 0 13.34 13.2h17.51a4.03 4.03 0 0 1 3.8 2.65h2.93a16.145 16.145-180 0 0 16.14-16.16v-21.53a16.137 16.137-180 0 0-16.14-16.13h-2.94a4.04 4.04 0 0 1-3.81 2.73H24.08a28.16 28.16-180 0 0-13.17 13.06m-.13 11.16a57.393 57.402 0 0 1 1.4-18.84 3.01 3.01-180 0 0-4.04-4.03 30.789 30.793-180 0 0-8.06 22.88 30.203 30.207-180 0 0 8.06 22.87 3.033 3.033-180 0 0 4.04-4.04 55.756 55.764 0 0 1-1.4-18.84m34.99 28.24a4.039 4.039-180 0 0-4.04-4.04H17.52a4.034 4.034-180 0 0-4.04 4.04 4.04 4.04-180 0 0 4.04 4.05h24.21a4.045 4.045-180 0 0 4.04-4.05m-.03-56.51a4.023 4.023-180 0 0-4.01-4.04H17.52a4.055 4.055-180 0 0-4.06 4.05 4.049 4.049-180 0 0 4.06 4.04h24.21a4.024 4.024-180 0 0 4.01-4.04" class="st5"/></g></g><g id="group872-242" transform="scale(-1 1) rotate(-89.6 -489.04 1262.896)"><path d="M0 1055.39v137.48h134.94v-65.19H65.2v-72.29H0Z" class="st6" id="shape872-243"/></g><g id="group873-245" transform="scale(-1 1) rotate(.4 79251.375 -87877.872)"><g id="shape873-246"><path class="st6" d="M0 1135.05h65.197v57.818H0z"/><text x="-39.27" y="1171.16" transform="scale(-1 1)" class="st7">8</text></g></g><g id="group874-249" transform="scale(1 -1) rotate(45.4 2587.457 893.905)"><g id="shape875-250" transform="rotate(180 20.805 1172.51)"><path class="st6" d="M0 1153.31h38.143v39.563H0z"/></g><g id="shape876-252" transform="rotate(180 30.052 1171.925)"><path class="st6" d="M0 1150.98h15.026v41.891H0z"/></g><g id="shape877-254" transform="rotate(180 19.65 1173.67)"><path d="m8.97 1192.87 10.85-3.85v-27.25l-10.85-3.81a235.919 233.239-180 0 0 0 34.91Zm10.85-3.85h18.44a91.622 90.962-180 0 0 0-27.26H19.82v27.26Zm-18.78 3.85h7.93a235.919 233.239 0 0 1 0-34.91H1.04a150.587 148.876-180 0 0 0 34.91Z" class="st6"/></g><g id="shape878-256" transform="rotate(-90 5.81 1151.87)"><path class="st8" d="M0 1192.58h1.164v.289H0z"/></g><g id="shape879-258" transform="rotate(-90 28.32 1163.4)"><path d="M2.62 1182.76h1.45v-1.45H2.62v1.45Zm1.74 0h1.46v-1.45H4.36v1.45Zm1.75 0h1.45v-1.45H6.11v1.45Zm1.74 0h1.46v-1.45H7.85v1.45Zm11.2 0h1.46v-1.45h-1.46v1.45Zm1.75 0h1.45v-1.45H20.8v1.45Zm1.75 0H24v-1.45h-1.45v1.45Zm1.74 0h1.46v-1.45h-1.46v1.45ZM0 1185.65h2.33v-1.45H0v1.45Zm2.62 0h1.45v-1.45H2.62v1.45Zm1.74 0h1.46v-1.45H4.36v1.45Zm1.75 0h1.45v-1.45H6.11v1.45Zm1.74 0h1.46v-1.45H7.85v1.45Zm1.75 0h1.45v-1.45H9.6v1.45Zm1.75 0h1.45v-1.45h-1.45v1.45Zm1.74 0h1.46v-1.45h-1.46v1.45Zm1.75 0h1.45v-1.45h-1.45v1.45Zm1.74 0h1.46v-1.45h-1.46v1.45Zm1.75 0h1.45v-1.45h-1.45v1.45Zm1.74 0h1.46v-1.45h-1.46v1.45Zm1.75 0h1.45v-1.45h-1.45v1.45Zm-19.2 1.8h1.45v-1.44H2.62v1.44Zm1.74 0h1.46v-1.44H4.36v1.44Zm1.75 0h1.45v-1.44H6.11v1.44Zm1.74 0h1.46v-1.44H7.85v1.44Zm1.75 0h1.45v-1.44H9.6v1.44Zm1.75 0h1.45v-1.44h-1.45v1.44Zm1.74 0h1.46v-1.44h-1.46v1.44Zm1.75 0h1.45v-1.44h-1.45v1.44Zm1.74 0h1.46v-1.44h-1.46v1.44Zm1.75 0h1.45v-1.44h-1.45v1.44Zm1.74 0h1.46v-1.44h-1.46v1.44Zm1.75 0h1.45v-1.44h-1.45v1.44Zm-19.2 1.81h1.45v-1.44H2.62v1.44Zm1.74 0h1.46v-1.44H4.36v1.44Zm1.75 0h1.45v-1.44H6.11v1.44Zm1.74 0h1.46v-1.44H7.85v1.44Zm1.75 0h1.45v-1.44H9.6v1.44Zm1.75 0h1.45v-1.44h-1.45v1.44Zm1.74 0h1.46v-1.44h-1.46v1.44Zm1.75 0h1.45v-1.44h-1.45v1.44Zm1.74 0h1.46v-1.44h-1.46v1.44Zm1.75 0h1.45v-1.44h-1.45v1.44Zm1.74 0h1.46v-1.44h-1.46v1.44Zm1.75 0h1.45v-1.44h-1.45v1.44Zm-19.2 1.81h1.45v-1.45H2.62v1.45Zm1.74 0h1.46v-1.45H4.36v1.45Zm1.75 0h1.45v-1.45H6.11v1.45Zm1.74 0h1.46v-1.45H7.85v1.45Zm1.75 0h1.45v-1.45H9.6v1.45Zm1.75 0h1.45v-1.45h-1.45v1.45Zm1.74 0h1.46v-1.45h-1.46v1.45Zm1.75 0h1.45v-1.45h-1.45v1.45Zm1.74 0h1.46v-1.45h-1.46v1.45Zm1.75 0h1.45v-1.45h-1.45v1.45Zm1.74 0h1.46v-1.45h-1.46v1.45Zm-13.96 1.8h11.93v-1.44H6.11v1.44Zm26.47 0h3.49v-1.44h-3.49v1.44Zm3.78 0h1.46v-1.44h-1.46v1.44Zm0-1.8h1.46v-1.45h-1.46v1.45Zm-1.89 0h1.46v-1.45h-1.46v1.45Zm-1.89 0h1.46v-1.45h-1.46v1.45Zm0-1.81h1.46v-1.44h-1.46v1.44Zm0-1.81h1.46v-1.44h-1.46v1.44Zm1.89 0h1.46v-1.44h-1.46v1.44Zm1.89 0h1.46v-1.44h-1.46v1.44Zm0 1.81h1.46v-1.44h-1.46v1.44Zm-1.89 0h1.46v-1.44h-1.46v1.44Z" class="st9"/></g><g id="shape880-260" transform="rotate(-90 28.32 1163.4)"><path d="M0 1182.76h1.45v-1.45H0v1.45Zm0 4.69h2.33v-1.44H0v1.44Zm0 1.81h2.33v-1.44H0v1.44Zm0 1.81h2.33v-1.45H0v1.45Zm0 1.8h2.33v-1.44H0v1.44Zm2.62 0h1.45v-1.44H2.62v1.44Zm1.74 0h1.46v-1.44H4.36v1.44Zm13.97 0h1.45v-1.44h-1.45v1.44Zm1.74 0h1.46v-1.44h-1.46v1.44Zm1.75 0h1.45v-1.44h-1.45v1.44Zm1.74 0h2.33v-1.44h-2.33v1.44Zm3.2 0h1.46v-1.44h-1.46v1.44Zm1.75 0h1.45v-1.44h-1.45v1.44Zm1.74 0h1.46v-1.44h-1.46v1.44Zm8 0h1.46v-3.18h-1.46v3.18Zm0-3.47h1.46v-3.39h-1.46v3.39Zm0-3.75h1.46v-1.45h-1.46v1.45Zm-1.89 0h1.46v-1.45h-1.46v1.45Zm-1.89 0h1.46v-1.45h-1.46v1.45Zm-1.89 0h1.46v-1.45h-1.46v1.45Zm-2.33 0h1.46v-1.45h-1.46v1.45Zm0 1.8h1.46v-1.44h-1.46v1.44Zm-1.74 3.62h1.45v-1.45h-1.45v1.45Zm-6.69-.03h4.07v-1.44h-4.07v1.44Zm1.74-1.83h2.33v-3.18h-2.33v3.18Zm3.2-1.76h1.46v-1.44h-1.46v1.44Zm1.75 0h1.45v-1.44h-1.45v1.44Zm0-1.8h1.45v-1.45h-1.45v1.45Zm-4.95 0h2.33v-1.45h-2.33v1.45Zm13.97-3.76h1.16v-.29h-1.16v.29Zm-1.75 0h1.17v-.29h-1.17v.29Zm-5.53.87h1.46v-1.45h-1.46v1.45Zm-1.74 0h1.45v-1.45h-1.45v1.45Zm-1.75 0h1.46v-1.45h-1.46v1.45Zm-10.76 0h1.45v-1.45H16v1.45Zm-1.75 0h1.46v-1.45h-1.46v1.45Zm-1.74 0h1.45v-1.45h-1.45v1.45Zm-1.75 0h1.46v-1.45h-1.46v1.45Zm16 2.89h1.46v-1.45h-1.46v1.45Z" class="st10"/></g></g><g id="group881-262" transform="scale(1 -1) rotate(.565 199717.271 56384.787)"><path class="st6" d="M0 1187.2h137.482v5.669H0z" id="shape881-265"/></g><g id="group883-267" transform="scale(-1 1) rotate(-89.6 -484.76 1260.064)"><path class="st6" d="M0 1187.2h134.938v5.669H0z" id="shape883-270"/></g><g id="group885-272" transform="scale(-1 1) rotate(-89.6 -552.23 1192.124)"><path class="st6" d="M0 1187.2h57.818v5.669H0z" id="shape885-275"/></g><g id="group889-277" transform="rotate(89.6 485.003 1267.004)"><path d="M0 1055.39v137.48h134.94v-65.19H65.2v-72.29H0Z" class="st6" id="shape889-278"/></g><g id="group890-280" transform="rotate(-.4 -30956.561 -78713.35)"><g id="shape890-281"><path class="st6" d="M0 1135.05h65.197v57.818H0z"/><text x="25.92" y="1171.16" class="st7">7</text></g></g><g id="group891-284" transform="rotate(44.6 738.244 1685.337)"><g id="shape892-285" transform="rotate(180 20.805 1172.51)"><path class="st6" d="M0 1153.31h38.143v39.563H0z"/></g><g id="shape893-287" transform="rotate(180 30.052 1171.925)"><path class="st6" d="M0 1150.98h15.026v41.891H0z"/></g><g id="shape894-289" transform="rotate(180 19.65 1173.67)"><path d="m8.97 1192.87 10.85-3.85v-27.25l-10.85-3.81a235.919 233.239-180 0 0 0 34.91Zm10.85-3.85h18.44a91.622 90.962-180 0 0 0-27.26H19.82v27.26Zm-18.78 3.85h7.93a235.919 233.239 0 0 1 0-34.91H1.04a150.587 148.876-180 0 0 0 34.91Z" class="st6"/></g><g id="shape895-291" transform="rotate(-90 5.81 1151.87)"><path class="st8" d="M0 1192.58h1.164v.289H0z"/></g><g id="shape896-293" transform="rotate(-90 28.32 1163.4)"><path d="M2.62 1182.76h1.45v-1.45H2.62v1.45Zm1.74 0h1.46v-1.45H4.36v1.45Zm1.75 0h1.45v-1.45H6.11v1.45Zm1.74 0h1.46v-1.45H7.85v1.45Zm11.2 0h1.46v-1.45h-1.46v1.45Zm1.75 0h1.45v-1.45H20.8v1.45Zm1.75 0H24v-1.45h-1.45v1.45Zm1.74 0h1.46v-1.45h-1.46v1.45ZM0 1185.65h2.33v-1.45H0v1.45Zm2.62 0h1.45v-1.45H2.62v1.45Zm1.74 0h1.46v-1.45H4.36v1.45Zm1.75 0h1.45v-1.45H6.11v1.45Zm1.74 0h1.46v-1.45H7.85v1.45Zm1.75 0h1.45v-1.45H9.6v1.45Zm1.75 0h1.45v-1.45h-1.45v1.45Zm1.74 0h1.46v-1.45h-1.46v1.45Zm1.75 0h1.45v-1.45h-1.45v1.45Zm1.74 0h1.46v-1.45h-1.46v1.45Zm1.75 0h1.45v-1.45h-1.45v1.45Zm1.74 0h1.46v-1.45h-1.46v1.45Zm1.75 0h1.45v-1.45h-1.45v1.45Zm-19.2 1.8h1.45v-1.44H2.62v1.44Zm1.74 0h1.46v-1.44H4.36v1.44Zm1.75 0h1.45v-1.44H6.11v1.44Zm1.74 0h1.46v-1.44H7.85v1.44Zm1.75 0h1.45v-1.44H9.6v1.44Zm1.75 0h1.45v-1.44h-1.45v1.44Zm1.74 0h1.46v-1.44h-1.46v1.44Zm1.75 0h1.45v-1.44h-1.45v1.44Zm1.74 0h1.46v-1.44h-1.46v1.44Zm1.75 0h1.45v-1.44h-1.45v1.44Zm1.74 0h1.46v-1.44h-1.46v1.44Zm1.75 0h1.45v-1.44h-1.45v1.44Zm-19.2 1.81h1.45v-1.44H2.62v1.44Zm1.74 0h1.46v-1.44H4.36v1.44Zm1.75 0h1.45v-1.44H6.11v1.44Zm1.74 0h1.46v-1.44H7.85v1.44Zm1.75 0h1.45v-1.44H9.6v1.44Zm1.75 0h1.45v-1.44h-1.45v1.44Zm1.74 0h1.46v-1.44h-1.46v1.44Zm1.75 0h1.45v-1.44h-1.45v1.44Zm1.74 0h1.46v-1.44h-1.46v1.44Zm1.75 0h1.45v-1.44h-1.45v1.44Zm1.74 0h1.46v-1.44h-1.46v1.44Zm1.75 0h1.45v-1.44h-1.45v1.44Zm-19.2 1.81h1.45v-1.45H2.62v1.45Zm1.74 0h1.46v-1.45H4.36v1.45Zm1.75 0h1.45v-1.45H6.11v1.45Zm1.74 0h1.46v-1.45H7.85v1.45Zm1.75 0h1.45v-1.45H9.6v1.45Zm1.75 0h1.45v-1.45h-1.45v1.45Zm1.74 0h1.46v-1.45h-1.46v1.45Zm1.75 0h1.45v-1.45h-1.45v1.45Zm1.74 0h1.46v-1.45h-1.46v1.45Zm1.75 0h1.45v-1.45h-1.45v1.45Zm1.74 0h1.46v-1.45h-1.46v1.45Zm-13.96 1.8h11.93v-1.44H6.11v1.44Zm26.47 0h3.49v-1.44h-3.49v1.44Zm3.78 0h1.46v-1.44h-1.46v1.44Zm0-1.8h1.46v-1.45h-1.46v1.45Zm-1.89 0h1.46v-1.45h-1.46v1.45Zm-1.89 0h1.46v-1.45h-1.46v1.45Zm0-1.81h1.46v-1.44h-1.46v1.44Zm0-1.81h1.46v-1.44h-1.46v1.44Zm1.89 0h1.46v-1.44h-1.46v1.44Zm1.89 0h1.46v-1.44h-1.46v1.44Zm0 1.81h1.46v-1.44h-1.46v1.44Zm-1.89 0h1.46v-1.44h-1.46v1.44Z" class="st9"/></g><g id="shape897-295" transform="rotate(-90 28.32 1163.4)"><path d="M0 1182.76h1.45v-1.45H0v1.45Zm0 4.69h2.33v-1.44H0v1.44Zm0 1.81h2.33v-1.44H0v1.44Zm0 1.81h2.33v-1.45H0v1.45Zm0 1.8h2.33v-1.44H0v1.44Zm2.62 0h1.45v-1.44H2.62v1.44Zm1.74 0h1.46v-1.44H4.36v1.44Zm13.97 0h1.45v-1.44h-1.45v1.44Zm1.74 0h1.46v-1.44h-1.46v1.44Zm1.75 0h1.45v-1.44h-1.45v1.44Zm1.74 0h2.33v-1.44h-2.33v1.44Zm3.2 0h1.46v-1.44h-1.46v1.44Zm1.75 0h1.45v-1.44h-1.45v1.44Zm1.74 0h1.46v-1.44h-1.46v1.44Zm8 0h1.46v-3.18h-1.46v3.18Zm0-3.47h1.46v-3.39h-1.46v3.39Zm0-3.75h1.46v-1.45h-1.46v1.45Zm-1.89 0h1.46v-1.45h-1.46v1.45Zm-1.89 0h1.46v-1.45h-1.46v1.45Zm-1.89 0h1.46v-1.45h-1.46v1.45Zm-2.33 0h1.46v-1.45h-1.46v1.45Zm0 1.8h1.46v-1.44h-1.46v1.44Zm-1.74 3.62h1.45v-1.45h-1.45v1.45Zm-6.69-.03h4.07v-1.44h-4.07v1.44Zm1.74-1.83h2.33v-3.18h-2.33v3.18Zm3.2-1.76h1.46v-1.44h-1.46v1.44Zm1.75 0h1.45v-1.44h-1.45v1.44Zm0-1.8h1.45v-1.45h-1.45v1.45Zm-4.95 0h2.33v-1.45h-2.33v1.45Zm13.97-3.76h1.16v-.29h-1.16v.29Zm-1.75 0h1.17v-.29h-1.17v.29Zm-5.53.87h1.46v-1.45h-1.46v1.45Zm-1.74 0h1.45v-1.45h-1.45v1.45Zm-1.75 0h1.46v-1.45h-1.46v1.45Zm-10.76 0h1.45v-1.45H16v1.45Zm-1.75 0h1.46v-1.45h-1.46v1.45Zm-1.74 0h1.45v-1.45h-1.45v1.45Zm-1.75 0h1.46v-1.45h-1.46v1.45Zm16 2.89h1.46v-1.45h-1.46v1.45Z" class="st10"/></g></g><g id="group898-297" transform="rotate(-.235 -100482.425 -134318.804)"><path class="st6" d="M0 1187.2h137.482v5.669H0z" id="shape898-300"/></g><g id="group900-302" transform="rotate(89.6 482.141 1262.745)"><path class="st6" d="M0 1187.2h134.938v5.669H0z" id="shape900-305"/></g><g id="group902-307" transform="rotate(89.6 414.67 1330.687)"><path class="st6" d="M0 1187.2h57.818v5.669H0z" id="shape902-310"/></g><g id="group905-312" transform="scale(1 -1) rotate(45.3 2219.702 830.508)"><g id="shape906-313"><path d="M10.91 1149.42a157.589 157.613-180 0 0-.03 22.18 28.16 28.16-180 0 0 13.34 13.2h17.51a4.03 4.03 0 0 1 3.8 2.65h2.93a16.145 16.145-180 0 0 16.14-16.16v-21.53a16.137 16.137-180 0 0-16.14-16.13h-2.94a4.04 4.04 0 0 1-3.81 2.73H24.08a28.16 28.16-180 0 0-13.17 13.06Zm-.13 11.16a57.393 57.402 0 0 1 1.4-18.84 3.01 3.01-180 0 0-4.04-4.03 30.789 30.793-180 0 0-8.06 22.88 30.203 30.207-180 0 0 8.06 22.87 3.033 3.033-180 0 0 4.04-4.04 55.756 55.764 0 0 1-1.4-18.84Zm34.99 28.24a4.039 4.039-180 0 0-4.04-4.04H17.52a4.034 4.034-180 0 0-4.04 4.04 4.04 4.04-180 0 0 4.04 4.05h24.21a4.045 4.045-180 0 0 4.04-4.05Zm-.03-56.51a4.023 4.023-180 0 0-4.01-4.04H17.52a4.055 4.055-180 0 0-4.06 4.05 4.049 4.049-180 0 0 4.06 4.04h24.21a4.024 4.024-180 0 0 4.01-4.04v-.01Z" class="st4"/><path d="M10.91 1149.42a157.589 157.613-180 0 0-.03 22.18 28.16 28.16-180 0 0 13.34 13.2h17.51a4.03 4.03 0 0 1 3.8 2.65h2.93a16.145 16.145-180 0 0 16.14-16.16v-21.53a16.137 16.137-180 0 0-16.14-16.13h-2.94a4.04 4.04 0 0 1-3.81 2.73H24.08a28.16 28.16-180 0 0-13.17 13.06m-.13 11.16a57.393 57.402 0 0 1 1.4-18.84 3.01 3.01-180 0 0-4.04-4.03 30.789 30.793-180 0 0-8.06 22.88 30.203 30.207-180 0 0 8.06 22.87 3.033 3.033-180 0 0 4.04-4.04 55.756 55.764 0 0 1-1.4-18.84m34.99 28.24a4.039 4.039-180 0 0-4.04-4.04H17.52a4.034 4.034-180 0 0-4.04 4.04 4.04 4.04-180 0 0 4.04 4.05h24.21a4.045 4.045-180 0 0 4.04-4.05m-.03-56.51a4.023 4.023-180 0 0-4.01-4.04H17.52a4.055 4.055-180 0 0-4.06 4.05 4.049 4.049-180 0 0 4.06 4.04h24.21a4.024 4.024-180 0 0 4.01-4.04" class="st5"/></g></g><g id="group907-316" transform="scale(1 -1) rotate(-89.7 -521.142 129.202)"><path d="M0 1055.39v137.48h134.94v-65.19H65.2v-72.29H0Z" class="st6" id="shape907-317"/></g><g id="group908-319" transform="scale(-1 1) rotate(.3 116837.91 -103440.284)"><g id="shape908-320"><path class="st6" d="M0 1135.05h65.197v57.818H0z"/><text x="-39.27" y="1171.16" transform="scale(-1 1)" class="st7">4</text></g></g><g id="group909-323" transform="scale(-1 1) rotate(45.3 653.09 156.377)"><g id="shape910-324" transform="rotate(180 20.805 1172.51)"><path class="st6" d="M0 1153.31h38.143v39.563H0z"/></g><g id="shape911-326" transform="rotate(180 30.052 1171.925)"><path class="st6" d="M0 1150.98h15.026v41.891H0z"/></g><g id="shape912-328" transform="rotate(180 19.65 1173.67)"><path d="m8.97 1192.87 10.85-3.85v-27.25l-10.85-3.81a235.919 233.239-180 0 0 0 34.91Zm10.85-3.85h18.44a91.622 90.962-180 0 0 0-27.26H19.82v27.26Zm-18.78 3.85h7.93a235.919 233.239 0 0 1 0-34.91H1.04a150.587 148.876-180 0 0 0 34.91Z" class="st6"/></g><g id="shape913-330" transform="rotate(-90 5.81 1151.87)"><path class="st8" d="M0 1192.58h1.164v.289H0z"/></g><g id="shape914-332" transform="rotate(-90 28.32 1163.4)"><path d="M2.62 1182.76h1.45v-1.45H2.62v1.45Zm1.74 0h1.46v-1.45H4.36v1.45Zm1.75 0h1.45v-1.45H6.11v1.45Zm1.74 0h1.46v-1.45H7.85v1.45Zm11.2 0h1.46v-1.45h-1.46v1.45Zm1.75 0h1.45v-1.45H20.8v1.45Zm1.75 0H24v-1.45h-1.45v1.45Zm1.74 0h1.46v-1.45h-1.46v1.45ZM0 1185.65h2.33v-1.45H0v1.45Zm2.62 0h1.45v-1.45H2.62v1.45Zm1.74 0h1.46v-1.45H4.36v1.45Zm1.75 0h1.45v-1.45H6.11v1.45Zm1.74 0h1.46v-1.45H7.85v1.45Zm1.75 0h1.45v-1.45H9.6v1.45Zm1.75 0h1.45v-1.45h-1.45v1.45Zm1.74 0h1.46v-1.45h-1.46v1.45Zm1.75 0h1.45v-1.45h-1.45v1.45Zm1.74 0h1.46v-1.45h-1.46v1.45Zm1.75 0h1.45v-1.45h-1.45v1.45Zm1.74 0h1.46v-1.45h-1.46v1.45Zm1.75 0h1.45v-1.45h-1.45v1.45Zm-19.2 1.8h1.45v-1.44H2.62v1.44Zm1.74 0h1.46v-1.44H4.36v1.44Zm1.75 0h1.45v-1.44H6.11v1.44Zm1.74 0h1.46v-1.44H7.85v1.44Zm1.75 0h1.45v-1.44H9.6v1.44Zm1.75 0h1.45v-1.44h-1.45v1.44Zm1.74 0h1.46v-1.44h-1.46v1.44Zm1.75 0h1.45v-1.44h-1.45v1.44Zm1.74 0h1.46v-1.44h-1.46v1.44Zm1.75 0h1.45v-1.44h-1.45v1.44Zm1.74 0h1.46v-1.44h-1.46v1.44Zm1.75 0h1.45v-1.44h-1.45v1.44Zm-19.2 1.81h1.45v-1.44H2.62v1.44Zm1.74 0h1.46v-1.44H4.36v1.44Zm1.75 0h1.45v-1.44H6.11v1.44Zm1.74 0h1.46v-1.44H7.85v1.44Zm1.75 0h1.45v-1.44H9.6v1.44Zm1.75 0h1.45v-1.44h-1.45v1.44Zm1.74 0h1.46v-1.44h-1.46v1.44Zm1.75 0h1.45v-1.44h-1.45v1.44Zm1.74 0h1.46v-1.44h-1.46v1.44Zm1.75 0h1.45v-1.44h-1.45v1.44Zm1.74 0h1.46v-1.44h-1.46v1.44Zm1.75 0h1.45v-1.44h-1.45v1.44Zm-19.2 1.81h1.45v-1.45H2.62v1.45Zm1.74 0h1.46v-1.45H4.36v1.45Zm1.75 0h1.45v-1.45H6.11v1.45Zm1.74 0h1.46v-1.45H7.85v1.45Zm1.75 0h1.45v-1.45H9.6v1.45Zm1.75 0h1.45v-1.45h-1.45v1.45Zm1.74 0h1.46v-1.45h-1.46v1.45Zm1.75 0h1.45v-1.45h-1.45v1.45Zm1.74 0h1.46v-1.45h-1.46v1.45Zm1.75 0h1.45v-1.45h-1.45v1.45Zm1.74 0h1.46v-1.45h-1.46v1.45Zm-13.96 1.8h11.93v-1.44H6.11v1.44Zm26.47 0h3.49v-1.44h-3.49v1.44Zm3.78 0h1.46v-1.44h-1.46v1.44Zm0-1.8h1.46v-1.45h-1.46v1.45Zm-1.89 0h1.46v-1.45h-1.46v1.45Zm-1.89 0h1.46v-1.45h-1.46v1.45Zm0-1.81h1.46v-1.44h-1.46v1.44Zm0-1.81h1.46v-1.44h-1.46v1.44Zm1.89 0h1.46v-1.44h-1.46v1.44Zm1.89 0h1.46v-1.44h-1.46v1.44Zm0 1.81h1.46v-1.44h-1.46v1.44Zm-1.89 0h1.46v-1.44h-1.46v1.44Z" class="st9"/></g><g id="shape915-334" transform="rotate(-90 28.32 1163.4)"><path d="M0 1182.76h1.45v-1.45H0v1.45Zm0 4.69h2.33v-1.44H0v1.44Zm0 1.81h2.33v-1.44H0v1.44Zm0 1.81h2.33v-1.45H0v1.45Zm0 1.8h2.33v-1.44H0v1.44Zm2.62 0h1.45v-1.44H2.62v1.44Zm1.74 0h1.46v-1.44H4.36v1.44Zm13.97 0h1.45v-1.44h-1.45v1.44Zm1.74 0h1.46v-1.44h-1.46v1.44Zm1.75 0h1.45v-1.44h-1.45v1.44Zm1.74 0h2.33v-1.44h-2.33v1.44Zm3.2 0h1.46v-1.44h-1.46v1.44Zm1.75 0h1.45v-1.44h-1.45v1.44Zm1.74 0h1.46v-1.44h-1.46v1.44Zm8 0h1.46v-3.18h-1.46v3.18Zm0-3.47h1.46v-3.39h-1.46v3.39Zm0-3.75h1.46v-1.45h-1.46v1.45Zm-1.89 0h1.46v-1.45h-1.46v1.45Zm-1.89 0h1.46v-1.45h-1.46v1.45Zm-1.89 0h1.46v-1.45h-1.46v1.45Zm-2.33 0h1.46v-1.45h-1.46v1.45Zm0 1.8h1.46v-1.44h-1.46v1.44Zm-1.74 3.62h1.45v-1.45h-1.45v1.45Zm-6.69-.03h4.07v-1.44h-4.07v1.44Zm1.74-1.83h2.33v-3.18h-2.33v3.18Zm3.2-1.76h1.46v-1.44h-1.46v1.44Zm1.75 0h1.45v-1.44h-1.45v1.44Zm0-1.8h1.45v-1.45h-1.45v1.45Zm-4.95 0h2.33v-1.45h-2.33v1.45Zm13.97-3.76h1.16v-.29h-1.16v.29Zm-1.75 0h1.17v-.29h-1.17v.29Zm-5.53.87h1.46v-1.45h-1.46v1.45Zm-1.74 0h1.45v-1.45h-1.45v1.45Zm-1.75 0h1.46v-1.45h-1.46v1.45Zm-10.76 0h1.45v-1.45H16v1.45Zm-1.75 0h1.46v-1.45h-1.46v1.45Zm-1.74 0h1.45v-1.45h-1.45v1.45Zm-1.75 0h1.46v-1.45h-1.46v1.45Zm16 2.89h1.46v-1.45h-1.46v1.45Z" class="st10"/></g></g><g id="group916-336" transform="scale(-1 1) rotate(.465 99217.973 -66528.393)"><path class="st6" d="M0 1187.2h137.482v5.669H0z" id="shape916-339"/></g><g id="group918-341" transform="scale(1 -1) rotate(-89.7 -516.872 126.371)"><path class="st6" d="M0 1187.2h134.938v5.669H0z" id="shape918-344"/></g><g id="group920-346" transform="scale(1 -1) rotate(-89.7 -584.34 58.548)"><path class="st6" d="M0 1187.2h57.818v5.669H0z" id="shape920-349"/></g><g id="group922-351" transform="rotate(44.7 838.466 1419.267)"><g id="shape923-352"><path d="M10.91 1149.42a157.589 157.613-180 0 0-.03 22.18 28.16 28.16-180 0 0 13.34 13.2h17.51a4.03 4.03 0 0 1 3.8 2.65h2.93a16.145 16.145-180 0 0 16.14-16.16v-21.53a16.137 16.137-180 0 0-16.14-16.13h-2.94a4.04 4.04 0 0 1-3.81 2.73H24.08a28.16 28.16-180 0 0-13.17 13.06Zm-.13 11.16a57.393 57.402 0 0 1 1.4-18.84 3.01 3.01-180 0 0-4.04-4.03 30.789 30.793-180 0 0-8.06 22.88 30.203 30.207-180 0 0 8.06 22.87 3.033 3.033-180 0 0 4.04-4.04 55.756 55.764 0 0 1-1.4-18.84Zm34.99 28.24a4.039 4.039-180 0 0-4.04-4.04H17.52a4.034 4.034-180 0 0-4.04 4.04 4.04 4.04-180 0 0 4.04 4.05h24.21a4.045 4.045-180 0 0 4.04-4.05Zm-.03-56.51a4.023 4.023-180 0 0-4.01-4.04H17.52a4.055 4.055-180 0 0-4.06 4.05 4.049 4.049-180 0 0 4.06 4.04h24.21a4.024 4.024-180 0 0 4.01-4.04v-.01Z" class="st4"/><path d="M10.91 1149.42a157.589 157.613-180 0 0-.03 22.18 28.16 28.16-180 0 0 13.34 13.2h17.51a4.03 4.03 0 0 1 3.8 2.65h2.93a16.145 16.145-180 0 0 16.14-16.16v-21.53a16.137 16.137-180 0 0-16.14-16.13h-2.94a4.04 4.04 0 0 1-3.81 2.73H24.08a28.16 28.16-180 0 0-13.17 13.06m-.13 11.16a57.393 57.402 0 0 1 1.4-18.84 3.01 3.01-180 0 0-4.04-4.03 30.789 30.793-180 0 0-8.06 22.88 30.203 30.207-180 0 0 8.06 22.87 3.033 3.033-180 0 0 4.04-4.04 55.756 55.764 0 0 1-1.4-18.84m34.99 28.24a4.039 4.039-180 0 0-4.04-4.04H17.52a4.034 4.034-180 0 0-4.04 4.04 4.04 4.04-180 0 0 4.04 4.05h24.21a4.045 4.045-180 0 0 4.04-4.05m-.03-56.51a4.023 4.023-180 0 0-4.01-4.04H17.52a4.055 4.055-180 0 0-4.06 4.05 4.049 4.049-180 0 0 4.06 4.04h24.21a4.024 4.024-180 0 0 4.01-4.04" class="st5"/></g></g><g id="group924-355" transform="rotate(-90.3 64.79 710.729)"><path d="M0 1055.39v137.48h134.94v-65.19H65.2v-72.29H0Z" class="st6" id="shape924-356"/></g><g id="group925-358" transform="rotate(-.3 -105763.021 -91017.583)"><g id="shape925-359"><path class="st6" d="M0 1135.05h65.197v57.818H0z"/><text x="25.92" y="1171.16" class="st7">5</text></g></g><g id="group926-362" transform="rotate(-135.3 178.867 853.54)"><g id="shape927-363" transform="rotate(180 20.805 1172.51)"><path class="st6" d="M0 1153.31h38.143v39.563H0z"/></g><g id="shape928-365" transform="rotate(180 30.052 1171.925)"><path class="st6" d="M0 1150.98h15.026v41.891H0z"/></g><g id="shape929-367" transform="rotate(180 19.65 1173.67)"><path d="m8.97 1192.87 10.85-3.85v-27.25l-10.85-3.81a235.919 233.239-180 0 0 0 34.91Zm10.85-3.85h18.44a91.622 90.962-180 0 0 0-27.26H19.82v27.26Zm-18.78 3.85h7.93a235.919 233.239 0 0 1 0-34.91H1.04a150.587 148.876-180 0 0 0 34.91Z" class="st6"/></g><g id="shape930-369" transform="rotate(-90 5.81 1151.87)"><path class="st8" d="M0 1192.58h1.164v.289H0z"/></g><g id="shape931-371" transform="rotate(-90 28.32 1163.4)"><path d="M2.62 1182.76h1.45v-1.45H2.62v1.45Zm1.74 0h1.46v-1.45H4.36v1.45Zm1.75 0h1.45v-1.45H6.11v1.45Zm1.74 0h1.46v-1.45H7.85v1.45Zm11.2 0h1.46v-1.45h-1.46v1.45Zm1.75 0h1.45v-1.45H20.8v1.45Zm1.75 0H24v-1.45h-1.45v1.45Zm1.74 0h1.46v-1.45h-1.46v1.45ZM0 1185.65h2.33v-1.45H0v1.45Zm2.62 0h1.45v-1.45H2.62v1.45Zm1.74 0h1.46v-1.45H4.36v1.45Zm1.75 0h1.45v-1.45H6.11v1.45Zm1.74 0h1.46v-1.45H7.85v1.45Zm1.75 0h1.45v-1.45H9.6v1.45Zm1.75 0h1.45v-1.45h-1.45v1.45Zm1.74 0h1.46v-1.45h-1.46v1.45Zm1.75 0h1.45v-1.45h-1.45v1.45Zm1.74 0h1.46v-1.45h-1.46v1.45Zm1.75 0h1.45v-1.45h-1.45v1.45Zm1.74 0h1.46v-1.45h-1.46v1.45Zm1.75 0h1.45v-1.45h-1.45v1.45Zm-19.2 1.8h1.45v-1.44H2.62v1.44Zm1.74 0h1.46v-1.44H4.36v1.44Zm1.75 0h1.45v-1.44H6.11v1.44Zm1.74 0h1.46v-1.44H7.85v1.44Zm1.75 0h1.45v-1.44H9.6v1.44Zm1.75 0h1.45v-1.44h-1.45v1.44Zm1.74 0h1.46v-1.44h-1.46v1.44Zm1.75 0h1.45v-1.44h-1.45v1.44Zm1.74 0h1.46v-1.44h-1.46v1.44Zm1.75 0h1.45v-1.44h-1.45v1.44Zm1.74 0h1.46v-1.44h-1.46v1.44Zm1.75 0h1.45v-1.44h-1.45v1.44Zm-19.2 1.81h1.45v-1.44H2.62v1.44Zm1.74 0h1.46v-1.44H4.36v1.44Zm1.75 0h1.45v-1.44H6.11v1.44Zm1.74 0h1.46v-1.44H7.85v1.44Zm1.75 0h1.45v-1.44H9.6v1.44Zm1.75 0h1.45v-1.44h-1.45v1.44Zm1.74 0h1.46v-1.44h-1.46v1.44Zm1.75 0h1.45v-1.44h-1.45v1.44Zm1.74 0h1.46v-1.44h-1.46v1.44Zm1.75 0h1.45v-1.44h-1.45v1.44Zm1.74 0h1.46v-1.44h-1.46v1.44Zm1.75 0h1.45v-1.44h-1.45v1.44Zm-19.2 1.81h1.45v-1.45H2.62v1.45Zm1.74 0h1.46v-1.45H4.36v1.45Zm1.75 0h1.45v-1.45H6.11v1.45Zm1.74 0h1.46v-1.45H7.85v1.45Zm1.75 0h1.45v-1.45H9.6v1.45Zm1.75 0h1.45v-1.45h-1.45v1.45Zm1.74 0h1.46v-1.45h-1.46v1.45Zm1.75 0h1.45v-1.45h-1.45v1.45Zm1.74 0h1.46v-1.45h-1.46v1.45Zm1.75 0h1.45v-1.45h-1.45v1.45Zm1.74 0h1.46v-1.45h-1.46v1.45Zm-13.96 1.8h11.93v-1.44H6.11v1.44Zm26.47 0h3.49v-1.44h-3.49v1.44Zm3.78 0h1.46v-1.44h-1.46v1.44Zm0-1.8h1.46v-1.45h-1.46v1.45Zm-1.89 0h1.46v-1.45h-1.46v1.45Zm-1.89 0h1.46v-1.45h-1.46v1.45Zm0-1.81h1.46v-1.44h-1.46v1.44Zm0-1.81h1.46v-1.44h-1.46v1.44Zm1.89 0h1.46v-1.44h-1.46v1.44Zm1.89 0h1.46v-1.44h-1.46v1.44Zm0 1.81h1.46v-1.44h-1.46v1.44Zm-1.89 0h1.46v-1.44h-1.46v1.44Z" class="st9"/></g><g id="shape932-373" transform="rotate(-90 28.32 1163.4)"><path d="M0 1182.76h1.45v-1.45H0v1.45Zm0 4.69h2.33v-1.44H0v1.44Zm0 1.81h2.33v-1.44H0v1.44Zm0 1.81h2.33v-1.45H0v1.45Zm0 1.8h2.33v-1.44H0v1.44Zm2.62 0h1.45v-1.44H2.62v1.44Zm1.74 0h1.46v-1.44H4.36v1.44Zm13.97 0h1.45v-1.44h-1.45v1.44Zm1.74 0h1.46v-1.44h-1.46v1.44Zm1.75 0h1.45v-1.44h-1.45v1.44Zm1.74 0h2.33v-1.44h-2.33v1.44Zm3.2 0h1.46v-1.44h-1.46v1.44Zm1.75 0h1.45v-1.44h-1.45v1.44Zm1.74 0h1.46v-1.44h-1.46v1.44Zm8 0h1.46v-3.18h-1.46v3.18Zm0-3.47h1.46v-3.39h-1.46v3.39Zm0-3.75h1.46v-1.45h-1.46v1.45Zm-1.89 0h1.46v-1.45h-1.46v1.45Zm-1.89 0h1.46v-1.45h-1.46v1.45Zm-1.89 0h1.46v-1.45h-1.46v1.45Zm-2.33 0h1.46v-1.45h-1.46v1.45Zm0 1.8h1.46v-1.44h-1.46v1.44Zm-1.74 3.62h1.45v-1.45h-1.45v1.45Zm-6.69-.03h4.07v-1.44h-4.07v1.44Zm1.74-1.83h2.33v-3.18h-2.33v3.18Zm3.2-1.76h1.46v-1.44h-1.46v1.44Zm1.75 0h1.45v-1.44h-1.45v1.44Zm0-1.8h1.45v-1.45h-1.45v1.45Zm-4.95 0h2.33v-1.45h-2.33v1.45Zm13.97-3.76h1.16v-.29h-1.16v.29Zm-1.75 0h1.17v-.29h-1.17v.29Zm-5.53.87h1.46v-1.45h-1.46v1.45Zm-1.74 0h1.45v-1.45h-1.45v1.45Zm-1.75 0h1.46v-1.45h-1.46v1.45Zm-10.76 0h1.45v-1.45H16v1.45Zm-1.75 0h1.46v-1.45h-1.46v1.45Zm-1.74 0h1.45v-1.45h-1.45v1.45Zm-1.75 0h1.46v-1.45h-1.46v1.45Zm16 2.89h1.46v-1.45h-1.46v1.45Z" class="st10"/></g></g><g id="group933-375" transform="rotate(179.865 274.593 983.96)"><path class="st6" d="M0 1187.2h137.482v5.669H0z" id="shape933-378"/></g><g id="group935-380" transform="rotate(-90.3 69.024 707.89)"><path class="st6" d="M0 1187.2h134.938v5.669H0z" id="shape935-383"/></g><g id="group937-385" transform="rotate(-90.3 1.555 640.774)"><path class="st6" d="M0 1187.2h57.818v5.669H0z" id="shape937-388"/></g><g id="group941-390" transform="scale(1 -1) rotate(-89.7 -718.503 -69.225)"><path d="M0 1055.39v137.48h134.94v-65.19H65.2v-72.29H0Z" class="st6" id="shape941-391"/></g><g id="group942-393" transform="scale(-1 1) rotate(.3 41445.91 -103643.407)"><g id="shape942-394"><path class="st6" d="M0 1135.05h65.197v57.818H0z"/><text x="-39.27" y="1171.16" transform="scale(-1 1)" class="st7">6</text></g></g><g id="group943-397" transform="scale(-1 1) rotate(45.3 179.046 351.238)"><g id="shape944-398" transform="rotate(180 20.805 1172.51)"><path class="st6" d="M0 1153.31h38.143v39.563H0z"/></g><g id="shape945-400" transform="rotate(180 30.052 1171.925)"><path class="st6" d="M0 1150.98h15.026v41.891H0z"/></g><g id="shape946-402" transform="rotate(180 19.65 1173.67)"><path d="m8.97 1192.87 10.85-3.85v-27.25l-10.85-3.81a235.919 233.239-180 0 0 0 34.91Zm10.85-3.85h18.44a91.622 90.962-180 0 0 0-27.26H19.82v27.26Zm-18.78 3.85h7.93a235.919 233.239 0 0 1 0-34.91H1.04a150.587 148.876-180 0 0 0 34.91Z" class="st6"/></g><g id="shape947-404" transform="rotate(-90 5.81 1151.87)"><path class="st8" d="M0 1192.58h1.164v.289H0z"/></g><g id="shape948-406" transform="rotate(-90 28.32 1163.4)"><path d="M2.62 1182.76h1.45v-1.45H2.62v1.45Zm1.74 0h1.46v-1.45H4.36v1.45Zm1.75 0h1.45v-1.45H6.11v1.45Zm1.74 0h1.46v-1.45H7.85v1.45Zm11.2 0h1.46v-1.45h-1.46v1.45Zm1.75 0h1.45v-1.45H20.8v1.45Zm1.75 0H24v-1.45h-1.45v1.45Zm1.74 0h1.46v-1.45h-1.46v1.45ZM0 1185.65h2.33v-1.45H0v1.45Zm2.62 0h1.45v-1.45H2.62v1.45Zm1.74 0h1.46v-1.45H4.36v1.45Zm1.75 0h1.45v-1.45H6.11v1.45Zm1.74 0h1.46v-1.45H7.85v1.45Zm1.75 0h1.45v-1.45H9.6v1.45Zm1.75 0h1.45v-1.45h-1.45v1.45Zm1.74 0h1.46v-1.45h-1.46v1.45Zm1.75 0h1.45v-1.45h-1.45v1.45Zm1.74 0h1.46v-1.45h-1.46v1.45Zm1.75 0h1.45v-1.45h-1.45v1.45Zm1.74 0h1.46v-1.45h-1.46v1.45Zm1.75 0h1.45v-1.45h-1.45v1.45Zm-19.2 1.8h1.45v-1.44H2.62v1.44Zm1.74 0h1.46v-1.44H4.36v1.44Zm1.75 0h1.45v-1.44H6.11v1.44Zm1.74 0h1.46v-1.44H7.85v1.44Zm1.75 0h1.45v-1.44H9.6v1.44Zm1.75 0h1.45v-1.44h-1.45v1.44Zm1.74 0h1.46v-1.44h-1.46v1.44Zm1.75 0h1.45v-1.44h-1.45v1.44Zm1.74 0h1.46v-1.44h-1.46v1.44Zm1.75 0h1.45v-1.44h-1.45v1.44Zm1.74 0h1.46v-1.44h-1.46v1.44Zm1.75 0h1.45v-1.44h-1.45v1.44Zm-19.2 1.81h1.45v-1.44H2.62v1.44Zm1.74 0h1.46v-1.44H4.36v1.44Zm1.75 0h1.45v-1.44H6.11v1.44Zm1.74 0h1.46v-1.44H7.85v1.44Zm1.75 0h1.45v-1.44H9.6v1.44Zm1.75 0h1.45v-1.44h-1.45v1.44Zm1.74 0h1.46v-1.44h-1.46v1.44Zm1.75 0h1.45v-1.44h-1.45v1.44Zm1.74 0h1.46v-1.44h-1.46v1.44Zm1.75 0h1.45v-1.44h-1.45v1.44Zm1.74 0h1.46v-1.44h-1.46v1.44Zm1.75 0h1.45v-1.44h-1.45v1.44Zm-19.2 1.81h1.45v-1.45H2.62v1.45Zm1.74 0h1.46v-1.45H4.36v1.45Zm1.75 0h1.45v-1.45H6.11v1.45Zm1.74 0h1.46v-1.45H7.85v1.45Zm1.75 0h1.45v-1.45H9.6v1.45Zm1.75 0h1.45v-1.45h-1.45v1.45Zm1.74 0h1.46v-1.45h-1.46v1.45Zm1.75 0h1.45v-1.45h-1.45v1.45Zm1.74 0h1.46v-1.45h-1.46v1.45Zm1.75 0h1.45v-1.45h-1.45v1.45Zm1.74 0h1.46v-1.45h-1.46v1.45Zm-13.96 1.8h11.93v-1.44H6.11v1.44Zm26.47 0h3.49v-1.44h-3.49v1.44Zm3.78 0h1.46v-1.44h-1.46v1.44Zm0-1.8h1.46v-1.45h-1.46v1.45Zm-1.89 0h1.46v-1.45h-1.46v1.45Zm-1.89 0h1.46v-1.45h-1.46v1.45Zm0-1.81h1.46v-1.44h-1.46v1.44Zm0-1.81h1.46v-1.44h-1.46v1.44Zm1.89 0h1.46v-1.44h-1.46v1.44Zm1.89 0h1.46v-1.44h-1.46v1.44Zm0 1.81h1.46v-1.44h-1.46v1.44Zm-1.89 0h1.46v-1.44h-1.46v1.44Z" class="st9"/></g><g id="shape949-408" transform="rotate(-90 28.32 1163.4)"><path d="M0 1182.76h1.45v-1.45H0v1.45Zm0 4.69h2.33v-1.44H0v1.44Zm0 1.81h2.33v-1.44H0v1.44Zm0 1.81h2.33v-1.45H0v1.45Zm0 1.8h2.33v-1.44H0v1.44Zm2.62 0h1.45v-1.44H2.62v1.44Zm1.74 0h1.46v-1.44H4.36v1.44Zm13.97 0h1.45v-1.44h-1.45v1.44Zm1.74 0h1.46v-1.44h-1.46v1.44Zm1.75 0h1.45v-1.44h-1.45v1.44Zm1.74 0h2.33v-1.44h-2.33v1.44Zm3.2 0h1.46v-1.44h-1.46v1.44Zm1.75 0h1.45v-1.44h-1.45v1.44Zm1.74 0h1.46v-1.44h-1.46v1.44Zm8 0h1.46v-3.18h-1.46v3.18Zm0-3.47h1.46v-3.39h-1.46v3.39Zm0-3.75h1.46v-1.45h-1.46v1.45Zm-1.89 0h1.46v-1.45h-1.46v1.45Zm-1.89 0h1.46v-1.45h-1.46v1.45Zm-1.89 0h1.46v-1.45h-1.46v1.45Zm-2.33 0h1.46v-1.45h-1.46v1.45Zm0 1.8h1.46v-1.44h-1.46v1.44Zm-1.74 3.62h1.45v-1.45h-1.45v1.45Zm-6.69-.03h4.07v-1.44h-4.07v1.44Zm1.74-1.83h2.33v-3.18h-2.33v3.18Zm3.2-1.76h1.46v-1.44h-1.46v1.44Zm1.75 0h1.45v-1.44h-1.45v1.44Zm0-1.8h1.45v-1.45h-1.45v1.45Zm-4.95 0h2.33v-1.45h-2.33v1.45Zm13.97-3.76h1.16v-.29h-1.16v.29Zm-1.75 0h1.17v-.29h-1.17v.29Zm-5.53.87h1.46v-1.45h-1.46v1.45Zm-1.74 0h1.45v-1.45h-1.45v1.45Zm-1.75 0h1.46v-1.45h-1.46v1.45Zm-10.76 0h1.45v-1.45H16v1.45Zm-1.75 0h1.46v-1.45h-1.46v1.45Zm-1.74 0h1.45v-1.45h-1.45v1.45Zm-1.75 0h1.46v-1.45h-1.46v1.45Zm16 2.89h1.46v-1.45h-1.46v1.45Z" class="st10"/></g></g><g id="group950-410" transform="scale(-1 1) rotate(.465 50606.61 -66589.25)"><path class="st6" d="M0 1187.2h137.482v5.669H0z" id="shape950-413"/></g><g id="group952-415" transform="scale(1 -1) rotate(-89.7 -714.233 -72.056)"><path class="st6" d="M0 1187.2h134.938v5.669H0z" id="shape952-418"/></g><g id="group954-420" transform="scale(1 -1) rotate(-89.7 -781.702 -139.88)"><path class="st6" d="M0 1187.2h57.818v5.669H0z" id="shape954-423"/></g><g id="group1009-425" transform="scale(1 -1) rotate(45.3 2408.447 1282.826)"><g id="shape1010-426"><path d="M10.91 1149.42a157.589 157.613-180 0 0-.03 22.18 28.16 28.16-180 0 0 13.34 13.2h17.51a4.03 4.03 0 0 1 3.8 2.65h2.93a16.145 16.145-180 0 0 16.14-16.16v-21.53a16.137 16.137-180 0 0-16.14-16.13h-2.94a4.04 4.04 0 0 1-3.81 2.73H24.08a28.16 28.16-180 0 0-13.17 13.06Zm-.13 11.16a57.393 57.402 0 0 1 1.4-18.84 3.01 3.01-180 0 0-4.04-4.03 30.789 30.793-180 0 0-8.06 22.88 30.203 30.207-180 0 0 8.06 22.87 3.033 3.033-180 0 0 4.04-4.04 55.756 55.764 0 0 1-1.4-18.84Zm34.99 28.24a4.039 4.039-180 0 0-4.04-4.04H17.52a4.034 4.034-180 0 0-4.04 4.04 4.04 4.04-180 0 0 4.04 4.05h24.21a4.045 4.045-180 0 0 4.04-4.05Zm-.03-56.51a4.023 4.023-180 0 0-4.01-4.04H17.52a4.055 4.055-180 0 0-4.06 4.05 4.049 4.049-180 0 0 4.06 4.04h24.21a4.024 4.024-180 0 0 4.01-4.04v-.01Z" class="st4"/><path d="M10.91 1149.42a157.589 157.613-180 0 0-.03 22.18 28.16 28.16-180 0 0 13.34 13.2h17.51a4.03 4.03 0 0 1 3.8 2.65h2.93a16.145 16.145-180 0 0 16.14-16.16v-21.53a16.137 16.137-180 0 0-16.14-16.13h-2.94a4.04 4.04 0 0 1-3.81 2.73H24.08a28.16 28.16-180 0 0-13.17 13.06m-.13 11.16a57.393 57.402 0 0 1 1.4-18.84 3.01 3.01-180 0 0-4.04-4.03 30.789 30.793-180 0 0-8.06 22.88 30.203 30.207-180 0 0 8.06 22.87 3.033 3.033-180 0 0 4.04-4.04 55.756 55.764 0 0 1-1.4-18.84m34.99 28.24a4.039 4.039-180 0 0-4.04-4.04H17.52a4.034 4.034-180 0 0-4.04 4.04 4.04 4.04-180 0 0 4.04 4.05h24.21a4.045 4.045-180 0 0 4.04-4.05m-.03-56.51a4.023 4.023-180 0 0-4.01-4.04H17.52a4.055 4.055-180 0 0-4.06 4.05 4.049 4.049-180 0 0 4.06 4.04h24.21a4.024 4.024-180 0 0 4.01-4.04" class="st5"/></g></g><g id="group1011-429" transform="scale(1 -1) rotate(-89.7 -329.014 -63.935)"><path d="M0 1055.39v137.48h134.94v-65.19H65.2v-72.29H0Z" class="st6" id="shape1011-430"/></g><g id="group1012-432" transform="scale(-1 1) rotate(.3 116645.78 -176827.797)"><g id="shape1012-433"><path class="st6" d="M0 1135.05h65.197v57.818H0z"/><text x="-45.95" y="1171.16" transform="scale(-1 1)" class="st7">10</text></g></g><g id="group1013-436" transform="scale(-1 1) rotate(45.3 460.962 -304.048)"><g id="shape1014-437" transform="rotate(180 20.805 1172.51)"><path class="st6" d="M0 1153.31h38.143v39.563H0z"/></g><g id="shape1015-439" transform="rotate(180 30.052 1171.925)"><path class="st6" d="M0 1150.98h15.026v41.891H0z"/></g><g id="shape1016-441" transform="rotate(180 19.65 1173.67)"><path d="m8.97 1192.87 10.85-3.85v-27.25l-10.85-3.81a235.919 233.239-180 0 0 0 34.91Zm10.85-3.85h18.44a91.622 90.962-180 0 0 0-27.26H19.82v27.26Zm-18.78 3.85h7.93a235.919 233.239 0 0 1 0-34.91H1.04a150.587 148.876-180 0 0 0 34.91Z" class="st6"/></g><g id="shape1017-443" transform="rotate(-90 5.81 1151.87)"><path class="st8" d="M0 1192.58h1.164v.289H0z"/></g><g id="shape1018-445" transform="rotate(-90 28.32 1163.4)"><path d="M2.62 1182.76h1.45v-1.45H2.62v1.45Zm1.74 0h1.46v-1.45H4.36v1.45Zm1.75 0h1.45v-1.45H6.11v1.45Zm1.74 0h1.46v-1.45H7.85v1.45Zm11.2 0h1.46v-1.45h-1.46v1.45Zm1.75 0h1.45v-1.45H20.8v1.45Zm1.75 0H24v-1.45h-1.45v1.45Zm1.74 0h1.46v-1.45h-1.46v1.45ZM0 1185.65h2.33v-1.45H0v1.45Zm2.62 0h1.45v-1.45H2.62v1.45Zm1.74 0h1.46v-1.45H4.36v1.45Zm1.75 0h1.45v-1.45H6.11v1.45Zm1.74 0h1.46v-1.45H7.85v1.45Zm1.75 0h1.45v-1.45H9.6v1.45Zm1.75 0h1.45v-1.45h-1.45v1.45Zm1.74 0h1.46v-1.45h-1.46v1.45Zm1.75 0h1.45v-1.45h-1.45v1.45Zm1.74 0h1.46v-1.45h-1.46v1.45Zm1.75 0h1.45v-1.45h-1.45v1.45Zm1.74 0h1.46v-1.45h-1.46v1.45Zm1.75 0h1.45v-1.45h-1.45v1.45Zm-19.2 1.8h1.45v-1.44H2.62v1.44Zm1.74 0h1.46v-1.44H4.36v1.44Zm1.75 0h1.45v-1.44H6.11v1.44Zm1.74 0h1.46v-1.44H7.85v1.44Zm1.75 0h1.45v-1.44H9.6v1.44Zm1.75 0h1.45v-1.44h-1.45v1.44Zm1.74 0h1.46v-1.44h-1.46v1.44Zm1.75 0h1.45v-1.44h-1.45v1.44Zm1.74 0h1.46v-1.44h-1.46v1.44Zm1.75 0h1.45v-1.44h-1.45v1.44Zm1.74 0h1.46v-1.44h-1.46v1.44Zm1.75 0h1.45v-1.44h-1.45v1.44Zm-19.2 1.81h1.45v-1.44H2.62v1.44Zm1.74 0h1.46v-1.44H4.36v1.44Zm1.75 0h1.45v-1.44H6.11v1.44Zm1.74 0h1.46v-1.44H7.85v1.44Zm1.75 0h1.45v-1.44H9.6v1.44Zm1.75 0h1.45v-1.44h-1.45v1.44Zm1.74 0h1.46v-1.44h-1.46v1.44Zm1.75 0h1.45v-1.44h-1.45v1.44Zm1.74 0h1.46v-1.44h-1.46v1.44Zm1.75 0h1.45v-1.44h-1.45v1.44Zm1.74 0h1.46v-1.44h-1.46v1.44Zm1.75 0h1.45v-1.44h-1.45v1.44Zm-19.2 1.81h1.45v-1.45H2.62v1.45Zm1.74 0h1.46v-1.45H4.36v1.45Zm1.75 0h1.45v-1.45H6.11v1.45Zm1.74 0h1.46v-1.45H7.85v1.45Zm1.75 0h1.45v-1.45H9.6v1.45Zm1.75 0h1.45v-1.45h-1.45v1.45Zm1.74 0h1.46v-1.45h-1.46v1.45Zm1.75 0h1.45v-1.45h-1.45v1.45Zm1.74 0h1.46v-1.45h-1.46v1.45Zm1.75 0h1.45v-1.45h-1.45v1.45Zm1.74 0h1.46v-1.45h-1.46v1.45Zm-13.96 1.8h11.93v-1.44H6.11v1.44Zm26.47 0h3.49v-1.44h-3.49v1.44Zm3.78 0h1.46v-1.44h-1.46v1.44Zm0-1.8h1.46v-1.45h-1.46v1.45Zm-1.89 0h1.46v-1.45h-1.46v1.45Zm-1.89 0h1.46v-1.45h-1.46v1.45Zm0-1.81h1.46v-1.44h-1.46v1.44Zm0-1.81h1.46v-1.44h-1.46v1.44Zm1.89 0h1.46v-1.44h-1.46v1.44Zm1.89 0h1.46v-1.44h-1.46v1.44Zm0 1.81h1.46v-1.44h-1.46v1.44Zm-1.89 0h1.46v-1.44h-1.46v1.44Z" class="st9"/></g><g id="shape1019-447" transform="rotate(-90 28.32 1163.4)"><path d="M0 1182.76h1.45v-1.45H0v1.45Zm0 4.69h2.33v-1.44H0v1.44Zm0 1.81h2.33v-1.44H0v1.44Zm0 1.81h2.33v-1.45H0v1.45Zm0 1.8h2.33v-1.44H0v1.44Zm2.62 0h1.45v-1.44H2.62v1.44Zm1.74 0h1.46v-1.44H4.36v1.44Zm13.97 0h1.45v-1.44h-1.45v1.44Zm1.74 0h1.46v-1.44h-1.46v1.44Zm1.75 0h1.45v-1.44h-1.45v1.44Zm1.74 0h2.33v-1.44h-2.33v1.44Zm3.2 0h1.46v-1.44h-1.46v1.44Zm1.75 0h1.45v-1.44h-1.45v1.44Zm1.74 0h1.46v-1.44h-1.46v1.44Zm8 0h1.46v-3.18h-1.46v3.18Zm0-3.47h1.46v-3.39h-1.46v3.39Zm0-3.75h1.46v-1.45h-1.46v1.45Zm-1.89 0h1.46v-1.45h-1.46v1.45Zm-1.89 0h1.46v-1.45h-1.46v1.45Zm-1.89 0h1.46v-1.45h-1.46v1.45Zm-2.33 0h1.46v-1.45h-1.46v1.45Zm0 1.8h1.46v-1.44h-1.46v1.44Zm-1.74 3.62h1.45v-1.45h-1.45v1.45Zm-6.69-.03h4.07v-1.44h-4.07v1.44Zm1.74-1.83h2.33v-3.18h-2.33v3.18Zm3.2-1.76h1.46v-1.44h-1.46v1.44Zm1.75 0h1.45v-1.44h-1.45v1.44Zm0-1.8h1.45v-1.45h-1.45v1.45Zm-4.95 0h2.33v-1.45h-2.33v1.45Zm13.97-3.76h1.16v-.29h-1.16v.29Zm-1.75 0h1.17v-.29h-1.17v.29Zm-5.53.87h1.46v-1.45h-1.46v1.45Zm-1.74 0h1.45v-1.45h-1.45v1.45Zm-1.75 0h1.46v-1.45h-1.46v1.45Zm-10.76 0h1.45v-1.45H16v1.45Zm-1.75 0h1.46v-1.45h-1.46v1.45Zm-1.74 0h1.45v-1.45h-1.45v1.45Zm-1.75 0h1.46v-1.45h-1.46v1.45Zm16 2.89h1.46v-1.45h-1.46v1.45Z" class="st10"/></g></g><g id="group1020-449" transform="scale(-1 1) rotate(.465 99025.845 -113846.938)"><path class="st6" d="M0 1187.2h137.482v5.669H0z" id="shape1020-452"/></g><g id="group1026-454" transform="rotate(44.7 1027.211 1878.334)"><g id="shape1027-455"><path d="M10.91 1149.42a157.589 157.613-180 0 0-.03 22.18 28.16 28.16-180 0 0 13.34 13.2h17.51a4.03 4.03 0 0 1 3.8 2.65h2.93a16.145 16.145-180 0 0 16.14-16.16v-21.53a16.137 16.137-180 0 0-16.14-16.13h-2.94a4.04 4.04 0 0 1-3.81 2.73H24.08a28.16 28.16-180 0 0-13.17 13.06Zm-.13 11.16a57.393 57.402 0 0 1 1.4-18.84 3.01 3.01-180 0 0-4.04-4.03 30.789 30.793-180 0 0-8.06 22.88 30.203 30.207-180 0 0 8.06 22.87 3.033 3.033-180 0 0 4.04-4.04 55.756 55.764 0 0 1-1.4-18.84Zm34.99 28.24a4.039 4.039-180 0 0-4.04-4.04H17.52a4.034 4.034-180 0 0-4.04 4.04 4.04 4.04-180 0 0 4.04 4.05h24.21a4.045 4.045-180 0 0 4.04-4.05Zm-.03-56.51a4.023 4.023-180 0 0-4.01-4.04H17.52a4.055 4.055-180 0 0-4.06 4.05 4.049 4.049-180 0 0 4.06 4.04h24.21a4.024 4.024-180 0 0 4.01-4.04v-.01Z" class="st4"/><path d="M10.91 1149.42a157.589 157.613-180 0 0-.03 22.18 28.16 28.16-180 0 0 13.34 13.2h17.51a4.03 4.03 0 0 1 3.8 2.65h2.93a16.145 16.145-180 0 0 16.14-16.16v-21.53a16.137 16.137-180 0 0-16.14-16.13h-2.94a4.04 4.04 0 0 1-3.81 2.73H24.08a28.16 28.16-180 0 0-13.17 13.06m-.13 11.16a57.393 57.402 0 0 1 1.4-18.84 3.01 3.01-180 0 0-4.04-4.03 30.789 30.793-180 0 0-8.06 22.88 30.203 30.207-180 0 0 8.06 22.87 3.033 3.033-180 0 0 4.04-4.04 55.756 55.764 0 0 1-1.4-18.84m34.99 28.24a4.039 4.039-180 0 0-4.04-4.04H17.52a4.034 4.034-180 0 0-4.04 4.04 4.04 4.04-180 0 0 4.04 4.05h24.21a4.045 4.045-180 0 0 4.04-4.05m-.03-56.51a4.023 4.023-180 0 0-4.01-4.04H17.52a4.055 4.055-180 0 0-4.06 4.05 4.049 4.049-180 0 0 4.06 4.04h24.21a4.024 4.024-180 0 0 4.01-4.04" class="st5"/></g></g><g id="group1028-458" transform="rotate(-90.3 256.919 519.604)"><path d="M0 1055.39v137.48h134.94v-65.19H65.2v-72.29H0Z" class="st6" id="shape1028-459"/></g><g id="group1029-461" transform="rotate(-.3 -105570.893 -164405.097)"><g id="shape1029-462"><path class="st6" d="M0 1135.05h65.197v57.818H0z"/><text x="19.25" y="1171.16" class="st7">11</text></g></g><g id="group1030-465" transform="rotate(-135.3 370.995 774.547)"><g id="shape1031-466" transform="rotate(180 20.805 1172.51)"><path class="st6" d="M0 1153.31h38.143v39.563H0z"/></g><g id="shape1032-468" transform="rotate(180 30.052 1171.925)"><path class="st6" d="M0 1150.98h15.026v41.891H0z"/></g><g id="shape1033-470" transform="rotate(180 19.65 1173.67)"><path d="m8.97 1192.87 10.85-3.85v-27.25l-10.85-3.81a235.919 233.239-180 0 0 0 34.91Zm10.85-3.85h18.44a91.622 90.962-180 0 0 0-27.26H19.82v27.26Zm-18.78 3.85h7.93a235.919 233.239 0 0 1 0-34.91H1.04a150.587 148.876-180 0 0 0 34.91Z" class="st6"/></g><g id="shape1034-472" transform="rotate(-90 5.81 1151.87)"><path class="st8" d="M0 1192.58h1.164v.289H0z"/></g><g id="shape1035-474" transform="rotate(-90 28.32 1163.4)"><path d="M2.62 1182.76h1.45v-1.45H2.62v1.45Zm1.74 0h1.46v-1.45H4.36v1.45Zm1.75 0h1.45v-1.45H6.11v1.45Zm1.74 0h1.46v-1.45H7.85v1.45Zm11.2 0h1.46v-1.45h-1.46v1.45Zm1.75 0h1.45v-1.45H20.8v1.45Zm1.75 0H24v-1.45h-1.45v1.45Zm1.74 0h1.46v-1.45h-1.46v1.45ZM0 1185.65h2.33v-1.45H0v1.45Zm2.62 0h1.45v-1.45H2.62v1.45Zm1.74 0h1.46v-1.45H4.36v1.45Zm1.75 0h1.45v-1.45H6.11v1.45Zm1.74 0h1.46v-1.45H7.85v1.45Zm1.75 0h1.45v-1.45H9.6v1.45Zm1.75 0h1.45v-1.45h-1.45v1.45Zm1.74 0h1.46v-1.45h-1.46v1.45Zm1.75 0h1.45v-1.45h-1.45v1.45Zm1.74 0h1.46v-1.45h-1.46v1.45Zm1.75 0h1.45v-1.45h-1.45v1.45Zm1.74 0h1.46v-1.45h-1.46v1.45Zm1.75 0h1.45v-1.45h-1.45v1.45Zm-19.2 1.8h1.45v-1.44H2.62v1.44Zm1.74 0h1.46v-1.44H4.36v1.44Zm1.75 0h1.45v-1.44H6.11v1.44Zm1.74 0h1.46v-1.44H7.85v1.44Zm1.75 0h1.45v-1.44H9.6v1.44Zm1.75 0h1.45v-1.44h-1.45v1.44Zm1.74 0h1.46v-1.44h-1.46v1.44Zm1.75 0h1.45v-1.44h-1.45v1.44Zm1.74 0h1.46v-1.44h-1.46v1.44Zm1.75 0h1.45v-1.44h-1.45v1.44Zm1.74 0h1.46v-1.44h-1.46v1.44Zm1.75 0h1.45v-1.44h-1.45v1.44Zm-19.2 1.81h1.45v-1.44H2.62v1.44Zm1.74 0h1.46v-1.44H4.36v1.44Zm1.75 0h1.45v-1.44H6.11v1.44Zm1.74 0h1.46v-1.44H7.85v1.44Zm1.75 0h1.45v-1.44H9.6v1.44Zm1.75 0h1.45v-1.44h-1.45v1.44Zm1.74 0h1.46v-1.44h-1.46v1.44Zm1.75 0h1.45v-1.44h-1.45v1.44Zm1.74 0h1.46v-1.44h-1.46v1.44Zm1.75 0h1.45v-1.44h-1.45v1.44Zm1.74 0h1.46v-1.44h-1.46v1.44Zm1.75 0h1.45v-1.44h-1.45v1.44Zm-19.2 1.81h1.45v-1.45H2.62v1.45Zm1.74 0h1.46v-1.45H4.36v1.45Zm1.75 0h1.45v-1.45H6.11v1.45Zm1.74 0h1.46v-1.45H7.85v1.45Zm1.75 0h1.45v-1.45H9.6v1.45Zm1.75 0h1.45v-1.45h-1.45v1.45Zm1.74 0h1.46v-1.45h-1.46v1.45Zm1.75 0h1.45v-1.45h-1.45v1.45Zm1.74 0h1.46v-1.45h-1.46v1.45Zm1.75 0h1.45v-1.45h-1.45v1.45Zm1.74 0h1.46v-1.45h-1.46v1.45Zm-13.96 1.8h11.93v-1.44H6.11v1.44Zm26.47 0h3.49v-1.44h-3.49v1.44Zm3.78 0h1.46v-1.44h-1.46v1.44Zm0-1.8h1.46v-1.45h-1.46v1.45Zm-1.89 0h1.46v-1.45h-1.46v1.45Zm-1.89 0h1.46v-1.45h-1.46v1.45Zm0-1.81h1.46v-1.44h-1.46v1.44Zm0-1.81h1.46v-1.44h-1.46v1.44Zm1.89 0h1.46v-1.44h-1.46v1.44Zm1.89 0h1.46v-1.44h-1.46v1.44Zm0 1.81h1.46v-1.44h-1.46v1.44Zm-1.89 0h1.46v-1.44h-1.46v1.44Z" class="st9"/></g><g id="shape1036-476" transform="rotate(-90 28.32 1163.4)"><path d="M0 1182.76h1.45v-1.45H0v1.45Zm0 4.69h2.33v-1.44H0v1.44Zm0 1.81h2.33v-1.44H0v1.44Zm0 1.81h2.33v-1.45H0v1.45Zm0 1.8h2.33v-1.44H0v1.44Zm2.62 0h1.45v-1.44H2.62v1.44Zm1.74 0h1.46v-1.44H4.36v1.44Zm13.97 0h1.45v-1.44h-1.45v1.44Zm1.74 0h1.46v-1.44h-1.46v1.44Zm1.75 0h1.45v-1.44h-1.45v1.44Zm1.74 0h2.33v-1.44h-2.33v1.44Zm3.2 0h1.46v-1.44h-1.46v1.44Zm1.75 0h1.45v-1.44h-1.45v1.44Zm1.74 0h1.46v-1.44h-1.46v1.44Zm8 0h1.46v-3.18h-1.46v3.18Zm0-3.47h1.46v-3.39h-1.46v3.39Zm0-3.75h1.46v-1.45h-1.46v1.45Zm-1.89 0h1.46v-1.45h-1.46v1.45Zm-1.89 0h1.46v-1.45h-1.46v1.45Zm-1.89 0h1.46v-1.45h-1.46v1.45Zm-2.33 0h1.46v-1.45h-1.46v1.45Zm0 1.8h1.46v-1.44h-1.46v1.44Zm-1.74 3.62h1.45v-1.45h-1.45v1.45Zm-6.69-.03h4.07v-1.44h-4.07v1.44Zm1.74-1.83h2.33v-3.18h-2.33v3.18Zm3.2-1.76h1.46v-1.44h-1.46v1.44Zm1.75 0h1.45v-1.44h-1.45v1.44Zm0-1.8h1.45v-1.45h-1.45v1.45Zm-4.95 0h2.33v-1.45h-2.33v1.45Zm13.97-3.76h1.16v-.29h-1.16v.29Zm-1.75 0h1.17v-.29h-1.17v.29Zm-5.53.87h1.46v-1.45h-1.46v1.45Zm-1.74 0h1.45v-1.45h-1.45v1.45Zm-1.75 0h1.46v-1.45h-1.46v1.45Zm-10.76 0h1.45v-1.45H16v1.45Zm-1.75 0h1.46v-1.45h-1.46v1.45Zm-1.74 0h1.45v-1.45h-1.45v1.45Zm-1.75 0h1.46v-1.45h-1.46v1.45Zm16 2.89h1.46v-1.45h-1.46v1.45Z" class="st10"/></g></g><g id="group1037-478" transform="rotate(179.865 466.722 984.186)"><path class="st6" d="M0 1187.2h137.482v5.669H0z" id="shape1037-481"/></g><g id="group1045-483" transform="scale(1 -1) rotate(-89.7 -526.375 -262.362)"><path d="M0 1055.39v137.48h134.94v-65.19H65.2v-72.29H0Z" class="st6" id="shape1045-484"/></g><g id="group1046-486" transform="scale(-1 1) rotate(.3 41253.78 -177030.92)"><g id="shape1046-487"><path class="st6" d="M0 1135.05h65.197v57.818H0z"/><text x="-45.95" y="1171.16" transform="scale(-1 1)" class="st7">12</text></g></g><g id="group1047-490" transform="scale(-1 1) rotate(45.3 -13.082 -109.187)"><g id="shape1048-491" transform="rotate(180 20.805 1172.51)"><path class="st6" d="M0 1153.31h38.143v39.563H0z"/></g><g id="shape1049-493" transform="rotate(180 30.052 1171.925)"><path class="st6" d="M0 1150.98h15.026v41.891H0z"/></g><g id="shape1050-495" transform="rotate(180 19.65 1173.67)"><path d="m8.97 1192.87 10.85-3.85v-27.25l-10.85-3.81a235.919 233.239-180 0 0 0 34.91Zm10.85-3.85h18.44a91.622 90.962-180 0 0 0-27.26H19.82v27.26Zm-18.78 3.85h7.93a235.919 233.239 0 0 1 0-34.91H1.04a150.587 148.876-180 0 0 0 34.91Z" class="st6"/></g><g id="shape1051-497" transform="rotate(-90 5.81 1151.87)"><path class="st8" d="M0 1192.58h1.164v.289H0z"/></g><g id="shape1052-499" transform="rotate(-90 28.32 1163.4)"><path d="M2.62 1182.76h1.45v-1.45H2.62v1.45Zm1.74 0h1.46v-1.45H4.36v1.45Zm1.75 0h1.45v-1.45H6.11v1.45Zm1.74 0h1.46v-1.45H7.85v1.45Zm11.2 0h1.46v-1.45h-1.46v1.45Zm1.75 0h1.45v-1.45H20.8v1.45Zm1.75 0H24v-1.45h-1.45v1.45Zm1.74 0h1.46v-1.45h-1.46v1.45ZM0 1185.65h2.33v-1.45H0v1.45Zm2.62 0h1.45v-1.45H2.62v1.45Zm1.74 0h1.46v-1.45H4.36v1.45Zm1.75 0h1.45v-1.45H6.11v1.45Zm1.74 0h1.46v-1.45H7.85v1.45Zm1.75 0h1.45v-1.45H9.6v1.45Zm1.75 0h1.45v-1.45h-1.45v1.45Zm1.74 0h1.46v-1.45h-1.46v1.45Zm1.75 0h1.45v-1.45h-1.45v1.45Zm1.74 0h1.46v-1.45h-1.46v1.45Zm1.75 0h1.45v-1.45h-1.45v1.45Zm1.74 0h1.46v-1.45h-1.46v1.45Zm1.75 0h1.45v-1.45h-1.45v1.45Zm-19.2 1.8h1.45v-1.44H2.62v1.44Zm1.74 0h1.46v-1.44H4.36v1.44Zm1.75 0h1.45v-1.44H6.11v1.44Zm1.74 0h1.46v-1.44H7.85v1.44Zm1.75 0h1.45v-1.44H9.6v1.44Zm1.75 0h1.45v-1.44h-1.45v1.44Zm1.74 0h1.46v-1.44h-1.46v1.44Zm1.75 0h1.45v-1.44h-1.45v1.44Zm1.74 0h1.46v-1.44h-1.46v1.44Zm1.75 0h1.45v-1.44h-1.45v1.44Zm1.74 0h1.46v-1.44h-1.46v1.44Zm1.75 0h1.45v-1.44h-1.45v1.44Zm-19.2 1.81h1.45v-1.44H2.62v1.44Zm1.74 0h1.46v-1.44H4.36v1.44Zm1.75 0h1.45v-1.44H6.11v1.44Zm1.74 0h1.46v-1.44H7.85v1.44Zm1.75 0h1.45v-1.44H9.6v1.44Zm1.75 0h1.45v-1.44h-1.45v1.44Zm1.74 0h1.46v-1.44h-1.46v1.44Zm1.75 0h1.45v-1.44h-1.45v1.44Zm1.74 0h1.46v-1.44h-1.46v1.44Zm1.75 0h1.45v-1.44h-1.45v1.44Zm1.74 0h1.46v-1.44h-1.46v1.44Zm1.75 0h1.45v-1.44h-1.45v1.44Zm-19.2 1.81h1.45v-1.45H2.62v1.45Zm1.74 0h1.46v-1.45H4.36v1.45Zm1.75 0h1.45v-1.45H6.11v1.45Zm1.74 0h1.46v-1.45H7.85v1.45Zm1.75 0h1.45v-1.45H9.6v1.45Zm1.75 0h1.45v-1.45h-1.45v1.45Zm1.74 0h1.46v-1.45h-1.46v1.45Zm1.75 0h1.45v-1.45h-1.45v1.45Zm1.74 0h1.46v-1.45h-1.46v1.45Zm1.75 0h1.45v-1.45h-1.45v1.45Zm1.74 0h1.46v-1.45h-1.46v1.45Zm-13.96 1.8h11.93v-1.44H6.11v1.44Zm26.47 0h3.49v-1.44h-3.49v1.44Zm3.78 0h1.46v-1.44h-1.46v1.44Zm0-1.8h1.46v-1.45h-1.46v1.45Zm-1.89 0h1.46v-1.45h-1.46v1.45Zm-1.89 0h1.46v-1.45h-1.46v1.45Zm0-1.81h1.46v-1.44h-1.46v1.44Zm0-1.81h1.46v-1.44h-1.46v1.44Zm1.89 0h1.46v-1.44h-1.46v1.44Zm1.89 0h1.46v-1.44h-1.46v1.44Zm0 1.81h1.46v-1.44h-1.46v1.44Zm-1.89 0h1.46v-1.44h-1.46v1.44Z" class="st9"/></g><g id="shape1053-501" transform="rotate(-90 28.32 1163.4)"><path d="M0 1182.76h1.45v-1.45H0v1.45Zm0 4.69h2.33v-1.44H0v1.44Zm0 1.81h2.33v-1.44H0v1.44Zm0 1.81h2.33v-1.45H0v1.45Zm0 1.8h2.33v-1.44H0v1.44Zm2.62 0h1.45v-1.44H2.62v1.44Zm1.74 0h1.46v-1.44H4.36v1.44Zm13.97 0h1.45v-1.44h-1.45v1.44Zm1.74 0h1.46v-1.44h-1.46v1.44Zm1.75 0h1.45v-1.44h-1.45v1.44Zm1.74 0h2.33v-1.44h-2.33v1.44Zm3.2 0h1.46v-1.44h-1.46v1.44Zm1.75 0h1.45v-1.44h-1.45v1.44Zm1.74 0h1.46v-1.44h-1.46v1.44Zm8 0h1.46v-3.18h-1.46v3.18Zm0-3.47h1.46v-3.39h-1.46v3.39Zm0-3.75h1.46v-1.45h-1.46v1.45Zm-1.89 0h1.46v-1.45h-1.46v1.45Zm-1.89 0h1.46v-1.45h-1.46v1.45Zm-1.89 0h1.46v-1.45h-1.46v1.45Zm-2.33 0h1.46v-1.45h-1.46v1.45Zm0 1.8h1.46v-1.44h-1.46v1.44Zm-1.74 3.62h1.45v-1.45h-1.45v1.45Zm-6.69-.03h4.07v-1.44h-4.07v1.44Zm1.74-1.83h2.33v-3.18h-2.33v3.18Zm3.2-1.76h1.46v-1.44h-1.46v1.44Zm1.75 0h1.45v-1.44h-1.45v1.44Zm0-1.8h1.45v-1.45h-1.45v1.45Zm-4.95 0h2.33v-1.45h-2.33v1.45Zm13.97-3.76h1.16v-.29h-1.16v.29Zm-1.75 0h1.17v-.29h-1.17v.29Zm-5.53.87h1.46v-1.45h-1.46v1.45Zm-1.74 0h1.45v-1.45h-1.45v1.45Zm-1.75 0h1.46v-1.45h-1.46v1.45Zm-10.76 0h1.45v-1.45H16v1.45Zm-1.75 0h1.46v-1.45h-1.46v1.45Zm-1.74 0h1.45v-1.45h-1.45v1.45Zm-1.75 0h1.46v-1.45h-1.46v1.45Zm16 2.89h1.46v-1.45h-1.46v1.45Z" class="st10"/></g></g><g id="group1054-503" transform="scale(-1 1) rotate(.465 50414.482 -113907.795)"><path class="st6" d="M0 1187.2h137.482v5.669H0z" id="shape1054-506"/></g><g id="group1113-508" transform="rotate(-90.5 293.384 779.119)"><g id="shape1115-511" transform="translate(57.818 -39.685)"><path d="M0 1192.87h2.83v-2.83H0v2.83Zm0-8.5h2.83v-2.84H0v2.84Z" class="st11"/></g><g id="shape1116-513"><path d="M0 1192.87v-90.71h54.98v90.71H0Zm54.98 0h2.84v-90.71h-2.84v90.71Z" class="st12"/><path d="M0 1192.87v-90.71h54.98v90.71H0M54.98 1147.52h2.84" class="st13"/><path d="M54.98 1192.87h2.84v-90.71h-2.84v90.71" class="st13"/></g></g><g id="group1157-518" transform="rotate(-135.4 292.017 895.073)"><g id="shape1158-519"><path d="M10.91 1149.42a157.589 157.613-180 0 0-.03 22.18 28.16 28.16-180 0 0 13.34 13.2h17.51a4.03 4.03 0 0 1 3.8 2.65h2.93a16.145 16.145-180 0 0 16.14-16.16v-21.53a16.137 16.137-180 0 0-16.14-16.13h-2.94a4.04 4.04 0 0 1-3.81 2.73H24.08a28.16 28.16-180 0 0-13.17 13.06Zm-.13 11.16a57.393 57.402 0 0 1 1.4-18.84 3.01 3.01-180 0 0-4.04-4.03 30.789 30.793-180 0 0-8.06 22.88 30.203 30.207-180 0 0 8.06 22.87 3.033 3.033-180 0 0 4.04-4.04 55.756 55.764 0 0 1-1.4-18.84Zm34.99 28.24a4.039 4.039-180 0 0-4.04-4.04H17.52a4.034 4.034-180 0 0-4.04 4.04 4.04 4.04-180 0 0 4.04 4.05h24.21a4.045 4.045-180 0 0 4.04-4.05Zm-.03-56.51a4.023 4.023-180 0 0-4.01-4.04H17.52a4.055 4.055-180 0 0-4.06 4.05 4.049 4.049-180 0 0 4.06 4.04h24.21a4.024 4.024-180 0 0 4.01-4.04v-.01Z" class="st4"/><path d="M10.91 1149.42a157.589 157.613-180 0 0-.03 22.18 28.16 28.16-180 0 0 13.34 13.2h17.51a4.03 4.03 0 0 1 3.8 2.65h2.93a16.145 16.145-180 0 0 16.14-16.16v-21.53a16.137 16.137-180 0 0-16.14-16.13h-2.94a4.04 4.04 0 0 1-3.81 2.73H24.08a28.16 28.16-180 0 0-13.17 13.06m-.13 11.16a57.393 57.402 0 0 1 1.4-18.84 3.01 3.01-180 0 0-4.04-4.03 30.789 30.793-180 0 0-8.06 22.88 30.203 30.207-180 0 0 8.06 22.87 3.033 3.033-180 0 0 4.04-4.04 55.756 55.764 0 0 1-1.4-18.84m34.99 28.24a4.039 4.039-180 0 0-4.04-4.04H17.52a4.034 4.034-180 0 0-4.04 4.04 4.04 4.04-180 0 0 4.04 4.05h24.21a4.045 4.045-180 0 0 4.04-4.05m-.03-56.51a4.023 4.023-180 0 0-4.01-4.04H17.52a4.055 4.055-180 0 0-4.06 4.05 4.049 4.049-180 0 0 4.06 4.04h24.21a4.024 4.024-180 0 0 4.01-4.04" class="st5"/></g></g><g id="group1159-522" transform="scale(1 -1) rotate(45.3 2697.394 636.254)"><g id="shape1160-523"><path d="M10.91 1149.42a157.589 157.613-180 0 0-.03 22.18 28.16 28.16-180 0 0 13.34 13.2h17.51a4.03 4.03 0 0 1 3.8 2.65h2.93a16.145 16.145-180 0 0 16.14-16.16v-21.53a16.137 16.137-180 0 0-16.14-16.13h-2.94a4.04 4.04 0 0 1-3.81 2.73H24.08a28.16 28.16-180 0 0-13.17 13.06Zm-.13 11.16a57.393 57.402 0 0 1 1.4-18.84 3.01 3.01-180 0 0-4.04-4.03 30.789 30.793-180 0 0-8.06 22.88 30.203 30.207-180 0 0 8.06 22.87 3.033 3.033-180 0 0 4.04-4.04 55.756 55.764 0 0 1-1.4-18.84Zm34.99 28.24a4.039 4.039-180 0 0-4.04-4.04H17.52a4.034 4.034-180 0 0-4.04 4.04 4.04 4.04-180 0 0 4.04 4.05h24.21a4.045 4.045-180 0 0 4.04-4.05Zm-.03-56.51a4.023 4.023-180 0 0-4.01-4.04H17.52a4.055 4.055-180 0 0-4.06 4.05 4.049 4.049-180 0 0 4.06 4.04h24.21a4.024 4.024-180 0 0 4.01-4.04v-.01Z" class="st4"/><path d="M10.91 1149.42a157.589 157.613-180 0 0-.03 22.18 28.16 28.16-180 0 0 13.34 13.2h17.51a4.03 4.03 0 0 1 3.8 2.65h2.93a16.145 16.145-180 0 0 16.14-16.16v-21.53a16.137 16.137-180 0 0-16.14-16.13h-2.94a4.04 4.04 0 0 1-3.81 2.73H24.08a28.16 28.16-180 0 0-13.17 13.06m-.13 11.16a57.393 57.402 0 0 1 1.4-18.84 3.01 3.01-180 0 0-4.04-4.03 30.789 30.793-180 0 0-8.06 22.88 30.203 30.207-180 0 0 8.06 22.87 3.033 3.033-180 0 0 4.04-4.04 55.756 55.764 0 0 1-1.4-18.84m34.99 28.24a4.039 4.039-180 0 0-4.04-4.04H17.52a4.034 4.034-180 0 0-4.04 4.04 4.04 4.04-180 0 0 4.04 4.05h24.21a4.045 4.045-180 0 0 4.04-4.05m-.03-56.51a4.023 4.023-180 0 0-4.01-4.04H17.52a4.055 4.055-180 0 0-4.06 4.05 4.049 4.049-180 0 0 4.06 4.04h24.21a4.024 4.024-180 0 0 4.01-4.04" class="st5"/></g></g><g id="group1163-526" transform="scale(1 -1) rotate(45.3 2885.794 1087.745)"><g id="shape1164-527"><path d="M10.91 1149.42a157.589 157.613-180 0 0-.03 22.18 28.16 28.16-180 0 0 13.34 13.2h17.51a4.03 4.03 0 0 1 3.8 2.65h2.93a16.145 16.145-180 0 0 16.14-16.16v-21.53a16.137 16.137-180 0 0-16.14-16.13h-2.94a4.04 4.04 0 0 1-3.81 2.73H24.08a28.16 28.16-180 0 0-13.17 13.06Zm-.13 11.16a57.393 57.402 0 0 1 1.4-18.84 3.01 3.01-180 0 0-4.04-4.03 30.789 30.793-180 0 0-8.06 22.88 30.203 30.207-180 0 0 8.06 22.87 3.033 3.033-180 0 0 4.04-4.04 55.756 55.764 0 0 1-1.4-18.84Zm34.99 28.24a4.039 4.039-180 0 0-4.04-4.04H17.52a4.034 4.034-180 0 0-4.04 4.04 4.04 4.04-180 0 0 4.04 4.05h24.21a4.045 4.045-180 0 0 4.04-4.05Zm-.03-56.51a4.023 4.023-180 0 0-4.01-4.04H17.52a4.055 4.055-180 0 0-4.06 4.05 4.049 4.049-180 0 0 4.06 4.04h24.21a4.024 4.024-180 0 0 4.01-4.04v-.01Z" class="st4"/><path d="M10.91 1149.42a157.589 157.613-180 0 0-.03 22.18 28.16 28.16-180 0 0 13.34 13.2h17.51a4.03 4.03 0 0 1 3.8 2.65h2.93a16.145 16.145-180 0 0 16.14-16.16v-21.53a16.137 16.137-180 0 0-16.14-16.13h-2.94a4.04 4.04 0 0 1-3.81 2.73H24.08a28.16 28.16-180 0 0-13.17 13.06m-.13 11.16a57.393 57.402 0 0 1 1.4-18.84 3.01 3.01-180 0 0-4.04-4.03 30.789 30.793-180 0 0-8.06 22.88 30.203 30.207-180 0 0 8.06 22.87 3.033 3.033-180 0 0 4.04-4.04 55.756 55.764 0 0 1-1.4-18.84m34.99 28.24a4.039 4.039-180 0 0-4.04-4.04H17.52a4.034 4.034-180 0 0-4.04 4.04 4.04 4.04-180 0 0 4.04 4.05h24.21a4.045 4.045-180 0 0 4.04-4.05m-.03-56.51a4.023 4.023-180 0 0-4.01-4.04H17.52a4.055 4.055-180 0 0-4.06 4.05 4.049 4.049-180 0 0 4.06 4.04h24.21a4.024 4.024-180 0 0 4.01-4.04" class="st5"/></g></g><g id="group1165-530" transform="rotate(-135.4 106.443 971.644)"><g id="shape1166-531"><path d="M10.91 1149.42a157.589 157.613-180 0 0-.03 22.18 28.16 28.16-180 0 0 13.34 13.2h17.51a4.03 4.03 0 0 1 3.8 2.65h2.93a16.145 16.145-180 0 0 16.14-16.16v-21.53a16.137 16.137-180 0 0-16.14-16.13h-2.94a4.04 4.04 0 0 1-3.81 2.73H24.08a28.16 28.16-180 0 0-13.17 13.06Zm-.13 11.16a57.393 57.402 0 0 1 1.4-18.84 3.01 3.01-180 0 0-4.04-4.03 30.789 30.793-180 0 0-8.06 22.88 30.203 30.207-180 0 0 8.06 22.87 3.033 3.033-180 0 0 4.04-4.04 55.756 55.764 0 0 1-1.4-18.84Zm34.99 28.24a4.039 4.039-180 0 0-4.04-4.04H17.52a4.034 4.034-180 0 0-4.04 4.04 4.04 4.04-180 0 0 4.04 4.05h24.21a4.045 4.045-180 0 0 4.04-4.05Zm-.03-56.51a4.023 4.023-180 0 0-4.01-4.04H17.52a4.055 4.055-180 0 0-4.06 4.05 4.049 4.049-180 0 0 4.06 4.04h24.21a4.024 4.024-180 0 0 4.01-4.04v-.01Z" class="st4"/><path d="M10.91 1149.42a157.589 157.613-180 0 0-.03 22.18 28.16 28.16-180 0 0 13.34 13.2h17.51a4.03 4.03 0 0 1 3.8 2.65h2.93a16.145 16.145-180 0 0 16.14-16.16v-21.53a16.137 16.137-180 0 0-16.14-16.13h-2.94a4.04 4.04 0 0 1-3.81 2.73H24.08a28.16 28.16-180 0 0-13.17 13.06m-.13 11.16a57.393 57.402 0 0 1 1.4-18.84 3.01 3.01-180 0 0-4.04-4.03 30.789 30.793-180 0 0-8.06 22.88 30.203 30.207-180 0 0 8.06 22.87 3.033 3.033-180 0 0 4.04-4.04 55.756 55.764 0 0 1-1.4-18.84m34.99 28.24a4.039 4.039-180 0 0-4.04-4.04H17.52a4.034 4.034-180 0 0-4.04 4.04 4.04 4.04-180 0 0 4.04 4.05h24.21a4.045 4.045-180 0 0 4.04-4.05m-.03-56.51a4.023 4.023-180 0 0-4.01-4.04H17.52a4.055 4.055-180 0 0-4.06 4.05 4.049 4.049-180 0 0 4.06 4.04h24.21a4.024 4.024-180 0 0 4.01-4.04" class="st5"/></g></g><g id="group1183-534" transform="matrix(.00104 1 1 -.00104 -640.55 386.157)"><path class="st6" d="M0 1187.2h135.377v5.669H0z" id="shape1183-537"/></g><g id="group1117-539" transform="translate(455.084 -816.094)"><g id="shape1118-540"><path d="M0 1193.02h245.46v-4.54H0v4.54Z" class="st14"/></g><g id="shape1122-548"><path d="M0 1192.87v-4.25h1.42v4.25H0Zm245.46 0v-4.25h-1.41v4.25h1.41Z" class="st4"/><path d="M0 1192.87v-4.25h1.42v1.42m0 1.41v1.42H0m245.46 0v-4.25h-1.41v1.42m0 1.41v1.42h1.41" class="st5"/></g><g id="shape1123-551" transform="translate(1.417 -1.417)"><path d="M0 1191.45h1.42v1.42H0v-1.42Zm242.63 0h-1.42v1.42h1.42v-1.42Z" class="st6"/></g><g id="shape1124-553" transform="translate(2.835 -2.126)"><path d="M0 1192.87h239.79" class="st5"/></g><g id="shape1125-556"><path d="M0 1192.87v-4.25M245.46 1192.87v-4.25" class="st5"/></g></g><g id="group766-562" transform="rotate(180 184.313 1132.85)"><g id="shape767-563"><path d="M-1.42 1193.02H99.21v-4.54H-1.42v4.54Z" class="st14"/></g><g id="shape771-571" transform="translate(-1.417)"><path d="M100.63 1192.87v-4.25h-1.42v4.25h1.42Zm-100.63 0v-4.25h1.42v4.25H0Z" class="st4"/><path d="M100.63 1192.87v-4.25h-1.42v1.42m0 1.41v1.42h1.42m-100.63 0v-4.25h1.42v1.42m0 1.41v1.42H0" class="st5"/></g><g id="shape772-574" transform="translate(0 -1.417)"><path d="M97.8 1191.45h-.57v1.42h.57v-1.42Zm-97.8 0h.57v1.42H0v-1.42Z" class="st4"/><path d="M97.8 1191.45h-.57v1.42h.57M0 1191.45h.57v1.42H0" class="st5"/></g><g id="shape773-577" transform="translate(-1.417)"><path d="M100.63 1192.87v-4.25M0 1192.87v-4.25" class="st5"/></g><g id="shape774-581" transform="translate(0 -4.252)"><path d="M0 1192.87a97.795 97.795 0 0 1 25.43-65.78" class="st5"/></g><g id="shape775-584" transform="rotate(42.274 101.461 1190.037)"><path class="st6" d="M0 1191.45h97.795v1.417H0z"/></g><g id="shape777-588" transform="rotate(-42.274 94.13 1191.455)"><path class="st15" d="M0 1191.45h97.795v1.417H0z"/></g></g></svg>