<svg xmlns="http://www.w3.org/2000/svg" id="svg1165" version="1.1" class="st2" color-interpolation-filters="sRGB" viewBox="0 0 989.038 793.361" height="1057.817" width="1318.719" fill="none"><defs id="defs1169"><defs id="defs26"><path id="mfid6" d="M-5.905-5.905H251.57L245.67 0H0z"/></defs><defs id="defs257"><path id="mfid35" d="M6.272 0c7.567 0 6.44-5 6.44-5l-.71-4.976c-.311-2.836-2.798-2.831-2.798-2.831H4.068C.908-12.325.73-9.532.73-9.532.635-8.728.032-4.593.032-4.593-.27-1.88 1.651-.803 1.651-.803 3.067 0 6.27 0 6.27 0zM1.746-19.603s2.226-.24 5.005-.24 4.365.24 4.365.24c2.125.261 1.514 2.344 1.514 2.344-.023.224-.354 1.71-.449 1.983-.245.711-.704 1.193-1.333 1.455-.456.191-.93.322-1.418.323H3.432c-.489-.001-.962-.132-1.418-.323-.629-.262-1.087-.744-1.333-1.455-.095-.273-.426-1.759-.45-1.983 0 0-.61-2.083 1.515-2.344z"/></defs><defs id="defs374"><path id="mfid48" d="M6.272 0c7.567 0 6.44-5 6.44-5l-.71-4.976c-.311-2.836-2.798-2.831-2.798-2.831H4.068C.908-12.325.73-9.532.73-9.532.635-8.728.032-4.593.032-4.593-.27-1.88 1.651-.803 1.651-.803 3.067 0 6.27 0 6.27 0zM1.746-19.603s2.226-.24 5.005-.24 4.365.24 4.365.24c2.125.261 1.514 2.344 1.514 2.344-.023.224-.354 1.71-.449 1.983-.245.711-.704 1.193-1.333 1.455-.456.191-.93.322-1.418.323H3.432c-.489-.001-.962-.132-1.418-.323-.629-.262-1.087-.744-1.333-1.455-.095-.273-.426-1.759-.45-1.983 0 0-.61-2.083 1.515-2.344z"/></defs><defs id="defs491"><path id="mfid61" d="M6.272 0c7.567 0 6.44-5 6.44-5l-.71-4.976c-.311-2.836-2.798-2.831-2.798-2.831H4.068C.908-12.325.73-9.532.73-9.532.635-8.728.032-4.593.032-4.593-.27-1.88 1.651-.803 1.651-.803 3.067 0 6.27 0 6.27 0zM1.746-19.603s2.226-.24 5.005-.24 4.365.24 4.365.24c2.125.261 1.514 2.344 1.514 2.344-.023.224-.354 1.71-.449 1.983-.245.711-.704 1.193-1.333 1.455-.456.191-.93.322-1.418.323H3.432c-.489-.001-.962-.132-1.418-.323-.629-.262-1.087-.744-1.333-1.455-.095-.273-.426-1.759-.45-1.983 0 0-.61-2.083 1.515-2.344z"/></defs><defs id="defs608"><path id="mfid74" d="M6.272 0c7.567 0 6.44-5 6.44-5l-.71-4.976c-.311-2.836-2.798-2.831-2.798-2.831H4.068C.908-12.325.73-9.532.73-9.532.635-8.728.032-4.593.032-4.593-.27-1.88 1.651-.803 1.651-.803 3.067 0 6.27 0 6.27 0zM1.746-19.603s2.226-.24 5.005-.24 4.365.24 4.365.24c2.125.261 1.514 2.344 1.514 2.344-.023.224-.354 1.71-.449 1.983-.245.711-.704 1.193-1.333 1.455-.456.191-.93.322-1.418.323H3.432c-.489-.001-.962-.132-1.418-.323-.629-.262-1.087-.744-1.333-1.455-.095-.273-.426-1.759-.45-1.983 0 0-.61-2.083 1.515-2.344z"/></defs><defs id="defs763"><path id="mfid91" d="M6.272 0c7.567 0 6.44-5 6.44-5l-.71-4.976c-.311-2.836-2.798-2.831-2.798-2.831H4.068C.908-12.325.73-9.532.73-9.532.635-8.728.032-4.593.032-4.593-.27-1.88 1.651-.803 1.651-.803 3.067 0 6.27 0 6.27 0zM1.746-19.603s2.226-.24 5.005-.24 4.365.24 4.365.24c2.125.261 1.514 2.344 1.514 2.344-.023.224-.354 1.71-.449 1.983-.245.711-.704 1.193-1.333 1.455-.456.191-.93.322-1.418.323H3.432c-.489-.001-.962-.132-1.418-.323-.629-.262-1.087-.744-1.333-1.455-.095-.273-.426-1.759-.45-1.983 0 0-.61-2.083 1.515-2.344z"/></defs><defs id="defs1082"><path id="mfid128" d="M6.272 0c7.567 0 6.44-5 6.44-5l-.71-4.976c-.311-2.836-2.798-2.831-2.798-2.831H4.068C.908-12.325.73-9.532.73-9.532.635-8.728.032-4.593.032-4.593-.27-1.88 1.651-.803 1.651-.803 3.067 0 6.27 0 6.27 0zM1.746-19.603s2.226-.24 5.005-.24 4.365.24 4.365.24c2.125.261 1.514 2.344 1.514 2.344-.023.224-.354 1.71-.449 1.983-.245.711-.704 1.193-1.333 1.455-.456.191-.93.322-1.418.323H3.432c-.489-.001-.962-.132-1.418-.323-.629-.262-1.087-.744-1.333-1.455-.095-.273-.426-1.759-.45-1.983 0 0-.61-2.083 1.515-2.344z"/></defs><defs id="defs1057"><path id="mfid127" d="M2.953-1.476a1.476 1.476 0 1 0-2.953 0 1.476 1.476 0 0 0 2.953 0z"/></defs><defs id="defs1041"><path id="mfid125" d="M0-62.3c0-.382.278-.692.622-.692h30.252c.344 0 .622.31.622.692V-.692c0 .382-.279.692-.622.692H.622C.278 0 0-.31 0-.692z"/></defs><defs id="defs1048"><path id="mfid126" d="M4.252-2.126a2.126 2.126 0 1 0-4.252 0 2.126 2.126 0 0 0 4.252 0z"/></defs><defs id="defs1032"><path id="mfid124" d="M0-62.3c0-.382.278-.692.622-.692h30.252c.344 0 .622.31.622.692V-.692c0 .382-.279.692-.622.692H.622C.278 0 0-.31 0-.692z"/></defs><defs id="defs1023"><path id="mfid123" d="M0 0v-5.905M43.307 0v-5.905"/></defs><defs id="defs1009"><path id="mfid121" d="M0-1.968h1.968V0H0zm39.37 0h-1.968V0h1.968z"/></defs><defs id="defs1014"><path id="mfid122" d="M0 0h35.433"/></defs><defs id="defs981"><path id="mfid117" d="M0 .05h43.307v-6.005H0z"/></defs><defs id="defs988"><path id="mfid118" d="M0 0v-5.905h1.968V0zm43.307 0v-5.905h-1.968V0z"/></defs><defs id="defs993"><path id="mfid119" d="M0 0v-5.905h1.968v1.968m0 1.968V0H0m43.307 0v-5.905h-1.968v1.968m0 1.968V0h1.968"/></defs><defs id="defs1000"><path id="mfid120" d="M0-1.968h1.968V0H0zm39.37 0h-1.968V0h1.968z"/></defs><defs id="defs966"><path id="mfid116" d="M0 0v-5.905M43.307 0v-5.905"/></defs><defs id="defs952"><path id="mfid114" d="M0-1.968h1.968V0H0zm39.37 0h-1.968V0h1.968z"/></defs><defs id="defs957"><path id="mfid115" d="M0 0h35.433"/></defs><defs id="defs924"><path id="mfid110" d="M0 .05h43.307v-6.005H0z"/></defs><defs id="defs931"><path id="mfid111" d="M0 0v-5.905h1.968V0zm43.307 0v-5.905h-1.968V0z"/></defs><defs id="defs936"><path id="mfid112" d="M0 0v-5.905h1.968v1.968m0 1.968V0H0m43.307 0v-5.905h-1.968v1.968m0 1.968V0h1.968"/></defs><defs id="defs943"><path id="mfid113" d="M0-1.968h1.968V0H0zm39.37 0h-1.968V0h1.968z"/></defs><defs id="defs913"><path id="mfid109" d="M0 0h35.433v-1.968H0z"/></defs><defs id="defs904"><path id="mfid108" d="M0 0h35.433v-1.968H0z"/></defs><defs id="defs895"><path id="mfid107" d="M0 0a35.431 35.431 0 0 1 8.484-23.005"/></defs><defs id="defs881"><path id="mfid105" d="M35.433-1.968h-.787V0h.787M0-1.968h.787V0H0"/></defs><defs id="defs886"><path id="mfid106" d="M39.37 0v-5.905M0 0v-5.905"/></defs><defs id="defs865"><path id="mfid103" d="M39.37 0v-5.905h-1.968v1.968m0 1.968V0h1.968M0 0v-5.905h1.968v1.968m0 1.968V0H0"/></defs><defs id="defs872"><path id="mfid104" d="M35.433-1.968h-.787V0h.787zM0-1.968h.787V0H0z"/></defs><defs id="defs849"><path id="mfid101" d="M-1.968.05h39.37v-6.005h-39.37z"/></defs><defs id="defs856"><path id="mfid102" d="M39.37 0v-5.905h-1.968V0zM0 0v-5.905h1.968V0z"/></defs><defs id="defs836"><path id="mfid100" d="M0 0h31.496v-1.968H0z"/></defs><defs id="defs823"><path id="mfid99" d="M9.921-2.193h8.78L16.771 0h-13.7l-1.93-2.193zm9.922-.444H0"/></defs><defs id="defs814"><path id="mfid98" d="M9.921-2.193h8.78L16.771 0h-13.7l-1.93-2.193z"/></defs><defs id="defs798"><path id="mfid96" d="M10.247-17.081H5.894a.22.22 0 0 0-.224.218v13.994c0 .12.101.218.224.218h4.352a.22.22 0 0 0 .224-.218v-13.994a.22.22 0 0 0-.223-.218zm-6.734 4.145v-.021h.69c.325 0 .589.311.589.695v4.694c0 .384-.264.696-.59.696h-.689zm0 0v10.098L.577 0 0-.211v-19.421l.577-.211 2.936 2.839z"/></defs><defs id="defs805"><path id="mfid97" d="M2.926-12.826v-.716h.736v.716h-.736v.86-.715h.736v.715h-.736zm0 1.721v-.716h.736v.716h-.736v1.232-.716h.736v.716h-.736zm0 2.092v-.716h.736v.716h-.736v.86-.715h.736v.715h-.736zm0 2.128V-7.6h.736v.715h-.736v.86-.714h.736v.715h-.736zm0 5.164V-5.88h.736v4.158h-.736v.86-.715h.736v.715h-.736zm0 1.72v-.715h.736V0h-.736L2.04-9.013v-.715h.736v.715H2.04zM2.04-6.023V-7.6h.736v1.576H2.04v.86-.715h.736v.715H2.04zm0-5.081v-.716h.735v.716H2.04V-13.542h.737v.716H2.04zm0-.861v-.715h.736v.715H2.04v7.663-.716h.737v.716H2.04zm0 8.523v-.715h.736v.715H2.04v.861-.716h.737v.716H2.04zm0 1.722v-.716h.736v.716H2.04V0v-1.576h.737V0H2.04zm-.886-5.164V-7.6h.736v.715h-.736v.86-.714h.736v.715h-.736zm0 1.722v-.716h.736v.715h-.736v.86-.715h.737v.716h-.737zm0 1.72v-.715h.737v.715h-.737v.861-.716h.737v.716h-.737zm0 1.722v-.716h.737v.716h-.737v.86-.715h.737v.715h-.737zm0 1.72v-.715h.737V0h-.737v-13.542h.736v.716h-.736zm0-11.965v-.715h.736v.715h-.736v.861-.716h.736v.716h-.736zM0-6.885V-7.6h.737v.715H0v.86-.714h.737v.715H0zm0 1.722v-.716h.737v.715H0v.86-.715h.737v.716H0zm0 1.72v-.715h.737v.715H0v.861-.716h.737v.716H0zM0-1.72v-.716h.737v.716H0v.86-.715h.737v.715H0zm0 1.72v-.715h.737V0H0v-8.868h.737v.715H0zm0-12.825v-.716h.737v.716H0v.86-.715h.737v.715H0zm0 1.721v-.716h.737v.716H0v1.232-.716h.737v.716H0zm0 2.092v-.716h.737v.716z"/></defs><defs id="defs784"><path id="mfid94" d="M5.473-14.961s2.23-.205 5.008-.162c2.778.043 4.361.307 4.361.307.998.139 1.383.671 1.513 1.197.087-.356.398-2.038-1.496-2.301 0 0-1.583-.264-4.361-.307-2.779-.043-5.008.162-5.008.162-1.902.204-1.643 1.895-1.566 2.253.145-.521.547-1.041 1.549-1.149zM19.837-1.755 18.405-7.21c-.475-1.685-1.245-1.585-1.551-1.53-.797.142-.682.892-.619 1.889l.67 5.324c.153.887.753 1.587 1.562 1.524.81-.063 1.424-.846 1.37-1.75zM.007-2.062l1.601-5.41c.527-1.67 1.294-1.545 1.598-1.481.792.167.654.913.56 1.908l-.835 5.3C2.751-.862 2.13-.182 1.322-.27.515-.357-.074-1.16.008-2.062zm3.937-1.496-.725-.011.262-1.67.718.033zM9.247-9.21l1.643.026.011-.691-1.643-.026zm6.702 5.838.725.011-.211-1.677-.717.012z"/></defs><defs id="defs789"><path id="mfid95" d="M10.247-17.081H5.894a.22.22 0 0 0-.224.218v13.994c0 .12.101.218.224.218h4.352a.22.22 0 0 0 .224-.218v-13.994a.22.22 0 0 0-.223-.218zm-6.734 4.145v-.021h.69c.325 0 .589.311.589.695v4.694c0 .384-.264.696-.59.696h-.689zm0 0v10.098L.577 0 0-.211v-19.421l.577-.211 2.936 2.839z"/></defs><defs id="defs768"><path id="mfid92" d="M6.272 0c7.567 0 6.44-5 6.44-5l-.71-4.976c-.311-2.836-2.798-2.831-2.798-2.831H4.068C.908-12.325.73-9.532.73-9.532.635-8.728.032-4.593.032-4.593-.27-1.88 1.651-.803 1.651-.803 3.067 0 6.27 0 6.27 0zM1.746-19.603s2.226-.24 5.005-.24 4.365.24 4.365.24c2.125.261 1.514 2.344 1.514 2.344-.023.224-.354 1.71-.449 1.983-.245.711-.704 1.193-1.333 1.455-.456.191-.93.322-1.418.323H3.432c-.489-.001-.962-.132-1.418-.323-.629-.262-1.087-.744-1.333-1.455-.095-.273-.426-1.759-.45-1.983 0 0-.61-2.083 1.515-2.344z"/></defs><defs id="defs775"><path id="mfid93" d="M5.473-14.961s2.23-.205 5.008-.162c2.778.043 4.361.307 4.361.307.998.139 1.383.671 1.513 1.197.087-.356.398-2.038-1.496-2.301 0 0-1.583-.264-4.361-.307-2.779-.043-5.008.162-5.008.162-1.902.204-1.643 1.895-1.566 2.253.145-.521.547-1.041 1.549-1.149zM19.837-1.755 18.405-7.21c-.475-1.685-1.245-1.585-1.551-1.53-.797.142-.682.892-.619 1.889l.67 5.324c.153.887.753 1.587 1.562 1.524.81-.063 1.424-.846 1.37-1.75zM.007-2.062l1.601-5.41c.527-1.67 1.294-1.545 1.598-1.481.792.167.654.913.56 1.908l-.835 5.3C2.751-.862 2.13-.182 1.322-.27.515-.357-.074-1.16.008-2.062zm3.937-1.496-.725-.011.262-1.67.718.033zM9.247-9.21l1.643.026.011-.691-1.643-.026zm6.702 5.838.725.011-.211-1.677-.717.012z"/></defs><defs id="defs31"><path d="M-5.905-5.905H251.57M0 0h245.67" id="mfid7"/></defs><defs id="defs38"><path d="M-5.905-5.905H177.56L171.65 0H0z" id="mfid8"/></defs><defs id="defs47"><path d="M-5.905-5.905H177.56M0 0h171.65" id="mfid9"/></defs><defs id="defs52"><path d="M-5.905-5.905H251.57L245.67 0H0z" id="mfid10"/></defs><defs id="defs61"><path d="M-5.905-5.905H251.57M0 0h245.67" id="mfid11"/></defs><defs id="defs66"><path d="M-5.905-5.905H177.56L171.65 0H0z" id="mfid12"/></defs><defs id="defs75"><path d="M-5.905-5.905H177.56M0 0h171.65" id="mfid13"/></defs><defs id="defs80"><path d="M0 0h.984v-.984H0zm0-2.953h.984v-.984H0z" id="mfid14"/></defs><defs id="defs89"><path d="M0 0h.984v-.984H0zm0-2.953h.984v-.984H0z" id="mfid15"/></defs><defs id="defs96"><path d="M0 0v-31.496h22.638V0zm22.638 0h.984v-31.496h-.984z" id="mfid16"/></defs><defs id="defs105"><path d="M0 0v-31.496h22.638V0zm22.638-15.748h.984M22.638 0h.984v-31.496h-.984z" id="mfid17"/></defs><defs id="defs110"><path d="M0 0h.984v-.984H0zm0-2.953h.984v-.984H0z" id="mfid18"/></defs><defs id="defs119"><path d="M0 0h.984v-.984H0zm0-2.953h.984v-.984H0z" id="mfid19"/></defs><defs id="defs124"><path d="M0 0v-31.496h16.732V0zm16.732 0h.985v-31.496h-.985z" id="mfid20"/></defs><defs id="defs133"><path d="M0 0v-31.496h16.732V0zm16.732-15.748h.985M16.732 0h.985v-31.496h-.985z" id="mfid21"/></defs><defs id="defs138"><path d="M3.003-7.825c-.587.035-1.42.002-1.968.199a1.284 1.284 0 0 0-.767.714c-.414.9-.246 2.505-.165 3.606.114 1.542.06 2.1.29 3.306H.7C.654-.566.554-.952.454-2.063c-.007-.069-.013-.14-.018-.21-.064-.787-.064-1.433-.09-2C.32-4.822.27-5.3.303-5.807c.03-.47.13-.967.4-1.283.407-.473 1.194-.537 2.07-.55zm.008.123c.443-.626 1.382-.904 2.295-1.126l-.111.24a5.302 5.302 0 0 1-.975.361c-.09.026-.188.053-.28.082-.415.13-.685.295-.763.56zm.022-.008c.821-.018 1.694-.147 2.473.007l-.116.166c-.154.014-.242-.074-.625-.024l-.014.001-.021.001c-.744.009-.967-.12-1.696-.15z" id="mfid22"/></defs><defs id="defs147"><path d="M3.003-7.825c-.587.035-1.42.002-1.968.199a1.284 1.284 0 0 0-.767.714c-.414.9-.246 2.505-.165 3.606.114 1.542.06 2.1.29 3.306H.7C.654-.566.554-.952.454-2.063c-.007-.069-.013-.14-.018-.21-.064-.787-.064-1.433-.09-2C.32-4.822.27-5.3.303-5.807c.03-.47.13-.967.4-1.283.407-.473 1.194-.537 2.07-.55zm.008.123c.443-.626 1.382-.904 2.295-1.126l-.111.24a5.302 5.302 0 0 1-.975.361c-.09.026-.188.053-.28.082-.415.13-.685.295-.763.56zm.022-.008c.821-.018 1.694-.147 2.473.007l-.116.166c-.154.014-.242-.074-.625-.024l-.014.001-.021.001c-.744.009-.967-.12-1.696-.15z" id="mfid23"/></defs><defs id="defs154"><path d="M0 0h3.839v-7.066a1.176 1.176 0 0 0-.903-.615.67.67 0 0 1-.326-.485v-.552H1.228v.552a.67.67 0 0 1-.326.486c-.383.044-.72.274-.902.614z" id="mfid24"/></defs><defs id="defs163"><path d="M0 0h3.839v-7.066a1.176 1.176 0 0 0-.903-.615.67.67 0 0 1-.326-.485v-.552H1.228v.552a.67.67 0 0 1-.326.486c-.383.044-.72.274-.902.614z" id="mfid25"/></defs><defs id="defs174"><path d="M0 0h3.531v-.984H0z" id="mfid26"/></defs><defs id="defs179"><path d="M0-.546c0-.302.305-.546.682-.546.376 0 .681.244.681.546 0 .301-.305.546-.681.546C.305 0 0-.245 0-.546z" id="mfid27"/></defs><defs id="defs188"><path d="M.61-.357.98-.75M0-.546c0-.302.305-.546.682-.546.376 0 .681.244.681.546 0 .301-.305.546-.681.546C.305 0 0-.245 0-.546z" id="mfid28"/></defs><defs id="defs193"><path d="M0 0h62.992v-1.968H0z" id="mfid29"/></defs><defs id="defs202"><path d="M0 0h62.992v-1.968H0z" id="mfid30"/></defs><defs id="defs207"><path d="M0-62.3c0-.382.278-.692.622-.692h30.252c.344 0 .622.31.622.692V-.692c0 .382-.279.692-.622.692H.622C.278 0 0-.31 0-.692z" id="mfid31"/></defs><defs id="defs216"><path d="M0-62.3c0-.382.278-.692.622-.692h30.252c.344 0 .622.31.622.692V-.692c0 .382-.279.692-.622.692H.622C.278 0 0-.31 0-.692z" id="mfid32"/></defs><defs id="defs223"><path d="M4.252-2.126a2.126 2.126 0 1 0-4.252 0 2.126 2.126 0 0 0 4.252 0z" id="mfid33"/></defs><defs id="defs232"><path d="M2.953-1.476a1.476 1.476 0 1 0-2.953 0 1.476 1.476 0 0 0 2.953 0z" id="mfid34"/></defs><defs id="defs1087"><path d="M6.272 0c7.567 0 6.44-5 6.44-5l-.71-4.976c-.311-2.836-2.798-2.831-2.798-2.831H4.068C.908-12.325.73-9.532.73-9.532.635-8.728.032-4.593.032-4.593-.27-1.88 1.651-.803 1.651-.803 3.067 0 6.27 0 6.27 0zM1.746-19.603s2.226-.24 5.005-.24 4.365.24 4.365.24c2.125.261 1.514 2.344 1.514 2.344-.023.224-.354 1.71-.449 1.983-.245.711-.704 1.193-1.333 1.455-.456.191-.93.322-1.418.323H3.432c-.489-.001-.962-.132-1.418-.323-.629-.262-1.087-.744-1.333-1.455-.095-.273-.426-1.759-.45-1.983 0 0-.61-2.083 1.515-2.344z" id="mfid129"/></defs><defs id="defs1094"><path d="M5.473-14.961s2.23-.205 5.008-.162c2.778.043 4.361.307 4.361.307.998.139 1.383.671 1.513 1.197.087-.356.398-2.038-1.496-2.301 0 0-1.583-.264-4.361-.307-2.779-.043-5.008.162-5.008.162-1.902.204-1.643 1.895-1.566 2.253.145-.521.547-1.041 1.549-1.149zM19.837-1.755 18.405-7.21c-.475-1.685-1.245-1.585-1.551-1.53-.797.142-.682.892-.619 1.889l.67 5.324c.153.887.753 1.587 1.562 1.524.81-.063 1.424-.846 1.37-1.75zM.007-2.062l1.601-5.41c.527-1.67 1.294-1.545 1.598-1.481.792.167.654.913.56 1.908l-.835 5.3C2.751-.862 2.13-.182 1.322-.27.515-.357-.074-1.16.008-2.062zm3.937-1.496-.725-.011.262-1.67.718.033zM9.247-9.21l1.643.026.011-.691-1.643-.026zm6.702 5.838.725.011-.211-1.677-.717.012z" id="mfid130"/></defs><defs id="defs1103"><path d="M5.473-14.961s2.23-.205 5.008-.162c2.778.043 4.361.307 4.361.307.998.139 1.383.671 1.513 1.197.087-.356.398-2.038-1.496-2.301 0 0-1.583-.264-4.361-.307-2.779-.043-5.008.162-5.008.162-1.902.204-1.643 1.895-1.566 2.253.145-.521.547-1.041 1.549-1.149zM19.837-1.755 18.405-7.21c-.475-1.685-1.245-1.585-1.551-1.53-.797.142-.682.892-.619 1.889l.67 5.324c.153.887.753 1.587 1.562 1.524.81-.063 1.424-.846 1.37-1.75zM.007-2.062l1.601-5.41c.527-1.67 1.294-1.545 1.598-1.481.792.167.654.913.56 1.908l-.835 5.3C2.751-.862 2.13-.182 1.322-.27.515-.357-.074-1.16.008-2.062zm3.937-1.496-.725-.011.262-1.67.718.033zM9.247-9.21l1.643.026.011-.691-1.643-.026zm6.702 5.838.725.011-.211-1.677-.717.012z" id="mfid131"/></defs><defs id="defs1108"><path d="M10.247-17.081H5.894a.22.22 0 0 0-.224.218v13.994c0 .12.101.218.224.218h4.352a.22.22 0 0 0 .224-.218v-13.994a.22.22 0 0 0-.223-.218zm-6.734 4.145v-.021h.69c.325 0 .589.311.589.695v4.694c0 .384-.264.696-.59.696h-.689zm0 0v10.098L.577 0 0-.211v-19.421l.577-.211 2.936 2.839z" id="mfid132"/></defs><defs id="defs1117"><path d="M10.247-17.081H5.894a.22.22 0 0 0-.224.218v13.994c0 .12.101.218.224.218h4.352a.22.22 0 0 0 .224-.218v-13.994a.22.22 0 0 0-.223-.218zm-6.734 4.145v-.021h.69c.325 0 .589.311.589.695v4.694c0 .384-.264.696-.59.696h-.689zm0 0v10.098L.577 0 0-.211v-19.421l.577-.211 2.936 2.839z" id="mfid133"/></defs><defs id="defs1124"><path d="M2.926-12.826v-.716h.736v.716h-.736v.86-.715h.736v.715h-.736zm0 1.721v-.716h.736v.716h-.736v1.232-.716h.736v.716h-.736zm0 2.092v-.716h.736v.716h-.736v.86-.715h.736v.715h-.736zm0 2.128V-7.6h.736v.715h-.736v.86-.714h.736v.715h-.736zm0 5.164V-5.88h.736v4.158h-.736v.86-.715h.736v.715h-.736zm0 1.72v-.715h.736V0h-.736L2.04-9.013v-.715h.736v.715H2.04zM2.04-6.023V-7.6h.736v1.576H2.04v.86-.715h.736v.715H2.04zm0-5.081v-.716h.735v.716H2.04V-13.542h.737v.716H2.04zm0-.861v-.715h.736v.715H2.04v7.663-.716h.737v.716H2.04zm0 8.523v-.715h.736v.715H2.04v.861-.716h.737v.716H2.04zm0 1.722v-.716h.736v.716H2.04V0v-1.576h.737V0H2.04zm-.886-5.164V-7.6h.736v.715h-.736v.86-.714h.736v.715h-.736zm0 1.722v-.716h.736v.715h-.736v.86-.715h.737v.716h-.737zm0 1.72v-.715h.737v.715h-.737v.861-.716h.737v.716h-.737zm0 1.722v-.716h.737v.716h-.737v.86-.715h.737v.715h-.737zm0 1.72v-.715h.737V0h-.737v-13.542h.736v.716h-.736zm0-11.965v-.715h.736v.715h-.736v.861-.716h.736v.716h-.736zM0-6.885V-7.6h.737v.715H0v.86-.714h.737v.715H0zm0 1.722v-.716h.737v.715H0v.86-.715h.737v.716H0zm0 1.72v-.715h.737v.715H0v.861-.716h.737v.716H0zM0-1.72v-.716h.737v.716H0v.86-.715h.737v.715H0zm0 1.72v-.715h.737V0H0v-8.868h.737v.715H0zm0-12.825v-.716h.737v.716H0v.86-.715h.737v.715H0zm0 1.721v-.716h.737v.716H0v1.232-.716h.737v.716H0zm0 2.092v-.716h.737v.716z" id="mfid134"/></defs><defs id="defs1133"><path d="M9.921-2.193h8.78L16.771 0h-13.7l-1.93-2.193z" id="mfid135"/></defs><defs id="defs1142"><path d="M9.921-2.193h8.78L16.771 0h-13.7l-1.93-2.193zm9.922-.444H0" id="mfid136"/></defs><defs id="defs613"><path d="M6.272 0c7.567 0 6.44-5 6.44-5l-.71-4.976c-.311-2.836-2.798-2.831-2.798-2.831H4.068C.908-12.325.73-9.532.73-9.532.635-8.728.032-4.593.032-4.593-.27-1.88 1.651-.803 1.651-.803 3.067 0 6.27 0 6.27 0zM1.746-19.603s2.226-.24 5.005-.24 4.365.24 4.365.24c2.125.261 1.514 2.344 1.514 2.344-.023.224-.354 1.71-.449 1.983-.245.711-.704 1.193-1.333 1.455-.456.191-.93.322-1.418.323H3.432c-.489-.001-.962-.132-1.418-.323-.629-.262-1.087-.744-1.333-1.455-.095-.273-.426-1.759-.45-1.983 0 0-.61-2.083 1.515-2.344z" id="mfid75"/></defs><defs id="defs620"><path d="M5.473-14.961s2.23-.205 5.008-.162c2.778.043 4.361.307 4.361.307.998.139 1.383.671 1.513 1.197.087-.356.398-2.038-1.496-2.301 0 0-1.583-.264-4.361-.307-2.779-.043-5.008.162-5.008.162-1.902.204-1.643 1.895-1.566 2.253.145-.521.547-1.041 1.549-1.149zM19.837-1.755 18.405-7.21c-.475-1.685-1.245-1.585-1.551-1.53-.797.142-.682.892-.619 1.889l.67 5.324c.153.887.753 1.587 1.562 1.524.81-.063 1.424-.846 1.37-1.75zM.007-2.062l1.601-5.41c.527-1.67 1.294-1.545 1.598-1.481.792.167.654.913.56 1.908l-.835 5.3C2.751-.862 2.13-.182 1.322-.27.515-.357-.074-1.16.008-2.062zm3.937-1.496-.725-.011.262-1.67.718.033zM9.247-9.21l1.643.026.011-.691-1.643-.026zm6.702 5.838.725.011-.211-1.677-.717.012z" id="mfid76"/></defs><defs id="defs629"><path d="M5.473-14.961s2.23-.205 5.008-.162c2.778.043 4.361.307 4.361.307.998.139 1.383.671 1.513 1.197.087-.356.398-2.038-1.496-2.301 0 0-1.583-.264-4.361-.307-2.779-.043-5.008.162-5.008.162-1.902.204-1.643 1.895-1.566 2.253.145-.521.547-1.041 1.549-1.149zM19.837-1.755 18.405-7.21c-.475-1.685-1.245-1.585-1.551-1.53-.797.142-.682.892-.619 1.889l.67 5.324c.153.887.753 1.587 1.562 1.524.81-.063 1.424-.846 1.37-1.75zM.007-2.062l1.601-5.41c.527-1.67 1.294-1.545 1.598-1.481.792.167.654.913.56 1.908l-.835 5.3C2.751-.862 2.13-.182 1.322-.27.515-.357-.074-1.16.008-2.062zm3.937-1.496-.725-.011.262-1.67.718.033zM9.247-9.21l1.643.026.011-.691-1.643-.026zm6.702 5.838.725.011-.211-1.677-.717.012z" id="mfid77"/></defs><defs id="defs634"><path d="M10.247-17.081H5.894a.22.22 0 0 0-.224.218v13.994c0 .12.101.218.224.218h4.352a.22.22 0 0 0 .224-.218v-13.994a.22.22 0 0 0-.223-.218zm-6.734 4.145v-.021h.69c.325 0 .589.311.589.695v4.694c0 .384-.264.696-.59.696h-.689zm0 0v10.098L.577 0 0-.211v-19.421l.577-.211 2.936 2.839z" id="mfid78"/></defs><defs id="defs643"><path d="M10.247-17.081H5.894a.22.22 0 0 0-.224.218v13.994c0 .12.101.218.224.218h4.352a.22.22 0 0 0 .224-.218v-13.994a.22.22 0 0 0-.223-.218zm-6.734 4.145v-.021h.69c.325 0 .589.311.589.695v4.694c0 .384-.264.696-.59.696h-.689zm0 0v10.098L.577 0 0-.211v-19.421l.577-.211 2.936 2.839z" id="mfid79"/></defs><defs id="defs650"><path d="M2.926-12.826v-.716h.736v.716h-.736v.86-.715h.736v.715h-.736zm0 1.721v-.716h.736v.716h-.736v1.232-.716h.736v.716h-.736zm0 2.092v-.716h.736v.716h-.736v.86-.715h.736v.715h-.736zm0 2.128V-7.6h.736v.715h-.736v.86-.714h.736v.715h-.736zm0 5.164V-5.88h.736v4.158h-.736v.86-.715h.736v.715h-.736zm0 1.72v-.715h.736V0h-.736L2.04-9.013v-.715h.736v.715H2.04zM2.04-6.023V-7.6h.736v1.576H2.04v.86-.715h.736v.715H2.04zm0-5.081v-.716h.735v.716H2.04V-13.542h.737v.716H2.04zm0-.861v-.715h.736v.715H2.04v7.663-.716h.737v.716H2.04zm0 8.523v-.715h.736v.715H2.04v.861-.716h.737v.716H2.04zm0 1.722v-.716h.736v.716H2.04V0v-1.576h.737V0H2.04zm-.886-5.164V-7.6h.736v.715h-.736v.86-.714h.736v.715h-.736zm0 1.722v-.716h.736v.715h-.736v.86-.715h.737v.716h-.737zm0 1.72v-.715h.737v.715h-.737v.861-.716h.737v.716h-.737zm0 1.722v-.716h.737v.716h-.737v.86-.715h.737v.715h-.737zm0 1.72v-.715h.737V0h-.737v-13.542h.736v.716h-.736zm0-11.965v-.715h.736v.715h-.736v.861-.716h.736v.716h-.736zM0-6.885V-7.6h.737v.715H0v.86-.714h.737v.715H0zm0 1.722v-.716h.737v.715H0v.86-.715h.737v.716H0zm0 1.72v-.715h.737v.715H0v.861-.716h.737v.716H0zM0-1.72v-.716h.737v.716H0v.86-.715h.737v.715H0zm0 1.72v-.715h.737V0H0v-8.868h.737v.715H0zm0-12.825v-.716h.737v.716H0v.86-.715h.737v.715H0zm0 1.721v-.716h.737v.716H0v1.232-.716h.737v.716H0zm0 2.092v-.716h.737v.716z" id="mfid80"/></defs><defs id="defs659"><path d="M9.921-2.193h8.78L16.771 0h-13.7l-1.93-2.193z" id="mfid81"/></defs><defs id="defs668"><path d="M9.921-2.193h8.78L16.771 0h-13.7l-1.93-2.193zm9.922-.444H0" id="mfid82"/></defs><defs id="defs681"><path d="M0 0h31.496v-1.968H0z" id="mfid83"/></defs><defs id="defs694"><path d="M0 0h31.496v-1.968H0z" id="mfid84"/></defs><defs id="defs699"><path d="M0 0h62.992v-1.968H0z" id="mfid85"/></defs><defs id="defs708"><path d="M0 0h62.992v-1.968H0z" id="mfid86"/></defs><defs id="defs713"><path d="M0-62.3c0-.382.278-.692.622-.692h30.252c.344 0 .622.31.622.692V-.692c0 .382-.279.692-.622.692H.622C.278 0 0-.31 0-.692z" id="mfid87"/></defs><defs id="defs722"><path d="M0-62.3c0-.382.278-.692.622-.692h30.252c.344 0 .622.31.622.692V-.692c0 .382-.279.692-.622.692H.622C.278 0 0-.31 0-.692z" id="mfid88"/></defs><defs id="defs729"><path d="M4.252-2.126a2.126 2.126 0 1 0-4.252 0 2.126 2.126 0 0 0 4.252 0z" id="mfid89"/></defs><defs id="defs738"><path d="M2.953-1.476a1.476 1.476 0 1 0-2.953 0 1.476 1.476 0 0 0 2.953 0z" id="mfid90"/></defs><defs id="defs496"><path d="M6.272 0c7.567 0 6.44-5 6.44-5l-.71-4.976c-.311-2.836-2.798-2.831-2.798-2.831H4.068C.908-12.325.73-9.532.73-9.532.635-8.728.032-4.593.032-4.593-.27-1.88 1.651-.803 1.651-.803 3.067 0 6.27 0 6.27 0zM1.746-19.603s2.226-.24 5.005-.24 4.365.24 4.365.24c2.125.261 1.514 2.344 1.514 2.344-.023.224-.354 1.71-.449 1.983-.245.711-.704 1.193-1.333 1.455-.456.191-.93.322-1.418.323H3.432c-.489-.001-.962-.132-1.418-.323-.629-.262-1.087-.744-1.333-1.455-.095-.273-.426-1.759-.45-1.983 0 0-.61-2.083 1.515-2.344z" id="mfid62"/></defs><defs id="defs503"><path d="M5.473-14.961s2.23-.205 5.008-.162c2.778.043 4.361.307 4.361.307.998.139 1.383.671 1.513 1.197.087-.356.398-2.038-1.496-2.301 0 0-1.583-.264-4.361-.307-2.779-.043-5.008.162-5.008.162-1.902.204-1.643 1.895-1.566 2.253.145-.521.547-1.041 1.549-1.149zM19.837-1.755 18.405-7.21c-.475-1.685-1.245-1.585-1.551-1.53-.797.142-.682.892-.619 1.889l.67 5.324c.153.887.753 1.587 1.562 1.524.81-.063 1.424-.846 1.37-1.75zM.007-2.062l1.601-5.41c.527-1.67 1.294-1.545 1.598-1.481.792.167.654.913.56 1.908l-.835 5.3C2.751-.862 2.13-.182 1.322-.27.515-.357-.074-1.16.008-2.062zm3.937-1.496-.725-.011.262-1.67.718.033zM9.247-9.21l1.643.026.011-.691-1.643-.026zm6.702 5.838.725.011-.211-1.677-.717.012z" id="mfid63"/></defs><defs id="defs512"><path d="M5.473-14.961s2.23-.205 5.008-.162c2.778.043 4.361.307 4.361.307.998.139 1.383.671 1.513 1.197.087-.356.398-2.038-1.496-2.301 0 0-1.583-.264-4.361-.307-2.779-.043-5.008.162-5.008.162-1.902.204-1.643 1.895-1.566 2.253.145-.521.547-1.041 1.549-1.149zM19.837-1.755 18.405-7.21c-.475-1.685-1.245-1.585-1.551-1.53-.797.142-.682.892-.619 1.889l.67 5.324c.153.887.753 1.587 1.562 1.524.81-.063 1.424-.846 1.37-1.75zM.007-2.062l1.601-5.41c.527-1.67 1.294-1.545 1.598-1.481.792.167.654.913.56 1.908l-.835 5.3C2.751-.862 2.13-.182 1.322-.27.515-.357-.074-1.16.008-2.062zm3.937-1.496-.725-.011.262-1.67.718.033zM9.247-9.21l1.643.026.011-.691-1.643-.026zm6.702 5.838.725.011-.211-1.677-.717.012z" id="mfid64"/></defs><defs id="defs517"><path d="M10.247-17.081H5.894a.22.22 0 0 0-.224.218v13.994c0 .12.101.218.224.218h4.352a.22.22 0 0 0 .224-.218v-13.994a.22.22 0 0 0-.223-.218zm-6.734 4.145v-.021h.69c.325 0 .589.311.589.695v4.694c0 .384-.264.696-.59.696h-.689zm0 0v10.098L.577 0 0-.211v-19.421l.577-.211 2.936 2.839z" id="mfid65"/></defs><defs id="defs526"><path d="M10.247-17.081H5.894a.22.22 0 0 0-.224.218v13.994c0 .12.101.218.224.218h4.352a.22.22 0 0 0 .224-.218v-13.994a.22.22 0 0 0-.223-.218zm-6.734 4.145v-.021h.69c.325 0 .589.311.589.695v4.694c0 .384-.264.696-.59.696h-.689zm0 0v10.098L.577 0 0-.211v-19.421l.577-.211 2.936 2.839z" id="mfid66"/></defs><defs id="defs533"><path d="M2.926-12.826v-.716h.736v.716h-.736v.86-.715h.736v.715h-.736zm0 1.721v-.716h.736v.716h-.736v1.232-.716h.736v.716h-.736zm0 2.092v-.716h.736v.716h-.736v.86-.715h.736v.715h-.736zm0 2.128V-7.6h.736v.715h-.736v.86-.714h.736v.715h-.736zm0 5.164V-5.88h.736v4.158h-.736v.86-.715h.736v.715h-.736zm0 1.72v-.715h.736V0h-.736L2.04-9.013v-.715h.736v.715H2.04zM2.04-6.023V-7.6h.736v1.576H2.04v.86-.715h.736v.715H2.04zm0-5.081v-.716h.735v.716H2.04V-13.542h.737v.716H2.04zm0-.861v-.715h.736v.715H2.04v7.663-.716h.737v.716H2.04zm0 8.523v-.715h.736v.715H2.04v.861-.716h.737v.716H2.04zm0 1.722v-.716h.736v.716H2.04V0v-1.576h.737V0H2.04zm-.886-5.164V-7.6h.736v.715h-.736v.86-.714h.736v.715h-.736zm0 1.722v-.716h.736v.715h-.736v.86-.715h.737v.716h-.737zm0 1.72v-.715h.737v.715h-.737v.861-.716h.737v.716h-.737zm0 1.722v-.716h.737v.716h-.737v.86-.715h.737v.715h-.737zm0 1.72v-.715h.737V0h-.737v-13.542h.736v.716h-.736zm0-11.965v-.715h.736v.715h-.736v.861-.716h.736v.716h-.736zM0-6.885V-7.6h.737v.715H0v.86-.714h.737v.715H0zm0 1.722v-.716h.737v.715H0v.86-.715h.737v.716H0zm0 1.72v-.715h.737v.715H0v.861-.716h.737v.716H0zM0-1.72v-.716h.737v.716H0v.86-.715h.737v.715H0zm0 1.72v-.715h.737V0H0v-8.868h.737v.715H0zm0-12.825v-.716h.737v.716H0v.86-.715h.737v.715H0zm0 1.721v-.716h.737v.716H0v1.232-.716h.737v.716H0zm0 2.092v-.716h.737v.716z" id="mfid67"/></defs><defs id="defs542"><path d="M9.921-2.193h8.78L16.771 0h-13.7l-1.93-2.193z" id="mfid68"/></defs><defs id="defs551"><path d="M9.921-2.193h8.78L16.771 0h-13.7l-1.93-2.193zm9.922-.444H0" id="mfid69"/></defs><defs id="defs558"><path d="M0-62.3c0-.382.278-.692.622-.692h30.252c.344 0 .622.31.622.692V-.692c0 .382-.279.692-.622.692H.622C.278 0 0-.31 0-.692z" id="mfid70"/></defs><defs id="defs567"><path d="M0-62.3c0-.382.278-.692.622-.692h30.252c.344 0 .622.31.622.692V-.692c0 .382-.279.692-.622.692H.622C.278 0 0-.31 0-.692z" id="mfid71"/></defs><defs id="defs574"><path d="M4.252-2.126a2.126 2.126 0 1 0-4.252 0 2.126 2.126 0 0 0 4.252 0z" id="mfid72"/></defs><defs id="defs583"><path d="M2.953-1.476a1.476 1.476 0 1 0-2.953 0 1.476 1.476 0 0 0 2.953 0z" id="mfid73"/></defs><defs id="defs379"><path d="M6.272 0c7.567 0 6.44-5 6.44-5l-.71-4.976c-.311-2.836-2.798-2.831-2.798-2.831H4.068C.908-12.325.73-9.532.73-9.532.635-8.728.032-4.593.032-4.593-.27-1.88 1.651-.803 1.651-.803 3.067 0 6.27 0 6.27 0zM1.746-19.603s2.226-.24 5.005-.24 4.365.24 4.365.24c2.125.261 1.514 2.344 1.514 2.344-.023.224-.354 1.71-.449 1.983-.245.711-.704 1.193-1.333 1.455-.456.191-.93.322-1.418.323H3.432c-.489-.001-.962-.132-1.418-.323-.629-.262-1.087-.744-1.333-1.455-.095-.273-.426-1.759-.45-1.983 0 0-.61-2.083 1.515-2.344z" id="mfid49"/></defs><defs id="defs386"><path d="M5.473-14.961s2.23-.205 5.008-.162c2.778.043 4.361.307 4.361.307.998.139 1.383.671 1.513 1.197.087-.356.398-2.038-1.496-2.301 0 0-1.583-.264-4.361-.307-2.779-.043-5.008.162-5.008.162-1.902.204-1.643 1.895-1.566 2.253.145-.521.547-1.041 1.549-1.149zM19.837-1.755 18.405-7.21c-.475-1.685-1.245-1.585-1.551-1.53-.797.142-.682.892-.619 1.889l.67 5.324c.153.887.753 1.587 1.562 1.524.81-.063 1.424-.846 1.37-1.75zM.007-2.062l1.601-5.41c.527-1.67 1.294-1.545 1.598-1.481.792.167.654.913.56 1.908l-.835 5.3C2.751-.862 2.13-.182 1.322-.27.515-.357-.074-1.16.008-2.062zm3.937-1.496-.725-.011.262-1.67.718.033zM9.247-9.21l1.643.026.011-.691-1.643-.026zm6.702 5.838.725.011-.211-1.677-.717.012z" id="mfid50"/></defs><defs id="defs395"><path d="M5.473-14.961s2.23-.205 5.008-.162c2.778.043 4.361.307 4.361.307.998.139 1.383.671 1.513 1.197.087-.356.398-2.038-1.496-2.301 0 0-1.583-.264-4.361-.307-2.779-.043-5.008.162-5.008.162-1.902.204-1.643 1.895-1.566 2.253.145-.521.547-1.041 1.549-1.149zM19.837-1.755 18.405-7.21c-.475-1.685-1.245-1.585-1.551-1.53-.797.142-.682.892-.619 1.889l.67 5.324c.153.887.753 1.587 1.562 1.524.81-.063 1.424-.846 1.37-1.75zM.007-2.062l1.601-5.41c.527-1.67 1.294-1.545 1.598-1.481.792.167.654.913.56 1.908l-.835 5.3C2.751-.862 2.13-.182 1.322-.27.515-.357-.074-1.16.008-2.062zm3.937-1.496-.725-.011.262-1.67.718.033zM9.247-9.21l1.643.026.011-.691-1.643-.026zm6.702 5.838.725.011-.211-1.677-.717.012z" id="mfid51"/></defs><defs id="defs400"><path d="M10.247-17.081H5.894a.22.22 0 0 0-.224.218v13.994c0 .12.101.218.224.218h4.352a.22.22 0 0 0 .224-.218v-13.994a.22.22 0 0 0-.223-.218zm-6.734 4.145v-.021h.69c.325 0 .589.311.589.695v4.694c0 .384-.264.696-.59.696h-.689zm0 0v10.098L.577 0 0-.211v-19.421l.577-.211 2.936 2.839z" id="mfid52"/></defs><defs id="defs409"><path d="M10.247-17.081H5.894a.22.22 0 0 0-.224.218v13.994c0 .12.101.218.224.218h4.352a.22.22 0 0 0 .224-.218v-13.994a.22.22 0 0 0-.223-.218zm-6.734 4.145v-.021h.69c.325 0 .589.311.589.695v4.694c0 .384-.264.696-.59.696h-.689zm0 0v10.098L.577 0 0-.211v-19.421l.577-.211 2.936 2.839z" id="mfid53"/></defs><defs id="defs416"><path d="M2.926-12.826v-.716h.736v.716h-.736v.86-.715h.736v.715h-.736zm0 1.721v-.716h.736v.716h-.736v1.232-.716h.736v.716h-.736zm0 2.092v-.716h.736v.716h-.736v.86-.715h.736v.715h-.736zm0 2.128V-7.6h.736v.715h-.736v.86-.714h.736v.715h-.736zm0 5.164V-5.88h.736v4.158h-.736v.86-.715h.736v.715h-.736zm0 1.72v-.715h.736V0h-.736L2.04-9.013v-.715h.736v.715H2.04zM2.04-6.023V-7.6h.736v1.576H2.04v.86-.715h.736v.715H2.04zm0-5.081v-.716h.735v.716H2.04V-13.542h.737v.716H2.04zm0-.861v-.715h.736v.715H2.04v7.663-.716h.737v.716H2.04zm0 8.523v-.715h.736v.715H2.04v.861-.716h.737v.716H2.04zm0 1.722v-.716h.736v.716H2.04V0v-1.576h.737V0H2.04zm-.886-5.164V-7.6h.736v.715h-.736v.86-.714h.736v.715h-.736zm0 1.722v-.716h.736v.715h-.736v.86-.715h.737v.716h-.737zm0 1.72v-.715h.737v.715h-.737v.861-.716h.737v.716h-.737zm0 1.722v-.716h.737v.716h-.737v.86-.715h.737v.715h-.737zm0 1.72v-.715h.737V0h-.737v-13.542h.736v.716h-.736zm0-11.965v-.715h.736v.715h-.736v.861-.716h.736v.716h-.736zM0-6.885V-7.6h.737v.715H0v.86-.714h.737v.715H0zm0 1.722v-.716h.737v.715H0v.86-.715h.737v.716H0zm0 1.72v-.715h.737v.715H0v.861-.716h.737v.716H0zM0-1.72v-.716h.737v.716H0v.86-.715h.737v.715H0zm0 1.72v-.715h.737V0H0v-8.868h.737v.715H0zm0-12.825v-.716h.737v.716H0v.86-.715h.737v.715H0zm0 1.721v-.716h.737v.716H0v1.232-.716h.737v.716H0zm0 2.092v-.716h.737v.716z" id="mfid54"/></defs><defs id="defs425"><path d="M9.921-2.193h8.78L16.771 0h-13.7l-1.93-2.193z" id="mfid55"/></defs><defs id="defs434"><path d="M9.921-2.193h8.78L16.771 0h-13.7l-1.93-2.193zm9.922-.444H0" id="mfid56"/></defs><defs id="defs441"><path d="M0-62.3c0-.382.278-.692.622-.692h30.252c.344 0 .622.31.622.692V-.692c0 .382-.279.692-.622.692H.622C.278 0 0-.31 0-.692z" id="mfid57"/></defs><defs id="defs450"><path d="M0-62.3c0-.382.278-.692.622-.692h30.252c.344 0 .622.31.622.692V-.692c0 .382-.279.692-.622.692H.622C.278 0 0-.31 0-.692z" id="mfid58"/></defs><defs id="defs457"><path d="M4.252-2.126a2.126 2.126 0 1 0-4.252 0 2.126 2.126 0 0 0 4.252 0z" id="mfid59"/></defs><defs id="defs466"><path d="M2.953-1.476a1.476 1.476 0 1 0-2.953 0 1.476 1.476 0 0 0 2.953 0z" id="mfid60"/></defs><defs id="defs262"><path d="M6.272 0c7.567 0 6.44-5 6.44-5l-.71-4.976c-.311-2.836-2.798-2.831-2.798-2.831H4.068C.908-12.325.73-9.532.73-9.532.635-8.728.032-4.593.032-4.593-.27-1.88 1.651-.803 1.651-.803 3.067 0 6.27 0 6.27 0zM1.746-19.603s2.226-.24 5.005-.24 4.365.24 4.365.24c2.125.261 1.514 2.344 1.514 2.344-.023.224-.354 1.71-.449 1.983-.245.711-.704 1.193-1.333 1.455-.456.191-.93.322-1.418.323H3.432c-.489-.001-.962-.132-1.418-.323-.629-.262-1.087-.744-1.333-1.455-.095-.273-.426-1.759-.45-1.983 0 0-.61-2.083 1.515-2.344z" id="mfid36"/></defs><defs id="defs269"><path d="M5.473-14.961s2.23-.205 5.008-.162c2.778.043 4.361.307 4.361.307.998.139 1.383.671 1.513 1.197.087-.356.398-2.038-1.496-2.301 0 0-1.583-.264-4.361-.307-2.779-.043-5.008.162-5.008.162-1.902.204-1.643 1.895-1.566 2.253.145-.521.547-1.041 1.549-1.149zM19.837-1.755 18.405-7.21c-.475-1.685-1.245-1.585-1.551-1.53-.797.142-.682.892-.619 1.889l.67 5.324c.153.887.753 1.587 1.562 1.524.81-.063 1.424-.846 1.37-1.75zM.007-2.062l1.601-5.41c.527-1.67 1.294-1.545 1.598-1.481.792.167.654.913.56 1.908l-.835 5.3C2.751-.862 2.13-.182 1.322-.27.515-.357-.074-1.16.008-2.062zm3.937-1.496-.725-.011.262-1.67.718.033zM9.247-9.21l1.643.026.011-.691-1.643-.026zm6.702 5.838.725.011-.211-1.677-.717.012z" id="mfid37"/></defs><defs id="defs278"><path d="M5.473-14.961s2.23-.205 5.008-.162c2.778.043 4.361.307 4.361.307.998.139 1.383.671 1.513 1.197.087-.356.398-2.038-1.496-2.301 0 0-1.583-.264-4.361-.307-2.779-.043-5.008.162-5.008.162-1.902.204-1.643 1.895-1.566 2.253.145-.521.547-1.041 1.549-1.149zM19.837-1.755 18.405-7.21c-.475-1.685-1.245-1.585-1.551-1.53-.797.142-.682.892-.619 1.889l.67 5.324c.153.887.753 1.587 1.562 1.524.81-.063 1.424-.846 1.37-1.75zM.007-2.062l1.601-5.41c.527-1.67 1.294-1.545 1.598-1.481.792.167.654.913.56 1.908l-.835 5.3C2.751-.862 2.13-.182 1.322-.27.515-.357-.074-1.16.008-2.062zm3.937-1.496-.725-.011.262-1.67.718.033zM9.247-9.21l1.643.026.011-.691-1.643-.026zm6.702 5.838.725.011-.211-1.677-.717.012z" id="mfid38"/></defs><defs id="defs283"><path d="M10.247-17.081H5.894a.22.22 0 0 0-.224.218v13.994c0 .12.101.218.224.218h4.352a.22.22 0 0 0 .224-.218v-13.994a.22.22 0 0 0-.223-.218zm-6.734 4.145v-.021h.69c.325 0 .589.311.589.695v4.694c0 .384-.264.696-.59.696h-.689zm0 0v10.098L.577 0 0-.211v-19.421l.577-.211 2.936 2.839z" id="mfid39"/></defs><defs id="defs292"><path d="M10.247-17.081H5.894a.22.22 0 0 0-.224.218v13.994c0 .12.101.218.224.218h4.352a.22.22 0 0 0 .224-.218v-13.994a.22.22 0 0 0-.223-.218zm-6.734 4.145v-.021h.69c.325 0 .589.311.589.695v4.694c0 .384-.264.696-.59.696h-.689zm0 0v10.098L.577 0 0-.211v-19.421l.577-.211 2.936 2.839z" id="mfid40"/></defs><defs id="defs299"><path d="M2.926-12.826v-.716h.736v.716h-.736v.86-.715h.736v.715h-.736zm0 1.721v-.716h.736v.716h-.736v1.232-.716h.736v.716h-.736zm0 2.092v-.716h.736v.716h-.736v.86-.715h.736v.715h-.736zm0 2.128V-7.6h.736v.715h-.736v.86-.714h.736v.715h-.736zm0 5.164V-5.88h.736v4.158h-.736v.86-.715h.736v.715h-.736zm0 1.72v-.715h.736V0h-.736L2.04-9.013v-.715h.736v.715H2.04zM2.04-6.023V-7.6h.736v1.576H2.04v.86-.715h.736v.715H2.04zm0-5.081v-.716h.735v.716H2.04V-13.542h.737v.716H2.04zm0-.861v-.715h.736v.715H2.04v7.663-.716h.737v.716H2.04zm0 8.523v-.715h.736v.715H2.04v.861-.716h.737v.716H2.04zm0 1.722v-.716h.736v.716H2.04V0v-1.576h.737V0H2.04zm-.886-5.164V-7.6h.736v.715h-.736v.86-.714h.736v.715h-.736zm0 1.722v-.716h.736v.715h-.736v.86-.715h.737v.716h-.737zm0 1.72v-.715h.737v.715h-.737v.861-.716h.737v.716h-.737zm0 1.722v-.716h.737v.716h-.737v.86-.715h.737v.715h-.737zm0 1.72v-.715h.737V0h-.737v-13.542h.736v.716h-.736zm0-11.965v-.715h.736v.715h-.736v.861-.716h.736v.716h-.736zM0-6.885V-7.6h.737v.715H0v.86-.714h.737v.715H0zm0 1.722v-.716h.737v.715H0v.86-.715h.737v.716H0zm0 1.72v-.715h.737v.715H0v.861-.716h.737v.716H0zM0-1.72v-.716h.737v.716H0v.86-.715h.737v.715H0zm0 1.72v-.715h.737V0H0v-8.868h.737v.715H0zm0-12.825v-.716h.737v.716H0v.86-.715h.737v.715H0zm0 1.721v-.716h.737v.716H0v1.232-.716h.737v.716H0zm0 2.092v-.716h.737v.716z" id="mfid41"/></defs><defs id="defs308"><path d="M9.921-2.193h8.78L16.771 0h-13.7l-1.93-2.193z" id="mfid42"/></defs><defs id="defs317"><path d="M9.921-2.193h8.78L16.771 0h-13.7l-1.93-2.193zm9.922-.444H0" id="mfid43"/></defs><defs id="defs324"><path d="M0-62.3c0-.382.278-.692.622-.692h30.252c.344 0 .622.31.622.692V-.692c0 .382-.279.692-.622.692H.622C.278 0 0-.31 0-.692z" id="mfid44"/></defs><defs id="defs333"><path d="M0-62.3c0-.382.278-.692.622-.692h30.252c.344 0 .622.31.622.692V-.692c0 .382-.279.692-.622.692H.622C.278 0 0-.31 0-.692z" id="mfid45"/></defs><defs id="defs340"><path d="M4.252-2.126a2.126 2.126 0 1 0-4.252 0 2.126 2.126 0 0 0 4.252 0z" id="mfid46"/></defs><defs id="defs349"><path d="M2.953-1.476a1.476 1.476 0 1 0-2.953 0 1.476 1.476 0 0 0 2.953 0z" id="mfid47"/></defs><mask id="mfid3"><path stroke="none" id="rect12" d="M0 0h1251v911H0z"/></mask><mask id="mfid4" stroke="none"><g id="g19"><g mask="url(#mfid3)" id="g17"><use id="use15" x="0" y="0" width="100%" height="100%" xlinkHref="#mfid2"/></g></g></mask><mask id="mfid5" fill-rule="evenodd" stroke="none"><path id="rect22" d="M0 0h1251v911H0z"/></mask><clipPath id="mfid1"><path id="mfid2" d="M-.51-.511h1251v910.99H-.51z"/></clipPath></defs><path id="rect8" class="st1" d="M-219.028 118.423h938.013V800.41h-938.013z"/><g id="r303"><g id="2" class="ws"><use transform="matrix(3.84 0 0 -3.84 839.189 526.17)" height="100%" width="100%" y="0" x="0" id="use213" stroke="none" fill-rule="evenodd" stroke-width=".083" stroke-linecap="round" stroke-linejoin="round" xlinkHref="#mfid31"/><use transform="matrix(3.84 0 0 -3.84 839.189 526.17)" height="100%" width="100%" y="0" x="0" id="use220" stroke="#000" stroke-width=".26" stroke-miterlimit="2" xlinkHref="#mfid32"/><use transform="matrix(3.84 0 0 -3.84 860.689 730.27)" height="100%" width="100%" y="0" x="0" id="use229" stroke="none" fill-rule="evenodd" stroke-width=".26" stroke-miterlimit="2" xlinkHref="#mfid33"/><use transform="matrix(3.84 0 0 -3.84 863.189 732.76)" height="100%" width="100%" y="0" x="0" id="use238" stroke="none" fill-rule="evenodd" stroke-width=".26" stroke-miterlimit="2" xlinkHref="#mfid34"/><text stroke="none" x="894.88879 910.88879" y="582.66919 582.66919" id="text246" font-style="normal" font-weight="400" font-size="32" font-family="Calibri, swiss, sans-serif" stroke-miterlimit="10">2</text><use transform="matrix(.05954 3.8395 3.8395 -.05954 832.989 620.45)" height="100%" width="100%" y="0" x="0" id="use259" stroke="none" fill-rule="evenodd" stroke-width=".26" stroke-miterlimit="2" xlinkHref="#mfid35"/><use transform="matrix(.05954 3.8395 3.8395 -.05954 832.989 620.45)" height="100%" width="100%" y="0" x="0" id="use266" stroke="#000" stroke-width=".26" stroke-linecap="round" stroke-linejoin="round" xlinkHref="#mfid36"/><use transform="matrix(0 3.84 3.84 0 819.489 607.24)" height="100%" width="100%" y="0" x="0" id="use275" stroke="none" fill-rule="evenodd" stroke-width=".26" stroke-linecap="round" stroke-linejoin="round" xlinkHref="#mfid37"/><use transform="matrix(0 3.84 3.84 0 819.489 607.24)" height="100%" width="100%" y="0" x="0" id="use280" stroke="#000" stroke-width=".26" stroke-linecap="round" stroke-linejoin="round" xlinkHref="#mfid38"/><use transform="matrix(-3.84 0 0 3.84 892.489 683.88)" height="100%" width="100%" y="0" x="0" id="use289" stroke="none" fill-rule="evenodd" stroke-width=".26" stroke-linecap="round" stroke-linejoin="round" xlinkHref="#mfid39"/><use transform="matrix(-3.84 0 0 3.84 892.489 683.88)" height="100%" width="100%" y="0" x="0" id="use296" stroke="#000" stroke-width=".26" stroke-miterlimit="2" xlinkHref="#mfid40"/><use transform="matrix(-3.84 0 0 3.84 868.089 672)" height="100%" width="100%" y="0" x="0" id="use305" stroke="none" fill-rule="evenodd" stroke-width=".26" stroke-miterlimit="2" xlinkHref="#mfid41"/><use transform="matrix(0 -3.84 -3.84 0 880.189 683.89)" height="100%" width="100%" y="0" x="0" id="use314" stroke="none" fill-rule="evenodd" stroke-width=".26" stroke-miterlimit="2" xlinkHref="#mfid42"/><use transform="matrix(0 -3.84 -3.84 0 880.189 683.89)" height="100%" width="100%" y="0" x="0" id="use321" stroke="#000" stroke-width=".13" stroke-miterlimit="2" xlinkHref="#mfid43"/></g><g id="1" class="ws"><use transform="matrix(3.84 0 0 -3.84 839.389 276.12)" height="100%" width="100%" y="0" x="0" id="use330" stroke="none" fill-rule="evenodd" stroke-width=".13" stroke-miterlimit="2" xlinkHref="#mfid44"/><use transform="matrix(3.84 0 0 -3.84 839.389 276.12)" height="100%" width="100%" y="0" x="0" id="use337" stroke="#000" stroke-width=".26" stroke-miterlimit="2" xlinkHref="#mfid45"/><use transform="matrix(3.84 0 0 -3.84 860.889 480.21)" height="100%" width="100%" y="0" x="0" id="use346" stroke="none" fill-rule="evenodd" stroke-width=".26" stroke-miterlimit="2" xlinkHref="#mfid46"/><use transform="matrix(3.84 0 0 -3.84 863.389 482.71)" height="100%" width="100%" y="0" x="0" id="use355" stroke="none" fill-rule="evenodd" stroke-width=".26" stroke-miterlimit="2" xlinkHref="#mfid47"/><text stroke="none" x="891.68878 907.68878" y="314.46921 314.46921" id="text363" font-style="normal" font-weight="400" font-size="32" font-family="Calibri, swiss, sans-serif" stroke-miterlimit="10">1</text><use transform="matrix(.05954 3.8395 3.8395 -.05954 833.189 370.4)" height="100%" width="100%" y="0" x="0" id="use376" stroke="none" fill-rule="evenodd" stroke-width=".26" stroke-miterlimit="2" xlinkHref="#mfid48"/><use transform="matrix(.05954 3.8395 3.8395 -.05954 833.189 370.4)" height="100%" width="100%" y="0" x="0" id="use383" stroke="#000" stroke-width=".26" stroke-linecap="round" stroke-linejoin="round" xlinkHref="#mfid49"/><use transform="matrix(0 3.84 3.84 0 819.689 357.19)" height="100%" width="100%" y="0" x="0" id="use392" stroke="none" fill-rule="evenodd" stroke-width=".26" stroke-linecap="round" stroke-linejoin="round" xlinkHref="#mfid50"/><use transform="matrix(0 3.84 3.84 0 819.689 357.19)" height="100%" width="100%" y="0" x="0" id="use397" stroke="#000" stroke-width=".26" stroke-linecap="round" stroke-linejoin="round" xlinkHref="#mfid51"/><use transform="matrix(-3.84 0 0 3.84 892.689 433.83)" height="100%" width="100%" y="0" x="0" id="use406" stroke="none" fill-rule="evenodd" stroke-width=".26" stroke-linecap="round" stroke-linejoin="round" xlinkHref="#mfid52"/><use transform="matrix(-3.84 0 0 3.84 892.689 433.83)" height="100%" width="100%" y="0" x="0" id="use413" stroke="#000" stroke-width=".26" stroke-miterlimit="2" xlinkHref="#mfid53"/><use transform="matrix(-3.84 0 0 3.84 868.289 421.94)" height="100%" width="100%" y="0" x="0" id="use422" stroke="none" fill-rule="evenodd" stroke-width=".26" stroke-miterlimit="2" xlinkHref="#mfid54"/><use transform="matrix(0 -3.84 -3.84 0 880.389 433.84)" height="100%" width="100%" y="0" x="0" id="use431" stroke="none" fill-rule="evenodd" stroke-width=".26" stroke-miterlimit="2" xlinkHref="#mfid55"/><use transform="matrix(0 -3.84 -3.84 0 880.389 433.84)" height="100%" width="100%" y="0" x="0" id="use438" stroke="#000" stroke-width=".13" stroke-miterlimit="2" xlinkHref="#mfid56"/></g><g id="6" class="ws"><use transform="matrix(3.84 0 0 -3.84 285.909 524.66)" height="100%" width="100%" y="0" x="0" id="use447" stroke="none" fill-rule="evenodd" stroke-width=".13" stroke-miterlimit="2" xlinkHref="#mfid57"/><use transform="matrix(3.84 0 0 -3.84 285.909 524.66)" height="100%" width="100%" y="0" x="0" id="use454" stroke="#000" stroke-width=".26" stroke-miterlimit="2" xlinkHref="#mfid58"/><use transform="matrix(3.84 0 0 -3.84 307.379 728.75)" height="100%" width="100%" y="0" x="0" id="use463" stroke="none" fill-rule="evenodd" stroke-width=".26" stroke-miterlimit="2" xlinkHref="#mfid59"/><use transform="matrix(3.84 0 0 -3.84 309.869 731.25)" height="100%" width="100%" y="0" x="0" id="use472" stroke="none" fill-rule="evenodd" stroke-width=".26" stroke-miterlimit="2" xlinkHref="#mfid60"/><text stroke="none" x="333.30881 349.30881" y="582.66919 582.66919" id="text480" font-style="normal" font-weight="400" font-size="32" font-family="Calibri, swiss, sans-serif" stroke-miterlimit="10">6</text><use transform="matrix(.05954 3.8395 3.8395 -.05954 279.399 618.18)" height="100%" width="100%" y="0" x="0" id="use493" stroke="none" fill-rule="evenodd" stroke-width=".26" stroke-miterlimit="2" xlinkHref="#mfid61"/><use transform="matrix(.05954 3.8395 3.8395 -.05954 279.399 618.18)" height="100%" width="100%" y="0" x="0" id="use500" stroke="#000" stroke-width=".26" stroke-linecap="round" stroke-linejoin="round" xlinkHref="#mfid62"/><use transform="matrix(0 3.84 3.84 0 265.919 604.97)" height="100%" width="100%" y="0" x="0" id="use509" stroke="none" fill-rule="evenodd" stroke-width=".26" stroke-linecap="round" stroke-linejoin="round" xlinkHref="#mfid63"/><use transform="matrix(0 3.84 3.84 0 265.919 604.97)" height="100%" width="100%" y="0" x="0" id="use514" stroke="#000" stroke-width=".26" stroke-linecap="round" stroke-linejoin="round" xlinkHref="#mfid64"/><use transform="matrix(-3.84 0 0 3.84 338.889 681.61)" height="100%" width="100%" y="0" x="0" id="use523" stroke="none" fill-rule="evenodd" stroke-width=".26" stroke-linecap="round" stroke-linejoin="round" xlinkHref="#mfid65"/><use transform="matrix(-3.84 0 0 3.84 338.889 681.61)" height="100%" width="100%" y="0" x="0" id="use530" stroke="#000" stroke-width=".26" stroke-miterlimit="2" xlinkHref="#mfid66"/><use transform="matrix(-3.84 0 0 3.84 314.499 669.73)" height="100%" width="100%" y="0" x="0" id="use539" stroke="none" fill-rule="evenodd" stroke-width=".26" stroke-miterlimit="2" xlinkHref="#mfid67"/><use transform="matrix(0 -3.84 -3.84 0 326.559 681.62)" height="100%" width="100%" y="0" x="0" id="use548" stroke="none" fill-rule="evenodd" stroke-width=".26" stroke-miterlimit="2" xlinkHref="#mfid68"/><use transform="matrix(0 -3.84 -3.84 0 326.559 681.62)" height="100%" width="100%" y="0" x="0" id="use555" stroke="#000" stroke-width=".13" stroke-miterlimit="2" xlinkHref="#mfid69"/></g><g id="3" class="ws"><use transform="matrix(-3.84 0 0 3.84 536.459 766.55)" height="100%" width="100%" y="0" x="0" id="use564" stroke="none" fill-rule="evenodd" stroke-width=".13" stroke-miterlimit="2" xlinkHref="#mfid70"/><use transform="matrix(-3.84 0 0 3.84 536.459 766.55)" height="100%" width="100%" y="0" x="0" id="use571" stroke="#000" stroke-width=".26" stroke-miterlimit="2" xlinkHref="#mfid71"/><use transform="matrix(-3.84 0 0 3.84 514.989 562.46)" height="100%" width="100%" y="0" x="0" id="use580" stroke="none" fill-rule="evenodd" stroke-width=".26" stroke-miterlimit="2" xlinkHref="#mfid72"/><use transform="matrix(-3.84 0 0 3.84 512.499 559.96)" height="100%" width="100%" y="0" x="0" id="use589" stroke="none" fill-rule="evenodd" stroke-width=".26" stroke-miterlimit="2" xlinkHref="#mfid73"/><text stroke="none" x="463.91879 479.91879" y="582.66919 582.66919" id="text597" font-style="normal" font-weight="400" font-size="32" font-family="Calibri, swiss, sans-serif" stroke-miterlimit="10">3</text><use transform="scale(-3.83996 3.83996) rotate(-89.112 18.24 159.305)" height="100%" width="100%" y="0" x="0" id="use610" stroke="none" fill-rule="evenodd" stroke-width=".26" stroke-miterlimit="2" xlinkHref="#mfid74"/><use transform="scale(-3.83996 3.83996) rotate(-89.112 18.24 159.305)" height="100%" width="100%" y="0" x="0" id="use617" stroke="#000" stroke-width=".26" stroke-linecap="round" stroke-linejoin="round" xlinkHref="#mfid75"/><use transform="matrix(0 -3.84 -3.84 0 556.169 685.48)" height="100%" width="100%" y="0" x="0" id="use626" stroke="none" fill-rule="evenodd" stroke-width=".26" stroke-linecap="round" stroke-linejoin="round" xlinkHref="#mfid76"/><use transform="matrix(0 -3.84 -3.84 0 556.169 685.48)" height="100%" width="100%" y="0" x="0" id="use631" stroke="#000" stroke-width=".26" stroke-linecap="round" stroke-linejoin="round" xlinkHref="#mfid77"/><use transform="matrix(3.84 0 0 -3.84 483.209 608.84)" height="100%" width="100%" y="0" x="0" id="use640" stroke="none" fill-rule="evenodd" stroke-width=".26" stroke-linecap="round" stroke-linejoin="round" xlinkHref="#mfid78"/><use transform="matrix(3.84 0 0 -3.84 483.209 608.84)" height="100%" width="100%" y="0" x="0" id="use647" stroke="#000" stroke-width=".26" stroke-miterlimit="2" xlinkHref="#mfid79"/><use transform="matrix(3.84 0 0 -3.84 507.589 620.73)" height="100%" width="100%" y="0" x="0" id="use656" stroke="none" fill-rule="evenodd" stroke-width=".26" stroke-miterlimit="2" xlinkHref="#mfid80"/><use transform="matrix(0 3.84 3.84 0 495.529 608.83)" height="100%" width="100%" y="0" x="0" id="use665" stroke="none" fill-rule="evenodd" stroke-width=".26" stroke-miterlimit="2" xlinkHref="#mfid81"/><use transform="matrix(0 3.84 3.84 0 495.529 608.83)" height="100%" width="100%" y="0" x="0" id="use672" stroke="#000" stroke-width=".13" stroke-miterlimit="2" xlinkHref="#mfid82"/></g><g id="4" class="ws"><use transform="matrix(-3.84 0 0 3.84 536.459 515.59)" height="100%" width="100%" y="0" x="0" id="use719" stroke="none" fill-rule="evenodd" stroke-width=".083" stroke-linecap="round" stroke-linejoin="round" xlinkHref="#mfid87"/><use transform="matrix(-3.84 0 0 3.84 536.459 515.59)" height="100%" width="100%" y="0" x="0" id="use726" stroke="#000" stroke-width=".26" stroke-miterlimit="2" xlinkHref="#mfid88"/><use transform="matrix(-3.84 0 0 3.84 514.989 311.5)" height="100%" width="100%" y="0" x="0" id="use735" stroke="none" fill-rule="evenodd" stroke-width=".26" stroke-miterlimit="2" xlinkHref="#mfid89"/><use transform="matrix(-3.84 0 0 3.84 512.499 309)" height="100%" width="100%" y="0" x="0" id="use744" stroke="none" fill-rule="evenodd" stroke-width=".26" stroke-miterlimit="2" xlinkHref="#mfid90"/><text stroke="none" x="468.7388 484.7388" y="315.22919 315.22919" id="text752" font-style="normal" font-weight="400" font-size="32" font-family="Calibri, swiss, sans-serif" stroke-miterlimit="10">4</text><use height="100%" width="100%" y="0" x="0" id="use765" stroke="none" fill-rule="evenodd" transform="matrix(-.05954 -3.8395 -3.8395 .05954 542.699 421.31)" stroke-width=".26" stroke-miterlimit="2" xlinkHref="#mfid91"/><use height="100%" width="100%" y="0" x="0" id="use772" transform="matrix(-.05954 -3.8395 -3.8395 .05954 542.699 421.31)" stroke="#000" stroke-width=".26" stroke-linecap="round" stroke-linejoin="round" xlinkHref="#mfid92"/><use height="100%" width="100%" y="0" x="0" id="use781" stroke="none" fill-rule="evenodd" transform="matrix(0 -3.84 -3.84 0 556.169 434.52)" stroke-width=".26" stroke-linecap="round" stroke-linejoin="round" xlinkHref="#mfid93"/><use height="100%" width="100%" y="0" x="0" id="use786" transform="matrix(0 -3.84 -3.84 0 556.169 434.52)" stroke="#000" stroke-width=".26" stroke-linecap="round" stroke-linejoin="round" xlinkHref="#mfid94"/><use height="100%" width="100%" y="0" x="0" id="use795" stroke="none" fill-rule="evenodd" transform="matrix(3.84 0 0 -3.84 483.209 357.88)" stroke-width=".26" stroke-linecap="round" stroke-linejoin="round" xlinkHref="#mfid95"/><use height="100%" width="100%" y="0" x="0" id="use802" transform="matrix(3.84 0 0 -3.84 483.209 357.88)" stroke="#000" stroke-width=".26" stroke-miterlimit="2" xlinkHref="#mfid96"/><use height="100%" width="100%" y="0" x="0" id="use811" stroke="none" fill-rule="evenodd" transform="matrix(3.84 0 0 -3.84 507.589 369.76)" stroke-width=".26" stroke-miterlimit="2" xlinkHref="#mfid97"/><use height="100%" width="100%" y="0" x="0" id="use820" stroke="none" fill-rule="evenodd" transform="matrix(0 3.84 3.84 0 495.529 357.87)" stroke-width=".26" stroke-miterlimit="2" xlinkHref="#mfid98"/><use height="100%" width="100%" y="0" x="0" id="use827" transform="matrix(0 3.84 3.84 0 495.529 357.87)" stroke="#000" stroke-width=".13" stroke-miterlimit="2" xlinkHref="#mfid99"/></g><g id="g5792" class="wp"><use transform="matrix(0 -3.84 -3.84 0 407.329 766.55)" height="100%" width="100%" y="0" x="0" id="use199" stroke="none" fill-rule="evenodd" stroke-width=".083" stroke-linecap="round" stroke-linejoin="round" xlinkHref="#mfid29"/><use transform="matrix(0 -3.84 -3.84 0 407.329 766.55)" height="100%" width="100%" y="0" x="0" id="use204" stroke="#000" stroke-width=".083" stroke-linecap="round" stroke-linejoin="round" xlinkHref="#mfid30"/><path transform="scale(1 -1)" id="rect678" stroke="none" stroke-width=".5" stroke-miterlimit="2" d="M415.519-523.908h120.945v7.559H415.519z"/><use transform="matrix(3.84 0 0 -3.84 415.519 516.35)" height="100%" width="100%" y="0" x="0" id="use685" stroke="#000" stroke-width=".083" stroke-linecap="round" stroke-linejoin="round" xlinkHref="#mfid83"/><path transform="scale(1 -1)" id="rect691" stroke="none" stroke-width=".32" stroke-linecap="round" stroke-linejoin="round" d="M285.909-523.908h120.945v7.559H285.909z"/><use transform="matrix(3.84 0 0 -3.84 285.909 516.35)" height="100%" width="100%" y="0" x="0" id="use696" stroke="#000" stroke-width=".083" stroke-linecap="round" stroke-linejoin="round" xlinkHref="#mfid84"/><use transform="matrix(0 -3.84 -3.84 0 407.329 515.59)" height="100%" width="100%" y="0" x="0" id="use705" stroke="none" fill-rule="evenodd" stroke-width=".083" stroke-linecap="round" stroke-linejoin="round" xlinkHref="#mfid85"/><use transform="matrix(0 -3.84 -3.84 0 407.329 515.59)" height="100%" width="100%" y="0" x="0" id="use710" stroke="#000" stroke-width=".083" stroke-linecap="round" stroke-linejoin="round" xlinkHref="#mfid86"/><path id="rect833" stroke="none" transform="scale(1 -1)" stroke-width=".5" stroke-miterlimit="2" d="M840.789-525.718h120.945v7.559H840.789z"/><use height="100%" width="100%" y="0" x="0" id="use840" transform="matrix(3.84 0 0 -3.84 840.789 518.16)" stroke="#000" stroke-width=".083" stroke-linecap="round" stroke-linejoin="round" xlinkHref="#mfid100"/></g><g id="5" class="ws"><use height="100%" width="100%" y="0" x="0" id="use1038" stroke="none" fill-rule="evenodd" transform="matrix(3.84 0 0 -3.84 285.909 273.7)" stroke-width=".083" stroke-linecap="round" stroke-linejoin="round" xlinkHref="#mfid124"/><use height="100%" width="100%" y="0" x="0" id="use1045" transform="matrix(3.84 0 0 -3.84 285.909 273.7)" stroke="#000" stroke-width=".26" stroke-miterlimit="2" xlinkHref="#mfid125"/><use height="100%" width="100%" y="0" x="0" id="use1054" stroke="none" fill-rule="evenodd" transform="matrix(3.84 0 0 -3.84 307.379 477.79)" stroke-width=".26" stroke-miterlimit="2" xlinkHref="#mfid126"/><use height="100%" width="100%" y="0" x="0" id="use1063" stroke="none" fill-rule="evenodd" transform="matrix(3.84 0 0 -3.84 309.869 480.29)" stroke-width=".26" stroke-miterlimit="2" xlinkHref="#mfid127"/><text stroke="none" x="335.31879 351.31879" y="310.7692 310.7692" id="text1071" font-style="normal" font-weight="400" font-size="32" font-family="Calibri, swiss, sans-serif" stroke-miterlimit="10">5</text><use transform="matrix(.05954 3.8395 3.8395 -.05954 279.399 367.22)" height="100%" width="100%" y="0" x="0" id="use1084" stroke="none" fill-rule="evenodd" stroke-width=".26" stroke-miterlimit="2" xlinkHref="#mfid128"/><use transform="matrix(.05954 3.8395 3.8395 -.05954 279.399 367.22)" height="100%" width="100%" y="0" x="0" id="use1091" stroke="#000" stroke-width=".26" stroke-linecap="round" stroke-linejoin="round" xlinkHref="#mfid129"/><use transform="matrix(0 3.84 3.84 0 265.919 354.01)" height="100%" width="100%" y="0" x="0" id="use1100" stroke="none" fill-rule="evenodd" stroke-width=".26" stroke-linecap="round" stroke-linejoin="round" xlinkHref="#mfid130"/><use transform="matrix(0 3.84 3.84 0 265.919 354.01)" height="100%" width="100%" y="0" x="0" id="use1105" stroke="#000" stroke-width=".26" stroke-linecap="round" stroke-linejoin="round" xlinkHref="#mfid131"/><use transform="matrix(-3.84 0 0 3.84 338.889 430.65)" height="100%" width="100%" y="0" x="0" id="use1114" stroke="none" fill-rule="evenodd" stroke-width=".26" stroke-linecap="round" stroke-linejoin="round" xlinkHref="#mfid132"/><use transform="matrix(-3.84 0 0 3.84 338.889 430.65)" height="100%" width="100%" y="0" x="0" id="use1121" stroke="#000" stroke-width=".26" stroke-miterlimit="2" xlinkHref="#mfid133"/><use transform="matrix(-3.84 0 0 3.84 314.499 418.77)" height="100%" width="100%" y="0" x="0" id="use1130" stroke="none" fill-rule="evenodd" stroke-width=".26" stroke-miterlimit="2" xlinkHref="#mfid134"/><use transform="matrix(0 -3.84 -3.84 0 326.559 430.66)" height="100%" width="100%" y="0" x="0" id="use1139" stroke="none" fill-rule="evenodd" stroke-width=".26" stroke-miterlimit="2" xlinkHref="#mfid135"/><use transform="matrix(0 -3.84 -3.84 0 326.559 430.66)" height="100%" width="100%" y="0" x="0" id="use1146" stroke="#000" stroke-width=".13" stroke-miterlimit="2" xlinkHref="#mfid136"/></g><g id="g6202" class="any"><use transform="matrix(3.84 0 0 3.84 22.849 111.18)" height="100%" width="100%" y="0" x="0" id="use28" stroke="none" fill-rule="evenodd" xlinkHref="#mfid6"/><use transform="matrix(3.84 0 0 3.84 22.849 111.18)" height="100%" width="100%" y="0" x="0" id="use35" stroke="#000" stroke-width=".083" stroke-miterlimit="2" xlinkHref="#mfid7"/><use transform="matrix(0 3.84 -3.84 0 966.189 111.18)" height="100%" width="100%" y="0" x="0" id="use44" stroke="none" fill-rule="evenodd" stroke-width=".083" stroke-miterlimit="2" xlinkHref="#mfid8"/><use transform="matrix(0 3.84 -3.84 0 966.189 111.18)" height="100%" width="100%" y="0" x="0" id="use49" stroke="#000" stroke-width=".083" stroke-miterlimit="2" xlinkHref="#mfid9"/><use transform="matrix(-3.84 0 0 -3.84 966.189 770.33)" height="100%" width="100%" y="0" x="0" id="use58" stroke="none" fill-rule="evenodd" stroke-width=".083" stroke-miterlimit="2" xlinkHref="#mfid10"/><use transform="matrix(-3.84 0 0 -3.84 966.189 770.33)" height="100%" width="100%" y="0" x="0" id="use63" stroke="#000" stroke-width=".083" stroke-miterlimit="2" xlinkHref="#mfid11"/><use transform="matrix(0 -3.84 3.84 0 22.849 770.33)" height="100%" width="100%" y="0" x="0" id="use72" stroke="none" fill-rule="evenodd" stroke-width=".083" stroke-miterlimit="2" xlinkHref="#mfid12"/><use transform="matrix(0 -3.84 3.84 0 22.849 770.33)" height="100%" width="100%" y="0" x="0" id="use77" stroke="#000" stroke-width=".083" stroke-miterlimit="2" xlinkHref="#mfid13"/><use transform="rotate(180 437.744 81.67) scale(3.84)" height="100%" width="100%" y="0" x="0" id="use86" stroke="none" fill-rule="evenodd" stroke-width=".083" stroke-miterlimit="2" xlinkHref="#mfid14"/><use transform="rotate(180 437.744 81.67) scale(3.84)" height="100%" width="100%" y="0" x="0" id="use93" stroke="#658a82" stroke-width=".434" stroke-miterlimit="2" xlinkHref="#mfid15"/><use transform="rotate(180 483.094 55.21) scale(3.84)" height="100%" width="100%" y="0" x="0" id="use102" stroke="none" fill-rule="evenodd" stroke-width=".434" stroke-miterlimit="2" xlinkHref="#mfid16"/><use transform="rotate(180 483.094 55.21) scale(3.84)" height="100%" width="100%" y="0" x="0" id="use107" stroke="#658a82" stroke-width=".434" stroke-miterlimit="2" xlinkHref="#mfid17"/><use transform="matrix(3.84 0 0 3.84 90.879 716.66)" height="100%" width="100%" y="0" x="0" id="use116" stroke="none" fill-rule="evenodd" stroke-width=".434" stroke-miterlimit="2" xlinkHref="#mfid18"/><use transform="matrix(3.84 0 0 3.84 90.879 716.66)" height="100%" width="100%" y="0" x="0" id="use121" stroke="#658a82" stroke-width=".434" stroke-miterlimit="2" xlinkHref="#mfid19"/><use transform="matrix(3.84 0 0 3.84 22.849 769.57)" height="100%" width="100%" y="0" x="0" id="use130" stroke="none" fill-rule="evenodd" stroke-width=".434" stroke-miterlimit="2" xlinkHref="#mfid20"/><use transform="matrix(3.84 0 0 3.84 22.849 769.57)" height="100%" width="100%" y="0" x="0" id="use135" stroke="#658a82" stroke-width=".434" stroke-miterlimit="2" xlinkHref="#mfid21"/><use transform="matrix(3.84 0 0 3.84 42.809 159.44)" height="100%" width="100%" y="0" x="0" id="use144" stroke="none" fill-rule="evenodd" stroke-width=".434" stroke-miterlimit="2" xlinkHref="#mfid22"/><use transform="matrix(3.84 0 0 3.84 42.809 159.44)" height="100%" width="100%" y="0" x="0" id="use151" stroke="#000" stroke-width=".083" stroke-linecap="round" stroke-linejoin="round" xlinkHref="#mfid23"/><use transform="matrix(3.84 0 0 3.84 47.229 163.34)" height="100%" width="100%" y="0" x="0" id="use160" stroke="none" fill-rule="evenodd" stroke-width=".083" stroke-linecap="round" stroke-linejoin="round" xlinkHref="#mfid24"/><use transform="matrix(3.84 0 0 3.84 47.229 163.34)" height="100%" width="100%" y="0" x="0" id="use165" stroke="#000" stroke-width=".083" stroke-linecap="round" stroke-linejoin="round" xlinkHref="#mfid25"/><path id="rect171" stroke="none" stroke-width=".32" stroke-linecap="round" stroke-linejoin="round" d="M47.819 147.27H61.38v3.78H47.819z"/><use transform="matrix(3.84 0 0 3.84 47.819 151.05)" height="100%" width="100%" y="0" x="0" id="use176" stroke="#000" stroke-width=".083" stroke-linecap="round" stroke-linejoin="round" xlinkHref="#mfid26"/><use transform="matrix(3.84 0 0 3.84 51.979 132.98)" height="100%" width="100%" y="0" x="0" id="use185" stroke="none" fill-rule="evenodd" stroke-width=".083" stroke-linecap="round" stroke-linejoin="round" xlinkHref="#mfid27"/><use transform="matrix(3.84 0 0 3.84 51.979 132.98)" height="100%" width="100%" y="0" x="0" id="use190" stroke="#000" stroke-width=".083" stroke-linecap="round" stroke-linejoin="round" xlinkHref="#mfid28"/><path id="rect846" stroke="none" transform="scale(-1 1)" stroke-width=".32" stroke-linecap="round" stroke-linejoin="round" d="M-226.948 88.31h151.181v23.061h-151.181z"/><use height="100%" width="100%" y="0" x="0" id="use853" transform="matrix(-3.84 0 0 3.84 219.389 111.18)" stroke="#fff" stroke-width=".083" stroke-linecap="round" stroke-linejoin="round" xlinkHref="#mfid101"/><use height="100%" width="100%" y="0" x="0" id="use862" stroke="none" fill-rule="evenodd" transform="matrix(-3.84 0 0 3.84 226.949 111.18)" stroke-width=".083" stroke-linecap="round" stroke-linejoin="round" xlinkHref="#mfid102"/><use height="100%" width="100%" y="0" x="0" id="use869" transform="matrix(-3.84 0 0 3.84 226.949 111.18)" stroke="#000" stroke-width=".083" stroke-linecap="round" stroke-linejoin="round" xlinkHref="#mfid103"/><use height="100%" width="100%" y="0" x="0" id="use878" stroke="none" fill-rule="evenodd" transform="matrix(-3.84 0 0 3.84 219.389 103.62)" stroke-width=".083" stroke-linecap="round" stroke-linejoin="round" xlinkHref="#mfid104"/><use height="100%" width="100%" y="0" x="0" id="use883" transform="matrix(-3.84 0 0 3.84 219.389 103.62)" stroke="#000" stroke-width=".083" stroke-linecap="round" stroke-linejoin="round" xlinkHref="#mfid105"/><use height="100%" width="100%" y="0" x="0" id="use892" transform="matrix(-3.84 0 0 3.84 226.949 111.18)" stroke="#000" stroke-width=".083" stroke-linecap="round" stroke-linejoin="round" xlinkHref="#mfid106"/><use height="100%" width="100%" y="0" x="0" id="use901" transform="matrix(-3.84 0 0 3.84 219.389 88.5)" stroke="#000" stroke-width=".083" stroke-linecap="round" stroke-linejoin="round" xlinkHref="#mfid107"/><use height="100%" width="100%" y="0" x="0" id="use910" stroke="none" fill-rule="evenodd" transform="scale(-3.84 3.84) rotate(40.486 -27.05 -66.921)" stroke-width=".083" stroke-linecap="round" stroke-linejoin="round" xlinkHref="#mfid108"/><use height="100%" width="100%" y="0" x="0" id="use915" transform="scale(-3.84 3.84) rotate(40.486 -27.05 -66.921)" stroke="#000" stroke-width=".083" stroke-linecap="round" stroke-linejoin="round" xlinkHref="#mfid109"/><path id="rect921" stroke="none" stroke-width=".32" stroke-linecap="round" stroke-linejoin="round" d="M84.839 770.14h166.299v23.061H84.839z"/><use height="100%" width="100%" y="0" x="0" id="use928" transform="matrix(3.84 0 0 3.84 84.839 793.01)" stroke="#fff" stroke-width=".083" stroke-linecap="round" stroke-linejoin="round" xlinkHref="#mfid110"/><use height="100%" width="100%" y="0" x="0" id="use933" stroke="none" fill-rule="evenodd" transform="matrix(3.84 0 0 3.84 84.839 793.01)" stroke-width=".083" stroke-linecap="round" stroke-linejoin="round" xlinkHref="#mfid111"/><use height="100%" width="100%" y="0" x="0" id="use940" transform="matrix(3.84 0 0 3.84 84.839 793.01)" stroke="#000" stroke-width=".083" stroke-linecap="round" stroke-linejoin="round" xlinkHref="#mfid112"/><use height="100%" width="100%" y="0" x="0" id="use949" stroke="none" fill-rule="evenodd" transform="matrix(3.84 0 0 3.84 92.399 785.45)" stroke-width=".083" stroke-linecap="round" stroke-linejoin="round" xlinkHref="#mfid113"/><use height="100%" width="100%" y="0" x="0" id="use954" transform="matrix(3.84 0 0 3.84 92.399 785.45)" stroke="#000" stroke-width=".083" stroke-linecap="round" stroke-linejoin="round" xlinkHref="#mfid114"/><use height="100%" width="100%" y="0" x="0" id="use963" transform="matrix(3.84 0 0 3.84 99.949 781.67)" stroke="#000" stroke-width=".083" stroke-linecap="round" stroke-linejoin="round" xlinkHref="#mfid115"/><use height="100%" width="100%" y="0" x="0" id="use972" transform="matrix(3.84 0 0 3.84 84.839 793.01)" stroke="#000" stroke-width=".083" stroke-linecap="round" stroke-linejoin="round" xlinkHref="#mfid116"/><path id="rect978" stroke="none" stroke-width=".32" stroke-linecap="round" stroke-linejoin="round" d="M326.729 770.14h166.299v23.061H326.729z"/><use height="100%" width="100%" y="0" x="0" id="use985" transform="matrix(3.84 0 0 3.84 326.729 793.01)" stroke="#fff" stroke-width=".083" stroke-linecap="round" stroke-linejoin="round" xlinkHref="#mfid117"/><use height="100%" width="100%" y="0" x="0" id="use990" stroke="none" fill-rule="evenodd" transform="matrix(3.84 0 0 3.84 326.729 793.01)" stroke-width=".083" stroke-linecap="round" stroke-linejoin="round" xlinkHref="#mfid118"/><use height="100%" width="100%" y="0" x="0" id="use997" transform="matrix(3.84 0 0 3.84 326.729 793.01)" stroke="#000" stroke-width=".083" stroke-linecap="round" stroke-linejoin="round" xlinkHref="#mfid119"/><use height="100%" width="100%" y="0" x="0" id="use1006" stroke="none" fill-rule="evenodd" transform="matrix(3.84 0 0 3.84 334.289 785.45)" stroke-width=".083" stroke-linecap="round" stroke-linejoin="round" xlinkHref="#mfid120"/><use height="100%" width="100%" y="0" x="0" id="use1011" transform="matrix(3.84 0 0 3.84 334.289 785.45)" stroke="#000" stroke-width=".083" stroke-linecap="round" stroke-linejoin="round" xlinkHref="#mfid121"/><use height="100%" width="100%" y="0" x="0" id="use1020" transform="matrix(3.84 0 0 3.84 341.839 781.67)" stroke="#000" stroke-width=".083" stroke-linecap="round" stroke-linejoin="round" xlinkHref="#mfid122"/><use height="100%" width="100%" y="0" x="0" id="use1029" transform="matrix(3.84 0 0 3.84 326.729 793.01)" stroke="#000" stroke-width=".083" stroke-linecap="round" stroke-linejoin="round" xlinkHref="#mfid123"/></g></g><path id="rect1160" class="st1" d="M-219.028 118.423h938.013V800.41h-938.013z"/></svg>