<svg xmlns="http://www.w3.org/2000/svg" id="svg839" version="1.1" class="st3" color-interpolation-filters="sRGB" viewBox="0 0 683.684 773.701" height="1031.602" width="911.579" fill="none"><defs id="defs843"><defs id="defs28"><path id="mfid6" d="M-5.905-5.905H172.05L166.14 0H0Z"/></defs><defs id="defs377"><path id="mfid49" d="M6.272 0c7.567 0 6.44-5 6.44-5l-.71-4.976c-.311-2.836-2.798-2.831-2.798-2.831H4.068C.908-12.325.73-9.532.73-9.532.635-8.728.032-4.593.032-4.593-.27-1.88 1.651-.803 1.651-.803 3.067 0 6.27 0 6.27 0ZM1.746-19.603s2.226-.24 5.005-.24 4.365.24 4.365.24c2.125.261 1.514 2.344 1.514 2.344-.023.224-.354 1.71-.449 1.983-.245.711-.704 1.193-1.333 1.455-.456.191-.93.322-1.418.323H3.432c-.489-.001-.962-.132-1.418-.323-.629-.262-1.087-.744-1.333-1.455-.095-.273-.426-1.759-.45-1.983 0 0-.61-2.083 1.515-2.344z"/></defs><defs id="defs494"><path id="mfid62" d="M6.272 0c7.567 0 6.44-5 6.44-5l-.71-4.976c-.311-2.836-2.798-2.831-2.798-2.831H4.068C.908-12.325.73-9.532.73-9.532.635-8.728.032-4.593.032-4.593-.27-1.88 1.651-.803 1.651-.803 3.067 0 6.27 0 6.27 0ZM1.746-19.603s2.226-.24 5.005-.24 4.365.24 4.365.24c2.125.261 1.514 2.344 1.514 2.344-.023.224-.354 1.71-.449 1.983-.245.711-.704 1.193-1.333 1.455-.456.191-.93.322-1.418.323H3.432c-.489-.001-.962-.132-1.418-.323-.629-.262-1.087-.744-1.333-1.455-.095-.273-.426-1.759-.45-1.983 0 0-.61-2.083 1.515-2.344z"/></defs><defs id="defs624"><path id="mfid76" d="M6.272 0c7.567 0 6.44-5 6.44-5l-.71-4.976c-.311-2.836-2.798-2.831-2.798-2.831H4.068C.908-12.325.73-9.532.73-9.532.635-8.728.032-4.593.032-4.593-.27-1.88 1.651-.803 1.651-.803 3.067 0 6.27 0 6.27 0ZM1.746-19.603s2.226-.24 5.005-.24 4.365.24 4.365.24c2.125.261 1.514 2.344 1.514 2.344-.023.224-.354 1.71-.449 1.983-.245.711-.704 1.193-1.333 1.455-.456.191-.93.322-1.418.323H3.432c-.489-.001-.962-.132-1.418-.323-.629-.262-1.087-.744-1.333-1.455-.095-.273-.426-1.759-.45-1.983 0 0-.61-2.083 1.515-2.344z"/></defs><defs id="defs741"><path id="mfid89" d="M6.272 0c7.567 0 6.44-5 6.44-5l-.71-4.976c-.311-2.836-2.798-2.831-2.798-2.831H4.068C.908-12.325.73-9.532.73-9.532.635-8.728.032-4.593.032-4.593-.27-1.88 1.651-.803 1.651-.803 3.067 0 6.27 0 6.27 0ZM1.746-19.603s2.226-.24 5.005-.24 4.365.24 4.365.24c2.125.261 1.514 2.344 1.514 2.344-.023.224-.354 1.71-.449 1.983-.245.711-.704 1.193-1.333 1.455-.456.191-.93.322-1.418.323H3.432c-.489-.001-.962-.132-1.418-.323-.629-.262-1.087-.744-1.333-1.455-.095-.273-.426-1.759-.45-1.983 0 0-.61-2.083 1.515-2.344z"/></defs><defs id="defs814"><path d="M0 0h31.496v-1.968H0Z" id="mfid98"/></defs><defs id="defs801"><path d="M9.921-2.193h8.78L16.771 0h-13.7l-1.93-2.193Zm9.922-.444H0" id="mfid97"/></defs><defs id="defs792"><path d="M9.921-2.193h8.78L16.771 0h-13.7l-1.93-2.193Z" id="mfid96"/></defs><defs id="defs783"><path d="M2.926-12.826v-.716h.736v.716h-.736v.86-.715h.736v.715h-.736Zm0 1.721v-.716h.736v.716h-.736v1.232-.716h.736v.716h-.736Zm0 2.092v-.716h.736v.716h-.736v.86-.715h.736v.715h-.736Zm0 2.128V-7.6h.736v.715h-.736v.86-.714h.736v.715h-.736Zm0 5.164V-5.88h.736v4.158h-.736v.86-.715h.736v.715h-.736Zm0 1.72v-.715h.736V0h-.736L2.04-9.013v-.715h.736v.715H2.04ZM2.04-6.023V-7.6h.736v1.576H2.04v.86-.715h.736v.715H2.04zm0-5.081v-.716h.735v.716H2.04V-13.542h.737v.716H2.04Zm0-.861v-.715h.736v.715H2.04v7.663-.716h.737v.716H2.04Zm0 8.523v-.715h.736v.715H2.04v.861-.716h.737v.716H2.04Zm0 1.722v-.716h.736v.716H2.04V0v-1.576h.737V0H2.04Zm-.886-5.164V-7.6h.736v.715h-.736v.86-.714h.736v.715h-.736Zm0 1.722v-.716h.736v.715h-.736v.86-.715h.737v.716h-.737Zm0 1.72v-.715h.737v.715h-.737v.861-.716h.737v.716h-.737Zm0 1.722v-.716h.737v.716h-.737v.86-.715h.737v.715h-.737Zm0 1.72v-.715h.737V0h-.737v-13.542h.736v.716h-.736Zm0-11.965v-.715h.736v.715h-.736v.861-.716h.736v.716h-.736ZM0-6.885V-7.6h.737v.715H0v.86-.714h.737v.715H0Zm0 1.722v-.716h.737v.715H0v.86-.715h.737v.716H0Zm0 1.72v-.715h.737v.715H0v.861-.716h.737v.716H0ZM0-1.72v-.716h.737v.716H0v.86-.715h.737v.715H0Zm0 1.72v-.715h.737V0H0v-8.868h.737v.715H0Zm0-12.825v-.716h.737v.716H0v.86-.715h.737v.715H0Zm0 1.721v-.716h.737v.716H0v1.232-.716h.737v.716H0Zm0 2.092v-.716h.737v.716z" id="mfid95"/></defs><defs id="defs776"><path d="M10.247-17.081H5.894a.22.22 0 0 0-.224.218v13.994c0 .12.101.218.224.218h4.352a.22.22 0 0 0 .224-.218v-13.994a.22.22 0 0 0-.223-.218zm-6.734 4.145v-.021h.69c.325 0 .589.311.589.695v4.694c0 .384-.264.696-.59.696h-.689Zm0 0v10.098L.577 0 0-.211v-19.421l.577-.211 2.936 2.839z" id="mfid94"/></defs><defs id="defs762"><path d="M5.473-14.961s2.23-.205 5.008-.162c2.778.043 4.361.307 4.361.307.998.139 1.383.671 1.513 1.197.087-.356.398-2.038-1.496-2.301 0 0-1.583-.264-4.361-.307-2.779-.043-5.008.162-5.008.162-1.902.204-1.643 1.895-1.566 2.253.145-.521.547-1.041 1.549-1.149zM19.837-1.755 18.405-7.21c-.475-1.685-1.245-1.585-1.551-1.53-.797.142-.682.892-.619 1.889l.67 5.324c.153.887.753 1.587 1.562 1.524.81-.063 1.424-.846 1.37-1.75zM.007-2.062l1.601-5.41c.527-1.67 1.294-1.545 1.598-1.481.792.167.654.913.56 1.908l-.835 5.3C2.751-.862 2.13-.182 1.322-.27.515-.357-.074-1.16.008-2.062Zm3.937-1.496-.725-.011.262-1.67.718.033zM9.247-9.21l1.643.026.011-.691-1.643-.026zm6.702 5.838.725.011-.211-1.677-.717.012z" id="mfid92"/></defs><defs id="defs767"><path d="M10.247-17.081H5.894a.22.22 0 0 0-.224.218v13.994c0 .12.101.218.224.218h4.352a.22.22 0 0 0 .224-.218v-13.994a.22.22 0 0 0-.223-.218zm-6.734 4.145v-.021h.69c.325 0 .589.311.589.695v4.694c0 .384-.264.696-.59.696h-.689Zm0 0v10.098L.577 0 0-.211v-19.421l.577-.211 2.936 2.839z" id="mfid93"/></defs><defs id="defs753"><path d="M5.473-14.961s2.23-.205 5.008-.162c2.778.043 4.361.307 4.361.307.998.139 1.383.671 1.513 1.197.087-.356.398-2.038-1.496-2.301 0 0-1.583-.264-4.361-.307-2.779-.043-5.008.162-5.008.162-1.902.204-1.643 1.895-1.566 2.253.145-.521.547-1.041 1.549-1.149zM19.837-1.755 18.405-7.21c-.475-1.685-1.245-1.585-1.551-1.53-.797.142-.682.892-.619 1.889l.67 5.324c.153.887.753 1.587 1.562 1.524.81-.063 1.424-.846 1.37-1.75zM.007-2.062l1.601-5.41c.527-1.67 1.294-1.545 1.598-1.481.792.167.654.913.56 1.908l-.835 5.3C2.751-.862 2.13-.182 1.322-.27.515-.357-.074-1.16.008-2.062Zm3.937-1.496-.725-.011.262-1.67.718.033zM9.247-9.21l1.643.026.011-.691-1.643-.026zm6.702 5.838.725.011-.211-1.677-.717.012z" id="mfid91"/></defs><defs id="defs746"><path d="M6.272 0c7.567 0 6.44-5 6.44-5l-.71-4.976c-.311-2.836-2.798-2.831-2.798-2.831H4.068C.908-12.325.73-9.532.73-9.532.635-8.728.032-4.593.032-4.593-.27-1.88 1.651-.803 1.651-.803 3.067 0 6.27 0 6.27 0ZM1.746-19.603s2.226-.24 5.005-.24 4.365.24 4.365.24c2.125.261 1.514 2.344 1.514 2.344-.023.224-.354 1.71-.449 1.983-.245.711-.704 1.193-1.333 1.455-.456.191-.93.322-1.418.323H3.432c-.489-.001-.962-.132-1.418-.323-.629-.262-1.087-.744-1.333-1.455-.095-.273-.426-1.759-.45-1.983 0 0-.61-2.083 1.515-2.344z" id="mfid90"/></defs><defs id="defs716"><path d="M2.953-1.476a1.476 1.476 0 1 0-2.953 0 1.476 1.476 0 0 0 2.953 0Z" id="mfid88"/></defs><defs id="defs707"><path d="M4.252-2.126a2.126 2.126 0 1 0-4.252 0 2.126 2.126 0 0 0 4.252 0Z" id="mfid87"/></defs><defs id="defs700"><path d="M0-62.3c0-.382.278-.692.622-.692h30.252c.344 0 .622.31.622.692V-.692c0 .382-.279.692-.622.692H.622C.278 0 0-.31 0-.692Z" id="mfid86"/></defs><defs id="defs691"><path d="M0-62.3c0-.382.278-.692.622-.692h30.252c.344 0 .622.31.622.692V-.692c0 .382-.279.692-.622.692H.622C.278 0 0-.31 0-.692Z" id="mfid85"/></defs><defs id="defs684"><path d="M9.921-2.193h8.78L16.771 0h-13.7l-1.93-2.193Zm9.922-.444H0" id="mfid84"/></defs><defs id="defs675"><path d="M9.921-2.193h8.78L16.771 0h-13.7l-1.93-2.193Z" id="mfid83"/></defs><defs id="defs666"><path d="M2.926-12.826v-.716h.736v.716h-.736v.86-.715h.736v.715h-.736Zm0 1.721v-.716h.736v.716h-.736v1.232-.716h.736v.716h-.736Zm0 2.092v-.716h.736v.716h-.736v.86-.715h.736v.715h-.736Zm0 2.128V-7.6h.736v.715h-.736v.86-.714h.736v.715h-.736Zm0 5.164V-5.88h.736v4.158h-.736v.86-.715h.736v.715h-.736Zm0 1.72v-.715h.736V0h-.736L2.04-9.013v-.715h.736v.715H2.04ZM2.04-6.023V-7.6h.736v1.576H2.04v.86-.715h.736v.715H2.04zm0-5.081v-.716h.735v.716H2.04V-13.542h.737v.716H2.04Zm0-.861v-.715h.736v.715H2.04v7.663-.716h.737v.716H2.04Zm0 8.523v-.715h.736v.715H2.04v.861-.716h.737v.716H2.04Zm0 1.722v-.716h.736v.716H2.04V0v-1.576h.737V0H2.04Zm-.886-5.164V-7.6h.736v.715h-.736v.86-.714h.736v.715h-.736Zm0 1.722v-.716h.736v.715h-.736v.86-.715h.737v.716h-.737Zm0 1.72v-.715h.737v.715h-.737v.861-.716h.737v.716h-.737Zm0 1.722v-.716h.737v.716h-.737v.86-.715h.737v.715h-.737Zm0 1.72v-.715h.737V0h-.737v-13.542h.736v.716h-.736Zm0-11.965v-.715h.736v.715h-.736v.861-.716h.736v.716h-.736ZM0-6.885V-7.6h.737v.715H0v.86-.714h.737v.715H0Zm0 1.722v-.716h.737v.715H0v.86-.715h.737v.716H0Zm0 1.72v-.715h.737v.715H0v.861-.716h.737v.716H0ZM0-1.72v-.716h.737v.716H0v.86-.715h.737v.715H0Zm0 1.72v-.715h.737V0H0v-8.868h.737v.715H0Zm0-12.825v-.716h.737v.716H0v.86-.715h.737v.715H0Zm0 1.721v-.716h.737v.716H0v1.232-.716h.737v.716H0Zm0 2.092v-.716h.737v.716z" id="mfid82"/></defs><defs id="defs659"><path d="M10.247-17.081H5.894a.22.22 0 0 0-.224.218v13.994c0 .12.101.218.224.218h4.352a.22.22 0 0 0 .224-.218v-13.994a.22.22 0 0 0-.223-.218zm-6.734 4.145v-.021h.69c.325 0 .589.311.589.695v4.694c0 .384-.264.696-.59.696h-.689Zm0 0v10.098L.577 0 0-.211v-19.421l.577-.211 2.936 2.839z" id="mfid81"/></defs><defs id="defs645"><path d="M5.473-14.961s2.23-.205 5.008-.162c2.778.043 4.361.307 4.361.307.998.139 1.383.671 1.513 1.197.087-.356.398-2.038-1.496-2.301 0 0-1.583-.264-4.361-.307-2.779-.043-5.008.162-5.008.162-1.902.204-1.643 1.895-1.566 2.253.145-.521.547-1.041 1.549-1.149zM19.837-1.755 18.405-7.21c-.475-1.685-1.245-1.585-1.551-1.53-.797.142-.682.892-.619 1.889l.67 5.324c.153.887.753 1.587 1.562 1.524.81-.063 1.424-.846 1.37-1.75zM.007-2.062l1.601-5.41c.527-1.67 1.294-1.545 1.598-1.481.792.167.654.913.56 1.908l-.835 5.3C2.751-.862 2.13-.182 1.322-.27.515-.357-.074-1.16.008-2.062Zm3.937-1.496-.725-.011.262-1.67.718.033zM9.247-9.21l1.643.026.011-.691-1.643-.026zm6.702 5.838.725.011-.211-1.677-.717.012z" id="mfid79"/></defs><defs id="defs650"><path d="M10.247-17.081H5.894a.22.22 0 0 0-.224.218v13.994c0 .12.101.218.224.218h4.352a.22.22 0 0 0 .224-.218v-13.994a.22.22 0 0 0-.223-.218zm-6.734 4.145v-.021h.69c.325 0 .589.311.589.695v4.694c0 .384-.264.696-.59.696h-.689Zm0 0v10.098L.577 0 0-.211v-19.421l.577-.211 2.936 2.839z" id="mfid80"/></defs><defs id="defs636"><path d="M5.473-14.961s2.23-.205 5.008-.162c2.778.043 4.361.307 4.361.307.998.139 1.383.671 1.513 1.197.087-.356.398-2.038-1.496-2.301 0 0-1.583-.264-4.361-.307-2.779-.043-5.008.162-5.008.162-1.902.204-1.643 1.895-1.566 2.253.145-.521.547-1.041 1.549-1.149zM19.837-1.755 18.405-7.21c-.475-1.685-1.245-1.585-1.551-1.53-.797.142-.682.892-.619 1.889l.67 5.324c.153.887.753 1.587 1.562 1.524.81-.063 1.424-.846 1.37-1.75zM.007-2.062l1.601-5.41c.527-1.67 1.294-1.545 1.598-1.481.792.167.654.913.56 1.908l-.835 5.3C2.751-.862 2.13-.182 1.322-.27.515-.357-.074-1.16.008-2.062Zm3.937-1.496-.725-.011.262-1.67.718.033zM9.247-9.21l1.643.026.011-.691-1.643-.026zm6.702 5.838.725.011-.211-1.677-.717.012z" id="mfid78"/></defs><defs id="defs629"><path d="M6.272 0c7.567 0 6.44-5 6.44-5l-.71-4.976c-.311-2.836-2.798-2.831-2.798-2.831H4.068C.908-12.325.73-9.532.73-9.532.635-8.728.032-4.593.032-4.593-.27-1.88 1.651-.803 1.651-.803 3.067 0 6.27 0 6.27 0ZM1.746-19.603s2.226-.24 5.005-.24 4.365.24 4.365.24c2.125.261 1.514 2.344 1.514 2.344-.023.224-.354 1.71-.449 1.983-.245.711-.704 1.193-1.333 1.455-.456.191-.93.322-1.418.323H3.432c-.489-.001-.962-.132-1.418-.323-.629-.262-1.087-.744-1.333-1.455-.095-.273-.426-1.759-.45-1.983 0 0-.61-2.083 1.515-2.344z" id="mfid77"/></defs><defs id="defs599"><path d="M2.953-1.476a1.476 1.476 0 1 0-2.953 0 1.476 1.476 0 0 0 2.953 0Z" id="mfid75"/></defs><defs id="defs590"><path d="M4.252-2.126a2.126 2.126 0 1 0-4.252 0 2.126 2.126 0 0 0 4.252 0Z" id="mfid74"/></defs><defs id="defs583"><path d="M0-62.3c0-.382.278-.692.622-.692h30.252c.344 0 .622.31.622.692V-.692c0 .382-.279.692-.622.692H.622C.278 0 0-.31 0-.692Z" id="mfid73"/></defs><defs id="defs574"><path d="M0-62.3c0-.382.278-.692.622-.692h30.252c.344 0 .622.31.622.692V-.692c0 .382-.279.692-.622.692H.622C.278 0 0-.31 0-.692Z" id="mfid72"/></defs><defs id="defs567"><path d="M0 0h31.496v-1.968H0Z" id="mfid71"/></defs><defs id="defs554"><path d="M9.921-2.193h8.78L16.771 0h-13.7l-1.93-2.193Zm9.922-.444H0" id="mfid70"/></defs><defs id="defs545"><path d="M9.921-2.193h8.78L16.771 0h-13.7l-1.93-2.193Z" id="mfid69"/></defs><defs id="defs536"><path d="M2.926-12.826v-.716h.736v.716h-.736v.86-.715h.736v.715h-.736Zm0 1.721v-.716h.736v.716h-.736v1.232-.716h.736v.716h-.736Zm0 2.092v-.716h.736v.716h-.736v.86-.715h.736v.715h-.736Zm0 2.128V-7.6h.736v.715h-.736v.86-.714h.736v.715h-.736Zm0 5.164V-5.88h.736v4.158h-.736v.86-.715h.736v.715h-.736Zm0 1.72v-.715h.736V0h-.736L2.04-9.013v-.715h.736v.715H2.04ZM2.04-6.023V-7.6h.736v1.576H2.04v.86-.715h.736v.715H2.04zm0-5.081v-.716h.735v.716H2.04V-13.542h.737v.716H2.04Zm0-.861v-.715h.736v.715H2.04v7.663-.716h.737v.716H2.04Zm0 8.523v-.715h.736v.715H2.04v.861-.716h.737v.716H2.04Zm0 1.722v-.716h.736v.716H2.04V0v-1.576h.737V0H2.04Zm-.886-5.164V-7.6h.736v.715h-.736v.86-.714h.736v.715h-.736Zm0 1.722v-.716h.736v.715h-.736v.86-.715h.737v.716h-.737Zm0 1.72v-.715h.737v.715h-.737v.861-.716h.737v.716h-.737Zm0 1.722v-.716h.737v.716h-.737v.86-.715h.737v.715h-.737Zm0 1.72v-.715h.737V0h-.737v-13.542h.736v.716h-.736Zm0-11.965v-.715h.736v.715h-.736v.861-.716h.736v.716h-.736ZM0-6.885V-7.6h.737v.715H0v.86-.714h.737v.715H0Zm0 1.722v-.716h.737v.715H0v.86-.715h.737v.716H0Zm0 1.72v-.715h.737v.715H0v.861-.716h.737v.716H0ZM0-1.72v-.716h.737v.716H0v.86-.715h.737v.715H0Zm0 1.72v-.715h.737V0H0v-8.868h.737v.715H0Zm0-12.825v-.716h.737v.716H0v.86-.715h.737v.715H0Zm0 1.721v-.716h.737v.716H0v1.232-.716h.737v.716H0Zm0 2.092v-.716h.737v.716z" id="mfid68"/></defs><defs id="defs529"><path d="M10.247-17.081H5.894a.22.22 0 0 0-.224.218v13.994c0 .12.101.218.224.218h4.352a.22.22 0 0 0 .224-.218v-13.994a.22.22 0 0 0-.223-.218zm-6.734 4.145v-.021h.69c.325 0 .589.311.589.695v4.694c0 .384-.264.696-.59.696h-.689Zm0 0v10.098L.577 0 0-.211v-19.421l.577-.211 2.936 2.839z" id="mfid67"/></defs><defs id="defs515"><path d="M5.473-14.961s2.23-.205 5.008-.162c2.778.043 4.361.307 4.361.307.998.139 1.383.671 1.513 1.197.087-.356.398-2.038-1.496-2.301 0 0-1.583-.264-4.361-.307-2.779-.043-5.008.162-5.008.162-1.902.204-1.643 1.895-1.566 2.253.145-.521.547-1.041 1.549-1.149zM19.837-1.755 18.405-7.21c-.475-1.685-1.245-1.585-1.551-1.53-.797.142-.682.892-.619 1.889l.67 5.324c.153.887.753 1.587 1.562 1.524.81-.063 1.424-.846 1.37-1.75zM.007-2.062l1.601-5.41c.527-1.67 1.294-1.545 1.598-1.481.792.167.654.913.56 1.908l-.835 5.3C2.751-.862 2.13-.182 1.322-.27.515-.357-.074-1.16.008-2.062Zm3.937-1.496-.725-.011.262-1.67.718.033zM9.247-9.21l1.643.026.011-.691-1.643-.026zm6.702 5.838.725.011-.211-1.677-.717.012z" id="mfid65"/></defs><defs id="defs520"><path d="M10.247-17.081H5.894a.22.22 0 0 0-.224.218v13.994c0 .12.101.218.224.218h4.352a.22.22 0 0 0 .224-.218v-13.994a.22.22 0 0 0-.223-.218zm-6.734 4.145v-.021h.69c.325 0 .589.311.589.695v4.694c0 .384-.264.696-.59.696h-.689Zm0 0v10.098L.577 0 0-.211v-19.421l.577-.211 2.936 2.839z" id="mfid66"/></defs><defs id="defs506"><path d="M5.473-14.961s2.23-.205 5.008-.162c2.778.043 4.361.307 4.361.307.998.139 1.383.671 1.513 1.197.087-.356.398-2.038-1.496-2.301 0 0-1.583-.264-4.361-.307-2.779-.043-5.008.162-5.008.162-1.902.204-1.643 1.895-1.566 2.253.145-.521.547-1.041 1.549-1.149zM19.837-1.755 18.405-7.21c-.475-1.685-1.245-1.585-1.551-1.53-.797.142-.682.892-.619 1.889l.67 5.324c.153.887.753 1.587 1.562 1.524.81-.063 1.424-.846 1.37-1.75zM.007-2.062l1.601-5.41c.527-1.67 1.294-1.545 1.598-1.481.792.167.654.913.56 1.908l-.835 5.3C2.751-.862 2.13-.182 1.322-.27.515-.357-.074-1.16.008-2.062Zm3.937-1.496-.725-.011.262-1.67.718.033zM9.247-9.21l1.643.026.011-.691-1.643-.026zm6.702 5.838.725.011-.211-1.677-.717.012z" id="mfid64"/></defs><defs id="defs499"><path d="M6.272 0c7.567 0 6.44-5 6.44-5l-.71-4.976c-.311-2.836-2.798-2.831-2.798-2.831H4.068C.908-12.325.73-9.532.73-9.532.635-8.728.032-4.593.032-4.593-.27-1.88 1.651-.803 1.651-.803 3.067 0 6.27 0 6.27 0ZM1.746-19.603s2.226-.24 5.005-.24 4.365.24 4.365.24c2.125.261 1.514 2.344 1.514 2.344-.023.224-.354 1.71-.449 1.983-.245.711-.704 1.193-1.333 1.455-.456.191-.93.322-1.418.323H3.432c-.489-.001-.962-.132-1.418-.323-.629-.262-1.087-.744-1.333-1.455-.095-.273-.426-1.759-.45-1.983 0 0-.61-2.083 1.515-2.344z" id="mfid63"/></defs><defs id="defs469"><path d="M2.953-1.476a1.476 1.476 0 1 0-2.953 0 1.476 1.476 0 0 0 2.953 0Z" id="mfid61"/></defs><defs id="defs460"><path d="M4.252-2.126a2.126 2.126 0 1 0-4.252 0 2.126 2.126 0 0 0 4.252 0Z" id="mfid60"/></defs><defs id="defs453"><path d="M0-62.3c0-.382.278-.692.622-.692h30.252c.344 0 .622.31.622.692V-.692c0 .382-.279.692-.622.692H.622C.278 0 0-.31 0-.692Z" id="mfid59"/></defs><defs id="defs444"><path d="M0-62.3c0-.382.278-.692.622-.692h30.252c.344 0 .622.31.622.692V-.692c0 .382-.279.692-.622.692H.622C.278 0 0-.31 0-.692Z" id="mfid58"/></defs><defs id="defs437"><path d="M9.921-2.193h8.78L16.771 0h-13.7l-1.93-2.193Zm9.922-.444H0" id="mfid57"/></defs><defs id="defs428"><path d="M9.921-2.193h8.78L16.771 0h-13.7l-1.93-2.193Z" id="mfid56"/></defs><defs id="defs419"><path d="M2.926-12.826v-.716h.736v.716h-.736v.86-.715h.736v.715h-.736Zm0 1.721v-.716h.736v.716h-.736v1.232-.716h.736v.716h-.736Zm0 2.092v-.716h.736v.716h-.736v.86-.715h.736v.715h-.736Zm0 2.128V-7.6h.736v.715h-.736v.86-.714h.736v.715h-.736Zm0 5.164V-5.88h.736v4.158h-.736v.86-.715h.736v.715h-.736Zm0 1.72v-.715h.736V0h-.736L2.04-9.013v-.715h.736v.715H2.04ZM2.04-6.023V-7.6h.736v1.576H2.04v.86-.715h.736v.715H2.04zm0-5.081v-.716h.735v.716H2.04V-13.542h.737v.716H2.04Zm0-.861v-.715h.736v.715H2.04v7.663-.716h.737v.716H2.04Zm0 8.523v-.715h.736v.715H2.04v.861-.716h.737v.716H2.04Zm0 1.722v-.716h.736v.716H2.04V0v-1.576h.737V0H2.04Zm-.886-5.164V-7.6h.736v.715h-.736v.86-.714h.736v.715h-.736Zm0 1.722v-.716h.736v.715h-.736v.86-.715h.737v.716h-.737Zm0 1.72v-.715h.737v.715h-.737v.861-.716h.737v.716h-.737Zm0 1.722v-.716h.737v.716h-.737v.86-.715h.737v.715h-.737Zm0 1.72v-.715h.737V0h-.737v-13.542h.736v.716h-.736Zm0-11.965v-.715h.736v.715h-.736v.861-.716h.736v.716h-.736ZM0-6.885V-7.6h.737v.715H0v.86-.714h.737v.715H0Zm0 1.722v-.716h.737v.715H0v.86-.715h.737v.716H0Zm0 1.72v-.715h.737v.715H0v.861-.716h.737v.716H0ZM0-1.72v-.716h.737v.716H0v.86-.715h.737v.715H0Zm0 1.72v-.715h.737V0H0v-8.868h.737v.715H0Zm0-12.825v-.716h.737v.716H0v.86-.715h.737v.715H0Zm0 1.721v-.716h.737v.716H0v1.232-.716h.737v.716H0Zm0 2.092v-.716h.737v.716z" id="mfid55"/></defs><defs id="defs412"><path d="M10.247-17.081H5.894a.22.22 0 0 0-.224.218v13.994c0 .12.101.218.224.218h4.352a.22.22 0 0 0 .224-.218v-13.994a.22.22 0 0 0-.223-.218zm-6.734 4.145v-.021h.69c.325 0 .589.311.589.695v4.694c0 .384-.264.696-.59.696h-.689Zm0 0v10.098L.577 0 0-.211v-19.421l.577-.211 2.936 2.839z" id="mfid54"/></defs><defs id="defs398"><path d="M5.473-14.961s2.23-.205 5.008-.162c2.778.043 4.361.307 4.361.307.998.139 1.383.671 1.513 1.197.087-.356.398-2.038-1.496-2.301 0 0-1.583-.264-4.361-.307-2.779-.043-5.008.162-5.008.162-1.902.204-1.643 1.895-1.566 2.253.145-.521.547-1.041 1.549-1.149zM19.837-1.755 18.405-7.21c-.475-1.685-1.245-1.585-1.551-1.53-.797.142-.682.892-.619 1.889l.67 5.324c.153.887.753 1.587 1.562 1.524.81-.063 1.424-.846 1.37-1.75zM.007-2.062l1.601-5.41c.527-1.67 1.294-1.545 1.598-1.481.792.167.654.913.56 1.908l-.835 5.3C2.751-.862 2.13-.182 1.322-.27.515-.357-.074-1.16.008-2.062Zm3.937-1.496-.725-.011.262-1.67.718.033zM9.247-9.21l1.643.026.011-.691-1.643-.026zm6.702 5.838.725.011-.211-1.677-.717.012z" id="mfid52"/></defs><defs id="defs403"><path d="M10.247-17.081H5.894a.22.22 0 0 0-.224.218v13.994c0 .12.101.218.224.218h4.352a.22.22 0 0 0 .224-.218v-13.994a.22.22 0 0 0-.223-.218zm-6.734 4.145v-.021h.69c.325 0 .589.311.589.695v4.694c0 .384-.264.696-.59.696h-.689Zm0 0v10.098L.577 0 0-.211v-19.421l.577-.211 2.936 2.839z" id="mfid53"/></defs><defs id="defs389"><path d="M5.473-14.961s2.23-.205 5.008-.162c2.778.043 4.361.307 4.361.307.998.139 1.383.671 1.513 1.197.087-.356.398-2.038-1.496-2.301 0 0-1.583-.264-4.361-.307-2.779-.043-5.008.162-5.008.162-1.902.204-1.643 1.895-1.566 2.253.145-.521.547-1.041 1.549-1.149zM19.837-1.755 18.405-7.21c-.475-1.685-1.245-1.585-1.551-1.53-.797.142-.682.892-.619 1.889l.67 5.324c.153.887.753 1.587 1.562 1.524.81-.063 1.424-.846 1.37-1.75zM.007-2.062l1.601-5.41c.527-1.67 1.294-1.545 1.598-1.481.792.167.654.913.56 1.908l-.835 5.3C2.751-.862 2.13-.182 1.322-.27.515-.357-.074-1.16.008-2.062Zm3.937-1.496-.725-.011.262-1.67.718.033zM9.247-9.21l1.643.026.011-.691-1.643-.026zm6.702 5.838.725.011-.211-1.677-.717.012z" id="mfid51"/></defs><defs id="defs382"><path d="M6.272 0c7.567 0 6.44-5 6.44-5l-.71-4.976c-.311-2.836-2.798-2.831-2.798-2.831H4.068C.908-12.325.73-9.532.73-9.532.635-8.728.032-4.593.032-4.593-.27-1.88 1.651-.803 1.651-.803 3.067 0 6.27 0 6.27 0ZM1.746-19.603s2.226-.24 5.005-.24 4.365.24 4.365.24c2.125.261 1.514 2.344 1.514 2.344-.023.224-.354 1.71-.449 1.983-.245.711-.704 1.193-1.333 1.455-.456.191-.93.322-1.418.323H3.432c-.489-.001-.962-.132-1.418-.323-.629-.262-1.087-.744-1.333-1.455-.095-.273-.426-1.759-.45-1.983 0 0-.61-2.083 1.515-2.344z" id="mfid50"/></defs><defs id="defs352"><path d="M2.953-1.476a1.476 1.476 0 1 0-2.953 0 1.476 1.476 0 0 0 2.953 0Z" id="mfid48"/></defs><defs id="defs343"><path d="M4.252-2.126a2.126 2.126 0 1 0-4.252 0 2.126 2.126 0 0 0 4.252 0Z" id="mfid47"/></defs><defs id="defs336"><path d="M0-62.3c0-.382.278-.692.622-.692h30.252c.344 0 .622.31.622.692V-.692c0 .382-.279.692-.622.692H.622C.278 0 0-.31 0-.692Z" id="mfid46"/></defs><defs id="defs327"><path d="M0-62.3c0-.382.278-.692.622-.692h30.252c.344 0 .622.31.622.692V-.692c0 .382-.279.692-.622.692H.622C.278 0 0-.31 0-.692Z" id="mfid45"/></defs><defs id="defs318"><path d="M0 0v-5.905M66.929 0v-5.905" id="mfid44"/></defs><defs id="defs304"><path d="M0-1.968h1.968V0H0Zm62.992 0h-1.968V0h1.968z" id="mfid42"/></defs><defs id="defs309"><path d="M0 0h59.055" id="mfid43"/></defs><defs id="defs295"><path d="M0-1.968h1.968V0H0Zm62.992 0h-1.968V0h1.968z" id="mfid41"/></defs><defs id="defs283"><path d="M0 0v-5.905h1.968V0Zm66.929 0v-5.905h-1.968V0Z" id="mfid39"/></defs><defs id="defs288"><path d="M0 0v-5.905h1.968v1.968m0 1.968V0H0m66.929 0v-5.905h-1.968v1.968m0 1.968V0h1.968" id="mfid40"/></defs><defs id="defs276"><path d="M0 .05h66.929v-6.005H0Z" id="mfid38"/></defs><defs id="defs265"><path d="M0 0h35.433v-1.968H0Z" id="mfid37"/></defs><defs id="defs256"><path d="M0 0h35.433v-1.968H0Z" id="mfid36"/></defs><defs id="defs247"><path d="M0 0a35.431 35.431 0 0 1 8.484-23.005" id="mfid35"/></defs><defs id="defs233"><path d="M35.433-1.968h-.787V0h.787M0-1.968h.787V0H0" id="mfid33"/></defs><defs id="defs238"><path d="M39.37 0v-5.905M0 0v-5.905" id="mfid34"/></defs><defs id="defs224"><path d="M35.433-1.968h-.787V0h.787zM0-1.968h.787V0H0Z" id="mfid32"/></defs><defs id="defs217"><path d="M39.37 0v-5.905h-1.968v1.968m0 1.968V0h1.968M0 0v-5.905h1.968v1.968m0 1.968V0H0" id="mfid31"/></defs><defs id="defs208"><path d="M39.37 0v-5.905h-1.968V0ZM0 0v-5.905h1.968V0Z" id="mfid30"/></defs><defs id="defs201"><path d="M-1.968.05h39.37v-6.005h-39.37Z" id="mfid29"/></defs><defs id="defs190"><path d="M.61-.357.98-.75M0-.546c0-.302.305-.546.682-.546.376 0 .681.244.681.546 0 .301-.305.546-.681.546C.305 0 0-.245 0-.546Z" id="mfid28"/></defs><defs id="defs176"><path d="M0 0h3.531v-.984H0Z" id="mfid26"/></defs><defs id="defs181"><path d="M0-.546c0-.302.305-.546.682-.546.376 0 .681.244.681.546 0 .301-.305.546-.681.546C.305 0 0-.245 0-.546Z" id="mfid27"/></defs><defs id="defs165"><path d="M0 0h3.839v-7.066a1.176 1.176 0 0 0-.903-.615.67.67 0 0 1-.326-.485v-.552H1.228v.552a.67.67 0 0 1-.326.486c-.383.044-.72.274-.902.614Z" id="mfid25"/></defs><defs id="defs156"><path d="M0 0h3.839v-7.066a1.176 1.176 0 0 0-.903-.615.67.67 0 0 1-.326-.485v-.552H1.228v.552a.67.67 0 0 1-.326.486c-.383.044-.72.274-.902.614Z" id="mfid24"/></defs><defs id="defs149"><path d="M3.003-7.825c-.587.035-1.42.002-1.968.199a1.284 1.284 0 0 0-.767.714c-.414.9-.246 2.505-.165 3.606.114 1.542.06 2.1.29 3.306H.7C.654-.566.554-.952.454-2.063c-.007-.069-.013-.14-.018-.21-.064-.787-.064-1.433-.09-2C.32-4.822.27-5.3.303-5.807c.03-.47.13-.967.4-1.283.407-.473 1.194-.537 2.07-.55Zm.008.123c.443-.626 1.382-.904 2.295-1.126l-.111.24a5.302 5.302 0 0 1-.975.361c-.09.026-.188.053-.28.082-.415.13-.685.295-.763.56Zm.022-.008c.821-.018 1.694-.147 2.473.007l-.116.166c-.154.014-.242-.074-.625-.024l-.014.001-.021.001c-.744.009-.967-.12-1.696-.15z" id="mfid23"/></defs><defs id="defs135"><path d="M0 0v-31.496h16.732V0Zm16.732-15.748h.985M16.732 0h.985v-31.496h-.985z" id="mfid21"/></defs><defs id="defs140"><path d="M3.003-7.825c-.587.035-1.42.002-1.968.199a1.284 1.284 0 0 0-.767.714c-.414.9-.246 2.505-.165 3.606.114 1.542.06 2.1.29 3.306H.7C.654-.566.554-.952.454-2.063c-.007-.069-.013-.14-.018-.21-.064-.787-.064-1.433-.09-2C.32-4.822.27-5.3.303-5.807c.03-.47.13-.967.4-1.283.407-.473 1.194-.537 2.07-.55Zm.008.123c.443-.626 1.382-.904 2.295-1.126l-.111.24a5.302 5.302 0 0 1-.975.361c-.09.026-.188.053-.28.082-.415.13-.685.295-.763.56Zm.022-.008c.821-.018 1.694-.147 2.473.007l-.116.166c-.154.014-.242-.074-.625-.024l-.014.001-.021.001c-.744.009-.967-.12-1.696-.15z" id="mfid22"/></defs><defs id="defs121"><path d="M0 0h.984v-.984H0Zm0-2.953h.984v-.984H0Z" id="mfid19"/></defs><defs id="defs126"><path d="M0 0v-31.496h16.732V0Zm16.732 0h.985v-31.496h-.985z" id="mfid20"/></defs><defs id="defs107"><path d="M0 0v-31.496h22.638V0Zm22.638-15.748h.984M22.638 0h.984v-31.496h-.984z" id="mfid17"/></defs><defs id="defs112"><path d="M0 0h.984v-.984H0Zm0-2.953h.984v-.984H0Z" id="mfid18"/></defs><defs id="defs98"><path d="M0 0v-31.496h22.638V0Zm22.638 0h.984v-31.496h-.984z" id="mfid16"/></defs><defs id="defs91"><path d="M0 0h.984v-.984H0Zm0-2.953h.984v-.984H0Z" id="mfid15"/></defs><defs id="defs77"><path d="M-5.905-5.905H172.44M0 0h166.54" id="mfid13"/></defs><defs id="defs82"><path d="M0 0h.984v-.984H0Zm0-2.953h.984v-.984H0Z" id="mfid14"/></defs><defs id="defs63"><path d="M-5.905-5.905H172.05M0 0h166.14" id="mfid11"/></defs><defs id="defs68"><path d="M-5.905-5.905H172.44L166.54 0H0Z" id="mfid12"/></defs><defs id="defs49"><path d="M-5.905-5.905H172.44M0 0h166.54" id="mfid9"/></defs><defs id="defs54"><path d="M-5.905-5.905H172.05L166.14 0H0Z" id="mfid10"/></defs><defs id="defs40"><path d="M-5.905-5.905H172.44L166.54 0H0Z" id="mfid8"/></defs><defs id="defs33"><path d="M-5.905-5.905H172.05M0 0h166.14" id="mfid7"/></defs><mask id="mfid3"><path stroke="none" id="rect14" d="M0 0h833v853H0z"/></mask><mask id="mfid4" stroke="none"><g id="g21"><g mask="url(#mfid3)" id="g19"><use id="use17" x="0" y="0" width="100%" height="100%" xlinkHref="#mfid2"/></g></g></mask><mask id="mfid5" fill-rule="evenodd" stroke="none"><path id="rect24" d="M0 0h833v853H0z"/></mask><clipPath id="mfid1"><path id="mfid2" d="M-.51-.511h833v852.98h-833z"/></clipPath></defs><path id="rect10" class="st1" d="M-100.833-30.686h624.501v639.014h-624.501z"/><g id="r203"><g id="g4480" class="any"><use transform="matrix(3.84 0 0 3.84 22.852 111.18)" height="100%" width="100%" y="0" x="0" id="use30" stroke="none" fill-rule="evenodd" xlinkHref="#mfid6"/><use transform="matrix(3.84 0 0 3.84 22.852 111.18)" height="100%" width="100%" y="0" x="0" id="use37" stroke="#000" stroke-width=".083" stroke-miterlimit="2" xlinkHref="#mfid7"/><use transform="matrix(0 3.84 -3.84 0 660.832 111.18)" height="100%" width="100%" y="0" x="0" id="use46" stroke="none" fill-rule="evenodd" stroke-width=".083" stroke-miterlimit="2" xlinkHref="#mfid8"/><use transform="matrix(0 3.84 -3.84 0 660.832 111.18)" height="100%" width="100%" y="0" x="0" id="use51" stroke="#000" stroke-width=".083" stroke-miterlimit="2" xlinkHref="#mfid9"/><use transform="rotate(180 330.416 375.34) scale(3.84)" height="100%" width="100%" y="0" x="0" id="use60" stroke="none" fill-rule="evenodd" stroke-width=".083" stroke-miterlimit="2" xlinkHref="#mfid10"/><use transform="rotate(180 330.416 375.34) scale(3.84)" height="100%" width="100%" y="0" x="0" id="use65" stroke="#000" stroke-width=".083" stroke-miterlimit="2" xlinkHref="#mfid11"/><use transform="matrix(0 -3.84 3.84 0 22.852 750.68)" height="100%" width="100%" y="0" x="0" id="use74" stroke="none" fill-rule="evenodd" stroke-width=".083" stroke-miterlimit="2" xlinkHref="#mfid12"/><use transform="matrix(0 -3.84 3.84 0 22.852 750.68)" height="100%" width="100%" y="0" x="0" id="use79" stroke="#000" stroke-width=".083" stroke-miterlimit="2" xlinkHref="#mfid13"/><use transform="rotate(180 285.061 83.8) scale(3.84)" height="100%" width="100%" y="0" x="0" id="use88" stroke="none" fill-rule="evenodd" stroke-width=".083" stroke-miterlimit="2" xlinkHref="#mfid14"/><use transform="rotate(180 285.061 83.8) scale(3.84)" height="100%" width="100%" y="0" x="0" id="use95" stroke="#658a82" stroke-width=".434" stroke-miterlimit="2" xlinkHref="#mfid15"/><use transform="rotate(180 330.416 57.34) scale(3.84)" height="100%" width="100%" y="0" x="0" id="use104" stroke="none" fill-rule="evenodd" stroke-width=".434" stroke-miterlimit="2" xlinkHref="#mfid16"/><use transform="rotate(180 330.416 57.34) scale(3.84)" height="100%" width="100%" y="0" x="0" id="use109" stroke="#658a82" stroke-width=".434" stroke-miterlimit="2" xlinkHref="#mfid17"/><use transform="rotate(90 75.781 258.5) scale(3.84)" height="100%" width="100%" y="0" x="0" id="use118" stroke="none" fill-rule="evenodd" stroke-width=".434" stroke-miterlimit="2" xlinkHref="#mfid18"/><use transform="rotate(90 75.781 258.5) scale(3.84)" height="100%" width="100%" y="0" x="0" id="use123" stroke="#658a82" stroke-width=".434" stroke-miterlimit="2" xlinkHref="#mfid19"/><use transform="rotate(90 83.346 198.026) scale(3.84)" height="100%" width="100%" y="0" x="0" id="use132" stroke="none" fill-rule="evenodd" stroke-width=".434" stroke-miterlimit="2" xlinkHref="#mfid20"/><use transform="rotate(90 83.346 198.026) scale(3.84)" height="100%" width="100%" y="0" x="0" id="use137" stroke="#658a82" stroke-width=".434" stroke-miterlimit="2" xlinkHref="#mfid21"/><use transform="matrix(3.84 0 0 3.84 25.992 144.8)" height="100%" width="100%" y="0" x="0" id="use146" stroke="none" fill-rule="evenodd" stroke-width=".434" stroke-miterlimit="2" xlinkHref="#mfid22"/><use transform="matrix(3.84 0 0 3.84 25.992 144.8)" height="100%" width="100%" y="0" x="0" id="use153" stroke="#000" stroke-width=".083" stroke-linecap="round" stroke-linejoin="round" xlinkHref="#mfid23"/><use transform="matrix(3.84 0 0 3.84 30.412 148.7)" height="100%" width="100%" y="0" x="0" id="use162" stroke="none" fill-rule="evenodd" stroke-width=".083" stroke-linecap="round" stroke-linejoin="round" xlinkHref="#mfid24"/><use transform="matrix(3.84 0 0 3.84 30.412 148.7)" height="100%" width="100%" y="0" x="0" id="use167" stroke="#000" stroke-width=".083" stroke-linecap="round" stroke-linejoin="round" xlinkHref="#mfid25"/><path id="rect173" stroke="none" stroke-width=".32" stroke-linecap="round" stroke-linejoin="round" d="M31.002 132.64h13.561v3.78H31.002z"/><use transform="matrix(3.84 0 0 3.84 31.002 136.42)" height="100%" width="100%" y="0" x="0" id="use178" stroke="#000" stroke-width=".083" stroke-linecap="round" stroke-linejoin="round" xlinkHref="#mfid26"/><use transform="matrix(3.84 0 0 3.84 35.162 118.34)" height="100%" width="100%" y="0" x="0" id="use187" stroke="none" fill-rule="evenodd" stroke-width=".083" stroke-linecap="round" stroke-linejoin="round" xlinkHref="#mfid27"/><use transform="matrix(3.84 0 0 3.84 35.162 118.34)" height="100%" width="100%" y="0" x="0" id="use192" stroke="#000" stroke-width=".083" stroke-linecap="round" stroke-linejoin="round" xlinkHref="#mfid28"/><path transform="scale(-1 1)" id="rect198" stroke="none" stroke-width=".32" stroke-linecap="round" stroke-linejoin="round" d="M-226.941 88.31H-75.76v23.061h-151.181z"/><use transform="matrix(-3.84 0 0 3.84 219.382 111.18)" height="100%" width="100%" y="0" x="0" id="use205" stroke="#fff" stroke-width=".083" stroke-linecap="round" stroke-linejoin="round" xlinkHref="#mfid29"/><use transform="matrix(-3.84 0 0 3.84 226.942 111.18)" height="100%" width="100%" y="0" x="0" id="use214" stroke="none" fill-rule="evenodd" stroke-width=".083" stroke-linecap="round" stroke-linejoin="round" xlinkHref="#mfid30"/><use transform="matrix(-3.84 0 0 3.84 226.942 111.18)" height="100%" width="100%" y="0" x="0" id="use221" stroke="#000" stroke-width=".083" stroke-linecap="round" stroke-linejoin="round" xlinkHref="#mfid31"/><use transform="matrix(-3.84 0 0 3.84 219.382 103.62)" height="100%" width="100%" y="0" x="0" id="use230" stroke="none" fill-rule="evenodd" stroke-width=".083" stroke-linecap="round" stroke-linejoin="round" xlinkHref="#mfid32"/><use transform="matrix(-3.84 0 0 3.84 219.382 103.62)" height="100%" width="100%" y="0" x="0" id="use235" stroke="#000" stroke-width=".083" stroke-linecap="round" stroke-linejoin="round" xlinkHref="#mfid33"/><use transform="matrix(-3.84 0 0 3.84 226.942 111.18)" height="100%" width="100%" y="0" x="0" id="use244" stroke="#000" stroke-width=".083" stroke-linecap="round" stroke-linejoin="round" xlinkHref="#mfid34"/><use transform="matrix(-3.84 0 0 3.84 219.382 88.5)" height="100%" width="100%" y="0" x="0" id="use253" stroke="#000" stroke-width=".083" stroke-linecap="round" stroke-linejoin="round" xlinkHref="#mfid35"/><use transform="scale(-3.84 3.84) rotate(40.486 -27.05 -66.919)" height="100%" width="100%" y="0" x="0" id="use262" stroke="none" fill-rule="evenodd" stroke-width=".083" stroke-linecap="round" stroke-linejoin="round" xlinkHref="#mfid36"/><use transform="scale(-3.84 3.84) rotate(40.486 -27.05 -66.919)" height="100%" width="100%" y="0" x="0" id="use267" stroke="#000" stroke-width=".083" stroke-linecap="round" stroke-linejoin="round" xlinkHref="#mfid37"/><path id="rect273" stroke="none" stroke-width=".32" stroke-linecap="round" stroke-linejoin="round" d="M83.322 750.48h257.007v23.061H83.322z"/><use transform="matrix(3.84 0 0 3.84 83.322 773.35)" height="100%" width="100%" y="0" x="0" id="use280" stroke="#fff" stroke-width=".083" stroke-linecap="round" stroke-linejoin="round" xlinkHref="#mfid38"/><use transform="matrix(3.84 0 0 3.84 83.322 773.35)" height="100%" width="100%" y="0" x="0" id="use285" stroke="none" fill-rule="evenodd" stroke-width=".083" stroke-linecap="round" stroke-linejoin="round" xlinkHref="#mfid39"/><use transform="matrix(3.84 0 0 3.84 83.322 773.35)" height="100%" width="100%" y="0" x="0" id="use292" stroke="#000" stroke-width=".083" stroke-linecap="round" stroke-linejoin="round" xlinkHref="#mfid40"/><use transform="matrix(3.84 0 0 3.84 90.882 765.79)" height="100%" width="100%" y="0" x="0" id="use301" stroke="none" fill-rule="evenodd" stroke-width=".083" stroke-linecap="round" stroke-linejoin="round" xlinkHref="#mfid41"/><use transform="matrix(3.84 0 0 3.84 90.882 765.79)" height="100%" width="100%" y="0" x="0" id="use306" stroke="#000" stroke-width=".083" stroke-linecap="round" stroke-linejoin="round" xlinkHref="#mfid42"/><use transform="matrix(3.84 0 0 3.84 98.442 762.01)" height="100%" width="100%" y="0" x="0" id="use315" stroke="#000" stroke-width=".083" stroke-linecap="round" stroke-linejoin="round" xlinkHref="#mfid43"/><use transform="matrix(3.84 0 0 3.84 83.322 773.35)" height="100%" width="100%" y="0" x="0" id="use324" stroke="#000" stroke-width=".083" stroke-linecap="round" stroke-linejoin="round" xlinkHref="#mfid44"/></g><g id="4" class="ws"><use transform="matrix(3.84 0 0 3.84 225.842 489.13)" height="100%" width="100%" y="0" x="0" id="use450" stroke="none" fill-rule="evenodd" stroke-width=".13" stroke-miterlimit="2" xlinkHref="#mfid58"/><use transform="matrix(3.84 0 0 3.84 225.842 489.13)" height="100%" width="100%" y="0" x="0" id="use457" stroke="#000" stroke-width=".26" stroke-miterlimit="2" xlinkHref="#mfid59"/><use transform="matrix(3.84 0 0 3.84 247.312 285.04)" height="100%" width="100%" y="0" x="0" id="use466" stroke="none" fill-rule="evenodd" stroke-width=".26" stroke-miterlimit="2" xlinkHref="#mfid60"/><use transform="matrix(3.84 0 0 3.84 249.802 282.54)" height="100%" width="100%" y="0" x="0" id="use475" stroke="none" fill-rule="evenodd" stroke-width=".26" stroke-miterlimit="2" xlinkHref="#mfid61"/><text stroke="none" x="281.952 297.952" y="301.09921 301.09921" id="text483" font-style="normal" font-weight="400" font-size="32" font-family="Calibri, swiss, sans-serif" stroke-miterlimit="10">4</text><use transform="rotate(-89.112 310.31 85.908) scale(3.83996)" height="100%" width="100%" y="0" x="0" id="use496" stroke="none" fill-rule="evenodd" stroke-width=".26" stroke-miterlimit="2" xlinkHref="#mfid62"/><use transform="rotate(-89.112 310.31 85.908) scale(3.83996)" height="100%" width="100%" y="0" x="0" id="use503" stroke="#000" stroke-width=".26" stroke-linecap="round" stroke-linejoin="round" xlinkHref="#mfid63"/><use transform="matrix(0 -3.84 3.84 0 206.132 408.06)" height="100%" width="100%" y="0" x="0" id="use512" stroke="none" fill-rule="evenodd" stroke-width=".26" stroke-linecap="round" stroke-linejoin="round" xlinkHref="#mfid64"/><use transform="matrix(0 -3.84 3.84 0 206.132 408.06)" height="100%" width="100%" y="0" x="0" id="use517" stroke="#000" stroke-width=".26" stroke-linecap="round" stroke-linejoin="round" xlinkHref="#mfid65"/><use transform="rotate(180 139.546 165.71) scale(3.84)" height="100%" width="100%" y="0" x="0" id="use526" stroke="none" fill-rule="evenodd" stroke-width=".26" stroke-linecap="round" stroke-linejoin="round" xlinkHref="#mfid66"/><use transform="rotate(180 139.546 165.71) scale(3.84)" height="100%" width="100%" y="0" x="0" id="use533" stroke="#000" stroke-width=".26" stroke-miterlimit="2" xlinkHref="#mfid67"/><use transform="matrix(-3.84 0 0 -3.84 254.712 343.31)" height="100%" width="100%" y="0" x="0" id="use542" stroke="none" fill-rule="evenodd" stroke-width=".26" stroke-miterlimit="2" xlinkHref="#mfid68"/><use transform="matrix(0 3.84 -3.84 0 266.772 331.42)" height="100%" width="100%" y="0" x="0" id="use551" stroke="none" fill-rule="evenodd" stroke-width=".26" stroke-miterlimit="2" xlinkHref="#mfid69"/><use transform="matrix(0 3.84 -3.84 0 266.772 331.42)" height="100%" width="100%" y="0" x="0" id="use558" stroke="#000" stroke-width=".13" stroke-miterlimit="2" xlinkHref="#mfid70"/></g><g id="3" class="ws"><use transform="matrix(3.84 0 0 3.84 226.042 740.09)" height="100%" width="100%" y="0" x="0" id="use333" stroke="none" fill-rule="evenodd" stroke-width=".083" stroke-linecap="round" stroke-linejoin="round" xlinkHref="#mfid45"/><use transform="matrix(3.84 0 0 3.84 226.042 740.09)" height="100%" width="100%" y="0" x="0" id="use340" stroke="#000" stroke-width=".26" stroke-miterlimit="2" xlinkHref="#mfid46"/><use transform="matrix(3.84 0 0 3.84 247.512 536)" height="100%" width="100%" y="0" x="0" id="use349" stroke="none" fill-rule="evenodd" stroke-width=".26" stroke-miterlimit="2" xlinkHref="#mfid47"/><use transform="matrix(3.84 0 0 3.84 250.002 533.5)" height="100%" width="100%" y="0" x="0" id="use358" stroke="none" fill-rule="evenodd" stroke-width=".26" stroke-miterlimit="2" xlinkHref="#mfid48"/><text stroke="none" x="281.952 297.952" y="542.7392 542.7392" id="text366" font-style="normal" font-weight="400" font-size="32" font-family="Calibri, swiss, sans-serif" stroke-miterlimit="10">3</text><use transform="rotate(-89.112 437.862 211.286) scale(3.83996)" height="100%" width="100%" y="0" x="0" id="use379" stroke="none" fill-rule="evenodd" stroke-width=".26" stroke-miterlimit="2" xlinkHref="#mfid49"/><use transform="rotate(-89.112 437.862 211.286) scale(3.83996)" height="100%" width="100%" y="0" x="0" id="use386" stroke="#000" stroke-width=".26" stroke-linecap="round" stroke-linejoin="round" xlinkHref="#mfid50"/><use transform="matrix(0 -3.84 3.84 0 206.332 659.02)" height="100%" width="100%" y="0" x="0" id="use395" stroke="none" fill-rule="evenodd" stroke-width=".26" stroke-linecap="round" stroke-linejoin="round" xlinkHref="#mfid51"/><use transform="matrix(0 -3.84 3.84 0 206.332 659.02)" height="100%" width="100%" y="0" x="0" id="use400" stroke="#000" stroke-width=".26" stroke-linecap="round" stroke-linejoin="round" xlinkHref="#mfid52"/><use transform="rotate(180 139.651 291.19) scale(3.84)" height="100%" width="100%" y="0" x="0" id="use409" stroke="none" fill-rule="evenodd" stroke-width=".26" stroke-linecap="round" stroke-linejoin="round" xlinkHref="#mfid53"/><use transform="rotate(180 139.651 291.19) scale(3.84)" height="100%" width="100%" y="0" x="0" id="use416" stroke="#000" stroke-width=".26" stroke-miterlimit="2" xlinkHref="#mfid54"/><use transform="matrix(-3.84 0 0 -3.84 254.912 594.27)" height="100%" width="100%" y="0" x="0" id="use425" stroke="none" fill-rule="evenodd" stroke-width=".26" stroke-miterlimit="2" xlinkHref="#mfid55"/><use transform="matrix(0 3.84 -3.84 0 266.972 582.38)" height="100%" width="100%" y="0" x="0" id="use434" stroke="none" fill-rule="evenodd" stroke-width=".26" stroke-miterlimit="2" xlinkHref="#mfid56"/><use transform="matrix(0 3.84 -3.84 0 266.972 582.38)" height="100%" width="100%" y="0" x="0" id="use441" stroke="#000" stroke-width=".13" stroke-miterlimit="2" xlinkHref="#mfid57"/><path id="rect564" stroke="none" stroke-width=".5" stroke-miterlimit="2" d="M226.392 489.89h120.945v7.559H226.392z"/></g><g id="2" class="ws"><use transform="rotate(180 232.941 249.1) scale(3.84)" height="100%" width="100%" y="0" x="0" id="use697" stroke="none" fill-rule="evenodd" stroke-width=".13" stroke-miterlimit="2" xlinkHref="#mfid85"/><use transform="rotate(180 232.941 249.1) scale(3.84)" height="100%" width="100%" y="0" x="0" id="use704" stroke="#000" stroke-width=".26" stroke-miterlimit="2" xlinkHref="#mfid86"/><use transform="matrix(-3.84 0 0 -3.84 444.412 702.3)" height="100%" width="100%" y="0" x="0" id="use713" stroke="none" fill-rule="evenodd" stroke-width=".26" stroke-miterlimit="2" xlinkHref="#mfid87"/><use transform="matrix(-3.84 0 0 -3.84 441.922 704.79)" height="100%" width="100%" y="0" x="0" id="use722" stroke="none" fill-rule="evenodd" stroke-width=".26" stroke-miterlimit="2" xlinkHref="#mfid88"/><text stroke="none" x="397.89197 413.89197" y="542.7392 542.7392" id="text730" font-style="normal" font-weight="400" font-size="32" font-family="Calibri, swiss, sans-serif" stroke-miterlimit="10">2</text><use transform="rotate(90.888 -55.62 528.668) scale(3.83996)" height="100%" width="100%" y="0" x="0" id="use743" stroke="none" fill-rule="evenodd" stroke-width=".26" stroke-miterlimit="2" xlinkHref="#mfid89"/><use transform="rotate(90.888 -55.62 528.668) scale(3.83996)" height="100%" width="100%" y="0" x="0" id="use750" stroke="#000" stroke-width=".26" stroke-linecap="round" stroke-linejoin="round" xlinkHref="#mfid90"/><use transform="rotate(90 -46.839 532.43) scale(3.84)" height="100%" width="100%" y="0" x="0" id="use759" stroke="none" fill-rule="evenodd" stroke-width=".26" stroke-linecap="round" stroke-linejoin="round" xlinkHref="#mfid91"/><use transform="rotate(90 -46.839 532.43) scale(3.84)" height="100%" width="100%" y="0" x="0" id="use764" stroke="#000" stroke-width=".26" stroke-linecap="round" stroke-linejoin="round" xlinkHref="#mfid92"/><use transform="matrix(3.84 0 0 3.84 412.632 655.91)" height="100%" width="100%" y="0" x="0" id="use773" stroke="none" fill-rule="evenodd" stroke-width=".26" stroke-linecap="round" stroke-linejoin="round" xlinkHref="#mfid93"/><use transform="matrix(3.84 0 0 3.84 412.632 655.91)" height="100%" width="100%" y="0" x="0" id="use780" stroke="#000" stroke-width=".26" stroke-miterlimit="2" xlinkHref="#mfid94"/><use transform="matrix(3.84 0 0 3.84 437.012 644.03)" height="100%" width="100%" y="0" x="0" id="use789" stroke="none" fill-rule="evenodd" stroke-width=".26" stroke-miterlimit="2" xlinkHref="#mfid95"/><use transform="matrix(0 -3.84 3.84 0 424.952 655.92)" height="100%" width="100%" y="0" x="0" id="use798" stroke="none" fill-rule="evenodd" stroke-width=".26" stroke-miterlimit="2" xlinkHref="#mfid96"/><use transform="matrix(0 -3.84 3.84 0 424.952 655.92)" height="100%" width="100%" y="0" x="0" id="use805" stroke="#000" stroke-width=".13" stroke-miterlimit="2" xlinkHref="#mfid97"/></g><g id="1" class="ws"><use transform="rotate(180 232.841 123.62) scale(3.84)" height="100%" width="100%" y="0" x="0" id="use580" stroke="none" fill-rule="evenodd" stroke-width=".083" stroke-linecap="round" stroke-linejoin="round" xlinkHref="#mfid72"/><use transform="rotate(180 232.841 123.62) scale(3.84)" height="100%" width="100%" y="0" x="0" id="use587" stroke="#000" stroke-width=".26" stroke-miterlimit="2" xlinkHref="#mfid73"/><use transform="rotate(180 222.106 225.67) scale(3.84)" height="100%" width="100%" y="0" x="0" id="use596" stroke="none" fill-rule="evenodd" stroke-width=".26" stroke-miterlimit="2" xlinkHref="#mfid74"/><use transform="matrix(-3.84 0 0 -3.84 441.722 453.83)" height="100%" width="100%" y="0" x="0" id="use605" stroke="none" fill-rule="evenodd" stroke-width=".26" stroke-miterlimit="2" xlinkHref="#mfid75"/><text stroke="none" x="397.89197 413.89197" y="299.32922 299.32922" id="text613" font-style="normal" font-weight="400" font-size="32" font-family="Calibri, swiss, sans-serif" stroke-miterlimit="10">1</text><use transform="rotate(90.888 67.824 403.085) scale(3.83996)" height="100%" width="100%" y="0" x="0" id="use626" stroke="none" fill-rule="evenodd" stroke-width=".26" stroke-miterlimit="2" xlinkHref="#mfid76"/><use transform="rotate(90.888 67.824 403.085) scale(3.83996)" height="100%" width="100%" y="0" x="0" id="use633" stroke="#000" stroke-width=".26" stroke-linecap="round" stroke-linejoin="round" xlinkHref="#mfid77"/><use transform="rotate(90 78.541 406.85) scale(3.84)" height="100%" width="100%" y="0" x="0" id="use642" stroke="none" fill-rule="evenodd" stroke-width=".26" stroke-linecap="round" stroke-linejoin="round" xlinkHref="#mfid78"/><use transform="rotate(90 78.541 406.85) scale(3.84)" height="100%" width="100%" y="0" x="0" id="use647" stroke="#000" stroke-width=".26" stroke-linecap="round" stroke-linejoin="round" xlinkHref="#mfid79"/><use transform="matrix(3.84 0 0 3.84 412.432 404.95)" height="100%" width="100%" y="0" x="0" id="use656" stroke="none" fill-rule="evenodd" stroke-width=".26" stroke-linecap="round" stroke-linejoin="round" xlinkHref="#mfid80"/><use transform="matrix(3.84 0 0 3.84 412.432 404.95)" height="100%" width="100%" y="0" x="0" id="use663" stroke="#000" stroke-width=".26" stroke-miterlimit="2" xlinkHref="#mfid81"/><use transform="matrix(3.84 0 0 3.84 436.812 393.07)" height="100%" width="100%" y="0" x="0" id="use672" stroke="none" fill-rule="evenodd" stroke-width=".26" stroke-miterlimit="2" xlinkHref="#mfid82"/><use transform="matrix(0 -3.84 3.84 0 424.752 404.96)" height="100%" width="100%" y="0" x="0" id="use681" stroke="none" fill-rule="evenodd" stroke-width=".26" stroke-miterlimit="2" xlinkHref="#mfid83"/><use transform="matrix(0 -3.84 3.84 0 424.752 404.96)" height="100%" width="100%" y="0" x="0" id="use688" stroke="#000" stroke-width=".13" stroke-miterlimit="2" xlinkHref="#mfid84"/><path id="rect811" stroke="none" stroke-width=".5" stroke-miterlimit="2" d="M344.942 489.41h120.945v7.559H344.942z"/></g><g id="g4243" class="wp" stroke="#000" stroke-width=".083" stroke-linecap="round" stroke-linejoin="round"><use transform="matrix(3.84 0 0 3.84 226.392 497.45)" height="100%" width="100%" y="0" x="0" id="use571" xlinkHref="#mfid71"/><use transform="matrix(3.84 0 0 3.84 344.942 496.97)" height="100%" width="100%" y="0" x="0" id="use818" xlinkHref="#mfid98"/></g></g><path id="rect832" class="st1" d="M-100.833-30.686h624.501v639.014h-624.501z"/></svg>