<svg xmlns="http://www.w3.org/2000/svg" id="svg460" version="1.1" class="st14" color-interpolation-filters="sRGB" viewBox="0 0 378.357 755.692" height="1007.586" width="504.477" fill="none"><g id="c210"><g id="1" class="ws"><path d="m236.887 37.347-4.92-12.29h-79.94l-4.92 12.29v420.47l4.92 12.28h79.94l4.92-12.28z" class="st4" id="path137"/><path d="M147.107 247.577h89.78" class="st5" id="path139"/><path d="m236.887 37.347-4.92-12.29h-79.94l-4.92 12.29v420.47l4.92 12.28h79.94l4.92-12.28V37.347" class="st5" id="path141"/><path d="M230.737 28.127h-77.48l-4.92 12.29v414.33l4.92 12.28h77.48l4.92-12.28V40.417zm-83.63 9.22 4.92-12.29h79.94l4.92 12.29v420.47l-4.92 12.28h-79.94l-4.92-12.28z" class="st6" id="path146"/><path d="m162.41 61.916-2.48-6.15h64.13l-2.48 6.15zm59.71.82 2.46-6.1v381.88l-2.46-6.1zm-.54 370.51 2.48 6.14h-64.13l2.48-6.14zm-62.17 5.27V56.636l2.46 6.1v369.68z" class="st7" id="path151"/><path d="m236.887 37.347-4.92-12.29h-79.94l-4.92 12.29v420.47l4.92 12.28h79.94l4.92-12.28z" class="st8" id="path156"/><rect x="100.344" y="46.916" width="37.332" height="37.332" rx="3" ry="3" class="st9" id="rect164"/><rect x="100.344" y="46.916" width="6.944" height="37.332" rx="3" ry="3" class="st9" id="rect169"/><rect x="100.344" y="107.139" width="37.332" height="37.332" rx="3" ry="3" class="st9" id="rect177"/><rect x="100.344" y="107.139" width="6.944" height="37.332" rx="3" ry="3" class="st9" id="rect182"/><rect x="100.344" y="168.324" width="37.332" height="37.332" rx="3" ry="3" class="st9" id="rect190"/><rect x="100.344" y="168.324" width="6.944" height="37.332" rx="3" ry="3" class="st9" id="rect195"/><rect x="100.344" y="229.51" width="37.332" height="37.332" rx="3" ry="3" class="st9" id="rect203"/><rect x="100.344" y="229.51" width="6.944" height="37.332" rx="3" ry="3" class="st9" id="rect208"/><rect x="100.344" y="290.695" width="37.332" height="37.332" rx="3" ry="3" class="st9" id="rect216"/><rect x="100.344" y="290.695" width="6.944" height="37.332" rx="3" ry="3" class="st9" id="rect221"/><rect transform="rotate(-90)" x="-518.286" y="170.514" width="37.332" height="37.332" rx="3" ry="3" class="st9" id="rect229"/><rect transform="rotate(-90)" x="-518.286" y="170.514" width="6.944" height="37.332" rx="3" ry="3" class="st9" id="rect234"/><rect transform="rotate(179.9)" x="-282.155" y="-328.49" width="37.332" height="37.332" rx="3" ry="3" class="st9" id="rect242"/><rect transform="rotate(179.9)" x="-282.155" y="-328.49" width="6.944" height="37.332" rx="3" ry="3" class="st9" id="rect247"/><rect transform="rotate(179.9)" x="-282.154" y="-268.26" width="37.332" height="37.332" rx="3" ry="3" class="st9" id="rect255"/><rect transform="rotate(179.9)" x="-282.154" y="-268.26" width="6.944" height="37.332" rx="3" ry="3" class="st9" id="rect260"/><rect transform="rotate(179.9)" x="-282.155" y="-207.08" width="37.332" height="37.332" rx="3" ry="3" class="st9" id="rect268"/><rect transform="rotate(179.9)" x="-282.155" y="-207.08" width="6.944" height="37.332" rx="3" ry="3" class="st9" id="rect273"/><rect transform="rotate(179.9)" x="-282.155" y="-145.892" width="37.332" height="37.332" rx="3" ry="3" class="st9" id="rect281"/><rect transform="rotate(179.9)" x="-282.155" y="-145.892" width="6.944" height="37.332" rx="3" ry="3" class="st9" id="rect286"/><rect transform="rotate(179.9)" x="-282.155" y="-84.707" width="37.332" height="37.332" rx="3" ry="3" class="st9" id="rect294"/><rect transform="rotate(179.9)" x="-282.155" y="-84.707" width="6.944" height="37.332" rx="3" ry="3" class="st9" id="rect299"/><rect x="98.471" y="348.208" width="37.332" height="37.332" rx="3" ry="3" class="st9" id="rect307"/><rect x="98.471" y="348.208" width="6.944" height="37.332" rx="3" ry="3" class="st9" id="rect312"/><rect x="98.471" y="409.393" width="37.332" height="37.332" rx="3" ry="3" class="st9" id="rect320"/><rect x="98.471" y="409.393" width="6.944" height="37.332" rx="3" ry="3" class="st9" id="rect325"/><rect transform="rotate(179.9)" x="-281.95" y="-446.25" width="37.332" height="37.332" rx="3" ry="3" class="st9" id="rect333"/><rect transform="rotate(179.9)" x="-281.95" y="-446.25" width="6.944" height="37.332" rx="3" ry="3" class="st9" id="rect338"/><rect transform="rotate(179.9)" x="-281.949" y="-386.03" width="37.332" height="37.332" rx="3" ry="3" class="st9" id="rect346"/><rect transform="rotate(179.9)" x="-281.949" y="-386.03" width="6.944" height="37.332" rx="3" ry="3" class="st9" id="rect351"/></g><g id="g1405" class="any"><path id="path12" class="st1" d="M.676 689.78V.68l4.25 4.25v680.6z"/><path transform="rotate(135)" id="rect17" class="st2" d="M481.257-488.654h6.013v.425h-6.013z"/><path transform="rotate(45)" id="rect22" class="st2" d="M.952-.421h6.013v.425H.952z"/><path id="path30" class="st3" d="M.676 689.78V.68"/><path id="path32" class="st3" d="M4.926 685.53V4.93"/><path transform="rotate(-135)" id="rect48" class="st2" d="M-6.973-.431H-.96v.425h-6.013z"/><path id="path43" class="st1" d="M.677.68h377.01l-4.26 4.25H4.927z"/><path transform="rotate(135)" id="rect53" class="st2" d="M-266.584-267.964h6.013v.425h-6.013z"/><path id="path61" class="st3" d="M.677.68h377.01"/><path id="path63" class="st3" d="M4.927 4.93h368.5"/><path transform="rotate(-45)" id="rect79" class="st2" d="M260.563 267.114h6.013v.425h-6.013z"/><path id="path74" class="st1" d="M377.68.682v689.1l-4.25-4.25V4.932z"/><path transform="rotate(-135)" id="rect84" class="st2" d="M-754.817-221.115h6.013v.425h-6.013z"/><path id="path92" class="st3" d="M377.68.682v689.1"/><path id="path94" class="st3" d="M373.43 4.932v680.6"/><path transform="rotate(45)" id="rect110" class="st2" d="M748.796 220.26h6.013v.425h-6.013z"/><path id="path105" class="st1" d="M377.68 689.781H.67l4.26-4.25h368.5z"/><path transform="rotate(-45)" id="rect115" class="st2" d="M-487.276 487.805h6.013v.425h-6.013z"/><path id="path123" class="st3" d="M377.68 689.781H.67"/><path id="path125" class="st3" d="M373.43 685.531H4.93"/><path d="M112.644 5.08h153.07V.54h-153.07z" class="st10" id="path359"/><path d="M114.06 2.093h1.42v1.42h-1.42zm150.24 0h-1.42v1.42h1.42z" class="st9" id="path380"/><path d="M115.478 2.804h147.4" class="st12" id="path385"/><path d="M112.644 4.93V.68" class="st12" id="path390"/><path d="M265.714 4.93V.68" class="st12" id="path392"/><path d="M112.644 4.93V.68h1.42v4.25zm153.07 0V.68h-1.42v4.25z" class="st11" id="path373"/><path d="M112.644 4.93V.68h1.42V2.1m0 1.41v1.42h-1.42m153.07 0V.68h-1.42V2.1m0 1.41v1.42h1.42" class="st12" id="path375"/><path d="M162.253 685.386H61.623v4.54h100.63z" class="st10" id="path403"/><path d="M63.033 688.374h.57v-1.42h-.57zm97.8 0h-.57v-1.42h.57z" class="st11" id="path424"/><path d="M63.033 688.374h.57v-1.42h-.57m97.8 1.42h-.57v-1.42h.57" class="st12" id="path426"/><path d="M61.62 685.536v4.25" class="st12" id="path431"/><path d="M162.25 685.536v4.25" class="st12" id="path433"/><path d="M61.62 685.536v4.25h1.42v-4.25zm100.63 0v4.25h-1.42v-4.25z" class="st11" id="path417"/><path d="M61.62 685.536v4.25h1.42v-1.42m0-1.41v-1.42h-1.42m100.63 0v4.25h-1.42v-1.42m0-1.41v-1.42h1.42" class="st12" id="path419"/><path transform="rotate(-137.726)" class="st9" id="rect443" d="M-608.441-467.998h97.795v1.417h-97.795z"/><path transform="rotate(137.726)" class="st13" id="rect451" d="M318.609-553.172h97.795v1.417h-97.795z"/></g></g></svg>