<svg xmlns="http://www.w3.org/2000/svg" width="1670.909" height="1195.834" viewBox="0 0 1253.18 896.877" color-interpolation-filters="sRGB" class="st16" fill="none"><g id="group630-1" transform="rotate(-90 301.552 317.916)"><g id="group631-2" transform="translate(0 -733.077)"><g id="shape632-3"><path d="M-4.25 892.63h457.94l-4.26 4.25H0l-4.25-4.25Z" class="st1"/></g><g id="shape633-6" transform="rotate(-135 .001 896.88)"><path class="st2" d="M0 896.452h6.013v.425H0z"/></g><g id="shape634-8" transform="rotate(135 227.722 988.71)"><path class="st2" d="M0 896.452h6.013v.425H0z"/></g><g id="shape636-12"><path d="M-4.25 892.63h457.94M0 896.88h449.43" class="st3"/></g></g><g id="group638-18" transform="rotate(90 591.255 755.055)"><g id="shape639-19"><path d="M-4.25 892.63h741.58l-4.25 4.25H0l-4.25-4.25Z" class="st1"/></g><g id="shape640-22" transform="rotate(-135 .001 896.88)"><path class="st2" d="M0 896.452h6.013v.425H0z"/></g><g id="shape641-24" transform="rotate(135 369.547 1047.456)"><path class="st2" d="M0 896.452h6.013v.425H0z"/></g><g id="shape643-28"><path d="M-4.25 892.63h741.58M0 896.88h733.08" class="st3"/></g></g><g id="group645-34" transform="rotate(180 224.716 896.875)"><g id="shape646-35"><path d="M-4.25 892.63h457.94l-4.26 4.25H0l-4.25-4.25Z" class="st1"/></g><g id="shape647-38" transform="rotate(-135 .001 896.88)"><path class="st2" d="M0 896.452h6.013v.425H0z"/></g><g id="shape648-40" transform="rotate(135 227.722 988.71)"><path class="st2" d="M0 896.452h6.013v.425H0z"/></g><g id="shape650-44"><path d="M-4.25 892.63h457.94M0 896.88h449.43" class="st3"/></g></g><g id="group652-50" transform="rotate(-90 0 896.877)"><g id="shape653-51"><path d="M-4.25 892.63h741.58l-4.25 4.25H0l-4.25-4.25Z" class="st1"/></g><g id="shape654-54" transform="rotate(-135 .001 896.88)"><path class="st2" d="M0 896.452h6.013v.425H0z"/></g><g id="shape655-56" transform="rotate(135 369.547 1047.456)"><path class="st2" d="M0 896.452h6.013v.425H0z"/></g><g id="shape657-60"><path d="M-4.25 892.63h741.58M0 896.88h733.08" class="st3"/></g></g></g><g id="group714-66" transform="rotate(44.3 961.964 1532.407)"><g id="shape715-67"><path d="M10.91 853.43a157.589 157.613-180 0 0-.03 22.18 28.16 28.16-180 0 0 13.34 13.19h17.51a4.03 4.03 0 0 1 3.8 2.65h2.93A16.145 16.145-180 0 0 64.6 875.3v-21.53a16.137 16.137-180 0 0-16.14-16.14h-2.94a4.04 4.04 0 0 1-3.81 2.73H24.08a28.16 28.16-180 0 0-13.17 13.07Zm-.13 11.16a57.393 57.402 0 0 1 1.4-18.84 3.01 3.01-180 0 0-4.04-4.03 30.789 30.793-180 0 0-8.06 22.87 30.203 30.207-180 0 0 8.06 22.87 3.033 3.033-180 0 0 4.04-4.04 55.756 55.764 0 0 1-1.4-18.83Zm34.99 28.24a4.039 4.039-180 0 0-4.04-4.04H17.52a4.034 4.034-180 0 0-4.04 4.04 4.04 4.04-180 0 0 4.04 4.05h24.21a4.045 4.045-180 0 0 4.04-4.05Zm-.03-56.52a4.023 4.023-180 0 0-4.01-4.03H17.52a4.055 4.055-180 0 0-4.06 4.05 4.049 4.049-180 0 0 4.06 4.04h24.21a4.024 4.024-180 0 0 4.01-4.04v-.02Z" class="st4"/><path d="M10.91 853.43a157.589 157.613-180 0 0-.03 22.18 28.16 28.16-180 0 0 13.34 13.19h17.51a4.03 4.03 0 0 1 3.8 2.65h2.93A16.145 16.145-180 0 0 64.6 875.3v-21.53a16.137 16.137-180 0 0-16.14-16.14h-2.94a4.04 4.04 0 0 1-3.81 2.73H24.08a28.16 28.16-180 0 0-13.17 13.07m-.13 11.16a57.393 57.402 0 0 1 1.4-18.84 3.01 3.01-180 0 0-4.04-4.03 30.789 30.793-180 0 0-8.06 22.87 30.203 30.207-180 0 0 8.06 22.87 3.033 3.033-180 0 0 4.04-4.04 55.756 55.764 0 0 1-1.4-18.83m34.99 28.24a4.039 4.039-180 0 0-4.04-4.04H17.52a4.034 4.034-180 0 0-4.04 4.04 4.04 4.04-180 0 0 4.04 4.05h24.21a4.045 4.045-180 0 0 4.04-4.05m-.03-56.52a4.023 4.023-180 0 0-4.01-4.03H17.52a4.055 4.055-180 0 0-4.06 4.05 4.049 4.049-180 0 0 4.06 4.04h24.21a4.024 4.024-180 0 0 4.01-4.04" class="st5"/></g></g><g id="group716-70" transform="rotate(-90.7 243.641 273.067)"><path d="M0 759.4v137.48h134.94v-65.2H65.2V759.4H0Z" class="st6" id="shape716-71"/></g><g id="group717-73" transform="rotate(179.3 435.784 608.97)"><g id="shape717-74"><path class="st6" d="M0 839.06h65.197v57.818H0z"/><text x="-39.27" y="-860.77" transform="rotate(180)" class="st7">5</text></g></g><g id="group718-77" transform="rotate(-135.7 347.76 508.983)"><g id="shape719-78" transform="rotate(180 20.805 876.515)"><path class="st6" d="M0 857.314h38.143v39.563H0z"/></g><g id="shape720-80" transform="rotate(180 30.052 875.93)"><path class="st6" d="M0 854.987h15.026v41.891H0z"/></g><g id="shape721-82" transform="rotate(180 19.65 877.675)"><path d="m8.97 896.88 10.85-3.85v-27.26l-10.85-3.8a235.919 233.239-180 0 0 0 34.91Zm10.85-3.85h18.44a91.622 90.962-180 0 0 0-27.26H19.82v27.26Zm-18.78 3.85h7.93a235.919 233.239 0 0 1 0-34.91H1.04a150.587 148.876-180 0 0 0 34.91Z" class="st6"/></g><g id="shape722-84" transform="rotate(-90 5.81 855.876)"><path class="st8" d="M0 896.588h1.164v.289H0z"/></g><g id="shape723-86" transform="rotate(-90 28.319 867.404)"><path d="M2.62 886.76h1.45v-1.44H2.62v1.44Zm1.74 0h1.46v-1.44H4.36v1.44Zm1.75 0h1.45v-1.44H6.11v1.44Zm1.74 0h1.46v-1.44H7.85v1.44Zm11.2 0h1.46v-1.44h-1.46v1.44Zm1.75 0h1.45v-1.44H20.8v1.44Zm1.75 0H24v-1.44h-1.45v1.44Zm1.74 0h1.46v-1.44h-1.46v1.44ZM0 889.65h2.33v-1.44H0v1.44Zm2.62 0h1.45v-1.44H2.62v1.44Zm1.74 0h1.46v-1.44H4.36v1.44Zm1.75 0h1.45v-1.44H6.11v1.44Zm1.74 0h1.46v-1.44H7.85v1.44Zm1.75 0h1.45v-1.44H9.6v1.44Zm1.75 0h1.45v-1.44h-1.45v1.44Zm1.74 0h1.46v-1.44h-1.46v1.44Zm1.75 0h1.45v-1.44h-1.45v1.44Zm1.74 0h1.46v-1.44h-1.46v1.44Zm1.75 0h1.45v-1.44h-1.45v1.44Zm1.74 0h1.46v-1.44h-1.46v1.44Zm1.75 0h1.45v-1.44h-1.45v1.44Zm-19.2 1.81h1.45v-1.45H2.62v1.45Zm1.74 0h1.46v-1.45H4.36v1.45Zm1.75 0h1.45v-1.45H6.11v1.45Zm1.74 0h1.46v-1.45H7.85v1.45Zm1.75 0h1.45v-1.45H9.6v1.45Zm1.75 0h1.45v-1.45h-1.45v1.45Zm1.74 0h1.46v-1.45h-1.46v1.45Zm1.75 0h1.45v-1.45h-1.45v1.45Zm1.74 0h1.46v-1.45h-1.46v1.45Zm1.75 0h1.45v-1.45h-1.45v1.45Zm1.74 0h1.46v-1.45h-1.46v1.45Zm1.75 0h1.45v-1.45h-1.45v1.45Zm-19.2 1.81h1.45v-1.45H2.62v1.45Zm1.74 0h1.46v-1.45H4.36v1.45Zm1.75 0h1.45v-1.45H6.11v1.45Zm1.74 0h1.46v-1.45H7.85v1.45Zm1.75 0h1.45v-1.45H9.6v1.45Zm1.75 0h1.45v-1.45h-1.45v1.45Zm1.74 0h1.46v-1.45h-1.46v1.45Zm1.75 0h1.45v-1.45h-1.45v1.45Zm1.74 0h1.46v-1.45h-1.46v1.45Zm1.75 0h1.45v-1.45h-1.45v1.45Zm1.74 0h1.46v-1.45h-1.46v1.45Zm1.75 0h1.45v-1.45h-1.45v1.45Zm-19.2 1.8h1.45v-1.44H2.62v1.44Zm1.74 0h1.46v-1.44H4.36v1.44Zm1.75 0h1.45v-1.44H6.11v1.44Zm1.74 0h1.46v-1.44H7.85v1.44Zm1.75 0h1.45v-1.44H9.6v1.44Zm1.75 0h1.45v-1.44h-1.45v1.44Zm1.74 0h1.46v-1.44h-1.46v1.44Zm1.75 0h1.45v-1.44h-1.45v1.44Zm1.74 0h1.46v-1.44h-1.46v1.44Zm1.75 0h1.45v-1.44h-1.45v1.44Zm1.74 0h1.46v-1.44h-1.46v1.44Zm-13.96 1.81h11.93v-1.45H6.11v1.45Zm26.47 0h3.49v-1.45h-3.49v1.45Zm3.78 0h1.46v-1.45h-1.46v1.45Zm0-1.81h1.46v-1.44h-1.46v1.44Zm-1.89 0h1.46v-1.44h-1.46v1.44Zm-1.89 0h1.46v-1.44h-1.46v1.44Zm0-1.8h1.46v-1.45h-1.46v1.45Zm0-1.81h1.46v-1.45h-1.46v1.45Zm1.89 0h1.46v-1.45h-1.46v1.45Zm1.89 0h1.46v-1.45h-1.46v1.45Zm0 1.81h1.46v-1.45h-1.46v1.45Zm-1.89 0h1.46v-1.45h-1.46v1.45Z" class="st9"/></g><g id="shape724-88" transform="rotate(-90 28.319 867.404)"><path d="M0 886.76h1.45v-1.44H0v1.44Zm0 4.7h2.33v-1.45H0v1.45Zm0 1.81h2.33v-1.45H0v1.45Zm0 1.8h2.33v-1.44H0v1.44Zm0 1.81h2.33v-1.45H0v1.45Zm2.62 0h1.45v-1.45H2.62v1.45Zm1.74 0h1.46v-1.45H4.36v1.45Zm13.97 0h1.45v-1.45h-1.45v1.45Zm1.74 0h1.46v-1.45h-1.46v1.45Zm1.75 0h1.45v-1.45h-1.45v1.45Zm1.74 0h2.33v-1.45h-2.33v1.45Zm3.2 0h1.46v-1.45h-1.46v1.45Zm1.75 0h1.45v-1.45h-1.45v1.45Zm1.74 0h1.46v-1.45h-1.46v1.45Zm8 0h1.46v-3.18h-1.46v3.18Zm0-3.47h1.46v-3.4h-1.46v3.4Zm0-3.76h1.46v-1.44h-1.46v1.44Zm-1.89 0h1.46v-1.44h-1.46v1.44Zm-1.89 0h1.46v-1.44h-1.46v1.44Zm-1.89 0h1.46v-1.44h-1.46v1.44Zm-2.33 0h1.46v-1.44h-1.46v1.44Zm0 1.81h1.46v-1.45h-1.46v1.45Zm-1.74 3.61h1.45v-1.44h-1.45v1.44Zm-6.69-.02h4.07v-1.45h-4.07v1.45Zm1.74-1.83h2.33v-3.18h-2.33v3.18Zm3.2-1.76h1.46v-1.45h-1.46v1.45Zm1.75 0h1.45v-1.45h-1.45v1.45Zm0-1.81h1.45v-1.44h-1.45v1.44Zm-4.95 0h2.33v-1.44h-2.33v1.44Zm13.97-3.75h1.16v-.29h-1.16v.29Zm-1.75 0h1.17v-.29h-1.17v.29Zm-5.53.86h1.46v-1.44h-1.46v1.44Zm-1.74 0h1.45v-1.44h-1.45v1.44Zm-1.75 0h1.46v-1.44h-1.46v1.44Zm-10.76 0h1.45v-1.44H16v1.44Zm-1.75 0h1.46v-1.44h-1.46v1.44Zm-1.74 0h1.45v-1.44h-1.45v1.44Zm-1.75 0h1.46v-1.44h-1.46v1.44Zm16 2.89h1.46v-1.44h-1.46v1.44Z" class="st10"/></g></g><g id="group725-90" transform="rotate(179.465 436.812 705.71)"><path class="st6" d="M0 891.208h137.482v5.669H0z" id="shape725-93"/></g><g id="group727-95" transform="rotate(-90.7 247.85 270.224)"><path class="st6" d="M0 891.208h134.938v5.669H0z" id="shape727-98"/></g><g id="group729-100" transform="rotate(-90.7 180.38 203.574)"><path class="st6" d="M0 891.208h57.818v5.669H0z" id="shape729-103"/></g><g id="group758-105" transform="rotate(-90 150.46 467.298)"><g id="shape760-108" transform="translate(46.772 -39.685)"><path d="M0 896.88h2.83v-2.84H0v2.84Zm0-8.51h2.83v-2.83H0v2.83Z" class="st11"/></g><g id="shape761-110"><path d="M0 896.88v-90.71h43.94v90.71H0Zm43.94 0h2.83v-90.71h-2.83v90.71Z" class="st12"/><path d="M0 896.88v-90.71h43.94v90.71H0M43.94 851.52h2.83M43.94 896.88h2.83v-90.71h-2.83v90.71" class="st13"/></g></g><g id="group820-115" transform="rotate(-90 198.649 419.109)"><g id="shape822-118" transform="translate(57.818 -39.685)"><path d="M0 896.88h2.83v-2.84H0v2.84Zm0-8.51h2.83v-2.83H0v2.83Z" class="st11"/></g><g id="shape823-120"><path d="M0 896.88v-90.71h54.98v90.71H0Zm54.98 0h2.84v-90.71h-2.84v90.71Z" class="st12"/><path d="M0 896.88v-90.71h54.98v90.71H0M54.98 851.52h2.84" class="st13"/><path d="M54.98 896.88h2.84v-90.71h-2.84v90.71" class="st13"/></g></g><g id="group853-125" transform="rotate(-45.4 -543.794 276.496)"><g id="shape854-126"><path d="M10.91 853.43a157.589 157.613-180 0 0-.03 22.18 28.16 28.16-180 0 0 13.34 13.19h17.51a4.03 4.03 0 0 1 3.8 2.65h2.93A16.145 16.145-180 0 0 64.6 875.3v-21.53a16.137 16.137-180 0 0-16.14-16.14h-2.94a4.04 4.04 0 0 1-3.81 2.73H24.08a28.16 28.16-180 0 0-13.17 13.07Zm-.13 11.16a57.393 57.402 0 0 1 1.4-18.84 3.01 3.01-180 0 0-4.04-4.03 30.789 30.793-180 0 0-8.06 22.87 30.203 30.207-180 0 0 8.06 22.87 3.033 3.033-180 0 0 4.04-4.04 55.756 55.764 0 0 1-1.4-18.83Zm34.99 28.24a4.039 4.039-180 0 0-4.04-4.04H17.52a4.034 4.034-180 0 0-4.04 4.04 4.04 4.04-180 0 0 4.04 4.05h24.21a4.045 4.045-180 0 0 4.04-4.05Zm-.03-56.52a4.023 4.023-180 0 0-4.01-4.03H17.52a4.055 4.055-180 0 0-4.06 4.05 4.049 4.049-180 0 0 4.06 4.04h24.21a4.024 4.024-180 0 0 4.01-4.04v-.02Z" class="st4"/><path d="M10.91 853.43a157.589 157.613-180 0 0-.03 22.18 28.16 28.16-180 0 0 13.34 13.19h17.51a4.03 4.03 0 0 1 3.8 2.65h2.93A16.145 16.145-180 0 0 64.6 875.3v-21.53a16.137 16.137-180 0 0-16.14-16.14h-2.94a4.04 4.04 0 0 1-3.81 2.73H24.08a28.16 28.16-180 0 0-13.17 13.07m-.13 11.16a57.393 57.402 0 0 1 1.4-18.84 3.01 3.01-180 0 0-4.04-4.03 30.789 30.793-180 0 0-8.06 22.87 30.203 30.207-180 0 0 8.06 22.87 3.033 3.033-180 0 0 4.04-4.04 55.756 55.764 0 0 1-1.4-18.83m34.99 28.24a4.039 4.039-180 0 0-4.04-4.04H17.52a4.034 4.034-180 0 0-4.04 4.04 4.04 4.04-180 0 0 4.04 4.05h24.21a4.045 4.045-180 0 0 4.04-4.05m-.03-56.52a4.023 4.023-180 0 0-4.01-4.03H17.52a4.055 4.055-180 0 0-4.06 4.05 4.049 4.049-180 0 0 4.06 4.04h24.21a4.024 4.024-180 0 0 4.01-4.04" class="st5"/></g></g><g id="group855-129" transform="rotate(179.6 191.167 538.459)"><path d="M0 759.4v137.48h134.94v-65.2H65.2V759.4H0Z" class="st6" id="shape855-130"/></g><g id="group856-132" transform="rotate(89.6 454.177 632.379)"><g id="shape856-133"><path class="st6" d="M0 839.06h65.197v57.818H0z"/><text x="-874.64" y="39.8" transform="rotate(-90)" class="st7">2</text></g></g><g id="group857-136" transform="rotate(134.6 322.153 611.27)"><g id="shape858-137" transform="rotate(180 20.805 876.515)"><path class="st6" d="M0 857.314h38.143v39.563H0z"/></g><g id="shape859-139" transform="rotate(180 30.052 875.93)"><path class="st6" d="M0 854.987h15.026v41.891H0z"/></g><g id="shape860-141" transform="rotate(180 19.65 877.675)"><path d="m8.97 896.88 10.85-3.85v-27.26l-10.85-3.8a235.919 233.239-180 0 0 0 34.91Zm10.85-3.85h18.44a91.622 90.962-180 0 0 0-27.26H19.82v27.26Zm-18.78 3.85h7.93a235.919 233.239 0 0 1 0-34.91H1.04a150.587 148.876-180 0 0 0 34.91Z" class="st6"/></g><g id="shape861-143" transform="rotate(-90 5.81 855.876)"><path class="st8" d="M0 896.588h1.164v.289H0z"/></g><g id="shape862-145" transform="rotate(-90 28.319 867.404)"><path d="M2.62 886.76h1.45v-1.44H2.62v1.44Zm1.74 0h1.46v-1.44H4.36v1.44Zm1.75 0h1.45v-1.44H6.11v1.44Zm1.74 0h1.46v-1.44H7.85v1.44Zm11.2 0h1.46v-1.44h-1.46v1.44Zm1.75 0h1.45v-1.44H20.8v1.44Zm1.75 0H24v-1.44h-1.45v1.44Zm1.74 0h1.46v-1.44h-1.46v1.44ZM0 889.65h2.33v-1.44H0v1.44Zm2.62 0h1.45v-1.44H2.62v1.44Zm1.74 0h1.46v-1.44H4.36v1.44Zm1.75 0h1.45v-1.44H6.11v1.44Zm1.74 0h1.46v-1.44H7.85v1.44Zm1.75 0h1.45v-1.44H9.6v1.44Zm1.75 0h1.45v-1.44h-1.45v1.44Zm1.74 0h1.46v-1.44h-1.46v1.44Zm1.75 0h1.45v-1.44h-1.45v1.44Zm1.74 0h1.46v-1.44h-1.46v1.44Zm1.75 0h1.45v-1.44h-1.45v1.44Zm1.74 0h1.46v-1.44h-1.46v1.44Zm1.75 0h1.45v-1.44h-1.45v1.44Zm-19.2 1.81h1.45v-1.45H2.62v1.45Zm1.74 0h1.46v-1.45H4.36v1.45Zm1.75 0h1.45v-1.45H6.11v1.45Zm1.74 0h1.46v-1.45H7.85v1.45Zm1.75 0h1.45v-1.45H9.6v1.45Zm1.75 0h1.45v-1.45h-1.45v1.45Zm1.74 0h1.46v-1.45h-1.46v1.45Zm1.75 0h1.45v-1.45h-1.45v1.45Zm1.74 0h1.46v-1.45h-1.46v1.45Zm1.75 0h1.45v-1.45h-1.45v1.45Zm1.74 0h1.46v-1.45h-1.46v1.45Zm1.75 0h1.45v-1.45h-1.45v1.45Zm-19.2 1.81h1.45v-1.45H2.62v1.45Zm1.74 0h1.46v-1.45H4.36v1.45Zm1.75 0h1.45v-1.45H6.11v1.45Zm1.74 0h1.46v-1.45H7.85v1.45Zm1.75 0h1.45v-1.45H9.6v1.45Zm1.75 0h1.45v-1.45h-1.45v1.45Zm1.74 0h1.46v-1.45h-1.46v1.45Zm1.75 0h1.45v-1.45h-1.45v1.45Zm1.74 0h1.46v-1.45h-1.46v1.45Zm1.75 0h1.45v-1.45h-1.45v1.45Zm1.74 0h1.46v-1.45h-1.46v1.45Zm1.75 0h1.45v-1.45h-1.45v1.45Zm-19.2 1.8h1.45v-1.44H2.62v1.44Zm1.74 0h1.46v-1.44H4.36v1.44Zm1.75 0h1.45v-1.44H6.11v1.44Zm1.74 0h1.46v-1.44H7.85v1.44Zm1.75 0h1.45v-1.44H9.6v1.44Zm1.75 0h1.45v-1.44h-1.45v1.44Zm1.74 0h1.46v-1.44h-1.46v1.44Zm1.75 0h1.45v-1.44h-1.45v1.44Zm1.74 0h1.46v-1.44h-1.46v1.44Zm1.75 0h1.45v-1.44h-1.45v1.44Zm1.74 0h1.46v-1.44h-1.46v1.44Zm-13.96 1.81h11.93v-1.45H6.11v1.45Zm26.47 0h3.49v-1.45h-3.49v1.45Zm3.78 0h1.46v-1.45h-1.46v1.45Zm0-1.81h1.46v-1.44h-1.46v1.44Zm-1.89 0h1.46v-1.44h-1.46v1.44Zm-1.89 0h1.46v-1.44h-1.46v1.44Zm0-1.8h1.46v-1.45h-1.46v1.45Zm0-1.81h1.46v-1.45h-1.46v1.45Zm1.89 0h1.46v-1.45h-1.46v1.45Zm1.89 0h1.46v-1.45h-1.46v1.45Zm0 1.81h1.46v-1.45h-1.46v1.45Zm-1.89 0h1.46v-1.45h-1.46v1.45Z" class="st9"/></g><g id="shape863-147" transform="rotate(-90 28.319 867.404)"><path d="M0 886.76h1.45v-1.44H0v1.44Zm0 4.7h2.33v-1.45H0v1.45Zm0 1.81h2.33v-1.45H0v1.45Zm0 1.8h2.33v-1.44H0v1.44Zm0 1.81h2.33v-1.45H0v1.45Zm2.62 0h1.45v-1.45H2.62v1.45Zm1.74 0h1.46v-1.45H4.36v1.45Zm13.97 0h1.45v-1.45h-1.45v1.45Zm1.74 0h1.46v-1.45h-1.46v1.45Zm1.75 0h1.45v-1.45h-1.45v1.45Zm1.74 0h2.33v-1.45h-2.33v1.45Zm3.2 0h1.46v-1.45h-1.46v1.45Zm1.75 0h1.45v-1.45h-1.45v1.45Zm1.74 0h1.46v-1.45h-1.46v1.45Zm8 0h1.46v-3.18h-1.46v3.18Zm0-3.47h1.46v-3.4h-1.46v3.4Zm0-3.76h1.46v-1.44h-1.46v1.44Zm-1.89 0h1.46v-1.44h-1.46v1.44Zm-1.89 0h1.46v-1.44h-1.46v1.44Zm-1.89 0h1.46v-1.44h-1.46v1.44Zm-2.33 0h1.46v-1.44h-1.46v1.44Zm0 1.81h1.46v-1.45h-1.46v1.45Zm-1.74 3.61h1.45v-1.44h-1.45v1.44Zm-6.69-.02h4.07v-1.45h-4.07v1.45Zm1.74-1.83h2.33v-3.18h-2.33v3.18Zm3.2-1.76h1.46v-1.45h-1.46v1.45Zm1.75 0h1.45v-1.45h-1.45v1.45Zm0-1.81h1.45v-1.44h-1.45v1.44Zm-4.95 0h2.33v-1.44h-2.33v1.44Zm13.97-3.75h1.16v-.29h-1.16v.29Zm-1.75 0h1.17v-.29h-1.17v.29Zm-5.53.86h1.46v-1.44h-1.46v1.44Zm-1.74 0h1.45v-1.44h-1.45v1.44Zm-1.75 0h1.46v-1.44h-1.46v1.44Zm-10.76 0h1.45v-1.44H16v1.44Zm-1.75 0h1.46v-1.44h-1.46v1.44Zm-1.74 0h1.45v-1.44h-1.45v1.44Zm-1.75 0h1.46v-1.44h-1.46v1.44Zm16 2.89h1.46v-1.44h-1.46v1.44Z" class="st10"/></g></g><g id="group864-149" transform="rotate(89.765 551.894 728.473)"><path class="st6" d="M0 891.208h137.482v5.669H0z" id="shape864-152"/></g><g id="group870-154" transform="scale(-1 1) rotate(45.4 319.002 4.845)"><g id="shape871-155"><path d="M10.91 853.43a157.589 157.613-180 0 0-.03 22.18 28.16 28.16-180 0 0 13.34 13.19h17.51a4.03 4.03 0 0 1 3.8 2.65h2.93A16.145 16.145-180 0 0 64.6 875.3v-21.53a16.137 16.137-180 0 0-16.14-16.14h-2.94a4.04 4.04 0 0 1-3.81 2.73H24.08a28.16 28.16-180 0 0-13.17 13.07Zm-.13 11.16a57.393 57.402 0 0 1 1.4-18.84 3.01 3.01-180 0 0-4.04-4.03 30.789 30.793-180 0 0-8.06 22.87 30.203 30.207-180 0 0 8.06 22.87 3.033 3.033-180 0 0 4.04-4.04 55.756 55.764 0 0 1-1.4-18.83Zm34.99 28.24a4.039 4.039-180 0 0-4.04-4.04H17.52a4.034 4.034-180 0 0-4.04 4.04 4.04 4.04-180 0 0 4.04 4.05h24.21a4.045 4.045-180 0 0 4.04-4.05Zm-.03-56.52a4.023 4.023-180 0 0-4.01-4.03H17.52a4.055 4.055-180 0 0-4.06 4.05 4.049 4.049-180 0 0 4.06 4.04h24.21a4.024 4.024-180 0 0 4.01-4.04v-.02Z" class="st4"/><path d="M10.91 853.43a157.589 157.613-180 0 0-.03 22.18 28.16 28.16-180 0 0 13.34 13.19h17.51a4.03 4.03 0 0 1 3.8 2.65h2.93A16.145 16.145-180 0 0 64.6 875.3v-21.53a16.137 16.137-180 0 0-16.14-16.14h-2.94a4.04 4.04 0 0 1-3.81 2.73H24.08a28.16 28.16-180 0 0-13.17 13.07m-.13 11.16a57.393 57.402 0 0 1 1.4-18.84 3.01 3.01-180 0 0-4.04-4.03 30.789 30.793-180 0 0-8.06 22.87 30.203 30.207-180 0 0 8.06 22.87 3.033 3.033-180 0 0 4.04-4.04 55.756 55.764 0 0 1-1.4-18.83m34.99 28.24a4.039 4.039-180 0 0-4.04-4.04H17.52a4.034 4.034-180 0 0-4.04 4.04 4.04 4.04-180 0 0 4.04 4.05h24.21a4.045 4.045-180 0 0 4.04-4.05m-.03-56.52a4.023 4.023-180 0 0-4.01-4.03H17.52a4.055 4.055-180 0 0-4.06 4.05 4.049 4.049-180 0 0 4.06 4.04h24.21a4.024 4.024-180 0 0 4.01-4.04" class="st5"/></g></g><g id="group872-158" transform="scale(-1 1) rotate(-89.6 -389.193 899.526)"><path d="M0 759.4v137.48h134.94v-65.2H65.2V759.4H0Z" class="st6" id="shape872-159"/></g><g id="group873-161" transform="scale(-1 1) rotate(.4 74616.461 -64304.772)"><g id="shape873-162"><path class="st6" d="M0 839.06h65.197v57.818H0z"/><text x="-39.27" y="875.17" transform="scale(-1 1)" class="st7">4</text></g></g><g id="group874-165" transform="scale(1 -1) rotate(45.4 1835.968 678.392)"><g id="shape875-166" transform="rotate(180 20.805 876.515)"><path class="st6" d="M0 857.314h38.143v39.563H0z"/></g><g id="shape876-168" transform="rotate(180 30.052 875.93)"><path class="st6" d="M0 854.987h15.026v41.891H0z"/></g><g id="shape877-170" transform="rotate(180 19.65 877.675)"><path d="m8.97 896.88 10.85-3.85v-27.26l-10.85-3.8a235.919 233.239-180 0 0 0 34.91Zm10.85-3.85h18.44a91.622 90.962-180 0 0 0-27.26H19.82v27.26Zm-18.78 3.85h7.93a235.919 233.239 0 0 1 0-34.91H1.04a150.587 148.876-180 0 0 0 34.91Z" class="st6"/></g><g id="shape878-172" transform="rotate(-90 5.81 855.876)"><path class="st8" d="M0 896.588h1.164v.289H0z"/></g><g id="shape879-174" transform="rotate(-90 28.319 867.404)"><path d="M2.62 886.76h1.45v-1.44H2.62v1.44Zm1.74 0h1.46v-1.44H4.36v1.44Zm1.75 0h1.45v-1.44H6.11v1.44Zm1.74 0h1.46v-1.44H7.85v1.44Zm11.2 0h1.46v-1.44h-1.46v1.44Zm1.75 0h1.45v-1.44H20.8v1.44Zm1.75 0H24v-1.44h-1.45v1.44Zm1.74 0h1.46v-1.44h-1.46v1.44ZM0 889.65h2.33v-1.44H0v1.44Zm2.62 0h1.45v-1.44H2.62v1.44Zm1.74 0h1.46v-1.44H4.36v1.44Zm1.75 0h1.45v-1.44H6.11v1.44Zm1.74 0h1.46v-1.44H7.85v1.44Zm1.75 0h1.45v-1.44H9.6v1.44Zm1.75 0h1.45v-1.44h-1.45v1.44Zm1.74 0h1.46v-1.44h-1.46v1.44Zm1.75 0h1.45v-1.44h-1.45v1.44Zm1.74 0h1.46v-1.44h-1.46v1.44Zm1.75 0h1.45v-1.44h-1.45v1.44Zm1.74 0h1.46v-1.44h-1.46v1.44Zm1.75 0h1.45v-1.44h-1.45v1.44Zm-19.2 1.81h1.45v-1.45H2.62v1.45Zm1.74 0h1.46v-1.45H4.36v1.45Zm1.75 0h1.45v-1.45H6.11v1.45Zm1.74 0h1.46v-1.45H7.85v1.45Zm1.75 0h1.45v-1.45H9.6v1.45Zm1.75 0h1.45v-1.45h-1.45v1.45Zm1.74 0h1.46v-1.45h-1.46v1.45Zm1.75 0h1.45v-1.45h-1.45v1.45Zm1.74 0h1.46v-1.45h-1.46v1.45Zm1.75 0h1.45v-1.45h-1.45v1.45Zm1.74 0h1.46v-1.45h-1.46v1.45Zm1.75 0h1.45v-1.45h-1.45v1.45Zm-19.2 1.81h1.45v-1.45H2.62v1.45Zm1.74 0h1.46v-1.45H4.36v1.45Zm1.75 0h1.45v-1.45H6.11v1.45Zm1.74 0h1.46v-1.45H7.85v1.45Zm1.75 0h1.45v-1.45H9.6v1.45Zm1.75 0h1.45v-1.45h-1.45v1.45Zm1.74 0h1.46v-1.45h-1.46v1.45Zm1.75 0h1.45v-1.45h-1.45v1.45Zm1.74 0h1.46v-1.45h-1.46v1.45Zm1.75 0h1.45v-1.45h-1.45v1.45Zm1.74 0h1.46v-1.45h-1.46v1.45Zm1.75 0h1.45v-1.45h-1.45v1.45Zm-19.2 1.8h1.45v-1.44H2.62v1.44Zm1.74 0h1.46v-1.44H4.36v1.44Zm1.75 0h1.45v-1.44H6.11v1.44Zm1.74 0h1.46v-1.44H7.85v1.44Zm1.75 0h1.45v-1.44H9.6v1.44Zm1.75 0h1.45v-1.44h-1.45v1.44Zm1.74 0h1.46v-1.44h-1.46v1.44Zm1.75 0h1.45v-1.44h-1.45v1.44Zm1.74 0h1.46v-1.44h-1.46v1.44Zm1.75 0h1.45v-1.44h-1.45v1.44Zm1.74 0h1.46v-1.44h-1.46v1.44Zm-13.96 1.81h11.93v-1.45H6.11v1.45Zm26.47 0h3.49v-1.45h-3.49v1.45Zm3.78 0h1.46v-1.45h-1.46v1.45Zm0-1.81h1.46v-1.44h-1.46v1.44Zm-1.89 0h1.46v-1.44h-1.46v1.44Zm-1.89 0h1.46v-1.44h-1.46v1.44Zm0-1.8h1.46v-1.45h-1.46v1.45Zm0-1.81h1.46v-1.45h-1.46v1.45Zm1.89 0h1.46v-1.45h-1.46v1.45Zm1.89 0h1.46v-1.45h-1.46v1.45Zm0 1.81h1.46v-1.45h-1.46v1.45Zm-1.89 0h1.46v-1.45h-1.46v1.45Z" class="st9"/></g><g id="shape880-176" transform="rotate(-90 28.319 867.404)"><path d="M0 886.76h1.45v-1.44H0v1.44Zm0 4.7h2.33v-1.45H0v1.45Zm0 1.81h2.33v-1.45H0v1.45Zm0 1.8h2.33v-1.44H0v1.44Zm0 1.81h2.33v-1.45H0v1.45Zm2.62 0h1.45v-1.45H2.62v1.45Zm1.74 0h1.46v-1.45H4.36v1.45Zm13.97 0h1.45v-1.45h-1.45v1.45Zm1.74 0h1.46v-1.45h-1.46v1.45Zm1.75 0h1.45v-1.45h-1.45v1.45Zm1.74 0h2.33v-1.45h-2.33v1.45Zm3.2 0h1.46v-1.45h-1.46v1.45Zm1.75 0h1.45v-1.45h-1.45v1.45Zm1.74 0h1.46v-1.45h-1.46v1.45Zm8 0h1.46v-3.18h-1.46v3.18Zm0-3.47h1.46v-3.4h-1.46v3.4Zm0-3.76h1.46v-1.44h-1.46v1.44Zm-1.89 0h1.46v-1.44h-1.46v1.44Zm-1.89 0h1.46v-1.44h-1.46v1.44Zm-1.89 0h1.46v-1.44h-1.46v1.44Zm-2.33 0h1.46v-1.44h-1.46v1.44Zm0 1.81h1.46v-1.45h-1.46v1.45Zm-1.74 3.61h1.45v-1.44h-1.45v1.44Zm-6.69-.02h4.07v-1.45h-4.07v1.45Zm1.74-1.83h2.33v-3.18h-2.33v3.18Zm3.2-1.76h1.46v-1.45h-1.46v1.45Zm1.75 0h1.45v-1.45h-1.45v1.45Zm0-1.81h1.45v-1.44h-1.45v1.44Zm-4.95 0h2.33v-1.44h-2.33v1.44Zm13.97-3.75h1.16v-.29h-1.16v.29Zm-1.75 0h1.17v-.29h-1.17v.29Zm-5.53.86h1.46v-1.44h-1.46v1.44Zm-1.74 0h1.45v-1.44h-1.45v1.44Zm-1.75 0h1.46v-1.44h-1.46v1.44Zm-10.76 0h1.45v-1.44H16v1.44Zm-1.75 0h1.46v-1.44h-1.46v1.44Zm-1.74 0h1.45v-1.44h-1.45v1.44Zm-1.75 0h1.46v-1.44h-1.46v1.44Zm16 2.89h1.46v-1.44h-1.46v1.44Z" class="st10"/></g></g><g id="group883-178" transform="scale(-1 1) rotate(-89.6 -384.914 896.695)"><path class="st6" d="M0 891.208h134.938v5.669H0z" id="shape883-181"/></g><g id="group885-183" transform="scale(-1 1) rotate(-89.6 -452.385 828.754)"><path class="st6" d="M0 891.208h57.818v5.669H0z" id="shape885-186"/></g><g id="group905-188" transform="scale(-1 1) rotate(-44.7 -935.716 1212.15)"><g id="shape906-189"><path d="M10.91 853.43a157.589 157.613-180 0 0-.03 22.18 28.16 28.16-180 0 0 13.34 13.19h17.51a4.03 4.03 0 0 1 3.8 2.65h2.93A16.145 16.145-180 0 0 64.6 875.3v-21.53a16.137 16.137-180 0 0-16.14-16.14h-2.94a4.04 4.04 0 0 1-3.81 2.73H24.08a28.16 28.16-180 0 0-13.17 13.07Zm-.13 11.16a57.393 57.402 0 0 1 1.4-18.84 3.01 3.01-180 0 0-4.04-4.03 30.789 30.793-180 0 0-8.06 22.87 30.203 30.207-180 0 0 8.06 22.87 3.033 3.033-180 0 0 4.04-4.04 55.756 55.764 0 0 1-1.4-18.83Zm34.99 28.24a4.039 4.039-180 0 0-4.04-4.04H17.52a4.034 4.034-180 0 0-4.04 4.04 4.04 4.04-180 0 0 4.04 4.05h24.21a4.045 4.045-180 0 0 4.04-4.05Zm-.03-56.52a4.023 4.023-180 0 0-4.01-4.03H17.52a4.055 4.055-180 0 0-4.06 4.05 4.049 4.049-180 0 0 4.06 4.04h24.21a4.024 4.024-180 0 0 4.01-4.04v-.02Z" class="st4"/><path d="M10.91 853.43a157.589 157.613-180 0 0-.03 22.18 28.16 28.16-180 0 0 13.34 13.19h17.51a4.03 4.03 0 0 1 3.8 2.65h2.93A16.145 16.145-180 0 0 64.6 875.3v-21.53a16.137 16.137-180 0 0-16.14-16.14h-2.94a4.04 4.04 0 0 1-3.81 2.73H24.08a28.16 28.16-180 0 0-13.17 13.07m-.13 11.16a57.393 57.402 0 0 1 1.4-18.84 3.01 3.01-180 0 0-4.04-4.03 30.789 30.793-180 0 0-8.06 22.87 30.203 30.207-180 0 0 8.06 22.87 3.033 3.033-180 0 0 4.04-4.04 55.756 55.764 0 0 1-1.4-18.83m34.99 28.24a4.039 4.039-180 0 0-4.04-4.04H17.52a4.034 4.034-180 0 0-4.04 4.04 4.04 4.04-180 0 0 4.04 4.05h24.21a4.045 4.045-180 0 0 4.04-4.05m-.03-56.52a4.023 4.023-180 0 0-4.01-4.03H17.52a4.055 4.055-180 0 0-4.06 4.05 4.049 4.049-180 0 0 4.06 4.04h24.21a4.024 4.024-180 0 0 4.01-4.04" class="st5"/></g></g><g id="group907-192" transform="scale(1 -1) rotate(.3 205608.07 74148.827)"><path d="M0 759.4v137.48h134.94v-65.2H65.2V759.4H0Z" class="st6" id="shape907-193"/></g><g id="group908-195" transform="scale(1 -1) rotate(-89.7 -250.253 68.245)"><g id="shape908-196"><path class="st6" d="M0 839.06h65.197v57.818H0z"/><text x="861.29" y="39.8" transform="matrix(0 1 1 0 0 0)" class="st7">3</text></g></g><g id="group909-199" transform="scale(1 -1) rotate(-44.7 -1100.062 -154.26)"><g id="shape910-200" transform="rotate(180 20.805 876.515)"><path class="st6" d="M0 857.314h38.143v39.563H0z"/></g><g id="shape911-202" transform="rotate(180 30.052 875.93)"><path class="st6" d="M0 854.987h15.026v41.891H0z"/></g><g id="shape912-204" transform="rotate(180 19.65 877.675)"><path d="m8.97 896.88 10.85-3.85v-27.26l-10.85-3.8a235.919 233.239-180 0 0 0 34.91Zm10.85-3.85h18.44a91.622 90.962-180 0 0 0-27.26H19.82v27.26Zm-18.78 3.85h7.93a235.919 233.239 0 0 1 0-34.91H1.04a150.587 148.876-180 0 0 0 34.91Z" class="st6"/></g><g id="shape913-206" transform="rotate(-90 5.81 855.876)"><path class="st8" d="M0 896.588h1.164v.289H0z"/></g><g id="shape914-208" transform="rotate(-90 28.319 867.404)"><path d="M2.62 886.76h1.45v-1.44H2.62v1.44Zm1.74 0h1.46v-1.44H4.36v1.44Zm1.75 0h1.45v-1.44H6.11v1.44Zm1.74 0h1.46v-1.44H7.85v1.44Zm11.2 0h1.46v-1.44h-1.46v1.44Zm1.75 0h1.45v-1.44H20.8v1.44Zm1.75 0H24v-1.44h-1.45v1.44Zm1.74 0h1.46v-1.44h-1.46v1.44ZM0 889.65h2.33v-1.44H0v1.44Zm2.62 0h1.45v-1.44H2.62v1.44Zm1.74 0h1.46v-1.44H4.36v1.44Zm1.75 0h1.45v-1.44H6.11v1.44Zm1.74 0h1.46v-1.44H7.85v1.44Zm1.75 0h1.45v-1.44H9.6v1.44Zm1.75 0h1.45v-1.44h-1.45v1.44Zm1.74 0h1.46v-1.44h-1.46v1.44Zm1.75 0h1.45v-1.44h-1.45v1.44Zm1.74 0h1.46v-1.44h-1.46v1.44Zm1.75 0h1.45v-1.44h-1.45v1.44Zm1.74 0h1.46v-1.44h-1.46v1.44Zm1.75 0h1.45v-1.44h-1.45v1.44Zm-19.2 1.81h1.45v-1.45H2.62v1.45Zm1.74 0h1.46v-1.45H4.36v1.45Zm1.75 0h1.45v-1.45H6.11v1.45Zm1.74 0h1.46v-1.45H7.85v1.45Zm1.75 0h1.45v-1.45H9.6v1.45Zm1.75 0h1.45v-1.45h-1.45v1.45Zm1.74 0h1.46v-1.45h-1.46v1.45Zm1.75 0h1.45v-1.45h-1.45v1.45Zm1.74 0h1.46v-1.45h-1.46v1.45Zm1.75 0h1.45v-1.45h-1.45v1.45Zm1.74 0h1.46v-1.45h-1.46v1.45Zm1.75 0h1.45v-1.45h-1.45v1.45Zm-19.2 1.81h1.45v-1.45H2.62v1.45Zm1.74 0h1.46v-1.45H4.36v1.45Zm1.75 0h1.45v-1.45H6.11v1.45Zm1.74 0h1.46v-1.45H7.85v1.45Zm1.75 0h1.45v-1.45H9.6v1.45Zm1.75 0h1.45v-1.45h-1.45v1.45Zm1.74 0h1.46v-1.45h-1.46v1.45Zm1.75 0h1.45v-1.45h-1.45v1.45Zm1.74 0h1.46v-1.45h-1.46v1.45Zm1.75 0h1.45v-1.45h-1.45v1.45Zm1.74 0h1.46v-1.45h-1.46v1.45Zm1.75 0h1.45v-1.45h-1.45v1.45Zm-19.2 1.8h1.45v-1.44H2.62v1.44Zm1.74 0h1.46v-1.44H4.36v1.44Zm1.75 0h1.45v-1.44H6.11v1.44Zm1.74 0h1.46v-1.44H7.85v1.44Zm1.75 0h1.45v-1.44H9.6v1.44Zm1.75 0h1.45v-1.44h-1.45v1.44Zm1.74 0h1.46v-1.44h-1.46v1.44Zm1.75 0h1.45v-1.44h-1.45v1.44Zm1.74 0h1.46v-1.44h-1.46v1.44Zm1.75 0h1.45v-1.44h-1.45v1.44Zm1.74 0h1.46v-1.44h-1.46v1.44Zm-13.96 1.81h11.93v-1.45H6.11v1.45Zm26.47 0h3.49v-1.45h-3.49v1.45Zm3.78 0h1.46v-1.45h-1.46v1.45Zm0-1.81h1.46v-1.44h-1.46v1.44Zm-1.89 0h1.46v-1.44h-1.46v1.44Zm-1.89 0h1.46v-1.44h-1.46v1.44Zm0-1.8h1.46v-1.45h-1.46v1.45Zm0-1.81h1.46v-1.45h-1.46v1.45Zm1.89 0h1.46v-1.45h-1.46v1.45Zm1.89 0h1.46v-1.45h-1.46v1.45Zm0 1.81h1.46v-1.45h-1.46v1.45Zm-1.89 0h1.46v-1.45h-1.46v1.45Z" class="st9"/></g><g id="shape915-210" transform="rotate(-90 28.319 867.404)"><path d="M0 886.76h1.45v-1.44H0v1.44Zm0 4.7h2.33v-1.45H0v1.45Zm0 1.81h2.33v-1.45H0v1.45Zm0 1.8h2.33v-1.44H0v1.44Zm0 1.81h2.33v-1.45H0v1.45Zm2.62 0h1.45v-1.45H2.62v1.45Zm1.74 0h1.46v-1.45H4.36v1.45Zm13.97 0h1.45v-1.45h-1.45v1.45Zm1.74 0h1.46v-1.45h-1.46v1.45Zm1.75 0h1.45v-1.45h-1.45v1.45Zm1.74 0h2.33v-1.45h-2.33v1.45Zm3.2 0h1.46v-1.45h-1.46v1.45Zm1.75 0h1.45v-1.45h-1.45v1.45Zm1.74 0h1.46v-1.45h-1.46v1.45Zm8 0h1.46v-3.18h-1.46v3.18Zm0-3.47h1.46v-3.4h-1.46v3.4Zm0-3.76h1.46v-1.44h-1.46v1.44Zm-1.89 0h1.46v-1.44h-1.46v1.44Zm-1.89 0h1.46v-1.44h-1.46v1.44Zm-1.89 0h1.46v-1.44h-1.46v1.44Zm-2.33 0h1.46v-1.44h-1.46v1.44Zm0 1.81h1.46v-1.45h-1.46v1.45Zm-1.74 3.61h1.45v-1.44h-1.45v1.44Zm-6.69-.02h4.07v-1.45h-4.07v1.45Zm1.74-1.83h2.33v-3.18h-2.33v3.18Zm3.2-1.76h1.46v-1.45h-1.46v1.45Zm1.75 0h1.45v-1.45h-1.45v1.45Zm0-1.81h1.45v-1.44h-1.45v1.44Zm-4.95 0h2.33v-1.44h-2.33v1.44Zm13.97-3.75h1.16v-.29h-1.16v.29Zm-1.75 0h1.17v-.29h-1.17v.29Zm-5.53.86h1.46v-1.44h-1.46v1.44Zm-1.74 0h1.45v-1.44h-1.45v1.44Zm-1.75 0h1.46v-1.44h-1.46v1.44Zm-10.76 0h1.45v-1.44H16v1.44Zm-1.75 0h1.46v-1.44h-1.46v1.44Zm-1.74 0h1.45v-1.44h-1.45v1.44Zm-1.75 0h1.46v-1.44h-1.46v1.44Zm16 2.89h1.46v-1.44h-1.46v1.44Z" class="st10"/></g></g><g id="group916-212" transform="scale(1 -1) rotate(-89.535 -348.978 165.77)"><path class="st6" d="M0 891.208h137.482v5.669H0z" id="shape916-215"/></g><g id="group922-217" transform="rotate(44.7 711.766 929.006)"><g id="shape923-218"><path d="M10.91 853.43a157.589 157.613-180 0 0-.03 22.18 28.16 28.16-180 0 0 13.34 13.19h17.51a4.03 4.03 0 0 1 3.8 2.65h2.93A16.145 16.145-180 0 0 64.6 875.3v-21.53a16.137 16.137-180 0 0-16.14-16.14h-2.94a4.04 4.04 0 0 1-3.81 2.73H24.08a28.16 28.16-180 0 0-13.17 13.07Zm-.13 11.16a57.393 57.402 0 0 1 1.4-18.84 3.01 3.01-180 0 0-4.04-4.03 30.789 30.793-180 0 0-8.06 22.87 30.203 30.207-180 0 0 8.06 22.87 3.033 3.033-180 0 0 4.04-4.04 55.756 55.764 0 0 1-1.4-18.83Zm34.99 28.24a4.039 4.039-180 0 0-4.04-4.04H17.52a4.034 4.034-180 0 0-4.04 4.04 4.04 4.04-180 0 0 4.04 4.05h24.21a4.045 4.045-180 0 0 4.04-4.05Zm-.03-56.52a4.023 4.023-180 0 0-4.01-4.03H17.52a4.055 4.055-180 0 0-4.06 4.05 4.049 4.049-180 0 0 4.06 4.04h24.21a4.024 4.024-180 0 0 4.01-4.04v-.02Z" class="st4"/><path d="M10.91 853.43a157.589 157.613-180 0 0-.03 22.18 28.16 28.16-180 0 0 13.34 13.19h17.51a4.03 4.03 0 0 1 3.8 2.65h2.93A16.145 16.145-180 0 0 64.6 875.3v-21.53a16.137 16.137-180 0 0-16.14-16.14h-2.94a4.04 4.04 0 0 1-3.81 2.73H24.08a28.16 28.16-180 0 0-13.17 13.07m-.13 11.16a57.393 57.402 0 0 1 1.4-18.84 3.01 3.01-180 0 0-4.04-4.03 30.789 30.793-180 0 0-8.06 22.87 30.203 30.207-180 0 0 8.06 22.87 3.033 3.033-180 0 0 4.04-4.04 55.756 55.764 0 0 1-1.4-18.83m34.99 28.24a4.039 4.039-180 0 0-4.04-4.04H17.52a4.034 4.034-180 0 0-4.04 4.04 4.04 4.04-180 0 0 4.04 4.05h24.21a4.045 4.045-180 0 0 4.04-4.05m-.03-56.52a4.023 4.023-180 0 0-4.01-4.03H17.52a4.055 4.055-180 0 0-4.06 4.05 4.049 4.049-180 0 0 4.06 4.04h24.21a4.024 4.024-180 0 0 4.01-4.04" class="st5"/></g></g><g id="group924-221" transform="rotate(-90.3 -2.088 514.03)"><path d="M0 759.4v137.48h134.94v-65.2H65.2V759.4H0Z" class="st6" id="shape924-222"/></g><g id="group925-224" transform="rotate(-.3 -99555.4 -59493.666)"><g id="shape925-225"><path class="st6" d="M0 839.06h65.197v57.818H0z"/><text x="25.92" y="875.17" class="st7">1</text></g></g><g id="group926-228" transform="rotate(-135.3 102.377 608.247)"><g id="shape927-229" transform="rotate(180 20.805 876.515)"><path class="st6" d="M0 857.314h38.143v39.563H0z"/></g><g id="shape928-231" transform="rotate(180 30.052 875.93)"><path class="st6" d="M0 854.987h15.026v41.891H0z"/></g><g id="shape929-233" transform="rotate(180 19.65 877.675)"><path d="m8.97 896.88 10.85-3.85v-27.26l-10.85-3.8a235.919 233.239-180 0 0 0 34.91Zm10.85-3.85h18.44a91.622 90.962-180 0 0 0-27.26H19.82v27.26Zm-18.78 3.85h7.93a235.919 233.239 0 0 1 0-34.91H1.04a150.587 148.876-180 0 0 0 34.91Z" class="st6"/></g><g id="shape930-235" transform="rotate(-90 5.81 855.876)"><path class="st8" d="M0 896.588h1.164v.289H0z"/></g><g id="shape931-237" transform="rotate(-90 28.319 867.404)"><path d="M2.62 886.76h1.45v-1.44H2.62v1.44Zm1.74 0h1.46v-1.44H4.36v1.44Zm1.75 0h1.45v-1.44H6.11v1.44Zm1.74 0h1.46v-1.44H7.85v1.44Zm11.2 0h1.46v-1.44h-1.46v1.44Zm1.75 0h1.45v-1.44H20.8v1.44Zm1.75 0H24v-1.44h-1.45v1.44Zm1.74 0h1.46v-1.44h-1.46v1.44ZM0 889.65h2.33v-1.44H0v1.44Zm2.62 0h1.45v-1.44H2.62v1.44Zm1.74 0h1.46v-1.44H4.36v1.44Zm1.75 0h1.45v-1.44H6.11v1.44Zm1.74 0h1.46v-1.44H7.85v1.44Zm1.75 0h1.45v-1.44H9.6v1.44Zm1.75 0h1.45v-1.44h-1.45v1.44Zm1.74 0h1.46v-1.44h-1.46v1.44Zm1.75 0h1.45v-1.44h-1.45v1.44Zm1.74 0h1.46v-1.44h-1.46v1.44Zm1.75 0h1.45v-1.44h-1.45v1.44Zm1.74 0h1.46v-1.44h-1.46v1.44Zm1.75 0h1.45v-1.44h-1.45v1.44Zm-19.2 1.81h1.45v-1.45H2.62v1.45Zm1.74 0h1.46v-1.45H4.36v1.45Zm1.75 0h1.45v-1.45H6.11v1.45Zm1.74 0h1.46v-1.45H7.85v1.45Zm1.75 0h1.45v-1.45H9.6v1.45Zm1.75 0h1.45v-1.45h-1.45v1.45Zm1.74 0h1.46v-1.45h-1.46v1.45Zm1.75 0h1.45v-1.45h-1.45v1.45Zm1.74 0h1.46v-1.45h-1.46v1.45Zm1.75 0h1.45v-1.45h-1.45v1.45Zm1.74 0h1.46v-1.45h-1.46v1.45Zm1.75 0h1.45v-1.45h-1.45v1.45Zm-19.2 1.81h1.45v-1.45H2.62v1.45Zm1.74 0h1.46v-1.45H4.36v1.45Zm1.75 0h1.45v-1.45H6.11v1.45Zm1.74 0h1.46v-1.45H7.85v1.45Zm1.75 0h1.45v-1.45H9.6v1.45Zm1.75 0h1.45v-1.45h-1.45v1.45Zm1.74 0h1.46v-1.45h-1.46v1.45Zm1.75 0h1.45v-1.45h-1.45v1.45Zm1.74 0h1.46v-1.45h-1.46v1.45Zm1.75 0h1.45v-1.45h-1.45v1.45Zm1.74 0h1.46v-1.45h-1.46v1.45Zm1.75 0h1.45v-1.45h-1.45v1.45Zm-19.2 1.8h1.45v-1.44H2.62v1.44Zm1.74 0h1.46v-1.44H4.36v1.44Zm1.75 0h1.45v-1.44H6.11v1.44Zm1.74 0h1.46v-1.44H7.85v1.44Zm1.75 0h1.45v-1.44H9.6v1.44Zm1.75 0h1.45v-1.44h-1.45v1.44Zm1.74 0h1.46v-1.44h-1.46v1.44Zm1.75 0h1.45v-1.44h-1.45v1.44Zm1.74 0h1.46v-1.44h-1.46v1.44Zm1.75 0h1.45v-1.44h-1.45v1.44Zm1.74 0h1.46v-1.44h-1.46v1.44Zm-13.96 1.81h11.93v-1.45H6.11v1.45Zm26.47 0h3.49v-1.45h-3.49v1.45Zm3.78 0h1.46v-1.45h-1.46v1.45Zm0-1.81h1.46v-1.44h-1.46v1.44Zm-1.89 0h1.46v-1.44h-1.46v1.44Zm-1.89 0h1.46v-1.44h-1.46v1.44Zm0-1.8h1.46v-1.45h-1.46v1.45Zm0-1.81h1.46v-1.45h-1.46v1.45Zm1.89 0h1.46v-1.45h-1.46v1.45Zm1.89 0h1.46v-1.45h-1.46v1.45Zm0 1.81h1.46v-1.45h-1.46v1.45Zm-1.89 0h1.46v-1.45h-1.46v1.45Z" class="st9"/></g><g id="shape932-239" transform="rotate(-90 28.319 867.404)"><path d="M0 886.76h1.45v-1.44H0v1.44Zm0 4.7h2.33v-1.45H0v1.45Zm0 1.81h2.33v-1.45H0v1.45Zm0 1.8h2.33v-1.44H0v1.44Zm0 1.81h2.33v-1.45H0v1.45Zm2.62 0h1.45v-1.45H2.62v1.45Zm1.74 0h1.46v-1.45H4.36v1.45Zm13.97 0h1.45v-1.45h-1.45v1.45Zm1.74 0h1.46v-1.45h-1.46v1.45Zm1.75 0h1.45v-1.45h-1.45v1.45Zm1.74 0h2.33v-1.45h-2.33v1.45Zm3.2 0h1.46v-1.45h-1.46v1.45Zm1.75 0h1.45v-1.45h-1.45v1.45Zm1.74 0h1.46v-1.45h-1.46v1.45Zm8 0h1.46v-3.18h-1.46v3.18Zm0-3.47h1.46v-3.4h-1.46v3.4Zm0-3.76h1.46v-1.44h-1.46v1.44Zm-1.89 0h1.46v-1.44h-1.46v1.44Zm-1.89 0h1.46v-1.44h-1.46v1.44Zm-1.89 0h1.46v-1.44h-1.46v1.44Zm-2.33 0h1.46v-1.44h-1.46v1.44Zm0 1.81h1.46v-1.45h-1.46v1.45Zm-1.74 3.61h1.45v-1.44h-1.45v1.44Zm-6.69-.02h4.07v-1.45h-4.07v1.45Zm1.74-1.83h2.33v-3.18h-2.33v3.18Zm3.2-1.76h1.46v-1.45h-1.46v1.45Zm1.75 0h1.45v-1.45h-1.45v1.45Zm0-1.81h1.45v-1.44h-1.45v1.44Zm-4.95 0h2.33v-1.44h-2.33v1.44Zm13.97-3.75h1.16v-.29h-1.16v.29Zm-1.75 0h1.17v-.29h-1.17v.29Zm-5.53.86h1.46v-1.44h-1.46v1.44Zm-1.74 0h1.45v-1.44h-1.45v1.44Zm-1.75 0h1.46v-1.44h-1.46v1.44Zm-10.76 0h1.45v-1.44H16v1.44Zm-1.75 0h1.46v-1.44h-1.46v1.44Zm-1.74 0h1.45v-1.44h-1.45v1.44Zm-1.75 0h1.46v-1.44h-1.46v1.44Zm16 2.89h1.46v-1.44h-1.46v1.44Z" class="st10"/></g></g><g id="group935-241" transform="rotate(-90.3 2.146 511.192)"><path class="st6" d="M0 891.208h134.938v5.669H0z" id="shape935-244"/></g><g id="group937-246" transform="rotate(-90.3 -65.323 444.075)"><path class="st6" d="M0 891.208h57.818v5.669H0z" id="shape937-249"/></g><g id="group1172-251" transform="rotate(-45.4 -300.26 -305.692)"><g id="shape1173-252"><path d="M10.91 853.43a157.589 157.613-180 0 0-.03 22.18 28.16 28.16-180 0 0 13.34 13.19h17.51a4.03 4.03 0 0 1 3.8 2.65h2.93A16.145 16.145-180 0 0 64.6 875.3v-21.53a16.137 16.137-180 0 0-16.14-16.14h-2.94a4.04 4.04 0 0 1-3.81 2.73H24.08a28.16 28.16-180 0 0-13.17 13.07Zm-.13 11.16a57.393 57.402 0 0 1 1.4-18.84 3.01 3.01-180 0 0-4.04-4.03 30.789 30.793-180 0 0-8.06 22.87 30.203 30.207-180 0 0 8.06 22.87 3.033 3.033-180 0 0 4.04-4.04 55.756 55.764 0 0 1-1.4-18.83Zm34.99 28.24a4.039 4.039-180 0 0-4.04-4.04H17.52a4.034 4.034-180 0 0-4.04 4.04 4.04 4.04-180 0 0 4.04 4.05h24.21a4.045 4.045-180 0 0 4.04-4.05Zm-.03-56.52a4.023 4.023-180 0 0-4.01-4.03H17.52a4.055 4.055-180 0 0-4.06 4.05 4.049 4.049-180 0 0 4.06 4.04h24.21a4.024 4.024-180 0 0 4.01-4.04v-.02Z" class="st4"/><path d="M10.91 853.43a157.589 157.613-180 0 0-.03 22.18 28.16 28.16-180 0 0 13.34 13.19h17.51a4.03 4.03 0 0 1 3.8 2.65h2.93A16.145 16.145-180 0 0 64.6 875.3v-21.53a16.137 16.137-180 0 0-16.14-16.14h-2.94a4.04 4.04 0 0 1-3.81 2.73H24.08a28.16 28.16-180 0 0-13.17 13.07m-.13 11.16a57.393 57.402 0 0 1 1.4-18.84 3.01 3.01-180 0 0-4.04-4.03 30.789 30.793-180 0 0-8.06 22.87 30.203 30.207-180 0 0 8.06 22.87 3.033 3.033-180 0 0 4.04-4.04 55.756 55.764 0 0 1-1.4-18.83m34.99 28.24a4.039 4.039-180 0 0-4.04-4.04H17.52a4.034 4.034-180 0 0-4.04 4.04 4.04 4.04-180 0 0 4.04 4.05h24.21a4.045 4.045-180 0 0 4.04-4.05m-.03-56.52a4.023 4.023-180 0 0-4.01-4.03H17.52a4.055 4.055-180 0 0-4.06 4.05 4.049 4.049-180 0 0 4.06 4.04h24.21a4.024 4.024-180 0 0 4.01-4.04" class="st5"/></g></g><g id="group1174-255" transform="rotate(179.6 434.702 539.309)"><path d="M0 759.4v137.48h134.94v-65.2H65.2V759.4H0Z" class="st6" id="shape1174-256"/></g><g id="group1175-258" transform="rotate(89.6 697.712 877.62)"><g id="shape1175-259"><path class="st6" d="M0 839.06h65.197v57.818H0z"/><text x="861.29" y="-25.4" transform="rotate(90)" class="st7">9</text></g></g><g id="group1176-262" transform="rotate(134.6 565.686 713.142)"><g id="shape1177-263" transform="rotate(180 20.805 876.515)"><path class="st6" d="M0 857.314h38.143v39.563H0z"/></g><g id="shape1178-265" transform="rotate(180 30.052 875.93)"><path class="st6" d="M0 854.987h15.026v41.891H0z"/></g><g id="shape1179-267" transform="rotate(180 19.65 877.675)"><path d="m8.97 896.88 10.85-3.85v-27.26l-10.85-3.8a235.919 233.239-180 0 0 0 34.91Zm10.85-3.85h18.44a91.622 90.962-180 0 0 0-27.26H19.82v27.26Zm-18.78 3.85h7.93a235.919 233.239 0 0 1 0-34.91H1.04a150.587 148.876-180 0 0 0 34.91Z" class="st6"/></g><g id="shape1180-269" transform="rotate(-90 5.81 855.876)"><path class="st8" d="M0 896.588h1.164v.289H0z"/></g><g id="shape1181-271" transform="rotate(-90 28.319 867.404)"><path d="M2.62 886.76h1.45v-1.44H2.62v1.44Zm1.74 0h1.46v-1.44H4.36v1.44Zm1.75 0h1.45v-1.44H6.11v1.44Zm1.74 0h1.46v-1.44H7.85v1.44Zm11.2 0h1.46v-1.44h-1.46v1.44Zm1.75 0h1.45v-1.44H20.8v1.44Zm1.75 0H24v-1.44h-1.45v1.44Zm1.74 0h1.46v-1.44h-1.46v1.44ZM0 889.65h2.33v-1.44H0v1.44Zm2.62 0h1.45v-1.44H2.62v1.44Zm1.74 0h1.46v-1.44H4.36v1.44Zm1.75 0h1.45v-1.44H6.11v1.44Zm1.74 0h1.46v-1.44H7.85v1.44Zm1.75 0h1.45v-1.44H9.6v1.44Zm1.75 0h1.45v-1.44h-1.45v1.44Zm1.74 0h1.46v-1.44h-1.46v1.44Zm1.75 0h1.45v-1.44h-1.45v1.44Zm1.74 0h1.46v-1.44h-1.46v1.44Zm1.75 0h1.45v-1.44h-1.45v1.44Zm1.74 0h1.46v-1.44h-1.46v1.44Zm1.75 0h1.45v-1.44h-1.45v1.44Zm-19.2 1.81h1.45v-1.45H2.62v1.45Zm1.74 0h1.46v-1.45H4.36v1.45Zm1.75 0h1.45v-1.45H6.11v1.45Zm1.74 0h1.46v-1.45H7.85v1.45Zm1.75 0h1.45v-1.45H9.6v1.45Zm1.75 0h1.45v-1.45h-1.45v1.45Zm1.74 0h1.46v-1.45h-1.46v1.45Zm1.75 0h1.45v-1.45h-1.45v1.45Zm1.74 0h1.46v-1.45h-1.46v1.45Zm1.75 0h1.45v-1.45h-1.45v1.45Zm1.74 0h1.46v-1.45h-1.46v1.45Zm1.75 0h1.45v-1.45h-1.45v1.45Zm-19.2 1.81h1.45v-1.45H2.62v1.45Zm1.74 0h1.46v-1.45H4.36v1.45Zm1.75 0h1.45v-1.45H6.11v1.45Zm1.74 0h1.46v-1.45H7.85v1.45Zm1.75 0h1.45v-1.45H9.6v1.45Zm1.75 0h1.45v-1.45h-1.45v1.45Zm1.74 0h1.46v-1.45h-1.46v1.45Zm1.75 0h1.45v-1.45h-1.45v1.45Zm1.74 0h1.46v-1.45h-1.46v1.45Zm1.75 0h1.45v-1.45h-1.45v1.45Zm1.74 0h1.46v-1.45h-1.46v1.45Zm1.75 0h1.45v-1.45h-1.45v1.45Zm-19.2 1.8h1.45v-1.44H2.62v1.44Zm1.74 0h1.46v-1.44H4.36v1.44Zm1.75 0h1.45v-1.44H6.11v1.44Zm1.74 0h1.46v-1.44H7.85v1.44Zm1.75 0h1.45v-1.44H9.6v1.44Zm1.75 0h1.45v-1.44h-1.45v1.44Zm1.74 0h1.46v-1.44h-1.46v1.44Zm1.75 0h1.45v-1.44h-1.45v1.44Zm1.74 0h1.46v-1.44h-1.46v1.44Zm1.75 0h1.45v-1.44h-1.45v1.44Zm1.74 0h1.46v-1.44h-1.46v1.44Zm-13.96 1.81h11.93v-1.45H6.11v1.45Zm26.47 0h3.49v-1.45h-3.49v1.45Zm3.78 0h1.46v-1.45h-1.46v1.45Zm0-1.81h1.46v-1.44h-1.46v1.44Zm-1.89 0h1.46v-1.44h-1.46v1.44Zm-1.89 0h1.46v-1.44h-1.46v1.44Zm0-1.8h1.46v-1.45h-1.46v1.45Zm0-1.81h1.46v-1.45h-1.46v1.45Zm1.89 0h1.46v-1.45h-1.46v1.45Zm1.89 0h1.46v-1.45h-1.46v1.45Zm0 1.81h1.46v-1.45h-1.46v1.45Zm-1.89 0h1.46v-1.45h-1.46v1.45Z" class="st9"/></g><g id="shape1182-273" transform="rotate(-90 28.319 867.404)"><path d="M0 886.76h1.45v-1.44H0v1.44Zm0 4.7h2.33v-1.45H0v1.45Zm0 1.81h2.33v-1.45H0v1.45Zm0 1.8h2.33v-1.44H0v1.44Zm0 1.81h2.33v-1.45H0v1.45Zm2.62 0h1.45v-1.45H2.62v1.45Zm1.74 0h1.46v-1.45H4.36v1.45Zm13.97 0h1.45v-1.45h-1.45v1.45Zm1.74 0h1.46v-1.45h-1.46v1.45Zm1.75 0h1.45v-1.45h-1.45v1.45Zm1.74 0h2.33v-1.45h-2.33v1.45Zm3.2 0h1.46v-1.45h-1.46v1.45Zm1.75 0h1.45v-1.45h-1.45v1.45Zm1.74 0h1.46v-1.45h-1.46v1.45Zm8 0h1.46v-3.18h-1.46v3.18Zm0-3.47h1.46v-3.4h-1.46v3.4Zm0-3.76h1.46v-1.44h-1.46v1.44Zm-1.89 0h1.46v-1.44h-1.46v1.44Zm-1.89 0h1.46v-1.44h-1.46v1.44Zm-1.89 0h1.46v-1.44h-1.46v1.44Zm-2.33 0h1.46v-1.44h-1.46v1.44Zm0 1.81h1.46v-1.45h-1.46v1.45Zm-1.74 3.61h1.45v-1.44h-1.45v1.44Zm-6.69-.02h4.07v-1.45h-4.07v1.45Zm1.74-1.83h2.33v-3.18h-2.33v3.18Zm3.2-1.76h1.46v-1.45h-1.46v1.45Zm1.75 0h1.45v-1.45h-1.45v1.45Zm0-1.81h1.45v-1.44h-1.45v1.44Zm-4.95 0h2.33v-1.44h-2.33v1.44Zm13.97-3.75h1.16v-.29h-1.16v.29Zm-1.75 0h1.17v-.29h-1.17v.29Zm-5.53.86h1.46v-1.44h-1.46v1.44Zm-1.74 0h1.45v-1.44h-1.45v1.44Zm-1.75 0h1.46v-1.44h-1.46v1.44Zm-10.76 0h1.45v-1.44H16v1.44Zm-1.75 0h1.46v-1.44h-1.46v1.44Zm-1.74 0h1.45v-1.44h-1.45v1.44Zm-1.75 0h1.46v-1.44h-1.46v1.44Zm16 2.89h1.46v-1.44h-1.46v1.44Z" class="st10"/></g></g><g id="group1183-275" transform="rotate(89.765 795.429 973.008)"><path class="st6" d="M0 891.208h137.482v5.669H0z" id="shape1183-278"/></g><g id="group1185-280" transform="scale(1 -1) rotate(-89.535 -105.444 -79.75)"><path class="st6" d="M0 891.208h137.482v5.669H0z" id="shape1185-283"/></g><g id="group840-285" transform="matrix(1 0 0 -1 246.118 1516.34)"><g id="shape841-286"><path d="M-1.42 897.02H99.21v-4.54H-1.42v4.54Z" class="st14"/></g><g id="shape845-294" transform="translate(-1.417)"><path d="M100.63 896.88v-4.25h-1.42v4.25h1.42ZM0 896.88v-4.25h1.42v4.25H0Z" class="st4"/><path d="M100.63 896.88v-4.25h-1.42v1.41m0 1.42v1.42h1.42M0 896.88v-4.25h1.42v1.41m0 1.42v1.42H0" class="st5"/></g><g id="shape846-297" transform="translate(0 -1.417)"><path d="M97.8 895.46h-.57v1.42h.57v-1.42Zm-97.8 0h.57v1.42H0v-1.42Z" class="st4"/><path d="M97.8 895.46h-.57v1.42h.57M0 895.46h.57v1.42H0" class="st5"/></g><g id="shape847-300" transform="translate(-1.417)"><path d="M100.63 896.88v-4.25M0 896.88v-4.25" class="st5"/></g><g id="shape848-304" transform="translate(0 -4.252)"><path d="M0 896.88a97.795 97.795 0 0 1 25.43-65.79" class="st5"/></g><g id="shape849-307" transform="rotate(42.274 101.462 894.042)"><path class="st6" d="M0 895.46h97.795v1.417H0z"/></g><g id="shape851-311" transform="rotate(-42.274 94.129 895.46)"><path class="st15" d="M0 895.46h97.795v1.417H0z"/></g></g></svg>