<svg xmlns="http://www.w3.org/2000/svg" id="svg1564" version="1.1" class="st3" color-interpolation-filters="sRGB" viewBox="0 0 1647.828 1634.224" height="2178.972" width="2197.103" fill="none"><defs id="defs1568"><defs id="defs26"><path id="mfid450" d="M-5.905-5.905H272.05L266.14 0H0Z"/></defs><defs id="defs31"><path d="M-5.905-5.905H272.05M0 0h266.14" id="mfid451"/></defs><defs id="defs38"><path d="M-5.905-5.905H269.69L263.78 0H0Z" id="mfid452"/></defs><defs id="defs47"><path d="M-5.905-5.905H269.69M0 0h263.78" id="mfid453"/></defs><defs id="defs52"><path d="M-5.905-5.905H272.05L266.14 0H0Z" id="mfid454"/></defs><defs id="defs61"><path d="M-5.905-5.905H272.05M0 0h266.14" id="mfid455"/></defs><defs id="defs66"><path d="M-5.905-5.905H269.69L263.78 0H0Z" id="mfid456"/></defs><defs id="defs75"><path d="M-5.905-5.905H269.69M0 0h263.78" id="mfid457"/></defs><defs id="defs80"><path d="M0 0h31.496v-1.968H0Z" id="mfid458"/></defs><defs id="defs93"><path d="M0-62.3c0-.382.278-.692.622-.692h30.252c.344 0 .622.31.622.692V-.692c0 .382-.279.692-.622.692H.622C.278 0 0-.31 0-.692Z" id="mfid459"/></defs><defs id="defs106"><path d="M4.252-2.126a2.126 2.126 0 1 0-4.252 0 2.126 2.126 0 0 0 4.252 0Z" id="mfid460"/></defs><defs id="defs115"><path d="M2.953-1.476a1.476 1.476 0 1 0-2.953 0 1.476 1.476 0 0 0 2.953 0Z" id="mfid461"/></defs><defs id="defs124"><path d="M6.272 0c7.567 0 6.44-5 6.44-5l-.71-4.976c-.311-2.836-2.798-2.831-2.798-2.831H4.068C.908-12.325.73-9.532.73-9.532.635-8.728.032-4.593.032-4.593-.27-1.88 1.651-.803 1.651-.803 3.067 0 6.27 0 6.27 0ZM1.746-19.603s2.226-.24 5.005-.24 4.365.24 4.365.24c2.125.261 1.514 2.344 1.514 2.344-.023.224-.354 1.71-.449 1.983-.245.711-.704 1.193-1.333 1.455-.456.191-.93.322-1.418.323H3.432c-.489-.001-.962-.132-1.418-.323-.629-.262-1.087-.744-1.333-1.455-.095-.273-.426-1.759-.45-1.983 0 0-.61-2.083 1.515-2.344z" id="mfid462"/></defs><defs id="defs137"><path d="M5.473-14.961s2.23-.205 5.008-.162c2.778.043 4.361.307 4.361.307.998.139 1.383.671 1.513 1.197.087-.356.398-2.038-1.496-2.301 0 0-1.583-.264-4.361-.307-2.779-.043-5.008.162-5.008.162-1.902.204-1.643 1.895-1.566 2.253.145-.521.547-1.041 1.549-1.149zM19.837-1.755 18.405-7.21c-.475-1.685-1.245-1.585-1.551-1.53-.797.142-.682.892-.619 1.889l.67 5.324c.153.887.753 1.587 1.562 1.524.81-.063 1.424-.846 1.37-1.75zM.007-2.062l1.601-5.41c.527-1.67 1.294-1.545 1.598-1.481.792.167.654.913.56 1.908l-.835 5.3C2.751-.862 2.13-.182 1.322-.27.515-.357-.074-1.16.008-2.062Zm3.937-1.496-.725-.011.262-1.67.718.033zM9.247-9.21l1.643.026.011-.691-1.643-.026zm6.702 5.838.725.011-.211-1.677-.717.012z" id="mfid463"/></defs><defs id="defs148"><path d="M10.247-17.081H5.894a.22.22 0 0 0-.224.218v13.994c0 .12.101.218.224.218h4.352a.22.22 0 0 0 .224-.218v-13.994a.22.22 0 0 0-.223-.218zm-6.734 4.145v-.021h.69c.325 0 .589.311.589.695v4.694c0 .384-.264.696-.59.696h-.689Zm0 0v10.098L.577 0 0-.211v-19.421l.577-.211 2.936 2.839z" id="mfid464"/></defs><defs id="defs161"><path d="M2.926-12.826v-.716h.736v.716h-.736v.86-.715h.736v.715h-.736Zm0 1.721v-.716h.736v.716h-.736v1.232-.716h.736v.716h-.736Zm0 2.092v-.716h.736v.716h-.736v.86-.715h.736v.715h-.736Zm0 2.128V-7.6h.736v.715h-.736v.86-.714h.736v.715h-.736Zm0 5.164V-5.88h.736v4.158h-.736v.86-.715h.736v.715h-.736Zm0 1.72v-.715h.736V0h-.736L2.04-9.013v-.715h.736v.715H2.04ZM2.04-6.023V-7.6h.736v1.576H2.04v.86-.715h.736v.715H2.04zm0-5.081v-.716h.735v.716H2.04V-13.542h.737v.716H2.04Zm0-.861v-.715h.736v.715H2.04v7.663-.716h.737v.716H2.04Zm0 8.523v-.715h.736v.715H2.04v.861-.716h.737v.716H2.04Zm0 1.722v-.716h.736v.716H2.04V0v-1.576h.737V0H2.04Zm-.886-5.164V-7.6h.736v.715h-.736v.86-.714h.736v.715h-.736Zm0 1.722v-.716h.736v.715h-.736v.86-.715h.737v.716h-.737Zm0 1.72v-.715h.737v.715h-.737v.861-.716h.737v.716h-.737Zm0 1.722v-.716h.737v.716h-.737v.86-.715h.737v.715h-.737Zm0 1.72v-.715h.737V0h-.737v-13.542h.736v.716h-.736Zm0-11.965v-.715h.736v.715h-.736v.861-.716h.736v.716h-.736ZM0-6.885V-7.6h.737v.715H0v.86-.714h.737v.715H0Zm0 1.722v-.716h.737v.715H0v.86-.715h.737v.716H0Zm0 1.72v-.715h.737v.715H0v.861-.716h.737v.716H0ZM0-1.72v-.716h.737v.716H0v.86-.715h.737v.715H0Zm0 1.72v-.715h.737V0H0v-8.868h.737v.715H0Zm0-12.825v-.716h.737v.716H0v.86-.715h.737v.715H0Zm0 1.721v-.716h.737v.716H0v1.232-.716h.737v.716H0Zm0 2.092v-.716h.737v.716z" id="mfid465"/></defs><defs id="defs170"><path d="M9.921-2.193h8.78L16.771 0h-13.7l-1.93-2.193Z" id="mfid466"/></defs><defs id="defs179"><path d="M9.921-2.193h8.78L16.771 0h-13.7l-1.93-2.193Zm9.922-.444H0" id="mfid467"/></defs><defs id="defs186"><path d="M0 0h62.988v-1.968H0Z" id="mfid468"/></defs><defs id="defs199"><path d="M0-62.3c0-.382.278-.692.622-.692h30.252c.344 0 .622.31.622.692V-.692c0 .382-.279.692-.622.692H.622C.278 0 0-.31 0-.692Z" id="mfid469"/></defs><defs id="defs212"><path d="M4.252-2.126a2.126 2.126 0 1 0-4.252 0 2.126 2.126 0 0 0 4.252 0Z" id="mfid470"/></defs><defs id="defs221"><path d="M2.953-1.476a1.476 1.476 0 1 0-2.953 0 1.476 1.476 0 0 0 2.953 0Z" id="mfid471"/></defs><defs id="defs230"><path d="M6.272 0c7.567 0 6.44-5 6.44-5l-.71-4.976c-.311-2.836-2.798-2.831-2.798-2.831H4.068C.908-12.325.73-9.532.73-9.532.635-8.728.032-4.593.032-4.593-.27-1.88 1.651-.803 1.651-.803 3.067 0 6.27 0 6.27 0ZM1.746-19.603s2.226-.24 5.005-.24 4.365.24 4.365.24c2.125.261 1.514 2.344 1.514 2.344-.023.224-.354 1.71-.449 1.983-.245.711-.704 1.193-1.333 1.455-.456.191-.93.322-1.418.323H3.432c-.489-.001-.962-.132-1.418-.323-.629-.262-1.087-.744-1.333-1.455-.095-.273-.426-1.759-.45-1.983 0 0-.61-2.083 1.515-2.344z" id="mfid472"/></defs><defs id="defs243"><path d="M5.473-14.961s2.23-.205 5.008-.162c2.778.043 4.361.307 4.361.307.998.139 1.383.671 1.513 1.197.087-.356.398-2.038-1.496-2.301 0 0-1.583-.264-4.361-.307-2.779-.043-5.008.162-5.008.162-1.902.204-1.643 1.895-1.566 2.253.145-.521.547-1.041 1.549-1.149zM19.837-1.755 18.405-7.21c-.475-1.685-1.245-1.585-1.551-1.53-.797.142-.682.892-.619 1.889l.67 5.324c.153.887.753 1.587 1.562 1.524.81-.063 1.424-.846 1.37-1.75zM.007-2.062l1.601-5.41c.527-1.67 1.294-1.545 1.598-1.481.792.167.654.913.56 1.908l-.835 5.3C2.751-.862 2.13-.182 1.322-.27.515-.357-.074-1.16.008-2.062Zm3.937-1.496-.725-.011.262-1.67.718.033zM9.247-9.21l1.643.026.011-.691-1.643-.026zm6.702 5.838.725.011-.211-1.677-.717.012z" id="mfid473"/></defs><defs id="defs254"><path d="M10.247-17.081H5.894a.22.22 0 0 0-.224.218v13.994c0 .12.101.218.224.218h4.352a.22.22 0 0 0 .224-.218v-13.994a.22.22 0 0 0-.223-.218zm-6.734 4.145v-.021h.69c.325 0 .589.311.589.695v4.694c0 .384-.264.696-.59.696h-.689Zm0 0v10.098L.577 0 0-.211v-19.421l.577-.211 2.936 2.839z" id="mfid474"/></defs><defs id="defs267"><path d="M2.926-12.826v-.716h.736v.716h-.736v.86-.715h.736v.715h-.736Zm0 1.721v-.716h.736v.716h-.736v1.232-.716h.736v.716h-.736Zm0 2.092v-.716h.736v.716h-.736v.86-.715h.736v.715h-.736Zm0 2.128V-7.6h.736v.715h-.736v.86-.714h.736v.715h-.736Zm0 5.164V-5.88h.736v4.158h-.736v.86-.715h.736v.715h-.736Zm0 1.72v-.715h.736V0h-.736L2.04-9.013v-.715h.736v.715H2.04ZM2.04-6.023V-7.6h.736v1.576H2.04v.86-.715h.736v.715H2.04zm0-5.081v-.716h.735v.716H2.04V-13.542h.737v.716H2.04Zm0-.861v-.715h.736v.715H2.04v7.663-.716h.737v.716H2.04Zm0 8.523v-.715h.736v.715H2.04v.861-.716h.737v.716H2.04Zm0 1.722v-.716h.736v.716H2.04V0v-1.576h.737V0H2.04Zm-.886-5.164V-7.6h.736v.715h-.736v.86-.714h.736v.715h-.736Zm0 1.722v-.716h.736v.715h-.736v.86-.715h.737v.716h-.737Zm0 1.72v-.715h.737v.715h-.737v.861-.716h.737v.716h-.737Zm0 1.722v-.716h.737v.716h-.737v.86-.715h.737v.715h-.737Zm0 1.72v-.715h.737V0h-.737v-13.542h.736v.716h-.736Zm0-11.965v-.715h.736v.715h-.736v.861-.716h.736v.716h-.736ZM0-6.885V-7.6h.737v.715H0v.86-.714h.737v.715H0Zm0 1.722v-.716h.737v.715H0v.86-.715h.737v.716H0Zm0 1.72v-.715h.737v.715H0v.861-.716h.737v.716H0ZM0-1.72v-.716h.737v.716H0v.86-.715h.737v.715H0Zm0 1.72v-.715h.737V0H0v-8.868h.737v.715H0Zm0-12.825v-.716h.737v.716H0v.86-.715h.737v.715H0Zm0 1.721v-.716h.737v.716H0v1.232-.716h.737v.716H0Zm0 2.092v-.716h.737v.716z" id="mfid475"/></defs><defs id="defs276"><path d="M9.921-2.193h8.78L16.771 0h-13.7l-1.93-2.193Z" id="mfid476"/></defs><defs id="defs285"><path d="M9.921-2.193h8.78L16.771 0h-13.7l-1.93-2.193Zm9.922-.444H0" id="mfid477"/></defs><defs id="defs292"><path d="M0-62.3c0-.382.278-.692.622-.692h30.252c.344 0 .622.31.622.692V-.692c0 .382-.279.692-.622.692H.622C.278 0 0-.31 0-.692Z" id="mfid478"/></defs><defs id="defs305"><path d="M4.252-2.126a2.126 2.126 0 1 0-4.252 0 2.126 2.126 0 0 0 4.252 0Z" id="mfid479"/></defs><defs id="defs314"><path d="M2.953-1.476a1.476 1.476 0 1 0-2.953 0 1.476 1.476 0 0 0 2.953 0Z" id="mfid480"/></defs><defs id="defs323"><path d="M6.272 0c7.567 0 6.44-5 6.44-5l-.71-4.976c-.311-2.836-2.798-2.831-2.798-2.831H4.068C.908-12.325.73-9.532.73-9.532.635-8.728.032-4.593.032-4.593-.27-1.88 1.651-.803 1.651-.803 3.067 0 6.27 0 6.27 0ZM1.746-19.603s2.226-.24 5.005-.24 4.365.24 4.365.24c2.125.261 1.514 2.344 1.514 2.344-.023.224-.354 1.71-.449 1.983-.245.711-.704 1.193-1.333 1.455-.456.191-.93.322-1.418.323H3.432c-.489-.001-.962-.132-1.418-.323-.629-.262-1.087-.744-1.333-1.455-.095-.273-.426-1.759-.45-1.983 0 0-.61-2.083 1.515-2.344z" id="mfid481"/></defs><defs id="defs336"><path d="M5.473-14.961s2.23-.205 5.008-.162c2.778.043 4.361.307 4.361.307.998.139 1.383.671 1.513 1.197.087-.356.398-2.038-1.496-2.301 0 0-1.583-.264-4.361-.307-2.779-.043-5.008.162-5.008.162-1.902.204-1.643 1.895-1.566 2.253.145-.521.547-1.041 1.549-1.149zM19.837-1.755 18.405-7.21c-.475-1.685-1.245-1.585-1.551-1.53-.797.142-.682.892-.619 1.889l.67 5.324c.153.887.753 1.587 1.562 1.524.81-.063 1.424-.846 1.37-1.75zM.007-2.062l1.601-5.41c.527-1.67 1.294-1.545 1.598-1.481.792.167.654.913.56 1.908l-.835 5.3C2.751-.862 2.13-.182 1.322-.27.515-.357-.074-1.16.008-2.062Zm3.937-1.496-.725-.011.262-1.67.718.033zM9.247-9.21l1.643.026.011-.691-1.643-.026zm6.702 5.838.725.011-.211-1.677-.717.012z" id="mfid482"/></defs><defs id="defs347"><path d="M10.247-17.081H5.894a.22.22 0 0 0-.224.218v13.994c0 .12.101.218.224.218h4.352a.22.22 0 0 0 .224-.218v-13.994a.22.22 0 0 0-.223-.218zm-6.734 4.145v-.021h.69c.325 0 .589.311.589.695v4.694c0 .384-.264.696-.59.696h-.689Zm0 0v10.098L.577 0 0-.211v-19.421l.577-.211 2.936 2.839z" id="mfid483"/></defs><defs id="defs360"><path d="M2.926-12.826v-.716h.736v.716h-.736v.86-.715h.736v.715h-.736Zm0 1.721v-.716h.736v.716h-.736v1.232-.716h.736v.716h-.736Zm0 2.092v-.716h.736v.716h-.736v.86-.715h.736v.715h-.736Zm0 2.128V-7.6h.736v.715h-.736v.86-.714h.736v.715h-.736Zm0 5.164V-5.88h.736v4.158h-.736v.86-.715h.736v.715h-.736Zm0 1.72v-.715h.736V0h-.736L2.04-9.013v-.715h.736v.715H2.04ZM2.04-6.023V-7.6h.736v1.576H2.04v.86-.715h.736v.715H2.04zm0-5.081v-.716h.735v.716H2.04V-13.542h.737v.716H2.04Zm0-.861v-.715h.736v.715H2.04v7.663-.716h.737v.716H2.04Zm0 8.523v-.715h.736v.715H2.04v.861-.716h.737v.716H2.04Zm0 1.722v-.716h.736v.716H2.04V0v-1.576h.737V0H2.04Zm-.886-5.164V-7.6h.736v.715h-.736v.86-.714h.736v.715h-.736Zm0 1.722v-.716h.736v.715h-.736v.86-.715h.737v.716h-.737Zm0 1.72v-.715h.737v.715h-.737v.861-.716h.737v.716h-.737Zm0 1.722v-.716h.737v.716h-.737v.86-.715h.737v.715h-.737Zm0 1.72v-.715h.737V0h-.737v-13.542h.736v.716h-.736Zm0-11.965v-.715h.736v.715h-.736v.861-.716h.736v.716h-.736ZM0-6.885V-7.6h.737v.715H0v.86-.714h.737v.715H0Zm0 1.722v-.716h.737v.715H0v.86-.715h.737v.716H0Zm0 1.72v-.715h.737v.715H0v.861-.716h.737v.716H0ZM0-1.72v-.716h.737v.716H0v.86-.715h.737v.715H0Zm0 1.72v-.715h.737V0H0v-8.868h.737v.715H0Zm0-12.825v-.716h.737v.716H0v.86-.715h.737v.715H0Zm0 1.721v-.716h.737v.716H0v1.232-.716h.737v.716H0Zm0 2.092v-.716h.737v.716z" id="mfid484"/></defs><defs id="defs369"><path d="M9.921-2.193h8.78L16.771 0h-13.7l-1.93-2.193Z" id="mfid485"/></defs><defs id="defs378"><path d="M9.921-2.193h8.78L16.771 0h-13.7l-1.93-2.193Zm9.922-.444H0" id="mfid486"/></defs><defs id="defs385"><path d="M0-62.3c0-.382.278-.692.622-.692h30.252c.344 0 .622.31.622.692V-.692c0 .382-.279.692-.622.692H.622C.278 0 0-.31 0-.692Z" id="mfid487"/></defs><defs id="defs398"><path d="M4.252-2.126a2.126 2.126 0 1 0-4.252 0 2.126 2.126 0 0 0 4.252 0Z" id="mfid488"/></defs><defs id="defs407"><path d="M2.953-1.476a1.476 1.476 0 1 0-2.953 0 1.476 1.476 0 0 0 2.953 0Z" id="mfid489"/></defs><defs id="defs416"><path d="M6.272 0c7.567 0 6.44-5 6.44-5l-.71-4.976c-.311-2.836-2.798-2.831-2.798-2.831H4.068C.908-12.325.73-9.532.73-9.532.635-8.728.032-4.593.032-4.593-.27-1.88 1.651-.803 1.651-.803 3.067 0 6.27 0 6.27 0ZM1.746-19.603s2.226-.24 5.005-.24 4.365.24 4.365.24c2.125.261 1.514 2.344 1.514 2.344-.023.224-.354 1.71-.449 1.983-.245.711-.704 1.193-1.333 1.455-.456.191-.93.322-1.418.323H3.432c-.489-.001-.962-.132-1.418-.323-.629-.262-1.087-.744-1.333-1.455-.095-.273-.426-1.759-.45-1.983 0 0-.61-2.083 1.515-2.344z" id="mfid490"/></defs><defs id="defs429"><path d="M5.473-14.961s2.23-.205 5.008-.162c2.778.043 4.361.307 4.361.307.998.139 1.383.671 1.513 1.197.087-.356.398-2.038-1.496-2.301 0 0-1.583-.264-4.361-.307-2.779-.043-5.008.162-5.008.162-1.902.204-1.643 1.895-1.566 2.253.145-.521.547-1.041 1.549-1.149zM19.837-1.755 18.405-7.21c-.475-1.685-1.245-1.585-1.551-1.53-.797.142-.682.892-.619 1.889l.67 5.324c.153.887.753 1.587 1.562 1.524.81-.063 1.424-.846 1.37-1.75zM.007-2.062l1.601-5.41c.527-1.67 1.294-1.545 1.598-1.481.792.167.654.913.56 1.908l-.835 5.3C2.751-.862 2.13-.182 1.322-.27.515-.357-.074-1.16.008-2.062Zm3.937-1.496-.725-.011.262-1.67.718.033zM9.247-9.21l1.643.026.011-.691-1.643-.026zm6.702 5.838.725.011-.211-1.677-.717.012z" id="mfid491"/></defs><defs id="defs440"><path d="M10.247-17.081H5.894a.22.22 0 0 0-.224.218v13.994c0 .12.101.218.224.218h4.352a.22.22 0 0 0 .224-.218v-13.994a.22.22 0 0 0-.223-.218zm-6.734 4.145v-.021h.69c.325 0 .589.311.589.695v4.694c0 .384-.264.696-.59.696h-.689Zm0 0v10.098L.577 0 0-.211v-19.421l.577-.211 2.936 2.839z" id="mfid492"/></defs><defs id="defs453"><path d="M2.926-12.826v-.716h.736v.716h-.736v.86-.715h.736v.715h-.736Zm0 1.721v-.716h.736v.716h-.736v1.232-.716h.736v.716h-.736Zm0 2.092v-.716h.736v.716h-.736v.86-.715h.736v.715h-.736Zm0 2.128V-7.6h.736v.715h-.736v.86-.714h.736v.715h-.736Zm0 5.164V-5.88h.736v4.158h-.736v.86-.715h.736v.715h-.736Zm0 1.72v-.715h.736V0h-.736L2.04-9.013v-.715h.736v.715H2.04ZM2.04-6.023V-7.6h.736v1.576H2.04v.86-.715h.736v.715H2.04zm0-5.081v-.716h.735v.716H2.04V-13.542h.737v.716H2.04Zm0-.861v-.715h.736v.715H2.04v7.663-.716h.737v.716H2.04Zm0 8.523v-.715h.736v.715H2.04v.861-.716h.737v.716H2.04Zm0 1.722v-.716h.736v.716H2.04V0v-1.576h.737V0H2.04Zm-.886-5.164V-7.6h.736v.715h-.736v.86-.714h.736v.715h-.736Zm0 1.722v-.716h.736v.715h-.736v.86-.715h.737v.716h-.737Zm0 1.72v-.715h.737v.715h-.737v.861-.716h.737v.716h-.737Zm0 1.722v-.716h.737v.716h-.737v.86-.715h.737v.715h-.737Zm0 1.72v-.715h.737V0h-.737v-13.542h.736v.716h-.736Zm0-11.965v-.715h.736v.715h-.736v.861-.716h.736v.716h-.736ZM0-6.885V-7.6h.737v.715H0v.86-.714h.737v.715H0Zm0 1.722v-.716h.737v.715H0v.86-.715h.737v.716H0Zm0 1.72v-.715h.737v.715H0v.861-.716h.737v.716H0ZM0-1.72v-.716h.737v.716H0v.86-.715h.737v.715H0Zm0 1.72v-.715h.737V0H0v-8.868h.737v.715H0Zm0-12.825v-.716h.737v.716H0v.86-.715h.737v.715H0Zm0 1.721v-.716h.737v.716H0v1.232-.716h.737v.716H0Zm0 2.092v-.716h.737v.716z" id="mfid493"/></defs><defs id="defs462"><path d="M9.921-2.193h8.78L16.771 0h-13.7l-1.93-2.193Z" id="mfid494"/></defs><defs id="defs471"><path d="M9.921-2.193h8.78L16.771 0h-13.7l-1.93-2.193Zm9.922-.444H0" id="mfid495"/></defs><defs id="defs478"><path d="M0 0h31.496v-1.968H0Z" id="mfid496"/></defs><defs id="defs491"><path d="M0-62.3c0-.382.278-.692.622-.692h30.252c.344 0 .622.31.622.692V-.692c0 .382-.279.692-.622.692H.622C.278 0 0-.31 0-.692Z" id="mfid497"/></defs><defs id="defs504"><path d="M4.252-2.126a2.126 2.126 0 1 0-4.252 0 2.126 2.126 0 0 0 4.252 0Z" id="mfid498"/></defs><defs id="defs513"><path d="M2.953-1.476a1.476 1.476 0 1 0-2.953 0 1.476 1.476 0 0 0 2.953 0Z" id="mfid499"/></defs><defs id="defs522"><path d="M6.272 0c7.567 0 6.44-5 6.44-5l-.71-4.976c-.311-2.836-2.798-2.831-2.798-2.831H4.068C.908-12.325.73-9.532.73-9.532.635-8.728.032-4.593.032-4.593-.27-1.88 1.651-.803 1.651-.803 3.067 0 6.27 0 6.27 0ZM1.746-19.603s2.226-.24 5.005-.24 4.365.24 4.365.24c2.125.261 1.514 2.344 1.514 2.344-.023.224-.354 1.71-.449 1.983-.245.711-.704 1.193-1.333 1.455-.456.191-.93.322-1.418.323H3.432c-.489-.001-.962-.132-1.418-.323-.629-.262-1.087-.744-1.333-1.455-.095-.273-.426-1.759-.45-1.983 0 0-.61-2.083 1.515-2.344z" id="mfid500"/></defs><defs id="defs535"><path d="M5.473-14.961s2.23-.205 5.008-.162c2.778.043 4.361.307 4.361.307.998.139 1.383.671 1.513 1.197.087-.356.398-2.038-1.496-2.301 0 0-1.583-.264-4.361-.307-2.779-.043-5.008.162-5.008.162-1.902.204-1.643 1.895-1.566 2.253.145-.521.547-1.041 1.549-1.149zM19.837-1.755 18.405-7.21c-.475-1.685-1.245-1.585-1.551-1.53-.797.142-.682.892-.619 1.889l.67 5.324c.153.887.753 1.587 1.562 1.524.81-.063 1.424-.846 1.37-1.75zM.007-2.062l1.601-5.41c.527-1.67 1.294-1.545 1.598-1.481.792.167.654.913.56 1.908l-.835 5.3C2.751-.862 2.13-.182 1.322-.27.515-.357-.074-1.16.008-2.062Zm3.937-1.496-.725-.011.262-1.67.718.033zM9.247-9.21l1.643.026.011-.691-1.643-.026zm6.702 5.838.725.011-.211-1.677-.717.012z" id="mfid501"/></defs><defs id="defs546"><path d="M10.247-17.081H5.894a.22.22 0 0 0-.224.218v13.994c0 .12.101.218.224.218h4.352a.22.22 0 0 0 .224-.218v-13.994a.22.22 0 0 0-.223-.218zm-6.734 4.145v-.021h.69c.325 0 .589.311.589.695v4.694c0 .384-.264.696-.59.696h-.689Zm0 0v10.098L.577 0 0-.211v-19.421l.577-.211 2.936 2.839z" id="mfid502"/></defs><defs id="defs559"><path d="M2.926-12.826v-.716h.736v.716h-.736v.86-.715h.736v.715h-.736Zm0 1.721v-.716h.736v.716h-.736v1.232-.716h.736v.716h-.736Zm0 2.092v-.716h.736v.716h-.736v.86-.715h.736v.715h-.736Zm0 2.128V-7.6h.736v.715h-.736v.86-.714h.736v.715h-.736Zm0 5.164V-5.88h.736v4.158h-.736v.86-.715h.736v.715h-.736Zm0 1.72v-.715h.736V0h-.736L2.04-9.013v-.715h.736v.715H2.04ZM2.04-6.023V-7.6h.736v1.576H2.04v.86-.715h.736v.715H2.04zm0-5.081v-.716h.735v.716H2.04V-13.542h.737v.716H2.04Zm0-.861v-.715h.736v.715H2.04v7.663-.716h.737v.716H2.04Zm0 8.523v-.715h.736v.715H2.04v.861-.716h.737v.716H2.04Zm0 1.722v-.716h.736v.716H2.04V0v-1.576h.737V0H2.04Zm-.886-5.164V-7.6h.736v.715h-.736v.86-.714h.736v.715h-.736Zm0 1.722v-.716h.736v.715h-.736v.86-.715h.737v.716h-.737Zm0 1.72v-.715h.737v.715h-.737v.861-.716h.737v.716h-.737Zm0 1.722v-.716h.737v.716h-.737v.86-.715h.737v.715h-.737Zm0 1.72v-.715h.737V0h-.737v-13.542h.736v.716h-.736Zm0-11.965v-.715h.736v.715h-.736v.861-.716h.736v.716h-.736ZM0-6.885V-7.6h.737v.715H0v.86-.714h.737v.715H0Zm0 1.722v-.716h.737v.715H0v.86-.715h.737v.716H0Zm0 1.72v-.715h.737v.715H0v.861-.716h.737v.716H0ZM0-1.72v-.716h.737v.716H0v.86-.715h.737v.715H0Zm0 1.72v-.715h.737V0H0v-8.868h.737v.715H0Zm0-12.825v-.716h.737v.716H0v.86-.715h.737v.715H0Zm0 1.721v-.716h.737v.716H0v1.232-.716h.737v.716H0Zm0 2.092v-.716h.737v.716z" id="mfid503"/></defs><defs id="defs568"><path d="M9.921-2.193h8.78L16.771 0h-13.7l-1.93-2.193Z" id="mfid504"/></defs><defs id="defs577"><path d="M9.921-2.193h8.78L16.771 0h-13.7l-1.93-2.193Zm9.922-.444H0" id="mfid505"/></defs><defs id="defs584"><path d="M0 0h31.496v-1.968H0Z" id="mfid506"/></defs><defs id="defs597"><path d="M0-62.3c0-.382.278-.692.622-.692h30.252c.344 0 .622.31.622.692V-.692c0 .382-.279.692-.622.692H.622C.278 0 0-.31 0-.692Z" id="mfid507"/></defs><defs id="defs610"><path d="M4.252-2.126a2.126 2.126 0 1 0-4.252 0 2.126 2.126 0 0 0 4.252 0Z" id="mfid508"/></defs><defs id="defs619"><path d="M2.953-1.476a1.476 1.476 0 1 0-2.953 0 1.476 1.476 0 0 0 2.953 0Z" id="mfid509"/></defs><defs id="defs628"><path d="M6.272 0c7.567 0 6.44-5 6.44-5l-.71-4.976c-.311-2.836-2.798-2.831-2.798-2.831H4.068C.908-12.325.73-9.532.73-9.532.635-8.728.032-4.593.032-4.593-.27-1.88 1.651-.803 1.651-.803 3.067 0 6.27 0 6.27 0ZM1.746-19.603s2.226-.24 5.005-.24 4.365.24 4.365.24c2.125.261 1.514 2.344 1.514 2.344-.023.224-.354 1.71-.449 1.983-.245.711-.704 1.193-1.333 1.455-.456.191-.93.322-1.418.323H3.432c-.489-.001-.962-.132-1.418-.323-.629-.262-1.087-.744-1.333-1.455-.095-.273-.426-1.759-.45-1.983 0 0-.61-2.083 1.515-2.344z" id="mfid510"/></defs><defs id="defs641"><path d="M5.473-14.961s2.23-.205 5.008-.162c2.778.043 4.361.307 4.361.307.998.139 1.383.671 1.513 1.197.087-.356.398-2.038-1.496-2.301 0 0-1.583-.264-4.361-.307-2.779-.043-5.008.162-5.008.162-1.902.204-1.643 1.895-1.566 2.253.145-.521.547-1.041 1.549-1.149zM19.837-1.755 18.405-7.21c-.475-1.685-1.245-1.585-1.551-1.53-.797.142-.682.892-.619 1.889l.67 5.324c.153.887.753 1.587 1.562 1.524.81-.063 1.424-.846 1.37-1.75zM.007-2.062l1.601-5.41c.527-1.67 1.294-1.545 1.598-1.481.792.167.654.913.56 1.908l-.835 5.3C2.751-.862 2.13-.182 1.322-.27.515-.357-.074-1.16.008-2.062Zm3.937-1.496-.725-.011.262-1.67.718.033zM9.247-9.21l1.643.026.011-.691-1.643-.026zm6.702 5.838.725.011-.211-1.677-.717.012z" id="mfid511"/></defs><defs id="defs652"><path d="M10.247-17.081H5.894a.22.22 0 0 0-.224.218v13.994c0 .12.101.218.224.218h4.352a.22.22 0 0 0 .224-.218v-13.994a.22.22 0 0 0-.223-.218zm-6.734 4.145v-.021h.69c.325 0 .589.311.589.695v4.694c0 .384-.264.696-.59.696h-.689Zm0 0v10.098L.577 0 0-.211v-19.421l.577-.211 2.936 2.839z" id="mfid512"/></defs><defs id="defs665"><path d="M2.926-12.826v-.716h.736v.716h-.736v.86-.715h.736v.715h-.736Zm0 1.721v-.716h.736v.716h-.736v1.232-.716h.736v.716h-.736Zm0 2.092v-.716h.736v.716h-.736v.86-.715h.736v.715h-.736Zm0 2.128V-7.6h.736v.715h-.736v.86-.714h.736v.715h-.736Zm0 5.164V-5.88h.736v4.158h-.736v.86-.715h.736v.715h-.736Zm0 1.72v-.715h.736V0h-.736L2.04-9.013v-.715h.736v.715H2.04ZM2.04-6.023V-7.6h.736v1.576H2.04v.86-.715h.736v.715H2.04zm0-5.081v-.716h.735v.716H2.04V-13.542h.737v.716H2.04Zm0-.861v-.715h.736v.715H2.04v7.663-.716h.737v.716H2.04Zm0 8.523v-.715h.736v.715H2.04v.861-.716h.737v.716H2.04Zm0 1.722v-.716h.736v.716H2.04V0v-1.576h.737V0H2.04Zm-.886-5.164V-7.6h.736v.715h-.736v.86-.714h.736v.715h-.736Zm0 1.722v-.716h.736v.715h-.736v.86-.715h.737v.716h-.737Zm0 1.72v-.715h.737v.715h-.737v.861-.716h.737v.716h-.737Zm0 1.722v-.716h.737v.716h-.737v.86-.715h.737v.715h-.737Zm0 1.72v-.715h.737V0h-.737v-13.542h.736v.716h-.736Zm0-11.965v-.715h.736v.715h-.736v.861-.716h.736v.716h-.736ZM0-6.885V-7.6h.737v.715H0v.86-.714h.737v.715H0Zm0 1.722v-.716h.737v.715H0v.86-.715h.737v.716H0Zm0 1.72v-.715h.737v.715H0v.861-.716h.737v.716H0ZM0-1.72v-.716h.737v.716H0v.86-.715h.737v.715H0Zm0 1.72v-.715h.737V0H0v-8.868h.737v.715H0Zm0-12.825v-.716h.737v.716H0v.86-.715h.737v.715H0Zm0 1.721v-.716h.737v.716H0v1.232-.716h.737v.716H0Zm0 2.092v-.716h.737v.716z" id="mfid513"/></defs><defs id="defs674"><path d="M9.921-2.193h8.78L16.771 0h-13.7l-1.93-2.193Z" id="mfid514"/></defs><defs id="defs683"><path d="M9.921-2.193h8.78L16.771 0h-13.7l-1.93-2.193Zm9.922-.444H0" id="mfid515"/></defs><defs id="defs690"><path d="M0 0h31.496v-1.968H0Z" id="mfid516"/></defs><defs id="defs703"><path d="M0 0h62.756v-1.968H0Z" id="mfid517"/></defs><defs id="defs714"><path d="M0-62.3c0-.382.278-.692.622-.692h30.252c.344 0 .622.31.622.692V-.692c0 .382-.279.692-.622.692H.622C.278 0 0-.31 0-.692Z" id="mfid518"/></defs><defs id="defs727"><path d="M4.252-2.126a2.126 2.126 0 1 0-4.252 0 2.126 2.126 0 0 0 4.252 0Z" id="mfid519"/></defs><defs id="defs736"><path d="M2.953-1.476a1.476 1.476 0 1 0-2.953 0 1.476 1.476 0 0 0 2.953 0Z" id="mfid520"/></defs><defs id="defs745"><path d="M6.272 0c7.567 0 6.44-5 6.44-5l-.71-4.976c-.311-2.836-2.798-2.831-2.798-2.831H4.068C.908-12.325.73-9.532.73-9.532.635-8.728.032-4.593.032-4.593-.27-1.88 1.651-.803 1.651-.803 3.067 0 6.27 0 6.27 0ZM1.746-19.603s2.226-.24 5.005-.24 4.365.24 4.365.24c2.125.261 1.514 2.344 1.514 2.344-.023.224-.354 1.71-.449 1.983-.245.711-.704 1.193-1.333 1.455-.456.191-.93.322-1.418.323H3.432c-.489-.001-.962-.132-1.418-.323-.629-.262-1.087-.744-1.333-1.455-.095-.273-.426-1.759-.45-1.983 0 0-.61-2.083 1.515-2.344z" id="mfid521"/></defs><defs id="defs758"><path d="M5.473-14.961s2.23-.205 5.008-.162c2.778.043 4.361.307 4.361.307.998.139 1.383.671 1.513 1.197.087-.356.398-2.038-1.496-2.301 0 0-1.583-.264-4.361-.307-2.779-.043-5.008.162-5.008.162-1.902.204-1.643 1.895-1.566 2.253.145-.521.547-1.041 1.549-1.149zM19.837-1.755 18.405-7.21c-.475-1.685-1.245-1.585-1.551-1.53-.797.142-.682.892-.619 1.889l.67 5.324c.153.887.753 1.587 1.562 1.524.81-.063 1.424-.846 1.37-1.75zM.007-2.062l1.601-5.41c.527-1.67 1.294-1.545 1.598-1.481.792.167.654.913.56 1.908l-.835 5.3C2.751-.862 2.13-.182 1.322-.27.515-.357-.074-1.16.008-2.062Zm3.937-1.496-.725-.011.262-1.67.718.033zM9.247-9.21l1.643.026.011-.691-1.643-.026zm6.702 5.838.725.011-.211-1.677-.717.012z" id="mfid522"/></defs><defs id="defs769"><path d="M10.247-17.081H5.894a.22.22 0 0 0-.224.218v13.994c0 .12.101.218.224.218h4.352a.22.22 0 0 0 .224-.218v-13.994a.22.22 0 0 0-.223-.218zm-6.734 4.145v-.021h.69c.325 0 .589.311.589.695v4.694c0 .384-.264.696-.59.696h-.689Zm0 0v10.098L.577 0 0-.211v-19.421l.577-.211 2.936 2.839z" id="mfid523"/></defs><defs id="defs782"><path d="M2.926-12.826v-.716h.736v.716h-.736v.86-.715h.736v.715h-.736Zm0 1.721v-.716h.736v.716h-.736v1.232-.716h.736v.716h-.736Zm0 2.092v-.716h.736v.716h-.736v.86-.715h.736v.715h-.736Zm0 2.128V-7.6h.736v.715h-.736v.86-.714h.736v.715h-.736Zm0 5.164V-5.88h.736v4.158h-.736v.86-.715h.736v.715h-.736Zm0 1.72v-.715h.736V0h-.736L2.04-9.013v-.715h.736v.715H2.04ZM2.04-6.023V-7.6h.736v1.576H2.04v.86-.715h.736v.715H2.04zm0-5.081v-.716h.735v.716H2.04V-13.542h.737v.716H2.04Zm0-.861v-.715h.736v.715H2.04v7.663-.716h.737v.716H2.04Zm0 8.523v-.715h.736v.715H2.04v.861-.716h.737v.716H2.04Zm0 1.722v-.716h.736v.716H2.04V0v-1.576h.737V0H2.04Zm-.886-5.164V-7.6h.736v.715h-.736v.86-.714h.736v.715h-.736Zm0 1.722v-.716h.736v.715h-.736v.86-.715h.737v.716h-.737Zm0 1.72v-.715h.737v.715h-.737v.861-.716h.737v.716h-.737Zm0 1.722v-.716h.737v.716h-.737v.86-.715h.737v.715h-.737Zm0 1.72v-.715h.737V0h-.737v-13.542h.736v.716h-.736Zm0-11.965v-.715h.736v.715h-.736v.861-.716h.736v.716h-.736ZM0-6.885V-7.6h.737v.715H0v.86-.714h.737v.715H0Zm0 1.722v-.716h.737v.715H0v.86-.715h.737v.716H0Zm0 1.72v-.715h.737v.715H0v.861-.716h.737v.716H0ZM0-1.72v-.716h.737v.716H0v.86-.715h.737v.715H0Zm0 1.72v-.715h.737V0H0v-8.868h.737v.715H0Zm0-12.825v-.716h.737v.716H0v.86-.715h.737v.715H0Zm0 1.721v-.716h.737v.716H0v1.232-.716h.737v.716H0Zm0 2.092v-.716h.737v.716z" id="mfid524"/></defs><defs id="defs791"><path d="M9.921-2.193h8.78L16.771 0h-13.7l-1.93-2.193Z" id="mfid525"/></defs><defs id="defs800"><path d="M9.921-2.193h8.78L16.771 0h-13.7l-1.93-2.193Zm9.922-.444H0" id="mfid526"/></defs><defs id="defs807"><path d="M0-62.3c0-.382.278-.692.622-.692h30.252c.344 0 .622.31.622.692V-.692c0 .382-.279.692-.622.692H.622C.278 0 0-.31 0-.692Z" id="mfid527"/></defs><defs id="defs820"><path d="M4.252-2.126a2.126 2.126 0 1 0-4.252 0 2.126 2.126 0 0 0 4.252 0Z" id="mfid528"/></defs><defs id="defs829"><path d="M2.953-1.476a1.476 1.476 0 1 0-2.953 0 1.476 1.476 0 0 0 2.953 0Z" id="mfid529"/></defs><defs id="defs838"><path d="M6.272 0c7.567 0 6.44-5 6.44-5l-.71-4.976c-.311-2.836-2.798-2.831-2.798-2.831H4.068C.908-12.325.73-9.532.73-9.532.635-8.728.032-4.593.032-4.593-.27-1.88 1.651-.803 1.651-.803 3.067 0 6.27 0 6.27 0ZM1.746-19.603s2.226-.24 5.005-.24 4.365.24 4.365.24c2.125.261 1.514 2.344 1.514 2.344-.023.224-.354 1.71-.449 1.983-.245.711-.704 1.193-1.333 1.455-.456.191-.93.322-1.418.323H3.432c-.489-.001-.962-.132-1.418-.323-.629-.262-1.087-.744-1.333-1.455-.095-.273-.426-1.759-.45-1.983 0 0-.61-2.083 1.515-2.344z" id="mfid530"/></defs><defs id="defs851"><path d="M5.473-14.961s2.23-.205 5.008-.162c2.778.043 4.361.307 4.361.307.998.139 1.383.671 1.513 1.197.087-.356.398-2.038-1.496-2.301 0 0-1.583-.264-4.361-.307-2.779-.043-5.008.162-5.008.162-1.902.204-1.643 1.895-1.566 2.253.145-.521.547-1.041 1.549-1.149zM19.837-1.755 18.405-7.21c-.475-1.685-1.245-1.585-1.551-1.53-.797.142-.682.892-.619 1.889l.67 5.324c.153.887.753 1.587 1.562 1.524.81-.063 1.424-.846 1.37-1.75zM.007-2.062l1.601-5.41c.527-1.67 1.294-1.545 1.598-1.481.792.167.654.913.56 1.908l-.835 5.3C2.751-.862 2.13-.182 1.322-.27.515-.357-.074-1.16.008-2.062Zm3.937-1.496-.725-.011.262-1.67.718.033zM9.247-9.21l1.643.026.011-.691-1.643-.026zm6.702 5.838.725.011-.211-1.677-.717.012z" id="mfid531"/></defs><defs id="defs862"><path d="M10.247-17.081H5.894a.22.22 0 0 0-.224.218v13.994c0 .12.101.218.224.218h4.352a.22.22 0 0 0 .224-.218v-13.994a.22.22 0 0 0-.223-.218zm-6.734 4.145v-.021h.69c.325 0 .589.311.589.695v4.694c0 .384-.264.696-.59.696h-.689Zm0 0v10.098L.577 0 0-.211v-19.421l.577-.211 2.936 2.839z" id="mfid532"/></defs><defs id="defs875"><path d="M2.926-12.826v-.716h.736v.716h-.736v.86-.715h.736v.715h-.736Zm0 1.721v-.716h.736v.716h-.736v1.232-.716h.736v.716h-.736Zm0 2.092v-.716h.736v.716h-.736v.86-.715h.736v.715h-.736Zm0 2.128V-7.6h.736v.715h-.736v.86-.714h.736v.715h-.736Zm0 5.164V-5.88h.736v4.158h-.736v.86-.715h.736v.715h-.736Zm0 1.72v-.715h.736V0h-.736L2.04-9.013v-.715h.736v.715H2.04ZM2.04-6.023V-7.6h.736v1.576H2.04v.86-.715h.736v.715H2.04zm0-5.081v-.716h.735v.716H2.04V-13.542h.737v.716H2.04Zm0-.861v-.715h.736v.715H2.04v7.663-.716h.737v.716H2.04Zm0 8.523v-.715h.736v.715H2.04v.861-.716h.737v.716H2.04Zm0 1.722v-.716h.736v.716H2.04V0v-1.576h.737V0H2.04Zm-.886-5.164V-7.6h.736v.715h-.736v.86-.714h.736v.715h-.736Zm0 1.722v-.716h.736v.715h-.736v.86-.715h.737v.716h-.737Zm0 1.72v-.715h.737v.715h-.737v.861-.716h.737v.716h-.737Zm0 1.722v-.716h.737v.716h-.737v.86-.715h.737v.715h-.737Zm0 1.72v-.715h.737V0h-.737v-13.542h.736v.716h-.736Zm0-11.965v-.715h.736v.715h-.736v.861-.716h.736v.716h-.736ZM0-6.885V-7.6h.737v.715H0v.86-.714h.737v.715H0Zm0 1.722v-.716h.737v.715H0v.86-.715h.737v.716H0Zm0 1.72v-.715h.737v.715H0v.861-.716h.737v.716H0ZM0-1.72v-.716h.737v.716H0v.86-.715h.737v.715H0Zm0 1.72v-.715h.737V0H0v-8.868h.737v.715H0Zm0-12.825v-.716h.737v.716H0v.86-.715h.737v.715H0Zm0 1.721v-.716h.737v.716H0v1.232-.716h.737v.716H0Zm0 2.092v-.716h.737v.716z" id="mfid533"/></defs><defs id="defs884"><path d="M9.921-2.193h8.78L16.771 0h-13.7l-1.93-2.193Z" id="mfid534"/></defs><defs id="defs893"><path d="M9.921-2.193h8.78L16.771 0h-13.7l-1.93-2.193Zm9.922-.444H0" id="mfid535"/></defs><defs id="defs900"><path d="M0 0h31.496v-1.968H0Z" id="mfid536"/></defs><defs id="defs913"><path d="M0-62.3c0-.382.278-.692.622-.692h30.252c.344 0 .622.31.622.692V-.692c0 .382-.279.692-.622.692H.622C.278 0 0-.31 0-.692Z" id="mfid537"/></defs><defs id="defs926"><path d="M4.252-2.126a2.126 2.126 0 1 0-4.252 0 2.126 2.126 0 0 0 4.252 0Z" id="mfid538"/></defs><defs id="defs935"><path d="M2.953-1.476a1.476 1.476 0 1 0-2.953 0 1.476 1.476 0 0 0 2.953 0Z" id="mfid539"/></defs><defs id="defs944"><path d="M6.272 0c7.567 0 6.44-5 6.44-5l-.71-4.976c-.311-2.836-2.798-2.831-2.798-2.831H4.068C.908-12.325.73-9.532.73-9.532.635-8.728.032-4.593.032-4.593-.27-1.88 1.651-.803 1.651-.803 3.067 0 6.27 0 6.27 0ZM1.746-19.603s2.226-.24 5.005-.24 4.365.24 4.365.24c2.125.261 1.514 2.344 1.514 2.344-.023.224-.354 1.71-.449 1.983-.245.711-.704 1.193-1.333 1.455-.456.191-.93.322-1.418.323H3.432c-.489-.001-.962-.132-1.418-.323-.629-.262-1.087-.744-1.333-1.455-.095-.273-.426-1.759-.45-1.983 0 0-.61-2.083 1.515-2.344z" id="mfid540"/></defs><defs id="defs957"><path d="M5.473-14.961s2.23-.205 5.008-.162c2.778.043 4.361.307 4.361.307.998.139 1.383.671 1.513 1.197.087-.356.398-2.038-1.496-2.301 0 0-1.583-.264-4.361-.307-2.779-.043-5.008.162-5.008.162-1.902.204-1.643 1.895-1.566 2.253.145-.521.547-1.041 1.549-1.149zM19.837-1.755 18.405-7.21c-.475-1.685-1.245-1.585-1.551-1.53-.797.142-.682.892-.619 1.889l.67 5.324c.153.887.753 1.587 1.562 1.524.81-.063 1.424-.846 1.37-1.75zM.007-2.062l1.601-5.41c.527-1.67 1.294-1.545 1.598-1.481.792.167.654.913.56 1.908l-.835 5.3C2.751-.862 2.13-.182 1.322-.27.515-.357-.074-1.16.008-2.062Zm3.937-1.496-.725-.011.262-1.67.718.033zM9.247-9.21l1.643.026.011-.691-1.643-.026zm6.702 5.838.725.011-.211-1.677-.717.012z" id="mfid541"/></defs><defs id="defs968"><path d="M10.247-17.081H5.894a.22.22 0 0 0-.224.218v13.994c0 .12.101.218.224.218h4.352a.22.22 0 0 0 .224-.218v-13.994a.22.22 0 0 0-.223-.218zm-6.734 4.145v-.021h.69c.325 0 .589.311.589.695v4.694c0 .384-.264.696-.59.696h-.689Zm0 0v10.098L.577 0 0-.211v-19.421l.577-.211 2.936 2.839z" id="mfid542"/></defs><defs id="defs981"><path d="M2.926-12.826v-.716h.736v.716h-.736v.86-.715h.736v.715h-.736Zm0 1.721v-.716h.736v.716h-.736v1.232-.716h.736v.716h-.736Zm0 2.092v-.716h.736v.716h-.736v.86-.715h.736v.715h-.736Zm0 2.128V-7.6h.736v.715h-.736v.86-.714h.736v.715h-.736Zm0 5.164V-5.88h.736v4.158h-.736v.86-.715h.736v.715h-.736Zm0 1.72v-.715h.736V0h-.736L2.04-9.013v-.715h.736v.715H2.04ZM2.04-6.023V-7.6h.736v1.576H2.04v.86-.715h.736v.715H2.04zm0-5.081v-.716h.735v.716H2.04V-13.542h.737v.716H2.04Zm0-.861v-.715h.736v.715H2.04v7.663-.716h.737v.716H2.04Zm0 8.523v-.715h.736v.715H2.04v.861-.716h.737v.716H2.04Zm0 1.722v-.716h.736v.716H2.04V0v-1.576h.737V0H2.04Zm-.886-5.164V-7.6h.736v.715h-.736v.86-.714h.736v.715h-.736Zm0 1.722v-.716h.736v.715h-.736v.86-.715h.737v.716h-.737Zm0 1.72v-.715h.737v.715h-.737v.861-.716h.737v.716h-.737Zm0 1.722v-.716h.737v.716h-.737v.86-.715h.737v.715h-.737Zm0 1.72v-.715h.737V0h-.737v-13.542h.736v.716h-.736Zm0-11.965v-.715h.736v.715h-.736v.861-.716h.736v.716h-.736ZM0-6.885V-7.6h.737v.715H0v.86-.714h.737v.715H0Zm0 1.722v-.716h.737v.715H0v.86-.715h.737v.716H0Zm0 1.72v-.715h.737v.715H0v.861-.716h.737v.716H0ZM0-1.72v-.716h.737v.716H0v.86-.715h.737v.715H0Zm0 1.72v-.715h.737V0H0v-8.868h.737v.715H0Zm0-12.825v-.716h.737v.716H0v.86-.715h.737v.715H0Zm0 1.721v-.716h.737v.716H0v1.232-.716h.737v.716H0Zm0 2.092v-.716h.737v.716z" id="mfid543"/></defs><defs id="defs990"><path d="M9.921-2.193h8.78L16.771 0h-13.7l-1.93-2.193Z" id="mfid544"/></defs><defs id="defs999"><path d="M9.921-2.193h8.78L16.771 0h-13.7l-1.93-2.193Zm9.922-.444H0" id="mfid545"/></defs><defs id="defs1006"><path d="M0 0h31.496v-1.968H0Z" id="mfid546"/></defs><defs id="defs1025"><path d="M0 0h62.756v-1.968H0Z" id="mfid547"/></defs><defs id="defs1030"><path d="M0-62.3c0-.382.278-.692.622-.692h30.252c.344 0 .622.31.622.692V-.692c0 .382-.279.692-.622.692H.622C.278 0 0-.31 0-.692Z" id="mfid548"/></defs><defs id="defs1043"><path d="M4.252-2.126a2.126 2.126 0 1 0-4.252 0 2.126 2.126 0 0 0 4.252 0Z" id="mfid549"/></defs><defs id="defs1052"><path d="M2.953-1.476a1.476 1.476 0 1 0-2.953 0 1.476 1.476 0 0 0 2.953 0Z" id="mfid550"/></defs><defs id="defs1061"><path d="M6.272 0c7.567 0 6.44-5 6.44-5l-.71-4.976c-.311-2.836-2.798-2.831-2.798-2.831H4.068C.908-12.325.73-9.532.73-9.532.635-8.728.032-4.593.032-4.593-.27-1.88 1.651-.803 1.651-.803 3.067 0 6.27 0 6.27 0ZM1.746-19.603s2.226-.24 5.005-.24 4.365.24 4.365.24c2.125.261 1.514 2.344 1.514 2.344-.023.224-.354 1.71-.449 1.983-.245.711-.704 1.193-1.333 1.455-.456.191-.93.322-1.418.323H3.432c-.489-.001-.962-.132-1.418-.323-.629-.262-1.087-.744-1.333-1.455-.095-.273-.426-1.759-.45-1.983 0 0-.61-2.083 1.515-2.344z" id="mfid551"/></defs><defs id="defs1074"><path d="M5.473-14.961s2.23-.205 5.008-.162c2.778.043 4.361.307 4.361.307.998.139 1.383.671 1.513 1.197.087-.356.398-2.038-1.496-2.301 0 0-1.583-.264-4.361-.307-2.779-.043-5.008.162-5.008.162-1.902.204-1.643 1.895-1.566 2.253.145-.521.547-1.041 1.549-1.149zM19.837-1.755 18.405-7.21c-.475-1.685-1.245-1.585-1.551-1.53-.797.142-.682.892-.619 1.889l.67 5.324c.153.887.753 1.587 1.562 1.524.81-.063 1.424-.846 1.37-1.75zM.007-2.062l1.601-5.41c.527-1.67 1.294-1.545 1.598-1.481.792.167.654.913.56 1.908l-.835 5.3C2.751-.862 2.13-.182 1.322-.27.515-.357-.074-1.16.008-2.062Zm3.937-1.496-.725-.011.262-1.67.718.033zM9.247-9.21l1.643.026.011-.691-1.643-.026zm6.702 5.838.725.011-.211-1.677-.717.012z" id="mfid552"/></defs><defs id="defs1085"><path d="M10.247-17.081H5.894a.22.22 0 0 0-.224.218v13.994c0 .12.101.218.224.218h4.352a.22.22 0 0 0 .224-.218v-13.994a.22.22 0 0 0-.223-.218zm-6.734 4.145v-.021h.69c.325 0 .589.311.589.695v4.694c0 .384-.264.696-.59.696h-.689Zm0 0v10.098L.577 0 0-.211v-19.421l.577-.211 2.936 2.839z" id="mfid553"/></defs><defs id="defs1098"><path d="M2.926-12.826v-.716h.736v.716h-.736v.86-.715h.736v.715h-.736Zm0 1.721v-.716h.736v.716h-.736v1.232-.716h.736v.716h-.736Zm0 2.092v-.716h.736v.716h-.736v.86-.715h.736v.715h-.736Zm0 2.128V-7.6h.736v.715h-.736v.86-.714h.736v.715h-.736Zm0 5.164V-5.88h.736v4.158h-.736v.86-.715h.736v.715h-.736Zm0 1.72v-.715h.736V0h-.736L2.04-9.013v-.715h.736v.715H2.04ZM2.04-6.023V-7.6h.736v1.576H2.04v.86-.715h.736v.715H2.04zm0-5.081v-.716h.735v.716H2.04V-13.542h.737v.716H2.04Zm0-.861v-.715h.736v.715H2.04v7.663-.716h.737v.716H2.04Zm0 8.523v-.715h.736v.715H2.04v.861-.716h.737v.716H2.04Zm0 1.722v-.716h.736v.716H2.04V0v-1.576h.737V0H2.04Zm-.886-5.164V-7.6h.736v.715h-.736v.86-.714h.736v.715h-.736Zm0 1.722v-.716h.736v.715h-.736v.86-.715h.737v.716h-.737Zm0 1.72v-.715h.737v.715h-.737v.861-.716h.737v.716h-.737Zm0 1.722v-.716h.737v.716h-.737v.86-.715h.737v.715h-.737Zm0 1.72v-.715h.737V0h-.737v-13.542h.736v.716h-.736Zm0-11.965v-.715h.736v.715h-.736v.861-.716h.736v.716h-.736ZM0-6.885V-7.6h.737v.715H0v.86-.714h.737v.715H0Zm0 1.722v-.716h.737v.715H0v.86-.715h.737v.716H0Zm0 1.72v-.715h.737v.715H0v.861-.716h.737v.716H0ZM0-1.72v-.716h.737v.716H0v.86-.715h.737v.715H0Zm0 1.72v-.715h.737V0H0v-8.868h.737v.715H0Zm0-12.825v-.716h.737v.716H0v.86-.715h.737v.715H0Zm0 1.721v-.716h.737v.716H0v1.232-.716h.737v.716H0Zm0 2.092v-.716h.737v.716z" id="mfid554"/></defs><defs id="defs1107"><path d="M9.921-2.193h8.78L16.771 0h-13.7l-1.93-2.193Z" id="mfid555"/></defs><defs id="defs1116"><path d="M9.921-2.193h8.78L16.771 0h-13.7l-1.93-2.193Zm9.922-.444H0" id="mfid556"/></defs><defs id="defs1123"><path d="M0 0h.984v-.984H0Zm0-2.953h.984v-.984H0Z" id="mfid557"/></defs><defs id="defs1136"><path d="M0 0v-31.496h22.638V0Zm22.638 0h.984v-31.496h-.984z" id="mfid558"/></defs><defs id="defs1145"><path d="M0 0v-31.496h22.638V0Zm22.638-15.748h.984M22.638 0h.984v-31.496h-.984z" id="mfid559"/></defs><defs id="defs1150"><path d="M0 0h.984v-.984H0Zm0-2.953h.984v-.984H0Z" id="mfid560"/></defs><defs id="defs1161"><path d="M0 0v-31.496h16.732V0Zm16.732 0h.985v-31.496h-.985z" id="mfid561"/></defs><defs id="defs1170"><path d="M0 0v-31.496h16.732V0Zm16.732-15.748h.985M16.732 0h.985v-31.496h-.985z" id="mfid562"/></defs><defs id="defs1175"><path d="M3.003-7.825c-.587.035-1.42.002-1.968.199a1.284 1.284 0 0 0-.767.714c-.414.9-.246 2.505-.165 3.606.114 1.542.06 2.1.29 3.306H.7C.654-.566.554-.952.454-2.063c-.007-.069-.013-.14-.018-.21-.064-.787-.064-1.433-.09-2C.32-4.822.27-5.3.303-5.807c.03-.47.13-.967.4-1.283.407-.473 1.194-.537 2.07-.55Zm.008.123c.443-.626 1.382-.904 2.295-1.126l-.111.24a5.302 5.302 0 0 1-.975.361c-.09.026-.188.053-.28.082-.415.13-.685.295-.763.56Zm.022-.008c.821-.018 1.694-.147 2.473.007l-.116.166c-.154.014-.242-.074-.625-.024l-.014.001-.021.001c-.744.009-.967-.12-1.696-.15z" id="mfid563"/></defs><defs id="defs1188"><path d="M0 0h3.839v-7.066a1.176 1.176 0 0 0-.903-.615.67.67 0 0 1-.326-.485v-.552H1.228v.552a.67.67 0 0 1-.326.486c-.383.044-.72.274-.902.614Z" id="mfid564"/></defs><defs id="defs1205"><path d="M0 0h3.531v-.984H0Z" id="mfid565"/></defs><defs id="defs1210"><path d="M0-.546c0-.302.305-.546.682-.546.376 0 .681.244.681.546 0 .301-.305.546-.681.546C.305 0 0-.245 0-.546Z" id="mfid566"/></defs><defs id="defs1219"><path d="M.61-.357.98-.75M0-.546c0-.302.305-.546.682-.546.376 0 .681.244.681.546 0 .301-.305.546-.681.546C.305 0 0-.245 0-.546Z" id="mfid567"/></defs><defs id="defs1230"><path d="M0 .05h60.63v-6.005H0Z" id="mfid568"/></defs><defs id="defs1237"><path d="M0 0v-5.905h1.968V0Zm60.63 0v-5.905h-1.969V0Z" id="mfid569"/></defs><defs id="defs1242"><path d="M0 0v-5.905h1.968v1.968m0 1.968V0H0m60.63 0v-5.905h-1.969v1.968m0 1.968V0h1.969" id="mfid570"/></defs><defs id="defs1249"><path d="M0-1.968h1.968V0H0Zm56.693 0h-1.969V0h1.969z" id="mfid571"/></defs><defs id="defs1260"><path d="M0 0h52.756" id="mfid572"/></defs><defs id="defs1269"><path d="M0 0v-5.905M60.63 0v-5.905" id="mfid573"/></defs><defs id="defs1278"><path d="M0 .05h68.898v-6.005H0Z" id="mfid574"/></defs><defs id="defs1291"><path d="M0 0v-5.905h1.968V0Zm68.898 0v-5.905h-1.969V0Z" id="mfid575"/></defs><defs id="defs1296"><path d="M0 0v-5.905h1.968v1.968m0 1.968V0H0m68.898 0v-5.905h-1.969v1.968m0 1.968V0h1.969" id="mfid576"/></defs><defs id="defs1303"><path d="M0-1.968h1.968V0H0Zm64.961 0h-1.969V0h1.969z" id="mfid577"/></defs><defs id="defs1314"><path d="M0 0h61.024" id="mfid578"/></defs><defs id="defs1323"><path d="M0 0v-5.905M68.898 0v-5.905" id="mfid579"/></defs><defs id="defs1332"><path d="M0 .05h68.504v-6.005H0Z" id="mfid580"/></defs><defs id="defs1345"><path d="M0 0v-5.905h1.968V0Zm68.504 0v-5.905h-1.969V0Z" id="mfid581"/></defs><defs id="defs1350"><path d="M0 0v-5.905h1.968v1.968m0 1.968V0H0m68.504 0v-5.905h-1.969v1.968m0 1.968V0h1.969" id="mfid582"/></defs><defs id="defs1357"><path d="M0-1.968h1.968V0H0Zm64.567 0h-1.969V0h1.969z" id="mfid583"/></defs><defs id="defs1368"><path d="M0 0h60.63" id="mfid584"/></defs><defs id="defs1377"><path d="M0 0v-5.905M68.504 0v-5.905" id="mfid585"/></defs><defs id="defs1386"><path d="M-1.968.05h39.37v-6.005h-39.37Z" id="mfid586"/></defs><defs id="defs1399"><path d="M39.37 0v-5.905h-1.968V0ZM0 0v-5.905h1.968V0Z" id="mfid587"/></defs><defs id="defs1408"><path d="M39.37 0v-5.905h-1.968v1.968m0 1.968V0h1.968M0 0v-5.905h1.968v1.968m0 1.968V0H0" id="mfid588"/></defs><defs id="defs1415"><path d="M35.433-1.968h-.787V0h.787zM0-1.968h.787V0H0Z" id="mfid589"/></defs><defs id="defs1424"><path d="M35.433-1.968h-.787V0h.787M0-1.968h.787V0H0" id="mfid590"/></defs><defs id="defs1429"><path d="M39.37 0v-5.905M0 0v-5.905" id="mfid591"/></defs><defs id="defs1438"><path d="M0 0c0-6.42 1.745-12.721 5.048-18.227" id="mfid592"/></defs><defs id="defs1447"><path d="M0 0h35.433v-1.968H0Z" id="mfid593"/></defs><mask id="mfid447"><path stroke="none" id="rect12" d="M0 0h1830v1680H0z"/></mask><mask id="mfid448" stroke="none"><g id="g19"><g mask="url(#mfid447)" id="g17"><use id="use15" x="0" y="0" width="100%" height="100%" xlinkHref="#mfid446"/></g></g></mask><mask id="mfid449" fill-rule="evenodd" stroke="none"><path id="rect22" d="M0 0h1830v1680H0z"/></mask><clipPath id="mfid445"><path id="mfid446" d="M0 0h1829v1679H0z"/></clipPath></defs><g class="ws" id="1"><use fill-rule="evenodd" stroke="none" id="use603" x="0" y="0" width="100%" height="100%" transform="rotate(90 -100.1 1315.8) scale(5.76)" stroke-width=".083" stroke-linecap="round" stroke-linejoin="round" xlinkHref="#mfid507"/><use id="use607" x="0" y="0" width="100%" height="100%" transform="rotate(90 -100.1 1315.8) scale(5.76)" stroke="#000" stroke-width=".26" stroke-miterlimit="2" xlinkHref="#mfid507"/><use fill-rule="evenodd" stroke="none" id="use616" x="0" y="0" width="100%" height="100%" transform="rotate(90 36.85 1484.95) scale(5.76)" stroke-width=".26" stroke-miterlimit="2" xlinkHref="#mfid508"/><use fill-rule="evenodd" stroke="none" id="use625" x="0" y="0" width="100%" height="100%" transform="rotate(90 36.9 1488.7) scale(5.76)" stroke-width=".26" stroke-miterlimit="2" xlinkHref="#mfid509"/><use fill-rule="evenodd" stroke="none" id="use634" x="0" y="0" width="100%" height="100%" transform="rotate(.887 -90071.498 88906.79) scale(5.75999)" stroke-width=".26" stroke-miterlimit="2" xlinkHref="#mfid510"/><use id="use638" x="0" y="0" width="100%" height="100%" transform="rotate(.887 -90071.498 88906.79) scale(5.75999)" stroke="#000" stroke-width=".26" stroke-linecap="round" stroke-linejoin="round" xlinkHref="#mfid510"/><use fill-rule="evenodd" stroke="none" id="use647" x="0" y="0" width="100%" height="100%" transform="matrix(5.76 0 0 5.76 1347.9 1386.999)" stroke-width=".26" stroke-linecap="round" stroke-linejoin="round" xlinkHref="#mfid511"/><use id="use649" x="0" y="0" width="100%" height="100%" transform="matrix(5.76 0 0 5.76 1347.9 1386.999)" stroke="#000" stroke-width=".26" stroke-linecap="round" stroke-linejoin="round" xlinkHref="#mfid511"/><use fill-rule="evenodd" stroke="none" id="use658" x="0" y="0" width="100%" height="100%" transform="rotate(-90 1479.65 16.75) scale(5.76)" stroke-width=".26" stroke-linecap="round" stroke-linejoin="round" xlinkHref="#mfid512"/><use id="use662" x="0" y="0" width="100%" height="100%" transform="rotate(-90 1479.65 16.75) scale(5.76)" stroke="#000" stroke-width=".26" stroke-miterlimit="2" xlinkHref="#mfid512"/><use fill-rule="evenodd" stroke="none" id="use671" x="0" y="0" width="100%" height="100%" transform="rotate(-90 1452.5 7.4) scale(5.76)" stroke-width=".26" stroke-miterlimit="2" xlinkHref="#mfid513"/><use fill-rule="evenodd" stroke="none" id="use680" x="0" y="0" width="100%" height="100%" transform="rotate(180 731.45 739) scale(5.76)" stroke-width=".26" stroke-miterlimit="2" xlinkHref="#mfid514"/><use id="use687" x="0" y="0" width="100%" height="100%" transform="rotate(180 731.45 739) scale(5.76)" stroke="#000" stroke-width=".13" stroke-miterlimit="2" xlinkHref="#mfid515"/><text x="1256.142" y="1465.269" class="st2" id="text1478">1</text></g><g class="ws" id="2"><use fill-rule="evenodd" stroke="none" id="use497" x="0" y="0" width="100%" height="100%" transform="matrix(0 5.76 -5.76 0 837.81 1415.899)" stroke-width=".083" stroke-linecap="round" stroke-linejoin="round" xlinkHref="#mfid497"/><use id="use501" x="0" y="0" width="100%" height="100%" transform="matrix(0 5.76 -5.76 0 837.81 1415.899)" stroke="#000" stroke-width=".26" stroke-miterlimit="2" xlinkHref="#mfid497"/><use fill-rule="evenodd" stroke="none" id="use510" x="0" y="0" width="100%" height="100%" transform="matrix(0 5.76 -5.76 0 1144 1448.099)" stroke-width=".26" stroke-miterlimit="2" xlinkHref="#mfid498"/><use fill-rule="evenodd" stroke="none" id="use519" x="0" y="0" width="100%" height="100%" transform="rotate(90 -152.05 1299.75) scale(5.76)" stroke-width=".26" stroke-miterlimit="2" xlinkHref="#mfid499"/><use fill-rule="evenodd" stroke="none" id="use528" x="0" y="0" width="100%" height="100%" transform="rotate(.887 -90259.769 64538.511) scale(5.75999)" stroke-width=".26" stroke-miterlimit="2" xlinkHref="#mfid500"/><use id="use532" x="0" y="0" width="100%" height="100%" transform="rotate(.887 -90259.769 64538.511) scale(5.75999)" stroke="#000" stroke-width=".26" stroke-linecap="round" stroke-linejoin="round" xlinkHref="#mfid500"/><use fill-rule="evenodd" stroke="none" id="use541" x="0" y="0" width="100%" height="100%" transform="matrix(5.76 0 0 5.76 970.04 1386.999)" stroke-width=".26" stroke-linecap="round" stroke-linejoin="round" xlinkHref="#mfid501"/><use id="use543" x="0" y="0" width="100%" height="100%" transform="matrix(5.76 0 0 5.76 970.04 1386.999)" stroke="#000" stroke-width=".26" stroke-linecap="round" stroke-linejoin="round" xlinkHref="#mfid501"/><use fill-rule="evenodd" stroke="none" id="use552" x="0" y="0" width="100%" height="100%" transform="rotate(-90 1290.7 205.7) scale(5.76)" stroke-width=".26" stroke-linecap="round" stroke-linejoin="round" xlinkHref="#mfid502"/><use id="use556" x="0" y="0" width="100%" height="100%" transform="rotate(-90 1290.7 205.7) scale(5.76)" stroke="#000" stroke-width=".26" stroke-miterlimit="2" xlinkHref="#mfid502"/><use fill-rule="evenodd" stroke="none" id="use565" x="0" y="0" width="100%" height="100%" transform="rotate(-90 1263.55 196.35) scale(5.76)" stroke-width=".26" stroke-miterlimit="2" xlinkHref="#mfid503"/><use fill-rule="evenodd" stroke="none" id="use574" x="0" y="0" width="100%" height="100%" transform="rotate(180 542.5 739) scale(5.76)" stroke-width=".26" stroke-miterlimit="2" xlinkHref="#mfid504"/><use id="use581" x="0" y="0" width="100%" height="100%" transform="rotate(180 542.5 739) scale(5.76)" stroke="#000" stroke-width=".13" stroke-miterlimit="2" xlinkHref="#mfid505"/><text x="873.755" y="1463.423" class="st2" id="text1487">2</text></g><g class="ws" id="3"><use fill-rule="evenodd" stroke="none" id="use391" x="0" y="0" width="100%" height="100%" transform="matrix(0 5.76 -5.76 0 460.23 1415.899)" stroke-width=".13" stroke-miterlimit="2" xlinkHref="#mfid487"/><use id="use395" x="0" y="0" width="100%" height="100%" transform="matrix(0 5.76 -5.76 0 460.23 1415.899)" stroke="#000" stroke-width=".26" stroke-miterlimit="2" xlinkHref="#mfid487"/><use fill-rule="evenodd" stroke="none" id="use404" x="0" y="0" width="100%" height="100%" transform="rotate(90 -340.86 1107.24) scale(5.76)" stroke-width=".26" stroke-miterlimit="2" xlinkHref="#mfid488"/><use fill-rule="evenodd" stroke="none" id="use413" x="0" y="0" width="100%" height="100%" transform="rotate(90 -340.84 1110.96) scale(5.76)" stroke-width=".26" stroke-miterlimit="2" xlinkHref="#mfid489"/><use fill-rule="evenodd" stroke="none" id="use422" x="0" y="0" width="100%" height="100%" transform="rotate(.887 -90447.905 40187.644) scale(5.75999)" stroke-width=".26" stroke-miterlimit="2" xlinkHref="#mfid490"/><use id="use426" x="0" y="0" width="100%" height="100%" transform="rotate(.887 -90447.905 40187.644) scale(5.75999)" stroke="#000" stroke-width=".26" stroke-linecap="round" stroke-linejoin="round" xlinkHref="#mfid490"/><use fill-rule="evenodd" stroke="none" id="use435" x="0" y="0" width="100%" height="100%" transform="matrix(5.76 0 0 5.76 592.46 1386.999)" stroke-width=".26" stroke-linecap="round" stroke-linejoin="round" xlinkHref="#mfid491"/><use id="use437" x="0" y="0" width="100%" height="100%" transform="matrix(5.76 0 0 5.76 592.46 1386.999)" stroke="#000" stroke-width=".26" stroke-linecap="round" stroke-linejoin="round" xlinkHref="#mfid491"/><use fill-rule="evenodd" stroke="none" id="use446" x="0" y="0" width="100%" height="100%" transform="rotate(-90 1101.91 394.49) scale(5.76)" stroke-width=".26" stroke-linecap="round" stroke-linejoin="round" xlinkHref="#mfid492"/><use id="use450" x="0" y="0" width="100%" height="100%" transform="rotate(-90 1101.91 394.49) scale(5.76)" stroke="#000" stroke-width=".26" stroke-miterlimit="2" xlinkHref="#mfid492"/><use fill-rule="evenodd" stroke="none" id="use459" x="0" y="0" width="100%" height="100%" transform="matrix(0 -5.76 5.76 0 689.59 1459.899)" stroke-width=".26" stroke-miterlimit="2" xlinkHref="#mfid493"/><use fill-rule="evenodd" stroke="none" id="use468" x="0" y="0" width="100%" height="100%" transform="rotate(180 353.715 739) scale(5.76)" stroke-width=".26" stroke-miterlimit="2" xlinkHref="#mfid494"/><use id="use475" x="0" y="0" width="100%" height="100%" transform="rotate(180 353.715 739) scale(5.76)" stroke="#000" stroke-width=".13" stroke-miterlimit="2" xlinkHref="#mfid495"/><text x="505.673" y="1475.114" class="st2" id="text1496">3</text></g><g class="ws" id="4"><use fill-rule="evenodd" stroke="none" id="use298" x="0" y="0" width="100%" height="100%" transform="rotate(90 -666.62 749.28) scale(5.76)" stroke-width=".13" stroke-miterlimit="2" xlinkHref="#mfid478"/><use id="use302" x="0" y="0" width="100%" height="100%" transform="rotate(90 -666.62 749.28) scale(5.76)" stroke="#000" stroke-width=".26" stroke-miterlimit="2" xlinkHref="#mfid478"/><use fill-rule="evenodd" stroke="none" id="use311" x="0" y="0" width="100%" height="100%" transform="rotate(90 -529.65 918.45) scale(5.76)" stroke-width=".26" stroke-miterlimit="2" xlinkHref="#mfid479"/><use fill-rule="evenodd" stroke="none" id="use320" x="0" y="0" width="100%" height="100%" transform="rotate(90 -529.63 922.17) scale(5.76)" stroke-width=".26" stroke-miterlimit="2" xlinkHref="#mfid480"/><use fill-rule="evenodd" stroke="none" id="use329" x="0" y="0" width="100%" height="100%" transform="rotate(.887 -90636.037 15837.422) scale(5.75999)" stroke-width=".26" stroke-miterlimit="2" xlinkHref="#mfid481"/><use id="use333" x="0" y="0" width="100%" height="100%" transform="rotate(.887 -90636.037 15837.422) scale(5.75999)" stroke="#000" stroke-width=".26" stroke-linecap="round" stroke-linejoin="round" xlinkHref="#mfid481"/><use fill-rule="evenodd" stroke="none" id="use342" x="0" y="0" width="100%" height="100%" transform="matrix(5.76 0 0 5.76 214.89 1386.999)" stroke-width=".26" stroke-linecap="round" stroke-linejoin="round" xlinkHref="#mfid482"/><use id="use344" x="0" y="0" width="100%" height="100%" transform="matrix(5.76 0 0 5.76 214.89 1386.999)" stroke="#000" stroke-width=".26" stroke-linecap="round" stroke-linejoin="round" xlinkHref="#mfid482"/><use fill-rule="evenodd" stroke="none" id="use353" x="0" y="0" width="100%" height="100%" transform="matrix(0 -5.76 5.76 0 329.85 1496.399)" stroke-width=".26" stroke-linecap="round" stroke-linejoin="round" xlinkHref="#mfid483"/><use id="use357" x="0" y="0" width="100%" height="100%" transform="matrix(0 -5.76 5.76 0 329.85 1496.399)" stroke="#000" stroke-width=".26" stroke-miterlimit="2" xlinkHref="#mfid483"/><use fill-rule="evenodd" stroke="none" id="use366" x="0" y="0" width="100%" height="100%" transform="rotate(-90 885.96 573.94) scale(5.76)" stroke-width=".26" stroke-miterlimit="2" xlinkHref="#mfid484"/><use fill-rule="evenodd" stroke="none" id="use375" x="0" y="0" width="100%" height="100%" transform="rotate(180 164.93 739) scale(5.76)" stroke-width=".26" stroke-miterlimit="2" xlinkHref="#mfid485"/><use id="use382" x="0" y="0" width="100%" height="100%" transform="rotate(180 164.93 739) scale(5.76)" stroke="#000" stroke-width=".13" stroke-miterlimit="2" xlinkHref="#mfid486"/><text x="113.483" y="1476.533" class="st2" id="text1505">4</text></g><g class="ws" id="5"><use fill-rule="evenodd" stroke="none" id="use205" x="0" y="0" width="100%" height="100%" transform="rotate(-90 704.48 257.02) scale(5.76)" stroke-width=".083" stroke-linecap="round" stroke-linejoin="round" xlinkHref="#mfid469"/><use id="use209" x="0" y="0" width="100%" height="100%" transform="rotate(-90 704.48 257.02) scale(5.76)" stroke="#000" stroke-width=".26" stroke-miterlimit="2" xlinkHref="#mfid469"/><use fill-rule="evenodd" stroke="none" id="use218" x="0" y="0" width="100%" height="100%" transform="rotate(-90 535.31 393.99) scale(5.76)" stroke-width=".26" stroke-miterlimit="2" xlinkHref="#mfid470"/><use fill-rule="evenodd" stroke="none" id="use227" x="0" y="0" width="100%" height="100%" transform="rotate(-90 531.57 393.99) scale(5.76)" stroke-width=".26" stroke-miterlimit="2" xlinkHref="#mfid471"/><use fill-rule="evenodd" stroke="none" id="use236" x="0" y="0" width="100%" height="100%" transform="rotate(-179.113 156.788 484.238) scale(5.75999)" stroke-width=".26" stroke-miterlimit="2" xlinkHref="#mfid472"/><use id="use240" x="0" y="0" width="100%" height="100%" transform="rotate(-179.113 156.788 484.238) scale(5.75999)" stroke="#000" stroke-width=".26" stroke-linecap="round" stroke-linejoin="round" xlinkHref="#mfid472"/><use fill-rule="evenodd" stroke="none" id="use249" x="0" y="0" width="100%" height="100%" transform="rotate(180 162.93 495.53) scale(5.76)" stroke-width=".26" stroke-linecap="round" stroke-linejoin="round" xlinkHref="#mfid473"/><use id="use251" x="0" y="0" width="100%" height="100%" transform="rotate(180 162.93 495.53) scale(5.76)" stroke="#000" stroke-width=".26" stroke-linecap="round" stroke-linejoin="round" xlinkHref="#mfid473"/><use fill-rule="evenodd" stroke="none" id="use260" x="0" y="0" width="100%" height="100%" transform="matrix(0 5.76 -5.76 0 210.9 881.619)" stroke-width=".26" stroke-linecap="round" stroke-linejoin="round" xlinkHref="#mfid474"/><use id="use264" x="0" y="0" width="100%" height="100%" transform="matrix(0 5.76 -5.76 0 210.9 881.619)" stroke="#000" stroke-width=".26" stroke-miterlimit="2" xlinkHref="#mfid474"/><use fill-rule="evenodd" stroke="none" id="use273" x="0" y="0" width="100%" height="100%" transform="rotate(90 -344.73 573.46) scale(5.76)" stroke-width=".26" stroke-miterlimit="2" xlinkHref="#mfid475"/><use fill-rule="evenodd" stroke="none" id="use282" x="0" y="0" width="100%" height="100%" transform="matrix(5.76 0 0 5.76 210.89 900.099)" stroke-width=".26" stroke-miterlimit="2" xlinkHref="#mfid476"/><use id="use289" x="0" y="0" width="100%" height="100%" transform="matrix(5.76 0 0 5.76 210.89 900.099)" stroke="#000" stroke-width=".13" stroke-miterlimit="2" xlinkHref="#mfid477"/><text x="120.548" y="838.414" class="st2" id="text1514">5</text></g><g class="ws" id="6"><use fill-rule="evenodd" stroke="none" id="use720" x="0" y="0" width="100%" height="100%" transform="rotate(-90 892.79 68.71) scale(5.76)" stroke-width=".083" stroke-linecap="round" stroke-linejoin="round" xlinkHref="#mfid518"/><use id="use724" x="0" y="0" width="100%" height="100%" transform="rotate(-90 892.79 68.71) scale(5.76)" stroke="#000" stroke-width=".26" stroke-miterlimit="2" xlinkHref="#mfid518"/><use fill-rule="evenodd" stroke="none" id="use733" x="0" y="0" width="100%" height="100%" transform="rotate(-90 723.62 205.68) scale(5.76)" stroke-width=".26" stroke-miterlimit="2" xlinkHref="#mfid519"/><use fill-rule="evenodd" stroke="none" id="use742" x="0" y="0" width="100%" height="100%" transform="matrix(0 -5.76 5.76 0 514.2 925.559)" stroke-width=".26" stroke-miterlimit="2" xlinkHref="#mfid520"/><use fill-rule="evenodd" stroke="none" id="use751" x="0" y="0" width="100%" height="100%" transform="rotate(-179.113 345.098 482.778) scale(5.75999)" stroke-width=".26" stroke-miterlimit="2" xlinkHref="#mfid521"/><use id="use755" x="0" y="0" width="100%" height="100%" transform="rotate(-179.113 345.098 482.778) scale(5.75999)" stroke="#000" stroke-width=".26" stroke-linecap="round" stroke-linejoin="round" xlinkHref="#mfid521"/><use fill-rule="evenodd" stroke="none" id="use764" x="0" y="0" width="100%" height="100%" transform="rotate(180 351.24 495.53) scale(5.76)" stroke-width=".26" stroke-linecap="round" stroke-linejoin="round" xlinkHref="#mfid522"/><use id="use766" x="0" y="0" width="100%" height="100%" transform="rotate(180 351.24 495.53) scale(5.76)" stroke="#000" stroke-width=".26" stroke-linecap="round" stroke-linejoin="round" xlinkHref="#mfid522"/><use fill-rule="evenodd" stroke="none" id="use775" x="0" y="0" width="100%" height="100%" transform="rotate(90 -147.41 737.5) scale(5.76)" stroke-width=".26" stroke-linecap="round" stroke-linejoin="round" xlinkHref="#mfid523"/><use id="use779" x="0" y="0" width="100%" height="100%" transform="rotate(90 -147.41 737.5) scale(5.76)" stroke="#000" stroke-width=".26" stroke-miterlimit="2" xlinkHref="#mfid523"/><use fill-rule="evenodd" stroke="none" id="use788" x="0" y="0" width="100%" height="100%" transform="matrix(0 5.76 -5.76 0 607.91 921.479)" stroke-width=".26" stroke-miterlimit="2" xlinkHref="#mfid524"/><use fill-rule="evenodd" stroke="none" id="use797" x="0" y="0" width="100%" height="100%" transform="matrix(5.76 0 0 5.76 590.07 903.399)" stroke-width=".26" stroke-miterlimit="2" xlinkHref="#mfid525"/><use id="use804" x="0" y="0" width="100%" height="100%" transform="matrix(5.76 0 0 5.76 590.07 903.399)" stroke="#000" stroke-width=".13" stroke-miterlimit="2" xlinkHref="#mfid526"/><path class="st1" id="rect1521" d="M498.369 811.144h42.52v20.976h-42.52z"/><text x="513.549" y="828.832" class="st2" id="text1523">6</text></g><g class="ws" id="7"><use fill-rule="evenodd" stroke="none" id="use1036" x="0" y="0" width="100%" height="100%" transform="rotate(-90 1081.2 -119.4) scale(5.76)" stroke-width=".083" stroke-linecap="round" stroke-linejoin="round" xlinkHref="#mfid548"/><use id="use1040" x="0" y="0" width="100%" height="100%" transform="rotate(-90 1081.2 -119.4) scale(5.76)" stroke="#000" stroke-width=".26" stroke-miterlimit="2" xlinkHref="#mfid548"/><use fill-rule="evenodd" stroke="none" id="use1049" x="0" y="0" width="100%" height="100%" transform="rotate(-90 912.05 17.55) scale(5.76)" stroke-width=".26" stroke-miterlimit="2" xlinkHref="#mfid549"/><use fill-rule="evenodd" stroke="none" id="use1058" x="0" y="0" width="100%" height="100%" transform="rotate(-90 908.31 17.55) scale(5.76)" stroke-width=".26" stroke-miterlimit="2" xlinkHref="#mfid550"/><use fill-rule="evenodd" stroke="none" id="use1067" x="0" y="0" width="100%" height="100%" transform="rotate(-179.113 533.365 481.473) scale(5.75999)" stroke-width=".26" stroke-miterlimit="2" xlinkHref="#mfid551"/><use id="use1071" x="0" y="0" width="100%" height="100%" transform="rotate(-179.113 533.365 481.473) scale(5.75999)" stroke="#000" stroke-width=".26" stroke-linecap="round" stroke-linejoin="round" xlinkHref="#mfid551"/><use fill-rule="evenodd" stroke="none" id="use1080" x="0" y="0" width="100%" height="100%" transform="matrix(-5.76 0 0 -5.76 1079 991.369)" stroke-width=".26" stroke-linecap="round" stroke-linejoin="round" xlinkHref="#mfid552"/><use id="use1082" x="0" y="0" width="100%" height="100%" transform="matrix(-5.76 0 0 -5.76 1079 991.369)" stroke="#000" stroke-width=".26" stroke-linecap="round" stroke-linejoin="round" xlinkHref="#mfid552"/><use fill-rule="evenodd" stroke="none" id="use1091" x="0" y="0" width="100%" height="100%" transform="rotate(90 41.08 923) scale(5.76)" stroke-width=".26" stroke-linecap="round" stroke-linejoin="round" xlinkHref="#mfid553"/><use id="use1095" x="0" y="0" width="100%" height="100%" transform="rotate(90 41.08 923) scale(5.76)" stroke="#000" stroke-width=".26" stroke-miterlimit="2" xlinkHref="#mfid553"/><use fill-rule="evenodd" stroke="none" id="use1104" x="0" y="0" width="100%" height="100%" transform="rotate(90 31.706 950.204) scale(5.76)" stroke-width=".26" stroke-miterlimit="2" xlinkHref="#mfid554"/><use fill-rule="evenodd" stroke="none" id="use1113" x="0" y="0" width="100%" height="100%" transform="matrix(5.76 0 0 5.76 964.07 900.409)" stroke-width=".26" stroke-miterlimit="2" xlinkHref="#mfid555"/><use id="use1120" x="0" y="0" width="100%" height="100%" transform="matrix(5.76 0 0 5.76 964.07 900.409)" stroke="#000" stroke-width=".13" stroke-miterlimit="2" xlinkHref="#mfid556"/><text x="882.468" y="828.13" class="st2" id="text1532">7</text></g><g class="ws" id="8"><use fill-rule="evenodd" stroke="none" id="use919" x="0" y="0" width="100%" height="100%" transform="rotate(90 126.49 711.02) scale(5.76)" stroke-width=".083" stroke-linecap="round" stroke-linejoin="round" xlinkHref="#mfid537"/><use id="use923" x="0" y="0" width="100%" height="100%" transform="rotate(90 126.49 711.02) scale(5.76)" stroke="#000" stroke-width=".26" stroke-miterlimit="2" xlinkHref="#mfid537"/><use fill-rule="evenodd" stroke="none" id="use932" x="0" y="0" width="100%" height="100%" transform="rotate(90 263.48 880.22) scale(5.76)" stroke-width=".26" stroke-miterlimit="2" xlinkHref="#mfid538"/><use fill-rule="evenodd" stroke="none" id="use941" x="0" y="0" width="100%" height="100%" transform="rotate(90 263.46 883.94) scale(5.76)" stroke-width=".26" stroke-miterlimit="2" xlinkHref="#mfid539"/><use fill-rule="evenodd" stroke="none" id="use950" x="0" y="0" width="100%" height="100%" transform="rotate(.887 -36606.624 63419.689) scale(5.75999)" stroke-width=".26" stroke-miterlimit="2" xlinkHref="#mfid540"/><use id="use954" x="0" y="0" width="100%" height="100%" transform="rotate(.887 -36606.624 63419.689) scale(5.75999)" stroke="#000" stroke-width=".26" stroke-linecap="round" stroke-linejoin="round" xlinkHref="#mfid540"/><use fill-rule="evenodd" stroke="none" id="use963" x="0" y="0" width="100%" height="100%" transform="matrix(5.76 0 0 5.76 959.11 554.969)" stroke-width=".26" stroke-linecap="round" stroke-linejoin="round" xlinkHref="#mfid541"/><use id="use965" x="0" y="0" width="100%" height="100%" transform="matrix(5.76 0 0 5.76 959.11 554.969)" stroke="#000" stroke-width=".26" stroke-linecap="round" stroke-linejoin="round" xlinkHref="#mfid541"/><use fill-rule="evenodd" stroke="none" id="use974" x="0" y="0" width="100%" height="100%" transform="matrix(0 -5.76 5.76 0 1074.1 664.419)" stroke-width=".26" stroke-linecap="round" stroke-linejoin="round" xlinkHref="#mfid542"/><use id="use978" x="0" y="0" width="100%" height="100%" transform="matrix(0 -5.76 5.76 0 1074.1 664.419)" stroke="#000" stroke-width=".26" stroke-miterlimit="2" xlinkHref="#mfid542"/><use fill-rule="evenodd" stroke="none" id="use987" x="0" y="0" width="100%" height="100%" transform="matrix(0 -5.76 5.76 0 1056.2 627.839)" stroke-width=".26" stroke-miterlimit="2" xlinkHref="#mfid543"/><use fill-rule="evenodd" stroke="none" id="use996" x="0" y="0" width="100%" height="100%" transform="rotate(180 537.05 322.964) scale(5.76)" stroke-width=".26" stroke-miterlimit="2" xlinkHref="#mfid544"/><use id="use1003" x="0" y="0" width="100%" height="100%" transform="rotate(180 537.05 322.964) scale(5.76)" stroke="#000" stroke-width=".13" stroke-miterlimit="2" xlinkHref="#mfid545"/><text x="877.546" y="629.268" class="st2" id="text1541">8</text></g><g class="wp" id="g12811"><use fill-rule="evenodd" stroke="none" id="use86" x="0" y="0" width="100%" height="100%" transform="matrix(0 5.76 -5.76 0 448.6 779.249)" stroke-width=".083" stroke-miterlimit="2" xlinkHref="#mfid458"/><use id="use90" x="0" y="0" width="100%" height="100%" transform="matrix(0 5.76 -5.76 0 448.6 779.249)" stroke="#000" stroke-width=".083" stroke-linecap="round" stroke-linejoin="round" xlinkHref="#mfid458"/><use fill-rule="evenodd" stroke="none" id="use192" x="0" y="0" width="100%" height="100%" transform="translate(87.871 782.239) scale(5.76)" stroke-width=".13" stroke-miterlimit="2" xlinkHref="#mfid468"/><use id="use196" x="0" y="0" width="100%" height="100%" transform="translate(87.871 782.239) scale(5.76)" stroke="#000" stroke-width=".083" stroke-linecap="round" stroke-linejoin="round" xlinkHref="#mfid468"/><use fill-rule="evenodd" stroke="none" id="use484" x="0" y="0" width="100%" height="100%" transform="matrix(0 5.76 -5.76 0 824.71 1418.199)" stroke-width=".13" stroke-miterlimit="2" xlinkHref="#mfid496"/><use id="use488" x="0" y="0" width="100%" height="100%" transform="matrix(0 5.76 -5.76 0 824.71 1418.199)" stroke="#000" stroke-width=".083" stroke-linecap="round" stroke-linejoin="round" xlinkHref="#mfid496"/><use fill-rule="evenodd" stroke="none" id="use590" x="0" y="0" width="100%" height="100%" transform="rotate(90 -107.8 1310.4) scale(5.76)" stroke-width=".13" stroke-miterlimit="2" xlinkHref="#mfid506"/><use id="use594" x="0" y="0" width="100%" height="100%" transform="rotate(90 -107.8 1310.4) scale(5.76)" stroke="#000" stroke-width=".083" stroke-linecap="round" stroke-linejoin="round" xlinkHref="#mfid506"/><use fill-rule="evenodd" stroke="none" id="use696" x="0" y="0" width="100%" height="100%" transform="matrix(0 5.76 -5.76 0 448.6 585.669)" stroke-width=".13" stroke-miterlimit="2" xlinkHref="#mfid516"/><use id="use700" x="0" y="0" width="100%" height="100%" transform="matrix(0 5.76 -5.76 0 448.6 585.669)" stroke="#000" stroke-width=".083" stroke-linecap="round" stroke-linejoin="round" xlinkHref="#mfid516"/><use fill-rule="evenodd" stroke="none" id="use709" x="0" y="0" width="100%" height="100%" transform="translate(461.29 778.949) scale(5.76)" stroke-width=".083" stroke-linecap="round" stroke-linejoin="round" xlinkHref="#mfid517"/><use id="use711" x="0" y="0" width="100%" height="100%" transform="translate(461.29 778.949) scale(5.76)" stroke="#000" stroke-width=".083" stroke-linecap="round" stroke-linejoin="round" xlinkHref="#mfid517"/><use fill-rule="evenodd" stroke="none" id="use906" x="0" y="0" width="100%" height="100%" transform="rotate(90 22.57 802.65) scale(5.76)" stroke-width=".13" stroke-miterlimit="2" xlinkHref="#mfid536"/><use id="use910" x="0" y="0" width="100%" height="100%" transform="rotate(90 22.57 802.65) scale(5.76)" stroke="#000" stroke-width=".083" stroke-linecap="round" stroke-linejoin="round" xlinkHref="#mfid536"/><use fill-rule="evenodd" stroke="none" id="use1012" x="0" y="0" width="100%" height="100%" transform="rotate(90 119.84 705.2) scale(5.76)" stroke-width=".13" stroke-miterlimit="2" xlinkHref="#mfid546"/><use id="use1016" x="0" y="0" width="100%" height="100%" transform="rotate(90 119.84 705.2) scale(5.76)" stroke="#000" stroke-width=".083" stroke-linecap="round" stroke-linejoin="round" xlinkHref="#mfid546"/><path stroke="none" id="rect1022" stroke-width=".48" stroke-linecap="round" stroke-linejoin="round" d="M837.51 767.91h361.475v11.339H837.51z"/><use id="use1027" x="0" y="0" width="100%" height="100%" transform="matrix(5.76 0 0 5.76 837.51 779.249)" stroke="#000" stroke-width=".083" stroke-linecap="round" stroke-linejoin="round" xlinkHref="#mfid547"/><path class="st1" id="rect1476" d="M740.804 770.201h42.52v20.976h-42.52z"/><path class="st1" id="rect1485" d="M549.466 722.391h42.52v20.976h-42.52z"/><path class="st1" id="rect1494" d="M230.568 770.201h42.52v20.976h-42.52z"/><path class="st1" id="rect1503" d="M39.229 722.391h42.52v20.976h-42.52z"/><path class="st1" id="rect1548" d="M498.369 766.787h42.52v20.976h-42.52z"/></g><g class="ws" id="9"><use fill-rule="evenodd" stroke="none" id="use813" x="0" y="0" width="100%" height="100%" transform="matrix(0 5.76 -5.76 0 461.07 584.839)" stroke-width=".13" stroke-miterlimit="2" xlinkHref="#mfid527"/><use id="use817" x="0" y="0" width="100%" height="100%" transform="matrix(0 5.76 -5.76 0 461.07 584.839)" stroke="#000" stroke-width=".26" stroke-miterlimit="2" xlinkHref="#mfid527"/><use fill-rule="evenodd" stroke="none" id="use826" x="0" y="0" width="100%" height="100%" transform="rotate(90 75.086 692.124) scale(5.76)" stroke-width=".26" stroke-miterlimit="2" xlinkHref="#mfid528"/><use fill-rule="evenodd" stroke="none" id="use835" x="0" y="0" width="100%" height="100%" transform="rotate(90 75.086 695.864) scale(5.76)" stroke-width=".26" stroke-miterlimit="2" xlinkHref="#mfid529"/><use fill-rule="evenodd" stroke="none" id="use844" x="0" y="0" width="100%" height="100%" transform="rotate(.887 -36814.185 39142.497) scale(5.75999)" stroke-width=".26" stroke-miterlimit="2" xlinkHref="#mfid530"/><use id="use848" x="0" y="0" width="100%" height="100%" transform="rotate(.887 -36814.185 39142.497) scale(5.75999)" stroke="#000" stroke-width=".26" stroke-linecap="round" stroke-linejoin="round" xlinkHref="#mfid530"/><use fill-rule="evenodd" stroke="none" id="use857" x="0" y="0" width="100%" height="100%" transform="matrix(5.76 0 0 5.76 582.67 555.279)" stroke-width=".26" stroke-linecap="round" stroke-linejoin="round" xlinkHref="#mfid531"/><use id="use859" x="0" y="0" width="100%" height="100%" transform="matrix(5.76 0 0 5.76 582.67 555.279)" stroke="#000" stroke-width=".26" stroke-linecap="round" stroke-linejoin="round" xlinkHref="#mfid531"/><use fill-rule="evenodd" stroke="none" id="use868" x="0" y="0" width="100%" height="100%" transform="matrix(0 -5.76 5.76 0 697.63 664.719)" stroke-width=".26" stroke-linecap="round" stroke-linejoin="round" xlinkHref="#mfid532"/><use id="use872" x="0" y="0" width="100%" height="100%" transform="matrix(0 -5.76 5.76 0 697.63 664.719)" stroke="#000" stroke-width=".26" stroke-miterlimit="2" xlinkHref="#mfid532"/><use fill-rule="evenodd" stroke="none" id="use881" x="0" y="0" width="100%" height="100%" transform="rotate(-90 653.98 -25.83) scale(5.76)" stroke-width=".26" stroke-miterlimit="2" xlinkHref="#mfid533"/><use fill-rule="evenodd" stroke="none" id="use890" x="0" y="0" width="100%" height="100%" transform="matrix(-5.76 0 0 -5.76 697.65 646.229)" stroke-width=".26" stroke-miterlimit="2" xlinkHref="#mfid534"/><use id="use897" x="0" y="0" width="100%" height="100%" transform="matrix(-5.76 0 0 -5.76 697.65 646.229)" stroke="#000" stroke-width=".13" stroke-miterlimit="2" xlinkHref="#mfid535"/><path class="st1" id="rect1530" d="M559.12 452.06h42.52v20.976h-42.52z"/><text x="509.611" y="640.728" class="st2" id="text1550">9</text></g><g class="any" id="g13038"><path class="st1" id="rect8" d="M0-.003h914.003v839.509H0z"/><use fill-rule="evenodd" stroke="none" id="use28" x="0" y="0" width="100%" height="100%" transform="matrix(5.76 0 0 5.76 80.273 80.272)" xlinkHref="#mfid450"/><use id="use35" x="0" y="0" width="100%" height="100%" transform="matrix(5.76 0 0 5.76 80.273 80.272)" stroke="#000" stroke-width=".083" stroke-miterlimit="2" xlinkHref="#mfid451"/><use fill-rule="evenodd" stroke="none" id="use44" x="0" y="0" width="100%" height="100%" transform="matrix(0 5.76 -5.76 0 1613.2 80.272)" stroke-width=".083" stroke-miterlimit="2" xlinkHref="#mfid452"/><use id="use49" x="0" y="0" width="100%" height="100%" transform="matrix(0 5.76 -5.76 0 1613.2 80.272)" stroke="#000" stroke-width=".083" stroke-miterlimit="2" xlinkHref="#mfid453"/><use fill-rule="evenodd" stroke="none" id="use58" x="0" y="0" width="100%" height="100%" transform="rotate(180 806.6 799.8) scale(5.76)" stroke-width=".083" stroke-miterlimit="2" xlinkHref="#mfid454"/><use id="use63" x="0" y="0" width="100%" height="100%" transform="rotate(180 806.6 799.8) scale(5.76)" stroke="#000" stroke-width=".083" stroke-miterlimit="2" xlinkHref="#mfid455"/><use fill-rule="evenodd" stroke="none" id="use72" x="0" y="0" width="100%" height="100%" transform="matrix(0 -5.76 5.76 0 80.273 1599.599)" stroke-width=".083" stroke-miterlimit="2" xlinkHref="#mfid456"/><use id="use77" x="0" y="0" width="100%" height="100%" transform="matrix(0 -5.76 5.76 0 80.273 1599.599)" stroke="#000" stroke-width=".083" stroke-miterlimit="2" xlinkHref="#mfid457"/><use fill-rule="evenodd" stroke="none" id="use1129" x="0" y="0" width="100%" height="100%" transform="matrix(0 5.76 -5.76 0 837.81 218.599)" stroke-width=".13" stroke-miterlimit="2" xlinkHref="#mfid557"/><use id="use1133" x="0" y="0" width="100%" height="100%" transform="matrix(0 5.76 -5.76 0 837.81 218.599)" stroke="#658a82" stroke-width=".434" stroke-miterlimit="2" xlinkHref="#mfid557"/><use fill-rule="evenodd" stroke="none" id="use1142" x="0" y="0" width="100%" height="100%" transform="matrix(0 5.76 -5.76 0 758.44 82.54)" stroke-width=".434" stroke-miterlimit="2" xlinkHref="#mfid558"/><use id="use1147" x="0" y="0" width="100%" height="100%" transform="matrix(0 5.76 -5.76 0 758.44 82.54)" stroke="#658a82" stroke-width=".434" stroke-miterlimit="2" xlinkHref="#mfid559"/><use fill-rule="evenodd" stroke="none" id="use1156" x="0" y="0" width="100%" height="100%" transform="rotate(90 235.9 420.49) scale(5.76)" stroke-width=".434" stroke-miterlimit="2" xlinkHref="#mfid560"/><use id="use1158" x="0" y="0" width="100%" height="100%" transform="rotate(90 235.9 420.49) scale(5.76)" stroke="#658a82" stroke-width=".434" stroke-miterlimit="2" xlinkHref="#mfid560"/><use fill-rule="evenodd" stroke="none" id="use1167" x="0" y="0" width="100%" height="100%" transform="matrix(0 5.76 -5.76 0 577.02 82.54)" stroke-width=".434" stroke-miterlimit="2" xlinkHref="#mfid561"/><use id="use1172" x="0" y="0" width="100%" height="100%" transform="matrix(0 5.76 -5.76 0 577.02 82.54)" stroke="#658a82" stroke-width=".434" stroke-miterlimit="2" xlinkHref="#mfid562"/><use fill-rule="evenodd" stroke="none" id="use1181" x="0" y="0" width="100%" height="100%" transform="matrix(5.76 0 0 5.76 1542 133.389)" stroke-width=".434" stroke-miterlimit="2" xlinkHref="#mfid563"/><use id="use1185" x="0" y="0" width="100%" height="100%" transform="matrix(5.76 0 0 5.76 1542 133.389)" stroke="#000" stroke-width=".083" stroke-linecap="round" stroke-linejoin="round" xlinkHref="#mfid563"/><use fill-rule="evenodd" stroke="none" id="use1194" x="0" y="0" width="100%" height="100%" transform="matrix(5.76 0 0 5.76 1548.6 139.229)" stroke-width=".083" stroke-linecap="round" stroke-linejoin="round" xlinkHref="#mfid564"/><use id="use1196" x="0" y="0" width="100%" height="100%" transform="matrix(5.76 0 0 5.76 1548.6 139.229)" stroke="#000" stroke-width=".083" stroke-linecap="round" stroke-linejoin="round" xlinkHref="#mfid564"/><path stroke="none" id="rect1202" stroke-width=".48" stroke-linecap="round" stroke-linejoin="round" d="M1549.5 115.139h20.341v5.669H1549.5z"/><use id="use1207" x="0" y="0" width="100%" height="100%" transform="matrix(5.76 0 0 5.76 1549.5 120.809)" stroke="#000" stroke-width=".083" stroke-linecap="round" stroke-linejoin="round" xlinkHref="#mfid565"/><use fill-rule="evenodd" stroke="none" id="use1216" x="0" y="0" width="100%" height="100%" transform="matrix(5.76 0 0 5.76 1555.7 93.69)" stroke-width=".083" stroke-linecap="round" stroke-linejoin="round" xlinkHref="#mfid566"/><use id="use1221" x="0" y="0" width="100%" height="100%" transform="matrix(5.76 0 0 5.76 1555.7 93.69)" stroke="#000" stroke-width=".083" stroke-linecap="round" stroke-linejoin="round" xlinkHref="#mfid567"/><path stroke="none" id="rect1227" stroke-width=".48" stroke-linecap="round" stroke-linejoin="round" d="M1224.5 1599.395h349.229v34.592H1224.5z"/><use id="use1234" x="0" y="0" width="100%" height="100%" transform="matrix(5.76 0 0 5.76 1224.5 1633.699)" stroke="#fff" stroke-width=".083" stroke-linecap="round" stroke-linejoin="round" xlinkHref="#mfid568"/><use fill-rule="evenodd" stroke="none" id="use1239" x="0" y="0" width="100%" height="100%" transform="matrix(5.76 0 0 5.76 1224.5 1633.699)" stroke-width=".083" stroke-linecap="round" stroke-linejoin="round" xlinkHref="#mfid569"/><use id="use1246" x="0" y="0" width="100%" height="100%" transform="matrix(5.76 0 0 5.76 1224.5 1633.699)" stroke="#000" stroke-width=".083" stroke-linecap="round" stroke-linejoin="round" xlinkHref="#mfid570"/><use fill-rule="evenodd" stroke="none" id="use1255" x="0" y="0" width="100%" height="100%" transform="matrix(5.76 0 0 5.76 1235.8 1622.299)" stroke-width=".083" stroke-linecap="round" stroke-linejoin="round" xlinkHref="#mfid571"/><use id="use1257" x="0" y="0" width="100%" height="100%" transform="matrix(5.76 0 0 5.76 1235.8 1622.299)" stroke="#000" stroke-width=".083" stroke-linecap="round" stroke-linejoin="round" xlinkHref="#mfid571"/><use id="use1266" x="0" y="0" width="100%" height="100%" transform="matrix(5.76 0 0 5.76 1247.1 1616.699)" stroke="#000" stroke-width=".083" stroke-linecap="round" stroke-linejoin="round" xlinkHref="#mfid572"/><use id="use1275" x="0" y="0" width="100%" height="100%" transform="matrix(5.76 0 0 5.76 1224.5 1633.699)" stroke="#000" stroke-width=".083" stroke-linecap="round" stroke-linejoin="round" xlinkHref="#mfid573"/><use fill-rule="evenodd" stroke="none" id="use1284" x="0" y="0" width="100%" height="100%" transform="matrix(0 -5.76 5.76 0 80.273 624.519)" stroke-width=".083" stroke-linecap="round" stroke-linejoin="round" xlinkHref="#mfid574"/><use id="use1288" x="0" y="0" width="100%" height="100%" transform="matrix(0 -5.76 5.76 0 80.273 624.519)" stroke="#fff" stroke-width=".083" stroke-linecap="round" stroke-linejoin="round" xlinkHref="#mfid574"/><use fill-rule="evenodd" stroke="none" id="use1293" x="0" y="0" width="100%" height="100%" transform="matrix(0 -5.76 5.76 0 80.273 624.519)" stroke-width=".083" stroke-linecap="round" stroke-linejoin="round" xlinkHref="#mfid575"/><use id="use1300" x="0" y="0" width="100%" height="100%" transform="matrix(0 -5.76 5.76 0 80.273 624.519)" stroke="#000" stroke-width=".083" stroke-linecap="round" stroke-linejoin="round" xlinkHref="#mfid576"/><use fill-rule="evenodd" stroke="none" id="use1309" x="0" y="0" width="100%" height="100%" transform="matrix(0 -5.76 5.76 0 68.934 613.189)" stroke-width=".083" stroke-linecap="round" stroke-linejoin="round" xlinkHref="#mfid577"/><use id="use1311" x="0" y="0" width="100%" height="100%" transform="matrix(0 -5.76 5.76 0 68.934 613.189)" stroke="#000" stroke-width=".083" stroke-linecap="round" stroke-linejoin="round" xlinkHref="#mfid577"/><use id="use1320" x="0" y="0" width="100%" height="100%" transform="matrix(0 -5.76 5.76 0 63.265 601.849)" stroke="#000" stroke-width=".083" stroke-linecap="round" stroke-linejoin="round" xlinkHref="#mfid578"/><use id="use1329" x="0" y="0" width="100%" height="100%" transform="matrix(0 -5.76 5.76 0 80.273 624.519)" stroke="#000" stroke-width=".083" stroke-linecap="round" stroke-linejoin="round" xlinkHref="#mfid579"/><use fill-rule="evenodd" stroke="none" id="use1338" x="0" y="0" width="100%" height="100%" transform="matrix(0 -5.76 5.76 0 80.273 1316.199)" stroke-width=".083" stroke-linecap="round" stroke-linejoin="round" xlinkHref="#mfid580"/><use id="use1342" x="0" y="0" width="100%" height="100%" transform="matrix(0 -5.76 5.76 0 80.273 1316.199)" stroke="#fff" stroke-width=".083" stroke-linecap="round" stroke-linejoin="round" xlinkHref="#mfid580"/><use fill-rule="evenodd" stroke="none" id="use1347" x="0" y="0" width="100%" height="100%" transform="matrix(0 -5.76 5.76 0 80.273 1316.199)" stroke-width=".083" stroke-linecap="round" stroke-linejoin="round" xlinkHref="#mfid581"/><use id="use1354" x="0" y="0" width="100%" height="100%" transform="matrix(0 -5.76 5.76 0 80.273 1316.199)" stroke="#000" stroke-width=".083" stroke-linecap="round" stroke-linejoin="round" xlinkHref="#mfid582"/><use fill-rule="evenodd" stroke="none" id="use1363" x="0" y="0" width="100%" height="100%" transform="matrix(0 -5.76 5.76 0 68.934 1304.799)" stroke-width=".083" stroke-linecap="round" stroke-linejoin="round" xlinkHref="#mfid583"/><use id="use1365" x="0" y="0" width="100%" height="100%" transform="matrix(0 -5.76 5.76 0 68.934 1304.799)" stroke="#000" stroke-width=".083" stroke-linecap="round" stroke-linejoin="round" xlinkHref="#mfid583"/><use id="use1374" x="0" y="0" width="100%" height="100%" transform="matrix(0 -5.76 5.76 0 63.265 1293.499)" stroke="#000" stroke-width=".083" stroke-linecap="round" stroke-linejoin="round" xlinkHref="#mfid584"/><use id="use1383" x="0" y="0" width="100%" height="100%" transform="matrix(0 -5.76 5.76 0 80.273 1316.199)" stroke="#000" stroke-width=".083" stroke-linecap="round" stroke-linejoin="round" xlinkHref="#mfid585"/><use fill-rule="evenodd" stroke="none" id="use1392" x="0" y="0" width="100%" height="100%" transform="matrix(0 -5.76 5.76 0 1647.3 352.399)" stroke-width=".083" stroke-linecap="round" stroke-linejoin="round" xlinkHref="#mfid586"/><use id="use1396" x="0" y="0" width="100%" height="100%" transform="matrix(0 -5.76 5.76 0 1647.3 352.399)" stroke="#fff" stroke-width=".083" stroke-linecap="round" stroke-linejoin="round" xlinkHref="#mfid586"/><use fill-rule="evenodd" stroke="none" id="use1405" x="0" y="0" width="100%" height="100%" transform="matrix(0 -5.76 5.76 0 1647.3 363.739)" stroke-width=".083" stroke-linecap="round" stroke-linejoin="round" xlinkHref="#mfid587"/><use id="use1412" x="0" y="0" width="100%" height="100%" transform="matrix(0 -5.76 5.76 0 1647.3 363.739)" stroke="#000" stroke-width=".083" stroke-linecap="round" stroke-linejoin="round" xlinkHref="#mfid588"/><use fill-rule="evenodd" stroke="none" id="use1421" x="0" y="0" width="100%" height="100%" transform="matrix(0 -5.76 5.76 0 1635.9 352.399)" stroke-width=".083" stroke-linecap="round" stroke-linejoin="round" xlinkHref="#mfid589"/><use id="use1426" x="0" y="0" width="100%" height="100%" transform="matrix(0 -5.76 5.76 0 1635.9 352.399)" stroke="#000" stroke-width=".083" stroke-linecap="round" stroke-linejoin="round" xlinkHref="#mfid590"/><use id="use1435" x="0" y="0" width="100%" height="100%" transform="matrix(0 -5.76 5.76 0 1647.3 363.739)" stroke="#000" stroke-width=".083" stroke-linecap="round" stroke-linejoin="round" xlinkHref="#mfid591"/><use id="use1444" x="0" y="0" width="100%" height="100%" transform="rotate(-90 982.8 -630.4) scale(5.76)" stroke="#000" stroke-width=".083" stroke-linecap="round" stroke-linejoin="round" xlinkHref="#mfid592"/><use fill-rule="evenodd" stroke="none" id="use1453" x="0" y="0" width="100%" height="100%" transform="matrix(2.963 -4.9395 4.9395 2.963 1518 329.159)" stroke-width=".083" stroke-linecap="round" stroke-linejoin="round" xlinkHref="#mfid593"/><use id="use1455" x="0" y="0" width="100%" height="100%" transform="matrix(2.963 -4.9395 4.9395 2.963 1518 329.159)" stroke="#000" stroke-width=".083" stroke-linecap="round" stroke-linejoin="round" xlinkHref="#mfid593"/><path class="st1" id="rect1469" d="M0-.003h914.003v839.509H0z"/><path class="st1" id="rect1512" d="M39.229 455.225h42.52v20.976h-42.52z"/><path class="st1" id="rect1539" d="M559.12 306.365h42.52v20.976h-42.52z"/><path class="st1" id="rect1557" d="M39.229 306.365h42.52v20.976h-42.52z"/></g><g class="ws" id="10"><use fill-rule="evenodd" stroke="none" id="use99" x="0" y="0" width="100%" height="100%" transform="matrix(0 5.76 -5.76 0 84.689 585.669)" stroke-width=".083" stroke-linecap="round" stroke-linejoin="round" xlinkHref="#mfid459"/><use id="use103" x="0" y="0" width="100%" height="100%" transform="matrix(0 5.76 -5.76 0 84.689 585.669)" stroke="#000" stroke-width=".26" stroke-miterlimit="2" xlinkHref="#mfid459"/><use fill-rule="evenodd" stroke="none" id="use112" x="0" y="0" width="100%" height="100%" transform="rotate(90 -113.52 504.35) scale(5.76)" stroke-width=".26" stroke-miterlimit="2" xlinkHref="#mfid460"/><use fill-rule="evenodd" stroke="none" id="use121" x="0" y="0" width="100%" height="100%" transform="rotate(90 -113.52 508.09) scale(5.76)" stroke-width=".26" stroke-miterlimit="2" xlinkHref="#mfid461"/><use fill-rule="evenodd" stroke="none" id="use130" x="0" y="0" width="100%" height="100%" transform="rotate(.887 -37055.252 14869.435) scale(5.75999)" stroke-width=".26" stroke-miterlimit="2" xlinkHref="#mfid462"/><use id="use134" x="0" y="0" width="100%" height="100%" transform="rotate(.887 -37055.252 14869.435) scale(5.75999)" stroke="#000" stroke-width=".26" stroke-linecap="round" stroke-linejoin="round" xlinkHref="#mfid462"/><use fill-rule="evenodd" stroke="none" id="use143" x="0" y="0" width="100%" height="100%" transform="matrix(5.76 0 0 5.76 206.29 556.109)" stroke-width=".26" stroke-linecap="round" stroke-linejoin="round" xlinkHref="#mfid463"/><use id="use145" x="0" y="0" width="100%" height="100%" transform="matrix(5.76 0 0 5.76 206.29 556.109)" stroke="#000" stroke-width=".26" stroke-linecap="round" stroke-linejoin="round" xlinkHref="#mfid463"/><use fill-rule="evenodd" stroke="none" id="use154" x="0" y="0" width="100%" height="100%" transform="rotate(-90 493.4 172.15) scale(5.76)" stroke-width=".26" stroke-linecap="round" stroke-linejoin="round" xlinkHref="#mfid464"/><use id="use158" x="0" y="0" width="100%" height="100%" transform="rotate(-90 493.4 172.15) scale(5.76)" stroke="#000" stroke-width=".26" stroke-miterlimit="2" xlinkHref="#mfid464"/><use fill-rule="evenodd" stroke="none" id="use167" x="0" y="0" width="100%" height="100%" transform="matrix(0 -5.76 5.76 0 303.43 628.979)" stroke-width=".26" stroke-miterlimit="2" xlinkHref="#mfid465"/><use fill-rule="evenodd" stroke="none" id="use176" x="0" y="0" width="100%" height="100%" transform="rotate(180 160.635 323.53) scale(5.76)" stroke-width=".26" stroke-miterlimit="2" xlinkHref="#mfid466"/><use id="use183" x="0" y="0" width="100%" height="100%" transform="rotate(180 160.635 323.53) scale(5.76)" stroke="#000" stroke-width=".13" stroke-miterlimit="2" xlinkHref="#mfid467"/><text x="127.094" y="645.021" class="st2" id="text1559">10</text></g></svg>