<svg xmlns="http://www.w3.org/2000/svg" width="609.353" height="1126.531" viewBox="0 0 457.015 844.901" color-interpolation-filters="sRGB" class="st14" fill="none"><g id="group630-1" transform="rotate(-90 146.356 578.498)"><g id="group631-2" transform="translate(0 -368.504)"><g id="shape632-3"><path d="M-4.25 840.65h689.1l-4.25 4.25H0l-4.25-4.25Z" class="st1"/></g><g id="shape633-6" transform="rotate(-135 0 844.903)"><path class="st2" d="M0 844.476h6.013v.425H0z"/></g><g id="shape634-8" transform="rotate(135 343.309 984.611)"><path class="st2" d="M0 844.476h6.013v.425H0z"/></g><g id="shape636-12"><path d="M-4.25 840.65h689.1M0 844.9h680.6" class="st3"/></g></g><g id="group638-18" transform="rotate(90 524.552 1000.949)"><g id="shape639-19"><path d="M-4.25 840.65h377.01l-4.26 4.25H0l-4.25-4.25Z" class="st1"/></g><g id="shape640-22" transform="rotate(-135 0 844.903)"><path class="st2" d="M0 844.476h6.013v.425H0z"/></g><g id="shape641-24" transform="rotate(135 187.26 919.973)"><path class="st2" d="M0 844.476h6.013v.425H0z"/></g><g id="shape643-28"><path d="M-4.25 840.65h377.01M0 844.9h368.5" class="st3"/></g></g><g id="group645-34" transform="rotate(180 340.299 844.9)"><g id="shape646-35"><path d="M-4.25 840.65h689.1l-4.25 4.25H0l-4.25-4.25Z" class="st1"/></g><g id="shape647-38" transform="rotate(-135 0 844.903)"><path class="st2" d="M0 844.476h6.013v.425H0z"/></g><g id="shape648-40" transform="rotate(135 343.309 984.611)"><path class="st2" d="M0 844.476h6.013v.425H0z"/></g><g id="shape650-44"><path d="M-4.25 840.65h689.1M0 844.9h680.6" class="st3"/></g></g><g id="group652-50" transform="rotate(-90 0 844.901)"><g id="shape653-51"><path d="M-4.25 840.65h377.01l-4.26 4.25H0l-4.25-4.25Z" class="st1"/></g><g id="shape654-54" transform="rotate(-135 0 844.903)"><path class="st2" d="M0 844.476h6.013v.425H0z"/></g><g id="shape655-56" transform="rotate(135 187.26 919.973)"><path class="st2" d="M0 844.476h6.013v.425H0z"/></g><g id="shape657-60"><path d="M-4.25 840.65h377.01M0 844.9h368.5" class="st3"/></g></g></g><g id="group1370-66" transform="rotate(-90 -29.632 539.053)"><g id="shape1371-67"><path d="m432.75 844.9 12.29-4.92v-79.94l-12.29-4.92H12.28L0 760.04v79.94l12.28 4.92h420.47Z" class="st4"/><path d="M222.52 755.12v89.78M432.75 844.9l12.29-4.92v-79.94l-12.29-4.92H12.28L0 760.04v79.94l12.28 4.92h420.47" class="st5"/></g><g id="shape1372-71"><path d="M441.97 838.75v-77.48l-12.29-4.92H15.35l-12.28 4.92v77.48l12.28 4.92h414.33l12.29-4.92Zm-9.22-83.63 12.29 4.92v79.94l-12.29 4.92H12.28L0 839.98v-79.94l12.28-4.92h420.47Z" class="st6"/></g><g id="shape1373-73" transform="translate(30.71 -12.307)"><path d="m377.47 782.73 6.15-2.48v64.13l-6.15-2.48v-59.17Zm-.82 59.71 6.1 2.46H.87l6.1-2.46h369.68ZM6.14 841.9 0 844.38v-64.13l6.14 2.48v59.17ZM.87 779.73h381.88l-6.1 2.46H6.97l-6.1-2.46Z" class="st7"/></g><g id="shape1374-75"><path d="m432.75 844.9 12.29-4.92v-79.94l-12.29-4.92H12.28L0 760.04v79.94l12.28 4.92h420.47Z" class="st8"/></g></g><g id="group1375-77" transform="translate(139.672 -721.33)"><g id="shape1376-78"><rect y="807.57" width="37.332" height="37.332" rx="3" ry="3" class="st9"/></g><g id="shape1377-80"><rect y="807.57" width="6.944" height="37.332" rx="3" ry="3" class="st9"/></g></g><g id="group1378-82" transform="translate(139.672 -661.107)"><g id="shape1379-83"><rect y="807.57" width="37.332" height="37.332" rx="3" ry="3" class="st9"/></g><g id="shape1380-85"><rect y="807.57" width="6.944" height="37.332" rx="3" ry="3" class="st9"/></g></g><g id="group1381-87" transform="translate(139.672 -599.922)"><g id="shape1382-88"><rect y="807.57" width="37.332" height="37.332" rx="3" ry="3" class="st9"/></g><g id="shape1383-90"><rect y="807.57" width="6.944" height="37.332" rx="3" ry="3" class="st9"/></g></g><g id="group1384-92" transform="translate(139.672 -538.736)"><g id="shape1385-93"><rect y="807.57" width="37.332" height="37.332" rx="3" ry="3" class="st9"/></g><g id="shape1386-95"><rect y="807.57" width="6.944" height="37.332" rx="3" ry="3" class="st9"/></g></g><g id="group1387-97" transform="translate(139.672 -477.551)"><g id="shape1388-98"><rect y="807.57" width="37.332" height="37.332" rx="3" ry="3" class="st9"/></g><g id="shape1389-100"><rect y="807.57" width="6.944" height="37.332" rx="3" ry="3" class="st9"/></g></g><g id="group1390-102" transform="rotate(-90 -20.059 577.669)"><g id="shape1391-103"><rect y="807.57" width="37.332" height="37.332" rx="3" ry="3" class="st9"/></g><g id="shape1392-105"><rect y="807.57" width="6.944" height="37.332" rx="3" ry="3" class="st9"/></g></g><g id="group1393-107" transform="rotate(179.9 161.22 587.586)"><g id="shape1394-108"><rect y="807.57" width="37.332" height="37.332" rx="3" ry="3" class="st9"/></g><g id="shape1395-110"><rect y="807.57" width="6.944" height="37.332" rx="3" ry="3" class="st9"/></g></g><g id="group1396-112" transform="rotate(179.9 161.194 557.471)"><g id="shape1397-113"><rect y="807.57" width="37.332" height="37.332" rx="3" ry="3" class="st9"/></g><g id="shape1398-115"><rect y="807.57" width="6.944" height="37.332" rx="3" ry="3" class="st9"/></g></g><g id="group1399-117" transform="rotate(179.9 161.167 526.881)"><g id="shape1400-118"><rect y="807.57" width="37.332" height="37.332" rx="3" ry="3" class="st9"/></g><g id="shape1401-120"><rect y="807.57" width="6.944" height="37.332" rx="3" ry="3" class="st9"/></g></g><g id="group1402-122" transform="rotate(179.9 161.14 496.287)"><g id="shape1403-123"><rect y="807.57" width="37.332" height="37.332" rx="3" ry="3" class="st9"/></g><g id="shape1404-125"><rect y="807.57" width="6.944" height="37.332" rx="3" ry="3" class="st9"/></g></g><g id="group1405-127" transform="rotate(179.9 161.114 465.694)"><g id="shape1406-128"><rect y="807.57" width="37.332" height="37.332" rx="3" ry="3" class="st9"/></g><g id="shape1407-130"><rect y="807.57" width="6.944" height="37.332" rx="3" ry="3" class="st9"/></g></g><g id="group1408-132" transform="translate(137.799 -420.038)"><g id="shape1409-133"><rect y="807.57" width="37.332" height="37.332" rx="3" ry="3" class="st9"/></g><g id="shape1410-135"><rect y="807.57" width="6.944" height="37.332" rx="3" ry="3" class="st9"/></g></g><g id="group1411-137" transform="translate(137.799 -358.853)"><g id="shape1412-138"><rect y="807.57" width="37.332" height="37.332" rx="3" ry="3" class="st9"/></g><g id="shape1413-140"><rect y="807.57" width="6.944" height="37.332" rx="3" ry="3" class="st9"/></g></g><g id="group1414-142" transform="rotate(179.9 161.169 646.466)"><g id="shape1415-143"><rect y="807.57" width="37.332" height="37.332" rx="3" ry="3" class="st9"/></g><g id="shape1416-145"><rect y="807.57" width="6.944" height="37.332" rx="3" ry="3" class="st9"/></g></g><g id="group1417-147" transform="rotate(179.9 161.142 616.356)"><g id="shape1418-148"><rect y="807.57" width="37.332" height="37.332" rx="3" ry="3" class="st9"/></g><g id="shape1419-150"><rect y="807.57" width="6.944" height="37.332" rx="3" ry="3" class="st9"/></g></g><g id="group1360-152" transform="translate(151.972 -800.646)"><g id="shape1361-153"><path d="M0 845.05h153.07v-4.54H0v4.54Z" class="st10"/></g><g id="shape1365-161"><path d="M0 844.9v-4.25h1.42v4.25H0Zm153.07 0v-4.25h-1.42v4.25h1.42Z" class="st11"/><path d="M0 844.9v-4.25h1.42v1.42m0 1.41v1.42H0m153.07 0v-4.25h-1.42v1.42m0 1.41v1.42h1.42" class="st12"/></g><g id="shape1366-164" transform="translate(1.417 -1.417)"><path d="M0 843.48h1.42v1.42H0v-1.42Zm150.24 0h-1.42v1.42h1.42v-1.42Z" class="st9"/></g><g id="shape1367-166" transform="translate(2.835 -2.126)"><path d="M0 844.9h147.4" class="st12"/></g><g id="shape1368-169"><path d="M0 844.9v-4.25M153.07 844.9v-4.25" class="st12"/></g></g><g id="group766-175" transform="rotate(180 100.08 784.88)"><g id="shape767-176"><path d="M-1.42 845.05H99.21v-4.54H-1.42v4.54Z" class="st10"/></g><g id="shape771-184" transform="translate(-1.417)"><path d="M100.63 844.9v-4.25h-1.42v4.25h1.42ZM0 844.9v-4.25h1.42v4.25H0Z" class="st11"/><path d="M100.63 844.9v-4.25h-1.42v1.42m0 1.41v1.42h1.42M0 844.9v-4.25h1.42v1.42m0 1.41v1.42H0" class="st12"/></g><g id="shape772-187" transform="translate(0 -1.417)"><path d="M97.8 843.48h-.57v1.42h.57v-1.42Zm-97.8 0h.57v1.42H0v-1.42Z" class="st11"/><path d="M97.8 843.48h-.57v1.42h.57M0 843.48h.57v1.42H0" class="st12"/></g><g id="shape773-190" transform="translate(-1.417)"><path d="M100.63 844.9v-4.25M0 844.9v-4.25" class="st12"/></g><g id="shape774-194" transform="translate(0 -4.252)"><path d="M0 844.9a97.795 97.795 0 0 1 25.43-65.78" class="st12"/></g><g id="shape775-197" transform="rotate(42.274 101.462 842.066)"><path class="st9" d="M0 843.484h97.795v1.417H0z"/></g><g id="shape777-201" transform="rotate(-42.274 94.13 843.483)"><path class="st13" d="M0 843.484h97.795v1.417H0z"/></g></g></svg>