<svg xmlns="http://www.w3.org/2000/svg" id="svg599" version="1.1" class="st16" color-interpolation-filters="sRGB" viewBox="0 0 375.529 582.485" height="776.646" width="500.706" fill="none"><g transform="translate(-159.926 -340.422)" id="r207"><g id="shape965-10" transform="rotate(-90 -70.45 923.203)"/><g transform="rotate(-90 -179.62 818.286)" id="shape967-16"/><g id="shape972-26" transform="translate(164.854 -813.157)"/><g transform="translate(308.073 -817.41)" id="shape974-32"/><g id="shape979-42" transform="rotate(90 671.838 1017.188)"/><g transform="rotate(90 566.92 1126.357)" id="shape981-48"/><g id="shape986-58" transform="rotate(180 265.263 1005.631)"/><g transform="rotate(180 193.653 1007.757)" id="shape988-64"/><g id="3" class="ws"><path d="M404.685 612.52a157.589 157.613 45 0 0-15.705 15.662 28.16 28.16 0 0 0 .106 18.76l12.382 12.381a4.03 4.03 0 0 1 .813 4.56l2.072 2.073a16.145 16.145 0 0 0 22.832-.007l15.224-15.224a16.137 16.137 0 0 0 0-22.826l-2.079-2.079a4.04 4.04 0 0 1-4.624-.763l-12.467-12.467a28.16 28.16 0 0 0-18.554-.07zm-7.983 7.8a57.393 57.402 45 0 1 14.312-12.333 3.01 3.01 45 0 0-.007-5.706 30.789 30.793 45 0 0-21.871 10.472 30.203 30.207 45 0 0-10.472 21.87 3.033 3.033 45 0 0 5.713 0 55.756 55.764 45 0 1 12.325-14.304zm4.773 44.71a4.039 4.039 0 0 0 0-5.714l-17.12-17.12a4.034 4.034 0 0 0-5.713 0 4.04 4.04 0 0 0-.007 5.721l17.12 17.12a4.045 4.045 0 0 0 5.72-.007zm39.944-39.987a4.023 4.023 0 0 0 .014-5.686l-17.119-17.119a4.055 4.055 0 0 0-5.734-.007 4.049 4.049 0 0 0 .014 5.728l17.119 17.119a4.024 4.024 0 0 0 5.692-.021z" class="st4" id="path137"/><path d="M404.685 612.52a157.589 157.613 45 0 0-15.705 15.662 28.16 28.16 0 0 0 .106 18.76l12.382 12.381a4.03 4.03 0 0 1 .813 4.56l2.072 2.073a16.145 16.145 0 0 0 22.832-.007l15.224-15.224a16.137 16.137 0 0 0 0-22.826l-2.079-2.079a4.04 4.04 0 0 1-4.624-.763l-12.467-12.467a28.16 28.16 0 0 0-18.554-.07m-7.983 7.8a57.393 57.402 45 0 1 14.312-12.333 3.01 3.01 45 0 0-.007-5.706 30.789 30.793 45 0 0-21.871 10.472 30.203 30.207 45 0 0-10.472 21.87 3.033 3.033 45 0 0 5.713 0 55.756 55.764 45 0 1 12.325-14.304m4.773 44.71a4.039 4.039 0 0 0 0-5.713l-17.12-17.119a4.034 4.034 0 0 0-5.713 0 4.04 4.04 0 0 0-.007 5.72l17.12 17.12a4.045 4.045 0 0 0 5.72-.007m39.944-39.987a4.023 4.023 0 0 0 .014-5.685l-17.119-17.12a4.055 4.055 0 0 0-5.734-.007 4.049 4.049 0 0 0 .014 5.728l17.119 17.12a4.024 4.024 0 0 0 5.692-.022" class="st5" id="path139"/><path d="M380.519 740.745h137.48v-134.94h-65.2v69.74h-72.28z" class="st6" id="path145"/><path transform="scale(-1)" class="st6" id="rect153" d="M-517.996-605.245h65.197v57.818h-65.197z"/><text x="478.726" y="583.535" class="st7" id="text155">3</text><path transform="rotate(45)" class="st6" id="rect163" d="M822.119 135.716h38.143v39.563h-38.143z"/><path transform="rotate(45)" class="st6" id="rect168" d="M803.625 134.566h15.026v41.891h-15.026z"/><path d="m466.998 711.609 10.394 4.95 19.276-19.276-4.985-10.36a235.919 233.239 45 0 0-24.685 24.686zm10.394 4.95 13.04 13.039a91.622 90.962 45 0 0 19.275-19.276l-13.04-13.04zM461.39 706l5.608 5.608a235.919 233.239 45 0 1 24.685-24.685l-5.608-5.608a150.587 148.876 45 0 0-24.685 24.685z" class="st6" id="path173"/><path transform="rotate(135)" class="st8" id="rect178" d="M169.746-817.209h1.164v.289h-1.164z"/><path d="m479.216 674.852-1.026 1.026 1.018 1.018 1.026-1.025zm-1.23 1.23-1.033 1.033 1.018 1.018 1.032-1.032zm-1.238 1.238-1.026 1.026 1.019 1.018 1.025-1.025zm-1.23 1.23-1.033 1.033 1.018 1.018 1.033-1.032zm-7.92 7.92-1.033 1.033 1.019 1.018 1.032-1.033zm-1.238 1.238-1.025 1.025 1.018 1.018 1.026-1.025zm-1.237 1.237-1.025 1.025 1.018 1.019 1.025-1.026zm-1.23 1.23-1.033 1.033 1.018 1.018 1.033-1.032zm15.132-19.219-1.648 1.648 1.018 1.018 1.648-1.647zm-1.853 1.853-1.025 1.025 1.018 1.018 1.025-1.025zm-1.23 1.23-1.033 1.033 1.018 1.018 1.033-1.032zm-1.238 1.238-1.025 1.025 1.018 1.018 1.025-1.025zm-1.23 1.23-1.033 1.032 1.019 1.019 1.032-1.033zm-1.238 1.238-1.025 1.025 1.018 1.018 1.026-1.025zM471 678.982l-1.025 1.025 1.018 1.019 1.025-1.026zm-1.23 1.23-1.033 1.033 1.018 1.018 1.033-1.032zm-1.238 1.238-1.025 1.025 1.018 1.018 1.025-1.025zm-1.23 1.23-1.033 1.033 1.019 1.018 1.032-1.033zm-1.238 1.238-1.025 1.025 1.018 1.018 1.026-1.025zm-1.23 1.23-1.032 1.032 1.018 1.019 1.032-1.033zm-1.237 1.237-1.026 1.026 1.018 1.018 1.026-1.025zm12.296-14.856-1.025 1.025 1.025 1.026 1.025-1.026zm-1.23 1.23-1.033 1.033 1.026 1.025 1.032-1.032zm-1.238 1.238-1.025 1.025 1.025 1.025 1.026-1.025zm-1.23 1.23-1.032 1.033 1.025 1.025 1.032-1.032zm-1.237 1.238-1.026 1.025 1.026 1.025 1.025-1.025zm-1.238 1.237-1.025 1.025 1.025 1.026 1.025-1.026zm-1.23 1.23-1.033 1.033 1.026 1.025 1.032-1.032zm-1.238 1.238-1.025 1.025 1.025 1.026 1.026-1.026zm-1.23 1.23-1.032 1.033 1.025 1.025 1.032-1.032zm-1.238 1.238-1.025 1.025 1.025 1.025 1.026-1.025zm-1.23 1.23-1.032 1.032 1.025 1.026 1.032-1.033zm-1.237 1.238-1.026 1.025 1.026 1.025 1.025-1.025zm12.296-14.857-1.025 1.026 1.025 1.025 1.026-1.025zm-1.23 1.23-1.032 1.033 1.025 1.025 1.032-1.032zm-1.238 1.238-1.025 1.025 1.025 1.026 1.026-1.026zm-1.23 1.23-1.032 1.033 1.025 1.025 1.032-1.032zm-1.237 1.238-1.026 1.025 1.026 1.025 1.025-1.025zm-1.238 1.237-1.025 1.026 1.025 1.025 1.026-1.025zm-1.23 1.23-1.033 1.033 1.026 1.025 1.032-1.032zm-1.238 1.238-1.025 1.025 1.025 1.026 1.026-1.026zm-1.23 1.23-1.032 1.033 1.025 1.025 1.032-1.032zm-1.237 1.238-1.026 1.025 1.026 1.025 1.025-1.025zm-1.23 1.23-1.033 1.033 1.025 1.025 1.033-1.032zm-1.238 1.238-1.025 1.025 1.025 1.025 1.025-1.025zm12.303-14.85-1.025 1.026 1.018 1.018 1.026-1.025zm-1.23 1.23-1.032 1.033 1.018 1.018 1.032-1.032zm-1.237 1.238-1.026 1.026 1.019 1.018 1.025-1.026zm-1.23 1.23-1.033 1.033 1.018 1.018 1.033-1.032zm-1.238 1.238-1.025 1.025 1.018 1.019 1.025-1.026zm-1.238 1.237-1.025 1.026 1.018 1.018 1.026-1.025zm-1.23 1.23-1.032 1.033 1.018 1.018 1.032-1.032zm-1.237 1.238-1.026 1.026 1.019 1.018 1.025-1.026zm-1.23 1.23-1.033 1.033 1.018 1.018 1.032-1.032zm-1.238 1.238-1.025 1.025 1.018 1.019 1.025-1.026zm-1.23 1.23-1.033 1.033 1.018 1.018 1.033-1.032zm8.59-11.15-8.435 8.435 1.025 1.025 8.436-8.435zm-18.716 18.716-2.468 2.468 1.025 1.026 2.468-2.468zm-2.673 2.673-1.033 1.033 1.026 1.025 1.032-1.032zm1.28 1.28-1.033 1.033 1.019 1.018 1.032-1.033zm1.336-1.336-1.032 1.032 1.018 1.018 1.032-1.032zm1.337-1.337-1.033 1.033 1.018 1.018 1.033-1.032zm1.272 1.273-1.032 1.033 1.025 1.025 1.033-1.033zm1.28 1.28-1.032 1.032 1.025 1.026 1.033-1.033zm-1.336 1.336-1.033 1.033 1.026 1.025 1.032-1.032zm-1.337 1.337-1.032 1.032 1.025 1.026 1.033-1.033zm-1.28-1.28-1.032 1.032 1.025 1.026 1.033-1.033zm1.337-1.336-1.032 1.032 1.025 1.025 1.032-1.032z" class="st9" id="path183"/><path d="m481.068 673-1.025 1.025 1.018 1.018 1.025-1.025zm-3.323-3.324-1.648 1.648 1.026 1.025 1.647-1.647zm-1.28-1.28-1.648 1.648 1.026 1.025 1.647-1.647zm-1.273-1.272-1.647 1.647 1.018 1.019 1.647-1.648zm-1.28-1.28-1.647 1.647 1.025 1.026 1.648-1.648zm-1.852 1.853-1.026 1.025 1.026 1.025 1.025-1.025zm-1.23 1.23-1.033 1.032 1.025 1.026 1.033-1.033zm-9.879 9.878-1.025 1.026 1.025 1.025 1.025-1.025zm-1.23 1.23-1.033 1.033 1.026 1.025 1.032-1.032zm-1.238 1.238-1.025 1.025 1.025 1.026 1.025-1.026zm-1.23 1.23-1.648 1.648 1.026 1.025 1.647-1.647zm-2.263 2.263-1.032 1.032 1.025 1.026 1.032-1.033zm-1.237 1.238-1.026 1.025 1.026 1.025 1.025-1.025zm-1.23 1.23-1.033 1.032 1.025 1.026 1.033-1.033zm-5.658 5.657-1.032 1.032 2.249 2.249 1.032-1.033zm2.454 2.453-1.032 1.033 2.404 2.404 1.032-1.032zm2.659 2.66-1.033 1.032 1.019 1.018 1.032-1.033zm1.336-1.337-1.032 1.032 1.018 1.018 1.032-1.032zm1.337-1.337-1.033 1.033 1.019 1.018 1.032-1.032zm1.336-1.336-1.032 1.032 1.018 1.018 1.032-1.032zm1.648-1.648-1.033 1.033 1.018 1.018 1.033-1.032zm-1.28-1.28-1.033 1.033 1.026 1.025 1.032-1.032zm-1.323-3.783-1.025 1.026 1.018 1.018 1.026-1.025zm4.745-4.716-2.878 2.878 1.026 1.025 2.877-2.878zm.064 2.524-1.648 1.648 2.249 2.249 1.647-1.648zm-1.018 3.508-1.033 1.032 1.025 1.025 1.033-1.032zm-1.238 1.237-1.025 1.025 1.025 1.026 1.025-1.026zm1.28 1.28-1.025 1.025 1.018 1.018 1.025-1.025zm3.5-3.5-1.647 1.647 1.018 1.019 1.647-1.648zm-7.226 12.53-.82.82.204.205.82-.82zm1.237-1.238-.827.828.205.205.827-.828zm3.302-4.518-1.032 1.032 1.018 1.018 1.032-1.032zm1.23-1.23-1.025 1.025 1.018 1.018 1.026-1.025zm1.238-1.238-1.032 1.032 1.018 1.019 1.032-1.033zm7.608-7.608-1.025 1.025 1.018 1.018 1.026-1.025zm1.238-1.238-1.033 1.032 1.019 1.019 1.032-1.033zm1.23-1.23-1.025 1.025 1.018 1.018 1.025-1.025zm1.238-1.238-1.033 1.033 1.019 1.018 1.032-1.032zm-13.358 9.27-1.032 1.033 1.018 1.018 1.033-1.032z" class="st10" id="path188"/></g><g id="1" class="ws"><path d="M286.56 481.554a157.589 157.613 45 0 0 15.705-15.663 28.16 28.16 0 0 0-.106-18.76l-12.382-12.38a4.03 4.03 0 0 1-.813-4.562l-2.072-2.071a16.145 16.145 0 0 0-22.832.007l-15.224 15.224a16.137 16.137 0 0 0 0 22.825l2.079 2.079a4.04 4.04 0 0 1 4.624.764l12.466 12.466a28.16 28.16 0 0 0 18.555.07zm7.983-7.8a57.393 57.402 45 0 1-14.312 12.332 3.01 3.01 45 0 0 .007 5.707 30.789 30.793 45 0 0 21.871-10.473 30.203 30.207 45 0 0 10.472-21.87 3.033 3.033 45 0 0-5.713 0 55.756 55.764 45 0 1-12.325 14.304zm-4.773-44.71a4.039 4.039 0 0 0 0 5.713l17.12 17.12a4.034 4.034 0 0 0 5.713 0 4.04 4.04 0 0 0 .007-5.721l-17.12-17.12a4.045 4.045 0 0 0-5.72.008zm-39.944 39.987a4.023 4.023 0 0 0-.014 5.685l17.119 17.119a4.055 4.055 0 0 0 5.734.007 4.049 4.049 0 0 0-.014-5.728l-17.119-17.119a4.024 4.024 0 0 0-5.692.022z" class="st4" id="path331"/><path d="M286.56 481.554a157.589 157.613 45 0 0 15.705-15.663 28.16 28.16 0 0 0-.106-18.76l-12.382-12.38a4.03 4.03 0 0 1-.813-4.562l-2.072-2.071a16.145 16.145 0 0 0-22.832.007l-15.224 15.224a16.137 16.137 0 0 0 0 22.825l2.079 2.079a4.04 4.04 0 0 1 4.624.764l12.466 12.466a28.16 28.16 0 0 0 18.555.07m7.983-7.799a57.393 57.402 45 0 1-14.312 12.332 3.01 3.01 45 0 0 .007 5.706 30.789 30.793 45 0 0 21.871-10.472 30.203 30.207 45 0 0 10.472-21.87 3.033 3.033 45 0 0-5.713 0 55.756 55.764 45 0 1-12.325 14.304m-4.773-44.71a4.039 4.039 0 0 0 0 5.713l17.12 17.12a4.034 4.034 0 0 0 5.713 0 4.04 4.04 0 0 0 .007-5.721l-17.12-17.12a4.045 4.045 0 0 0-5.72.008m-39.944 39.987a4.023 4.023 0 0 0-.015 5.685l17.12 17.119a4.055 4.055 0 0 0 5.734.007 4.049 4.049 0 0 0-.014-5.728l-17.119-17.119a4.024 4.024 0 0 0-5.692.021" class="st5" id="path333"/><path d="M310.717 353.332h-137.48v134.94h65.2v-69.74h72.28z" class="st6" id="path339"/><path transform="scale(-1)" class="st6" id="rect347" d="M-238.441-546.655h65.197v57.818h-65.197z"/><text x="199.171" y="524.945" class="st7" id="text349">1</text><path transform="rotate(-135)" class="st6" id="rect357" d="M-440.292-149.134h38.143v39.563h-38.143z"/><path transform="rotate(-135)" class="st6" id="rect362" d="M-458.786-150.284h15.026v41.891h-15.026z"/><path d="m224.242 382.47-10.394-4.95-19.276 19.277 4.985 10.359a235.919 233.239 45 0 0 24.685-24.685zm-10.394-4.95-13.04-13.038a91.622 90.962 45 0 0-19.275 19.276l13.039 13.039zm16.002 10.558-5.608-5.607a235.919 233.239 45 0 1-24.685 24.685l5.607 5.607a150.587 148.876 45 0 0 24.686-24.685z" class="st6" id="path367"/><path transform="rotate(-45)" class="st8" id="rect372" d="M-115.104 445.202h1.164v.289h-1.164z"/><path d="m212.024 419.227 1.026-1.025-1.019-1.019-1.025 1.026zm1.23-1.23 1.033-1.033-1.018-1.018-1.033 1.032zm1.238-1.238 1.025-1.025-1.018-1.018-1.025 1.025zm1.23-1.23 1.033-1.033-1.018-1.018-1.033 1.033zm7.92-7.92 1.032-1.032-1.018-1.018-1.032 1.032zm1.238-1.237 1.025-1.026-1.018-1.018-1.026 1.026zm1.237-1.238 1.025-1.025-1.018-1.018-1.025 1.025zm1.23-1.23 1.033-1.032-1.019-1.019-1.032 1.033zm-15.132 19.22 1.648-1.648-1.018-1.019-1.648 1.648zm1.853-1.854 1.025-1.025-1.018-1.018-1.025 1.025zm1.23-1.23 1.033-1.032-1.019-1.018-1.032 1.032zm1.238-1.237 1.025-1.026-1.018-1.018-1.026 1.025zm1.23-1.23 1.032-1.033-1.018-1.018-1.032 1.032zm1.237-1.238 1.026-1.025-1.018-1.019-1.026 1.026zm1.238-1.238 1.025-1.025-1.018-1.018-1.025 1.025zm1.23-1.23 1.033-1.032-1.019-1.019-1.032 1.033zm1.238-1.237 1.025-1.026-1.018-1.018-1.026 1.025zm1.23-1.23 1.032-1.033-1.018-1.018-1.032 1.032zm1.238-1.238 1.025-1.025-1.018-1.019-1.026 1.026zm1.23-1.23 1.032-1.033-1.018-1.018-1.032 1.032zm1.237-1.238 1.026-1.025-1.019-1.019-1.025 1.026zm-12.296 14.856 1.025-1.025-1.025-1.025-1.026 1.025zm1.23-1.23 1.032-1.032-1.025-1.026-1.032 1.033zm1.238-1.237 1.025-1.026-1.025-1.025-1.026 1.025zm1.23-1.23 1.032-1.033-1.025-1.026-1.032 1.033zm1.237-1.238 1.026-1.026-1.026-1.025-1.025 1.025zm1.238-1.238 1.025-1.025-1.025-1.025-1.026 1.025zm1.23-1.23 1.033-1.032-1.026-1.026-1.032 1.033zm1.238-1.238 1.025-1.025-1.025-1.025-1.026 1.025zm1.23-1.23 1.032-1.032-1.025-1.026-1.032 1.033zm1.237-1.237 1.026-1.026-1.026-1.025-1.025 1.025zm1.23-1.23 1.033-1.033-1.025-1.025-1.033 1.032zm1.238-1.238 1.026-1.025-1.026-1.026-1.025 1.026zm-12.296 14.856 1.025-1.025-1.025-1.025-1.026 1.025zm1.23-1.23 1.032-1.033-1.025-1.025-1.032 1.033zm1.237-1.238 1.026-1.025-1.026-1.025-1.025 1.025zm1.23-1.23 1.033-1.032-1.025-1.026-1.033 1.033zm1.238-1.237 1.026-1.026-1.026-1.025-1.025 1.025zm1.238-1.238 1.025-1.025-1.025-1.025-1.026 1.025zm1.23-1.23 1.032-1.033-1.025-1.025-1.032 1.032zm1.237-1.238 1.026-1.025-1.026-1.025-1.025 1.025zm1.23-1.23 1.033-1.032-1.025-1.026-1.032 1.033zm1.238-1.237 1.026-1.026-1.026-1.025-1.025 1.025zm1.23-1.23 1.033-1.033-1.025-1.025-1.033 1.032zm1.238-1.238 1.025-1.026-1.025-1.025-1.025 1.025zM217.9 425.103l1.026-1.025-1.019-1.019-1.025 1.026zm1.23-1.23 1.033-1.033-1.018-1.018-1.032 1.032zm1.238-1.238 1.026-1.025-1.019-1.018-1.025 1.025zm1.23-1.23 1.033-1.033-1.018-1.018-1.033 1.033zm1.238-1.238 1.025-1.025-1.018-1.018-1.025 1.025zm1.237-1.237 1.026-1.025-1.018-1.019-1.026 1.026zm1.23-1.23 1.033-1.033-1.018-1.018-1.032 1.032zm1.238-1.238 1.026-1.025-1.019-1.018-1.025 1.025zm1.23-1.23 1.033-1.033-1.018-1.018-1.033 1.033zm1.238-1.238 1.025-1.025-1.018-1.018-1.025 1.025zm1.23-1.23 1.033-1.032-1.018-1.019-1.033 1.033zm-8.59 11.151 8.435-8.436-1.025-1.025-8.436 8.436zm18.716-18.717 2.468-2.468-1.025-1.025-2.468 2.468zm2.673-2.673 1.032-1.032-1.025-1.026-1.032 1.033zm-1.28-1.28 1.033-1.032-1.019-1.018-1.032 1.032zm-1.336 1.337 1.032-1.033-1.018-1.018-1.032 1.032zm-1.337 1.336 1.033-1.032-1.019-1.019-1.032 1.033zm-1.272-1.273 1.032-1.032-1.025-1.025-1.033 1.032zm-1.28-1.28 1.032-1.032-1.025-1.025-1.033 1.032zm1.336-1.336 1.032-1.032-1.025-1.026-1.032 1.033zm1.337-1.336 1.032-1.033-1.025-1.025-1.033 1.032zm1.28 1.28 1.032-1.033-1.026-1.025-1.032 1.032zm-1.337 1.336 1.032-1.033-1.025-1.025-1.032 1.033z" class="st9" id="path377"/><path d="m210.172 421.08 1.025-1.026-1.018-1.018-1.026 1.025zm3.323 3.323 1.648-1.648-1.026-1.025-1.647 1.648zm1.28 1.28 1.648-1.648-1.026-1.025-1.647 1.648zm1.273 1.273 1.647-1.648-1.018-1.018-1.647 1.647zm1.28 1.28 1.647-1.648-1.025-1.025-1.648 1.647zm1.852-1.853 1.026-1.025-1.026-1.026-1.025 1.026zm1.23-1.23 1.033-1.033-1.025-1.025-1.033 1.032zm9.879-9.879 1.025-1.025-1.025-1.025-1.025 1.025zm1.23-1.23 1.033-1.033-1.026-1.025-1.032 1.033zm1.238-1.238 1.025-1.025-1.025-1.025-1.026 1.025zm1.23-1.23 1.648-1.648-1.026-1.025-1.647 1.648zm2.263-2.263 1.032-1.032-1.025-1.025-1.032 1.032zm1.237-1.237 1.026-1.025-1.026-1.026-1.025 1.026zm1.23-1.23 1.033-1.033-1.025-1.025-1.033 1.032zm5.657-5.657 1.033-1.033-2.249-2.248-1.032 1.032zm-2.453-2.454 1.032-1.032-2.404-2.405-1.032 1.033zm-2.659-2.659 1.032-1.032-1.018-1.018-1.032 1.032zm-1.336 1.337 1.032-1.033-1.018-1.018-1.033 1.032zm-1.337 1.336 1.033-1.032-1.019-1.018-1.032 1.032zm-1.336 1.337 1.032-1.033-1.018-1.018-1.032 1.032zm-1.648 1.647 1.033-1.032-1.019-1.018-1.032 1.032zm1.28 1.28 1.032-1.032-1.025-1.026-1.032 1.033zm1.322 3.783 1.026-1.025-1.019-1.019-1.025 1.026zm-4.744 4.716 2.878-2.878-1.026-1.025-2.878 2.878zm-.064-2.524 1.648-1.648-2.249-2.248-1.647 1.647zm1.018-3.507 1.033-1.033-1.026-1.025-1.032 1.032zm1.238-1.238 1.025-1.025-1.025-1.025-1.026 1.025zm-1.28-1.28 1.025-1.025-1.018-1.018-1.025 1.025zm-3.5 3.5 1.647-1.647-1.018-1.018-1.647 1.647zm7.226-12.53.82-.82-.204-.205-.82.82zm-1.237 1.238.827-.827-.205-.205-.827.827zm-3.302 4.519 1.032-1.033-1.018-1.018-1.032 1.032zm-1.23 1.23 1.025-1.025-1.019-1.019-1.025 1.026zm-1.238 1.237 1.032-1.032-1.018-1.018-1.032 1.032zm-7.609 7.609 1.026-1.025-1.018-1.019-1.026 1.026zm-1.237 1.237 1.032-1.032-1.018-1.018-1.032 1.032zm-1.23 1.23 1.025-1.025-1.018-1.018-1.026 1.025zm-1.238 1.238 1.033-1.032-1.019-1.019-1.032 1.033zm13.357-9.27 1.033-1.032-1.018-1.019-1.033 1.033z" class="st10" id="path382"/></g><g id="g1450" class="wp"><path transform="rotate(-179.835)" class="st6" id="rect197" d="M-521.551-746.331h137.482v5.669h-137.482z"/><path transform="rotate(-90)" class="st6" id="rect206" d="M-742.162 519.416h134.938v5.669h-134.938z"/><path transform="rotate(-90)" class="st6" id="rect215" d="M-607.224 519.416h57.818v5.669h-57.818z"/><path transform="scale(-1 1) rotate(.165)" class="st6" id="rect283" d="M-518.402 348.521h137.482v5.669h-137.482z"/><path transform="matrix(0 1 1 0 0 0)" class="st6" id="rect292" d="M352.691 519.416h134.938v5.669H352.691z"/><path transform="matrix(0 1 1 0 0 0)" class="st6" id="rect301" d="M487.629 519.416h57.818v5.669h-57.818z"/><path transform="rotate(.165)" class="st6" id="rect391" d="M172.833 345.751h137.482v5.669H172.833z"/><path transform="rotate(90)" class="st6" id="rect400" d="M351.915-171.827h134.938v5.669H351.915z"/><path transform="rotate(90)" class="st6" id="rect409" d="M486.854-171.827h57.818v5.669h-57.818z"/></g><g id="4" class="ws"><path d="M287.775 614.82a157.613 157.589 45 0 1 15.705 15.663 28.16 28.16 0 0 1-.106 18.76l-12.382 12.381a4.03 4.03 0 0 0-.813 4.56l-2.072 2.073a16.145 16.145 0 0 1-22.832-.007l-15.224-15.224a16.137 16.137 0 0 1 0-22.826l2.079-2.079a4.04 4.04 0 0 0 4.624-.763l12.466-12.467a28.16 28.16 0 0 1 18.555-.07zm7.983 7.8a57.402 57.393 45 0 0-14.312-12.332 3.01 3.01 45 0 1 .007-5.706 30.793 30.789 45 0 1 21.871 10.472 30.207 30.203 45 0 1 10.472 21.87 3.033 3.033 45 0 1-5.713 0 55.764 55.756 45 0 0-12.325-14.304zm-4.773 44.71a4.039 4.039 0 0 1 0-5.713l17.12-17.12a4.034 4.034 0 0 1 5.713 0 4.04 4.04 0 0 1 .007 5.721l-17.12 17.12a4.045 4.045 0 0 1-5.72-.008zm-39.944-39.986a4.023 4.023 0 0 1-.014-5.686l17.119-17.119a4.055 4.055 0 0 1 5.734-.007 4.049 4.049 0 0 1-.014 5.728l-17.119 17.119a4.024 4.024 0 0 1-5.692-.021z" class="st4" id="path439"/><path d="M287.775 614.82a157.613 157.589 45 0 1 15.705 15.663 28.16 28.16 0 0 1-.106 18.76l-12.382 12.381a4.03 4.03 0 0 0-.813 4.56l-2.072 2.073a16.145 16.145 0 0 1-22.832-.007l-15.224-15.224a16.137 16.137 0 0 1 0-22.826l2.079-2.079a4.04 4.04 0 0 0 4.624-.763l12.466-12.467a28.16 28.16 0 0 1 18.555-.07m7.983 7.8a57.402 57.393 45 0 0-14.312-12.333 3.01 3.01 45 0 1 .007-5.706 30.793 30.789 45 0 1 21.871 10.472 30.207 30.203 45 0 1 10.472 21.87 3.033 3.033 45 0 1-5.713 0 55.764 55.756 45 0 0-12.325-14.304m-4.773 44.71a4.039 4.039 0 0 1 0-5.713l17.12-17.119a4.034 4.034 0 0 1 5.713 0 4.04 4.04 0 0 1 .007 5.72l-17.12 17.12a4.045 4.045 0 0 1-5.72-.007m-39.944-39.987a4.023 4.023 0 0 1-.015-5.685l17.12-17.12a4.055 4.055 0 0 1 5.734-.007 4.049 4.049 0 0 1-.014 5.728l-17.119 17.12a4.024 4.024 0 0 1-5.692-.022" class="st5" id="path441"/><path d="M311.937 743.046h-137.48v-134.94h65.2v69.74h72.28z" class="st6" id="path447"/><path transform="scale(1 -1)" class="st6" id="rect455" d="M174.459-607.545h65.197v57.818h-65.197z"/><text x="200.379" y="585.835" class="st7" id="text457">4</text><path transform="scale(-1 1) rotate(45)" class="st6" id="rect465" d="M334.102 626.986h38.143v39.563h-38.143z"/><path transform="scale(-1 1) rotate(45)" class="st6" id="rect470" d="M315.609 625.836h15.026v41.891h-15.026z"/><path d="m225.462 713.909-10.394 4.95-19.276-19.276 4.985-10.36a233.239 235.919 45 0 1 24.685 24.686zm-10.394 4.95-13.04 13.039a90.962 91.622 45 0 1-19.275-19.276l13.04-13.04zM231.07 708.3l-5.608 5.608a233.239 235.919 45 0 0-24.685-24.685l5.608-5.608a148.876 150.587 45 0 1 24.685 24.685z" class="st6" id="path475"/><path transform="scale(1 -1) rotate(-45)" class="st8" id="rect480" d="M661.016-329.193h1.164v.289h-1.164z"/><path d="m213.244 677.152 1.026 1.026-1.019 1.018-1.025-1.025zm1.23 1.23 1.033 1.033-1.018 1.018-1.033-1.032zm1.238 1.238 1.025 1.026-1.018 1.018-1.025-1.025zm1.23 1.23 1.033 1.033-1.018 1.018-1.033-1.032zm7.92 7.92 1.033 1.033-1.019 1.018-1.032-1.033zm1.238 1.238 1.025 1.025-1.018 1.018-1.026-1.025zm1.237 1.237 1.025 1.025-1.018 1.019-1.025-1.026zm1.23 1.23 1.033 1.033-1.018 1.018-1.033-1.032zm-15.132-19.219 1.648 1.648-1.018 1.018-1.648-1.647zm1.853 1.853 1.025 1.025-1.018 1.018-1.025-1.025zm1.23 1.23 1.033 1.033-1.019 1.018-1.032-1.032zm1.238 1.238 1.025 1.025-1.018 1.018-1.026-1.025zm1.23 1.23 1.032 1.032-1.018 1.019-1.032-1.033zm1.238 1.238 1.025 1.025-1.018 1.018-1.026-1.025zm1.237 1.237 1.025 1.025-1.018 1.019-1.025-1.026zm1.23 1.23 1.033 1.033-1.019 1.018-1.032-1.032zm1.238 1.238 1.025 1.025-1.018 1.018-1.025-1.025zm1.23 1.23 1.032 1.033-1.018 1.018-1.032-1.033zm1.238 1.238 1.025 1.025-1.018 1.018-1.026-1.025zm1.23 1.23 1.032 1.032-1.018 1.019-1.032-1.033zm1.237 1.237 1.026 1.026-1.019 1.018-1.025-1.025zm-12.296-14.856 1.025 1.025-1.025 1.026-1.026-1.026zm1.23 1.23 1.033 1.033-1.026 1.025-1.032-1.032zm1.238 1.238 1.025 1.025-1.025 1.025-1.026-1.025zm1.23 1.23 1.032 1.033-1.025 1.025-1.032-1.032zm1.237 1.238 1.026 1.025-1.026 1.025-1.025-1.025zm1.238 1.237 1.025 1.025-1.025 1.026-1.026-1.026zm1.23 1.23 1.033 1.033-1.026 1.025-1.032-1.032zm1.238 1.238 1.025 1.025-1.025 1.026-1.026-1.026zm1.23 1.23 1.032 1.033-1.025 1.025-1.032-1.032zm1.237 1.238 1.026 1.025-1.026 1.025-1.025-1.025zm1.23 1.23 1.033 1.032-1.025 1.026-1.033-1.033zm1.238 1.238 1.026 1.025-1.026 1.025-1.025-1.025zm-12.296-14.857 1.025 1.026-1.025 1.025-1.026-1.025zm1.23 1.23 1.032 1.033-1.025 1.025-1.032-1.032zm1.237 1.238 1.026 1.025-1.026 1.026-1.025-1.026zm1.23 1.23 1.033 1.033-1.025 1.025-1.033-1.032zm1.238 1.238 1.026 1.025-1.026 1.025-1.025-1.025zm1.238 1.237 1.025 1.026-1.025 1.025-1.026-1.025zm1.23 1.23 1.032 1.033-1.025 1.025-1.032-1.032zm1.237 1.238 1.026 1.025-1.026 1.026-1.025-1.026zm1.23 1.23 1.033 1.033-1.025 1.025-1.032-1.032zm1.238 1.238 1.026 1.025-1.026 1.025-1.025-1.025zm1.23 1.23 1.033 1.033-1.025 1.025-1.033-1.032zm1.238 1.238 1.025 1.025-1.025 1.025-1.025-1.025zm-12.304-14.85 1.026 1.026-1.019 1.018-1.025-1.025zm1.23 1.23 1.033 1.033-1.018 1.018-1.032-1.032zm1.238 1.238 1.026 1.026-1.019 1.018-1.025-1.026zm1.23 1.23 1.033 1.033-1.018 1.018-1.033-1.032zm1.238 1.238 1.025 1.025-1.018 1.019-1.025-1.026zm1.237 1.237 1.026 1.026-1.018 1.018-1.026-1.025zm1.23 1.23 1.033 1.033-1.018 1.018-1.032-1.032zm1.238 1.238 1.026 1.026-1.019 1.018-1.025-1.026zm1.23 1.23 1.033 1.033-1.018 1.018-1.033-1.032zm1.238 1.238 1.025 1.025-1.018 1.019-1.025-1.026zm1.23 1.23 1.033 1.033-1.018 1.018-1.033-1.032zm-8.59-11.15 8.435 8.435-1.025 1.025-8.436-8.435zm18.716 18.716 2.468 2.468-1.025 1.026-2.468-2.468zm2.673 2.673 1.032 1.033-1.025 1.025-1.032-1.032zm-1.28 1.28 1.033 1.033-1.019 1.018-1.032-1.033zm-1.336-1.336 1.032 1.032-1.018 1.018-1.032-1.032zm-1.337-1.337 1.033 1.033-1.019 1.018-1.032-1.032zm-1.272 1.273 1.032 1.032-1.025 1.026-1.033-1.033zm-1.28 1.28 1.032 1.032-1.025 1.026-1.033-1.033zm1.336 1.336 1.032 1.033-1.025 1.025-1.032-1.032zm1.337 1.337 1.032 1.032-1.025 1.026-1.033-1.033zm1.28-1.28 1.032 1.032-1.026 1.026-1.032-1.033zm-1.337-1.336 1.032 1.032-1.025 1.025-1.032-1.032z" class="st9" id="path485"/><path d="m211.392 675.3 1.025 1.025-1.018 1.018-1.025-1.025zm3.323-3.324 1.648 1.648-1.026 1.025-1.647-1.647zm1.28-1.28 1.648 1.648-1.026 1.025-1.647-1.647zm1.273-1.272 1.647 1.647-1.018 1.019-1.647-1.648zm1.28-1.28 1.647 1.647-1.025 1.026-1.648-1.648zm1.852 1.853 1.026 1.025-1.026 1.025-1.025-1.025zm1.23 1.23 1.033 1.032-1.025 1.026-1.033-1.033zm9.879 9.878 1.025 1.026-1.025 1.025-1.025-1.025zm1.23 1.23 1.033 1.033-1.026 1.025-1.032-1.032zm1.238 1.238 1.025 1.025-1.025 1.026-1.026-1.026zm1.23 1.23 1.648 1.648-1.026 1.025-1.647-1.647zm2.263 2.263 1.032 1.032-1.025 1.026-1.032-1.033zm1.237 1.238 1.026 1.025-1.026 1.025-1.025-1.025zm1.23 1.23 1.033 1.032-1.025 1.026-1.033-1.033zm5.657 5.657 1.033 1.032-2.249 2.249-1.032-1.033zm-2.453 2.453 1.032 1.033-2.404 2.404-1.032-1.032zm-2.659 2.66 1.032 1.032-1.018 1.018-1.032-1.033zm-1.336-1.337 1.032 1.032-1.018 1.018-1.033-1.032zm-1.337-1.337 1.033 1.033-1.019 1.018-1.032-1.032zm-1.336-1.336 1.032 1.032-1.018 1.018-1.032-1.032zm-1.648-1.648 1.033 1.033-1.019 1.018-1.032-1.032zm1.28-1.28 1.032 1.033-1.025 1.025-1.032-1.032zm1.322-3.783 1.026 1.026-1.019 1.018-1.025-1.025zm-4.744-4.716 2.878 2.878-1.026 1.025-2.878-2.878zm-.064 2.524 1.648 1.648-2.249 2.249-1.647-1.648zm1.018 3.508 1.033 1.032-1.026 1.025-1.032-1.032zm1.238 1.237 1.025 1.025-1.025 1.026-1.026-1.026zm-1.28 1.28 1.025 1.025-1.018 1.018-1.025-1.025zm-3.5-3.5 1.647 1.647-1.018 1.019-1.647-1.648zm7.226 12.53.82.82-.204.205-.82-.82zm-1.237-1.238.827.828-.205.205-.827-.828zm-3.302-4.518 1.032 1.032-1.018 1.018-1.032-1.032zm-1.23-1.23 1.025 1.025-1.019 1.018-1.025-1.025zm-1.238-1.238 1.032 1.032-1.018 1.019-1.032-1.033zm-7.609-7.608 1.026 1.025-1.018 1.018-1.026-1.025zm-1.237-1.238 1.032 1.032-1.018 1.019-1.032-1.033zm-1.23-1.23 1.025 1.025-1.018 1.018-1.026-1.025zM219 682.908l1.033 1.033-1.019 1.018-1.032-1.032zm13.357 9.27 1.033 1.033-1.018 1.018-1.033-1.032z" class="st10" id="path490"/></g><g id="2" class="ws"><g id="shape971-24" transform="rotate(135 436.68 860.556)"><path class="st2" id="rect53" d="M0 1158.08h6.013v.425H0z"/></g><g id="shape977-38" transform="rotate(-45 -716.31 111.542)"><path class="st2" id="rect79" d="M0 1158.08h6.013v.425H0z"/></g><path d="M404.685 482.334a157.613 157.589 45 0 1-15.705-15.663 28.16 28.16 0 0 1 .106-18.76l12.382-12.38a4.03 4.03 0 0 0 .813-4.562l2.072-2.071a16.145 16.145 0 0 1 22.832.007l15.224 15.224a16.137 16.137 0 0 1 0 22.825l-2.079 2.079a4.04 4.04 0 0 0-4.624.764l-12.467 12.466a28.16 28.16 0 0 1-18.554.07zm-7.983-7.8a57.402 57.393 45 0 0 14.312 12.332 3.01 3.01 45 0 1-.007 5.707 30.793 30.789 45 0 1-21.871-10.473 30.207 30.203 45 0 1-10.473-21.87 3.033 3.033 45 0 1 5.714 0 55.764 55.756 45 0 0 12.325 14.304zm4.773-44.71a4.039 4.039 0 0 1 0 5.713l-17.12 17.12a4.034 4.034 0 0 1-5.713 0 4.04 4.04 0 0 1-.007-5.721l17.12-17.12a4.045 4.045 0 0 1 5.72.008zm39.944 39.987a4.023 4.023 0 0 1 .014 5.685l-17.119 17.119a4.055 4.055 0 0 1-5.734.007 4.049 4.049 0 0 1 .014-5.728l17.119-17.119a4.024 4.024 0 0 1 5.692.022z" class="st4" id="path223"/><path d="M404.685 482.334a157.613 157.589 45 0 1-15.705-15.663 28.16 28.16 0 0 1 .106-18.76l12.382-12.38a4.03 4.03 0 0 0 .813-4.562l2.072-2.071a16.145 16.145 0 0 1 22.832.007l15.224 15.224a16.137 16.137 0 0 1 0 22.825l-2.079 2.079a4.04 4.04 0 0 0-4.624.764l-12.467 12.466a28.16 28.16 0 0 1-18.554.07m-7.983-7.799a57.402 57.393 45 0 0 14.312 12.332 3.01 3.01 45 0 1-.007 5.707 30.793 30.789 45 0 1-21.871-10.473 30.207 30.203 45 0 1-10.473-21.87 3.033 3.033 45 0 1 5.714 0 55.764 55.756 45 0 0 12.325 14.304m4.773-44.71a4.039 4.039 0 0 1 0 5.713l-17.12 17.12a4.034 4.034 0 0 1-5.713 0 4.04 4.04 0 0 1-.007-5.721l17.12-17.12a4.045 4.045 0 0 1 5.72.008m39.944 39.987a4.023 4.023 0 0 1 .014 5.685l-17.119 17.119a4.055 4.055 0 0 1-5.734.007 4.049 4.049 0 0 1 .014-5.728l17.119-17.119a4.024 4.024 0 0 1 5.692.021" class="st5" id="path225"/><path d="M380.519 354.108h137.48v134.94h-65.2v-69.74h-72.28z" class="st6" id="path231"/><path transform="scale(1 -1)" class="st6" id="rect239" d="M452.799-547.425h65.197v57.818h-65.197z"/><text x="478.719" y="525.715" class="st7" id="text241">2</text><path transform="scale(1 -1) rotate(45)" class="st6" id="rect249" d="M47.94-638.463h38.143v39.563H47.94z"/><path transform="scale(1 -1) rotate(45)" class="st6" id="rect254" d="M29.446-639.613h15.026v41.891H29.446z"/><path d="m466.998 383.246 10.394-4.95 19.276 19.276-4.985 10.359a233.239 235.919 45 0 1-24.685-24.685zm10.394-4.95 13.04-13.04a90.962 91.622 45 0 1 19.275 19.277l-13.04 13.039zm-16.002 10.557 5.608-5.607a233.239 235.919 45 0 0 24.685 24.685l-5.608 5.607a148.876 150.587 45 0 1-24.685-24.685z" class="st6" id="path259"/><path transform="scale(-1 1) rotate(-45)" class="st8" id="rect264" d="M-604.433-43.03h1.164v.289h-1.164z"/><path d="m479.216 420.002-1.026-1.025 1.018-1.019 1.026 1.026zm-1.23-1.23-1.033-1.033 1.018-1.018 1.032 1.032zm-1.238-1.238-1.026-1.025 1.019-1.018 1.025 1.025zm-1.23-1.23-1.033-1.033 1.018-1.018 1.033 1.033zm-7.92-7.92-1.033-1.032 1.019-1.018 1.032 1.032zm-1.238-1.237-1.025-1.026 1.018-1.018 1.026 1.025zm-1.237-1.238-1.025-1.025 1.018-1.018 1.025 1.025zm-1.23-1.23-1.033-1.032 1.018-1.019 1.033 1.033zm15.132 19.22-1.648-1.648 1.018-1.019 1.648 1.648zm-1.853-1.854-1.025-1.025 1.018-1.018 1.025 1.025zm-1.23-1.23-1.033-1.032 1.018-1.019 1.033 1.033zm-1.238-1.237-1.025-1.026 1.018-1.018 1.025 1.025zm-1.23-1.23-1.033-1.033 1.019-1.018 1.032 1.032zm-1.238-1.238-1.025-1.025 1.018-1.019 1.026 1.026zM471 415.872l-1.025-1.025 1.018-1.018 1.025 1.025zm-1.23-1.23-1.033-1.032 1.018-1.019 1.033 1.033zm-1.238-1.237-1.025-1.026 1.018-1.018 1.025 1.025zm-1.23-1.23-1.033-1.033 1.019-1.018 1.032 1.032zm-1.238-1.238-1.025-1.026 1.018-1.018 1.026 1.026zm-1.23-1.23-1.032-1.033 1.018-1.018 1.032 1.032zm-1.237-1.238-1.026-1.025 1.018-1.019 1.026 1.026zm12.296 14.856-1.025-1.025 1.025-1.025 1.025 1.025zm-1.23-1.23-1.033-1.032 1.026-1.026 1.032 1.033zm-1.238-1.237-1.025-1.026 1.025-1.025 1.026 1.025zm-1.23-1.23-1.032-1.033 1.025-1.026 1.032 1.033zm-1.237-1.238-1.026-1.026 1.026-1.025 1.025 1.025zm-1.238-1.238-1.025-1.025 1.025-1.025 1.025 1.025zm-1.23-1.23-1.033-1.032 1.026-1.026 1.032 1.033zm-1.238-1.238-1.025-1.025 1.025-1.025 1.026 1.025zm-1.23-1.23-1.032-1.032 1.025-1.026 1.032 1.033zm-1.238-1.237-1.025-1.026 1.025-1.025 1.026 1.025zm-1.23-1.23-1.032-1.033 1.025-1.025 1.032 1.032zm-1.237-1.238-1.026-1.025 1.026-1.026 1.025 1.026zm12.296 14.856-1.025-1.025 1.025-1.025 1.026 1.025zm-1.23-1.23-1.032-1.033 1.025-1.025 1.032 1.033zm-1.238-1.238-1.025-1.025 1.025-1.025 1.026 1.025zm-1.23-1.23-1.032-1.032 1.025-1.026 1.032 1.033zm-1.237-1.237-1.026-1.026 1.026-1.025 1.025 1.025zm-1.238-1.238-1.025-1.025 1.025-1.025 1.026 1.025zm-1.23-1.23-1.033-1.033 1.026-1.025 1.032 1.032zm-1.238-1.238-1.025-1.025 1.025-1.025 1.026 1.025zm-1.23-1.23-1.032-1.032 1.025-1.026 1.032 1.033zm-1.237-1.237-1.026-1.026 1.026-1.025 1.025 1.025zm-1.23-1.23-1.033-1.033 1.025-1.026 1.033 1.033zm-1.238-1.238-1.025-1.026 1.025-1.025 1.025 1.025zm12.303 14.849-1.025-1.025 1.018-1.019 1.026 1.026zm-1.23-1.23-1.032-1.033 1.018-1.018 1.032 1.032zm-1.237-1.238-1.026-1.025 1.019-1.018 1.025 1.025zm-1.23-1.23-1.033-1.033 1.018-1.018 1.033 1.033zm-1.238-1.238-1.025-1.025 1.018-1.018 1.025 1.025zm-1.238-1.237-1.025-1.025 1.018-1.019 1.026 1.026zm-1.23-1.23-1.032-1.033 1.018-1.018 1.032 1.032zm-1.237-1.238-1.026-1.025 1.019-1.018 1.025 1.025zm-1.23-1.23-1.033-1.033 1.018-1.018 1.032 1.033zm-1.238-1.238-1.025-1.025 1.018-1.018 1.025 1.025zm-1.23-1.23-1.033-1.032 1.018-1.019 1.033 1.033zm8.59 11.151-8.435-8.436 1.025-1.025 8.436 8.436zm-18.716-18.717-2.468-2.468 1.025-1.025 2.468 2.468zm-2.673-2.673-1.033-1.032 1.026-1.026 1.032 1.033zm1.28-1.28-1.033-1.032 1.019-1.018 1.032 1.032zm1.336 1.337-1.032-1.033 1.018-1.018 1.032 1.032zm1.337 1.336-1.033-1.032 1.018-1.019 1.033 1.033zm1.272-1.273-1.032-1.032 1.025-1.025 1.033 1.032zm1.28-1.28-1.032-1.032 1.025-1.025 1.033 1.032zm-1.336-1.336-1.033-1.032 1.026-1.026 1.032 1.033zm-1.337-1.336-1.032-1.033 1.025-1.025 1.033 1.032zm-1.28 1.28-1.032-1.033 1.025-1.025 1.033 1.032zm1.337 1.336-1.032-1.033 1.025-1.025 1.032 1.033z" class="st9" id="path269"/><path d="m481.068 421.855-1.025-1.026 1.018-1.018 1.025 1.025zm-3.323 3.323-1.648-1.648 1.025-1.025 1.648 1.648zm-1.28 1.28-1.648-1.648 1.026-1.025 1.647 1.647zm-1.273 1.273-1.647-1.648 1.018-1.018 1.647 1.647zm-1.28 1.28-1.647-1.648 1.025-1.025 1.648 1.647zm-1.852-1.853-1.026-1.025 1.026-1.026 1.025 1.026zm-1.23-1.23-1.033-1.033 1.025-1.025 1.033 1.032zm-9.879-9.879-1.025-1.025 1.025-1.025 1.025 1.025zm-1.23-1.23-1.033-1.033 1.026-1.025 1.032 1.033zm-1.238-1.238-1.025-1.025 1.025-1.025 1.025 1.025zm-1.23-1.23-1.648-1.648 1.026-1.025 1.647 1.648zm-2.263-2.263-1.032-1.032 1.025-1.025 1.032 1.032zm-1.237-1.237-1.026-1.025 1.026-1.026 1.025 1.026zm-1.23-1.23-1.033-1.033 1.025-1.025 1.033 1.032zm-5.658-5.657-1.032-1.033 2.249-2.248 1.032 1.032zm2.454-2.454-1.032-1.032 2.404-2.405 1.032 1.033zm2.659-2.659-1.033-1.032 1.019-1.018 1.032 1.032zm1.336 1.337-1.032-1.033 1.018-1.018 1.032 1.032zm1.337 1.336-1.033-1.032 1.018-1.019 1.033 1.033zm1.336 1.337-1.032-1.033 1.018-1.018 1.032 1.032zm1.648 1.647-1.033-1.032 1.018-1.019 1.033 1.033zm-1.28 1.28-1.033-1.032 1.026-1.026 1.032 1.033zm-1.323 3.783-1.025-1.025 1.018-1.019 1.026 1.026zm4.745 4.716-2.878-2.878 1.026-1.025 2.877 2.878zm.064-2.524-1.648-1.648 2.249-2.248 1.647 1.647zm-1.018-3.507-1.033-1.033 1.025-1.025 1.033 1.032zm-1.238-1.238-1.025-1.025 1.025-1.025 1.025 1.025zm1.28-1.28-1.025-1.025 1.018-1.018 1.025 1.025zm3.5 3.5-1.647-1.647 1.018-1.018 1.647 1.647zm-7.227-12.53-.82-.82.205-.205.82.82zm1.238 1.238-.827-.827.205-.205.827.827zm3.302 4.519-1.032-1.033 1.018-1.018 1.032 1.032zm1.23 1.23-1.025-1.025 1.018-1.019 1.026 1.026zm1.238 1.237-1.032-1.032 1.018-1.018 1.032 1.032zm7.608 7.609-1.025-1.025 1.018-1.019 1.026 1.026zm1.238 1.237-1.033-1.032 1.019-1.018 1.032 1.032zm1.23 1.23-1.025-1.025 1.018-1.018 1.025 1.025zm1.238 1.238-1.033-1.032 1.018-1.019 1.033 1.033zm-13.358-9.27-1.032-1.032 1.018-1.019 1.033 1.033z" class="st10" id="path274"/><path d="M431.31 341.095v4.25" class="st5" id="path588"/></g><g id="g1583" class="any"><g transform="rotate(-90 -70.45 923.203)" id="shape962-3"><path d="M-4.25 1154.26h515.9l-4.25 4.25H0z" class="st1" id="path12"/></g><g id="shape963-6" transform="rotate(135 145.753 1039.773)"><path class="st2" id="rect17" d="M0 1158.08h6.013v.425H0z"/></g><g id="shape964-8" transform="rotate(45 1066.996 943.664)"><path class="st2" id="rect22" d="M0 1158.08h6.013v.425H0z"/></g><g transform="rotate(-90 -70.45 923.203)" id="shape966-12"><path d="M-4.25 1154.26h515.9" class="st3" id="path30"/><path d="M0 1158.51h507.4" class="st3" id="path32"/></g><g transform="translate(164.854 -813.157)" id="shape969-19"><path d="M-4.25 1154.26h374.17l-4.25 4.25H0z" class="st1" id="path43"/></g><g id="shape970-22" transform="rotate(-135 -85.982 717.788)"><path class="st2" id="rect48" d="M0 1158.08h6.013v.425H0z"/></g><g transform="translate(164.854 -813.157)" id="shape973-28"><path d="M-4.25 1154.26h374.17" class="st3" id="path61"/><path d="M0 1158.51h365.67" class="st3" id="path63"/></g><g transform="rotate(90 671.838 1017.188)" id="shape976-35"><path d="M-4.25 1154.26h515.9l-4.25 4.25H0z" class="st1" id="path74"/></g><g id="shape978-40" transform="rotate(-135 204.943 897)"><path class="st2" id="rect84" d="M0 1158.08h6.013v.425H0z"/></g><g transform="rotate(90 671.838 1017.188)" id="shape980-44"><path d="M-4.25 1154.26h515.9" class="st3" id="path92"/><path d="M0 1158.51h507.4" class="st3" id="path94"/></g><g transform="rotate(180 265.263 1005.631)" id="shape983-51"><path d="M-4.25 1154.26h374.17l-4.25 4.25H0z" class="st1" id="path105"/></g><g id="shape984-54" transform="rotate(45 634.343 1646.03)"><path class="st2" id="rect110" d="M0 1158.08h6.013v.425H0z"/></g><g id="shape985-56" transform="rotate(-45 -283.636 813.893)"><path class="st2" id="rect115" d="M0 1158.08h6.013v.425H0z"/></g><g transform="rotate(180 265.263 1005.631)" id="shape987-60"><path d="M-4.25 1154.26h374.17" class="st3" id="path123"/><path d="M0 1158.51h365.67" class="st3" id="path125"/></g><path d="M527.689 753.535v90.71h-48.19v-90.71zm-48.19 0h-2.83v90.71h2.83z" class="st12" id="path317"/><path d="M527.689 753.535v90.71h-48.19v-90.71h48.19" class="st13" id="path319"/><path d="M479.499 798.895h-2.83" class="st13" id="path321"/><path d="M479.499 753.535h-2.83v90.71h2.83v-90.71" class="st13" id="path323"/><path d="M476.665 793.22h-2.83v2.84h2.83zm0 8.51h-2.83v2.83h2.83z" class="st11" id="path312"/><path d="M167.689 847.086v-90.71h54.98v90.71zm54.98 0h2.84v-90.71h-2.84z" class="st12" id="path425"/><path d="M167.689 847.086v-90.71h54.98v90.71h-54.98" class="st13" id="path427"/><path d="M222.669 801.726h2.84" class="st13" id="path429"/><path d="M222.669 847.086h2.84v-90.71h-2.84v90.71" class="st13" id="path431"/><path d="M225.506 807.4h2.83v-2.84h-2.83zm0-8.51h2.83v-2.83h-2.83z" class="st11" id="path420"/><path d="M413.597 852.605h-100.63v4.54h100.63z" class="st14" id="path498"/><path d="M314.377 855.582h.57v-1.42h-.57zm97.8 0h-.57v-1.42h.57z" class="st4" id="path519"/><path d="M314.377 855.582h.57v-1.42h-.57m97.8 1.42h-.57v-1.42h.57" class="st5" id="path521"/><path d="M312.964 852.745v4.25" class="st5" id="path526"/><path d="M413.594 852.745v4.25" class="st5" id="path528"/><path d="M412.177 856.997a97.795 97.795 0 0 1-25.43 65.79" class="st5" id="path533"/><path d="M312.964 852.745v4.25h1.42v-4.25zm100.63 0v4.25h-1.42v-4.25z" class="st4" id="path512"/><path d="M312.964 852.745v4.25h1.42v-1.41m0-1.42v-1.42h-1.42m100.63 0v4.25h-1.42v-1.41m0-1.42v-1.42h1.42" class="st5" id="path514"/><path transform="rotate(-137.726)" class="st6" id="rect538" d="M-906.9-422.651h97.795v1.417H-906.9z"/><path transform="rotate(137.726)" class="st15" id="rect546" d="M245.108-845.973h97.795v1.417h-97.795z"/><path d="M431.31 340.955H278.24v4.54h153.07z" class="st14" id="path557"/><path d="M429.894 343.932h-1.42v-1.42h1.42zm-150.24 0h1.42v-1.42h-1.42z" class="st6" id="path578"/><path d="M428.476 343.22h-147.4" class="st5" id="path583"/><path d="M278.24 341.095v4.25" class="st5" id="path590"/><path d="M431.31 341.095v4.25h-1.42v-4.25zm-153.07 0v4.25h1.42v-4.25z" class="st4" id="path571"/><path d="M431.31 341.095v4.25h-1.42v-1.41m0-1.42v-1.42h1.42m-153.07 0v4.25h1.42v-1.41m0-1.42v-1.42h-1.42" class="st5" id="path573"/></g></g></svg>