<svg xmlns="http://www.w3.org/2000/svg" width="881.668" height="925.052" viewBox="0 0 661.251 693.789" color-interpolation-filters="sRGB" class="st3" fill="none"><g id="shape1-1" transform="translate(18.375 -36.4)"><path class="st1" d="M0 54.775h624.501v639.014H0z"/><switch><svg viewBox="-0.51 -0.511 833 852.98" height="639.014" preserveAspectRatio="none" width="624.501" y="54.775"><clipPath id="mfid1"><path id="mfid2" d="M-.51-.511h833v852.98h-833z"/></clipPath><g clip-path="url(#mfid1)"><mask id="mfid3"><path d="M0 0h833v853H0z"/></mask><mask id="mfid4" stroke="none"><g mask="url(#mfid3)"><use xlinkHref="#mfid2"/></g></mask><mask id="mfid5" fill-rule="evenodd" stroke="none"><path d="M0 0h833v853H0z"/></mask><defs><path id="mfid6" d="M-5.905-5.905H172.05L166.14 0H0l-5.905-5.905Z"/></defs><g mask="url(#mfid4)"><g><g transform="matrix(3.84 0 0 3.84 142.06 160.24)"><use fill-rule="evenodd" xlinkHref="#mfid6"/><defs><path id="mfid7" d="M-5.905-5.905H172.05M0 0h166.14"/></defs></g><g stroke-width=".083" stroke="#000" stroke-miterlimit="2" transform="matrix(3.84 0 0 3.84 142.06 160.24)"><use xlinkHref="#mfid7"/><defs><path id="mfid8" d="M-5.905-5.905H172.44L166.54 0H0l-5.905-5.905Z"/></defs></g></g><g stroke-width=".083" stroke="#000" stroke-miterlimit="2" transform="rotate(90 309.9 470.14) scale(3.84)"><use fill-rule="evenodd" stroke="none" xlinkHref="#mfid8"/><defs><path id="mfid9" d="M-5.905-5.905H172.44M0 0h166.54"/></defs><use xlinkHref="#mfid9"/><defs><path id="mfid10" d="M-5.905-5.905H172.05L166.14 0H0l-5.905-5.905Z"/></defs></g><g stroke-width=".083" stroke="#000" stroke-miterlimit="2" transform="rotate(180 390.02 399.87) scale(3.84)"><use fill-rule="evenodd" stroke="none" xlinkHref="#mfid10"/><defs><path id="mfid11" d="M-5.905-5.905H172.05M0 0h166.14"/></defs><use xlinkHref="#mfid11"/><defs><path id="mfid12" d="M-5.905-5.905H172.44L166.54 0H0l-5.905-5.905Z"/></defs></g><g stroke-width=".083" stroke="#000" stroke-miterlimit="2" transform="rotate(-90 470.9 328.84) scale(3.84)"><use fill-rule="evenodd" stroke="none" xlinkHref="#mfid12"/><defs><path id="mfid13" d="M-5.905-5.905H172.44M0 0h166.54"/></defs><use xlinkHref="#mfid13"/><defs><path id="mfid14" d="M0 0h.984v-.984H0V0Zm0-2.953h.984v-.984H0v.984Z"/></defs></g><g stroke-miterlimit="2"><g stroke-width=".083" stroke="#000" transform="matrix(-3.84 0 0 -3.84 689.33 216.66)"><use fill-rule="evenodd" stroke="none" xlinkHref="#mfid14"/><defs><path id="mfid15" d="M0 0h.984v-.984H0V0Zm0-2.953h.984v-.984H0v.984Z"/></defs></g><g stroke-width=".434" stroke="#658a82" transform="matrix(-3.84 0 0 -3.84 689.33 216.66)"><use xlinkHref="#mfid15"/><defs><path id="mfid16" d="M0 0v-31.496h22.638V0H0Zm22.638 0h.984v-31.496h-.984V0Z"/></defs></g></g><g stroke-width=".434" stroke="#658a82" stroke-miterlimit="2" transform="rotate(180 390.02 81.87) scale(3.84)"><use fill-rule="evenodd" stroke="none" xlinkHref="#mfid16"/><defs><path id="mfid17" d="M0 0v-31.496h22.638V0H0Zm22.638-15.748h.984M22.638 0h.984v-31.496h-.984V0Z"/></defs><use xlinkHref="#mfid17"/><defs><path id="mfid18" d="M0 0h.984v-.984H0V0Zm0-2.953h.984v-.984H0v.984Z"/></defs></g><g stroke-width=".434" stroke="#658a82" stroke-miterlimit="2" transform="matrix(0 3.84 -3.84 0 453.49 231.78)"><use fill-rule="evenodd" stroke="none" xlinkHref="#mfid18"/><defs><path id="mfid19" d="M0 0h.984v-.984H0V0Zm0-2.953h.984v-.984H0v.984Z"/></defs><use xlinkHref="#mfid19"/><defs><path id="mfid20" d="M0 0v-31.496h16.732V0H0Zm16.732 0h.985v-31.496h-.985V0Z"/></defs></g><g stroke-width=".434" stroke="#658a82" stroke-miterlimit="2" transform="rotate(90 118.42 282.16) scale(3.84)"><use fill-rule="evenodd" stroke="none" xlinkHref="#mfid20"/><defs><path id="mfid21" d="M0 0v-31.496h16.732V0H0Zm16.732-15.748h.985M16.732 0h.985v-31.496h-.985V0Z"/></defs><use xlinkHref="#mfid21"/><defs><path id="mfid22" d="M3.003-7.825c-.587.035-1.42.002-1.968.199a1.284 1.284 0 0 0-.767.714c-.414.9-.246 2.505-.165 3.606.114 1.542.06 2.1.29 3.306H.7C.654-.566.554-.952.454-2.063c-.007-.069-.013-.14-.018-.21-.064-.787-.064-1.433-.09-2C.32-4.822.27-5.3.303-5.807c.03-.47.13-.967.4-1.283.407-.473 1.194-.537 2.07-.55l.23-.184Zm.007.123c.444-.626 1.383-.904 2.296-1.126l-.111.24a5.302 5.302 0 0 1-.975.361c-.09.026-.188.053-.28.082-.415.13-.685.295-.763.56l-.167-.117Zm.024-.008c.82-.018 1.693-.147 2.472.007l-.116.166c-.154.014-.242-.074-.625-.024l-.014.001-.021.001c-.744.009-.967-.12-1.697-.15Z"/></defs></g><g stroke-width=".434" stroke="#658a82" stroke-miterlimit="2" transform="matrix(3.84 0 0 3.84 145.2 193.86)"><use fill-rule="evenodd" stroke="none" xlinkHref="#mfid22"/><defs><path id="mfid23" d="M3.003-7.825c-.587.035-1.42.002-1.968.199a1.284 1.284 0 0 0-.767.714c-.414.9-.246 2.505-.165 3.606.114 1.542.06 2.1.29 3.306H.7C.654-.566.554-.952.454-2.063c-.007-.069-.013-.14-.018-.21-.064-.787-.064-1.433-.09-2C.32-4.822.27-5.3.303-5.807c.03-.47.13-.967.4-1.283.407-.473 1.194-.537 2.07-.55l.23-.184Zm.007.123c.444-.626 1.383-.904 2.296-1.126l-.111.24a5.302 5.302 0 0 1-.975.361c-.09.026-.188.053-.28.082-.415.13-.685.295-.763.56l-.167-.117Zm.024-.008c.82-.018 1.693-.147 2.472.007l-.116.166c-.154.014-.242-.074-.625-.024l-.014.001-.021.001c-.744.009-.967-.12-1.697-.15Z"/></defs></g><g stroke-width=".083" stroke="#000" stroke-linecap="round" stroke-linejoin="round" transform="matrix(3.84 0 0 3.84 145.2 193.86)"><use xlinkHref="#mfid23"/><defs><path id="mfid24" d="M0 0h3.839v-7.066a1.176 1.176 0 0 0-.903-.615.67.67 0 0 1-.326-.485v-.552H1.228v.552a.67.67 0 0 1-.326.486c-.383.044-.72.274-.902.614V0Z"/></defs></g><g stroke-width=".083" stroke="#000" stroke-linecap="round" stroke-linejoin="round" transform="matrix(3.84 0 0 3.84 149.62 197.76)"><use fill-rule="evenodd" stroke="none" xlinkHref="#mfid24"/><defs><path id="mfid25" d="M0 0h3.839v-7.066a1.176 1.176 0 0 0-.903-.615.67.67 0 0 1-.326-.485v-.552H1.228v.552a.67.67 0 0 1-.326.486c-.383.044-.72.274-.902.614V0Z"/></defs><use xlinkHref="#mfid25"/></g><g stroke-width=".083" stroke="#000" stroke-linecap="round" stroke-linejoin="round" transform="matrix(3.84 0 0 3.84 150.21 185.48)"><path stroke="none" d="M0-.984h3.531V0H0z"/><defs><path id="mfid26" d="M0 0h3.531v-.984H0V0Z"/></defs><use xlinkHref="#mfid26"/><defs><path id="mfid27" d="M0-.546c0-.302.305-.546.682-.546.376 0 .681.244.681.546 0 .301-.305.546-.681.546C.305 0 0-.245 0-.546Z"/></defs></g><g stroke-width=".083" stroke="#000" stroke-linecap="round" stroke-linejoin="round" transform="matrix(3.84 0 0 3.84 154.37 167.4)"><use fill-rule="evenodd" stroke="none" xlinkHref="#mfid27"/><defs><path id="mfid28" d="M.61-.357.98-.75M0-.546c0-.302.305-.546.682-.546.376 0 .681.244.681.546 0 .301-.305.546-.681.546C.305 0 0-.245 0-.546Z"/></defs><use xlinkHref="#mfid28"/></g><g stroke-width=".083" stroke-linecap="round" stroke-linejoin="round"><g stroke="#000" transform="matrix(-3.84 0 0 3.84 338.59 160.24)"><path stroke="none" d="M-1.968-5.955h39.37V.05h-39.37z"/><defs><path id="mfid29" d="M-1.968.05h39.37v-6.005h-39.37V.05Z"/></defs></g><g stroke="#fff" transform="matrix(-3.84 0 0 3.84 338.59 160.24)"><use xlinkHref="#mfid29"/><defs><path id="mfid30" d="M39.37 0v-5.905h-1.968V0h1.968ZM0 0v-5.905h1.968V0H0Z"/></defs></g></g><g stroke-width=".083" stroke-linecap="round" stroke-linejoin="round"><g stroke="#fff" transform="matrix(-3.84 0 0 3.84 346.15 160.24)"><use fill-rule="evenodd" stroke="none" xlinkHref="#mfid30"/><defs><path id="mfid31" d="M39.37 0v-5.905h-1.968v1.968m0 1.968V0h1.968M0 0v-5.905h1.968v1.968m0 1.968V0H0"/></defs></g><g stroke="#000" transform="matrix(-3.84 0 0 3.84 346.15 160.24)"><use xlinkHref="#mfid31"/><defs><path id="mfid32" d="M35.433-1.968h-.787V0h.787v-1.968ZM0-1.968h.787V0H0v-1.968Z"/></defs></g></g><g stroke-width=".083" stroke="#000" stroke-linecap="round" stroke-linejoin="round" transform="matrix(-3.84 0 0 3.84 338.59 152.68)"><use fill-rule="evenodd" stroke="none" xlinkHref="#mfid32"/><defs><path id="mfid33" d="M35.433-1.968h-.787V0h.787M0-1.968h.787V0H0"/></defs><use xlinkHref="#mfid33"/><defs><path id="mfid34" d="M39.37 0v-5.905M0 0v-5.905"/></defs></g><g stroke-width=".083" stroke="#000" stroke-linecap="round" stroke-linejoin="round" transform="matrix(-3.84 0 0 3.84 346.15 160.24)"><use xlinkHref="#mfid34"/><defs><path id="mfid35" d="M0 0a35.431 35.431 0 0 1 8.484-23.005"/></defs></g><g stroke-width=".083" stroke="#000" stroke-linecap="round" stroke-linejoin="round" transform="matrix(-3.84 0 0 3.84 338.59 137.56)"><use xlinkHref="#mfid35"/><defs><path id="mfid36" d="M0 0h35.433v-1.968H0V0Z"/></defs></g><g stroke-width=".083" stroke="#000" stroke-linecap="round" stroke-linejoin="round" transform="scale(-3.84 3.84) rotate(40.486 -59.893 -102.62)"><use fill-rule="evenodd" stroke="none" xlinkHref="#mfid36"/><defs><path id="mfid37" d="M0 0h35.433v-1.968H0V0Z"/></defs><use xlinkHref="#mfid37"/></g><g stroke-width=".083" stroke-linecap="round" stroke-linejoin="round"><g stroke="#000" transform="matrix(3.84 0 0 3.84 202.53 822.41)"><path stroke="none" d="M0-5.955h66.929V.05H0z"/><defs><path id="mfid38" d="M0 .05h66.929v-6.005H0V.05Z"/></defs></g><g stroke="#fff" transform="matrix(3.84 0 0 3.84 202.53 822.41)"><use xlinkHref="#mfid38"/><defs><path id="mfid39" d="M0 0v-5.905h1.968V0H0Zm66.929 0v-5.905h-1.968V0h1.968Z"/></defs><use fill-rule="evenodd" stroke="none" xlinkHref="#mfid39"/><defs><path id="mfid40" d="M0 0v-5.905h1.968v1.968m0 1.968V0H0m66.929 0v-5.905h-1.968v1.968m0 1.968V0h1.968"/></defs></g><g stroke="#000" transform="matrix(3.84 0 0 3.84 202.53 822.41)"><use xlinkHref="#mfid40"/><defs><path id="mfid41" d="M0-1.968h1.968V0H0v-1.968Zm62.992 0h-1.968V0h1.968v-1.968Z"/></defs></g></g><g stroke-width=".083" stroke="#000" stroke-linecap="round" stroke-linejoin="round" transform="matrix(3.84 0 0 3.84 210.09 814.85)"><use fill-rule="evenodd" stroke="none" xlinkHref="#mfid41"/><defs><path id="mfid42" d="M0-1.968h1.968V0H0v-1.968Zm62.992 0h-1.968V0h1.968v-1.968Z"/></defs><use xlinkHref="#mfid42"/><defs><path id="mfid43" d="M0 0h59.055"/></defs></g><g stroke-width=".083" stroke="#000" stroke-linecap="round" stroke-linejoin="round" transform="matrix(3.84 0 0 3.84 217.65 811.07)"><use xlinkHref="#mfid43"/><defs><path id="mfid44" d="M0 0v-5.905M66.929 0v-5.905"/></defs></g><g stroke-width=".083" stroke="#000" stroke-linecap="round" stroke-linejoin="round" transform="matrix(3.84 0 0 3.84 202.53 822.41)"><use xlinkHref="#mfid44"/><defs><path id="mfid45" d="M0-62.3c0-.382.278-.692.622-.692h30.252c.344 0 .622.31.622.692V-.692c0 .382-.279.692-.622.692H.622C.278 0 0-.31 0-.692V-62.3Z"/></defs></g><g stroke="#000"><g stroke-width=".083" stroke-linecap="round" stroke-linejoin="round" transform="matrix(3.84 0 0 3.84 345.25 789.15)"><use fill-rule="evenodd" stroke="none" xlinkHref="#mfid45"/><defs><path id="mfid46" d="M0-62.3c0-.382.278-.692.622-.692h30.252c.344 0 .622.31.622.692V-.692c0 .382-.279.692-.622.692H.622C.278 0 0-.31 0-.692V-62.3Z"/></defs></g><g stroke-width=".26" stroke-miterlimit="2" transform="matrix(3.84 0 0 3.84 345.25 789.15)"><use xlinkHref="#mfid46"/><defs><path id="mfid47" d="M4.252-2.126a2.126 2.126 0 1 0-4.252 0 2.126 2.126 0 0 0 4.252 0Z"/></defs></g></g><g stroke-width=".26" stroke="#000" stroke-miterlimit="2" transform="matrix(3.84 0 0 3.84 366.72 585.06)"><use fill-rule="evenodd" stroke="none" xlinkHref="#mfid47"/><defs><path id="mfid48" d="M2.953-1.476a1.476 1.476 0 1 0-2.953 0 1.476 1.476 0 0 0 2.953 0Z"/></defs></g><g><use fill-rule="evenodd" stroke="none" stroke-width=".26" stroke-miterlimit="2" transform="matrix(3.84 0 0 3.84 369.21 582.56)" xlinkHref="#mfid48"/></g></g><g mask="url(#mfid5)"><text stroke="none" x="0,16" transform="translate(401.16 591.8)" font-family="'Calibri',swiss,sans-serif" font-weight="400" font-size="32" stroke-miterlimit="10">3</text></g><defs><path id="mfid49" d="M6.272 0c7.567 0 6.44-5 6.44-5l-.71-4.976c-.311-2.836-2.798-2.831-2.798-2.831H4.068C.908-12.325.73-9.532.73-9.532.635-8.728.032-4.593.032-4.593-.27-1.88 1.651-.803 1.651-.803 3.067 0 6.27 0 6.27 0ZM1.746-19.603s2.226-.24 5.005-.24 4.365.24 4.365.24c2.125.261 1.514 2.344 1.514 2.344-.023.224-.354 1.71-.449 1.983-.245.711-.704 1.193-1.333 1.455-.456.191-.93.322-1.418.323H3.432c-.489-.001-.962-.132-1.418-.323-.629-.262-1.087-.744-1.333-1.455-.095-.273-.426-1.759-.45-1.983 0 0-.61-2.083 1.515-2.344Z"/></defs><g mask="url(#mfid4)"><g stroke-width=".26" stroke="#000"><g stroke-miterlimit="2" transform="rotate(-89.112 522.38 175.28) scale(3.83996)"><use fill-rule="evenodd" stroke="none" xlinkHref="#mfid49"/><defs><path id="mfid50" d="M6.272 0c7.567 0 6.44-5 6.44-5l-.71-4.976c-.311-2.836-2.798-2.831-2.798-2.831H4.068C.908-12.325.73-9.532.73-9.532.635-8.728.032-4.593.032-4.593-.27-1.88 1.651-.803 1.651-.803 3.067 0 6.27 0 6.27 0ZM1.746-19.603s2.226-.24 5.005-.24 4.365.24 4.365.24c2.125.261 1.514 2.344 1.514 2.344-.023.224-.354 1.71-.449 1.983-.245.711-.704 1.193-1.333 1.455-.456.191-.93.322-1.418.323H3.432c-.489-.001-.962-.132-1.418-.323-.629-.262-1.087-.744-1.333-1.455-.095-.273-.426-1.759-.45-1.983 0 0-.61-2.083 1.515-2.344Z"/></defs></g><g stroke-linecap="round" stroke-linejoin="round" transform="rotate(-89.112 522.38 175.28) scale(3.83996)"><use xlinkHref="#mfid50"/><defs><path id="mfid51" d="M5.473-14.961s2.23-.205 5.008-.162c2.778.043 4.361.307 4.361.307.998.139 1.383.671 1.513 1.197.087-.356.398-2.038-1.496-2.301 0 0-1.583-.264-4.361-.307-2.778-.043-5.008.162-5.008.162-1.902.204-1.643 1.895-1.566 2.253.145-.521.547-1.041 1.549-1.149ZM19.837-1.755 18.405-7.21c-.475-1.685-1.245-1.585-1.551-1.53-.797.143-.682.892-.619 1.889l.67 5.324c.153.887.753 1.587 1.562 1.524.81-.063 1.424-.846 1.37-1.75ZM.007-2.062l1.601-5.41c.527-1.67 1.294-1.545 1.598-1.481.792.167.654.913.56 1.908l-.835 5.3C2.751-.862 2.13-.182 1.322-.27.515-.357-.074-1.16.008-2.062Zm3.937-1.496-.725-.011.262-1.67.718.033-.255 1.648ZM9.247-9.21l1.643.026.011-.691-1.643-.026-.01.691Zm6.702 5.838.725.011-.211-1.677-.717.011.203 1.655Z"/></defs></g></g><g stroke-width=".26" stroke="#000" stroke-linecap="round" stroke-linejoin="round" transform="matrix(0 -3.84 3.84 0 325.54 708.08)"><use fill-rule="evenodd" stroke="none" xlinkHref="#mfid51"/><defs><path id="mfid52" d="M5.473-14.961s2.23-.205 5.008-.162c2.778.043 4.361.307 4.361.307.998.139 1.383.671 1.513 1.197.087-.356.398-2.038-1.496-2.301 0 0-1.583-.264-4.361-.307-2.778-.043-5.008.162-5.008.162-1.902.204-1.643 1.895-1.566 2.253.145-.521.547-1.041 1.549-1.149ZM19.837-1.755 18.405-7.21c-.475-1.685-1.245-1.585-1.551-1.53-.797.143-.682.892-.619 1.889l.67 5.324c.153.887.753 1.587 1.562 1.524.81-.063 1.424-.846 1.37-1.75ZM.007-2.062l1.601-5.41c.527-1.67 1.294-1.545 1.598-1.481.792.167.654.913.56 1.908l-.835 5.3C2.751-.862 2.13-.182 1.322-.27.515-.357-.074-1.16.008-2.062Zm3.937-1.496-.725-.011.262-1.67.718.033-.255 1.648ZM9.247-9.21l1.643.026.011-.691-1.643-.026-.01.691Zm6.702 5.838.725.011-.211-1.677-.717.011.203 1.655Z"/></defs><use xlinkHref="#mfid52"/><defs><path id="mfid53" d="M10.247-17.081H5.894a.22.22 0 0 0-.224.218v13.994c0 .12.101.218.224.218h4.352a.22.22 0 0 0 .224-.218v-13.994a.22.22 0 0 0-.223-.218Zm-6.734 4.145v-.021h.69c.325 0 .589.311.589.695v4.694c0 .384-.264.696-.59.696h-.689v-6.064Zm0 0v10.098L.577 0 0-.211v-19.421l.577-.211 2.936 2.839v4.068Z"/></defs></g><g stroke-width=".26" stroke="#000"><g stroke-linecap="round" stroke-linejoin="round" transform="matrix(-3.84 0 0 -3.84 398.51 631.44)"><use fill-rule="evenodd" stroke="none" xlinkHref="#mfid53"/><defs><path id="mfid54" d="M10.247-17.081H5.894a.22.22 0 0 0-.224.218v13.994c0 .12.101.218.224.218h4.352a.22.22 0 0 0 .224-.218v-13.994a.22.22 0 0 0-.223-.218Zm-6.734 4.145v-.021h.69c.325 0 .589.311.589.695v4.694c0 .384-.264.696-.59.696h-.689v-6.064Zm0 0v10.098L.577 0 0-.211v-19.421l.577-.211 2.936 2.839v4.068Z"/></defs></g><g stroke-miterlimit="2" transform="matrix(-3.84 0 0 -3.84 398.51 631.44)"><use xlinkHref="#mfid54"/><defs><path id="mfid55" d="M2.926-12.826v-.716h.736v.716h-.736v.86-.715h.736v.715h-.736v-.86Zm0 1.721v-.716h.736v.716h-.736v1.232-.716h.736v.716h-.736v-1.232Zm0 2.092v-.716h.736v.716h-.736v.86-.715h.736v.715h-.736v-.86Zm0 2.128V-7.6h.736v.715h-.736v.86-.714h.736v.715h-.736v-.86Zm0 5.164V-5.88h.736v4.158h-.736v.86-.715h.736v.715h-.736v-.86Zm0 1.72v-.715h.736V0h-.736L2.04-9.013v-.716h.736v.716H2.04L2.926 0ZM2.04-6.023V-7.6h.736v1.576H2.04v.86-.715h.736v.715H2.04v-.86Zm0-5.081v-.716h.736v.716H2.04V-13.542h.736v.716H2.04v1.721Zm0-.861v-.715h.736v.715H2.04v7.663-.716h.737v.716H2.04v-7.663Zm0 8.523v-.715h.736v.715H2.04v.861-.716h.737v.716H2.04v-.86Zm0 1.722v-.716h.736v.716H2.04V0v-1.576h.737V0H2.04v-1.721Zm-.886-5.164V-7.6h.736v.715h-.736v.86-.714h.736v.715h-.736v-.86Zm0 1.721v-.715h.736v.715h-.736v.86-.715h.737v.716h-.737v-.86Zm0 1.721v-.715h.737v.715h-.737v.861-.716h.737v.716h-.737v-.86Zm0 1.722v-.716h.737v.716h-.737v.86-.715h.737v.715h-.737v-.86Zm0 1.72v-.715h.737V0h-.737v-13.542h.736v.716h-.736V0Zm0-11.965v-.715h.736v.715h-.736v.861-.716h.736v.716h-.736v-.861ZM0-6.885V-7.6h.737v.715H0v.86-.714h.737v.715H0v-.86Zm0 1.721v-.715h.737v.715H0v.86-.715h.737v.716H0v-.86Zm0 1.721v-.715h.737v.715H0v.861-.716h.737v.716H0v-.86ZM0-1.72v-.716h.737v.716H0v.86-.715h.737v.715H0v-.86Zm0 1.72v-.715h.737V0H0v-8.868h.737v.715H0V0Zm0-12.825v-.716h.737v.716H0v.86-.715h.737v.715H0v-.86Zm0 1.721v-.716h.737v.716H0v1.232-.716h.737v.716H0v-1.232Zm0 2.092v-.716h.737v.716H0Z"/></defs></g></g><g stroke-width=".26" stroke="#000" stroke-miterlimit="2" transform="matrix(-3.84 0 0 -3.84 374.12 643.33)"><use fill-rule="evenodd" stroke="none" xlinkHref="#mfid55"/><defs><path id="mfid56" d="M9.921-2.193h8.78L16.771 0h-13.7l-1.93-2.193h8.78Z"/></defs></g><g stroke="#000" stroke-miterlimit="2"><g stroke-width=".26" transform="matrix(0 3.84 -3.84 0 386.18 631.44)"><use fill-rule="evenodd" stroke="none" xlinkHref="#mfid56"/><defs><path id="mfid57" d="M9.921-2.193h8.78L16.771 0h-13.7l-1.93-2.193h8.78Zm9.922-.444H0"/></defs></g><g stroke-width=".13" transform="matrix(0 3.84 -3.84 0 386.18 631.44)"><use xlinkHref="#mfid57"/><defs><path id="mfid58" d="M0-62.3c0-.382.278-.692.622-.692h30.252c.344 0 .622.31.622.692V-.692c0 .382-.279.692-.622.692H.622C.278 0 0-.31 0-.692V-62.3Z"/></defs></g></g><g stroke="#000" stroke-miterlimit="2"><g stroke-width=".13" transform="matrix(3.84 0 0 3.84 345.05 538.19)"><use fill-rule="evenodd" stroke="none" xlinkHref="#mfid58"/><defs><path id="mfid59" d="M0-62.3c0-.382.278-.692.622-.692h30.252c.344 0 .622.31.622.692V-.692c0 .382-.279.692-.622.692H.622C.278 0 0-.31 0-.692V-62.3Z"/></defs></g><g stroke-width=".26" transform="matrix(3.84 0 0 3.84 345.05 538.19)"><use xlinkHref="#mfid59"/><defs><path id="mfid60" d="M4.252-2.126a2.126 2.126 0 1 0-4.252 0 2.126 2.126 0 0 0 4.252 0Z"/></defs></g></g><g stroke-width=".26" stroke="#000" stroke-miterlimit="2" transform="matrix(3.84 0 0 3.84 366.52 334.1)"><use fill-rule="evenodd" stroke="none" xlinkHref="#mfid60"/><defs><path id="mfid61" d="M2.953-1.476a1.476 1.476 0 1 0-2.953 0 1.476 1.476 0 0 0 2.953 0Z"/></defs></g><use fill-rule="evenodd" stroke="none" stroke-width=".26" stroke-miterlimit="2" transform="matrix(3.84 0 0 3.84 369.01 331.6)" xlinkHref="#mfid61"/></g><g mask="url(#mfid5)"><text stroke="none" x="0,16" transform="translate(401.16 350.16)" font-family="'Calibri',swiss,sans-serif" font-weight="400" font-size="32" stroke-miterlimit="10">4</text></g><defs><path id="mfid62" d="M6.272 0c7.567 0 6.44-5 6.44-5l-.71-4.976c-.311-2.836-2.798-2.831-2.798-2.831H4.068C.908-12.325.73-9.532.73-9.532.635-8.728.032-4.593.032-4.593-.27-1.88 1.651-.803 1.651-.803 3.067 0 6.27 0 6.27 0ZM1.746-19.603s2.226-.24 5.005-.24 4.365.24 4.365.24c2.125.261 1.514 2.344 1.514 2.344-.023.224-.354 1.71-.449 1.983-.245.711-.704 1.193-1.333 1.455-.456.191-.93.322-1.418.323H3.432c-.489-.001-.962-.132-1.418-.323-.629-.262-1.087-.744-1.333-1.455-.095-.273-.426-1.759-.45-1.983 0 0-.61-2.083 1.515-2.344Z"/></defs><g mask="url(#mfid4)"><g stroke-width=".26" stroke="#000"><g stroke-miterlimit="2" transform="rotate(-89.112 394.828 49.903) scale(3.83996)"><use fill-rule="evenodd" stroke="none" xlinkHref="#mfid62"/><defs><path id="mfid63" d="M6.272 0c7.567 0 6.44-5 6.44-5l-.71-4.976c-.311-2.836-2.798-2.831-2.798-2.831H4.068C.908-12.325.73-9.532.73-9.532.635-8.728.032-4.593.032-4.593-.27-1.88 1.651-.803 1.651-.803 3.067 0 6.27 0 6.27 0ZM1.746-19.603s2.226-.24 5.005-.24 4.365.24 4.365.24c2.125.261 1.514 2.344 1.514 2.344-.023.224-.354 1.71-.449 1.983-.245.711-.704 1.193-1.333 1.455-.456.191-.93.322-1.418.323H3.432c-.489-.001-.962-.132-1.418-.323-.629-.262-1.087-.744-1.333-1.455-.095-.273-.426-1.759-.45-1.983 0 0-.61-2.083 1.515-2.344Z"/></defs></g><g stroke-linecap="round" stroke-linejoin="round" transform="rotate(-89.112 394.828 49.903) scale(3.83996)"><use xlinkHref="#mfid63"/><defs><path id="mfid64" d="M5.473-14.961s2.23-.205 5.008-.162c2.778.043 4.361.307 4.361.307.998.139 1.383.671 1.513 1.197.087-.356.398-2.038-1.496-2.301 0 0-1.583-.264-4.361-.307-2.778-.043-5.008.162-5.008.162-1.902.204-1.643 1.895-1.566 2.253.145-.521.547-1.041 1.549-1.149ZM19.837-1.755 18.405-7.21c-.475-1.685-1.245-1.585-1.551-1.53-.797.143-.682.892-.619 1.889l.67 5.324c.153.887.753 1.587 1.562 1.524.81-.063 1.424-.846 1.37-1.75ZM.007-2.062l1.601-5.41c.527-1.67 1.294-1.545 1.598-1.481.792.167.654.913.56 1.908l-.835 5.3C2.751-.862 2.13-.182 1.322-.27.515-.357-.074-1.16.008-2.062Zm3.937-1.496-.725-.011.262-1.67.718.033-.255 1.648ZM9.247-9.21l1.643.026.011-.691-1.643-.026-.01.691Zm6.702 5.838.725.011-.211-1.677-.717.011.203 1.655Z"/></defs></g></g><g stroke-width=".26" stroke="#000" stroke-linecap="round" stroke-linejoin="round" transform="rotate(-90 391.23 65.89) scale(3.84)"><use fill-rule="evenodd" stroke="none" xlinkHref="#mfid64"/><defs><path id="mfid65" d="M5.473-14.961s2.23-.205 5.008-.162c2.778.043 4.361.307 4.361.307.998.139 1.383.671 1.513 1.197.087-.356.398-2.038-1.496-2.301 0 0-1.583-.264-4.361-.307-2.778-.043-5.008.162-5.008.162-1.902.204-1.643 1.895-1.566 2.253.145-.521.547-1.041 1.549-1.149ZM19.837-1.755 18.405-7.21c-.475-1.685-1.245-1.585-1.551-1.53-.797.143-.682.892-.619 1.889l.67 5.324c.153.887.753 1.587 1.562 1.524.81-.063 1.424-.846 1.37-1.75ZM.007-2.062l1.601-5.41c.527-1.67 1.294-1.545 1.598-1.481.792.167.654.913.56 1.908l-.835 5.3C2.751-.862 2.13-.182 1.322-.27.515-.357-.074-1.16.008-2.062Zm3.937-1.496-.725-.011.262-1.67.718.033-.255 1.648ZM9.247-9.21l1.643.026.011-.691-1.643-.026-.01.691Zm6.702 5.838.725.011-.211-1.677-.717.011.203 1.655Z"/></defs><use xlinkHref="#mfid65"/><defs><path id="mfid66" d="M10.247-17.081H5.894a.22.22 0 0 0-.224.218v13.994c0 .12.101.218.224.218h4.352a.22.22 0 0 0 .224-.218v-13.994a.22.22 0 0 0-.223-.218Zm-6.734 4.145v-.021h.69c.325 0 .589.311.589.695v4.694c0 .384-.264.696-.59.696h-.689v-6.064Zm0 0v10.098L.577 0 0-.211v-19.421l.577-.211 2.936 2.839v4.068Z"/></defs></g><g stroke-width=".26" stroke="#000"><g stroke-linecap="round" stroke-linejoin="round" transform="matrix(-3.84 0 0 -3.84 398.3 380.48)"><use fill-rule="evenodd" stroke="none" xlinkHref="#mfid66"/><defs><path id="mfid67" d="M10.247-17.081H5.894a.22.22 0 0 0-.224.218v13.994c0 .12.101.218.224.218h4.352a.22.22 0 0 0 .224-.218v-13.994a.22.22 0 0 0-.223-.218Zm-6.734 4.145v-.021h.69c.325 0 .589.311.589.695v4.694c0 .384-.264.696-.59.696h-.689v-6.064Zm0 0v10.098L.577 0 0-.211v-19.421l.577-.211 2.936 2.839v4.068Z"/></defs></g><g stroke-miterlimit="2" transform="matrix(-3.84 0 0 -3.84 398.3 380.48)"><use xlinkHref="#mfid67"/><defs><path id="mfid68" d="M2.926-12.826v-.716h.736v.716h-.736v.86-.715h.736v.715h-.736v-.86Zm0 1.721v-.716h.736v.716h-.736v1.232-.716h.736v.716h-.736v-1.232Zm0 2.092v-.716h.736v.716h-.736v.86-.715h.736v.715h-.736v-.86Zm0 2.128V-7.6h.736v.715h-.736v.86-.714h.736v.715h-.736v-.86Zm0 5.164V-5.88h.736v4.158h-.736v.86-.715h.736v.715h-.736v-.86Zm0 1.72v-.715h.736V0h-.736L2.04-9.013v-.716h.736v.716H2.04L2.926 0ZM2.04-6.023V-7.6h.736v1.576H2.04v.86-.715h.736v.715H2.04v-.86Zm0-5.081v-.716h.736v.716H2.04V-13.542h.736v.716H2.04v1.721Zm0-.861v-.715h.736v.715H2.04v7.663-.716h.737v.716H2.04v-7.663Zm0 8.523v-.715h.736v.715H2.04v.861-.716h.737v.716H2.04v-.86Zm0 1.722v-.716h.736v.716H2.04V0v-1.576h.737V0H2.04v-1.721Zm-.886-5.164V-7.6h.736v.715h-.736v.86-.714h.736v.715h-.736v-.86Zm0 1.721v-.715h.736v.715h-.736v.86-.715h.737v.716h-.737v-.86Zm0 1.721v-.715h.737v.715h-.737v.861-.716h.737v.716h-.737v-.86Zm0 1.722v-.716h.737v.716h-.737v.86-.715h.737v.715h-.737v-.86Zm0 1.72v-.715h.737V0h-.737v-13.542h.736v.716h-.736V0Zm0-11.965v-.715h.736v.715h-.736v.861-.716h.736v.716h-.736v-.861ZM0-6.885V-7.6h.737v.715H0v.86-.714h.737v.715H0v-.86Zm0 1.721v-.715h.737v.715H0v.86-.715h.737v.716H0v-.86Zm0 1.721v-.715h.737v.715H0v.861-.716h.737v.716H0v-.86ZM0-1.72v-.716h.737v.716H0v.86-.715h.737v.715H0v-.86Zm0 1.72v-.715h.737V0H0v-8.868h.737v.715H0V0Zm0-12.825v-.716h.737v.716H0v.86-.715h.737v.715H0v-.86Zm0 1.721v-.716h.737v.716H0v1.232-.716h.737v.716H0v-1.232Zm0 2.092v-.716h.737v.716H0Z"/></defs></g></g><g stroke-width=".26" stroke="#000" stroke-miterlimit="2" transform="matrix(-3.84 0 0 -3.84 373.92 392.37)"><use fill-rule="evenodd" stroke="none" xlinkHref="#mfid68"/><defs><path id="mfid69" d="M9.921-2.193h8.78L16.771 0h-13.7l-1.93-2.193h8.78Z"/></defs></g><g stroke="#000" stroke-miterlimit="2"><g stroke-width=".26" transform="rotate(90 2.75 383.23) scale(3.84)"><use fill-rule="evenodd" stroke="none" xlinkHref="#mfid69"/><defs><path id="mfid70" d="M9.921-2.193h8.78L16.771 0h-13.7l-1.93-2.193h8.78Zm9.922-.444H0"/></defs></g><use stroke-width=".13" transform="rotate(90 2.75 383.23) scale(3.84)" xlinkHref="#mfid70"/></g><g stroke="#000"><g stroke-width=".13" stroke-miterlimit="2" transform="matrix(3.84 0 0 3.84 345.6 546.51)"><path stroke="none" d="M0-1.968h31.496V0H0z"/><defs><path id="mfid71" d="M0 0h31.496v-1.968H0V0Z"/></defs></g><g stroke-width=".083" stroke-linecap="round" stroke-linejoin="round" transform="matrix(3.84 0 0 3.84 345.6 546.51)"><use xlinkHref="#mfid71"/><defs><path id="mfid72" d="M0-62.3c0-.382.278-.692.622-.692h30.252c.344 0 .622.31.622.692V-.692c0 .382-.279.692-.622.692H.622C.278 0 0-.31 0-.692V-62.3Z"/></defs></g></g><g stroke="#000"><g stroke-width=".083" stroke-linecap="round" stroke-linejoin="round" transform="matrix(-3.84 0 0 -3.84 584.89 296.3)"><use fill-rule="evenodd" stroke="none" xlinkHref="#mfid72"/><defs><path id="mfid73" d="M0-62.3c0-.382.278-.692.622-.692h30.252c.344 0 .622.31.622.692V-.692c0 .382-.279.692-.622.692H.622C.278 0 0-.31 0-.692V-62.3Z"/></defs></g><g stroke-width=".26" stroke-miterlimit="2" transform="matrix(-3.84 0 0 -3.84 584.89 296.3)"><use xlinkHref="#mfid73"/><defs><path id="mfid74" d="M4.252-2.126a2.126 2.126 0 1 0-4.252 0 2.126 2.126 0 0 0 4.252 0Z"/></defs></g></g><g stroke-width=".26" stroke="#000" stroke-miterlimit="2" transform="rotate(180 281.71 250.2) scale(3.84)"><use fill-rule="evenodd" stroke="none" xlinkHref="#mfid74"/><defs><path id="mfid75" d="M2.953-1.476a1.476 1.476 0 1 0-2.953 0 1.476 1.476 0 0 0 2.953 0Z"/></defs></g><use fill-rule="evenodd" stroke="none" stroke-width=".26" stroke-miterlimit="2" transform="matrix(-3.84 0 0 -3.84 560.93 502.89)" xlinkHref="#mfid75"/></g><g mask="url(#mfid5)"><text stroke="none" x="0,16" transform="translate(517.1 348.39)" font-family="'Calibri',swiss,sans-serif" font-weight="400" font-size="32" stroke-miterlimit="10">1</text></g><defs><path id="mfid76" d="M6.272 0c7.567 0 6.44-5 6.44-5l-.71-4.976c-.311-2.836-2.798-2.831-2.798-2.831H4.068C.908-12.325.73-9.532.73-9.532.635-8.728.032-4.593.032-4.593-.27-1.88 1.651-.803 1.651-.803 3.067 0 6.27 0 6.27 0ZM1.746-19.603s2.226-.24 5.005-.24 4.365.24 4.365.24c2.125.261 1.514 2.344 1.514 2.344-.023.224-.354 1.71-.449 1.983-.245.711-.704 1.193-1.333 1.455-.456.191-.93.322-1.418.323H3.432c-.489-.001-.962-.132-1.418-.323-.629-.262-1.087-.744-1.333-1.455-.095-.273-.426-1.759-.45-1.983 0 0-.61-2.083 1.515-2.344Z"/></defs><g mask="url(#mfid4)"><g stroke-width=".26" stroke="#000"><g stroke-miterlimit="2" transform="rotate(90.888 103.275 486.302) scale(3.83996)"><use fill-rule="evenodd" stroke="none" xlinkHref="#mfid76"/><defs><path id="mfid77" d="M6.272 0c7.567 0 6.44-5 6.44-5l-.71-4.976c-.311-2.836-2.798-2.831-2.798-2.831H4.068C.908-12.325.73-9.532.73-9.532.635-8.728.032-4.593.032-4.593-.27-1.88 1.651-.803 1.651-.803 3.067 0 6.27 0 6.27 0ZM1.746-19.603s2.226-.24 5.005-.24 4.365.24 4.365.24c2.125.261 1.514 2.344 1.514 2.344-.023.224-.354 1.71-.449 1.983-.245.711-.704 1.193-1.333 1.455-.456.191-.93.322-1.418.323H3.432c-.489-.001-.962-.132-1.418-.323-.629-.262-1.087-.744-1.333-1.455-.095-.273-.426-1.759-.45-1.983 0 0-.61-2.083 1.515-2.344Z"/></defs></g><g stroke-linecap="round" stroke-linejoin="round" transform="rotate(90.888 103.275 486.302) scale(3.83996)"><use xlinkHref="#mfid77"/><defs><path id="mfid78" d="M5.473-14.961s2.23-.205 5.008-.162c2.778.043 4.361.307 4.361.307.998.139 1.383.671 1.513 1.197.087-.356.398-2.038-1.496-2.301 0 0-1.583-.264-4.361-.307-2.778-.043-5.008.162-5.008.162-1.902.204-1.643 1.895-1.566 2.253.145-.521.547-1.041 1.549-1.149ZM19.837-1.755 18.405-7.21c-.475-1.685-1.245-1.585-1.551-1.53-.797.143-.682.892-.619 1.889l.67 5.324c.153.887.753 1.587 1.562 1.524.81-.063 1.424-.846 1.37-1.75ZM.007-2.062l1.601-5.41c.527-1.67 1.294-1.545 1.598-1.481.792.167.654.913.56 1.908l-.835 5.3C2.751-.862 2.13-.182 1.322-.27.515-.357-.074-1.16.008-2.062Zm3.937-1.496-.725-.011.262-1.67.718.033-.255 1.648ZM9.247-9.21l1.643.026.011-.691-1.643-.026-.01.691Zm6.702 5.838.725.011-.211-1.677-.717.011.203 1.655Z"/></defs></g></g><g stroke-width=".26" stroke="#000" stroke-linecap="round" stroke-linejoin="round" transform="matrix(0 3.84 -3.84 0 604.6 377.37)"><use fill-rule="evenodd" stroke="none" xlinkHref="#mfid78"/><defs><path id="mfid79" d="M5.473-14.961s2.23-.205 5.008-.162c2.778.043 4.361.307 4.361.307.998.139 1.383.671 1.513 1.197.087-.356.398-2.038-1.496-2.301 0 0-1.583-.264-4.361-.307-2.778-.043-5.008.162-5.008.162-1.902.204-1.643 1.895-1.566 2.253.145-.521.547-1.041 1.549-1.149ZM19.837-1.755 18.405-7.21c-.475-1.685-1.245-1.585-1.551-1.53-.797.143-.682.892-.619 1.889l.67 5.324c.153.887.753 1.587 1.562 1.524.81-.063 1.424-.846 1.37-1.75ZM.007-2.062l1.601-5.41c.527-1.67 1.294-1.545 1.598-1.481.792.167.654.913.56 1.908l-.835 5.3C2.751-.862 2.13-.182 1.322-.27.515-.357-.074-1.16.008-2.062Zm3.937-1.496-.725-.011.262-1.67.718.033-.255 1.648ZM9.247-9.21l1.643.026.011-.691-1.643-.026-.01.691Zm6.702 5.838.725.011-.211-1.677-.717.011.203 1.655Z"/></defs><use xlinkHref="#mfid79"/><defs><path id="mfid80" d="M10.247-17.081H5.894a.22.22 0 0 0-.224.218v13.994c0 .12.101.218.224.218h4.352a.22.22 0 0 0 .224-.218v-13.994a.22.22 0 0 0-.223-.218Zm-6.734 4.145v-.021h.69c.325 0 .589.311.589.695v4.694c0 .384-.264.696-.59.696h-.689v-6.064Zm0 0v10.098L.577 0 0-.211v-19.421l.577-.211 2.936 2.839v4.068Z"/></defs></g><g stroke-width=".26" stroke="#000"><g stroke-linecap="round" stroke-linejoin="round" transform="matrix(3.84 0 0 3.84 531.64 454.01)"><use fill-rule="evenodd" stroke="none" xlinkHref="#mfid80"/><defs><path id="mfid81" d="M10.247-17.081H5.894a.22.22 0 0 0-.224.218v13.994c0 .12.101.218.224.218h4.352a.22.22 0 0 0 .224-.218v-13.994a.22.22 0 0 0-.223-.218Zm-6.734 4.145v-.021h.69c.325 0 .589.311.589.695v4.694c0 .384-.264.696-.59.696h-.689v-6.064Zm0 0v10.098L.577 0 0-.211v-19.421l.577-.211 2.936 2.839v4.068Z"/></defs></g><g stroke-miterlimit="2" transform="matrix(3.84 0 0 3.84 531.64 454.01)"><use xlinkHref="#mfid81"/><defs><path id="mfid82" d="M2.926-12.826v-.716h.736v.716h-.736v.86-.715h.736v.715h-.736v-.86Zm0 1.721v-.716h.736v.716h-.736v1.232-.716h.736v.716h-.736v-1.232Zm0 2.092v-.716h.736v.716h-.736v.86-.715h.736v.715h-.736v-.86Zm0 2.128V-7.6h.736v.715h-.736v.86-.714h.736v.715h-.736v-.86Zm0 5.164V-5.88h.736v4.158h-.736v.86-.715h.736v.715h-.736v-.86Zm0 1.72v-.715h.736V0h-.736L2.04-9.013v-.716h.736v.716H2.04L2.926 0ZM2.04-6.023V-7.6h.736v1.576H2.04v.86-.715h.736v.715H2.04v-.86Zm0-5.081v-.716h.736v.716H2.04V-13.542h.736v.716H2.04v1.721Zm0-.861v-.715h.736v.715H2.04v7.663-.716h.737v.716H2.04v-7.663Zm0 8.523v-.715h.736v.715H2.04v.861-.716h.737v.716H2.04v-.86Zm0 1.722v-.716h.736v.716H2.04V0v-1.576h.737V0H2.04v-1.721Zm-.886-5.164V-7.6h.736v.715h-.736v.86-.714h.736v.715h-.736v-.86Zm0 1.721v-.715h.736v.715h-.736v.86-.715h.737v.716h-.737v-.86Zm0 1.721v-.715h.737v.715h-.737v.861-.716h.737v.716h-.737v-.86Zm0 1.722v-.716h.737v.716h-.737v.86-.715h.737v.715h-.737v-.86Zm0 1.72v-.715h.737V0h-.737v-13.542h.736v.716h-.736V0Zm0-11.965v-.715h.736v.715h-.736v.861-.716h.736v.716h-.736v-.861ZM0-6.885V-7.6h.737v.715H0v.86-.714h.737v.715H0v-.86Zm0 1.721v-.715h.737v.715H0v.86-.715h.737v.716H0v-.86Zm0 1.721v-.715h.737v.715H0v.861-.716h.737v.716H0v-.86ZM0-1.72v-.716h.737v.716H0v.86-.715h.737v.715H0v-.86Zm0 1.72v-.715h.737V0H0v-8.868h.737v.715H0V0Zm0-12.825v-.716h.737v.716H0v.86-.715h.737v.715H0v-.86Zm0 1.721v-.716h.737v.716H0v1.232-.716h.737v.716H0v-1.232Zm0 2.092v-.716h.737v.716H0Z"/></defs></g></g><g stroke-width=".26" stroke="#000" stroke-miterlimit="2" transform="matrix(3.84 0 0 3.84 556.02 442.13)"><use fill-rule="evenodd" stroke="none" xlinkHref="#mfid82"/><defs><path id="mfid83" d="M9.921-2.193h8.78L16.771 0h-13.7l-1.93-2.193h8.78Z"/></defs></g><g stroke="#000" stroke-miterlimit="2"><g stroke-width=".26" transform="matrix(0 -3.84 3.84 0 543.96 454.02)"><use fill-rule="evenodd" stroke="none" xlinkHref="#mfid83"/><defs><path id="mfid84" d="M9.921-2.193h8.78L16.771 0h-13.7l-1.93-2.193h8.78Zm9.922-.444H0"/></defs></g><g stroke-width=".13" transform="matrix(0 -3.84 3.84 0 543.96 454.02)"><use xlinkHref="#mfid84"/><defs><path id="mfid85" d="M0-62.3c0-.382.278-.692.622-.692h30.252c.344 0 .622.31.622.692V-.692c0 .382-.279.692-.622.692H.622C.278 0 0-.31 0-.692V-62.3Z"/></defs></g></g><g stroke="#000" stroke-miterlimit="2"><g stroke-width=".13" transform="matrix(-3.84 0 0 -3.84 585.09 547.26)"><use fill-rule="evenodd" stroke="none" xlinkHref="#mfid85"/><defs><path id="mfid86" d="M0-62.3c0-.382.278-.692.622-.692h30.252c.344 0 .622.31.622.692V-.692c0 .382-.279.692-.622.692H.622C.278 0 0-.31 0-.692V-62.3Z"/></defs></g><g stroke-width=".26" transform="matrix(-3.84 0 0 -3.84 585.09 547.26)"><use xlinkHref="#mfid86"/><defs><path id="mfid87" d="M4.252-2.126a2.126 2.126 0 1 0-4.252 0 2.126 2.126 0 0 0 4.252 0Z"/></defs></g></g><g stroke-width=".26" stroke="#000" stroke-miterlimit="2" transform="rotate(180 281.81 375.68) scale(3.84)"><use fill-rule="evenodd" stroke="none" xlinkHref="#mfid87"/><defs><path id="mfid88" d="M2.953-1.476a1.476 1.476 0 1 0-2.953 0 1.476 1.476 0 0 0 2.953 0Z"/></defs></g><use fill-rule="evenodd" stroke="none" stroke-width=".26" stroke-miterlimit="2" transform="matrix(-3.84 0 0 -3.84 561.13 753.85)" xlinkHref="#mfid88"/></g><g mask="url(#mfid5)"><text stroke="none" x="0,16" transform="translate(517.1 591.8)" font-family="'Calibri',swiss,sans-serif" font-weight="400" font-size="32" stroke-miterlimit="10">2</text></g><defs><path id="mfid89" d="M6.272 0c7.567 0 6.44-5 6.44-5l-.71-4.976c-.311-2.836-2.798-2.831-2.798-2.831H4.068C.908-12.325.73-9.532.73-9.532.635-8.728.032-4.593.032-4.593-.27-1.88 1.651-.803 1.651-.803 3.067 0 6.27 0 6.27 0ZM1.746-19.603s2.226-.24 5.005-.24 4.365.24 4.365.24c2.125.261 1.514 2.344 1.514 2.344-.023.224-.354 1.71-.449 1.983-.245.711-.704 1.193-1.333 1.455-.456.191-.93.322-1.418.323H3.432c-.489-.001-.962-.132-1.418-.323-.629-.262-1.087-.744-1.333-1.455-.095-.273-.426-1.759-.45-1.983 0 0-.61-2.083 1.515-2.344Z"/></defs><g mask="url(#mfid4)"><g stroke-width=".26" stroke="#000"><g stroke-miterlimit="2" transform="rotate(90.888 -20.17 611.886) scale(3.83996)"><use fill-rule="evenodd" stroke="none" xlinkHref="#mfid89"/><defs><path id="mfid90" d="M6.272 0c7.567 0 6.44-5 6.44-5l-.71-4.976c-.311-2.836-2.798-2.831-2.798-2.831H4.068C.908-12.325.73-9.532.73-9.532.635-8.728.032-4.593.032-4.593-.27-1.88 1.651-.803 1.651-.803 3.067 0 6.27 0 6.27 0ZM1.746-19.603s2.226-.24 5.005-.24 4.365.24 4.365.24c2.125.261 1.514 2.344 1.514 2.344-.023.224-.354 1.71-.449 1.983-.245.711-.704 1.193-1.333 1.455-.456.191-.93.322-1.418.323H3.432c-.489-.001-.962-.132-1.418-.323-.629-.262-1.087-.744-1.333-1.455-.095-.273-.426-1.759-.45-1.983 0 0-.61-2.083 1.515-2.344Z"/></defs></g><g stroke-linecap="round" stroke-linejoin="round" transform="rotate(90.888 -20.17 611.886) scale(3.83996)"><use xlinkHref="#mfid90"/><defs><path id="mfid91" d="M5.473-14.961s2.23-.205 5.008-.162c2.778.043 4.361.307 4.361.307.998.139 1.383.671 1.513 1.197.087-.356.398-2.038-1.496-2.301 0 0-1.583-.264-4.361-.307-2.778-.043-5.008.162-5.008.162-1.902.204-1.643 1.895-1.566 2.253.145-.521.547-1.041 1.549-1.149ZM19.837-1.755 18.405-7.21c-.475-1.685-1.245-1.585-1.551-1.53-.797.143-.682.892-.619 1.889l.67 5.324c.153.887.753 1.587 1.562 1.524.81-.063 1.424-.846 1.37-1.75ZM.007-2.062l1.601-5.41c.527-1.67 1.294-1.545 1.598-1.481.792.167.654.913.56 1.908l-.835 5.3C2.751-.862 2.13-.182 1.322-.27.515-.357-.074-1.16.008-2.062Zm3.937-1.496-.725-.011.262-1.67.718.033-.255 1.648ZM9.247-9.21l1.643.026.011-.691-1.643-.026-.01.691Zm6.702 5.838.725.011-.211-1.677-.717.011.203 1.655Z"/></defs></g></g><g stroke-width=".26" stroke="#000" stroke-linecap="round" stroke-linejoin="round" transform="matrix(0 3.84 -3.84 0 604.8 628.33)"><use fill-rule="evenodd" stroke="none" xlinkHref="#mfid91"/><defs><path id="mfid92" d="M5.473-14.961s2.23-.205 5.008-.162c2.778.043 4.361.307 4.361.307.998.139 1.383.671 1.513 1.197.087-.356.398-2.038-1.496-2.301 0 0-1.583-.264-4.361-.307-2.778-.043-5.008.162-5.008.162-1.902.204-1.643 1.895-1.566 2.253.145-.521.547-1.041 1.549-1.149ZM19.837-1.755 18.405-7.21c-.475-1.685-1.245-1.585-1.551-1.53-.797.143-.682.892-.619 1.889l.67 5.324c.153.887.753 1.587 1.562 1.524.81-.063 1.424-.846 1.37-1.75ZM.007-2.062l1.601-5.41c.527-1.67 1.294-1.545 1.598-1.481.792.167.654.913.56 1.908l-.835 5.3C2.751-.862 2.13-.182 1.322-.27.515-.357-.074-1.16.008-2.062Zm3.937-1.496-.725-.011.262-1.67.718.033-.255 1.648ZM9.247-9.21l1.643.026.011-.691-1.643-.026-.01.691Zm6.702 5.838.725.011-.211-1.677-.717.011.203 1.655Z"/></defs><use xlinkHref="#mfid92"/><defs><path id="mfid93" d="M10.247-17.081H5.894a.22.22 0 0 0-.224.218v13.994c0 .12.101.218.224.218h4.352a.22.22 0 0 0 .224-.218v-13.994a.22.22 0 0 0-.223-.218Zm-6.734 4.145v-.021h.69c.325 0 .589.311.589.695v4.694c0 .384-.264.696-.59.696h-.689v-6.064Zm0 0v10.098L.577 0 0-.211v-19.421l.577-.211 2.936 2.839v4.068Z"/></defs></g><g stroke-width=".26" stroke="#000"><g stroke-linecap="round" stroke-linejoin="round" transform="matrix(3.84 0 0 3.84 531.84 704.97)"><use fill-rule="evenodd" stroke="none" xlinkHref="#mfid93"/><defs><path id="mfid94" d="M10.247-17.081H5.894a.22.22 0 0 0-.224.218v13.994c0 .12.101.218.224.218h4.352a.22.22 0 0 0 .224-.218v-13.994a.22.22 0 0 0-.223-.218Zm-6.734 4.145v-.021h.69c.325 0 .589.311.589.695v4.694c0 .384-.264.696-.59.696h-.689v-6.064Zm0 0v10.098L.577 0 0-.211v-19.421l.577-.211 2.936 2.839v4.068Z"/></defs></g><g stroke-miterlimit="2" transform="matrix(3.84 0 0 3.84 531.84 704.97)"><use xlinkHref="#mfid94"/><defs><path id="mfid95" d="M2.926-12.826v-.716h.736v.716h-.736v.86-.715h.736v.715h-.736v-.86Zm0 1.721v-.716h.736v.716h-.736v1.232-.716h.736v.716h-.736v-1.232Zm0 2.092v-.716h.736v.716h-.736v.86-.715h.736v.715h-.736v-.86Zm0 2.128V-7.6h.736v.715h-.736v.86-.714h.736v.715h-.736v-.86Zm0 5.164V-5.88h.736v4.158h-.736v.86-.715h.736v.715h-.736v-.86Zm0 1.72v-.715h.736V0h-.736L2.04-9.013v-.716h.736v.716H2.04L2.926 0ZM2.04-6.023V-7.6h.736v1.576H2.04v.86-.715h.736v.715H2.04v-.86Zm0-5.081v-.716h.736v.716H2.04V-13.542h.736v.716H2.04v1.721Zm0-.861v-.715h.736v.715H2.04v7.663-.716h.737v.716H2.04v-7.663Zm0 8.523v-.715h.736v.715H2.04v.861-.716h.737v.716H2.04v-.86Zm0 1.722v-.716h.736v.716H2.04V0v-1.576h.737V0H2.04v-1.721Zm-.886-5.164V-7.6h.736v.715h-.736v.86-.714h.736v.715h-.736v-.86Zm0 1.721v-.715h.736v.715h-.736v.86-.715h.737v.716h-.737v-.86Zm0 1.721v-.715h.737v.715h-.737v.861-.716h.737v.716h-.737v-.86Zm0 1.722v-.716h.737v.716h-.737v.86-.715h.737v.715h-.737v-.86Zm0 1.72v-.715h.737V0h-.737v-13.542h.736v.716h-.736V0Zm0-11.965v-.715h.736v.715h-.736v.861-.716h.736v.716h-.736v-.861ZM0-6.885V-7.6h.737v.715H0v.86-.714h.737v.715H0v-.86Zm0 1.721v-.715h.737v.715H0v.86-.715h.737v.716H0v-.86Zm0 1.721v-.715h.737v.715H0v.861-.716h.737v.716H0v-.86ZM0-1.72v-.716h.737v.716H0v.86-.715h.737v.715H0v-.86Zm0 1.72v-.715h.737V0H0v-8.868h.737v.715H0V0Zm0-12.825v-.716h.737v.716H0v.86-.715h.737v.715H0v-.86Zm0 1.721v-.716h.737v.716H0v1.232-.716h.737v.716H0v-1.232Zm0 2.092v-.716h.737v.716H0Z"/></defs></g></g><g stroke-width=".26" stroke="#000" stroke-miterlimit="2" transform="matrix(3.84 0 0 3.84 556.22 693.09)"><use fill-rule="evenodd" stroke="none" xlinkHref="#mfid95"/><defs><path id="mfid96" d="M9.921-2.193h8.78L16.771 0h-13.7l-1.93-2.193h8.78Z"/></defs></g><g stroke="#000" stroke-miterlimit="2"><g stroke-width=".26" transform="rotate(-90 624.57 80.41) scale(3.84)"><use fill-rule="evenodd" stroke="none" xlinkHref="#mfid96"/><defs><path id="mfid97" d="M9.921-2.193h8.78L16.771 0h-13.7l-1.93-2.193h8.78Zm9.922-.444H0"/></defs></g><use stroke-width=".13" transform="rotate(-90 624.57 80.41) scale(3.84)" xlinkHref="#mfid97"/></g><g stroke="#000"><g stroke-width=".13" stroke-miterlimit="2" transform="matrix(3.84 0 0 3.84 464.15 546.03)"><path stroke="none" d="M0-1.968h31.496V0H0z"/><defs><path id="mfid98" d="M0 0h31.496v-1.968H0V0Z"/></defs></g><use stroke-width=".083" stroke-linecap="round" stroke-linejoin="round" transform="matrix(3.84 0 0 3.84 464.15 546.03)" xlinkHref="#mfid98"/></g></g></g></svg></switch><path class="st1" d="M0 54.775h624.501v639.014H0z"/><text x="309.21" y="708.59" class="st2">1</text></g></svg>