<svg xmlns="http://www.w3.org/2000/svg" width="528.521" height="818.315" viewBox="0 0 396.391 613.736" color-interpolation-filters="sRGB" class="st14" fill="none"><g id="group630-1" transform="rotate(-90 116.045 377.645)"><g id="group631-2" transform="translate(0 -307.88)"><g id="shape632-3"><path d="M-4.25 609.48h457.94l-4.26 4.26H0l-4.25-4.26Z" class="st1"/></g><g id="shape633-6" transform="rotate(-135 0 613.735)"><path class="st2" d="M0 613.311h6.013v.425H0z"/></g><g id="shape634-8" transform="rotate(135 227.723 705.57)"><path class="st2" d="M0 613.311h6.013v.425H0z"/></g><g id="shape636-12"><path d="M-4.25 609.48h457.94M0 613.74h449.43" class="st3"/></g></g><g id="group638-18" transform="rotate(90 378.657 684.513)"><g id="shape639-19"><path d="M-4.25 609.48h316.38l-4.25 4.26H0l-4.25-4.26Z" class="st1"/></g><g id="shape640-22" transform="rotate(-135 0 613.735)"><path class="st2" d="M0 613.311h6.013v.425H0z"/></g><g id="shape641-24" transform="rotate(135 156.947 676.254)"><path class="st2" d="M0 613.311h6.013v.425H0z"/></g><g id="shape643-28"><path d="M-4.25 609.48h316.38M0 613.74h307.88" class="st3"/></g></g><g id="group645-34" transform="rotate(180 224.716 613.735)"><g id="shape646-35"><path d="M-4.25 609.48h457.94l-4.26 4.26H0l-4.25-4.26Z" class="st1"/></g><g id="shape647-38" transform="rotate(-135 0 613.735)"><path class="st2" d="M0 613.311h6.013v.425H0z"/></g><g id="shape648-40" transform="rotate(135 227.723 705.57)"><path class="st2" d="M0 613.311h6.013v.425H0z"/></g><g id="shape650-44"><path d="M-4.25 609.48h457.94M0 613.74h449.43" class="st3"/></g></g><g id="group652-50" transform="rotate(-90 0 613.736)"><g id="shape653-51"><path d="M-4.25 609.48h316.38l-4.25 4.26H0l-4.25-4.26Z" class="st1"/></g><g id="shape654-54" transform="rotate(-135 0 613.735)"><path class="st2" d="M0 613.311h6.013v.425H0z"/></g><g id="shape655-56" transform="rotate(135 156.947 676.254)"><path class="st2" d="M0 613.311h6.013v.425H0z"/></g><g id="shape657-60"><path d="M-4.25 609.48h316.38M0 613.74h307.88" class="st3"/></g></g></g><g id="group963-66" transform="rotate(-90 9.761 381.547)"><g id="shape964-67"><path d="m327.21 613.74 9.29-4.93v-79.94l-9.29-4.92H9.29L0 528.87v79.94l9.29 4.93h317.92Z" class="st4"/><path d="M168.25 523.95v89.79M327.21 613.74l9.29-4.93v-79.94l-9.29-4.92H9.29L0 528.87v79.94l9.29 4.93h317.92" class="st5"/></g><g id="shape965-71"><path d="M334.18 607.58V530.1l-9.29-4.92H11.61l-9.29 4.92v77.48l9.29 4.92h313.28l9.29-4.92Zm-6.97-83.63 9.29 4.92v79.94l-9.29 4.93H9.29L0 608.81v-79.94l9.29-4.92h317.92Z" class="st6"/></g><g id="shape966-73" transform="translate(23.221 -12.307)"><path d="m285.42 551.57 4.64-2.48v64.12l-4.64-2.47v-59.17Zm-.63 59.7 4.61 2.47H.66l4.61-2.47h279.52Zm-280.15-.53L0 613.21v-64.12l4.64 2.47v59.18ZM.66 548.56H289.4l-4.61 2.47H5.27l-4.61-2.47Z" class="st7"/></g><g id="shape967-75"><path d="m327.21 613.74 9.29-4.93v-79.94l-9.29-4.92H9.29L0 528.87v79.94l9.29 4.93h317.92Z" class="st8"/></g></g><g id="group968-77" transform="translate(105.405 -499.741)"><g id="shape969-78"><rect y="576.404" width="37.332" height="37.332" rx="3" ry="3" class="st9"/></g><g id="shape970-80"><rect y="576.404" width="6.944" height="37.332" rx="3" ry="3" class="st9"/></g></g><g id="group971-82" transform="translate(105.405 -439.518)"><g id="shape972-83"><rect y="576.404" width="37.332" height="37.332" rx="3" ry="3" class="st9"/></g><g id="shape973-85"><rect y="576.404" width="6.944" height="37.332" rx="3" ry="3" class="st9"/></g></g><g id="group974-87" transform="translate(105.405 -378.333)"><g id="shape975-88"><rect y="576.404" width="37.332" height="37.332" rx="3" ry="3" class="st9"/></g><g id="shape976-90"><rect y="576.404" width="6.944" height="37.332" rx="3" ry="3" class="st9"/></g></g><g id="group977-92" transform="translate(105.405 -317.147)"><g id="shape978-93"><rect y="576.404" width="37.332" height="37.332" rx="3" ry="3" class="st9"/></g><g id="shape979-95"><rect y="576.404" width="6.944" height="37.332" rx="3" ry="3" class="st9"/></g></g><g id="group980-97" transform="translate(105.405 -255.962)"><g id="shape981-98"><rect y="576.404" width="37.332" height="37.332" rx="3" ry="3" class="st9"/></g><g id="shape982-100"><rect y="576.404" width="6.944" height="37.332" rx="3" ry="3" class="st9"/></g></g><g id="group983-102" transform="rotate(179.9 143.99 467.199)"><g id="shape984-103"><rect y="576.404" width="37.332" height="37.332" rx="3" ry="3" class="st9"/></g><g id="shape985-105"><rect y="576.404" width="6.944" height="37.332" rx="3" ry="3" class="st9"/></g></g><g id="group986-107" transform="rotate(179.9 143.964 437.087)"><g id="shape987-108"><rect y="576.404" width="37.332" height="37.332" rx="3" ry="3" class="st9"/></g><g id="shape988-110"><rect y="576.404" width="6.944" height="37.332" rx="3" ry="3" class="st9"/></g></g><g id="group989-112" transform="rotate(179.9 143.937 406.494)"><g id="shape990-113"><rect y="576.404" width="37.332" height="37.332" rx="3" ry="3" class="st9"/></g><g id="shape991-115"><rect y="576.404" width="6.944" height="37.332" rx="3" ry="3" class="st9"/></g></g><g id="group992-117" transform="rotate(179.9 143.91 375.901)"><g id="shape993-118"><rect y="576.404" width="37.332" height="37.332" rx="3" ry="3" class="st9"/></g><g id="shape994-120"><rect y="576.404" width="6.944" height="37.332" rx="3" ry="3" class="st9"/></g></g><g id="group995-122" transform="rotate(179.9 143.884 345.308)"><g id="shape996-123"><rect y="576.404" width="37.332" height="37.332" rx="3" ry="3" class="st9"/></g><g id="shape997-125"><rect y="576.404" width="6.944" height="37.332" rx="3" ry="3" class="st9"/></g></g><g id="group840-127" transform="matrix(1 0 0 -1 138.828 1107.42)"><g id="shape841-128"><path d="M-1.42 613.88H99.21v-4.54H-1.42v4.54Z" class="st10"/></g><g id="shape845-136" transform="translate(-1.417)"><path d="M100.63 613.74v-4.26h-1.42v4.26h1.42ZM0 613.74v-4.26h1.42v4.26H0Z" class="st11"/><path d="M100.63 613.74v-4.26h-1.42v1.42m0 1.42v1.42h1.42M0 613.74v-4.26h1.42v1.42m0 1.42v1.42H0" class="st12"/></g><g id="shape846-139" transform="translate(0 -1.417)"><path d="M97.8 612.32h-.57v1.42h.57v-1.42Zm-97.8 0h.57v1.42H0v-1.42Z" class="st11"/><path d="M97.8 612.32h-.57v1.42h.57M0 612.32h.57v1.42H0" class="st12"/></g><g id="shape847-142" transform="translate(-1.417)"><path d="M100.63 613.74v-4.26M0 613.74v-4.26" class="st12"/></g><g id="shape848-146" transform="translate(0 -4.252)"><path d="M0 613.74a97.795 97.795 0 0 1 25.43-65.79" class="st12"/></g><g id="shape849-149" transform="rotate(42.274 101.461 610.902)"><path class="st9" d="M0 612.319h97.795v1.417H0z"/></g><g id="shape851-153" transform="rotate(-42.274 94.13 612.319)"><path class="st13" d="M0 612.319h97.795v1.417H0z"/></g></g></svg>