<svg xmlns="http://www.w3.org/2000/svg" width="1272.451" height="1641.456" viewBox="0 0 954.339 1231.09" color-interpolation-filters="sRGB" class="st2" fill="none"><g id="shape1-1" transform="translate(.375 -.375)"><path class="st1" d="M0 .75h953.589v1230.34H0z"/><switch><svg viewBox="0 0 889.02 1147" height="1230.34" preserveAspectRatio="none" width="953.589" y=".75"><clipPath id="mfid1"><path id="mfid2" d="M0 0h889.02v1147H0z"/></clipPath><g clip-path="url(#mfid1)"><mask id="mfid3"><path d="M0 0h890v1148H0z"/></mask><mask id="mfid4" stroke="none"><g mask="url(#mfid3)"><use xlinkHref="#mfid2"/></g></mask><mask id="mfid5" fill-rule="evenodd" stroke="none"><path d="M0 0h890v1148H0z"/></mask><defs><path id="mfid6" d="M0-3.937h252.36L248.43 0H3.937L0-3.937Z"/></defs><g mask="url(#mfid4)"><g><g transform="matrix(2.88 0 0 2.88 109.97 64.796)"><use fill-rule="evenodd" xlinkHref="#mfid6"/><defs><path id="mfid7" d="M0-3.937h252.36M3.937 0H248.43"/></defs></g><g stroke-width=".167" stroke="#000" stroke-linecap="round" stroke-linejoin="round" transform="matrix(2.88 0 0 2.88 109.97 64.796)"><use xlinkHref="#mfid7"/><defs><path id="mfid8" d="M0-3.937h353.85L357.79 0H-3.937L0-3.937Z"/></defs></g></g><g stroke-width=".167" stroke="#000" stroke-linecap="round" stroke-linejoin="round" transform="rotate(90 22.587 87.383) scale(2.88)"><use fill-rule="evenodd" stroke="none" xlinkHref="#mfid8"/><defs><path id="mfid9" d="M0-3.937h353.85M-3.937 0H357.79"/></defs><use xlinkHref="#mfid9"/><defs><path id="mfid10" d="M0 0h31.496v-62.992H0V0Z"/></defs></g><g stroke-width=".167" stroke="#000" stroke-linecap="round" stroke-linejoin="round" transform="matrix(0 2.88 2.88 0 824.26 79.428)"><use fill-rule="evenodd" stroke="none" xlinkHref="#mfid10"/><use xlinkHref="#mfid10"/><defs><path id="mfid11" d="M3.99-15.889c-.194 2.7-.198 5.41-.011 8.111a10.297 10.297 0 0 0 4.877 4.825h6.405a1.475 1.475 0 0 1 1.389.97h1.072a5.904 5.904 0 0 0 5.9-5.908v-7.873a5.9 5.9 0 0 0-5.9-5.901l-1.075.001a1.479 1.479 0 0 1-1.395.997H8.806a10.297 10.297 0 0 0-4.816 4.778Zm-.048 4.082a20.996 20.996 0 0 1 .513-6.889 1.1 1.1 0 0 0-1.478-1.476A11.263 11.263 0 0 0 .03-11.805a11.046 11.046 0 0 0 2.948 8.363A1.109 1.109 0 0 0 4.455-4.92a20.395 20.395 0 0 1-.513-6.888ZM16.738-1.481c0-.816-.662-1.477-1.477-1.476H6.405c-.815 0-1.475.661-1.474 1.476A1.478 1.478 0 0 0 6.405 0h8.856a1.479 1.479 0 0 0 1.477-1.481Zm-.011-20.666a1.47 1.47 0 0 0-1.466-1.475H6.405a1.483 1.483 0 0 0-1.485 1.481 1.48 1.48 0 0 0 1.485 1.476h8.856a1.47 1.47 0 0 0 1.466-1.476v-.006Z"/></defs></g><g stroke-width=".167" stroke="#000" stroke-linecap="round" stroke-linejoin="round" transform="matrix(0 -2.88 -2.88 0 702.1 246.21)"><use fill-rule="evenodd" stroke="none" xlinkHref="#mfid11"/><defs><path id="mfid12" d="M3.99-15.889c-.194 2.7-.198 5.41-.011 8.111a10.297 10.297 0 0 0 4.877 4.825h6.405a1.475 1.475 0 0 1 1.389.97h1.072a5.904 5.904 0 0 0 5.9-5.908v-7.873a5.9 5.9 0 0 0-5.9-5.901l-1.075.001a1.479 1.479 0 0 1-1.395.997H8.806a10.297 10.297 0 0 0-4.816 4.778Zm-.048 4.082a20.996 20.996 0 0 1 .513-6.889 1.1 1.1 0 0 0-1.478-1.476A11.263 11.263 0 0 0 .03-11.805a11.046 11.046 0 0 0 2.948 8.363A1.109 1.109 0 0 0 4.455-4.92a20.395 20.395 0 0 1-.513-6.888ZM16.738-1.481c0-.816-.662-1.477-1.477-1.476H6.405c-.815 0-1.475.661-1.474 1.476A1.478 1.478 0 0 0 6.405 0h8.856a1.479 1.479 0 0 0 1.477-1.481Zm-.011-20.666a1.47 1.47 0 0 0-1.466-1.475H6.405a1.483 1.483 0 0 0-1.485 1.481 1.48 1.48 0 0 0 1.485 1.476h8.856a1.47 1.47 0 0 0 1.466-1.476"/></defs><use xlinkHref="#mfid12"/><defs><path id="mfid13" d="M0 0h16.49v-17.104H0V0Z"/></defs></g><g stroke-width=".167" stroke="#000" stroke-linecap="round" stroke-linejoin="round" transform="matrix(0 -2.88 2.88 0 758.18 161.74)"><use fill-rule="evenodd" stroke="none" xlinkHref="#mfid13"/><use xlinkHref="#mfid13"/><defs><path id="mfid14" d="M0 0h6.496v-18.11H0V0Z"/></defs></g><g stroke-width=".167" stroke="#000" stroke-linecap="round" stroke-linejoin="round" transform="matrix(0 -2.88 2.88 0 759.63 184.77)"><use fill-rule="evenodd" stroke="none" xlinkHref="#mfid14"/><use xlinkHref="#mfid14"/><defs><path id="mfid15" d="m3.878 0 4.69-1.665v-11.783l-4.69-1.644A99.7 99.7 0 0 0 3.878 0Zm4.69-1.665h7.975a39.051 39.051 0 0 0 0-11.783H8.568v11.783ZM.449 0h3.429a99.7 99.7 0 0 1 0-15.092H.449A63.637 63.637 0 0 0 .449 0Z"/></defs></g><g stroke-width=".167" stroke="#000" stroke-linecap="round" stroke-linejoin="round" transform="matrix(0 -2.88 2.88 0 755.29 158.86)"><use fill-rule="evenodd" stroke="none" xlinkHref="#mfid15"/><use xlinkHref="#mfid15"/></g><g stroke-width=".167" stroke="#000" stroke-linecap="round" stroke-linejoin="round" transform="matrix(2.88 0 0 2.88 751.29 168.22)"><path stroke="none" d="M0-.125h.503V0H0z"/><defs><path id="mfid16" d="M1.132-4.372h.629v-.625h-.63v.625Zm.755 0h.628v-.625h-.629v.625Zm.754 0h.629v-.625H2.64v.625Zm.755 0h.628v-.625h-.628v.625Zm4.842 0h.629v-.625h-.63v.625Zm.754 0h.63v-.625h-.63v.625Zm.755 0h.629v-.625h-.63v.625Zm.754 0h.629v-.625h-.629v.625ZM0-3.123h1.006v-.625H0v.625Zm1.132 0h.629v-.625h-.63v.625Zm.755 0h.628v-.625h-.629v.625Zm.754 0h.629v-.625H2.64v.625Zm.755 0h.628v-.625h-.628v.625Zm.754 0h.63v-.625h-.63v.625Zm.755 0h.629v-.625h-.63v.625Zm.754 0h.63v-.625h-.63v.625Zm.755 0h.629v-.625h-.629v.625Zm.755 0h.629v-.625h-.63v.625Zm.754 0h.63v-.625h-.63v.625Zm.755 0h.629v-.625h-.63v.625Zm.754 0h.629v-.625h-.629v.625Zm-8.3.78h.629v-.624h-.63v.625Zm.755 0h.628v-.624h-.629v.625Zm.754 0h.629v-.624H2.64v.625Zm.755 0h.628v-.624h-.628v.625Zm.754 0h.63v-.624h-.63v.625Zm.755 0h.629v-.624h-.63v.625Zm.754 0h.63v-.624h-.63v.625Zm.755 0h.629v-.624h-.629v.625Zm.755 0h.629v-.624h-.63v.625Zm.754 0h.63v-.624h-.63v.625Zm.755 0h.629v-.624h-.63v.625Zm.754 0h.629v-.624h-.629v.625Zm-8.3.781h.629v-.624h-.63v.624Zm.755 0h.628v-.624h-.629v.624Zm.754 0h.629v-.624H2.64v.624Zm.755 0h.628v-.624h-.628v.624Zm.754 0h.63v-.624h-.63v.624Zm.755 0h.629v-.624h-.63v.624Zm.754 0h.63v-.624h-.63v.624Zm.755 0h.629v-.624h-.629v.624Zm.755 0h.629v-.624h-.63v.624Zm.754 0h.63v-.624h-.63v.624Zm.755 0h.629v-.624h-.63v.624Zm.754 0h.629v-.624h-.629v.624Zm-8.3.781h.629v-.624h-.63v.624Zm.755 0h.628v-.624h-.629v.624Zm.754 0h.629v-.624H2.64v.624Zm.755 0h.628v-.624h-.628v.624Zm.754 0h.63v-.624h-.63v.624Zm.755 0h.629v-.624h-.63v.624Zm.754 0h.63v-.624h-.63v.624Zm.755 0h.629v-.624h-.629v.624Zm.755 0h.629v-.624h-.63v.624Zm.754 0h.63v-.624h-.63v.624Zm.755 0h.629v-.624h-.63v.624ZM2.64 0h5.157v-.625H2.64V0Zm11.445 0h1.509v-.625h-1.509V0Zm1.635 0h.629v-.625h-.629V0Zm0-.78h.629v-.625h-.629v.624Zm-.818 0h.629v-.625h-.629v.624Zm-.817 0h.629v-.625h-.629v.624Zm0-.782h.629v-.624h-.629v.624Zm0-.78h.629v-.625h-.629v.625Zm.817 0h.629v-.625h-.629v.625Zm.818 0h.629v-.625h-.629v.625Zm0 .78h.629v-.624h-.629v.624Zm-.818 0h.629v-.624h-.629v.624Z"/></defs></g><g stroke-width=".167" stroke="#000" stroke-linecap="round" stroke-linejoin="round"><g transform="matrix(2.88 0 0 2.88 708.91 181.89)"><use fill-rule="evenodd" stroke="none" xlinkHref="#mfid16"/><defs><path id="mfid17" d="M0-4.372h.629v-.625H0v.625Zm0 2.03h1.006v-.625H0v.625Zm0 .78h1.006v-.624H0v.624ZM0-.78h1.006v-.624H0v.624ZM0 0h1.006v-.625H0V0Zm1.132 0h.629v-.625h-.63V0Zm.755 0h.628v-.625h-.629V0Zm6.036 0h.63v-.625h-.63V0Zm.755 0h.629v-.625h-.63V0Zm.754 0h.629v-.625h-.629V0Zm.755 0h1.006v-.625h-1.006V0Zm1.383 0h.629v-.625h-.629V0Zm.755 0h.629v-.625h-.629V0Zm.755 0h.628v-.625h-.628V0Zm3.458 0h.629v-1.374h-.629V0Zm0-1.5h.629v-1.467h-.629v1.468Zm0-1.623h.629v-.625h-.629v.625Zm-.817 0h.629v-.625h-.629v.625Zm-.818 0h.629v-.625h-.629v.625Zm-.817 0h.629v-.625h-.629v.625Zm-1.006 0h.628v-.625h-.628v.625Zm0 .78h.628v-.624h-.628v.625ZM12.325-.78h.629v-.624h-.629v.624ZM9.432-.79h1.761v-.625h-1.76v.625Zm.755-.791h1.006v-1.375h-1.006v1.375Zm1.383-.76h.629v-.625h-.629v.625Zm.755 0h.629v-.625h-.629v.625Zm0-.781h.629v-.625h-.629v.625Zm-2.138 0h1.006v-.625h-1.006v.625Zm6.037-1.624h.503v-.125h-.503v.125Zm-.755 0h.503v-.125h-.503v.125Zm-2.389.375h.628v-.625h-.628v.625Zm-.755 0h.629v-.625h-.629v.625Zm-.755 0h.629v-.625h-.629v.625Zm-4.653 0h.629v-.625h-.629v.625Zm-.755 0h.63v-.625h-.63v.625Zm-.754 0h.629v-.625h-.63v.625Zm-.755 0h.63v-.625h-.63v.625Zm6.917 1.249h.629v-.625h-.629v.625Z"/></defs></g><g transform="matrix(2.88 0 0 2.88 708.91 181.89)"><use fill-rule="evenodd" stroke="none" xlinkHref="#mfid17"/><defs><path id="mfid18" d="M0 0h62.997v-1.968H0V0Z"/></defs></g></g><g stroke-width=".167" stroke="#000" stroke-linecap="round" stroke-linejoin="round" transform="matrix(2.8798 -.03595 .03595 2.8798 642.88 82.263)"><use fill-rule="evenodd" stroke="none" xlinkHref="#mfid18"/><use xlinkHref="#mfid18"/><defs><path id="mfid19" d="M0 0h31.496v-62.992H0V0Z"/></defs></g><g stroke-width=".167" stroke="#000" stroke-linecap="round" stroke-linejoin="round" transform="matrix(0 2.88 2.88 0 642.84 79.428)"><use fill-rule="evenodd" stroke="none" xlinkHref="#mfid19"/><use xlinkHref="#mfid19"/><defs><path id="mfid20" d="M3.99-15.889c-.194 2.7-.198 5.41-.011 8.111a10.297 10.297 0 0 0 4.877 4.825h6.405a1.475 1.475 0 0 1 1.389.97h1.072a5.904 5.904 0 0 0 5.9-5.908v-7.873a5.9 5.9 0 0 0-5.9-5.901l-1.075.001a1.479 1.479 0 0 1-1.395.997H8.806a10.297 10.297 0 0 0-4.816 4.778Zm-.048 4.082a20.996 20.996 0 0 1 .513-6.889 1.1 1.1 0 0 0-1.478-1.476A11.263 11.263 0 0 0 .03-11.805a11.046 11.046 0 0 0 2.948 8.363A1.109 1.109 0 0 0 4.455-4.92a20.395 20.395 0 0 1-.513-6.888ZM16.738-1.481c0-.816-.662-1.477-1.477-1.476H6.405c-.815 0-1.475.661-1.474 1.476A1.478 1.478 0 0 0 6.405 0h8.856a1.479 1.479 0 0 0 1.477-1.481Zm-.011-20.666a1.47 1.47 0 0 0-1.466-1.475H6.405a1.483 1.483 0 0 0-1.485 1.481 1.48 1.48 0 0 0 1.485 1.476h8.856a1.47 1.47 0 0 0 1.466-1.476v-.006Z"/></defs></g><g stroke-width=".167" stroke="#000" stroke-linecap="round" stroke-linejoin="round" transform="matrix(0 -2.88 -2.88 0 520.69 246.21)"><use fill-rule="evenodd" stroke="none" xlinkHref="#mfid20"/><defs><path id="mfid21" d="M3.99-15.889c-.194 2.7-.198 5.41-.011 8.111a10.297 10.297 0 0 0 4.877 4.825h6.405a1.475 1.475 0 0 1 1.389.97h1.072a5.904 5.904 0 0 0 5.9-5.908v-7.873a5.9 5.9 0 0 0-5.9-5.901l-1.075.001a1.479 1.479 0 0 1-1.395.997H8.806a10.297 10.297 0 0 0-4.816 4.778Zm-.048 4.082a20.996 20.996 0 0 1 .513-6.889 1.1 1.1 0 0 0-1.478-1.476A11.263 11.263 0 0 0 .03-11.805a11.046 11.046 0 0 0 2.948 8.363A1.109 1.109 0 0 0 4.455-4.92a20.395 20.395 0 0 1-.513-6.888ZM16.738-1.481c0-.816-.662-1.477-1.477-1.476H6.405c-.815 0-1.475.661-1.474 1.476A1.478 1.478 0 0 0 6.405 0h8.856a1.479 1.479 0 0 0 1.477-1.481Zm-.011-20.666a1.47 1.47 0 0 0-1.466-1.475H6.405a1.483 1.483 0 0 0-1.485 1.481 1.48 1.48 0 0 0 1.485 1.476h8.856a1.47 1.47 0 0 0 1.466-1.476"/></defs><use xlinkHref="#mfid21"/><defs><path id="mfid22" d="M0 0h16.49v-17.104H0V0Z"/></defs></g><g stroke-width=".167" stroke="#000" stroke-linecap="round" stroke-linejoin="round" transform="matrix(0 -2.88 2.88 0 576.77 161.74)"><use fill-rule="evenodd" stroke="none" xlinkHref="#mfid22"/><use xlinkHref="#mfid22"/><defs><path id="mfid23" d="M0 0h6.496v-18.11H0V0Z"/></defs></g><g stroke-width=".167" stroke="#000" stroke-linecap="round" stroke-linejoin="round" transform="matrix(0 -2.88 2.88 0 578.21 184.77)"><use fill-rule="evenodd" stroke="none" xlinkHref="#mfid23"/><use xlinkHref="#mfid23"/><defs><path id="mfid24" d="m3.878 0 4.69-1.665v-11.783l-4.69-1.644A99.7 99.7 0 0 0 3.878 0Zm4.69-1.665h7.975a39.051 39.051 0 0 0 0-11.783H8.568v11.783ZM.449 0h3.429a99.7 99.7 0 0 1 0-15.092H.449A63.637 63.637 0 0 0 .449 0Z"/></defs></g><g stroke-width=".167" stroke="#000" stroke-linecap="round" stroke-linejoin="round" transform="matrix(0 -2.88 2.88 0 573.87 158.86)"><use fill-rule="evenodd" stroke="none" xlinkHref="#mfid24"/><use xlinkHref="#mfid24"/></g><g stroke-width=".167" stroke="#000" stroke-linecap="round" stroke-linejoin="round" transform="matrix(2.88 0 0 2.88 569.87 168.22)"><path stroke="none" d="M0-.125h.503V0H0z"/><defs><path id="mfid25" d="M1.132-4.372h.629v-.625h-.63v.625Zm.755 0h.628v-.625h-.629v.625Zm.754 0h.629v-.625H2.64v.625Zm.755 0h.628v-.625h-.628v.625Zm4.842 0h.629v-.625h-.63v.625Zm.754 0h.63v-.625h-.63v.625Zm.755 0h.629v-.625h-.63v.625Zm.754 0h.629v-.625h-.629v.625ZM0-3.123h1.006v-.625H0v.625Zm1.132 0h.629v-.625h-.63v.625Zm.755 0h.628v-.625h-.629v.625Zm.754 0h.629v-.625H2.64v.625Zm.755 0h.628v-.625h-.628v.625Zm.754 0h.63v-.625h-.63v.625Zm.755 0h.629v-.625h-.63v.625Zm.754 0h.63v-.625h-.63v.625Zm.755 0h.629v-.625h-.629v.625Zm.755 0h.629v-.625h-.63v.625Zm.754 0h.63v-.625h-.63v.625Zm.755 0h.629v-.625h-.63v.625Zm.754 0h.629v-.625h-.629v.625Zm-8.3.78h.629v-.624h-.63v.625Zm.755 0h.628v-.624h-.629v.625Zm.754 0h.629v-.624H2.64v.625Zm.755 0h.628v-.624h-.628v.625Zm.754 0h.63v-.624h-.63v.625Zm.755 0h.629v-.624h-.63v.625Zm.754 0h.63v-.624h-.63v.625Zm.755 0h.629v-.624h-.629v.625Zm.755 0h.629v-.624h-.63v.625Zm.754 0h.63v-.624h-.63v.625Zm.755 0h.629v-.624h-.63v.625Zm.754 0h.629v-.624h-.629v.625Zm-8.3.781h.629v-.624h-.63v.624Zm.755 0h.628v-.624h-.629v.624Zm.754 0h.629v-.624H2.64v.624Zm.755 0h.628v-.624h-.628v.624Zm.754 0h.63v-.624h-.63v.624Zm.755 0h.629v-.624h-.63v.624Zm.754 0h.63v-.624h-.63v.624Zm.755 0h.629v-.624h-.629v.624Zm.755 0h.629v-.624h-.63v.624Zm.754 0h.63v-.624h-.63v.624Zm.755 0h.629v-.624h-.63v.624Zm.754 0h.629v-.624h-.629v.624Zm-8.3.781h.629v-.624h-.63v.624Zm.755 0h.628v-.624h-.629v.624Zm.754 0h.629v-.624H2.64v.624Zm.755 0h.628v-.624h-.628v.624Zm.754 0h.63v-.624h-.63v.624Zm.755 0h.629v-.624h-.63v.624Zm.754 0h.63v-.624h-.63v.624Zm.755 0h.629v-.624h-.629v.624Zm.755 0h.629v-.624h-.63v.624Zm.754 0h.63v-.624h-.63v.624Zm.755 0h.629v-.624h-.63v.624ZM2.64 0h5.157v-.625H2.64V0Zm11.445 0h1.509v-.625h-1.509V0Zm1.635 0h.629v-.625h-.629V0Zm0-.78h.629v-.625h-.629v.624Zm-.818 0h.629v-.625h-.629v.624Zm-.817 0h.629v-.625h-.629v.624Zm0-.782h.629v-.624h-.629v.624Zm0-.78h.629v-.625h-.629v.625Zm.817 0h.629v-.625h-.629v.625Zm.818 0h.629v-.625h-.629v.625Zm0 .78h.629v-.624h-.629v.624Zm-.818 0h.629v-.624h-.629v.624Z"/></defs></g><g stroke-width=".167" stroke="#000" stroke-linecap="round" stroke-linejoin="round"><g transform="matrix(2.88 0 0 2.88 527.5 181.89)"><use fill-rule="evenodd" stroke="none" xlinkHref="#mfid25"/><defs><path id="mfid26" d="M0-4.372h.629v-.625H0v.625Zm0 2.03h1.006v-.625H0v.625Zm0 .78h1.006v-.624H0v.624ZM0-.78h1.006v-.624H0v.624ZM0 0h1.006v-.625H0V0Zm1.132 0h.629v-.625h-.63V0Zm.755 0h.628v-.625h-.629V0Zm6.036 0h.63v-.625h-.63V0Zm.755 0h.629v-.625h-.63V0Zm.754 0h.629v-.625h-.629V0Zm.755 0h1.006v-.625h-1.006V0Zm1.383 0h.629v-.625h-.629V0Zm.755 0h.629v-.625h-.629V0Zm.755 0h.628v-.625h-.628V0Zm3.458 0h.629v-1.374h-.629V0Zm0-1.5h.629v-1.467h-.629v1.468Zm0-1.623h.629v-.625h-.629v.625Zm-.817 0h.629v-.625h-.629v.625Zm-.818 0h.629v-.625h-.629v.625Zm-.817 0h.629v-.625h-.629v.625Zm-1.006 0h.628v-.625h-.628v.625Zm0 .78h.628v-.624h-.628v.625ZM12.325-.78h.629v-.624h-.629v.624ZM9.432-.79h1.761v-.625h-1.76v.625Zm.755-.791h1.006v-1.375h-1.006v1.375Zm1.383-.76h.629v-.625h-.629v.625Zm.755 0h.629v-.625h-.629v.625Zm0-.781h.629v-.625h-.629v.625Zm-2.138 0h1.006v-.625h-1.006v.625Zm6.037-1.624h.503v-.125h-.503v.125Zm-.755 0h.503v-.125h-.503v.125Zm-2.389.375h.628v-.625h-.628v.625Zm-.755 0h.629v-.625h-.629v.625Zm-.755 0h.629v-.625h-.629v.625Zm-4.653 0h.629v-.625h-.629v.625Zm-.755 0h.63v-.625h-.63v.625Zm-.754 0h.629v-.625h-.63v.625Zm-.755 0h.63v-.625h-.63v.625Zm6.917 1.249h.629v-.625h-.629v.625Z"/></defs></g><g transform="matrix(2.88 0 0 2.88 527.5 181.89)"><use fill-rule="evenodd" stroke="none" xlinkHref="#mfid26"/><defs><path id="mfid27" d="M0 0h62.997v-1.968H0V0Z"/></defs></g></g><g stroke-width=".167" stroke="#000" stroke-linecap="round" stroke-linejoin="round" transform="matrix(2.8798 -.03595 .03595 2.8798 461.46 82.263)"><use fill-rule="evenodd" stroke="none" xlinkHref="#mfid27"/><use xlinkHref="#mfid27"/><defs><path id="mfid28" d="M0 0h31.496v-62.992H0V0Z"/></defs></g><g stroke-width=".167" stroke="#000" stroke-linecap="round" stroke-linejoin="round" transform="matrix(0 2.88 2.88 0 461.43 79.428)"><use fill-rule="evenodd" stroke="none" xlinkHref="#mfid28"/><use xlinkHref="#mfid28"/><defs><path id="mfid29" d="M3.99-15.889c-.194 2.7-.198 5.41-.011 8.111a10.297 10.297 0 0 0 4.877 4.825h6.405a1.475 1.475 0 0 1 1.389.97h1.072a5.904 5.904 0 0 0 5.9-5.908v-7.873a5.9 5.9 0 0 0-5.9-5.901l-1.075.001a1.479 1.479 0 0 1-1.395.997H8.806a10.297 10.297 0 0 0-4.816 4.778Zm-.048 4.082a20.996 20.996 0 0 1 .513-6.889 1.1 1.1 0 0 0-1.478-1.476A11.263 11.263 0 0 0 .03-11.805a11.046 11.046 0 0 0 2.948 8.363A1.109 1.109 0 0 0 4.455-4.92a20.395 20.395 0 0 1-.513-6.888ZM16.738-1.481c0-.816-.662-1.477-1.477-1.476H6.405c-.815 0-1.475.661-1.474 1.476A1.478 1.478 0 0 0 6.405 0h8.856a1.479 1.479 0 0 0 1.477-1.481Zm-.011-20.666a1.47 1.47 0 0 0-1.466-1.475H6.405a1.483 1.483 0 0 0-1.485 1.481 1.48 1.48 0 0 0 1.485 1.476h8.856a1.47 1.47 0 0 0 1.466-1.476v-.006Z"/></defs></g><g stroke-width=".167" stroke="#000" stroke-linecap="round" stroke-linejoin="round" transform="matrix(0 -2.88 -2.88 0 339.27 246.21)"><use fill-rule="evenodd" stroke="none" xlinkHref="#mfid29"/><defs><path id="mfid30" d="M3.99-15.889c-.194 2.7-.198 5.41-.011 8.111a10.297 10.297 0 0 0 4.877 4.825h6.405a1.475 1.475 0 0 1 1.389.97h1.072a5.904 5.904 0 0 0 5.9-5.908v-7.873a5.9 5.9 0 0 0-5.9-5.901l-1.075.001a1.479 1.479 0 0 1-1.395.997H8.806a10.297 10.297 0 0 0-4.816 4.778Zm-.048 4.082a20.996 20.996 0 0 1 .513-6.889 1.1 1.1 0 0 0-1.478-1.476A11.263 11.263 0 0 0 .03-11.805a11.046 11.046 0 0 0 2.948 8.363A1.109 1.109 0 0 0 4.455-4.92a20.395 20.395 0 0 1-.513-6.888ZM16.738-1.481c0-.816-.662-1.477-1.477-1.476H6.405c-.815 0-1.475.661-1.474 1.476A1.478 1.478 0 0 0 6.405 0h8.856a1.479 1.479 0 0 0 1.477-1.481Zm-.011-20.666a1.47 1.47 0 0 0-1.466-1.475H6.405a1.483 1.483 0 0 0-1.485 1.481 1.48 1.48 0 0 0 1.485 1.476h8.856a1.47 1.47 0 0 0 1.466-1.476"/></defs><use xlinkHref="#mfid30"/><defs><path id="mfid31" d="M0 0h16.49v-17.104H0V0Z"/></defs></g><g stroke-width=".167" stroke="#000" stroke-linecap="round" stroke-linejoin="round" transform="matrix(0 -2.88 2.88 0 395.35 161.74)"><use fill-rule="evenodd" stroke="none" xlinkHref="#mfid31"/><use xlinkHref="#mfid31"/><defs><path id="mfid32" d="M0 0h6.496v-18.11H0V0Z"/></defs></g><g stroke-width=".167" stroke="#000" stroke-linecap="round" stroke-linejoin="round" transform="matrix(0 -2.88 2.88 0 396.8 184.77)"><use fill-rule="evenodd" stroke="none" xlinkHref="#mfid32"/><use xlinkHref="#mfid32"/><defs><path id="mfid33" d="m3.878 0 4.69-1.665v-11.783l-4.69-1.644A99.7 99.7 0 0 0 3.878 0Zm4.69-1.665h7.975a39.051 39.051 0 0 0 0-11.783H8.568v11.783ZM.449 0h3.429a99.7 99.7 0 0 1 0-15.092H.449A63.637 63.637 0 0 0 .449 0Z"/></defs></g><g stroke-width=".167" stroke="#000" stroke-linecap="round" stroke-linejoin="round" transform="matrix(0 -2.88 2.88 0 392.45 158.86)"><use fill-rule="evenodd" stroke="none" xlinkHref="#mfid33"/><use xlinkHref="#mfid33"/></g><g stroke-width=".167" stroke="#000" stroke-linecap="round" stroke-linejoin="round" transform="matrix(2.88 0 0 2.88 388.46 168.22)"><path stroke="none" d="M0-.125h.503V0H0z"/><defs><path id="mfid34" d="M1.132-4.372h.629v-.625h-.63v.625Zm.755 0h.628v-.625h-.629v.625Zm.754 0h.629v-.625H2.64v.625Zm.755 0h.628v-.625h-.628v.625Zm4.842 0h.629v-.625h-.63v.625Zm.754 0h.63v-.625h-.63v.625Zm.755 0h.629v-.625h-.63v.625Zm.754 0h.629v-.625h-.629v.625ZM0-3.123h1.006v-.625H0v.625Zm1.132 0h.629v-.625h-.63v.625Zm.755 0h.628v-.625h-.629v.625Zm.754 0h.629v-.625H2.64v.625Zm.755 0h.628v-.625h-.628v.625Zm.754 0h.63v-.625h-.63v.625Zm.755 0h.629v-.625h-.63v.625Zm.754 0h.63v-.625h-.63v.625Zm.755 0h.629v-.625h-.629v.625Zm.755 0h.629v-.625h-.63v.625Zm.754 0h.63v-.625h-.63v.625Zm.755 0h.629v-.625h-.63v.625Zm.754 0h.629v-.625h-.629v.625Zm-8.3.78h.629v-.624h-.63v.625Zm.755 0h.628v-.624h-.629v.625Zm.754 0h.629v-.624H2.64v.625Zm.755 0h.628v-.624h-.628v.625Zm.754 0h.63v-.624h-.63v.625Zm.755 0h.629v-.624h-.63v.625Zm.754 0h.63v-.624h-.63v.625Zm.755 0h.629v-.624h-.629v.625Zm.755 0h.629v-.624h-.63v.625Zm.754 0h.63v-.624h-.63v.625Zm.755 0h.629v-.624h-.63v.625Zm.754 0h.629v-.624h-.629v.625Zm-8.3.781h.629v-.624h-.63v.624Zm.755 0h.628v-.624h-.629v.624Zm.754 0h.629v-.624H2.64v.624Zm.755 0h.628v-.624h-.628v.624Zm.754 0h.63v-.624h-.63v.624Zm.755 0h.629v-.624h-.63v.624Zm.754 0h.63v-.624h-.63v.624Zm.755 0h.629v-.624h-.629v.624Zm.755 0h.629v-.624h-.63v.624Zm.754 0h.63v-.624h-.63v.624Zm.755 0h.629v-.624h-.63v.624Zm.754 0h.629v-.624h-.629v.624Zm-8.3.781h.629v-.624h-.63v.624Zm.755 0h.628v-.624h-.629v.624Zm.754 0h.629v-.624H2.64v.624Zm.755 0h.628v-.624h-.628v.624Zm.754 0h.63v-.624h-.63v.624Zm.755 0h.629v-.624h-.63v.624Zm.754 0h.63v-.624h-.63v.624Zm.755 0h.629v-.624h-.629v.624Zm.755 0h.629v-.624h-.63v.624Zm.754 0h.63v-.624h-.63v.624Zm.755 0h.629v-.624h-.63v.624ZM2.64 0h5.157v-.625H2.64V0Zm11.445 0h1.509v-.625h-1.509V0Zm1.635 0h.629v-.625h-.629V0Zm0-.78h.629v-.625h-.629v.624Zm-.818 0h.629v-.625h-.629v.624Zm-.817 0h.629v-.625h-.629v.624Zm0-.782h.629v-.624h-.629v.624Zm0-.78h.629v-.625h-.629v.625Zm.817 0h.629v-.625h-.629v.625Zm.818 0h.629v-.625h-.629v.625Zm0 .78h.629v-.624h-.629v.624Zm-.818 0h.629v-.624h-.629v.624Z"/></defs></g><g stroke-width=".167" stroke="#000" stroke-linecap="round" stroke-linejoin="round"><g transform="matrix(2.88 0 0 2.88 346.08 181.89)"><use fill-rule="evenodd" stroke="none" xlinkHref="#mfid34"/><defs><path id="mfid35" d="M0-4.372h.629v-.625H0v.625Zm0 2.03h1.006v-.625H0v.625Zm0 .78h1.006v-.624H0v.624ZM0-.78h1.006v-.624H0v.624ZM0 0h1.006v-.625H0V0Zm1.132 0h.629v-.625h-.63V0Zm.755 0h.628v-.625h-.629V0Zm6.036 0h.63v-.625h-.63V0Zm.755 0h.629v-.625h-.63V0Zm.754 0h.629v-.625h-.629V0Zm.755 0h1.006v-.625h-1.006V0Zm1.383 0h.629v-.625h-.629V0Zm.755 0h.629v-.625h-.629V0Zm.755 0h.628v-.625h-.628V0Zm3.458 0h.629v-1.374h-.629V0Zm0-1.5h.629v-1.467h-.629v1.468Zm0-1.623h.629v-.625h-.629v.625Zm-.817 0h.629v-.625h-.629v.625Zm-.818 0h.629v-.625h-.629v.625Zm-.817 0h.629v-.625h-.629v.625Zm-1.006 0h.628v-.625h-.628v.625Zm0 .78h.628v-.624h-.628v.625ZM12.325-.78h.629v-.624h-.629v.624ZM9.432-.79h1.761v-.625h-1.76v.625Zm.755-.791h1.006v-1.375h-1.006v1.375Zm1.383-.76h.629v-.625h-.629v.625Zm.755 0h.629v-.625h-.629v.625Zm0-.781h.629v-.625h-.629v.625Zm-2.138 0h1.006v-.625h-1.006v.625Zm6.037-1.624h.503v-.125h-.503v.125Zm-.755 0h.503v-.125h-.503v.125Zm-2.389.375h.628v-.625h-.628v.625Zm-.755 0h.629v-.625h-.629v.625Zm-.755 0h.629v-.625h-.629v.625Zm-4.653 0h.629v-.625h-.629v.625Zm-.755 0h.63v-.625h-.63v.625Zm-.754 0h.629v-.625h-.63v.625Zm-.755 0h.63v-.625h-.63v.625Zm6.917 1.249h.629v-.625h-.629v.625Z"/></defs></g><g transform="matrix(2.88 0 0 2.88 346.08 181.89)"><use fill-rule="evenodd" stroke="none" xlinkHref="#mfid35"/><defs><path id="mfid36" d="M0 0h62.997v-1.968H0V0Z"/></defs></g></g><g stroke-width=".167" stroke="#000" stroke-linecap="round" stroke-linejoin="round" transform="matrix(2.8798 -.03595 .03595 2.8798 280.05 82.263)"><use fill-rule="evenodd" stroke="none" xlinkHref="#mfid36"/><use xlinkHref="#mfid36"/><defs><path id="mfid37" d="M-3.937-3.937H261.38L259.84 0H0l-3.937-3.937Z"/></defs></g><g stroke-width=".167" stroke="#000" stroke-linecap="round" stroke-linejoin="round" transform="matrix(0 2.88 -2.88 0 825.43 64.796)"><use fill-rule="evenodd" stroke="none" xlinkHref="#mfid37"/><defs><path id="mfid38" d="M-3.937-3.937H261.38M0 0h259.84"/></defs><use xlinkHref="#mfid38"/><defs><path id="mfid39" d="M-1.72-3.937h163.14L157.48 0H0l-1.72-3.937Z"/></defs></g><g stroke-width=".167" stroke="#000" stroke-linecap="round" stroke-linejoin="round" transform="matrix(-2.88 0 0 -2.88 574.85 1083.9)"><use fill-rule="evenodd" stroke="none" xlinkHref="#mfid39"/><defs><path id="mfid40" d="M-1.72-3.937h163.14M0 0h157.48"/></defs><use xlinkHref="#mfid40"/><defs><path id="mfid41" d="M-1.542-3.937H129.81L128.09 0H0l-1.542-3.937Z"/></defs></g><g stroke-width=".167" stroke="#000" stroke-linecap="round" stroke-linejoin="round" transform="rotate(132.784 235.02 586.95) scale(2.88)"><use fill-rule="evenodd" stroke="none" xlinkHref="#mfid41"/><defs><path id="mfid42" d="M-1.542-3.937H129.81M0 0h128.09"/></defs><use xlinkHref="#mfid42"/><defs><path id="mfid43" d="M0 0h31.496v-62.992H0V0Z"/></defs></g><g stroke-width=".167" stroke="#000" stroke-linecap="round" stroke-linejoin="round" transform="matrix(0 2.88 2.88 0 824.26 465.56)"><use fill-rule="evenodd" stroke="none" xlinkHref="#mfid43"/><use xlinkHref="#mfid43"/><defs><path id="mfid44" d="M3.99-15.889c-.194 2.7-.198 5.41-.011 8.111a10.297 10.297 0 0 0 4.877 4.825h6.405a1.475 1.475 0 0 1 1.389.97h1.072a5.904 5.904 0 0 0 5.9-5.908v-7.873a5.9 5.9 0 0 0-5.9-5.901l-1.075.001a1.479 1.479 0 0 1-1.395.997H8.806a10.297 10.297 0 0 0-4.816 4.778Zm-.048 4.082a20.996 20.996 0 0 1 .513-6.889 1.1 1.1 0 0 0-1.478-1.476A11.263 11.263 0 0 0 .03-11.805a11.046 11.046 0 0 0 2.948 8.363A1.109 1.109 0 0 0 4.455-4.92a20.395 20.395 0 0 1-.513-6.888ZM16.738-1.481c0-.816-.662-1.477-1.477-1.476H6.405c-.815 0-1.475.661-1.474 1.476A1.478 1.478 0 0 0 6.405 0h8.856a1.479 1.479 0 0 0 1.477-1.481Zm-.011-20.666a1.47 1.47 0 0 0-1.466-1.475H6.405a1.483 1.483 0 0 0-1.485 1.481 1.48 1.48 0 0 0 1.485 1.476h8.856a1.47 1.47 0 0 0 1.466-1.476v-.006Z"/></defs></g><g stroke-width=".167" stroke="#000" stroke-linecap="round" stroke-linejoin="round" transform="matrix(0 -2.88 -2.88 0 702.1 632.34)"><use fill-rule="evenodd" stroke="none" xlinkHref="#mfid44"/><defs><path id="mfid45" d="M3.99-15.889c-.194 2.7-.198 5.41-.011 8.111a10.297 10.297 0 0 0 4.877 4.825h6.405a1.475 1.475 0 0 1 1.389.97h1.072a5.904 5.904 0 0 0 5.9-5.908v-7.873a5.9 5.9 0 0 0-5.9-5.901l-1.075.001a1.479 1.479 0 0 1-1.395.997H8.806a10.297 10.297 0 0 0-4.816 4.778Zm-.048 4.082a20.996 20.996 0 0 1 .513-6.889 1.1 1.1 0 0 0-1.478-1.476A11.263 11.263 0 0 0 .03-11.805a11.046 11.046 0 0 0 2.948 8.363A1.109 1.109 0 0 0 4.455-4.92a20.395 20.395 0 0 1-.513-6.888ZM16.738-1.481c0-.816-.662-1.477-1.477-1.476H6.405c-.815 0-1.475.661-1.474 1.476A1.478 1.478 0 0 0 6.405 0h8.856a1.479 1.479 0 0 0 1.477-1.481Zm-.011-20.666a1.47 1.47 0 0 0-1.466-1.475H6.405a1.483 1.483 0 0 0-1.485 1.481 1.48 1.48 0 0 0 1.485 1.476h8.856a1.47 1.47 0 0 0 1.466-1.476"/></defs><use xlinkHref="#mfid45"/><defs><path id="mfid46" d="M0 0h16.49v-17.104H0V0Z"/></defs></g><g stroke-width=".167" stroke="#000" stroke-linecap="round" stroke-linejoin="round" transform="matrix(0 -2.88 2.88 0 758.18 547.87)"><use fill-rule="evenodd" stroke="none" xlinkHref="#mfid46"/><use xlinkHref="#mfid46"/><defs><path id="mfid47" d="M0 0h6.496v-18.11H0V0Z"/></defs></g><g stroke-width=".167" stroke="#000" stroke-linecap="round" stroke-linejoin="round" transform="matrix(0 -2.88 2.88 0 759.63 570.9)"><use fill-rule="evenodd" stroke="none" xlinkHref="#mfid47"/><use xlinkHref="#mfid47"/><defs><path id="mfid48" d="m3.878 0 4.69-1.665v-11.783l-4.69-1.644A99.7 99.7 0 0 0 3.878 0Zm4.69-1.665h7.975a39.051 39.051 0 0 0 0-11.783H8.568v11.783ZM.449 0h3.429a99.7 99.7 0 0 1 0-15.092H.449A63.637 63.637 0 0 0 .449 0Z"/></defs></g><g stroke-width=".167" stroke="#000" stroke-linecap="round" stroke-linejoin="round" transform="matrix(0 -2.88 2.88 0 755.29 544.99)"><use fill-rule="evenodd" stroke="none" xlinkHref="#mfid48"/><use xlinkHref="#mfid48"/></g><g stroke-width=".167" stroke="#000" stroke-linecap="round" stroke-linejoin="round" transform="matrix(2.88 0 0 2.88 751.29 554.35)"><path stroke="none" d="M0-.125h.503V0H0z"/><defs><path id="mfid49" d="M1.132-4.372h.629v-.625h-.63v.625Zm.755 0h.628v-.625h-.629v.625Zm.754 0h.629v-.625H2.64v.625Zm.755 0h.628v-.625h-.628v.625Zm4.842 0h.629v-.625h-.63v.625Zm.754 0h.63v-.625h-.63v.625Zm.755 0h.629v-.625h-.63v.625Zm.754 0h.629v-.625h-.629v.625ZM0-3.123h1.006v-.625H0v.625Zm1.132 0h.629v-.625h-.63v.625Zm.755 0h.628v-.625h-.629v.625Zm.754 0h.629v-.625H2.64v.625Zm.755 0h.628v-.625h-.628v.625Zm.754 0h.63v-.625h-.63v.625Zm.755 0h.629v-.625h-.63v.625Zm.754 0h.63v-.625h-.63v.625Zm.755 0h.629v-.625h-.629v.625Zm.755 0h.629v-.625h-.63v.625Zm.754 0h.63v-.625h-.63v.625Zm.755 0h.629v-.625h-.63v.625Zm.754 0h.629v-.625h-.629v.625Zm-8.3.78h.629v-.624h-.63v.625Zm.755 0h.628v-.624h-.629v.625Zm.754 0h.629v-.624H2.64v.625Zm.755 0h.628v-.624h-.628v.625Zm.754 0h.63v-.624h-.63v.625Zm.755 0h.629v-.624h-.63v.625Zm.754 0h.63v-.624h-.63v.625Zm.755 0h.629v-.624h-.629v.625Zm.755 0h.629v-.624h-.63v.625Zm.754 0h.63v-.624h-.63v.625Zm.755 0h.629v-.624h-.63v.625Zm.754 0h.629v-.624h-.629v.625Zm-8.3.781h.629v-.624h-.63v.624Zm.755 0h.628v-.624h-.629v.624Zm.754 0h.629v-.624H2.64v.624Zm.755 0h.628v-.624h-.628v.624Zm.754 0h.63v-.624h-.63v.624Zm.755 0h.629v-.624h-.63v.624Zm.754 0h.63v-.624h-.63v.624Zm.755 0h.629v-.624h-.629v.624Zm.755 0h.629v-.624h-.63v.624Zm.754 0h.63v-.624h-.63v.624Zm.755 0h.629v-.624h-.63v.624Zm.754 0h.629v-.624h-.629v.624Zm-8.3.781h.629v-.624h-.63v.624Zm.755 0h.628v-.624h-.629v.624Zm.754 0h.629v-.624H2.64v.624Zm.755 0h.628v-.624h-.628v.624Zm.754 0h.63v-.624h-.63v.624Zm.755 0h.629v-.624h-.63v.624Zm.754 0h.63v-.624h-.63v.624Zm.755 0h.629v-.624h-.629v.624Zm.755 0h.629v-.624h-.63v.624Zm.754 0h.63v-.624h-.63v.624Zm.755 0h.629v-.624h-.63v.624ZM2.64 0h5.157v-.625H2.64V0Zm11.445 0h1.509v-.625h-1.509V0Zm1.635 0h.629v-.625h-.629V0Zm0-.78h.629v-.625h-.629v.624Zm-.818 0h.629v-.625h-.629v.624Zm-.817 0h.629v-.625h-.629v.624Zm0-.782h.629v-.624h-.629v.624Zm0-.78h.629v-.625h-.629v.625Zm.817 0h.629v-.625h-.629v.625Zm.818 0h.629v-.625h-.629v.625Zm0 .78h.629v-.624h-.629v.624Zm-.818 0h.629v-.624h-.629v.624Z"/></defs></g><g stroke-width=".167" stroke="#000" stroke-linecap="round" stroke-linejoin="round"><g transform="matrix(2.88 0 0 2.88 708.91 568.02)"><use fill-rule="evenodd" stroke="none" xlinkHref="#mfid49"/><defs><path id="mfid50" d="M0-4.372h.629v-.625H0v.625Zm0 2.03h1.006v-.625H0v.625Zm0 .78h1.006v-.624H0v.624ZM0-.78h1.006v-.624H0v.624ZM0 0h1.006v-.625H0V0Zm1.132 0h.629v-.625h-.63V0Zm.755 0h.628v-.625h-.629V0Zm6.036 0h.63v-.625h-.63V0Zm.755 0h.629v-.625h-.63V0Zm.754 0h.629v-.625h-.629V0Zm.755 0h1.006v-.625h-1.006V0Zm1.383 0h.629v-.625h-.629V0Zm.755 0h.629v-.625h-.629V0Zm.755 0h.628v-.625h-.628V0Zm3.458 0h.629v-1.374h-.629V0Zm0-1.5h.629v-1.467h-.629v1.468Zm0-1.623h.629v-.625h-.629v.625Zm-.817 0h.629v-.625h-.629v.625Zm-.818 0h.629v-.625h-.629v.625Zm-.817 0h.629v-.625h-.629v.625Zm-1.006 0h.628v-.625h-.628v.625Zm0 .78h.628v-.624h-.628v.625ZM12.325-.78h.629v-.624h-.629v.624ZM9.432-.79h1.761v-.625h-1.76v.625Zm.755-.791h1.006v-1.375h-1.006v1.375Zm1.383-.76h.629v-.625h-.629v.625Zm.755 0h.629v-.625h-.629v.625Zm0-.781h.629v-.625h-.629v.625Zm-2.138 0h1.006v-.625h-1.006v.625Zm6.037-1.624h.503v-.125h-.503v.125Zm-.755 0h.503v-.125h-.503v.125Zm-2.389.375h.628v-.625h-.628v.625Zm-.755 0h.629v-.625h-.629v.625Zm-.755 0h.629v-.625h-.629v.625Zm-4.653 0h.629v-.625h-.629v.625Zm-.755 0h.63v-.625h-.63v.625Zm-.754 0h.629v-.625h-.63v.625Zm-.755 0h.63v-.625h-.63v.625Zm6.917 1.249h.629v-.625h-.629v.625Z"/></defs></g><g transform="matrix(2.88 0 0 2.88 708.91 568.02)"><use fill-rule="evenodd" stroke="none" xlinkHref="#mfid50"/><defs><path id="mfid51" d="M0 0h62.997v-1.968H0V0Z"/></defs></g></g><g stroke-width=".167" stroke="#000" stroke-linecap="round" stroke-linejoin="round" transform="matrix(2.8798 -.03595 .03595 2.8798 642.88 468.39)"><use fill-rule="evenodd" stroke="none" xlinkHref="#mfid51"/><use xlinkHref="#mfid51"/><defs><path id="mfid52" d="M0 0h31.496v-62.992H0V0Z"/></defs></g><g stroke-width=".167" stroke="#000" stroke-linecap="round" stroke-linejoin="round" transform="matrix(0 -2.88 -2.88 0 642.36 457.73)"><use fill-rule="evenodd" stroke="none" xlinkHref="#mfid52"/><use xlinkHref="#mfid52"/><defs><path id="mfid53" d="M3.99-15.889c-.194 2.7-.198 5.41-.011 8.111a10.297 10.297 0 0 0 4.877 4.825h6.405a1.475 1.475 0 0 1 1.389.97h1.072a5.904 5.904 0 0 0 5.9-5.908v-7.873a5.9 5.9 0 0 0-5.9-5.901l-1.075.001a1.479 1.479 0 0 1-1.395.997H8.806a10.297 10.297 0 0 0-4.816 4.778Zm-.048 4.082a20.996 20.996 0 0 1 .513-6.889 1.1 1.1 0 0 0-1.478-1.476A11.263 11.263 0 0 0 .03-11.805a11.046 11.046 0 0 0 2.948 8.363A1.109 1.109 0 0 0 4.455-4.92a20.395 20.395 0 0 1-.513-6.888ZM16.738-1.481c0-.816-.662-1.477-1.477-1.476H6.405c-.815 0-1.475.661-1.474 1.476A1.478 1.478 0 0 0 6.405 0h8.856a1.479 1.479 0 0 0 1.477-1.481Zm-.011-20.666a1.47 1.47 0 0 0-1.466-1.475H6.405a1.483 1.483 0 0 0-1.485 1.481 1.48 1.48 0 0 0 1.485 1.476h8.856a1.47 1.47 0 0 0 1.466-1.476v-.006Z"/></defs></g><g stroke-width=".167" stroke="#000" stroke-linecap="round" stroke-linejoin="round" transform="matrix(0 2.88 2.88 0 764.52 290.95)"><use fill-rule="evenodd" stroke="none" xlinkHref="#mfid53"/><defs><path id="mfid54" d="M3.99-15.889c-.194 2.7-.198 5.41-.011 8.111a10.297 10.297 0 0 0 4.877 4.825h6.405a1.475 1.475 0 0 1 1.389.97h1.072a5.904 5.904 0 0 0 5.9-5.908v-7.873a5.9 5.9 0 0 0-5.9-5.901l-1.075.001a1.479 1.479 0 0 1-1.395.997H8.806a10.297 10.297 0 0 0-4.816 4.778Zm-.048 4.082a20.996 20.996 0 0 1 .513-6.889 1.1 1.1 0 0 0-1.478-1.476A11.263 11.263 0 0 0 .03-11.805a11.046 11.046 0 0 0 2.948 8.363A1.109 1.109 0 0 0 4.455-4.92a20.395 20.395 0 0 1-.513-6.888ZM16.738-1.481c0-.816-.662-1.477-1.477-1.476H6.405c-.815 0-1.475.661-1.474 1.476A1.478 1.478 0 0 0 6.405 0h8.856a1.479 1.479 0 0 0 1.477-1.481Zm-.011-20.666a1.47 1.47 0 0 0-1.466-1.475H6.405a1.483 1.483 0 0 0-1.485 1.481 1.48 1.48 0 0 0 1.485 1.476h8.856a1.47 1.47 0 0 0 1.466-1.476"/></defs><use xlinkHref="#mfid54"/><defs><path id="mfid55" d="M0 0h16.49v-17.104H0V0Z"/></defs></g><g stroke-width=".167" stroke="#000" stroke-linecap="round" stroke-linejoin="round" transform="rotate(90 166.51 541.93) scale(2.88)"><use fill-rule="evenodd" stroke="none" xlinkHref="#mfid55"/><use xlinkHref="#mfid55"/><defs><path id="mfid56" d="M0 0h6.496v-18.11H0V0Z"/></defs></g><g stroke-width=".167" stroke="#000" stroke-linecap="round" stroke-linejoin="round" transform="rotate(90 177.3 529.69) scale(2.88)"><use fill-rule="evenodd" stroke="none" xlinkHref="#mfid56"/><use xlinkHref="#mfid56"/><defs><path id="mfid57" d="m3.878 0 4.69-1.665v-11.783l-4.69-1.644A99.7 99.7 0 0 0 3.878 0Zm4.69-1.665h7.975a39.051 39.051 0 0 0 0-11.783H8.568v11.783ZM.449 0h3.429a99.7 99.7 0 0 1 0-15.092H.449A63.637 63.637 0 0 0 .449 0Z"/></defs></g><g stroke-width=".167" stroke="#000" stroke-linecap="round" stroke-linejoin="round" transform="matrix(0 2.88 -2.88 0 711.34 378.3)"><use fill-rule="evenodd" stroke="none" xlinkHref="#mfid57"/><use xlinkHref="#mfid57"/></g><g stroke-width=".167" stroke="#000" stroke-linecap="round" stroke-linejoin="round" transform="matrix(-2.88 0 0 -2.88 715.33 368.94)"><path stroke="none" d="M0-.125h.503V0H0z"/><defs><path id="mfid58" d="M1.132-4.372h.629v-.625h-.63v.625Zm.755 0h.628v-.625h-.629v.625Zm.754 0h.629v-.625H2.64v.625Zm.755 0h.628v-.625h-.628v.625Zm4.842 0h.629v-.625h-.63v.625Zm.754 0h.63v-.625h-.63v.625Zm.755 0h.629v-.625h-.63v.625Zm.754 0h.629v-.625h-.629v.625ZM0-3.123h1.006v-.625H0v.625Zm1.132 0h.629v-.625h-.63v.625Zm.755 0h.628v-.625h-.629v.625Zm.754 0h.629v-.625H2.64v.625Zm.755 0h.628v-.625h-.628v.625Zm.754 0h.63v-.625h-.63v.625Zm.755 0h.629v-.625h-.63v.625Zm.754 0h.63v-.625h-.63v.625Zm.755 0h.629v-.625h-.629v.625Zm.755 0h.629v-.625h-.63v.625Zm.754 0h.63v-.625h-.63v.625Zm.755 0h.629v-.625h-.63v.625Zm.754 0h.629v-.625h-.629v.625Zm-8.3.78h.629v-.624h-.63v.625Zm.755 0h.628v-.624h-.629v.625Zm.754 0h.629v-.624H2.64v.625Zm.755 0h.628v-.624h-.628v.625Zm.754 0h.63v-.624h-.63v.625Zm.755 0h.629v-.624h-.63v.625Zm.754 0h.63v-.624h-.63v.625Zm.755 0h.629v-.624h-.629v.625Zm.755 0h.629v-.624h-.63v.625Zm.754 0h.63v-.624h-.63v.625Zm.755 0h.629v-.624h-.63v.625Zm.754 0h.629v-.624h-.629v.625Zm-8.3.781h.629v-.624h-.63v.624Zm.755 0h.628v-.624h-.629v.624Zm.754 0h.629v-.624H2.64v.624Zm.755 0h.628v-.624h-.628v.624Zm.754 0h.63v-.624h-.63v.624Zm.755 0h.629v-.624h-.63v.624Zm.754 0h.63v-.624h-.63v.624Zm.755 0h.629v-.624h-.629v.624Zm.755 0h.629v-.624h-.63v.624Zm.754 0h.63v-.624h-.63v.624Zm.755 0h.629v-.624h-.63v.624Zm.754 0h.629v-.624h-.629v.624Zm-8.3.781h.629v-.624h-.63v.624Zm.755 0h.628v-.624h-.629v.624Zm.754 0h.629v-.624H2.64v.624Zm.755 0h.628v-.624h-.628v.624Zm.754 0h.63v-.624h-.63v.624Zm.755 0h.629v-.624h-.63v.624Zm.754 0h.63v-.624h-.63v.624Zm.755 0h.629v-.624h-.629v.624Zm.755 0h.629v-.624h-.63v.624Zm.754 0h.63v-.624h-.63v.624Zm.755 0h.629v-.624h-.63v.624ZM2.64 0h5.157v-.625H2.64V0Zm11.445 0h1.509v-.625h-1.509V0Zm1.635 0h.629v-.625h-.629V0Zm0-.78h.629v-.625h-.629v.624Zm-.818 0h.629v-.625h-.629v.624Zm-.817 0h.629v-.625h-.629v.624Zm0-.782h.629v-.624h-.629v.624Zm0-.78h.629v-.625h-.629v.625Zm.817 0h.629v-.625h-.629v.625Zm.818 0h.629v-.625h-.629v.625Zm0 .78h.629v-.624h-.629v.624Zm-.818 0h.629v-.624h-.629v.624Z"/></defs></g><g stroke-width=".167" stroke="#000" stroke-linecap="round" stroke-linejoin="round"><g transform="matrix(-2.88 0 0 -2.88 757.71 355.27)"><use fill-rule="evenodd" stroke="none" xlinkHref="#mfid58"/><defs><path id="mfid59" d="M0-4.372h.629v-.625H0v.625Zm0 2.03h1.006v-.625H0v.625Zm0 .78h1.006v-.624H0v.624ZM0-.78h1.006v-.624H0v.624ZM0 0h1.006v-.625H0V0Zm1.132 0h.629v-.625h-.63V0Zm.755 0h.628v-.625h-.629V0Zm6.036 0h.63v-.625h-.63V0Zm.755 0h.629v-.625h-.63V0Zm.754 0h.629v-.625h-.629V0Zm.755 0h1.006v-.625h-1.006V0Zm1.383 0h.629v-.625h-.629V0Zm.755 0h.629v-.625h-.629V0Zm.755 0h.628v-.625h-.628V0Zm3.458 0h.629v-1.374h-.629V0Zm0-1.5h.629v-1.467h-.629v1.468Zm0-1.623h.629v-.625h-.629v.625Zm-.817 0h.629v-.625h-.629v.625Zm-.818 0h.629v-.625h-.629v.625Zm-.817 0h.629v-.625h-.629v.625Zm-1.006 0h.628v-.625h-.628v.625Zm0 .78h.628v-.624h-.628v.625ZM12.325-.78h.629v-.624h-.629v.624ZM9.432-.79h1.761v-.625h-1.76v.625Zm.755-.791h1.006v-1.375h-1.006v1.375Zm1.383-.76h.629v-.625h-.629v.625Zm.755 0h.629v-.625h-.629v.625Zm0-.781h.629v-.625h-.629v.625Zm-2.138 0h1.006v-.625h-1.006v.625Zm6.037-1.624h.503v-.125h-.503v.125Zm-.755 0h.503v-.125h-.503v.125Zm-2.389.375h.628v-.625h-.628v.625Zm-.755 0h.629v-.625h-.629v.625Zm-.755 0h.629v-.625h-.629v.625Zm-4.653 0h.629v-.625h-.629v.625Zm-.755 0h.63v-.625h-.63v.625Zm-.754 0h.629v-.625h-.63v.625Zm-.755 0h.63v-.625h-.63v.625Zm6.917 1.249h.629v-.625h-.629v.625Z"/></defs></g><g transform="matrix(-2.88 0 0 -2.88 757.71 355.27)"><use fill-rule="evenodd" stroke="none" xlinkHref="#mfid59"/><defs><path id="mfid60" d="M0 0h62.997v-1.968H0V0Z"/></defs></g></g><g stroke-width=".167" stroke="#000" stroke-linecap="round" stroke-linejoin="round" transform="matrix(-2.8798 .03595 -.03595 -2.8798 823.75 454.9)"><use fill-rule="evenodd" stroke="none" xlinkHref="#mfid60"/><use xlinkHref="#mfid60"/><defs><path id="mfid61" d="M0 0h31.496v-62.992H0V0Z"/></defs></g><g stroke-width=".167" stroke="#000" stroke-linecap="round" stroke-linejoin="round" transform="matrix(0 2.88 2.88 0 642.29 465.56)"><use fill-rule="evenodd" stroke="none" xlinkHref="#mfid61"/><use xlinkHref="#mfid61"/><defs><path id="mfid62" d="M3.99-15.889c-.194 2.7-.198 5.41-.011 8.111a10.297 10.297 0 0 0 4.877 4.825h6.405a1.475 1.475 0 0 1 1.389.97h1.072a5.904 5.904 0 0 0 5.9-5.908v-7.873a5.9 5.9 0 0 0-5.9-5.901l-1.075.001a1.479 1.479 0 0 1-1.395.997H8.806a10.297 10.297 0 0 0-4.816 4.778Zm-.048 4.082a20.996 20.996 0 0 1 .513-6.889 1.1 1.1 0 0 0-1.478-1.476A11.263 11.263 0 0 0 .03-11.805a11.046 11.046 0 0 0 2.948 8.363A1.109 1.109 0 0 0 4.455-4.92a20.395 20.395 0 0 1-.513-6.888ZM16.738-1.481c0-.816-.662-1.477-1.477-1.476H6.405c-.815 0-1.475.661-1.474 1.476A1.478 1.478 0 0 0 6.405 0h8.856a1.479 1.479 0 0 0 1.477-1.481Zm-.011-20.666a1.47 1.47 0 0 0-1.466-1.475H6.405a1.483 1.483 0 0 0-1.485 1.481 1.48 1.48 0 0 0 1.485 1.476h8.856a1.47 1.47 0 0 0 1.466-1.476v-.006Z"/></defs></g><g stroke-width=".167" stroke="#000" stroke-linecap="round" stroke-linejoin="round" transform="matrix(0 -2.88 -2.88 0 520.13 632.34)"><use fill-rule="evenodd" stroke="none" xlinkHref="#mfid62"/><defs><path id="mfid63" d="M3.99-15.889c-.194 2.7-.198 5.41-.011 8.111a10.297 10.297 0 0 0 4.877 4.825h6.405a1.475 1.475 0 0 1 1.389.97h1.072a5.904 5.904 0 0 0 5.9-5.908v-7.873a5.9 5.9 0 0 0-5.9-5.901l-1.075.001a1.479 1.479 0 0 1-1.395.997H8.806a10.297 10.297 0 0 0-4.816 4.778Zm-.048 4.082a20.996 20.996 0 0 1 .513-6.889 1.1 1.1 0 0 0-1.478-1.476A11.263 11.263 0 0 0 .03-11.805a11.046 11.046 0 0 0 2.948 8.363A1.109 1.109 0 0 0 4.455-4.92a20.395 20.395 0 0 1-.513-6.888ZM16.738-1.481c0-.816-.662-1.477-1.477-1.476H6.405c-.815 0-1.475.661-1.474 1.476A1.478 1.478 0 0 0 6.405 0h8.856a1.479 1.479 0 0 0 1.477-1.481Zm-.011-20.666a1.47 1.47 0 0 0-1.466-1.475H6.405a1.483 1.483 0 0 0-1.485 1.481 1.48 1.48 0 0 0 1.485 1.476h8.856a1.47 1.47 0 0 0 1.466-1.476"/></defs><use xlinkHref="#mfid63"/><defs><path id="mfid64" d="M0 0h16.49v-17.104H0V0Z"/></defs></g><g stroke-width=".167" stroke="#000" stroke-linecap="round" stroke-linejoin="round" transform="matrix(0 -2.88 2.88 0 576.21 547.87)"><use fill-rule="evenodd" stroke="none" xlinkHref="#mfid64"/><use xlinkHref="#mfid64"/><defs><path id="mfid65" d="M0 0h6.496v-18.11H0V0Z"/></defs></g><g stroke-width=".167" stroke="#000" stroke-linecap="round" stroke-linejoin="round" transform="matrix(0 -2.88 2.88 0 577.66 570.9)"><use fill-rule="evenodd" stroke="none" xlinkHref="#mfid65"/><use xlinkHref="#mfid65"/><defs><path id="mfid66" d="m3.878 0 4.69-1.665v-11.783l-4.69-1.644A99.7 99.7 0 0 0 3.878 0Zm4.69-1.665h7.975a39.051 39.051 0 0 0 0-11.783H8.568v11.783ZM.449 0h3.429a99.7 99.7 0 0 1 0-15.092H.449A63.637 63.637 0 0 0 .449 0Z"/></defs></g><g stroke-width=".167" stroke="#000" stroke-linecap="round" stroke-linejoin="round" transform="matrix(0 -2.88 2.88 0 573.32 544.99)"><use fill-rule="evenodd" stroke="none" xlinkHref="#mfid66"/><use xlinkHref="#mfid66"/></g><g stroke-width=".167" stroke="#000" stroke-linecap="round" stroke-linejoin="round" transform="matrix(2.88 0 0 2.88 569.32 554.35)"><path stroke="none" d="M0-.125h.503V0H0z"/><defs><path id="mfid67" d="M1.132-4.372h.629v-.625h-.63v.625Zm.755 0h.628v-.625h-.629v.625Zm.754 0h.629v-.625H2.64v.625Zm.755 0h.628v-.625h-.628v.625Zm4.842 0h.629v-.625h-.63v.625Zm.754 0h.63v-.625h-.63v.625Zm.755 0h.629v-.625h-.63v.625Zm.754 0h.629v-.625h-.629v.625ZM0-3.123h1.006v-.625H0v.625Zm1.132 0h.629v-.625h-.63v.625Zm.755 0h.628v-.625h-.629v.625Zm.754 0h.629v-.625H2.64v.625Zm.755 0h.628v-.625h-.628v.625Zm.754 0h.63v-.625h-.63v.625Zm.755 0h.629v-.625h-.63v.625Zm.754 0h.63v-.625h-.63v.625Zm.755 0h.629v-.625h-.629v.625Zm.755 0h.629v-.625h-.63v.625Zm.754 0h.63v-.625h-.63v.625Zm.755 0h.629v-.625h-.63v.625Zm.754 0h.629v-.625h-.629v.625Zm-8.3.78h.629v-.624h-.63v.625Zm.755 0h.628v-.624h-.629v.625Zm.754 0h.629v-.624H2.64v.625Zm.755 0h.628v-.624h-.628v.625Zm.754 0h.63v-.624h-.63v.625Zm.755 0h.629v-.624h-.63v.625Zm.754 0h.63v-.624h-.63v.625Zm.755 0h.629v-.624h-.629v.625Zm.755 0h.629v-.624h-.63v.625Zm.754 0h.63v-.624h-.63v.625Zm.755 0h.629v-.624h-.63v.625Zm.754 0h.629v-.624h-.629v.625Zm-8.3.781h.629v-.624h-.63v.624Zm.755 0h.628v-.624h-.629v.624Zm.754 0h.629v-.624H2.64v.624Zm.755 0h.628v-.624h-.628v.624Zm.754 0h.63v-.624h-.63v.624Zm.755 0h.629v-.624h-.63v.624Zm.754 0h.63v-.624h-.63v.624Zm.755 0h.629v-.624h-.629v.624Zm.755 0h.629v-.624h-.63v.624Zm.754 0h.63v-.624h-.63v.624Zm.755 0h.629v-.624h-.63v.624Zm.754 0h.629v-.624h-.629v.624Zm-8.3.781h.629v-.624h-.63v.624Zm.755 0h.628v-.624h-.629v.624Zm.754 0h.629v-.624H2.64v.624Zm.755 0h.628v-.624h-.628v.624Zm.754 0h.63v-.624h-.63v.624Zm.755 0h.629v-.624h-.63v.624Zm.754 0h.63v-.624h-.63v.624Zm.755 0h.629v-.624h-.629v.624Zm.755 0h.629v-.624h-.63v.624Zm.754 0h.63v-.624h-.63v.624Zm.755 0h.629v-.624h-.63v.624ZM2.64 0h5.157v-.625H2.64V0Zm11.445 0h1.509v-.625h-1.509V0Zm1.635 0h.629v-.625h-.629V0Zm0-.78h.629v-.625h-.629v.624Zm-.818 0h.629v-.625h-.629v.624Zm-.817 0h.629v-.625h-.629v.624Zm0-.782h.629v-.624h-.629v.624Zm0-.78h.629v-.625h-.629v.625Zm.817 0h.629v-.625h-.629v.625Zm.818 0h.629v-.625h-.629v.625Zm0 .78h.629v-.624h-.629v.624Zm-.818 0h.629v-.624h-.629v.624Z"/></defs></g><g stroke-width=".167" stroke="#000" stroke-linecap="round" stroke-linejoin="round"><g transform="matrix(2.88 0 0 2.88 526.94 568.02)"><use fill-rule="evenodd" stroke="none" xlinkHref="#mfid67"/><defs><path id="mfid68" d="M0-4.372h.629v-.625H0v.625Zm0 2.03h1.006v-.625H0v.625Zm0 .78h1.006v-.624H0v.624ZM0-.78h1.006v-.624H0v.624ZM0 0h1.006v-.625H0V0Zm1.132 0h.629v-.625h-.63V0Zm.755 0h.628v-.625h-.629V0Zm6.036 0h.63v-.625h-.63V0Zm.755 0h.629v-.625h-.63V0Zm.754 0h.629v-.625h-.629V0Zm.755 0h1.006v-.625h-1.006V0Zm1.383 0h.629v-.625h-.629V0Zm.755 0h.629v-.625h-.629V0Zm.755 0h.628v-.625h-.628V0Zm3.458 0h.629v-1.374h-.629V0Zm0-1.5h.629v-1.467h-.629v1.468Zm0-1.623h.629v-.625h-.629v.625Zm-.817 0h.629v-.625h-.629v.625Zm-.818 0h.629v-.625h-.629v.625Zm-.817 0h.629v-.625h-.629v.625Zm-1.006 0h.628v-.625h-.628v.625Zm0 .78h.628v-.624h-.628v.625ZM12.325-.78h.629v-.624h-.629v.624ZM9.432-.79h1.761v-.625h-1.76v.625Zm.755-.791h1.006v-1.375h-1.006v1.375Zm1.383-.76h.629v-.625h-.629v.625Zm.755 0h.629v-.625h-.629v.625Zm0-.781h.629v-.625h-.629v.625Zm-2.138 0h1.006v-.625h-1.006v.625Zm6.037-1.624h.503v-.125h-.503v.125Zm-.755 0h.503v-.125h-.503v.125Zm-2.389.375h.628v-.625h-.628v.625Zm-.755 0h.629v-.625h-.629v.625Zm-.755 0h.629v-.625h-.629v.625Zm-4.653 0h.629v-.625h-.629v.625Zm-.755 0h.63v-.625h-.63v.625Zm-.754 0h.629v-.625h-.63v.625Zm-.755 0h.63v-.625h-.63v.625Zm6.917 1.249h.629v-.625h-.629v.625Z"/></defs></g><g transform="matrix(2.88 0 0 2.88 526.94 568.02)"><use fill-rule="evenodd" stroke="none" xlinkHref="#mfid68"/><defs><path id="mfid69" d="M0 0h62.997v-1.968H0V0Z"/></defs></g></g><g stroke-width=".167" stroke="#000" stroke-linecap="round" stroke-linejoin="round" transform="matrix(2.8798 -.03595 .03595 2.8798 460.91 468.39)"><use fill-rule="evenodd" stroke="none" xlinkHref="#mfid69"/><use xlinkHref="#mfid69"/><defs><path id="mfid70" d="M0 0h31.496v-62.992H0V0Z"/></defs></g><g stroke-width=".167" stroke="#000" stroke-linecap="round" stroke-linejoin="round" transform="matrix(0 -2.88 -2.88 0 460.4 457.73)"><use fill-rule="evenodd" stroke="none" xlinkHref="#mfid70"/><use xlinkHref="#mfid70"/><defs><path id="mfid71" d="M3.99-15.889c-.194 2.7-.198 5.41-.011 8.111a10.297 10.297 0 0 0 4.877 4.825h6.405a1.475 1.475 0 0 1 1.389.97h1.072a5.904 5.904 0 0 0 5.9-5.908v-7.873a5.9 5.9 0 0 0-5.9-5.901l-1.075.001a1.479 1.479 0 0 1-1.395.997H8.806a10.297 10.297 0 0 0-4.816 4.778Zm-.048 4.082a20.996 20.996 0 0 1 .513-6.889 1.1 1.1 0 0 0-1.478-1.476A11.263 11.263 0 0 0 .03-11.805a11.046 11.046 0 0 0 2.948 8.363A1.109 1.109 0 0 0 4.455-4.92a20.395 20.395 0 0 1-.513-6.888ZM16.738-1.481c0-.816-.662-1.477-1.477-1.476H6.405c-.815 0-1.475.661-1.474 1.476A1.478 1.478 0 0 0 6.405 0h8.856a1.479 1.479 0 0 0 1.477-1.481Zm-.011-20.666a1.47 1.47 0 0 0-1.466-1.475H6.405a1.483 1.483 0 0 0-1.485 1.481 1.48 1.48 0 0 0 1.485 1.476h8.856a1.47 1.47 0 0 0 1.466-1.476v-.006Z"/></defs></g><g stroke-width=".167" stroke="#000" stroke-linecap="round" stroke-linejoin="round" transform="matrix(0 2.88 2.88 0 582.55 290.95)"><use fill-rule="evenodd" stroke="none" xlinkHref="#mfid71"/><defs><path id="mfid72" d="M3.99-15.889c-.194 2.7-.198 5.41-.011 8.111a10.297 10.297 0 0 0 4.877 4.825h6.405a1.475 1.475 0 0 1 1.389.97h1.072a5.904 5.904 0 0 0 5.9-5.908v-7.873a5.9 5.9 0 0 0-5.9-5.901l-1.075.001a1.479 1.479 0 0 1-1.395.997H8.806a10.297 10.297 0 0 0-4.816 4.778Zm-.048 4.082a20.996 20.996 0 0 1 .513-6.889 1.1 1.1 0 0 0-1.478-1.476A11.263 11.263 0 0 0 .03-11.805a11.046 11.046 0 0 0 2.948 8.363A1.109 1.109 0 0 0 4.455-4.92a20.395 20.395 0 0 1-.513-6.888ZM16.738-1.481c0-.816-.662-1.477-1.477-1.476H6.405c-.815 0-1.475.661-1.474 1.476A1.478 1.478 0 0 0 6.405 0h8.856a1.479 1.479 0 0 0 1.477-1.481Zm-.011-20.666a1.47 1.47 0 0 0-1.466-1.475H6.405a1.483 1.483 0 0 0-1.485 1.481 1.48 1.48 0 0 0 1.485 1.476h8.856a1.47 1.47 0 0 0 1.466-1.476"/></defs><use xlinkHref="#mfid72"/><defs><path id="mfid73" d="M0 0h16.49v-17.104H0V0Z"/></defs></g><g stroke-width=".167" stroke="#000" stroke-linecap="round" stroke-linejoin="round" transform="matrix(0 2.88 -2.88 0 526.47 375.42)"><use fill-rule="evenodd" stroke="none" xlinkHref="#mfid73"/><use xlinkHref="#mfid73"/><defs><path id="mfid74" d="M0 0h6.496v-18.11H0V0Z"/></defs></g><g stroke-width=".167" stroke="#000" stroke-linecap="round" stroke-linejoin="round" transform="rotate(90 86.32 438.71) scale(2.88)"><use fill-rule="evenodd" stroke="none" xlinkHref="#mfid74"/><use xlinkHref="#mfid74"/><defs><path id="mfid75" d="m3.878 0 4.69-1.665v-11.783l-4.69-1.644A99.7 99.7 0 0 0 3.878 0Zm4.69-1.665h7.975a39.051 39.051 0 0 0 0-11.783H8.568v11.783ZM.449 0h3.429a99.7 99.7 0 0 1 0-15.092H.449A63.637 63.637 0 0 0 .449 0Z"/></defs></g><g stroke-width=".167" stroke="#000" stroke-linecap="round" stroke-linejoin="round" transform="matrix(0 2.88 -2.88 0 529.37 378.3)"><use fill-rule="evenodd" stroke="none" xlinkHref="#mfid75"/><use xlinkHref="#mfid75"/></g><g stroke-width=".167" stroke="#000" stroke-linecap="round" stroke-linejoin="round" transform="matrix(-2.88 0 0 -2.88 533.37 368.94)"><path stroke="none" d="M0-.125h.503V0H0z"/><defs><path id="mfid76" d="M1.132-4.372h.629v-.625h-.63v.625Zm.755 0h.628v-.625h-.629v.625Zm.754 0h.629v-.625H2.64v.625Zm.755 0h.628v-.625h-.628v.625Zm4.842 0h.629v-.625h-.63v.625Zm.754 0h.63v-.625h-.63v.625Zm.755 0h.629v-.625h-.63v.625Zm.754 0h.629v-.625h-.629v.625ZM0-3.123h1.006v-.625H0v.625Zm1.132 0h.629v-.625h-.63v.625Zm.755 0h.628v-.625h-.629v.625Zm.754 0h.629v-.625H2.64v.625Zm.755 0h.628v-.625h-.628v.625Zm.754 0h.63v-.625h-.63v.625Zm.755 0h.629v-.625h-.63v.625Zm.754 0h.63v-.625h-.63v.625Zm.755 0h.629v-.625h-.629v.625Zm.755 0h.629v-.625h-.63v.625Zm.754 0h.63v-.625h-.63v.625Zm.755 0h.629v-.625h-.63v.625Zm.754 0h.629v-.625h-.629v.625Zm-8.3.78h.629v-.624h-.63v.625Zm.755 0h.628v-.624h-.629v.625Zm.754 0h.629v-.624H2.64v.625Zm.755 0h.628v-.624h-.628v.625Zm.754 0h.63v-.624h-.63v.625Zm.755 0h.629v-.624h-.63v.625Zm.754 0h.63v-.624h-.63v.625Zm.755 0h.629v-.624h-.629v.625Zm.755 0h.629v-.624h-.63v.625Zm.754 0h.63v-.624h-.63v.625Zm.755 0h.629v-.624h-.63v.625Zm.754 0h.629v-.624h-.629v.625Zm-8.3.781h.629v-.624h-.63v.624Zm.755 0h.628v-.624h-.629v.624Zm.754 0h.629v-.624H2.64v.624Zm.755 0h.628v-.624h-.628v.624Zm.754 0h.63v-.624h-.63v.624Zm.755 0h.629v-.624h-.63v.624Zm.754 0h.63v-.624h-.63v.624Zm.755 0h.629v-.624h-.629v.624Zm.755 0h.629v-.624h-.63v.624Zm.754 0h.63v-.624h-.63v.624Zm.755 0h.629v-.624h-.63v.624Zm.754 0h.629v-.624h-.629v.624Zm-8.3.781h.629v-.624h-.63v.624Zm.755 0h.628v-.624h-.629v.624Zm.754 0h.629v-.624H2.64v.624Zm.755 0h.628v-.624h-.628v.624Zm.754 0h.63v-.624h-.63v.624Zm.755 0h.629v-.624h-.63v.624Zm.754 0h.63v-.624h-.63v.624Zm.755 0h.629v-.624h-.629v.624Zm.755 0h.629v-.624h-.63v.624Zm.754 0h.63v-.624h-.63v.624Zm.755 0h.629v-.624h-.63v.624ZM2.64 0h5.157v-.625H2.64V0Zm11.445 0h1.509v-.625h-1.509V0Zm1.635 0h.629v-.625h-.629V0Zm0-.78h.629v-.625h-.629v.624Zm-.818 0h.629v-.625h-.629v.624Zm-.817 0h.629v-.625h-.629v.624Zm0-.782h.629v-.624h-.629v.624Zm0-.78h.629v-.625h-.629v.625Zm.817 0h.629v-.625h-.629v.625Zm.818 0h.629v-.625h-.629v.625Zm0 .78h.629v-.624h-.629v.624Zm-.818 0h.629v-.624h-.629v.624Z"/></defs></g><g stroke-width=".167" stroke="#000" stroke-linecap="round" stroke-linejoin="round"><g transform="matrix(-2.88 0 0 -2.88 575.74 355.27)"><use fill-rule="evenodd" stroke="none" xlinkHref="#mfid76"/><defs><path id="mfid77" d="M0-4.372h.629v-.625H0v.625Zm0 2.03h1.006v-.625H0v.625Zm0 .78h1.006v-.624H0v.624ZM0-.78h1.006v-.624H0v.624ZM0 0h1.006v-.625H0V0Zm1.132 0h.629v-.625h-.63V0Zm.755 0h.628v-.625h-.629V0Zm6.036 0h.63v-.625h-.63V0Zm.755 0h.629v-.625h-.63V0Zm.754 0h.629v-.625h-.629V0Zm.755 0h1.006v-.625h-1.006V0Zm1.383 0h.629v-.625h-.629V0Zm.755 0h.629v-.625h-.629V0Zm.755 0h.628v-.625h-.628V0Zm3.458 0h.629v-1.374h-.629V0Zm0-1.5h.629v-1.467h-.629v1.468Zm0-1.623h.629v-.625h-.629v.625Zm-.817 0h.629v-.625h-.629v.625Zm-.818 0h.629v-.625h-.629v.625Zm-.817 0h.629v-.625h-.629v.625Zm-1.006 0h.628v-.625h-.628v.625Zm0 .78h.628v-.624h-.628v.625ZM12.325-.78h.629v-.624h-.629v.624ZM9.432-.79h1.761v-.625h-1.76v.625Zm.755-.791h1.006v-1.375h-1.006v1.375Zm1.383-.76h.629v-.625h-.629v.625Zm.755 0h.629v-.625h-.629v.625Zm0-.781h.629v-.625h-.629v.625Zm-2.138 0h1.006v-.625h-1.006v.625Zm6.037-1.624h.503v-.125h-.503v.125Zm-.755 0h.503v-.125h-.503v.125Zm-2.389.375h.628v-.625h-.628v.625Zm-.755 0h.629v-.625h-.629v.625Zm-.755 0h.629v-.625h-.629v.625Zm-4.653 0h.629v-.625h-.629v.625Zm-.755 0h.63v-.625h-.63v.625Zm-.754 0h.629v-.625h-.63v.625Zm-.755 0h.63v-.625h-.63v.625Zm6.917 1.249h.629v-.625h-.629v.625Z"/></defs></g><g transform="matrix(-2.88 0 0 -2.88 575.74 355.27)"><use fill-rule="evenodd" stroke="none" xlinkHref="#mfid77"/><defs><path id="mfid78" d="M0 0h62.997v-1.968H0V0Z"/></defs></g></g><g stroke-width=".167" stroke="#000" stroke-linecap="round" stroke-linejoin="round" transform="matrix(-2.8798 .03595 -.03595 -2.8798 641.78 454.9)"><use fill-rule="evenodd" stroke="none" xlinkHref="#mfid78"/><use xlinkHref="#mfid78"/><defs><path id="mfid79" d="M0 0h31.496v-62.992H0V0Z"/></defs></g><g stroke-width=".167" stroke="#000" stroke-linecap="round" stroke-linejoin="round" transform="matrix(0 -2.88 -2.88 0 642.36 821.19)"><use fill-rule="evenodd" stroke="none" xlinkHref="#mfid79"/><use xlinkHref="#mfid79"/><defs><path id="mfid80" d="M3.99-15.889c-.194 2.7-.198 5.41-.011 8.111a10.297 10.297 0 0 0 4.877 4.825h6.405a1.475 1.475 0 0 1 1.389.97h1.072a5.904 5.904 0 0 0 5.9-5.908v-7.873a5.9 5.9 0 0 0-5.9-5.901l-1.075.001a1.479 1.479 0 0 1-1.395.997H8.806a10.297 10.297 0 0 0-4.816 4.778Zm-.048 4.082a20.996 20.996 0 0 1 .513-6.889 1.1 1.1 0 0 0-1.478-1.476A11.263 11.263 0 0 0 .03-11.805a11.046 11.046 0 0 0 2.948 8.363A1.109 1.109 0 0 0 4.455-4.92a20.395 20.395 0 0 1-.513-6.888ZM16.738-1.481c0-.816-.662-1.477-1.477-1.476H6.405c-.815 0-1.475.661-1.474 1.476A1.478 1.478 0 0 0 6.405 0h8.856a1.479 1.479 0 0 0 1.477-1.481Zm-.011-20.666a1.47 1.47 0 0 0-1.466-1.475H6.405a1.483 1.483 0 0 0-1.485 1.481 1.48 1.48 0 0 0 1.485 1.476h8.856a1.47 1.47 0 0 0 1.466-1.476v-.006Z"/></defs></g><g stroke-width=".167" stroke="#000" stroke-linecap="round" stroke-linejoin="round" transform="matrix(0 2.88 2.88 0 764.52 654.4)"><use fill-rule="evenodd" stroke="none" xlinkHref="#mfid80"/><defs><path id="mfid81" d="M3.99-15.889c-.194 2.7-.198 5.41-.011 8.111a10.297 10.297 0 0 0 4.877 4.825h6.405a1.475 1.475 0 0 1 1.389.97h1.072a5.904 5.904 0 0 0 5.9-5.908v-7.873a5.9 5.9 0 0 0-5.9-5.901l-1.075.001a1.479 1.479 0 0 1-1.395.997H8.806a10.297 10.297 0 0 0-4.816 4.778Zm-.048 4.082a20.996 20.996 0 0 1 .513-6.889 1.1 1.1 0 0 0-1.478-1.476A11.263 11.263 0 0 0 .03-11.805a11.046 11.046 0 0 0 2.948 8.363A1.109 1.109 0 0 0 4.455-4.92a20.395 20.395 0 0 1-.513-6.888ZM16.738-1.481c0-.816-.662-1.477-1.477-1.476H6.405c-.815 0-1.475.661-1.474 1.476A1.478 1.478 0 0 0 6.405 0h8.856a1.479 1.479 0 0 0 1.477-1.481Zm-.011-20.666a1.47 1.47 0 0 0-1.466-1.475H6.405a1.483 1.483 0 0 0-1.485 1.481 1.48 1.48 0 0 0 1.485 1.476h8.856a1.47 1.47 0 0 0 1.466-1.476"/></defs><use xlinkHref="#mfid81"/><defs><path id="mfid82" d="M0 0h16.49v-17.104H0V0Z"/></defs></g><g stroke-width=".167" stroke="#000" stroke-linecap="round" stroke-linejoin="round" transform="matrix(0 2.88 -2.88 0 708.44 738.87)"><use fill-rule="evenodd" stroke="none" xlinkHref="#mfid82"/><use xlinkHref="#mfid82"/><defs><path id="mfid83" d="M0 0h6.496v-18.11H0V0Z"/></defs></g><g stroke-width=".167" stroke="#000" stroke-linecap="round" stroke-linejoin="round" transform="rotate(90 -4.43 711.42) scale(2.88)"><use fill-rule="evenodd" stroke="none" xlinkHref="#mfid83"/><use xlinkHref="#mfid83"/><defs><path id="mfid84" d="m3.878 0 4.69-1.665v-11.783l-4.69-1.644A99.7 99.7 0 0 0 3.878 0Zm4.69-1.665h7.975a39.051 39.051 0 0 0 0-11.783H8.568v11.783ZM.449 0h3.429a99.7 99.7 0 0 1 0-15.092H.449A63.637 63.637 0 0 0 .449 0Z"/></defs></g><g stroke-width=".167" stroke="#000" stroke-linecap="round" stroke-linejoin="round" transform="matrix(0 2.88 -2.88 0 711.34 741.75)"><use fill-rule="evenodd" stroke="none" xlinkHref="#mfid84"/><use xlinkHref="#mfid84"/></g><g stroke-width=".167" stroke="#000" stroke-linecap="round" stroke-linejoin="round" transform="matrix(-2.88 0 0 -2.88 715.33 732.4)"><path stroke="none" d="M0-.125h.503V0H0z"/><defs><path id="mfid85" d="M1.132-4.372h.629v-.625h-.63v.625Zm.755 0h.628v-.625h-.629v.625Zm.754 0h.629v-.625H2.64v.625Zm.755 0h.628v-.625h-.628v.625Zm4.842 0h.629v-.625h-.63v.625Zm.754 0h.63v-.625h-.63v.625Zm.755 0h.629v-.625h-.63v.625Zm.754 0h.629v-.625h-.629v.625ZM0-3.123h1.006v-.625H0v.625Zm1.132 0h.629v-.625h-.63v.625Zm.755 0h.628v-.625h-.629v.625Zm.754 0h.629v-.625H2.64v.625Zm.755 0h.628v-.625h-.628v.625Zm.754 0h.63v-.625h-.63v.625Zm.755 0h.629v-.625h-.63v.625Zm.754 0h.63v-.625h-.63v.625Zm.755 0h.629v-.625h-.629v.625Zm.755 0h.629v-.625h-.63v.625Zm.754 0h.63v-.625h-.63v.625Zm.755 0h.629v-.625h-.63v.625Zm.754 0h.629v-.625h-.629v.625Zm-8.3.78h.629v-.624h-.63v.625Zm.755 0h.628v-.624h-.629v.625Zm.754 0h.629v-.624H2.64v.625Zm.755 0h.628v-.624h-.628v.625Zm.754 0h.63v-.624h-.63v.625Zm.755 0h.629v-.624h-.63v.625Zm.754 0h.63v-.624h-.63v.625Zm.755 0h.629v-.624h-.629v.625Zm.755 0h.629v-.624h-.63v.625Zm.754 0h.63v-.624h-.63v.625Zm.755 0h.629v-.624h-.63v.625Zm.754 0h.629v-.624h-.629v.625Zm-8.3.781h.629v-.624h-.63v.624Zm.755 0h.628v-.624h-.629v.624Zm.754 0h.629v-.624H2.64v.624Zm.755 0h.628v-.624h-.628v.624Zm.754 0h.63v-.624h-.63v.624Zm.755 0h.629v-.624h-.63v.624Zm.754 0h.63v-.624h-.63v.624Zm.755 0h.629v-.624h-.629v.624Zm.755 0h.629v-.624h-.63v.624Zm.754 0h.63v-.624h-.63v.624Zm.755 0h.629v-.624h-.63v.624Zm.754 0h.629v-.624h-.629v.624Zm-8.3.781h.629v-.624h-.63v.624Zm.755 0h.628v-.624h-.629v.624Zm.754 0h.629v-.624H2.64v.624Zm.755 0h.628v-.624h-.628v.624Zm.754 0h.63v-.624h-.63v.624Zm.755 0h.629v-.624h-.63v.624Zm.754 0h.63v-.624h-.63v.624Zm.755 0h.629v-.624h-.629v.624Zm.755 0h.629v-.624h-.63v.624Zm.754 0h.63v-.624h-.63v.624Zm.755 0h.629v-.624h-.63v.624ZM2.64 0h5.157v-.625H2.64V0Zm11.445 0h1.509v-.625h-1.509V0Zm1.635 0h.629v-.625h-.629V0Zm0-.78h.629v-.625h-.629v.624Zm-.818 0h.629v-.625h-.629v.624Zm-.817 0h.629v-.625h-.629v.624Zm0-.782h.629v-.624h-.629v.624Zm0-.78h.629v-.625h-.629v.625Zm.817 0h.629v-.625h-.629v.625Zm.818 0h.629v-.625h-.629v.625Zm0 .78h.629v-.624h-.629v.624Zm-.818 0h.629v-.624h-.629v.624Z"/></defs></g><g stroke-width=".167" stroke="#000" stroke-linecap="round" stroke-linejoin="round"><g transform="matrix(-2.88 0 0 -2.88 757.71 718.72)"><use fill-rule="evenodd" stroke="none" xlinkHref="#mfid85"/><defs><path id="mfid86" d="M0-4.372h.629v-.625H0v.625Zm0 2.03h1.006v-.625H0v.625Zm0 .78h1.006v-.624H0v.624ZM0-.78h1.006v-.624H0v.624ZM0 0h1.006v-.625H0V0Zm1.132 0h.629v-.625h-.63V0Zm.755 0h.628v-.625h-.629V0Zm6.036 0h.63v-.625h-.63V0Zm.755 0h.629v-.625h-.63V0Zm.754 0h.629v-.625h-.629V0Zm.755 0h1.006v-.625h-1.006V0Zm1.383 0h.629v-.625h-.629V0Zm.755 0h.629v-.625h-.629V0Zm.755 0h.628v-.625h-.628V0Zm3.458 0h.629v-1.374h-.629V0Zm0-1.5h.629v-1.467h-.629v1.468Zm0-1.623h.629v-.625h-.629v.625Zm-.817 0h.629v-.625h-.629v.625Zm-.818 0h.629v-.625h-.629v.625Zm-.817 0h.629v-.625h-.629v.625Zm-1.006 0h.628v-.625h-.628v.625Zm0 .78h.628v-.624h-.628v.625ZM12.325-.78h.629v-.624h-.629v.624ZM9.432-.79h1.761v-.625h-1.76v.625Zm.755-.791h1.006v-1.375h-1.006v1.375Zm1.383-.76h.629v-.625h-.629v.625Zm.755 0h.629v-.625h-.629v.625Zm0-.781h.629v-.625h-.629v.625Zm-2.138 0h1.006v-.625h-1.006v.625Zm6.037-1.624h.503v-.125h-.503v.125Zm-.755 0h.503v-.125h-.503v.125Zm-2.389.375h.628v-.625h-.628v.625Zm-.755 0h.629v-.625h-.629v.625Zm-.755 0h.629v-.625h-.629v.625Zm-4.653 0h.629v-.625h-.629v.625Zm-.755 0h.63v-.625h-.63v.625Zm-.754 0h.629v-.625h-.63v.625Zm-.755 0h.63v-.625h-.63v.625Zm6.917 1.249h.629v-.625h-.629v.625Z"/></defs></g><g transform="matrix(-2.88 0 0 -2.88 757.71 718.72)"><use fill-rule="evenodd" stroke="none" xlinkHref="#mfid86"/><defs><path id="mfid87" d="M0 0h62.997v-1.968H0V0Z"/></defs></g></g><g stroke-width=".167" stroke="#000" stroke-linecap="round" stroke-linejoin="round" transform="matrix(-2.8798 .03595 -.03595 -2.8798 823.75 818.35)"><use fill-rule="evenodd" stroke="none" xlinkHref="#mfid87"/><use xlinkHref="#mfid87"/><defs><path id="mfid88" d="M0 0h31.496v-62.992H0V0Z"/></defs></g><g stroke-width=".167" stroke="#000" stroke-linecap="round" stroke-linejoin="round" transform="matrix(0 2.88 2.88 0 642.29 829.01)"><use fill-rule="evenodd" stroke="none" xlinkHref="#mfid88"/><use xlinkHref="#mfid88"/><defs><path id="mfid89" d="M3.99-15.889c-.194 2.7-.198 5.41-.011 8.111a10.297 10.297 0 0 0 4.877 4.825h6.405a1.475 1.475 0 0 1 1.389.97h1.072a5.904 5.904 0 0 0 5.9-5.908v-7.873a5.9 5.9 0 0 0-5.9-5.901l-1.075.001a1.479 1.479 0 0 1-1.395.997H8.806a10.297 10.297 0 0 0-4.816 4.778Zm-.048 4.082a20.996 20.996 0 0 1 .513-6.889 1.1 1.1 0 0 0-1.478-1.476A11.263 11.263 0 0 0 .03-11.805a11.046 11.046 0 0 0 2.948 8.363A1.109 1.109 0 0 0 4.455-4.92a20.395 20.395 0 0 1-.513-6.888ZM16.738-1.481c0-.816-.662-1.477-1.477-1.476H6.405c-.815 0-1.475.661-1.474 1.476A1.478 1.478 0 0 0 6.405 0h8.856a1.479 1.479 0 0 0 1.477-1.481Zm-.011-20.666a1.47 1.47 0 0 0-1.466-1.475H6.405a1.483 1.483 0 0 0-1.485 1.481 1.48 1.48 0 0 0 1.485 1.476h8.856a1.47 1.47 0 0 0 1.466-1.476v-.006Z"/></defs></g><g stroke-width=".167" stroke="#000" stroke-linecap="round" stroke-linejoin="round" transform="matrix(0 -2.88 -2.88 0 520.13 995.8)"><use fill-rule="evenodd" stroke="none" xlinkHref="#mfid89"/><defs><path id="mfid90" d="M3.99-15.889c-.194 2.7-.198 5.41-.011 8.111a10.297 10.297 0 0 0 4.877 4.825h6.405a1.475 1.475 0 0 1 1.389.97h1.072a5.904 5.904 0 0 0 5.9-5.908v-7.873a5.9 5.9 0 0 0-5.9-5.901l-1.075.001a1.479 1.479 0 0 1-1.395.997H8.806a10.297 10.297 0 0 0-4.816 4.778Zm-.048 4.082a20.996 20.996 0 0 1 .513-6.889 1.1 1.1 0 0 0-1.478-1.476A11.263 11.263 0 0 0 .03-11.805a11.046 11.046 0 0 0 2.948 8.363A1.109 1.109 0 0 0 4.455-4.92a20.395 20.395 0 0 1-.513-6.888ZM16.738-1.481c0-.816-.662-1.477-1.477-1.476H6.405c-.815 0-1.475.661-1.474 1.476A1.478 1.478 0 0 0 6.405 0h8.856a1.479 1.479 0 0 0 1.477-1.481Zm-.011-20.666a1.47 1.47 0 0 0-1.466-1.475H6.405a1.483 1.483 0 0 0-1.485 1.481 1.48 1.48 0 0 0 1.485 1.476h8.856a1.47 1.47 0 0 0 1.466-1.476"/></defs><use xlinkHref="#mfid90"/><defs><path id="mfid91" d="M0 0h16.49v-17.104H0V0Z"/></defs></g><g stroke-width=".167" stroke="#000" stroke-linecap="round" stroke-linejoin="round" transform="matrix(0 -2.88 2.88 0 576.21 911.33)"><use fill-rule="evenodd" stroke="none" xlinkHref="#mfid91"/><use xlinkHref="#mfid91"/><defs><path id="mfid92" d="M0 0h6.496v-18.11H0V0Z"/></defs></g><g stroke-width=".167" stroke="#000" stroke-linecap="round" stroke-linejoin="round" transform="matrix(0 -2.88 2.88 0 577.66 934.35)"><use fill-rule="evenodd" stroke="none" xlinkHref="#mfid92"/><use xlinkHref="#mfid92"/><defs><path id="mfid93" d="m3.878 0 4.69-1.665v-11.783l-4.69-1.644A99.7 99.7 0 0 0 3.878 0Zm4.69-1.665h7.975a39.051 39.051 0 0 0 0-11.783H8.568v11.783ZM.449 0h3.429a99.7 99.7 0 0 1 0-15.092H.449A63.637 63.637 0 0 0 .449 0Z"/></defs></g><g stroke-width=".167" stroke="#000" stroke-linecap="round" stroke-linejoin="round" transform="matrix(0 -2.88 2.88 0 573.32 908.45)"><use fill-rule="evenodd" stroke="none" xlinkHref="#mfid93"/><use xlinkHref="#mfid93"/></g><g stroke-width=".167" stroke="#000" stroke-linecap="round" stroke-linejoin="round" transform="matrix(2.88 0 0 2.88 569.32 917.8)"><path stroke="none" d="M0-.125h.503V0H0z"/><defs><path id="mfid94" d="M1.132-4.372h.629v-.625h-.63v.625Zm.755 0h.628v-.625h-.629v.625Zm.754 0h.629v-.625H2.64v.625Zm.755 0h.628v-.625h-.628v.625Zm4.842 0h.629v-.625h-.63v.625Zm.754 0h.63v-.625h-.63v.625Zm.755 0h.629v-.625h-.63v.625Zm.754 0h.629v-.625h-.629v.625ZM0-3.123h1.006v-.625H0v.625Zm1.132 0h.629v-.625h-.63v.625Zm.755 0h.628v-.625h-.629v.625Zm.754 0h.629v-.625H2.64v.625Zm.755 0h.628v-.625h-.628v.625Zm.754 0h.63v-.625h-.63v.625Zm.755 0h.629v-.625h-.63v.625Zm.754 0h.63v-.625h-.63v.625Zm.755 0h.629v-.625h-.629v.625Zm.755 0h.629v-.625h-.63v.625Zm.754 0h.63v-.625h-.63v.625Zm.755 0h.629v-.625h-.63v.625Zm.754 0h.629v-.625h-.629v.625Zm-8.3.78h.629v-.624h-.63v.625Zm.755 0h.628v-.624h-.629v.625Zm.754 0h.629v-.624H2.64v.625Zm.755 0h.628v-.624h-.628v.625Zm.754 0h.63v-.624h-.63v.625Zm.755 0h.629v-.624h-.63v.625Zm.754 0h.63v-.624h-.63v.625Zm.755 0h.629v-.624h-.629v.625Zm.755 0h.629v-.624h-.63v.625Zm.754 0h.63v-.624h-.63v.625Zm.755 0h.629v-.624h-.63v.625Zm.754 0h.629v-.624h-.629v.625Zm-8.3.781h.629v-.624h-.63v.624Zm.755 0h.628v-.624h-.629v.624Zm.754 0h.629v-.624H2.64v.624Zm.755 0h.628v-.624h-.628v.624Zm.754 0h.63v-.624h-.63v.624Zm.755 0h.629v-.624h-.63v.624Zm.754 0h.63v-.624h-.63v.624Zm.755 0h.629v-.624h-.629v.624Zm.755 0h.629v-.624h-.63v.624Zm.754 0h.63v-.624h-.63v.624Zm.755 0h.629v-.624h-.63v.624Zm.754 0h.629v-.624h-.629v.624Zm-8.3.781h.629v-.624h-.63v.624Zm.755 0h.628v-.624h-.629v.624Zm.754 0h.629v-.624H2.64v.624Zm.755 0h.628v-.624h-.628v.624Zm.754 0h.63v-.624h-.63v.624Zm.755 0h.629v-.624h-.63v.624Zm.754 0h.63v-.624h-.63v.624Zm.755 0h.629v-.624h-.629v.624Zm.755 0h.629v-.624h-.63v.624Zm.754 0h.63v-.624h-.63v.624Zm.755 0h.629v-.624h-.63v.624ZM2.64 0h5.157v-.625H2.64V0Zm11.445 0h1.509v-.625h-1.509V0Zm1.635 0h.629v-.625h-.629V0Zm0-.78h.629v-.625h-.629v.624Zm-.818 0h.629v-.625h-.629v.624Zm-.817 0h.629v-.625h-.629v.624Zm0-.782h.629v-.624h-.629v.624Zm0-.78h.629v-.625h-.629v.625Zm.817 0h.629v-.625h-.629v.625Zm.818 0h.629v-.625h-.629v.625Zm0 .78h.629v-.624h-.629v.624Zm-.818 0h.629v-.624h-.629v.624Z"/></defs></g><g stroke-width=".167" stroke="#000" stroke-linecap="round" stroke-linejoin="round"><g transform="matrix(2.88 0 0 2.88 526.94 931.47)"><use fill-rule="evenodd" stroke="none" xlinkHref="#mfid94"/><defs><path id="mfid95" d="M0-4.372h.629v-.625H0v.625Zm0 2.03h1.006v-.625H0v.625Zm0 .78h1.006v-.624H0v.624ZM0-.78h1.006v-.624H0v.624ZM0 0h1.006v-.625H0V0Zm1.132 0h.629v-.625h-.63V0Zm.755 0h.628v-.625h-.629V0Zm6.036 0h.63v-.625h-.63V0Zm.755 0h.629v-.625h-.63V0Zm.754 0h.629v-.625h-.629V0Zm.755 0h1.006v-.625h-1.006V0Zm1.383 0h.629v-.625h-.629V0Zm.755 0h.629v-.625h-.629V0Zm.755 0h.628v-.625h-.628V0Zm3.458 0h.629v-1.374h-.629V0Zm0-1.5h.629v-1.467h-.629v1.468Zm0-1.623h.629v-.625h-.629v.625Zm-.817 0h.629v-.625h-.629v.625Zm-.818 0h.629v-.625h-.629v.625Zm-.817 0h.629v-.625h-.629v.625Zm-1.006 0h.628v-.625h-.628v.625Zm0 .78h.628v-.624h-.628v.625ZM12.325-.78h.629v-.624h-.629v.624ZM9.432-.79h1.761v-.625h-1.76v.625Zm.755-.791h1.006v-1.375h-1.006v1.375Zm1.383-.76h.629v-.625h-.629v.625Zm.755 0h.629v-.625h-.629v.625Zm0-.781h.629v-.625h-.629v.625Zm-2.138 0h1.006v-.625h-1.006v.625Zm6.037-1.624h.503v-.125h-.503v.125Zm-.755 0h.503v-.125h-.503v.125Zm-2.389.375h.628v-.625h-.628v.625Zm-.755 0h.629v-.625h-.629v.625Zm-.755 0h.629v-.625h-.629v.625Zm-4.653 0h.629v-.625h-.629v.625Zm-.755 0h.63v-.625h-.63v.625Zm-.754 0h.629v-.625h-.63v.625Zm-.755 0h.63v-.625h-.63v.625Zm6.917 1.249h.629v-.625h-.629v.625Z"/></defs></g><g transform="matrix(2.88 0 0 2.88 526.94 931.47)"><use fill-rule="evenodd" stroke="none" xlinkHref="#mfid95"/><defs><path id="mfid96" d="M0 0h62.997v-1.968H0V0Z"/></defs></g></g><g stroke-width=".167" stroke="#000" stroke-linecap="round" stroke-linejoin="round" transform="matrix(2.8798 -.03595 .03595 2.8798 460.91 831.84)"><use fill-rule="evenodd" stroke="none" xlinkHref="#mfid96"/><use xlinkHref="#mfid96"/><defs><path id="mfid97" d="M0 0h31.496v-62.992H0V0Z"/></defs></g><g stroke-width=".167" stroke="#000" stroke-linecap="round" stroke-linejoin="round" transform="matrix(0 -2.88 -2.88 0 460.4 821.19)"><use fill-rule="evenodd" stroke="none" xlinkHref="#mfid97"/><use xlinkHref="#mfid97"/><defs><path id="mfid98" d="M3.99-15.889c-.194 2.7-.198 5.41-.011 8.111a10.297 10.297 0 0 0 4.877 4.825h6.405a1.475 1.475 0 0 1 1.389.97h1.072a5.904 5.904 0 0 0 5.9-5.908v-7.873a5.9 5.9 0 0 0-5.9-5.901l-1.075.001a1.479 1.479 0 0 1-1.395.997H8.806a10.297 10.297 0 0 0-4.816 4.778Zm-.048 4.082a20.996 20.996 0 0 1 .513-6.889 1.1 1.1 0 0 0-1.478-1.476A11.263 11.263 0 0 0 .03-11.805a11.046 11.046 0 0 0 2.948 8.363A1.109 1.109 0 0 0 4.455-4.92a20.395 20.395 0 0 1-.513-6.888ZM16.738-1.481c0-.816-.662-1.477-1.477-1.476H6.405c-.815 0-1.475.661-1.474 1.476A1.478 1.478 0 0 0 6.405 0h8.856a1.479 1.479 0 0 0 1.477-1.481Zm-.011-20.666a1.47 1.47 0 0 0-1.466-1.475H6.405a1.483 1.483 0 0 0-1.485 1.481 1.48 1.48 0 0 0 1.485 1.476h8.856a1.47 1.47 0 0 0 1.466-1.476v-.006Z"/></defs></g><g stroke-width=".167" stroke="#000" stroke-linecap="round" stroke-linejoin="round" transform="matrix(0 2.88 2.88 0 582.55 654.4)"><use fill-rule="evenodd" stroke="none" xlinkHref="#mfid98"/><defs><path id="mfid99" d="M3.99-15.889c-.194 2.7-.198 5.41-.011 8.111a10.297 10.297 0 0 0 4.877 4.825h6.405a1.475 1.475 0 0 1 1.389.97h1.072a5.904 5.904 0 0 0 5.9-5.908v-7.873a5.9 5.9 0 0 0-5.9-5.901l-1.075.001a1.479 1.479 0 0 1-1.395.997H8.806a10.297 10.297 0 0 0-4.816 4.778Zm-.048 4.082a20.996 20.996 0 0 1 .513-6.889 1.1 1.1 0 0 0-1.478-1.476A11.263 11.263 0 0 0 .03-11.805a11.046 11.046 0 0 0 2.948 8.363A1.109 1.109 0 0 0 4.455-4.92a20.395 20.395 0 0 1-.513-6.888ZM16.738-1.481c0-.816-.662-1.477-1.477-1.476H6.405c-.815 0-1.475.661-1.474 1.476A1.478 1.478 0 0 0 6.405 0h8.856a1.479 1.479 0 0 0 1.477-1.481Zm-.011-20.666a1.47 1.47 0 0 0-1.466-1.475H6.405a1.483 1.483 0 0 0-1.485 1.481 1.48 1.48 0 0 0 1.485 1.476h8.856a1.47 1.47 0 0 0 1.466-1.476"/></defs><use xlinkHref="#mfid99"/><defs><path id="mfid100" d="M0 0h16.49v-17.104H0V0Z"/></defs></g><g stroke-width=".167" stroke="#000" stroke-linecap="round" stroke-linejoin="round" transform="rotate(90 -106.2 632.67) scale(2.88)"><use fill-rule="evenodd" stroke="none" xlinkHref="#mfid100"/><use xlinkHref="#mfid100"/><defs><path id="mfid101" d="M0 0h6.496v-18.11H0V0Z"/></defs></g><g stroke-width=".167" stroke="#000" stroke-linecap="round" stroke-linejoin="round" transform="rotate(90 -95.41 620.44) scale(2.88)"><use fill-rule="evenodd" stroke="none" xlinkHref="#mfid101"/><use xlinkHref="#mfid101"/><defs><path id="mfid102" d="m3.878 0 4.69-1.665v-11.783l-4.69-1.644A99.7 99.7 0 0 0 3.878 0Zm4.69-1.665h7.975a39.051 39.051 0 0 0 0-11.783H8.568v11.783ZM.449 0h3.429a99.7 99.7 0 0 1 0-15.092H.449A63.637 63.637 0 0 0 .449 0Z"/></defs></g><g stroke-width=".167" stroke="#000" stroke-linecap="round" stroke-linejoin="round" transform="matrix(0 2.88 -2.88 0 529.37 741.75)"><use fill-rule="evenodd" stroke="none" xlinkHref="#mfid102"/><use xlinkHref="#mfid102"/></g><g stroke-width=".167" stroke="#000" stroke-linecap="round" stroke-linejoin="round" transform="matrix(-2.88 0 0 -2.88 533.37 732.4)"><path stroke="none" d="M0-.125h.503V0H0z"/><defs><path id="mfid103" d="M1.132-4.372h.629v-.625h-.63v.625Zm.755 0h.628v-.625h-.629v.625Zm.754 0h.629v-.625H2.64v.625Zm.755 0h.628v-.625h-.628v.625Zm4.842 0h.629v-.625h-.63v.625Zm.754 0h.63v-.625h-.63v.625Zm.755 0h.629v-.625h-.63v.625Zm.754 0h.629v-.625h-.629v.625ZM0-3.123h1.006v-.625H0v.625Zm1.132 0h.629v-.625h-.63v.625Zm.755 0h.628v-.625h-.629v.625Zm.754 0h.629v-.625H2.64v.625Zm.755 0h.628v-.625h-.628v.625Zm.754 0h.63v-.625h-.63v.625Zm.755 0h.629v-.625h-.63v.625Zm.754 0h.63v-.625h-.63v.625Zm.755 0h.629v-.625h-.629v.625Zm.755 0h.629v-.625h-.63v.625Zm.754 0h.63v-.625h-.63v.625Zm.755 0h.629v-.625h-.63v.625Zm.754 0h.629v-.625h-.629v.625Zm-8.3.78h.629v-.624h-.63v.625Zm.755 0h.628v-.624h-.629v.625Zm.754 0h.629v-.624H2.64v.625Zm.755 0h.628v-.624h-.628v.625Zm.754 0h.63v-.624h-.63v.625Zm.755 0h.629v-.624h-.63v.625Zm.754 0h.63v-.624h-.63v.625Zm.755 0h.629v-.624h-.629v.625Zm.755 0h.629v-.624h-.63v.625Zm.754 0h.63v-.624h-.63v.625Zm.755 0h.629v-.624h-.63v.625Zm.754 0h.629v-.624h-.629v.625Zm-8.3.781h.629v-.624h-.63v.624Zm.755 0h.628v-.624h-.629v.624Zm.754 0h.629v-.624H2.64v.624Zm.755 0h.628v-.624h-.628v.624Zm.754 0h.63v-.624h-.63v.624Zm.755 0h.629v-.624h-.63v.624Zm.754 0h.63v-.624h-.63v.624Zm.755 0h.629v-.624h-.629v.624Zm.755 0h.629v-.624h-.63v.624Zm.754 0h.63v-.624h-.63v.624Zm.755 0h.629v-.624h-.63v.624Zm.754 0h.629v-.624h-.629v.624Zm-8.3.781h.629v-.624h-.63v.624Zm.755 0h.628v-.624h-.629v.624Zm.754 0h.629v-.624H2.64v.624Zm.755 0h.628v-.624h-.628v.624Zm.754 0h.63v-.624h-.63v.624Zm.755 0h.629v-.624h-.63v.624Zm.754 0h.63v-.624h-.63v.624Zm.755 0h.629v-.624h-.629v.624Zm.755 0h.629v-.624h-.63v.624Zm.754 0h.63v-.624h-.63v.624Zm.755 0h.629v-.624h-.63v.624ZM2.64 0h5.157v-.625H2.64V0Zm11.445 0h1.509v-.625h-1.509V0Zm1.635 0h.629v-.625h-.629V0Zm0-.78h.629v-.625h-.629v.624Zm-.818 0h.629v-.625h-.629v.624Zm-.817 0h.629v-.625h-.629v.624Zm0-.782h.629v-.624h-.629v.624Zm0-.78h.629v-.625h-.629v.625Zm.817 0h.629v-.625h-.629v.625Zm.818 0h.629v-.625h-.629v.625Zm0 .78h.629v-.624h-.629v.624Zm-.818 0h.629v-.624h-.629v.624Z"/></defs></g><g stroke-width=".167" stroke="#000" stroke-linecap="round" stroke-linejoin="round"><g transform="rotate(180 287.87 359.36) scale(2.88)"><use fill-rule="evenodd" stroke="none" xlinkHref="#mfid103"/><defs><path id="mfid104" d="M0-4.372h.629v-.625H0v.625Zm0 2.03h1.006v-.625H0v.625Zm0 .78h1.006v-.624H0v.624ZM0-.78h1.006v-.624H0v.624ZM0 0h1.006v-.625H0V0Zm1.132 0h.629v-.625h-.63V0Zm.755 0h.628v-.625h-.629V0Zm6.036 0h.63v-.625h-.63V0Zm.755 0h.629v-.625h-.63V0Zm.754 0h.629v-.625h-.629V0Zm.755 0h1.006v-.625h-1.006V0Zm1.383 0h.629v-.625h-.629V0Zm.755 0h.629v-.625h-.629V0Zm.755 0h.628v-.625h-.628V0Zm3.458 0h.629v-1.374h-.629V0Zm0-1.5h.629v-1.467h-.629v1.468Zm0-1.623h.629v-.625h-.629v.625Zm-.817 0h.629v-.625h-.629v.625Zm-.818 0h.629v-.625h-.629v.625Zm-.817 0h.629v-.625h-.629v.625Zm-1.006 0h.628v-.625h-.628v.625Zm0 .78h.628v-.624h-.628v.625ZM12.325-.78h.629v-.624h-.629v.624ZM9.432-.79h1.761v-.625h-1.76v.625Zm.755-.791h1.006v-1.375h-1.006v1.375Zm1.383-.76h.629v-.625h-.629v.625Zm.755 0h.629v-.625h-.629v.625Zm0-.781h.629v-.625h-.629v.625Zm-2.138 0h1.006v-.625h-1.006v.625Zm6.037-1.624h.503v-.125h-.503v.125Zm-.755 0h.503v-.125h-.503v.125Zm-2.389.375h.628v-.625h-.628v.625Zm-.755 0h.629v-.625h-.629v.625Zm-.755 0h.629v-.625h-.629v.625Zm-4.653 0h.629v-.625h-.629v.625Zm-.755 0h.63v-.625h-.63v.625Zm-.754 0h.629v-.625h-.63v.625Zm-.755 0h.63v-.625h-.63v.625Zm6.917 1.249h.629v-.625h-.629v.625Z"/></defs></g><g transform="rotate(180 287.87 359.36) scale(2.88)"><use fill-rule="evenodd" stroke="none" xlinkHref="#mfid104"/><defs><path id="mfid105" d="M0 0h62.997v-1.968H0V0Z"/></defs></g></g><g stroke-width=".167" stroke="#000" stroke-linecap="round" stroke-linejoin="round" transform="matrix(-2.8798 .03595 -.03595 -2.8798 641.78 818.35)"><use fill-rule="evenodd" stroke="none" xlinkHref="#mfid105"/><use xlinkHref="#mfid105"/></g><g stroke-width=".167" stroke="#000" stroke-linecap="round" stroke-linejoin="round" transform="matrix(2.88 0 0 -2.88 129.1 699.72)"><path stroke="none" d="M0-62.992h31.496V0H0z"/><defs><path id="mfid106" d="M0 0h31.496v-62.992H0V0Z"/></defs><use xlinkHref="#mfid106"/><defs><path id="mfid107" d="M3.99-15.889c-.194 2.7-.198 5.41-.011 8.111a10.297 10.297 0 0 0 4.877 4.825h6.405a1.475 1.475 0 0 1 1.389.97h1.072a5.904 5.904 0 0 0 5.9-5.908v-7.873a5.9 5.9 0 0 0-5.9-5.901l-1.075.001a1.479 1.479 0 0 1-1.395.997H8.806a10.297 10.297 0 0 0-4.816 4.778Zm-.048 4.082a20.996 20.996 0 0 1 .513-6.889 1.1 1.1 0 0 0-1.478-1.476A11.263 11.263 0 0 0 .03-11.805a11.046 11.046 0 0 0 2.948 8.363A1.109 1.109 0 0 0 4.455-4.92a20.395 20.395 0 0 1-.513-6.888ZM16.738-1.481c0-.816-.662-1.477-1.477-1.476H6.405c-.815 0-1.475.661-1.474 1.476A1.478 1.478 0 0 0 6.405 0h8.856a1.479 1.479 0 0 0 1.477-1.481Zm-.011-20.666a1.47 1.47 0 0 0-1.466-1.475H6.405a1.483 1.483 0 0 0-1.485 1.481 1.48 1.48 0 0 0 1.485 1.476h8.856a1.47 1.47 0 0 0 1.466-1.476v-.006Z"/></defs></g><g stroke-width=".167" stroke="#000" stroke-linecap="round" stroke-linejoin="round" transform="matrix(-2.88 0 0 2.88 295.88 821.88)"><use fill-rule="evenodd" stroke="none" xlinkHref="#mfid107"/><defs><path id="mfid108" d="M3.99-15.889c-.194 2.7-.198 5.41-.011 8.111a10.297 10.297 0 0 0 4.877 4.825h6.405a1.475 1.475 0 0 1 1.389.97h1.072a5.904 5.904 0 0 0 5.9-5.908v-7.873a5.9 5.9 0 0 0-5.9-5.901l-1.075.001a1.479 1.479 0 0 1-1.395.997H8.806a10.297 10.297 0 0 0-4.816 4.778Zm-.048 4.082a20.996 20.996 0 0 1 .513-6.889 1.1 1.1 0 0 0-1.478-1.476A11.263 11.263 0 0 0 .03-11.805a11.046 11.046 0 0 0 2.948 8.363A1.109 1.109 0 0 0 4.455-4.92a20.395 20.395 0 0 1-.513-6.888ZM16.738-1.481c0-.816-.662-1.477-1.477-1.476H6.405c-.815 0-1.475.661-1.474 1.476A1.478 1.478 0 0 0 6.405 0h8.856a1.479 1.479 0 0 0 1.477-1.481Zm-.011-20.666a1.47 1.47 0 0 0-1.466-1.475H6.405a1.483 1.483 0 0 0-1.485 1.481 1.48 1.48 0 0 0 1.485 1.476h8.856a1.47 1.47 0 0 0 1.466-1.476"/></defs><use xlinkHref="#mfid108"/></g><g stroke-width=".167" stroke="#000" stroke-linecap="round" stroke-linejoin="round" transform="matrix(-2.88 0 0 -2.88 211.41 765.8)"><path stroke="none" d="M0-17.104h16.49V0H0z"/><defs><path id="mfid109" d="M0 0h16.49v-17.104H0V0Z"/></defs><use xlinkHref="#mfid109"/></g><g stroke-width=".167" stroke="#000" stroke-linecap="round" stroke-linejoin="round" transform="matrix(-2.88 0 0 -2.88 234.44 764.35)"><path stroke="none" d="M0-18.11h6.496V0H0z"/><defs><path id="mfid110" d="M0 0h6.496v-18.11H0V0Z"/></defs><use xlinkHref="#mfid110"/><defs><path id="mfid111" d="m3.878 0 4.69-1.665v-11.783l-4.69-1.644A99.7 99.7 0 0 0 3.878 0Zm4.69-1.665h7.975a39.051 39.051 0 0 0 0-11.783H8.568v11.783ZM.449 0h3.429a99.7 99.7 0 0 1 0-15.092H.449A63.637 63.637 0 0 0 .449 0Z"/></defs></g><g stroke-width=".167" stroke="#000" stroke-linecap="round" stroke-linejoin="round" transform="matrix(-2.88 0 0 -2.88 208.53 768.7)"><use fill-rule="evenodd" stroke="none" xlinkHref="#mfid111"/><use xlinkHref="#mfid111"/><defs><path id="mfid112" d="M0 0h.503v-.125H0V0Z"/></defs></g><g stroke-width=".167" stroke="#000" stroke-linecap="round" stroke-linejoin="round" transform="rotate(-90 495.29 277.4) scale(2.88)"><use fill-rule="evenodd" stroke="none" xlinkHref="#mfid112"/><defs><path id="mfid113" d="M1.132-4.372h.629v-.625h-.63v.625Zm.755 0h.628v-.625h-.629v.625Zm.754 0h.629v-.625H2.64v.625Zm.755 0h.628v-.625h-.628v.625Zm4.842 0h.629v-.625h-.63v.625Zm.754 0h.63v-.625h-.63v.625Zm.755 0h.629v-.625h-.63v.625Zm.754 0h.629v-.625h-.629v.625ZM0-3.123h1.006v-.625H0v.625Zm1.132 0h.629v-.625h-.63v.625Zm.755 0h.628v-.625h-.629v.625Zm.754 0h.629v-.625H2.64v.625Zm.755 0h.628v-.625h-.628v.625Zm.754 0h.63v-.625h-.63v.625Zm.755 0h.629v-.625h-.63v.625Zm.754 0h.63v-.625h-.63v.625Zm.755 0h.629v-.625h-.629v.625Zm.755 0h.629v-.625h-.63v.625Zm.754 0h.63v-.625h-.63v.625Zm.755 0h.629v-.625h-.63v.625Zm.754 0h.629v-.625h-.629v.625Zm-8.3.78h.629v-.624h-.63v.625Zm.755 0h.628v-.624h-.629v.625Zm.754 0h.629v-.624H2.64v.625Zm.755 0h.628v-.624h-.628v.625Zm.754 0h.63v-.624h-.63v.625Zm.755 0h.629v-.624h-.63v.625Zm.754 0h.63v-.624h-.63v.625Zm.755 0h.629v-.624h-.629v.625Zm.755 0h.629v-.624h-.63v.625Zm.754 0h.63v-.624h-.63v.625Zm.755 0h.629v-.624h-.63v.625Zm.754 0h.629v-.624h-.629v.625Zm-8.3.781h.629v-.624h-.63v.624Zm.755 0h.628v-.624h-.629v.624Zm.754 0h.629v-.624H2.64v.624Zm.755 0h.628v-.624h-.628v.624Zm.754 0h.63v-.624h-.63v.624Zm.755 0h.629v-.624h-.63v.624Zm.754 0h.63v-.624h-.63v.624Zm.755 0h.629v-.624h-.629v.624Zm.755 0h.629v-.624h-.63v.624Zm.754 0h.63v-.624h-.63v.624Zm.755 0h.629v-.624h-.63v.624Zm.754 0h.629v-.624h-.629v.624Zm-8.3.781h.629v-.624h-.63v.624Zm.755 0h.628v-.624h-.629v.624Zm.754 0h.629v-.624H2.64v.624Zm.755 0h.628v-.624h-.628v.624Zm.754 0h.63v-.624h-.63v.624Zm.755 0h.629v-.624h-.63v.624Zm.754 0h.63v-.624h-.63v.624Zm.755 0h.629v-.624h-.629v.624Zm.755 0h.629v-.624h-.63v.624Zm.754 0h.63v-.624h-.63v.624Zm.755 0h.629v-.624h-.63v.624ZM2.64 0h5.157v-.625H2.64V0Zm11.445 0h1.509v-.625h-1.509V0Zm1.635 0h.629v-.625h-.629V0Zm0-.78h.629v-.625h-.629v.624Zm-.818 0h.629v-.625h-.629v.624Zm-.817 0h.629v-.625h-.629v.624Zm0-.782h.629v-.624h-.629v.624Zm0-.78h.629v-.625h-.629v.625Zm.817 0h.629v-.625h-.629v.625Zm.818 0h.629v-.625h-.629v.625Zm0 .78h.629v-.624h-.629v.624Zm-.818 0h.629v-.624h-.629v.624Z"/></defs></g><g stroke-width=".167" stroke="#000" stroke-linecap="round" stroke-linejoin="round"><g transform="matrix(0 -2.88 2.88 0 231.56 815.07)"><use fill-rule="evenodd" stroke="none" xlinkHref="#mfid113"/><defs><path id="mfid114" d="M0-4.372h.629v-.625H0v.625Zm0 2.03h1.006v-.625H0v.625Zm0 .78h1.006v-.624H0v.624ZM0-.78h1.006v-.624H0v.624ZM0 0h1.006v-.625H0V0Zm1.132 0h.629v-.625h-.63V0Zm.755 0h.628v-.625h-.629V0Zm6.036 0h.63v-.625h-.63V0Zm.755 0h.629v-.625h-.63V0Zm.754 0h.629v-.625h-.629V0Zm.755 0h1.006v-.625h-1.006V0Zm1.383 0h.629v-.625h-.629V0Zm.755 0h.629v-.625h-.629V0Zm.755 0h.628v-.625h-.628V0Zm3.458 0h.629v-1.374h-.629V0Zm0-1.5h.629v-1.467h-.629v1.468Zm0-1.623h.629v-.625h-.629v.625Zm-.817 0h.629v-.625h-.629v.625Zm-.818 0h.629v-.625h-.629v.625Zm-.817 0h.629v-.625h-.629v.625Zm-1.006 0h.628v-.625h-.628v.625Zm0 .78h.628v-.624h-.628v.625ZM12.325-.78h.629v-.624h-.629v.624ZM9.432-.79h1.761v-.625h-1.76v.625Zm.755-.791h1.006v-1.375h-1.006v1.375Zm1.383-.76h.629v-.625h-.629v.625Zm.755 0h.629v-.625h-.629v.625Zm0-.781h.629v-.625h-.629v.625Zm-2.138 0h1.006v-.625h-1.006v.625Zm6.037-1.624h.503v-.125h-.503v.125Zm-.755 0h.503v-.125h-.503v.125Zm-2.389.375h.628v-.625h-.628v.625Zm-.755 0h.629v-.625h-.629v.625Zm-.755 0h.629v-.625h-.629v.625Zm-4.653 0h.629v-.625h-.629v.625Zm-.755 0h.63v-.625h-.63v.625Zm-.754 0h.629v-.625h-.63v.625Zm-.755 0h.63v-.625h-.63v.625Zm6.917 1.249h.629v-.625h-.629v.625Z"/></defs></g><g transform="matrix(0 -2.88 2.88 0 231.56 815.07)"><use fill-rule="evenodd" stroke="none" xlinkHref="#mfid114"/><defs><path id="mfid115" d="M0 0h62.997v-1.968H0V0Z"/></defs></g></g><g stroke-width=".167" stroke="#000" stroke-linecap="round" stroke-linejoin="round" transform="matrix(-.03595 -2.8798 2.8798 -.03595 131.93 881.1)"><use fill-rule="evenodd" stroke="none" xlinkHref="#mfid115"/><use xlinkHref="#mfid115"/></g><g stroke-width=".167" stroke="#000" stroke-linecap="round" stroke-linejoin="round" transform="matrix(2.88 0 0 -2.88 129.1 881.14)"><path stroke="none" d="M0-62.992h31.496V0H0z"/><defs><path id="mfid116" d="M0 0h31.496v-62.992H0V0Z"/></defs><use xlinkHref="#mfid116"/><defs><path id="mfid117" d="M3.99-15.889c-.194 2.7-.198 5.41-.011 8.111a10.297 10.297 0 0 0 4.877 4.825h6.405a1.475 1.475 0 0 1 1.389.97h1.072a5.904 5.904 0 0 0 5.9-5.908v-7.873a5.9 5.9 0 0 0-5.9-5.901l-1.075.001a1.479 1.479 0 0 1-1.395.997H8.806a10.297 10.297 0 0 0-4.816 4.778Zm-.048 4.082a20.996 20.996 0 0 1 .513-6.889 1.1 1.1 0 0 0-1.478-1.476A11.263 11.263 0 0 0 .03-11.805a11.046 11.046 0 0 0 2.948 8.363A1.109 1.109 0 0 0 4.455-4.92a20.395 20.395 0 0 1-.513-6.888ZM16.738-1.481c0-.816-.662-1.477-1.477-1.476H6.405c-.815 0-1.475.661-1.474 1.476A1.478 1.478 0 0 0 6.405 0h8.856a1.479 1.479 0 0 0 1.477-1.481Zm-.011-20.666a1.47 1.47 0 0 0-1.466-1.475H6.405a1.483 1.483 0 0 0-1.485 1.481 1.48 1.48 0 0 0 1.485 1.476h8.856a1.47 1.47 0 0 0 1.466-1.476v-.006Z"/></defs></g><g stroke-width=".167" stroke="#000" stroke-linecap="round" stroke-linejoin="round" transform="matrix(-2.88 0 0 2.88 295.88 1003.3)"><use fill-rule="evenodd" stroke="none" xlinkHref="#mfid117"/><defs><path id="mfid118" d="M3.99-15.889c-.194 2.7-.198 5.41-.011 8.111a10.297 10.297 0 0 0 4.877 4.825h6.405a1.475 1.475 0 0 1 1.389.97h1.072a5.904 5.904 0 0 0 5.9-5.908v-7.873a5.9 5.9 0 0 0-5.9-5.901l-1.075.001a1.479 1.479 0 0 1-1.395.997H8.806a10.297 10.297 0 0 0-4.816 4.778Zm-.048 4.082a20.996 20.996 0 0 1 .513-6.889 1.1 1.1 0 0 0-1.478-1.476A11.263 11.263 0 0 0 .03-11.805a11.046 11.046 0 0 0 2.948 8.363A1.109 1.109 0 0 0 4.455-4.92a20.395 20.395 0 0 1-.513-6.888ZM16.738-1.481c0-.816-.662-1.477-1.477-1.476H6.405c-.815 0-1.475.661-1.474 1.476A1.478 1.478 0 0 0 6.405 0h8.856a1.479 1.479 0 0 0 1.477-1.481Zm-.011-20.666a1.47 1.47 0 0 0-1.466-1.475H6.405a1.483 1.483 0 0 0-1.485 1.481 1.48 1.48 0 0 0 1.485 1.476h8.856a1.47 1.47 0 0 0 1.466-1.476"/></defs><use xlinkHref="#mfid118"/></g><g stroke-width=".167" stroke="#000" stroke-linecap="round" stroke-linejoin="round" transform="matrix(-2.88 0 0 -2.88 211.41 947.22)"><path stroke="none" d="M0-17.104h16.49V0H0z"/><defs><path id="mfid119" d="M0 0h16.49v-17.104H0V0Z"/></defs><use xlinkHref="#mfid119"/></g><g stroke-width=".167" stroke="#000" stroke-linecap="round" stroke-linejoin="round" transform="matrix(-2.88 0 0 -2.88 234.44 945.77)"><path stroke="none" d="M0-18.11h6.496V0H0z"/><defs><path id="mfid120" d="M0 0h6.496v-18.11H0V0Z"/></defs><use xlinkHref="#mfid120"/><defs><path id="mfid121" d="m3.878 0 4.69-1.665v-11.783l-4.69-1.644A99.7 99.7 0 0 0 3.878 0Zm4.69-1.665h7.975a39.051 39.051 0 0 0 0-11.783H8.568v11.783ZM.449 0h3.429a99.7 99.7 0 0 1 0-15.092H.449A63.637 63.637 0 0 0 .449 0Z"/></defs></g><g stroke-width=".167" stroke="#000" stroke-linecap="round" stroke-linejoin="round" transform="matrix(-2.88 0 0 -2.88 208.53 950.11)"><use fill-rule="evenodd" stroke="none" xlinkHref="#mfid121"/><use xlinkHref="#mfid121"/><defs><path id="mfid122" d="M0 0h.503v-.125H0V0Z"/></defs></g><g stroke-width=".167" stroke="#000" stroke-linecap="round" stroke-linejoin="round" transform="rotate(-90 586 368.11) scale(2.88)"><use fill-rule="evenodd" stroke="none" xlinkHref="#mfid122"/><defs><path id="mfid123" d="M1.132-4.372h.629v-.625h-.63v.625Zm.755 0h.628v-.625h-.629v.625Zm.754 0h.629v-.625H2.64v.625Zm.755 0h.628v-.625h-.628v.625Zm4.842 0h.629v-.625h-.63v.625Zm.754 0h.63v-.625h-.63v.625Zm.755 0h.629v-.625h-.63v.625Zm.754 0h.629v-.625h-.629v.625ZM0-3.123h1.006v-.625H0v.625Zm1.132 0h.629v-.625h-.63v.625Zm.755 0h.628v-.625h-.629v.625Zm.754 0h.629v-.625H2.64v.625Zm.755 0h.628v-.625h-.628v.625Zm.754 0h.63v-.625h-.63v.625Zm.755 0h.629v-.625h-.63v.625Zm.754 0h.63v-.625h-.63v.625Zm.755 0h.629v-.625h-.629v.625Zm.755 0h.629v-.625h-.63v.625Zm.754 0h.63v-.625h-.63v.625Zm.755 0h.629v-.625h-.63v.625Zm.754 0h.629v-.625h-.629v.625Zm-8.3.78h.629v-.624h-.63v.625Zm.755 0h.628v-.624h-.629v.625Zm.754 0h.629v-.624H2.64v.625Zm.755 0h.628v-.624h-.628v.625Zm.754 0h.63v-.624h-.63v.625Zm.755 0h.629v-.624h-.63v.625Zm.754 0h.63v-.624h-.63v.625Zm.755 0h.629v-.624h-.629v.625Zm.755 0h.629v-.624h-.63v.625Zm.754 0h.63v-.624h-.63v.625Zm.755 0h.629v-.624h-.63v.625Zm.754 0h.629v-.624h-.629v.625Zm-8.3.781h.629v-.624h-.63v.624Zm.755 0h.628v-.624h-.629v.624Zm.754 0h.629v-.624H2.64v.624Zm.755 0h.628v-.624h-.628v.624Zm.754 0h.63v-.624h-.63v.624Zm.755 0h.629v-.624h-.63v.624Zm.754 0h.63v-.624h-.63v.624Zm.755 0h.629v-.624h-.629v.624Zm.755 0h.629v-.624h-.63v.624Zm.754 0h.63v-.624h-.63v.624Zm.755 0h.629v-.624h-.63v.624Zm.754 0h.629v-.624h-.629v.624Zm-8.3.781h.629v-.624h-.63v.624Zm.755 0h.628v-.624h-.629v.624Zm.754 0h.629v-.624H2.64v.624Zm.755 0h.628v-.624h-.628v.624Zm.754 0h.63v-.624h-.63v.624Zm.755 0h.629v-.624h-.63v.624Zm.754 0h.63v-.624h-.63v.624Zm.755 0h.629v-.624h-.629v.624Zm.755 0h.629v-.624h-.63v.624Zm.754 0h.63v-.624h-.63v.624Zm.755 0h.629v-.624h-.63v.624ZM2.64 0h5.157v-.625H2.64V0Zm11.445 0h1.509v-.625h-1.509V0Zm1.635 0h.629v-.625h-.629V0Zm0-.78h.629v-.625h-.629v.624Zm-.818 0h.629v-.625h-.629v.624Zm-.817 0h.629v-.625h-.629v.624Zm0-.782h.629v-.624h-.629v.624Zm0-.78h.629v-.625h-.629v.625Zm.817 0h.629v-.625h-.629v.625Zm.818 0h.629v-.625h-.629v.625Zm0 .78h.629v-.624h-.629v.624Zm-.818 0h.629v-.624h-.629v.624Z"/></defs></g><g stroke-width=".167" stroke="#000" stroke-linecap="round" stroke-linejoin="round"><g transform="matrix(0 -2.88 2.88 0 231.56 996.49)"><use fill-rule="evenodd" stroke="none" xlinkHref="#mfid123"/><defs><path id="mfid124" d="M0-4.372h.629v-.625H0v.625Zm0 2.03h1.006v-.625H0v.625Zm0 .78h1.006v-.624H0v.624ZM0-.78h1.006v-.624H0v.624ZM0 0h1.006v-.625H0V0Zm1.132 0h.629v-.625h-.63V0Zm.755 0h.628v-.625h-.629V0Zm6.036 0h.63v-.625h-.63V0Zm.755 0h.629v-.625h-.63V0Zm.754 0h.629v-.625h-.629V0Zm.755 0h1.006v-.625h-1.006V0Zm1.383 0h.629v-.625h-.629V0Zm.755 0h.629v-.625h-.629V0Zm.755 0h.628v-.625h-.628V0Zm3.458 0h.629v-1.374h-.629V0Zm0-1.5h.629v-1.467h-.629v1.468Zm0-1.623h.629v-.625h-.629v.625Zm-.817 0h.629v-.625h-.629v.625Zm-.818 0h.629v-.625h-.629v.625Zm-.817 0h.629v-.625h-.629v.625Zm-1.006 0h.628v-.625h-.628v.625Zm0 .78h.628v-.624h-.628v.625ZM12.325-.78h.629v-.624h-.629v.624ZM9.432-.79h1.761v-.625h-1.76v.625Zm.755-.791h1.006v-1.375h-1.006v1.375Zm1.383-.76h.629v-.625h-.629v.625Zm.755 0h.629v-.625h-.629v.625Zm0-.781h.629v-.625h-.629v.625Zm-2.138 0h1.006v-.625h-1.006v.625Zm6.037-1.624h.503v-.125h-.503v.125Zm-.755 0h.503v-.125h-.503v.125Zm-2.389.375h.628v-.625h-.628v.625Zm-.755 0h.629v-.625h-.629v.625Zm-.755 0h.629v-.625h-.629v.625Zm-4.653 0h.629v-.625h-.629v.625Zm-.755 0h.63v-.625h-.63v.625Zm-.754 0h.629v-.625h-.63v.625Zm-.755 0h.63v-.625h-.63v.625Zm6.917 1.249h.629v-.625h-.629v.625Z"/></defs></g><g transform="matrix(0 -2.88 2.88 0 231.56 996.49)"><use fill-rule="evenodd" stroke="none" xlinkHref="#mfid124"/><defs><path id="mfid125" d="M0 0h62.997v-1.968H0V0Z"/></defs></g></g><g stroke-width=".167" stroke="#000" stroke-linecap="round" stroke-linejoin="round" transform="matrix(-.03595 -2.8798 2.8798 -.03595 131.93 1062.5)"><use fill-rule="evenodd" stroke="none" xlinkHref="#mfid125"/><use xlinkHref="#mfid125"/><defs><path id="mfid126" d="M0 0h.984v-.984H0V0Zm0-2.953h.984v-.984H0v.984Z"/></defs></g><g><use fill-rule="evenodd" stroke="none" stroke-width=".167" stroke-linecap="round" stroke-linejoin="round" transform="matrix(2.88 0 0 2.88 200.68 479.03)" xlinkHref="#mfid126"/><g stroke-width=".868" stroke="#658a82" stroke-miterlimit="2" transform="matrix(2.88 0 0 2.88 200.68 479.03)"><use xlinkHref="#mfid126"/><defs><path id="mfid127" d="M0 0v-31.496h22.638V0H0Zm22.638 0h.984v-31.496h-.984V0Z"/></defs></g></g><g stroke-width=".868" stroke="#658a82" stroke-miterlimit="2" transform="matrix(2.88 0 0 2.88 132.64 518.71)"><use fill-rule="evenodd" stroke="none" xlinkHref="#mfid127"/><defs><path id="mfid128" d="M0 0v-31.496h22.638V0H0Zm22.638-15.748h.984M22.638 0h.984v-31.496h-.984V0Z"/></defs><use xlinkHref="#mfid128"/><defs><path id="mfid129" d="M0 0h.984v-.984H0V0Zm0-2.953h.984v-.984H0v.984Z"/></defs></g><g stroke-width=".868" stroke="#658a82" stroke-miterlimit="2" transform="matrix(2.88 0 0 2.88 183.67 393.36)"><use fill-rule="evenodd" stroke="none" xlinkHref="#mfid129"/><use xlinkHref="#mfid129"/><defs><path id="mfid130" d="M0 0v-31.496h16.732V0H0Zm16.732 0h.985v-31.496h-.985V0Z"/></defs></g><g stroke-width=".868" stroke="#658a82" stroke-miterlimit="2" transform="matrix(2.88 0 0 2.88 132.64 433.04)"><use fill-rule="evenodd" stroke="none" xlinkHref="#mfid130"/><defs><path id="mfid131" d="M0 0v-31.496h16.732V0H0Zm16.732-15.748h.985M16.732 0h.985v-31.496h-.985V0Z"/></defs><use xlinkHref="#mfid131"/><defs><path id="mfid132" d="M0 0h.984v-.984H0V0Zm0-2.953h.984v-.984H0v.984Z"/></defs></g><g stroke-width=".868" stroke="#658a82" stroke-miterlimit="2" transform="matrix(2.88 0 0 2.88 200.68 570.59)"><use fill-rule="evenodd" stroke="none" xlinkHref="#mfid132"/><use xlinkHref="#mfid132"/><defs><path id="mfid133" d="M0 0v-31.496h22.638V0H0Zm22.638 0h.984v-31.496h-.984V0Z"/></defs></g><g stroke-width=".868" stroke="#658a82" stroke-miterlimit="2" transform="matrix(2.88 0 0 2.88 132.64 610.27)"><use fill-rule="evenodd" stroke="none" xlinkHref="#mfid133"/><defs><path id="mfid134" d="M0 0v-31.496h22.638V0H0Zm22.638-15.748h.984M22.638 0h.984v-31.496h-.984V0Z"/></defs><use xlinkHref="#mfid134"/></g></g><g mask="url(#mfid5)"><text stroke="none" x="0,12" transform="translate(432.7 117.35)" font-family="'Calibri',swiss,sans-serif" font-weight="400" font-size="24" stroke-miterlimit="10">1</text></g><g mask="url(#mfid5)"><text stroke="none" x="0,12" transform="translate(602.78 117.35)" font-family="'Calibri',swiss,sans-serif" font-weight="400" font-size="24" stroke-miterlimit="10">2</text></g><g mask="url(#mfid5)"><text stroke="none" x="0,12" transform="translate(784.2 117.35)" font-family="'Calibri',swiss,sans-serif" font-weight="400" font-size="24" stroke-miterlimit="10">3</text></g><g mask="url(#mfid5)"><text stroke="none" x="0,12" transform="translate(784.2 434.83)" font-family="'Calibri',swiss,sans-serif" font-weight="400" font-size="24" stroke-miterlimit="10">4</text></g><g mask="url(#mfid5)"><text stroke="none" x="0,12" transform="translate(591.44 434.83)" font-family="'Calibri',swiss,sans-serif" font-weight="400" font-size="24" stroke-miterlimit="10">5</text></g><g mask="url(#mfid5)"><text stroke="none" x="0,12" transform="translate(591.44 525.54)" font-family="'Calibri',swiss,sans-serif" font-weight="400" font-size="24" stroke-miterlimit="10">6</text></g><g mask="url(#mfid5)"><text stroke="none" x="0,12" transform="translate(783.72 536.06)" font-family="'Calibri',swiss,sans-serif" font-weight="400" font-size="24" stroke-miterlimit="10">7</text></g><g mask="url(#mfid5)"><text stroke="none" x="0,12" transform="translate(784.2 800.54)" font-family="'Calibri',swiss,sans-serif" font-weight="400" font-size="24" stroke-miterlimit="10">8</text></g><g mask="url(#mfid5)"><text stroke="none" x="0,12" transform="translate(591.44 797.67)" font-family="'Calibri',swiss,sans-serif" font-weight="400" font-size="24" stroke-miterlimit="10">9</text></g><g mask="url(#mfid5)"><text stroke="none" x="0,12,24" transform="translate(585.36 888.34)" font-family="'Calibri',swiss,sans-serif" font-weight="400" font-size="24" stroke-miterlimit="10">10</text></g><g mask="url(#mfid5)"><text stroke="none" x="0,12,24" transform="translate(154.5 1047.9)" font-family="'Calibri',swiss,sans-serif" font-weight="400" font-size="24" stroke-miterlimit="10">11</text></g><g mask="url(#mfid5)"><text stroke="none" x="0,12,24" transform="translate(154.5 843.02)" font-family="'Calibri',swiss,sans-serif" font-weight="400" font-size="24" stroke-miterlimit="10">12</text></g><defs><path id="mfid135" d="M-1.968.1h43.307v-4.137H-1.968V.1Z"/></defs><g mask="url(#mfid4)"><g stroke-miterlimit="2"><use fill-rule="evenodd" stroke="none" stroke-width=".868" transform="rotate(90 -11.43 121.4) scale(2.88)" xlinkHref="#mfid135"/><g stroke-width=".167" stroke="#fff" transform="rotate(90 -11.43 121.4) scale(2.88)"><use xlinkHref="#mfid135"/><defs><path id="mfid136" d="M43.307 0v-3.937h-1.968V0h1.968ZM0 0v-3.937h1.968V0H0Z"/></defs></g></g><g stroke-miterlimit="2"><g stroke-width=".167" stroke="#fff" transform="matrix(0 2.88 -2.88 0 109.97 127.16)"><use fill-rule="evenodd" stroke="none" xlinkHref="#mfid136"/><defs><path id="mfid137" d="M43.307 0v-3.937h-1.968v1.968m0 1.969h1.968M0 0v-3.937h1.968v1.968m0 1.969H0"/></defs></g><g stroke-width=".868" stroke="#696969" transform="matrix(0 2.88 -2.88 0 109.97 127.16)"><use xlinkHref="#mfid137"/><defs><path id="mfid138" d="M39.37-1.968h-.787V0h.787v-1.968ZM0-1.968h.787V0H0v-1.968Z"/></defs></g></g><g stroke-width=".868" stroke="#696969" stroke-miterlimit="2" transform="rotate(90 -11.43 121.4) scale(2.88)"><use fill-rule="evenodd" stroke="none" xlinkHref="#mfid138"/><defs><path id="mfid139" d="M39.37-1.968h-.787V0h.787M0-1.968h.787V0H0"/></defs><use xlinkHref="#mfid139"/><defs><path id="mfid140" d="M43.307 0v-3.937M0 0v-3.937"/></defs></g><g stroke-width=".167" stroke="#000" stroke-miterlimit="2" transform="matrix(0 2.88 -2.88 0 109.97 127.16)"><use xlinkHref="#mfid140"/><defs><path id="mfid141" d="M0 0c0-16.981 10.888-32.048 27.01-37.38"/></defs></g><g stroke-width=".868" stroke="#696969" stroke-miterlimit="2" transform="rotate(90 -5.76 127.07) scale(2.88)"><use xlinkHref="#mfid141"/><defs><path id="mfid142" d="M0 0h39.37v-1.968H0V0Z"/></defs></g><g stroke-width=".868" stroke="#696969" stroke-miterlimit="2" transform="rotate(161.703 97.065 120.908) scale(2.88001)"><use fill-rule="evenodd" stroke="none" xlinkHref="#mfid142"/><use xlinkHref="#mfid142"/><defs><path id="mfid143" d="M0 .1h57.087v-4.137H0V.1Z"/></defs></g><g><use fill-rule="evenodd" stroke="none" stroke-width=".868" stroke-miterlimit="2" transform="matrix(0 -2.88 2.88 0 836.77 383.5)" xlinkHref="#mfid143"/><g stroke-width=".167" stroke="#fff" stroke-linecap="round" stroke-linejoin="round" transform="matrix(0 -2.88 2.88 0 836.77 383.5)"><use xlinkHref="#mfid143"/><defs><path id="mfid144" d="M0 0v-3.937h1.968V0H0Zm57.087 0v-3.937h-1.969V0h1.969Z"/></defs><use fill-rule="evenodd" stroke="none" xlinkHref="#mfid144"/><defs><path id="mfid145" d="M0 0v-3.937h1.968v.984m0 1.969V0H0m57.087 0v-3.937h-1.969v.984m0 1.969V0h1.969"/></defs></g><g stroke-width=".167" stroke="#000" stroke-linecap="round" stroke-linejoin="round" transform="matrix(0 -2.88 2.88 0 836.77 383.5)"><use xlinkHref="#mfid145"/><defs><path id="mfid146" d="M0-1.968h1.968V0H0v-1.968Zm53.15 0h-1.969V0h1.969v-1.968Z"/></defs></g></g><g stroke-width=".167" stroke="#000" stroke-linecap="round" stroke-linejoin="round" transform="matrix(0 -2.88 2.88 0 833.94 377.83)"><use fill-rule="evenodd" stroke="none" xlinkHref="#mfid146"/><use xlinkHref="#mfid146"/><defs><path id="mfid147" d="M0 0h49.213"/></defs></g><g stroke-width=".167" stroke="#000" stroke-linecap="round" stroke-linejoin="round" transform="matrix(0 -2.88 2.88 0 831.1 372.16)"><use xlinkHref="#mfid147"/><defs><path id="mfid148" d="M0 0v-3.937M57.087 0v-3.937"/></defs></g><g stroke-width=".167" stroke="#000" stroke-linecap="round" stroke-linejoin="round" transform="matrix(0 -2.88 2.88 0 836.77 383.5)"><use xlinkHref="#mfid148"/><defs><path id="mfid149" d="M0 .1h68.124v-4.137H0V.1Z"/></defs></g><g stroke-width=".167" stroke-linecap="round" stroke-linejoin="round"><use fill-rule="evenodd" stroke="none" transform="matrix(0 -2.88 2.88 0 836.77 769.01)" xlinkHref="#mfid149"/><g stroke="#fff" transform="matrix(0 -2.88 2.88 0 836.77 769.01)"><use xlinkHref="#mfid149"/><defs><path id="mfid150" d="M0 0v-3.937h1.968V0H0Zm68.124 0v-3.937h-1.968V0h1.968Z"/></defs><use fill-rule="evenodd" stroke="none" xlinkHref="#mfid150"/><defs><path id="mfid151" d="M0 0v-3.937h1.968v.984m0 1.969V0H0m68.124 0v-3.937h-1.968v.984m0 1.969V0h1.968"/></defs></g><g stroke="#000" transform="matrix(0 -2.88 2.88 0 836.77 769.01)"><use xlinkHref="#mfid151"/><defs><path id="mfid152" d="M0-1.968h1.968V0H0v-1.968Zm64.187 0h-1.968V0h1.968v-1.968Z"/></defs></g></g><g stroke-width=".167" stroke="#000" stroke-linecap="round" stroke-linejoin="round" transform="rotate(-90 798.64 -35.3) scale(2.88)"><use fill-rule="evenodd" stroke="none" xlinkHref="#mfid152"/><use xlinkHref="#mfid152"/><defs><path id="mfid153" d="M0 0h60.25"/></defs></g><g stroke-width=".167" stroke="#000" stroke-linecap="round" stroke-linejoin="round" transform="matrix(0 -2.88 2.88 0 831.1 757.67)"><use xlinkHref="#mfid153"/><defs><path id="mfid154" d="M0 0v-3.937M68.124 0v-3.937"/></defs></g><g stroke-width=".167" stroke="#000" stroke-linecap="round" stroke-linejoin="round" transform="matrix(0 -2.88 2.88 0 836.77 769.01)"><use xlinkHref="#mfid154"/><defs><path id="mfid155" d="M0 .1h60.888v-4.137H0V.1Z"/></defs></g><g stroke-width=".167" stroke-linecap="round" stroke-linejoin="round"><use fill-rule="evenodd" stroke="none" transform="rotate(-47.216 1498.358 -217.544) scale(2.88)" xlinkHref="#mfid155"/><g stroke="#fff" transform="rotate(-47.216 1498.358 -217.544) scale(2.88)"><use xlinkHref="#mfid155"/><defs><path id="mfid156" d="M0 0v-3.937h1.968V0H0Zm60.888 0v-3.937H58.92V0h1.968Z"/></defs><use fill-rule="evenodd" stroke="none" xlinkHref="#mfid156"/><defs><path id="mfid157" d="M0 0v-3.937h1.968v.984m0 1.969V0H0m60.888 0v-3.937H58.92v.984m0 1.969V0h1.968"/></defs></g><g stroke="#000" transform="rotate(-47.216 1498.358 -217.544) scale(2.88)"><use xlinkHref="#mfid157"/><defs><path id="mfid158" d="M0-1.968h1.968V0H0v-1.968Zm56.951 0h-1.968V0h1.968v-1.968Z"/></defs></g></g><g stroke-width=".167" stroke="#000" stroke-linecap="round" stroke-linejoin="round" transform="rotate(-47.216 1492.265 -222.62) scale(2.88)"><use fill-rule="evenodd" stroke="none" xlinkHref="#mfid158"/><use xlinkHref="#mfid158"/><defs><path id="mfid159" d="M0 0h53.014"/></defs></g><g stroke-width=".167" stroke="#000" stroke-linecap="round" stroke-linejoin="round" transform="rotate(-47.216 1486.171 -227.694) scale(2.88)"><use xlinkHref="#mfid159"/><defs><path id="mfid160" d="M0 0v-3.937M60.888 0v-3.937"/></defs></g><use stroke-width=".167" stroke="#000" stroke-linecap="round" stroke-linejoin="round" transform="rotate(-47.216 1498.358 -217.544) scale(2.88)" xlinkHref="#mfid160"/></g></g></svg></switch><path class="st1" d="M0 .75h953.589v1230.34H0z"/></g></svg>