<svg xmlns="http://www.w3.org/2000/svg" width="1403.654" height="1276.33" viewBox="0 0 1052.74 957.245" color-interpolation-filters="sRGB" class="st3" fill="none"><g id="shape1-1" transform="translate(18.375 -18.375)"><path class="st1" d="M0 36.75h1015.99v920.494H0z"/><switch><svg viewBox="0 0 1354 1227" height="920.494" preserveAspectRatio="none" width="1015.99" y="36.75"><clipPath id="mfid99"><path id="mfid100" d="M0 0h1354v1227H0z"/></clipPath><g clip-path="url(#mfid99)"><mask id="mfid101"><path d="M0 0h1355v1228H0z"/></mask><mask id="mfid102" stroke="none"><g mask="url(#mfid101)"><use xlinkHref="#mfid100"/></g></mask><mask id="mfid103" fill-rule="evenodd" stroke="none"><path d="M0 0h1355v1228H0z"/></mask><defs><path id="mfid104" d="M-5.905-5.905H273.23L267.32 0H0l-5.905-5.905Z"/></defs><g mask="url(#mfid102)"><g><g transform="matrix(3.84 0 0 3.84 183.71 53.515)"><use fill-rule="evenodd" xlinkHref="#mfid104"/><defs><path id="mfid105" d="M-5.905-5.905H273.23M0 0h267.32"/></defs></g><g stroke-width=".083" stroke="#000" stroke-miterlimit="2" transform="matrix(3.84 0 0 3.84 183.71 53.515)"><use xlinkHref="#mfid105"/><defs><path id="mfid106" d="M-5.905-5.905H272.44L266.54 0H0l-5.905-5.905Z"/></defs></g></g><g stroke-width=".083" stroke="#000" stroke-miterlimit="2" transform="matrix(0 3.84 -3.84 0 1210.2 53.515)"><use fill-rule="evenodd" stroke="none" xlinkHref="#mfid106"/><defs><path id="mfid107" d="M-5.905-5.905H272.44M0 0h266.54"/></defs><use xlinkHref="#mfid107"/><defs><path id="mfid108" d="M-5.905-5.905H273.23L267.32 0H0l-5.905-5.905Z"/></defs></g><g stroke-width=".083" stroke="#000" stroke-miterlimit="2" transform="rotate(180 605.1 538.5) scale(3.84)"><use fill-rule="evenodd" stroke="none" xlinkHref="#mfid108"/><defs><path id="mfid109" d="M-5.905-5.905H273.23M0 0h267.32"/></defs><use xlinkHref="#mfid109"/><defs><path id="mfid110" d="M-5.905-5.905H272.44L266.54 0H0l-5.905-5.905Z"/></defs></g><g stroke-width=".083" stroke="#000" stroke-miterlimit="2" transform="matrix(0 -3.84 3.84 0 183.71 1077)"><use fill-rule="evenodd" stroke="none" xlinkHref="#mfid110"/><defs><path id="mfid111" d="M-5.905-5.905H272.44M0 0h266.54"/></defs><use xlinkHref="#mfid111"/><defs><path id="mfid112" d="M0 0h31.496v-1.968H0V0Z"/></defs></g><g stroke-width=".083" stroke="#000"><g stroke-miterlimit="2" transform="matrix(0 3.84 -3.84 0 431.52 524.79)"><use fill-rule="evenodd" stroke="none" xlinkHref="#mfid112"/><defs><path id="mfid113" d="M0 0h31.496v-1.968H0V0Z"/></defs></g><g stroke-linecap="round" stroke-linejoin="round" transform="matrix(0 3.84 -3.84 0 431.52 524.79)"><use xlinkHref="#mfid113"/><defs><path id="mfid114" d="M0-62.3c0-.382.278-.692.622-.692h30.252c.344 0 .622.31.622.692V-.692c0 .382-.279.692-.622.692H.622C.278 0 0-.31 0-.692V-62.3Z"/></defs></g></g><g stroke="#000"><g stroke-width=".083" stroke-linecap="round" stroke-linejoin="round" transform="matrix(0 3.84 -3.84 0 188.92 395.74)"><use fill-rule="evenodd" stroke="none" xlinkHref="#mfid114"/><defs><path id="mfid115" d="M0-62.3c0-.382.278-.692.622-.692h30.252c.344 0 .622.31.622.692V-.692c0 .382-.279.692-.622.692H.622C.278 0 0-.31 0-.692V-62.3Z"/></defs></g><g stroke-width=".26" stroke-miterlimit="2" transform="matrix(0 3.84 -3.84 0 188.92 395.74)"><use xlinkHref="#mfid115"/><defs><path id="mfid116" d="M4.252-2.126a2.126 2.126 0 1 0-4.252 0 2.126 2.126 0 0 0 4.252 0Z"/></defs></g></g><g stroke-width=".26" stroke="#000" stroke-miterlimit="2" transform="matrix(0 3.84 -3.84 0 393.01 417.2)"><use fill-rule="evenodd" stroke="none" xlinkHref="#mfid116"/><defs><path id="mfid117" d="M2.953-1.476a1.476 1.476 0 1 0-2.953 0 1.476 1.476 0 0 0 2.953 0Z"/></defs></g><g stroke-width=".26" stroke="#000" stroke-miterlimit="2" transform="matrix(0 3.84 -3.84 0 395.51 419.7)"><use fill-rule="evenodd" stroke="none" xlinkHref="#mfid117"/><defs><path id="mfid118" d="M6.272 0c7.567 0 6.44-5 6.44-5l-.71-4.976c-.311-2.836-2.798-2.831-2.798-2.831H4.068C.908-12.325.73-9.532.73-9.532.635-8.728.032-4.593.032-4.593-.27-1.88 1.651-.803 1.651-.803 3.067 0 6.27 0 6.27 0ZM1.746-19.603s2.226-.24 5.005-.24 4.365.24 4.365.24c2.125.261 1.514 2.344 1.514 2.344-.023.224-.354 1.71-.449 1.983-.245.711-.704 1.193-1.333 1.455-.456.191-.93.322-1.418.323H3.432c-.489-.001-.962-.132-1.418-.323-.629-.262-1.087-.744-1.333-1.455-.095-.273-.426-1.759-.45-1.983 0 0-.61-2.083 1.515-2.344Z"/></defs></g><g stroke-width=".26" stroke="#000"><g stroke-miterlimit="2" transform="rotate(.887 -24978.145 18457.929) scale(3.83996)"><use fill-rule="evenodd" stroke="none" xlinkHref="#mfid118"/><defs><path id="mfid119" d="M6.272 0c7.567 0 6.44-5 6.44-5l-.71-4.976c-.311-2.836-2.798-2.831-2.798-2.831H4.068C.908-12.325.73-9.532.73-9.532.635-8.728.032-4.593.032-4.593-.27-1.88 1.651-.803 1.651-.803 3.067 0 6.27 0 6.27 0ZM1.746-19.603s2.226-.24 5.005-.24 4.365.24 4.365.24c2.125.261 1.514 2.344 1.514 2.344-.023.224-.354 1.71-.449 1.983-.245.711-.704 1.193-1.333 1.455-.456.191-.93.322-1.418.323H3.432c-.489-.001-.962-.132-1.418-.323-.629-.262-1.087-.744-1.333-1.455-.095-.273-.426-1.759-.45-1.983 0 0-.61-2.083 1.515-2.344Z"/></defs></g><g stroke-linecap="round" stroke-linejoin="round" transform="rotate(.887 -24978.145 18457.929) scale(3.83996)"><use xlinkHref="#mfid119"/><defs><path id="mfid120" d="M5.473-14.961s2.23-.205 5.008-.162c2.778.043 4.361.307 4.361.307.998.139 1.383.671 1.513 1.197.087-.356.398-2.038-1.496-2.301 0 0-1.583-.264-4.361-.307-2.778-.043-5.008.162-5.008.162-1.902.204-1.643 1.895-1.566 2.253.145-.521.547-1.041 1.549-1.149ZM19.837-1.755 18.405-7.21c-.475-1.685-1.245-1.585-1.551-1.53-.797.143-.682.892-.619 1.889l.67 5.324c.153.887.753 1.587 1.562 1.524.81-.063 1.424-.846 1.37-1.75ZM.007-2.062l1.601-5.41c.527-1.67 1.294-1.545 1.598-1.481.792.167.654.913.56 1.908l-.835 5.3C2.751-.862 2.13-.182 1.322-.27.515-.357-.074-1.16.008-2.062Zm3.937-1.496-.725-.011.262-1.67.718.033-.255 1.648ZM9.247-9.21l1.643.026.011-.691-1.643-.026-.01.691Zm6.702 5.838.725.011-.211-1.677-.717.011.203 1.655Z"/></defs></g></g><g stroke-width=".26" stroke="#000" stroke-linecap="round" stroke-linejoin="round" transform="matrix(3.84 0 0 3.84 269.99 376.03)"><use fill-rule="evenodd" stroke="none" xlinkHref="#mfid120"/><defs><path id="mfid121" d="M5.473-14.961s2.23-.205 5.008-.162c2.778.043 4.361.307 4.361.307.998.139 1.383.671 1.513 1.197.087-.356.398-2.038-1.496-2.301 0 0-1.583-.264-4.361-.307-2.778-.043-5.008.162-5.008.162-1.902.204-1.643 1.895-1.566 2.253.145-.521.547-1.041 1.549-1.149ZM19.837-1.755 18.405-7.21c-.475-1.685-1.245-1.585-1.551-1.53-.797.143-.682.892-.619 1.889l.67 5.324c.153.887.753 1.587 1.562 1.524.81-.063 1.424-.846 1.37-1.75ZM.007-2.062l1.601-5.41c.527-1.67 1.294-1.545 1.598-1.481.792.167.654.913.56 1.908l-.835 5.3C2.751-.862 2.13-.182 1.322-.27.515-.357-.074-1.16.008-2.062Zm3.937-1.496-.725-.011.262-1.67.718.033-.255 1.648ZM9.247-9.21l1.643.026.011-.691-1.643-.026-.01.691Zm6.702 5.838.725.011-.211-1.677-.717.011.203 1.655Z"/></defs><use xlinkHref="#mfid121"/><defs><path id="mfid122" d="M10.247-17.081H5.894a.22.22 0 0 0-.224.218v13.994c0 .12.101.218.224.218h4.352a.22.22 0 0 0 .224-.218v-13.994a.22.22 0 0 0-.223-.218Zm-6.734 4.145v-.021h.69c.325 0 .589.311.589.695v4.694c0 .384-.264.696-.59.696h-.689v-6.064Zm0 0v10.098L.577 0 0-.211v-19.421l.577-.211 2.936 2.839v4.068Z"/></defs></g><g stroke-width=".26" stroke="#000"><g stroke-linecap="round" stroke-linejoin="round" transform="rotate(-90 397.81 51.18) scale(3.84)"><use fill-rule="evenodd" stroke="none" xlinkHref="#mfid122"/><defs><path id="mfid123" d="M10.247-17.081H5.894a.22.22 0 0 0-.224.218v13.994c0 .12.101.218.224.218h4.352a.22.22 0 0 0 .224-.218v-13.994a.22.22 0 0 0-.223-.218Zm-6.734 4.145v-.021h.69c.325 0 .589.311.589.695v4.694c0 .384-.264.696-.59.696h-.689v-6.064Zm0 0v10.098L.577 0 0-.211v-19.421l.577-.211 2.936 2.839v4.068Z"/></defs></g><g stroke-miterlimit="2" transform="rotate(-90 397.81 51.18) scale(3.84)"><use xlinkHref="#mfid123"/><defs><path id="mfid124" d="M2.926-12.826v-.716h.736v.716h-.736v.86-.715h.736v.715h-.736v-.86Zm0 1.721v-.716h.736v.716h-.736v1.232-.716h.736v.716h-.736v-1.232Zm0 2.092v-.716h.736v.716h-.736v.86-.715h.736v.715h-.736v-.86Zm0 2.128V-7.6h.736v.715h-.736v.86-.714h.736v.715h-.736v-.86Zm0 5.164V-5.88h.736v4.158h-.736v.86-.715h.736v.715h-.736v-.86Zm0 1.72v-.715h.736V0h-.736L2.04-9.013v-.716h.736v.716H2.04L2.926 0ZM2.04-6.023V-7.6h.736v1.576H2.04v.86-.715h.736v.715H2.04v-.86Zm0-5.081v-.716h.736v.716H2.04V-13.542h.736v.716H2.04v1.721Zm0-.861v-.715h.736v.715H2.04v7.663-.716h.737v.716H2.04v-7.663Zm0 8.523v-.715h.736v.715H2.04v.861-.716h.737v.716H2.04v-.86Zm0 1.722v-.716h.736v.716H2.04V0v-1.576h.737V0H2.04v-1.721Zm-.886-5.164V-7.6h.736v.715h-.736v.86-.714h.736v.715h-.736v-.86Zm0 1.721v-.715h.736v.715h-.736v.86-.715h.737v.716h-.737v-.86Zm0 1.721v-.715h.737v.715h-.737v.861-.716h.737v.716h-.737v-.86Zm0 1.722v-.716h.737v.716h-.737v.86-.715h.737v.715h-.737v-.86Zm0 1.72v-.715h.737V0h-.737v-13.542h.736v.716h-.736V0Zm0-11.965v-.715h.736v.715h-.736v.861-.716h.736v.716h-.736v-.861ZM0-6.885V-7.6h.737v.715H0v.86-.714h.737v.715H0v-.86Zm0 1.721v-.715h.737v.715H0v.86-.715h.737v.716H0v-.86Zm0 1.721v-.715h.737v.715H0v.861-.716h.737v.716H0v-.86ZM0-1.72v-.716h.737v.716H0v.86-.715h.737v.715H0v-.86Zm0 1.72v-.715h.737V0H0v-8.868h.737v.715H0V0Zm0-12.825v-.716h.737v.716H0v.86-.715h.737v.715H0v-.86Zm0 1.721v-.716h.737v.716H0v1.232-.716h.737v.716H0v-1.232Zm0 2.092v-.716h.737v.716H0Z"/></defs></g></g><g stroke-width=".26" stroke="#000" stroke-miterlimit="2" transform="matrix(0 -3.84 3.84 0 334.74 424.61)"><use fill-rule="evenodd" stroke="none" xlinkHref="#mfid124"/><defs><path id="mfid125" d="M9.921-2.193h8.78L16.771 0h-13.7l-1.93-2.193h8.78Z"/></defs></g><g stroke="#000" stroke-miterlimit="2"><g stroke-width=".26" transform="matrix(-3.84 0 0 -3.84 346.64 436.67)"><use fill-rule="evenodd" stroke="none" xlinkHref="#mfid125"/><defs><path id="mfid126" d="M9.921-2.193h8.78L16.771 0h-13.7l-1.93-2.193h8.78Zm9.922-.444H0"/></defs></g><g stroke-width=".13" transform="matrix(-3.84 0 0 -3.84 346.64 436.67)"><use xlinkHref="#mfid126"/><defs><path id="mfid127" d="M0 0h62.988v-1.968H0V0Z"/></defs></g></g><g stroke="#000"><g stroke-width=".13" stroke-miterlimit="2" transform="translate(189.07 524.44) scale(3.84)"><use fill-rule="evenodd" stroke="none" xlinkHref="#mfid127"/><defs><path id="mfid128" d="M0 0h62.988v-1.968H0V0Z"/></defs></g><g stroke-width=".083" stroke-linecap="round" stroke-linejoin="round" transform="translate(189.07 524.44) scale(3.84)"><use xlinkHref="#mfid128"/><defs><path id="mfid129" d="M0-62.3c0-.382.278-.692.622-.692h30.252c.344 0 .622.31.622.692V-.692c0 .382-.279.692-.622.692H.622C.278 0 0-.31 0-.692V-62.3Z"/></defs></g></g><g stroke="#000"><g stroke-width=".083" stroke-linecap="round" stroke-linejoin="round" transform="matrix(0 -3.84 3.84 0 430.77 646.29)"><use fill-rule="evenodd" stroke="none" xlinkHref="#mfid129"/><defs><path id="mfid130" d="M0-62.3c0-.382.278-.692.622-.692h30.252c.344 0 .622.31.622.692V-.692c0 .382-.279.692-.622.692H.622C.278 0 0-.31 0-.692V-62.3Z"/></defs></g><g stroke-width=".26" stroke-miterlimit="2" transform="matrix(0 -3.84 3.84 0 430.77 646.29)"><use xlinkHref="#mfid130"/><defs><path id="mfid131" d="M4.252-2.126a2.126 2.126 0 1 0-4.252 0 2.126 2.126 0 0 0 4.252 0Z"/></defs></g></g><g stroke-width=".26" stroke="#000" stroke-miterlimit="2" transform="matrix(0 -3.84 3.84 0 226.67 624.82)"><use fill-rule="evenodd" stroke="none" xlinkHref="#mfid131"/><defs><path id="mfid132" d="M2.953-1.476a1.476 1.476 0 1 0-2.953 0 1.476 1.476 0 0 0 2.953 0Z"/></defs></g><g stroke-width=".26" stroke="#000" stroke-miterlimit="2" transform="matrix(0 -3.84 3.84 0 224.18 622.33)"><use fill-rule="evenodd" stroke="none" xlinkHref="#mfid132"/><defs><path id="mfid133" d="M6.272 0c7.567 0 6.44-5 6.44-5l-.71-4.976c-.311-2.836-2.798-2.831-2.798-2.831H4.068C.908-12.325.73-9.532.73-9.532.635-8.728.032-4.593.032-4.593-.27-1.88 1.651-.803 1.651-.803 3.067 0 6.27 0 6.27 0ZM1.746-19.603s2.226-.24 5.005-.24 4.365.24 4.365.24c2.125.261 1.514 2.344 1.514 2.344-.023.224-.354 1.71-.449 1.983-.245.711-.704 1.193-1.333 1.455-.456.191-.93.322-1.418.323H3.432c-.489-.001-.962-.132-1.418-.323-.629-.262-1.087-.744-1.333-1.455-.095-.273-.426-1.759-.45-1.983 0 0-.61-2.083 1.515-2.344Z"/></defs></g><g stroke-width=".26" stroke="#000"><g stroke-miterlimit="2" transform="rotate(-179.113 170.775 324.96) scale(3.83996)"><use fill-rule="evenodd" stroke="none" xlinkHref="#mfid133"/><defs><path id="mfid134" d="M6.272 0c7.567 0 6.44-5 6.44-5l-.71-4.976c-.311-2.836-2.798-2.831-2.798-2.831H4.068C.908-12.325.73-9.532.73-9.532.635-8.728.032-4.593.032-4.593-.27-1.88 1.651-.803 1.651-.803 3.067 0 6.27 0 6.27 0ZM1.746-19.603s2.226-.24 5.005-.24 4.365.24 4.365.24c2.125.261 1.514 2.344 1.514 2.344-.023.224-.354 1.71-.449 1.983-.245.711-.704 1.193-1.333 1.455-.456.191-.93.322-1.418.323H3.432c-.489-.001-.962-.132-1.418-.323-.629-.262-1.087-.744-1.333-1.455-.095-.273-.426-1.759-.45-1.983 0 0-.61-2.083 1.515-2.344Z"/></defs></g><g stroke-linecap="round" stroke-linejoin="round" transform="rotate(-179.113 170.775 324.96) scale(3.83996)"><use xlinkHref="#mfid134"/><defs><path id="mfid135" d="M5.473-14.961s2.23-.205 5.008-.162c2.778.043 4.361.307 4.361.307.998.139 1.383.671 1.513 1.197.087-.356.398-2.038-1.496-2.301 0 0-1.583-.264-4.361-.307-2.778-.043-5.008.162-5.008.162-1.902.204-1.643 1.895-1.566 2.253.145-.521.547-1.041 1.549-1.149ZM19.837-1.755 18.405-7.21c-.475-1.685-1.245-1.585-1.551-1.53-.797.143-.682.892-.619 1.889l.67 5.324c.153.887.753 1.587 1.562 1.524.81-.063 1.424-.846 1.37-1.75ZM.007-2.062l1.601-5.41c.527-1.67 1.294-1.545 1.598-1.481.792.167.654.913.56 1.908l-.835 5.3C2.751-.862 2.13-.182 1.322-.27.515-.357-.074-1.16.008-2.062Zm3.937-1.496-.725-.011.262-1.67.718.033-.255 1.648ZM9.247-9.21l1.643.026.011-.691-1.643-.026-.01.691Zm6.702 5.838.725.011-.211-1.677-.717.011.203 1.655Z"/></defs></g></g><g stroke-width=".26" stroke="#000" stroke-linecap="round" stroke-linejoin="round" transform="matrix(-3.84 0 0 -3.84 349.7 666)"><use fill-rule="evenodd" stroke="none" xlinkHref="#mfid135"/><defs><path id="mfid136" d="M5.473-14.961s2.23-.205 5.008-.162c2.778.043 4.361.307 4.361.307.998.139 1.383.671 1.513 1.197.087-.356.398-2.038-1.496-2.301 0 0-1.583-.264-4.361-.307-2.778-.043-5.008.162-5.008.162-1.902.204-1.643 1.895-1.566 2.253.145-.521.547-1.041 1.549-1.149ZM19.837-1.755 18.405-7.21c-.475-1.685-1.245-1.585-1.551-1.53-.797.143-.682.892-.619 1.889l.67 5.324c.153.887.753 1.587 1.562 1.524.81-.063 1.424-.846 1.37-1.75ZM.007-2.062l1.601-5.41c.527-1.67 1.294-1.545 1.598-1.481.792.167.654.913.56 1.908l-.835 5.3C2.751-.862 2.13-.182 1.322-.27.515-.357-.074-1.16.008-2.062Zm3.937-1.496-.725-.011.262-1.67.718.033-.255 1.648ZM9.247-9.21l1.643.026.011-.691-1.643-.026-.01.691Zm6.702 5.838.725.011-.211-1.677-.717.011.203 1.655Z"/></defs><use xlinkHref="#mfid136"/><defs><path id="mfid137" d="M10.247-17.081H5.894a.22.22 0 0 0-.224.218v13.994c0 .12.101.218.224.218h4.352a.22.22 0 0 0 .224-.218v-13.994a.22.22 0 0 0-.223-.218Zm-6.734 4.145v-.021h.69c.325 0 .589.311.589.695v4.694c0 .384-.264.696-.59.696h-.689v-6.064Zm0 0v10.098L.577 0 0-.211v-19.421l.577-.211 2.936 2.839v4.068Z"/></defs></g><g stroke-width=".26" stroke="#000"><g stroke-linecap="round" stroke-linejoin="round" transform="matrix(0 3.84 -3.84 0 273.06 593.04)"><use fill-rule="evenodd" stroke="none" xlinkHref="#mfid137"/><defs><path id="mfid138" d="M10.247-17.081H5.894a.22.22 0 0 0-.224.218v13.994c0 .12.101.218.224.218h4.352a.22.22 0 0 0 .224-.218v-13.994a.22.22 0 0 0-.223-.218Zm-6.734 4.145v-.021h.69c.325 0 .589.311.589.695v4.694c0 .384-.264.696-.59.696h-.689v-6.064Zm0 0v10.098L.577 0 0-.211v-19.421l.577-.211 2.936 2.839v4.068Z"/></defs></g><g stroke-miterlimit="2" transform="matrix(0 3.84 -3.84 0 273.06 593.04)"><use xlinkHref="#mfid138"/><defs><path id="mfid139" d="M2.926-12.826v-.716h.736v.716h-.736v.86-.715h.736v.715h-.736v-.86Zm0 1.721v-.716h.736v.716h-.736v1.232-.716h.736v.716h-.736v-1.232Zm0 2.092v-.716h.736v.716h-.736v.86-.715h.736v.715h-.736v-.86Zm0 2.128V-7.6h.736v.715h-.736v.86-.714h.736v.715h-.736v-.86Zm0 5.164V-5.88h.736v4.158h-.736v.86-.715h.736v.715h-.736v-.86Zm0 1.72v-.715h.736V0h-.736L2.04-9.013v-.716h.736v.716H2.04L2.926 0ZM2.04-6.023V-7.6h.736v1.576H2.04v.86-.715h.736v.715H2.04v-.86Zm0-5.081v-.716h.736v.716H2.04V-13.542h.736v.716H2.04v1.721Zm0-.861v-.715h.736v.715H2.04v7.663-.716h.737v.716H2.04v-7.663Zm0 8.523v-.715h.736v.715H2.04v.861-.716h.737v.716H2.04v-.86Zm0 1.722v-.716h.736v.716H2.04V0v-1.576h.737V0H2.04v-1.721Zm-.886-5.164V-7.6h.736v.715h-.736v.86-.714h.736v.715h-.736v-.86Zm0 1.721v-.715h.736v.715h-.736v.86-.715h.737v.716h-.737v-.86Zm0 1.721v-.715h.737v.715h-.737v.861-.716h.737v.716h-.737v-.86Zm0 1.722v-.716h.737v.716h-.737v.86-.715h.737v.715h-.737v-.86Zm0 1.72v-.715h.737V0h-.737v-13.542h.736v.716h-.736V0Zm0-11.965v-.715h.736v.715h-.736v.861-.716h.736v.716h-.736v-.861ZM0-6.885V-7.6h.737v.715H0v.86-.714h.737v.715H0v-.86Zm0 1.721v-.715h.737v.715H0v.86-.715h.737v.716H0v-.86Zm0 1.721v-.715h.737v.715H0v.861-.716h.737v.716H0v-.86ZM0-1.72v-.716h.737v.716H0v.86-.715h.737v.715H0v-.86Zm0 1.72v-.715h.737V0H0v-8.868h.737v.715H0V0Zm0-12.825v-.716h.737v.716H0v.86-.715h.737v.715H0v-.86Zm0 1.721v-.716h.737v.716H0v1.232-.716h.737v.716H0v-1.232Zm0 2.092v-.716h.737v.716H0Z"/></defs></g></g><g stroke-width=".26" stroke="#000" stroke-miterlimit="2" transform="matrix(0 3.84 -3.84 0 284.94 617.42)"><use fill-rule="evenodd" stroke="none" xlinkHref="#mfid139"/><defs><path id="mfid140" d="M9.921-2.193h8.78L16.771 0h-13.7l-1.93-2.193h8.78Z"/></defs></g><g stroke="#000" stroke-miterlimit="2"><g stroke-width=".26" transform="matrix(3.84 0 0 3.84 273.05 605.36)"><use fill-rule="evenodd" stroke="none" xlinkHref="#mfid140"/><defs><path id="mfid141" d="M9.921-2.193h8.78L16.771 0h-13.7l-1.93-2.193h8.78Zm9.922-.444H0"/></defs></g><g stroke-width=".13" transform="matrix(3.84 0 0 3.84 273.05 605.36)"><use xlinkHref="#mfid141"/><defs><path id="mfid142" d="M0-62.3c0-.382.278-.692.622-.692h30.252c.344 0 .622.31.622.692V-.692c0 .382-.279.692-.622.692H.622C.278 0 0-.31 0-.692V-62.3Z"/></defs></g></g><g stroke="#000" stroke-miterlimit="2"><g stroke-width=".13" transform="matrix(0 3.84 -3.84 0 187.56 949.19)"><use fill-rule="evenodd" stroke="none" xlinkHref="#mfid142"/><defs><path id="mfid143" d="M0-62.3c0-.382.278-.692.622-.692h30.252c.344 0 .622.31.622.692V-.692c0 .382-.279.692-.622.692H.622C.278 0 0-.31 0-.692V-62.3Z"/></defs></g><g stroke-width=".26" transform="matrix(0 3.84 -3.84 0 187.56 949.19)"><use xlinkHref="#mfid143"/><defs><path id="mfid144" d="M4.252-2.126a2.126 2.126 0 1 0-4.252 0 2.126 2.126 0 0 0 4.252 0Z"/></defs></g></g><g stroke-width=".26" stroke="#000" stroke-miterlimit="2" transform="rotate(90 -289.5 681.16) scale(3.84)"><use fill-rule="evenodd" stroke="none" xlinkHref="#mfid144"/><defs><path id="mfid145" d="M2.953-1.476a1.476 1.476 0 1 0-2.953 0 1.476 1.476 0 0 0 2.953 0Z"/></defs></g><g stroke-width=".26" stroke="#000" stroke-miterlimit="2" transform="matrix(0 3.84 -3.84 0 394.15 973.16)"><use fill-rule="evenodd" stroke="none" xlinkHref="#mfid145"/><defs><path id="mfid146" d="M6.272 0c7.567 0 6.44-5 6.44-5l-.71-4.976c-.311-2.836-2.798-2.831-2.798-2.831H4.068C.908-12.325.73-9.532.73-9.532.635-8.728.032-4.593.032-4.593-.27-1.88 1.651-.803 1.651-.803 3.067 0 6.27 0 6.27 0ZM1.746-19.603s2.226-.24 5.005-.24 4.365.24 4.365.24c2.125.261 1.514 2.344 1.514 2.344-.023.224-.354 1.71-.449 1.983-.245.711-.704 1.193-1.333 1.455-.456.191-.93.322-1.418.323H3.432c-.489-.001-.962-.132-1.418-.323-.629-.262-1.087-.744-1.333-1.455-.095-.273-.426-1.759-.45-1.983 0 0-.61-2.083 1.515-2.344Z"/></defs></g><g stroke-width=".26" stroke="#000"><g stroke-miterlimit="2" transform="rotate(.887 -60699.45 19102.823) scale(3.83996)"><use fill-rule="evenodd" stroke="none" xlinkHref="#mfid146"/><defs><path id="mfid147" d="M6.272 0c7.567 0 6.44-5 6.44-5l-.71-4.976c-.311-2.836-2.798-2.831-2.798-2.831H4.068C.908-12.325.73-9.532.73-9.532.635-8.728.032-4.593.032-4.593-.27-1.88 1.651-.803 1.651-.803 3.067 0 6.27 0 6.27 0ZM1.746-19.603s2.226-.24 5.005-.24 4.365.24 4.365.24c2.125.261 1.514 2.344 1.514 2.344-.023.224-.354 1.71-.449 1.983-.245.711-.704 1.193-1.333 1.455-.456.191-.93.322-1.418.323H3.432c-.489-.001-.962-.132-1.418-.323-.629-.262-1.087-.744-1.333-1.455-.095-.273-.426-1.759-.45-1.983 0 0-.61-2.083 1.515-2.344Z"/></defs></g><g stroke-linecap="round" stroke-linejoin="round" transform="rotate(.887 -60699.45 19102.823) scale(3.83996)"><use xlinkHref="#mfid147"/><defs><path id="mfid148" d="M5.473-14.961s2.23-.205 5.008-.162c2.778.043 4.361.307 4.361.307.998.139 1.383.671 1.513 1.197.087-.356.398-2.038-1.496-2.301 0 0-1.583-.264-4.361-.307-2.778-.043-5.008.162-5.008.162-1.902.204-1.643 1.895-1.566 2.253.145-.521.547-1.041 1.549-1.149ZM19.837-1.755 18.405-7.21c-.475-1.685-1.245-1.585-1.551-1.53-.797.143-.682.892-.619 1.889l.67 5.324c.153.887.753 1.587 1.562 1.524.81-.063 1.424-.846 1.37-1.75ZM.007-2.062l1.601-5.41c.527-1.67 1.294-1.545 1.598-1.481.792.167.654.913.56 1.908l-.835 5.3C2.751-.862 2.13-.182 1.322-.27.515-.357-.074-1.16.008-2.062Zm3.937-1.496-.725-.011.262-1.67.718.033-.255 1.648ZM9.247-9.21l1.643.026.011-.691-1.643-.026-.01.691Zm6.702 5.838.725.011-.211-1.677-.717.011.203 1.655Z"/></defs></g></g><g stroke-width=".26" stroke="#000" stroke-linecap="round" stroke-linejoin="round" transform="matrix(3.84 0 0 3.84 275.72 929.96)"><use fill-rule="evenodd" stroke="none" xlinkHref="#mfid148"/><defs><path id="mfid149" d="M5.473-14.961s2.23-.205 5.008-.162c2.778.043 4.361.307 4.361.307.998.139 1.383.671 1.513 1.197.087-.356.398-2.038-1.496-2.301 0 0-1.583-.264-4.361-.307-2.778-.043-5.008.162-5.008.162-1.902.204-1.643 1.895-1.566 2.253.145-.521.547-1.041 1.549-1.149ZM19.837-1.755 18.405-7.21c-.475-1.685-1.245-1.585-1.551-1.53-.797.143-.682.892-.619 1.889l.67 5.324c.153.887.753 1.587 1.562 1.524.81-.063 1.424-.846 1.37-1.75ZM.007-2.062l1.601-5.41c.527-1.67 1.294-1.545 1.598-1.481.792.167.654.913.56 1.908l-.835 5.3C2.751-.862 2.13-.182 1.322-.27.515-.357-.074-1.16.008-2.062Zm3.937-1.496-.725-.011.262-1.67.718.033-.255 1.648ZM9.247-9.21l1.643.026.011-.691-1.643-.026-.01.691Zm6.702 5.838.725.011-.211-1.677-.717.011.203 1.655Z"/></defs><use xlinkHref="#mfid149"/><defs><path id="mfid150" d="M10.247-17.081H5.894a.22.22 0 0 0-.224.218v13.994c0 .12.101.218.224.218h4.352a.22.22 0 0 0 .224-.218v-13.994a.22.22 0 0 0-.223-.218Zm-6.734 4.145v-.021h.69c.325 0 .589.311.589.695v4.694c0 .384-.264.696-.59.696h-.689v-6.064Zm0 0v10.098L.577 0 0-.211v-19.421l.577-.211 2.936 2.839v4.068Z"/></defs></g><g stroke-width=".26" stroke="#000"><g stroke-linecap="round" stroke-linejoin="round" transform="matrix(0 -3.84 3.84 0 352.36 1002.9)"><use fill-rule="evenodd" stroke="none" xlinkHref="#mfid150"/><defs><path id="mfid151" d="M10.247-17.081H5.894a.22.22 0 0 0-.224.218v13.994c0 .12.101.218.224.218h4.352a.22.22 0 0 0 .224-.218v-13.994a.22.22 0 0 0-.223-.218Zm-6.734 4.145v-.021h.69c.325 0 .589.311.589.695v4.694c0 .384-.264.696-.59.696h-.689v-6.064Zm0 0v10.098L.577 0 0-.211v-19.421l.577-.211 2.936 2.839v4.068Z"/></defs></g><g stroke-miterlimit="2" transform="matrix(0 -3.84 3.84 0 352.36 1002.9)"><use xlinkHref="#mfid151"/><defs><path id="mfid152" d="M2.926-12.826v-.716h.736v.716h-.736v.86-.715h.736v.715h-.736v-.86Zm0 1.721v-.716h.736v.716h-.736v1.232-.716h.736v.716h-.736v-1.232Zm0 2.092v-.716h.736v.716h-.736v.86-.715h.736v.715h-.736v-.86Zm0 2.128V-7.6h.736v.715h-.736v.86-.714h.736v.715h-.736v-.86Zm0 5.164V-5.88h.736v4.158h-.736v.86-.715h.736v.715h-.736v-.86Zm0 1.72v-.715h.736V0h-.736L2.04-9.013v-.716h.736v.716H2.04L2.926 0ZM2.04-6.023V-7.6h.736v1.576H2.04v.86-.715h.736v.715H2.04v-.86Zm0-5.081v-.716h.736v.716H2.04V-13.542h.736v.716H2.04v1.721Zm0-.861v-.715h.736v.715H2.04v7.663-.716h.737v.716H2.04v-7.663Zm0 8.523v-.715h.736v.715H2.04v.861-.716h.737v.716H2.04v-.86Zm0 1.722v-.716h.736v.716H2.04V0v-1.576h.737V0H2.04v-1.721Zm-.886-5.164V-7.6h.736v.715h-.736v.86-.714h.736v.715h-.736v-.86Zm0 1.721v-.715h.736v.715h-.736v.86-.715h.737v.716h-.737v-.86Zm0 1.721v-.715h.737v.715h-.737v.861-.716h.737v.716h-.737v-.86Zm0 1.722v-.716h.737v.716h-.737v.86-.715h.737v.715h-.737v-.86Zm0 1.72v-.715h.737V0h-.737v-13.542h.736v.716h-.736V0Zm0-11.965v-.715h.736v.715h-.736v.861-.716h.736v.716h-.736v-.861ZM0-6.885V-7.6h.737v.715H0v.86-.714h.737v.715H0v-.86Zm0 1.721v-.715h.737v.715H0v.86-.715h.737v.716H0v-.86Zm0 1.721v-.715h.737v.715H0v.861-.716h.737v.716H0v-.86ZM0-1.72v-.716h.737v.716H0v.86-.715h.737v.715H0v-.86Zm0 1.72v-.715h.737V0H0v-8.868h.737v.715H0V0Zm0-12.825v-.716h.737v.716H0v.86-.715h.737v.715H0v-.86Zm0 1.721v-.716h.737v.716H0v1.232-.716h.737v.716H0v-1.232Zm0 2.092v-.716h.737v.716H0Z"/></defs></g></g><g stroke-width=".26" stroke="#000" stroke-miterlimit="2" transform="matrix(0 -3.84 3.84 0 340.47 978.54)"><use fill-rule="evenodd" stroke="none" xlinkHref="#mfid152"/><defs><path id="mfid153" d="M9.921-2.193h8.78L16.771 0h-13.7l-1.93-2.193h8.78Z"/></defs></g><g stroke="#000" stroke-miterlimit="2"><g stroke-width=".26" transform="rotate(180 176.18 495.3) scale(3.84)"><use fill-rule="evenodd" stroke="none" xlinkHref="#mfid153"/><defs><path id="mfid154" d="M9.921-2.193h8.78L16.771 0h-13.7l-1.93-2.193h8.78Zm9.922-.444H0"/></defs></g><g stroke-width=".13" transform="rotate(180 176.18 495.3) scale(3.84)"><use xlinkHref="#mfid154"/><defs><path id="mfid155" d="M0-62.3c0-.382.278-.692.622-.692h30.252c.344 0 .622.31.622.692V-.692c0 .382-.279.692-.622.692H.622C.278 0 0-.31 0-.692V-62.3Z"/></defs></g></g><g stroke="#000" stroke-miterlimit="2"><g stroke-width=".13" transform="matrix(0 3.84 -3.84 0 439.28 949.19)"><use fill-rule="evenodd" stroke="none" xlinkHref="#mfid155"/><defs><path id="mfid156" d="M0-62.3c0-.382.278-.692.622-.692h30.252c.344 0 .622.31.622.692V-.692c0 .382-.279.692-.622.692H.622C.278 0 0-.31 0-.692V-62.3Z"/></defs></g><g stroke-width=".26" transform="matrix(0 3.84 -3.84 0 439.28 949.19)"><use xlinkHref="#mfid156"/><defs><path id="mfid157" d="M4.252-2.126a2.126 2.126 0 1 0-4.252 0 2.126 2.126 0 0 0 4.252 0Z"/></defs></g></g><g stroke-width=".26" stroke="#000" stroke-miterlimit="2" transform="matrix(0 3.84 -3.84 0 643.38 970.66)"><use fill-rule="evenodd" stroke="none" xlinkHref="#mfid157"/><defs><path id="mfid158" d="M2.953-1.476a1.476 1.476 0 1 0-2.953 0 1.476 1.476 0 0 0 2.953 0Z"/></defs></g><g stroke-width=".26" stroke="#000" stroke-miterlimit="2" transform="matrix(0 3.84 -3.84 0 645.87 973.16)"><use fill-rule="evenodd" stroke="none" xlinkHref="#mfid158"/><defs><path id="mfid159" d="M6.272 0c7.567 0 6.44-5 6.44-5l-.71-4.976c-.311-2.836-2.798-2.831-2.798-2.831H4.068C.908-12.325.73-9.532.73-9.532.635-8.728.032-4.593.032-4.593-.27-1.88 1.651-.803 1.651-.803 3.067 0 6.27 0 6.27 0ZM1.746-19.603s2.226-.24 5.005-.24 4.365.24 4.365.24c2.125.261 1.514 2.344 1.514 2.344-.023.224-.354 1.71-.449 1.983-.245.711-.704 1.193-1.333 1.455-.456.191-.93.322-1.418.323H3.432c-.489-.001-.962-.132-1.418-.323-.629-.262-1.087-.744-1.333-1.455-.095-.273-.426-1.759-.45-1.983 0 0-.61-2.083 1.515-2.344Z"/></defs></g><g stroke-width=".26" stroke="#000"><g stroke-miterlimit="2" transform="rotate(.887 -60574.028 35336.503) scale(3.83996)"><use fill-rule="evenodd" stroke="none" xlinkHref="#mfid159"/><defs><path id="mfid160" d="M6.272 0c7.567 0 6.44-5 6.44-5l-.71-4.976c-.311-2.836-2.798-2.831-2.798-2.831H4.068C.908-12.325.73-9.532.73-9.532.635-8.728.032-4.593.032-4.593-.27-1.88 1.651-.803 1.651-.803 3.067 0 6.27 0 6.27 0ZM1.746-19.603s2.226-.24 5.005-.24 4.365.24 4.365.24c2.125.261 1.514 2.344 1.514 2.344-.023.224-.354 1.71-.449 1.983-.245.711-.704 1.193-1.333 1.455-.456.191-.93.322-1.418.323H3.432c-.489-.001-.962-.132-1.418-.323-.629-.262-1.087-.744-1.333-1.455-.095-.273-.426-1.759-.45-1.983 0 0-.61-2.083 1.515-2.344Z"/></defs></g><g stroke-linecap="round" stroke-linejoin="round" transform="rotate(.887 -60574.028 35336.503) scale(3.83996)"><use xlinkHref="#mfid160"/><defs><path id="mfid161" d="M5.473-14.961s2.23-.205 5.008-.162c2.778.043 4.361.307 4.361.307.998.139 1.383.671 1.513 1.197.087-.356.398-2.038-1.496-2.301 0 0-1.583-.264-4.361-.307-2.778-.043-5.008.162-5.008.162-1.902.204-1.643 1.895-1.566 2.253.145-.521.547-1.041 1.549-1.149ZM19.837-1.755 18.405-7.21c-.475-1.685-1.245-1.585-1.551-1.53-.797.143-.682.892-.619 1.889l.67 5.324c.153.887.753 1.587 1.562 1.524.81-.063 1.424-.846 1.37-1.75ZM.007-2.062l1.601-5.41c.527-1.67 1.294-1.545 1.598-1.481.792.167.654.913.56 1.908l-.835 5.3C2.751-.862 2.13-.182 1.322-.27.515-.357-.074-1.16.008-2.062Zm3.937-1.496-.725-.011.262-1.67.718.033-.255 1.648ZM9.247-9.21l1.643.026.011-.691-1.643-.026-.01.691Zm6.702 5.838.725.011-.211-1.677-.717.011.203 1.655Z"/></defs></g></g><g stroke-width=".26" stroke="#000" stroke-linecap="round" stroke-linejoin="round" transform="matrix(3.84 0 0 3.84 527.43 929.96)"><use fill-rule="evenodd" stroke="none" xlinkHref="#mfid161"/><defs><path id="mfid162" d="M5.473-14.961s2.23-.205 5.008-.162c2.778.043 4.361.307 4.361.307.998.139 1.383.671 1.513 1.197.087-.356.398-2.038-1.496-2.301 0 0-1.583-.264-4.361-.307-2.778-.043-5.008.162-5.008.162-1.902.204-1.643 1.895-1.566 2.253.145-.521.547-1.041 1.549-1.149ZM19.837-1.755 18.405-7.21c-.475-1.685-1.245-1.585-1.551-1.53-.797.143-.682.892-.619 1.889l.67 5.324c.153.887.753 1.587 1.562 1.524.81-.063 1.424-.846 1.37-1.75ZM.007-2.062l1.601-5.41c.527-1.67 1.294-1.545 1.598-1.481.792.167.654.913.56 1.908l-.835 5.3C2.751-.862 2.13-.182 1.322-.27.515-.357-.074-1.16.008-2.062Zm3.937-1.496-.725-.011.262-1.67.718.033-.255 1.648ZM9.247-9.21l1.643.026.011-.691-1.643-.026-.01.691Zm6.702 5.838.725.011-.211-1.677-.717.011.203 1.655Z"/></defs><use xlinkHref="#mfid162"/><defs><path id="mfid163" d="M10.247-17.081H5.894a.22.22 0 0 0-.224.218v13.994c0 .12.101.218.224.218h4.352a.22.22 0 0 0 .224-.218v-13.994a.22.22 0 0 0-.223-.218Zm-6.734 4.145v-.021h.69c.325 0 .589.311.589.695v4.694c0 .384-.264.696-.59.696h-.689v-6.064Zm0 0v10.098L.577 0 0-.211v-19.421l.577-.211 2.936 2.839v4.068Z"/></defs></g><g stroke-width=".26" stroke="#000"><g stroke-linecap="round" stroke-linejoin="round" transform="matrix(0 -3.84 3.84 0 604.07 1002.9)"><use fill-rule="evenodd" stroke="none" xlinkHref="#mfid163"/><defs><path id="mfid164" d="M10.247-17.081H5.894a.22.22 0 0 0-.224.218v13.994c0 .12.101.218.224.218h4.352a.22.22 0 0 0 .224-.218v-13.994a.22.22 0 0 0-.223-.218Zm-6.734 4.145v-.021h.69c.325 0 .589.311.589.695v4.694c0 .384-.264.696-.59.696h-.689v-6.064Zm0 0v10.098L.577 0 0-.211v-19.421l.577-.211 2.936 2.839v4.068Z"/></defs></g><g stroke-miterlimit="2" transform="matrix(0 -3.84 3.84 0 604.07 1002.9)"><use xlinkHref="#mfid164"/><defs><path id="mfid165" d="M2.926-12.826v-.716h.736v.716h-.736v.86-.715h.736v.715h-.736v-.86Zm0 1.721v-.716h.736v.716h-.736v1.232-.716h.736v.716h-.736v-1.232Zm0 2.092v-.716h.736v.716h-.736v.86-.715h.736v.715h-.736v-.86Zm0 2.128V-7.6h.736v.715h-.736v.86-.714h.736v.715h-.736v-.86Zm0 5.164V-5.88h.736v4.158h-.736v.86-.715h.736v.715h-.736v-.86Zm0 1.72v-.715h.736V0h-.736L2.04-9.013v-.716h.736v.716H2.04L2.926 0ZM2.04-6.023V-7.6h.736v1.576H2.04v.86-.715h.736v.715H2.04v-.86Zm0-5.081v-.716h.736v.716H2.04V-13.542h.736v.716H2.04v1.721Zm0-.861v-.715h.736v.715H2.04v7.663-.716h.737v.716H2.04v-7.663Zm0 8.523v-.715h.736v.715H2.04v.861-.716h.737v.716H2.04v-.86Zm0 1.722v-.716h.736v.716H2.04V0v-1.576h.737V0H2.04v-1.721Zm-.886-5.164V-7.6h.736v.715h-.736v.86-.714h.736v.715h-.736v-.86Zm0 1.721v-.715h.736v.715h-.736v.86-.715h.737v.716h-.737v-.86Zm0 1.721v-.715h.737v.715h-.737v.861-.716h.737v.716h-.737v-.86Zm0 1.722v-.716h.737v.716h-.737v.86-.715h.737v.715h-.737v-.86Zm0 1.72v-.715h.737V0h-.737v-13.542h.736v.716h-.736V0Zm0-11.965v-.715h.736v.715h-.736v.861-.716h.736v.716h-.736v-.861ZM0-6.885V-7.6h.737v.715H0v.86-.714h.737v.715H0v-.86Zm0 1.721v-.715h.737v.715H0v.86-.715h.737v.716H0v-.86Zm0 1.721v-.715h.737v.715H0v.861-.716h.737v.716H0v-.86ZM0-1.72v-.716h.737v.716H0v.86-.715h.737v.715H0v-.86Zm0 1.72v-.715h.737V0H0v-8.868h.737v.715H0V0Zm0-12.825v-.716h.737v.716H0v.86-.715h.737v.715H0v-.86Zm0 1.721v-.716h.737v.716H0v1.232-.716h.737v.716H0v-1.232Zm0 2.092v-.716h.737v.716H0Z"/></defs></g></g><g stroke-width=".26" stroke="#000" stroke-miterlimit="2" transform="matrix(0 -3.84 3.84 0 592.19 978.54)"><use fill-rule="evenodd" stroke="none" xlinkHref="#mfid165"/><defs><path id="mfid166" d="M9.921-2.193h8.78L16.771 0h-13.7l-1.93-2.193h8.78Z"/></defs></g><g stroke="#000" stroke-miterlimit="2"><g stroke-width=".26" transform="rotate(180 302.04 495.3) scale(3.84)"><use fill-rule="evenodd" stroke="none" xlinkHref="#mfid166"/><defs><path id="mfid167" d="M9.921-2.193h8.78L16.771 0h-13.7l-1.93-2.193h8.78Zm9.922-.444H0"/></defs></g><g stroke-width=".13" transform="rotate(180 302.04 495.3) scale(3.84)"><use xlinkHref="#mfid167"/><defs><path id="mfid168" d="M0 0h31.496v-1.968H0V0Z"/></defs></g></g><g stroke="#000"><g stroke-width=".13" stroke-miterlimit="2" transform="matrix(0 3.84 -3.84 0 682.26 950.78)"><use fill-rule="evenodd" stroke="none" xlinkHref="#mfid168"/><defs><path id="mfid169" d="M0 0h31.496v-1.968H0V0Z"/></defs></g><g stroke-width=".083" stroke-linecap="round" stroke-linejoin="round" transform="matrix(0 3.84 -3.84 0 682.26 950.78)"><use xlinkHref="#mfid169"/><defs><path id="mfid170" d="M0-62.3c0-.382.278-.692.622-.692h30.252c.344 0 .622.31.622.692V-.692c0 .382-.279.692-.622.692H.622C.278 0 0-.31 0-.692V-62.3Z"/></defs></g></g><g stroke="#000"><g stroke-width=".083" stroke-linecap="round" stroke-linejoin="round" transform="matrix(0 3.84 -3.84 0 691 949.19)"><use fill-rule="evenodd" stroke="none" xlinkHref="#mfid170"/><defs><path id="mfid171" d="M0-62.3c0-.382.278-.692.622-.692h30.252c.344 0 .622.31.622.692V-.692c0 .382-.279.692-.622.692H.622C.278 0 0-.31 0-.692V-62.3Z"/></defs></g><g stroke-width=".26" stroke-miterlimit="2" transform="matrix(0 3.84 -3.84 0 691 949.19)"><use xlinkHref="#mfid171"/><defs><path id="mfid172" d="M4.252-2.126a2.126 2.126 0 1 0-4.252 0 2.126 2.126 0 0 0 4.252 0Z"/></defs></g></g><g stroke-width=".26" stroke="#000" stroke-miterlimit="2" transform="matrix(0 3.84 -3.84 0 895.09 970.66)"><use fill-rule="evenodd" stroke="none" xlinkHref="#mfid172"/><defs><path id="mfid173" d="M2.953-1.476a1.476 1.476 0 1 0-2.953 0 1.476 1.476 0 0 0 2.953 0Z"/></defs></g><g stroke-width=".26" stroke="#000" stroke-miterlimit="2" transform="matrix(0 3.84 -3.84 0 897.59 973.16)"><use fill-rule="evenodd" stroke="none" xlinkHref="#mfid173"/><defs><path id="mfid174" d="M6.272 0c7.567 0 6.44-5 6.44-5l-.71-4.976c-.311-2.836-2.798-2.831-2.798-2.831H4.068C.908-12.325.73-9.532.73-9.532.635-8.728.032-4.593.032-4.593-.27-1.88 1.651-.803 1.651-.803 3.067 0 6.27 0 6.27 0ZM1.746-19.603s2.226-.24 5.005-.24 4.365.24 4.365.24c2.125.261 1.514 2.344 1.514 2.344-.023.224-.354 1.71-.449 1.983-.245.711-.704 1.193-1.333 1.455-.456.191-.93.322-1.418.323H3.432c-.489-.001-.962-.132-1.418-.323-.629-.262-1.087-.744-1.333-1.455-.095-.273-.426-1.759-.45-1.983 0 0-.61-2.083 1.515-2.344Z"/></defs></g><g stroke-width=".26" stroke="#000"><g stroke-miterlimit="2" transform="rotate(.887 -60448.606 51570.182) scale(3.83996)"><use fill-rule="evenodd" stroke="none" xlinkHref="#mfid174"/><defs><path id="mfid175" d="M6.272 0c7.567 0 6.44-5 6.44-5l-.71-4.976c-.311-2.836-2.798-2.831-2.798-2.831H4.068C.908-12.325.73-9.532.73-9.532.635-8.728.032-4.593.032-4.593-.27-1.88 1.651-.803 1.651-.803 3.067 0 6.27 0 6.27 0ZM1.746-19.603s2.226-.24 5.005-.24 4.365.24 4.365.24c2.125.261 1.514 2.344 1.514 2.344-.023.224-.354 1.71-.449 1.983-.245.711-.704 1.193-1.333 1.455-.456.191-.93.322-1.418.323H3.432c-.489-.001-.962-.132-1.418-.323-.629-.262-1.087-.744-1.333-1.455-.095-.273-.426-1.759-.45-1.983 0 0-.61-2.083 1.515-2.344Z"/></defs></g><g stroke-linecap="round" stroke-linejoin="round" transform="rotate(.887 -60448.606 51570.182) scale(3.83996)"><use xlinkHref="#mfid175"/><defs><path id="mfid176" d="M5.473-14.961s2.23-.205 5.008-.162c2.778.043 4.361.307 4.361.307.998.139 1.383.671 1.513 1.197.087-.356.398-2.038-1.496-2.301 0 0-1.583-.264-4.361-.307-2.778-.043-5.008.162-5.008.162-1.902.204-1.643 1.895-1.566 2.253.145-.521.547-1.041 1.549-1.149ZM19.837-1.755 18.405-7.21c-.475-1.685-1.245-1.585-1.551-1.53-.797.143-.682.892-.619 1.889l.67 5.324c.153.887.753 1.587 1.562 1.524.81-.063 1.424-.846 1.37-1.75ZM.007-2.062l1.601-5.41c.527-1.67 1.294-1.545 1.598-1.481.792.167.654.913.56 1.908l-.835 5.3C2.751-.862 2.13-.182 1.322-.27.515-.357-.074-1.16.008-2.062Zm3.937-1.496-.725-.011.262-1.67.718.033-.255 1.648ZM9.247-9.21l1.643.026.011-.691-1.643-.026-.01.691Zm6.702 5.838.725.011-.211-1.677-.717.011.203 1.655Z"/></defs></g></g><g stroke-width=".26" stroke="#000" stroke-linecap="round" stroke-linejoin="round" transform="matrix(3.84 0 0 3.84 779.15 929.96)"><use fill-rule="evenodd" stroke="none" xlinkHref="#mfid176"/><defs><path id="mfid177" d="M5.473-14.961s2.23-.205 5.008-.162c2.778.043 4.361.307 4.361.307.998.139 1.383.671 1.513 1.197.087-.356.398-2.038-1.496-2.301 0 0-1.583-.264-4.361-.307-2.778-.043-5.008.162-5.008.162-1.902.204-1.643 1.895-1.566 2.253.145-.521.547-1.041 1.549-1.149ZM19.837-1.755 18.405-7.21c-.475-1.685-1.245-1.585-1.551-1.53-.797.143-.682.892-.619 1.889l.67 5.324c.153.887.753 1.587 1.562 1.524.81-.063 1.424-.846 1.37-1.75ZM.007-2.062l1.601-5.41c.527-1.67 1.294-1.545 1.598-1.481.792.167.654.913.56 1.908l-.835 5.3C2.751-.862 2.13-.182 1.322-.27.515-.357-.074-1.16.008-2.062Zm3.937-1.496-.725-.011.262-1.67.718.033-.255 1.648ZM9.247-9.21l1.643.026.011-.691-1.643-.026-.01.691Zm6.702 5.838.725.011-.211-1.677-.717.011.203 1.655Z"/></defs><use xlinkHref="#mfid177"/><defs><path id="mfid178" d="M10.247-17.081H5.894a.22.22 0 0 0-.224.218v13.994c0 .12.101.218.224.218h4.352a.22.22 0 0 0 .224-.218v-13.994a.22.22 0 0 0-.223-.218Zm-6.734 4.145v-.021h.69c.325 0 .589.311.589.695v4.694c0 .384-.264.696-.59.696h-.689v-6.064Zm0 0v10.098L.577 0 0-.211v-19.421l.577-.211 2.936 2.839v4.068Z"/></defs></g><g stroke-width=".26" stroke="#000"><g stroke-linecap="round" stroke-linejoin="round" transform="matrix(0 -3.84 3.84 0 855.79 1002.9)"><use fill-rule="evenodd" stroke="none" xlinkHref="#mfid178"/><defs><path id="mfid179" d="M10.247-17.081H5.894a.22.22 0 0 0-.224.218v13.994c0 .12.101.218.224.218h4.352a.22.22 0 0 0 .224-.218v-13.994a.22.22 0 0 0-.223-.218Zm-6.734 4.145v-.021h.69c.325 0 .589.311.589.695v4.694c0 .384-.264.696-.59.696h-.689v-6.064Zm0 0v10.098L.577 0 0-.211v-19.421l.577-.211 2.936 2.839v4.068Z"/></defs></g><g stroke-miterlimit="2" transform="matrix(0 -3.84 3.84 0 855.79 1002.9)"><use xlinkHref="#mfid179"/><defs><path id="mfid180" d="M2.926-12.826v-.716h.736v.716h-.736v.86-.715h.736v.715h-.736v-.86Zm0 1.721v-.716h.736v.716h-.736v1.232-.716h.736v.716h-.736v-1.232Zm0 2.092v-.716h.736v.716h-.736v.86-.715h.736v.715h-.736v-.86Zm0 2.128V-7.6h.736v.715h-.736v.86-.714h.736v.715h-.736v-.86Zm0 5.164V-5.88h.736v4.158h-.736v.86-.715h.736v.715h-.736v-.86Zm0 1.72v-.715h.736V0h-.736L2.04-9.013v-.716h.736v.716H2.04L2.926 0ZM2.04-6.023V-7.6h.736v1.576H2.04v.86-.715h.736v.715H2.04v-.86Zm0-5.081v-.716h.736v.716H2.04V-13.542h.736v.716H2.04v1.721Zm0-.861v-.715h.736v.715H2.04v7.663-.716h.737v.716H2.04v-7.663Zm0 8.523v-.715h.736v.715H2.04v.861-.716h.737v.716H2.04v-.86Zm0 1.722v-.716h.736v.716H2.04V0v-1.576h.737V0H2.04v-1.721Zm-.886-5.164V-7.6h.736v.715h-.736v.86-.714h.736v.715h-.736v-.86Zm0 1.721v-.715h.736v.715h-.736v.86-.715h.737v.716h-.737v-.86Zm0 1.721v-.715h.737v.715h-.737v.861-.716h.737v.716h-.737v-.86Zm0 1.722v-.716h.737v.716h-.737v.86-.715h.737v.715h-.737v-.86Zm0 1.72v-.715h.737V0h-.737v-13.542h.736v.716h-.736V0Zm0-11.965v-.715h.736v.715h-.736v.861-.716h.736v.716h-.736v-.861ZM0-6.885V-7.6h.737v.715H0v.86-.714h.737v.715H0v-.86Zm0 1.721v-.715h.737v.715H0v.86-.715h.737v.716H0v-.86Zm0 1.721v-.715h.737v.715H0v.861-.716h.737v.716H0v-.86ZM0-1.72v-.716h.737v.716H0v.86-.715h.737v.715H0v-.86Zm0 1.72v-.715h.737V0H0v-8.868h.737v.715H0V0Zm0-12.825v-.716h.737v.716H0v.86-.715h.737v.715H0v-.86Zm0 1.721v-.716h.737v.716H0v1.232-.716h.737v.716H0v-1.232Zm0 2.092v-.716h.737v.716H0Z"/></defs></g></g><g stroke-width=".26" stroke="#000" stroke-miterlimit="2" transform="matrix(0 -3.84 3.84 0 843.9 978.54)"><use fill-rule="evenodd" stroke="none" xlinkHref="#mfid180"/><defs><path id="mfid181" d="M9.921-2.193h8.78L16.771 0h-13.7l-1.93-2.193h8.78Z"/></defs></g><g stroke="#000" stroke-miterlimit="2"><g stroke-width=".26" transform="rotate(180 427.9 495.3) scale(3.84)"><use fill-rule="evenodd" stroke="none" xlinkHref="#mfid181"/><defs><path id="mfid182" d="M9.921-2.193h8.78L16.771 0h-13.7l-1.93-2.193h8.78Zm9.922-.444H0"/></defs></g><g stroke-width=".13" transform="rotate(180 427.9 495.3) scale(3.84)"><use xlinkHref="#mfid182"/><defs><path id="mfid183" d="M0 0h31.496v-1.968H0V0Z"/></defs></g></g><g stroke="#000"><g stroke-width=".13" stroke-miterlimit="2" transform="matrix(0 3.84 -3.84 0 934.19 950.78)"><use fill-rule="evenodd" stroke="none" xlinkHref="#mfid183"/><defs><path id="mfid184" d="M0 0h31.496v-1.968H0V0Z"/></defs></g><g stroke-width=".083" stroke-linecap="round" stroke-linejoin="round" transform="matrix(0 3.84 -3.84 0 934.19 950.78)"><use xlinkHref="#mfid184"/><defs><path id="mfid185" d="M0-62.3c0-.382.278-.692.622-.692h30.252c.344 0 .622.31.622.692V-.692c0 .382-.279.692-.622.692H.622C.278 0 0-.31 0-.692V-62.3Z"/></defs></g></g><g stroke="#000"><g stroke-width=".083" stroke-linecap="round" stroke-linejoin="round" transform="matrix(0 3.84 -3.84 0 942.92 949.19)"><use fill-rule="evenodd" stroke="none" xlinkHref="#mfid185"/><defs><path id="mfid186" d="M0-62.3c0-.382.278-.692.622-.692h30.252c.344 0 .622.31.622.692V-.692c0 .382-.279.692-.622.692H.622C.278 0 0-.31 0-.692V-62.3Z"/></defs></g><g stroke-width=".26" stroke-miterlimit="2" transform="matrix(0 3.84 -3.84 0 942.92 949.19)"><use xlinkHref="#mfid186"/><defs><path id="mfid187" d="M4.252-2.126a2.126 2.126 0 1 0-4.252 0 2.126 2.126 0 0 0 4.252 0Z"/></defs></g></g><g stroke-width=".26" stroke="#000" stroke-miterlimit="2" transform="matrix(0 3.84 -3.84 0 1147 970.66)"><use fill-rule="evenodd" stroke="none" xlinkHref="#mfid187"/><defs><path id="mfid188" d="M2.953-1.476a1.476 1.476 0 1 0-2.953 0 1.476 1.476 0 0 0 2.953 0Z"/></defs></g><g stroke-width=".26" stroke="#000" stroke-miterlimit="2" transform="rotate(90 88.17 1061.33) scale(3.84)"><use fill-rule="evenodd" stroke="none" xlinkHref="#mfid188"/><defs><path id="mfid189" d="M6.272 0c7.567 0 6.44-5 6.44-5l-.71-4.976c-.311-2.836-2.798-2.831-2.798-2.831H4.068C.908-12.325.73-9.532.73-9.532.635-8.728.032-4.593.032-4.593-.27-1.88 1.651-.803 1.651-.803 3.067 0 6.27 0 6.27 0ZM1.746-19.603s2.226-.24 5.005-.24 4.365.24 4.365.24c2.125.261 1.514 2.344 1.514 2.344-.023.224-.354 1.71-.449 1.983-.245.711-.704 1.193-1.333 1.455-.456.191-.93.322-1.418.323H3.432c-.489-.001-.962-.132-1.418-.323-.629-.262-1.087-.744-1.333-1.455-.095-.273-.426-1.759-.45-1.983 0 0-.61-2.083 1.515-2.344Z"/></defs></g><g stroke-width=".26" stroke="#000"><g stroke-miterlimit="2" transform="rotate(.887 -60323.075 67818.05) scale(3.83996)"><use fill-rule="evenodd" stroke="none" xlinkHref="#mfid189"/><defs><path id="mfid190" d="M6.272 0c7.567 0 6.44-5 6.44-5l-.71-4.976c-.311-2.836-2.798-2.831-2.798-2.831H4.068C.908-12.325.73-9.532.73-9.532.635-8.728.032-4.593.032-4.593-.27-1.88 1.651-.803 1.651-.803 3.067 0 6.27 0 6.27 0ZM1.746-19.603s2.226-.24 5.005-.24 4.365.24 4.365.24c2.125.261 1.514 2.344 1.514 2.344-.023.224-.354 1.71-.449 1.983-.245.711-.704 1.193-1.333 1.455-.456.191-.93.322-1.418.323H3.432c-.489-.001-.962-.132-1.418-.323-.629-.262-1.087-.744-1.333-1.455-.095-.273-.426-1.759-.45-1.983 0 0-.61-2.083 1.515-2.344Z"/></defs></g><g stroke-linecap="round" stroke-linejoin="round" transform="rotate(.887 -60323.075 67818.05) scale(3.83996)"><use xlinkHref="#mfid190"/><defs><path id="mfid191" d="M5.473-14.961s2.23-.205 5.008-.162c2.778.043 4.361.307 4.361.307.998.139 1.383.671 1.513 1.197.087-.356.398-2.038-1.496-2.301 0 0-1.583-.264-4.361-.307-2.778-.043-5.008.162-5.008.162-1.902.204-1.643 1.895-1.566 2.253.145-.521.547-1.041 1.549-1.149ZM19.837-1.755 18.405-7.21c-.475-1.685-1.245-1.585-1.551-1.53-.797.143-.682.892-.619 1.889l.67 5.324c.153.887.753 1.587 1.562 1.524.81-.063 1.424-.846 1.37-1.75ZM.007-2.062l1.601-5.41c.527-1.67 1.294-1.545 1.598-1.481.792.167.654.913.56 1.908l-.835 5.3C2.751-.862 2.13-.182 1.322-.27.515-.357-.074-1.16.008-2.062Zm3.937-1.496-.725-.011.262-1.67.718.033-.255 1.648ZM9.247-9.21l1.643.026.011-.691-1.643-.026-.01.691Zm6.702 5.838.725.011-.211-1.677-.717.011.203 1.655Z"/></defs></g></g><g stroke-width=".26" stroke="#000" stroke-linecap="round" stroke-linejoin="round" transform="matrix(3.84 0 0 3.84 1031.1 929.96)"><use fill-rule="evenodd" stroke="none" xlinkHref="#mfid191"/><defs><path id="mfid192" d="M5.473-14.961s2.23-.205 5.008-.162c2.778.043 4.361.307 4.361.307.998.139 1.383.671 1.513 1.197.087-.356.398-2.038-1.496-2.301 0 0-1.583-.264-4.361-.307-2.778-.043-5.008.162-5.008.162-1.902.204-1.643 1.895-1.566 2.253.145-.521.547-1.041 1.549-1.149ZM19.837-1.755 18.405-7.21c-.475-1.685-1.245-1.585-1.551-1.53-.797.143-.682.892-.619 1.889l.67 5.324c.153.887.753 1.587 1.562 1.524.81-.063 1.424-.846 1.37-1.75ZM.007-2.062l1.601-5.41c.527-1.67 1.294-1.545 1.598-1.481.792.167.654.913.56 1.908l-.835 5.3C2.751-.862 2.13-.182 1.322-.27.515-.357-.074-1.16.008-2.062Zm3.937-1.496-.725-.011.262-1.67.718.033-.255 1.648ZM9.247-9.21l1.643.026.011-.691-1.643-.026-.01.691Zm6.702 5.838.725.011-.211-1.677-.717.011.203 1.655Z"/></defs><use xlinkHref="#mfid192"/><defs><path id="mfid193" d="M10.247-17.081H5.894a.22.22 0 0 0-.224.218v13.994c0 .12.101.218.224.218h4.352a.22.22 0 0 0 .224-.218v-13.994a.22.22 0 0 0-.223-.218Zm-6.734 4.145v-.021h.69c.325 0 .589.311.589.695v4.694c0 .384-.264.696-.59.696h-.689v-6.064Zm0 0v10.098L.577 0 0-.211v-19.421l.577-.211 2.936 2.839v4.068Z"/></defs></g><g stroke-width=".26" stroke="#000"><g stroke-linecap="round" stroke-linejoin="round" transform="rotate(-90 1055.3 -52.4) scale(3.84)"><use fill-rule="evenodd" stroke="none" xlinkHref="#mfid193"/><defs><path id="mfid194" d="M10.247-17.081H5.894a.22.22 0 0 0-.224.218v13.994c0 .12.101.218.224.218h4.352a.22.22 0 0 0 .224-.218v-13.994a.22.22 0 0 0-.223-.218Zm-6.734 4.145v-.021h.69c.325 0 .589.311.589.695v4.694c0 .384-.264.696-.59.696h-.689v-6.064Zm0 0v10.098L.577 0 0-.211v-19.421l.577-.211 2.936 2.839v4.068Z"/></defs></g><g stroke-miterlimit="2" transform="rotate(-90 1055.3 -52.4) scale(3.84)"><use xlinkHref="#mfid194"/><defs><path id="mfid195" d="M2.926-12.826v-.716h.736v.716h-.736v.86-.715h.736v.715h-.736v-.86Zm0 1.721v-.716h.736v.716h-.736v1.232-.716h.736v.716h-.736v-1.232Zm0 2.092v-.716h.736v.716h-.736v.86-.715h.736v.715h-.736v-.86Zm0 2.128V-7.6h.736v.715h-.736v.86-.714h.736v.715h-.736v-.86Zm0 5.164V-5.88h.736v4.158h-.736v.86-.715h.736v.715h-.736v-.86Zm0 1.72v-.715h.736V0h-.736L2.04-9.013v-.716h.736v.716H2.04L2.926 0ZM2.04-6.023V-7.6h.736v1.576H2.04v.86-.715h.736v.715H2.04v-.86Zm0-5.081v-.716h.736v.716H2.04V-13.542h.736v.716H2.04v1.721Zm0-.861v-.715h.736v.715H2.04v7.663-.716h.737v.716H2.04v-7.663Zm0 8.523v-.715h.736v.715H2.04v.861-.716h.737v.716H2.04v-.86Zm0 1.722v-.716h.736v.716H2.04V0v-1.576h.737V0H2.04v-1.721Zm-.886-5.164V-7.6h.736v.715h-.736v.86-.714h.736v.715h-.736v-.86Zm0 1.721v-.715h.736v.715h-.736v.86-.715h.737v.716h-.737v-.86Zm0 1.721v-.715h.737v.715h-.737v.861-.716h.737v.716h-.737v-.86Zm0 1.722v-.716h.737v.716h-.737v.86-.715h.737v.715h-.737v-.86Zm0 1.72v-.715h.737V0h-.737v-13.542h.736v.716h-.736V0Zm0-11.965v-.715h.736v.715h-.736v.861-.716h.736v.716h-.736v-.861ZM0-6.885V-7.6h.737v.715H0v.86-.714h.737v.715H0v-.86Zm0 1.721v-.715h.737v.715H0v.86-.715h.737v.716H0v-.86Zm0 1.721v-.715h.737v.715H0v.861-.716h.737v.716H0v-.86ZM0-1.72v-.716h.737v.716H0v.86-.715h.737v.715H0v-.86Zm0 1.72v-.715h.737V0H0v-8.868h.737v.715H0V0Zm0-12.825v-.716h.737v.716H0v.86-.715h.737v.715H0v-.86Zm0 1.721v-.716h.737v.716H0v1.232-.716h.737v.716H0v-1.232Zm0 2.092v-.716h.737v.716H0Z"/></defs></g></g><g stroke-width=".26" stroke="#000" stroke-miterlimit="2" transform="matrix(0 -3.84 3.84 0 1095.8 978.54)"><use fill-rule="evenodd" stroke="none" xlinkHref="#mfid195"/><defs><path id="mfid196" d="M9.921-2.193h8.78L16.771 0h-13.7l-1.93-2.193h8.78Z"/></defs></g><g stroke="#000" stroke-miterlimit="2"><g stroke-width=".26" transform="rotate(180 553.85 495.3) scale(3.84)"><use fill-rule="evenodd" stroke="none" xlinkHref="#mfid196"/><defs><path id="mfid197" d="M9.921-2.193h8.78L16.771 0h-13.7l-1.93-2.193h8.78Zm9.922-.444H0"/></defs></g><g stroke-width=".13" transform="rotate(180 553.85 495.3) scale(3.84)"><use xlinkHref="#mfid197"/><defs><path id="mfid198" d="M0 0h31.496v-1.968H0V0Z"/></defs></g></g><g stroke="#000"><g stroke-width=".13" stroke-miterlimit="2" transform="rotate(90 17.89 413.63) scale(3.84)"><use fill-rule="evenodd" stroke="none" xlinkHref="#mfid198"/><defs><path id="mfid199" d="M0 0h31.496v-1.968H0V0Z"/></defs></g><g stroke-width=".083" stroke-linecap="round" stroke-linejoin="round" transform="rotate(90 17.89 413.63) scale(3.84)"><use xlinkHref="#mfid199"/><defs><path id="mfid200" d="M0 0h62.756v-1.968H0V0Z"/></defs></g></g><g stroke-width=".083" stroke="#000" stroke-linecap="round" stroke-linejoin="round" transform="translate(439.99 524.59) scale(3.84)"><use fill-rule="evenodd" stroke="none" xlinkHref="#mfid200"/><defs><path id="mfid201" d="M0 0h62.756v-1.968H0V0Z"/></defs><use xlinkHref="#mfid201"/><defs><path id="mfid202" d="M0-62.3c0-.382.278-.692.622-.692h30.252c.344 0 .622.31.622.692V-.692c0 .382-.279.692-.622.692H.622C.278 0 0-.31 0-.692V-62.3Z"/></defs></g><g stroke="#000"><g stroke-width=".083" stroke-linecap="round" stroke-linejoin="round" transform="matrix(0 -3.84 3.84 0 681.85 646.29)"><use fill-rule="evenodd" stroke="none" xlinkHref="#mfid202"/><defs><path id="mfid203" d="M0-62.3c0-.382.278-.692.622-.692h30.252c.344 0 .622.31.622.692V-.692c0 .382-.279.692-.622.692H.622C.278 0 0-.31 0-.692V-62.3Z"/></defs></g><g stroke-width=".26" stroke-miterlimit="2" transform="matrix(0 -3.84 3.84 0 681.85 646.29)"><use xlinkHref="#mfid203"/><defs><path id="mfid204" d="M4.252-2.126a2.126 2.126 0 1 0-4.252 0 2.126 2.126 0 0 0 4.252 0Z"/></defs></g></g><g stroke-width=".26" stroke="#000" stroke-miterlimit="2" transform="matrix(0 -3.84 3.84 0 477.75 624.82)"><use fill-rule="evenodd" stroke="none" xlinkHref="#mfid204"/><defs><path id="mfid205" d="M2.953-1.476a1.476 1.476 0 1 0-2.953 0 1.476 1.476 0 0 0 2.953 0Z"/></defs></g><g stroke-width=".26" stroke="#000" stroke-miterlimit="2" transform="matrix(0 -3.84 3.84 0 475.26 622.33)"><use fill-rule="evenodd" stroke="none" xlinkHref="#mfid205"/><defs><path id="mfid206" d="M6.272 0c7.567 0 6.44-5 6.44-5l-.71-4.976c-.311-2.836-2.798-2.831-2.798-2.831H4.068C.908-12.325.73-9.532.73-9.532.635-8.728.032-4.593.032-4.593-.27-1.88 1.651-.803 1.651-.803 3.067 0 6.27 0 6.27 0ZM1.746-19.603s2.226-.24 5.005-.24 4.365.24 4.365.24c2.125.261 1.514 2.344 1.514 2.344-.023.224-.354 1.71-.449 1.983-.245.711-.704 1.193-1.333 1.455-.456.191-.93.322-1.418.323H3.432c-.489-.001-.962-.132-1.418-.323-.629-.262-1.087-.744-1.333-1.455-.095-.273-.426-1.759-.45-1.983 0 0-.61-2.083 1.515-2.344Z"/></defs></g><g stroke-width=".26" stroke="#000"><g stroke-miterlimit="2" transform="rotate(-179.113 296.314 323.987) scale(3.83996)"><use fill-rule="evenodd" stroke="none" xlinkHref="#mfid206"/><defs><path id="mfid207" d="M6.272 0c7.567 0 6.44-5 6.44-5l-.71-4.976c-.311-2.836-2.798-2.831-2.798-2.831H4.068C.908-12.325.73-9.532.73-9.532.635-8.728.032-4.593.032-4.593-.27-1.88 1.651-.803 1.651-.803 3.067 0 6.27 0 6.27 0ZM1.746-19.603s2.226-.24 5.005-.24 4.365.24 4.365.24c2.125.261 1.514 2.344 1.514 2.344-.023.224-.354 1.71-.449 1.983-.245.711-.704 1.193-1.333 1.455-.456.191-.93.322-1.418.323H3.432c-.489-.001-.962-.132-1.418-.323-.629-.262-1.087-.744-1.333-1.455-.095-.273-.426-1.759-.45-1.983 0 0-.61-2.083 1.515-2.344Z"/></defs></g><g stroke-linecap="round" stroke-linejoin="round" transform="rotate(-179.113 296.314 323.987) scale(3.83996)"><use xlinkHref="#mfid207"/><defs><path id="mfid208" d="M5.473-14.961s2.23-.205 5.008-.162c2.778.043 4.361.307 4.361.307.998.139 1.383.671 1.513 1.197.087-.356.398-2.038-1.496-2.301 0 0-1.583-.264-4.361-.307-2.778-.043-5.008.162-5.008.162-1.902.204-1.643 1.895-1.566 2.253.145-.521.547-1.041 1.549-1.149ZM19.837-1.755 18.405-7.21c-.475-1.685-1.245-1.585-1.551-1.53-.797.143-.682.892-.619 1.889l.67 5.324c.153.887.753 1.587 1.562 1.524.81-.063 1.424-.846 1.37-1.75ZM.007-2.062l1.601-5.41c.527-1.67 1.294-1.545 1.598-1.481.792.167.654.913.56 1.908l-.835 5.3C2.751-.862 2.13-.182 1.322-.27.515-.357-.074-1.16.008-2.062Zm3.937-1.496-.725-.011.262-1.67.718.033-.255 1.648ZM9.247-9.21l1.643.026.011-.691-1.643-.026-.01.691Zm6.702 5.838.725.011-.211-1.677-.717.011.203 1.655Z"/></defs></g></g><g stroke-width=".26" stroke="#000" stroke-linecap="round" stroke-linejoin="round" transform="matrix(-3.84 0 0 -3.84 600.78 666)"><use fill-rule="evenodd" stroke="none" xlinkHref="#mfid208"/><defs><path id="mfid209" d="M5.473-14.961s2.23-.205 5.008-.162c2.778.043 4.361.307 4.361.307.998.139 1.383.671 1.513 1.197.087-.356.398-2.038-1.496-2.301 0 0-1.583-.264-4.361-.307-2.778-.043-5.008.162-5.008.162-1.902.204-1.643 1.895-1.566 2.253.145-.521.547-1.041 1.549-1.149ZM19.837-1.755 18.405-7.21c-.475-1.685-1.245-1.585-1.551-1.53-.797.143-.682.892-.619 1.889l.67 5.324c.153.887.753 1.587 1.562 1.524.81-.063 1.424-.846 1.37-1.75ZM.007-2.062l1.601-5.41c.527-1.67 1.294-1.545 1.598-1.481.792.167.654.913.56 1.908l-.835 5.3C2.751-.862 2.13-.182 1.322-.27.515-.357-.074-1.16.008-2.062Zm3.937-1.496-.725-.011.262-1.67.718.033-.255 1.648ZM9.247-9.21l1.643.026.011-.691-1.643-.026-.01.691Zm6.702 5.838.725.011-.211-1.677-.717.011.203 1.655Z"/></defs><use xlinkHref="#mfid209"/><defs><path id="mfid210" d="M10.247-17.081H5.894a.22.22 0 0 0-.224.218v13.994c0 .12.101.218.224.218h4.352a.22.22 0 0 0 .224-.218v-13.994a.22.22 0 0 0-.223-.218Zm-6.734 4.145v-.021h.69c.325 0 .589.311.589.695v4.694c0 .384-.264.696-.59.696h-.689v-6.064Zm0 0v10.098L.577 0 0-.211v-19.421l.577-.211 2.936 2.839v4.068Z"/></defs></g><g stroke-width=".26" stroke="#000"><g stroke-linecap="round" stroke-linejoin="round" transform="rotate(90 -34.69 560.54) scale(3.84)"><use fill-rule="evenodd" stroke="none" xlinkHref="#mfid210"/><defs><path id="mfid211" d="M10.247-17.081H5.894a.22.22 0 0 0-.224.218v13.994c0 .12.101.218.224.218h4.352a.22.22 0 0 0 .224-.218v-13.994a.22.22 0 0 0-.223-.218Zm-6.734 4.145v-.021h.69c.325 0 .589.311.589.695v4.694c0 .384-.264.696-.59.696h-.689v-6.064Zm0 0v10.098L.577 0 0-.211v-19.421l.577-.211 2.936 2.839v4.068Z"/></defs></g><g stroke-miterlimit="2" transform="rotate(90 -34.69 560.54) scale(3.84)"><use xlinkHref="#mfid211"/><defs><path id="mfid212" d="M2.926-12.826v-.716h.736v.716h-.736v.86-.715h.736v.715h-.736v-.86Zm0 1.721v-.716h.736v.716h-.736v1.232-.716h.736v.716h-.736v-1.232Zm0 2.092v-.716h.736v.716h-.736v.86-.715h.736v.715h-.736v-.86Zm0 2.128V-7.6h.736v.715h-.736v.86-.714h.736v.715h-.736v-.86Zm0 5.164V-5.88h.736v4.158h-.736v.86-.715h.736v.715h-.736v-.86Zm0 1.72v-.715h.736V0h-.736L2.04-9.013v-.716h.736v.716H2.04L2.926 0ZM2.04-6.023V-7.6h.736v1.576H2.04v.86-.715h.736v.715H2.04v-.86Zm0-5.081v-.716h.736v.716H2.04V-13.542h.736v.716H2.04v1.721Zm0-.861v-.715h.736v.715H2.04v7.663-.716h.737v.716H2.04v-7.663Zm0 8.523v-.715h.736v.715H2.04v.861-.716h.737v.716H2.04v-.86Zm0 1.722v-.716h.736v.716H2.04V0v-1.576h.737V0H2.04v-1.721Zm-.886-5.164V-7.6h.736v.715h-.736v.86-.714h.736v.715h-.736v-.86Zm0 1.721v-.715h.736v.715h-.736v.86-.715h.737v.716h-.737v-.86Zm0 1.721v-.715h.737v.715h-.737v.861-.716h.737v.716h-.737v-.86Zm0 1.722v-.716h.737v.716h-.737v.86-.715h.737v.715h-.737v-.86Zm0 1.72v-.715h.737V0h-.737v-13.542h.736v.716h-.736V0Zm0-11.965v-.715h.736v.715h-.736v.861-.716h.736v.716h-.736v-.861ZM0-6.885V-7.6h.737v.715H0v.86-.714h.737v.715H0v-.86Zm0 1.721v-.715h.737v.715H0v.86-.715h.737v.716H0v-.86Zm0 1.721v-.715h.737v.715H0v.861-.716h.737v.716H0v-.86ZM0-1.72v-.716h.737v.716H0v.86-.715h.737v.715H0v-.86Zm0 1.72v-.715h.737V0H0v-8.868h.737v.715H0V0Zm0-12.825v-.716h.737v.716H0v.86-.715h.737v.715H0v-.86Zm0 1.721v-.716h.737v.716H0v1.232-.716h.737v.716H0v-1.232Zm0 2.092v-.716h.737v.716H0Z"/></defs></g></g><g stroke-width=".26" stroke="#000" stroke-miterlimit="2" transform="rotate(90 -40.94 578.67) scale(3.84)"><use fill-rule="evenodd" stroke="none" xlinkHref="#mfid212"/><defs><path id="mfid213" d="M9.921-2.193h8.78L16.771 0h-13.7l-1.93-2.193h8.78Z"/></defs></g><g stroke="#000" stroke-miterlimit="2"><g stroke-width=".26" transform="matrix(3.84 0 0 3.84 525.84 607.56)"><use fill-rule="evenodd" stroke="none" xlinkHref="#mfid213"/><defs><path id="mfid214" d="M9.921-2.193h8.78L16.771 0h-13.7l-1.93-2.193h8.78Zm9.922-.444H0"/></defs></g><g stroke-width=".13" transform="matrix(3.84 0 0 3.84 525.84 607.56)"><use xlinkHref="#mfid214"/><defs><path id="mfid215" d="M0-62.3c0-.382.278-.692.622-.692h30.252c.344 0 .622.31.622.692V-.692c0 .382-.279.692-.622.692H.622C.278 0 0-.31 0-.692V-62.3Z"/></defs></g></g><g stroke="#000" stroke-miterlimit="2"><g stroke-width=".13" transform="rotate(90 22.33 417.51) scale(3.84)"><use fill-rule="evenodd" stroke="none" xlinkHref="#mfid215"/><defs><path id="mfid216" d="M0-62.3c0-.382.278-.692.622-.692h30.252c.344 0 .622.31.622.692V-.692c0 .382-.279.692-.622.692H.622C.278 0 0-.31 0-.692V-62.3Z"/></defs></g><g stroke-width=".26" transform="rotate(90 22.33 417.51) scale(3.84)"><use xlinkHref="#mfid216"/><defs><path id="mfid217" d="M4.252-2.126a2.126 2.126 0 1 0-4.252 0 2.126 2.126 0 0 0 4.252 0Z"/></defs></g></g><g stroke-width=".26" stroke="#000" stroke-miterlimit="2" transform="rotate(90 113.64 530.29) scale(3.84)"><use fill-rule="evenodd" stroke="none" xlinkHref="#mfid217"/><defs><path id="mfid218" d="M2.953-1.476a1.476 1.476 0 1 0-2.953 0 1.476 1.476 0 0 0 2.953 0Z"/></defs></g><g stroke-width=".26" stroke="#000" stroke-miterlimit="2" transform="rotate(90 113.64 532.79) scale(3.84)"><use fill-rule="evenodd" stroke="none" xlinkHref="#mfid218"/><defs><path id="mfid219" d="M6.272 0c7.567 0 6.44-5 6.44-5l-.71-4.976c-.311-2.836-2.798-2.831-2.798-2.831H4.068C.908-12.325.73-9.532.73-9.532.635-8.728.032-4.593.032-4.593-.27-1.88 1.651-.803 1.651-.803 3.067 0 6.27 0 6.27 0ZM1.746-19.603s2.226-.24 5.005-.24 4.365.24 4.365.24c2.125.261 1.514 2.344 1.514 2.344-.023.224-.354 1.71-.449 1.983-.245.711-.704 1.193-1.333 1.455-.456.191-.93.322-1.418.323H3.432c-.489-.001-.962-.132-1.418-.323-.629-.262-1.087-.744-1.333-1.455-.095-.273-.426-1.759-.45-1.983 0 0-.61-2.083 1.515-2.344Z"/></defs></g><g stroke-width=".26" stroke="#000"><g stroke-miterlimit="2" transform="rotate(.887 -24817.652 34639.741) scale(3.83996)"><use fill-rule="evenodd" stroke="none" xlinkHref="#mfid219"/><defs><path id="mfid220" d="M6.272 0c7.567 0 6.44-5 6.44-5l-.71-4.976c-.311-2.836-2.798-2.831-2.798-2.831H4.068C.908-12.325.73-9.532.73-9.532.635-8.728.032-4.593.032-4.593-.27-1.88 1.651-.803 1.651-.803 3.067 0 6.27 0 6.27 0ZM1.746-19.603s2.226-.24 5.005-.24 4.365.24 4.365.24c2.125.261 1.514 2.344 1.514 2.344-.023.224-.354 1.71-.449 1.983-.245.711-.704 1.193-1.333 1.455-.456.191-.93.322-1.418.323H3.432c-.489-.001-.962-.132-1.418-.323-.629-.262-1.087-.744-1.333-1.455-.095-.273-.426-1.759-.45-1.983 0 0-.61-2.083 1.515-2.344Z"/></defs></g><g stroke-linecap="round" stroke-linejoin="round" transform="rotate(.887 -24817.652 34639.741) scale(3.83996)"><use xlinkHref="#mfid220"/><defs><path id="mfid221" d="M5.473-14.961s2.23-.205 5.008-.162c2.778.043 4.361.307 4.361.307.998.139 1.383.671 1.513 1.197.087-.356.398-2.038-1.496-2.301 0 0-1.583-.264-4.361-.307-2.778-.043-5.008.162-5.008.162-1.902.204-1.643 1.895-1.566 2.253.145-.521.547-1.041 1.549-1.149ZM19.837-1.755 18.405-7.21c-.475-1.685-1.245-1.585-1.551-1.53-.797.143-.682.892-.619 1.889l.67 5.324c.153.887.753 1.587 1.562 1.524.81-.063 1.424-.846 1.37-1.75ZM.007-2.062l1.601-5.41c.527-1.67 1.294-1.545 1.598-1.481.792.167.654.913.56 1.908l-.835 5.3C2.751-.862 2.13-.182 1.322-.27.515-.357-.074-1.16.008-2.062Zm3.937-1.496-.725-.011.262-1.67.718.033-.255 1.648ZM9.247-9.21l1.643.026.011-.691-1.643-.026-.01.691Zm6.702 5.838.725.011-.211-1.677-.717.011.203 1.655Z"/></defs></g></g><g stroke-width=".26" stroke="#000" stroke-linecap="round" stroke-linejoin="round" transform="matrix(3.84 0 0 3.84 520.91 375.48)"><use fill-rule="evenodd" stroke="none" xlinkHref="#mfid221"/><defs><path id="mfid222" d="M5.473-14.961s2.23-.205 5.008-.162c2.778.043 4.361.307 4.361.307.998.139 1.383.671 1.513 1.197.087-.356.398-2.038-1.496-2.301 0 0-1.583-.264-4.361-.307-2.778-.043-5.008.162-5.008.162-1.902.204-1.643 1.895-1.566 2.253.145-.521.547-1.041 1.549-1.149ZM19.837-1.755 18.405-7.21c-.475-1.685-1.245-1.585-1.551-1.53-.797.143-.682.892-.619 1.889l.67 5.324c.153.887.753 1.587 1.562 1.524.81-.063 1.424-.846 1.37-1.75ZM.007-2.062l1.601-5.41c.527-1.67 1.294-1.545 1.598-1.481.792.167.654.913.56 1.908l-.835 5.3C2.751-.862 2.13-.182 1.322-.27.515-.357-.074-1.16.008-2.062Zm3.937-1.496-.725-.011.262-1.67.718.033-.255 1.648ZM9.247-9.21l1.643.026.011-.691-1.643-.026-.01.691Zm6.702 5.838.725.011-.211-1.677-.717.011.203 1.655Z"/></defs><use xlinkHref="#mfid222"/><defs><path id="mfid223" d="M10.247-17.081H5.894a.22.22 0 0 0-.224.218v13.994c0 .12.101.218.224.218h4.352a.22.22 0 0 0 .224-.218v-13.994a.22.22 0 0 0-.223-.218Zm-6.734 4.145v-.021h.69c.325 0 .589.311.589.695v4.694c0 .384-.264.696-.59.696h-.689v-6.064Zm0 0v10.098L.577 0 0-.211v-19.421l.577-.211 2.936 2.839v4.068Z"/></defs></g><g stroke-width=".26" stroke="#000"><g stroke-linecap="round" stroke-linejoin="round" transform="matrix(0 -3.84 3.84 0 597.55 448.44)"><use fill-rule="evenodd" stroke="none" xlinkHref="#mfid223"/><defs><path id="mfid224" d="M10.247-17.081H5.894a.22.22 0 0 0-.224.218v13.994c0 .12.101.218.224.218h4.352a.22.22 0 0 0 .224-.218v-13.994a.22.22 0 0 0-.223-.218Zm-6.734 4.145v-.021h.69c.325 0 .589.311.589.695v4.694c0 .384-.264.696-.59.696h-.689v-6.064Zm0 0v10.098L.577 0 0-.211v-19.421l.577-.211 2.936 2.839v4.068Z"/></defs></g><g stroke-miterlimit="2" transform="matrix(0 -3.84 3.84 0 597.55 448.44)"><use xlinkHref="#mfid224"/><defs><path id="mfid225" d="M2.926-12.826v-.716h.736v.716h-.736v.86-.715h.736v.715h-.736v-.86Zm0 1.721v-.716h.736v.716h-.736v1.232-.716h.736v.716h-.736v-1.232Zm0 2.092v-.716h.736v.716h-.736v.86-.715h.736v.715h-.736v-.86Zm0 2.128V-7.6h.736v.715h-.736v.86-.714h.736v.715h-.736v-.86Zm0 5.164V-5.88h.736v4.158h-.736v.86-.715h.736v.715h-.736v-.86Zm0 1.72v-.715h.736V0h-.736L2.04-9.013v-.716h.736v.716H2.04L2.926 0ZM2.04-6.023V-7.6h.736v1.576H2.04v.86-.715h.736v.715H2.04v-.86Zm0-5.081v-.716h.736v.716H2.04V-13.542h.736v.716H2.04v1.721Zm0-.861v-.715h.736v.715H2.04v7.663-.716h.737v.716H2.04v-7.663Zm0 8.523v-.715h.736v.715H2.04v.861-.716h.737v.716H2.04v-.86Zm0 1.722v-.716h.736v.716H2.04V0v-1.576h.737V0H2.04v-1.721Zm-.886-5.164V-7.6h.736v.715h-.736v.86-.714h.736v.715h-.736v-.86Zm0 1.721v-.715h.736v.715h-.736v.86-.715h.737v.716h-.737v-.86Zm0 1.721v-.715h.737v.715h-.737v.861-.716h.737v.716h-.737v-.86Zm0 1.722v-.716h.737v.716h-.737v.86-.715h.737v.715h-.737v-.86Zm0 1.72v-.715h.737V0h-.737v-13.542h.736v.716h-.736V0Zm0-11.965v-.715h.736v.715h-.736v.861-.716h.736v.716h-.736v-.861ZM0-6.885V-7.6h.737v.715H0v.86-.714h.737v.715H0v-.86Zm0 1.721v-.715h.737v.715H0v.86-.715h.737v.716H0v-.86Zm0 1.721v-.715h.737v.715H0v.861-.716h.737v.716H0v-.86ZM0-1.72v-.716h.737v.716H0v.86-.715h.737v.715H0v-.86Zm0 1.72v-.715h.737V0H0v-8.868h.737v.715H0V0Zm0-12.825v-.716h.737v.716H0v.86-.715h.737v.715H0v-.86Zm0 1.721v-.716h.737v.716H0v1.232-.716h.737v.716H0v-1.232Zm0 2.092v-.716h.737v.716H0Z"/></defs></g></g><g stroke-width=".26" stroke="#000" stroke-miterlimit="2" transform="rotate(-90 504.86 -80.8) scale(3.84)"><use fill-rule="evenodd" stroke="none" xlinkHref="#mfid225"/><defs><path id="mfid226" d="M9.921-2.193h8.78L16.771 0h-13.7l-1.93-2.193h8.78Z"/></defs></g><g stroke="#000" stroke-miterlimit="2"><g stroke-width=".26" transform="matrix(-3.84 0 0 -3.84 597.56 436.11)"><use fill-rule="evenodd" stroke="none" xlinkHref="#mfid226"/><defs><path id="mfid227" d="M9.921-2.193h8.78L16.771 0h-13.7l-1.93-2.193h8.78Zm9.922-.444H0"/></defs></g><g stroke-width=".13" transform="matrix(-3.84 0 0 -3.84 597.56 436.11)"><use xlinkHref="#mfid227"/><defs><path id="mfid228" d="M0 0h31.496v-1.968H0V0Z"/></defs></g></g><g stroke="#000"><g stroke-width=".13" stroke-miterlimit="2" transform="matrix(0 3.84 -3.84 0 682.6 525.35)"><use fill-rule="evenodd" stroke="none" xlinkHref="#mfid228"/><defs><path id="mfid229" d="M0 0h31.496v-1.968H0V0Z"/></defs></g><g stroke-width=".083" stroke-linecap="round" stroke-linejoin="round" transform="matrix(0 3.84 -3.84 0 682.6 525.35)"><use xlinkHref="#mfid229"/><defs><path id="mfid230" d="M0-62.3c0-.382.278-.692.622-.692h30.252c.344 0 .622.31.622.692V-.692c0 .382-.279.692-.622.692H.622C.278 0 0-.31 0-.692V-62.3Z"/></defs></g></g><g stroke="#000"><g stroke-width=".083" stroke-linecap="round" stroke-linejoin="round" transform="matrix(0 3.84 -3.84 0 690.8 394.98)"><use fill-rule="evenodd" stroke="none" xlinkHref="#mfid230"/><defs><path id="mfid231" d="M0-62.3c0-.382.278-.692.622-.692h30.252c.344 0 .622.31.622.692V-.692c0 .382-.279.692-.622.692H.622C.278 0 0-.31 0-.692V-62.3Z"/></defs></g><g stroke-width=".26" stroke-miterlimit="2" transform="matrix(0 3.84 -3.84 0 690.8 394.98)"><use xlinkHref="#mfid231"/><defs><path id="mfid232" d="M4.252-2.126a2.126 2.126 0 1 0-4.252 0 2.126 2.126 0 0 0 4.252 0Z"/></defs></g></g><g stroke-width=".26" stroke="#000" stroke-miterlimit="2" transform="rotate(90 239.22 655.67) scale(3.84)"><use fill-rule="evenodd" stroke="none" xlinkHref="#mfid232"/><defs><path id="mfid233" d="M2.953-1.476a1.476 1.476 0 1 0-2.953 0 1.476 1.476 0 0 0 2.953 0Z"/></defs></g><g stroke-width=".26" stroke="#000" stroke-miterlimit="2" transform="matrix(0 3.84 -3.84 0 897.39 418.94)"><use fill-rule="evenodd" stroke="none" xlinkHref="#mfid233"/><defs><path id="mfid234" d="M6.272 0c7.567 0 6.44-5 6.44-5l-.71-4.976c-.311-2.836-2.798-2.831-2.798-2.831H4.068C.908-12.325.73-9.532.73-9.532.635-8.728.032-4.593.032-4.593-.27-1.88 1.651-.803 1.651-.803 3.067 0 6.27 0 6.27 0ZM1.746-19.603s2.226-.24 5.005-.24 4.365.24 4.365.24c2.125.261 1.514 2.344 1.514 2.344-.023.224-.354 1.71-.449 1.983-.245.711-.704 1.193-1.333 1.455-.456.191-.93.322-1.418.323H3.432c-.489-.001-.962-.132-1.418-.323-.629-.262-1.087-.744-1.333-1.455-.095-.273-.426-1.759-.45-1.983 0 0-.61-2.083 1.515-2.344Z"/></defs></g><g stroke-width=".26" stroke="#000"><g stroke-miterlimit="2" transform="rotate(.887 -24679.71 50824.308) scale(3.83996)"><use fill-rule="evenodd" stroke="none" xlinkHref="#mfid234"/><defs><path id="mfid235" d="M6.272 0c7.567 0 6.44-5 6.44-5l-.71-4.976c-.311-2.836-2.798-2.831-2.798-2.831H4.068C.908-12.325.73-9.532.73-9.532.635-8.728.032-4.593.032-4.593-.27-1.88 1.651-.803 1.651-.803 3.067 0 6.27 0 6.27 0ZM1.746-19.603s2.226-.24 5.005-.24 4.365.24 4.365.24c2.125.261 1.514 2.344 1.514 2.344-.023.224-.354 1.71-.449 1.983-.245.711-.704 1.193-1.333 1.455-.456.191-.93.322-1.418.323H3.432c-.489-.001-.962-.132-1.418-.323-.629-.262-1.087-.744-1.333-1.455-.095-.273-.426-1.759-.45-1.983 0 0-.61-2.083 1.515-2.344Z"/></defs></g><g stroke-linecap="round" stroke-linejoin="round" transform="rotate(.887 -24679.71 50824.308) scale(3.83996)"><use xlinkHref="#mfid235"/><defs><path id="mfid236" d="M5.473-14.961s2.23-.205 5.008-.162c2.778.043 4.361.307 4.361.307.998.139 1.383.671 1.513 1.197.087-.356.398-2.038-1.496-2.301 0 0-1.583-.264-4.361-.307-2.778-.043-5.008.162-5.008.162-1.902.204-1.643 1.895-1.566 2.253.145-.521.547-1.041 1.549-1.149ZM19.837-1.755 18.405-7.21c-.475-1.685-1.245-1.585-1.551-1.53-.797.143-.682.892-.619 1.889l.67 5.324c.153.887.753 1.587 1.562 1.524.81-.063 1.424-.846 1.37-1.75ZM.007-2.062l1.601-5.41c.527-1.67 1.294-1.545 1.598-1.481.792.167.654.913.56 1.908l-.835 5.3C2.751-.862 2.13-.182 1.322-.27.515-.357-.074-1.16.008-2.062Zm3.937-1.496-.725-.011.262-1.67.718.033-.255 1.648ZM9.247-9.21l1.643.026.011-.691-1.643-.026-.01.691Zm6.702 5.838.725.011-.211-1.677-.717.011.203 1.655Z"/></defs></g></g><g stroke-width=".26" stroke="#000" stroke-linecap="round" stroke-linejoin="round" transform="matrix(3.84 0 0 3.84 771.87 375.27)"><use fill-rule="evenodd" stroke="none" xlinkHref="#mfid236"/><defs><path id="mfid237" d="M5.473-14.961s2.23-.205 5.008-.162c2.778.043 4.361.307 4.361.307.998.139 1.383.671 1.513 1.197.087-.356.398-2.038-1.496-2.301 0 0-1.583-.264-4.361-.307-2.778-.043-5.008.162-5.008.162-1.902.204-1.643 1.895-1.566 2.253.145-.521.547-1.041 1.549-1.149ZM19.837-1.755 18.405-7.21c-.475-1.685-1.245-1.585-1.551-1.53-.797.143-.682.892-.619 1.889l.67 5.324c.153.887.753 1.587 1.562 1.524.81-.063 1.424-.846 1.37-1.75ZM.007-2.062l1.601-5.41c.527-1.67 1.294-1.545 1.598-1.481.792.167.654.913.56 1.908l-.835 5.3C2.751-.862 2.13-.182 1.322-.27.515-.357-.074-1.16.008-2.062Zm3.937-1.496-.725-.011.262-1.67.718.033-.255 1.648ZM9.247-9.21l1.643.026.011-.691-1.643-.026-.01.691Zm6.702 5.838.725.011-.211-1.677-.717.011.203 1.655Z"/></defs><use xlinkHref="#mfid237"/><defs><path id="mfid238" d="M10.247-17.081H5.894a.22.22 0 0 0-.224.218v13.994c0 .12.101.218.224.218h4.352a.22.22 0 0 0 .224-.218v-13.994a.22.22 0 0 0-.223-.218Zm-6.734 4.145v-.021h.69c.325 0 .589.311.589.695v4.694c0 .384-.264.696-.59.696h-.689v-6.064Zm0 0v10.098L.577 0 0-.211v-19.421l.577-.211 2.936 2.839v4.068Z"/></defs></g><g stroke-width=".26" stroke="#000"><g stroke-linecap="round" stroke-linejoin="round" transform="matrix(0 -3.84 3.84 0 848.51 448.23)"><use fill-rule="evenodd" stroke="none" xlinkHref="#mfid238"/><defs><path id="mfid239" d="M10.247-17.081H5.894a.22.22 0 0 0-.224.218v13.994c0 .12.101.218.224.218h4.352a.22.22 0 0 0 .224-.218v-13.994a.22.22 0 0 0-.223-.218Zm-6.734 4.145v-.021h.69c.325 0 .589.311.589.695v4.694c0 .384-.264.696-.59.696h-.689v-6.064Zm0 0v10.098L.577 0 0-.211v-19.421l.577-.211 2.936 2.839v4.068Z"/></defs></g><g stroke-miterlimit="2" transform="matrix(0 -3.84 3.84 0 848.51 448.23)"><use xlinkHref="#mfid239"/><defs><path id="mfid240" d="M2.926-12.826v-.716h.736v.716h-.736v.86-.715h.736v.715h-.736v-.86Zm0 1.721v-.716h.736v.716h-.736v1.232-.716h.736v.716h-.736v-1.232Zm0 2.092v-.716h.736v.716h-.736v.86-.715h.736v.715h-.736v-.86Zm0 2.128V-7.6h.736v.715h-.736v.86-.714h.736v.715h-.736v-.86Zm0 5.164V-5.88h.736v4.158h-.736v.86-.715h.736v.715h-.736v-.86Zm0 1.72v-.715h.736V0h-.736L2.04-9.013v-.716h.736v.716H2.04L2.926 0ZM2.04-6.023V-7.6h.736v1.576H2.04v.86-.715h.736v.715H2.04v-.86Zm0-5.081v-.716h.736v.716H2.04V-13.542h.736v.716H2.04v1.721Zm0-.861v-.715h.736v.715H2.04v7.663-.716h.737v.716H2.04v-7.663Zm0 8.523v-.715h.736v.715H2.04v.861-.716h.737v.716H2.04v-.86Zm0 1.722v-.716h.736v.716H2.04V0v-1.576h.737V0H2.04v-1.721Zm-.886-5.164V-7.6h.736v.715h-.736v.86-.714h.736v.715h-.736v-.86Zm0 1.721v-.715h.736v.715h-.736v.86-.715h.737v.716h-.737v-.86Zm0 1.721v-.715h.737v.715h-.737v.861-.716h.737v.716h-.737v-.86Zm0 1.722v-.716h.737v.716h-.737v.86-.715h.737v.715h-.737v-.86Zm0 1.72v-.715h.737V0h-.737v-13.542h.736v.716h-.736V0Zm0-11.965v-.715h.736v.715h-.736v.861-.716h.736v.716h-.736v-.861ZM0-6.885V-7.6h.737v.715H0v.86-.714h.737v.715H0v-.86Zm0 1.721v-.715h.737v.715H0v.86-.715h.737v.716H0v-.86Zm0 1.721v-.715h.737v.715H0v.861-.716h.737v.716H0v-.86ZM0-1.72v-.716h.737v.716H0v.86-.715h.737v.715H0v-.86Zm0 1.72v-.715h.737V0H0v-8.868h.737v.715H0V0Zm0-12.825v-.716h.737v.716H0v.86-.715h.737v.715H0v-.86Zm0 1.721v-.716h.737v.716H0v1.232-.716h.737v.716H0v-1.232Zm0 2.092v-.716h.737v.716H0Z"/></defs></g></g><g stroke-width=".26" stroke="#000" stroke-miterlimit="2" transform="matrix(0 -3.84 3.84 0 836.62 423.85)"><use fill-rule="evenodd" stroke="none" xlinkHref="#mfid240"/><defs><path id="mfid241" d="M9.921-2.193h8.78L16.771 0h-13.7l-1.93-2.193h8.78Z"/></defs></g><g stroke="#000" stroke-miterlimit="2"><g stroke-width=".26" transform="matrix(-3.84 0 0 -3.84 848.52 435.91)"><use fill-rule="evenodd" stroke="none" xlinkHref="#mfid241"/><defs><path id="mfid242" d="M9.921-2.193h8.78L16.771 0h-13.7l-1.93-2.193h8.78Zm9.922-.444H0"/></defs></g><g stroke-width=".13" transform="matrix(-3.84 0 0 -3.84 848.52 435.91)"><use xlinkHref="#mfid242"/><defs><path id="mfid243" d="M0 0h31.496v-1.968H0V0Z"/></defs></g></g><g stroke="#000"><g stroke-width=".13" stroke-miterlimit="2" transform="matrix(0 3.84 -3.84 0 682.48 395.53)"><use fill-rule="evenodd" stroke="none" xlinkHref="#mfid243"/><defs><path id="mfid244" d="M0 0h31.496v-1.968H0V0Z"/></defs></g><use stroke-width=".083" stroke-linecap="round" stroke-linejoin="round" transform="matrix(0 3.84 -3.84 0 682.48 395.53)" xlinkHref="#mfid244"/></g><g stroke-width=".083" stroke="#000" stroke-linecap="round" stroke-linejoin="round" transform="matrix(3.84 0 0 3.84 690.8 524.79)"><path stroke="none" d="M0-1.968h62.756V0H0z"/><defs><path id="mfid245" d="M0 0h62.756v-1.968H0V0Z"/></defs><use xlinkHref="#mfid245"/><defs><path id="mfid246" d="M0-62.3c0-.382.278-.692.622-.692h30.252c.344 0 .622.31.622.692V-.692c0 .382-.279.692-.622.692H.622C.278 0 0-.31 0-.692V-62.3Z"/></defs></g><g stroke="#000"><g stroke-width=".083" stroke-linecap="round" stroke-linejoin="round" transform="matrix(0 -3.84 3.84 0 932.89 646.49)"><use fill-rule="evenodd" stroke="none" xlinkHref="#mfid246"/><defs><path id="mfid247" d="M0-62.3c0-.382.278-.692.622-.692h30.252c.344 0 .622.31.622.692V-.692c0 .382-.279.692-.622.692H.622C.278 0 0-.31 0-.692V-62.3Z"/></defs></g><g stroke-width=".26" stroke-miterlimit="2" transform="matrix(0 -3.84 3.84 0 932.89 646.49)"><use xlinkHref="#mfid247"/><defs><path id="mfid248" d="M4.252-2.126a2.126 2.126 0 1 0-4.252 0 2.126 2.126 0 0 0 4.252 0Z"/></defs></g></g><g stroke-width=".26" stroke="#000" stroke-miterlimit="2" transform="matrix(0 -3.84 3.84 0 728.79 625.03)"><use fill-rule="evenodd" stroke="none" xlinkHref="#mfid248"/><defs><path id="mfid249" d="M2.953-1.476a1.476 1.476 0 1 0-2.953 0 1.476 1.476 0 0 0 2.953 0Z"/></defs></g><g stroke-width=".26" stroke="#000" stroke-miterlimit="2" transform="matrix(0 -3.84 3.84 0 726.3 622.53)"><use fill-rule="evenodd" stroke="none" xlinkHref="#mfid249"/><defs><path id="mfid250" d="M6.272 0c7.567 0 6.44-5 6.44-5l-.71-4.976c-.311-2.836-2.798-2.831-2.798-2.831H4.068C.908-12.325.73-9.532.73-9.532.635-8.728.032-4.593.032-4.593-.27-1.88 1.651-.803 1.651-.803 3.067 0 6.27 0 6.27 0ZM1.746-19.603s2.226-.24 5.005-.24 4.365.24 4.365.24c2.125.261 1.514 2.344 1.514 2.344-.023.224-.354 1.71-.449 1.983-.245.711-.704 1.193-1.333 1.455-.456.191-.93.322-1.418.323H3.432c-.489-.001-.962-.132-1.418-.323-.629-.262-1.087-.744-1.333-1.455-.095-.273-.426-1.759-.45-1.983 0 0-.61-2.083 1.515-2.344Z"/></defs></g><g stroke-width=".26" stroke="#000"><g stroke-miterlimit="2" transform="rotate(-179.113 421.835 323.114) scale(3.83996)"><use fill-rule="evenodd" stroke="none" xlinkHref="#mfid250"/><defs><path id="mfid251" d="M6.272 0c7.567 0 6.44-5 6.44-5l-.71-4.976c-.311-2.836-2.798-2.831-2.798-2.831H4.068C.908-12.325.73-9.532.73-9.532.635-8.728.032-4.593.032-4.593-.27-1.88 1.651-.803 1.651-.803 3.067 0 6.27 0 6.27 0ZM1.746-19.603s2.226-.24 5.005-.24 4.365.24 4.365.24c2.125.261 1.514 2.344 1.514 2.344-.023.224-.354 1.71-.449 1.983-.245.711-.704 1.193-1.333 1.455-.456.191-.93.322-1.418.323H3.432c-.489-.001-.962-.132-1.418-.323-.629-.262-1.087-.744-1.333-1.455-.095-.273-.426-1.759-.45-1.983 0 0-.61-2.083 1.515-2.344Z"/></defs></g><g stroke-linecap="round" stroke-linejoin="round" transform="rotate(-179.113 421.835 323.114) scale(3.83996)"><use xlinkHref="#mfid251"/><defs><path id="mfid252" d="M5.473-14.961s2.23-.205 5.008-.162c2.778.043 4.361.307 4.361.307.998.139 1.383.671 1.513 1.197.087-.356.398-2.038-1.496-2.301 0 0-1.583-.264-4.361-.307-2.778-.043-5.008.162-5.008.162-1.902.204-1.643 1.895-1.566 2.253.145-.521.547-1.041 1.549-1.149ZM19.837-1.755 18.405-7.21c-.475-1.685-1.245-1.585-1.551-1.53-.797.143-.682.892-.619 1.889l.67 5.324c.153.887.753 1.587 1.562 1.524.81-.063 1.424-.846 1.37-1.75ZM.007-2.062l1.601-5.41c.527-1.67 1.294-1.545 1.598-1.481.792.167.654.913.56 1.908l-.835 5.3C2.751-.862 2.13-.182 1.322-.27.515-.357-.074-1.16.008-2.062Zm3.937-1.496-.725-.011.262-1.67.718.033-.255 1.648ZM9.247-9.21l1.643.026.011-.691-1.643-.026-.01.691Zm6.702 5.838.725.011-.211-1.677-.717.011.203 1.655Z"/></defs></g></g><g stroke-width=".26" stroke="#000" stroke-linecap="round" stroke-linejoin="round" transform="matrix(-3.84 0 0 -3.84 851.82 666.2)"><use fill-rule="evenodd" stroke="none" xlinkHref="#mfid252"/><defs><path id="mfid253" d="M5.473-14.961s2.23-.205 5.008-.162c2.778.043 4.361.307 4.361.307.998.139 1.383.671 1.513 1.197.087-.356.398-2.038-1.496-2.301 0 0-1.583-.264-4.361-.307-2.778-.043-5.008.162-5.008.162-1.902.204-1.643 1.895-1.566 2.253.145-.521.547-1.041 1.549-1.149ZM19.837-1.755 18.405-7.21c-.475-1.685-1.245-1.585-1.551-1.53-.797.143-.682.892-.619 1.889l.67 5.324c.153.887.753 1.587 1.562 1.524.81-.063 1.424-.846 1.37-1.75ZM.007-2.062l1.601-5.41c.527-1.67 1.294-1.545 1.598-1.481.792.167.654.913.56 1.908l-.835 5.3C2.751-.862 2.13-.182 1.322-.27.515-.357-.074-1.16.008-2.062Zm3.937-1.496-.725-.011.262-1.67.718.033-.255 1.648ZM9.247-9.21l1.643.026.011-.691-1.643-.026-.01.691Zm6.702 5.838.725.011-.211-1.677-.717.011.203 1.655Z"/></defs><use xlinkHref="#mfid253"/><defs><path id="mfid254" d="M10.247-17.081H5.894a.22.22 0 0 0-.224.218v13.994c0 .12.101.218.224.218h4.352a.22.22 0 0 0 .224-.218v-13.994a.22.22 0 0 0-.223-.218Zm-6.734 4.145v-.021h.69c.325 0 .589.311.589.695v4.694c0 .384-.264.696-.59.696h-.689v-6.064Zm0 0v10.098L.577 0 0-.211v-19.421l.577-.211 2.936 2.839v4.068Z"/></defs></g><g stroke-width=".26" stroke="#000"><g stroke-linecap="round" stroke-linejoin="round" transform="rotate(90 90.97 684.21) scale(3.84)"><use fill-rule="evenodd" stroke="none" xlinkHref="#mfid254"/><defs><path id="mfid255" d="M10.247-17.081H5.894a.22.22 0 0 0-.224.218v13.994c0 .12.101.218.224.218h4.352a.22.22 0 0 0 .224-.218v-13.994a.22.22 0 0 0-.223-.218Zm-6.734 4.145v-.021h.69c.325 0 .589.311.589.695v4.694c0 .384-.264.696-.59.696h-.689v-6.064Zm0 0v10.098L.577 0 0-.211v-19.421l.577-.211 2.936 2.839v4.068Z"/></defs></g><g stroke-miterlimit="2" transform="rotate(90 90.97 684.21) scale(3.84)"><use xlinkHref="#mfid255"/><defs><path id="mfid256" d="M2.926-12.826v-.716h.736v.716h-.736v.86-.715h.736v.715h-.736v-.86Zm0 1.721v-.716h.736v.716h-.736v1.232-.716h.736v.716h-.736v-1.232Zm0 2.092v-.716h.736v.716h-.736v.86-.715h.736v.715h-.736v-.86Zm0 2.128V-7.6h.736v.715h-.736v.86-.714h.736v.715h-.736v-.86Zm0 5.164V-5.88h.736v4.158h-.736v.86-.715h.736v.715h-.736v-.86Zm0 1.72v-.715h.736V0h-.736L2.04-9.013v-.716h.736v.716H2.04L2.926 0ZM2.04-6.023V-7.6h.736v1.576H2.04v.86-.715h.736v.715H2.04v-.86Zm0-5.081v-.716h.736v.716H2.04V-13.542h.736v.716H2.04v1.721Zm0-.861v-.715h.736v.715H2.04v7.663-.716h.737v.716H2.04v-7.663Zm0 8.523v-.715h.736v.715H2.04v.861-.716h.737v.716H2.04v-.86Zm0 1.722v-.716h.736v.716H2.04V0v-1.576h.737V0H2.04v-1.721Zm-.886-5.164V-7.6h.736v.715h-.736v.86-.714h.736v.715h-.736v-.86Zm0 1.721v-.715h.736v.715h-.736v.86-.715h.737v.716h-.737v-.86Zm0 1.721v-.715h.737v.715h-.737v.861-.716h.737v.716h-.737v-.86Zm0 1.722v-.716h.737v.716h-.737v.86-.715h.737v.715h-.737v-.86Zm0 1.72v-.715h.737V0h-.737v-13.542h.736v.716h-.736V0Zm0-11.965v-.715h.736v.715h-.736v.861-.716h.736v.716h-.736v-.861ZM0-6.885V-7.6h.737v.715H0v.86-.714h.737v.715H0v-.86Zm0 1.721v-.715h.737v.715H0v.86-.715h.737v.716H0v-.86Zm0 1.721v-.715h.737v.715H0v.861-.716h.737v.716H0v-.86ZM0-1.72v-.716h.737v.716H0v.86-.715h.737v.715H0v-.86Zm0 1.72v-.715h.737V0H0v-8.868h.737v.715H0V0Zm0-12.825v-.716h.737v.716H0v.86-.715h.737v.715H0v-.86Zm0 1.721v-.716h.737v.716H0v1.232-.716h.737v.716H0v-1.232Zm0 2.092v-.716h.737v.716H0Z"/></defs></g></g><g stroke-width=".26" stroke="#000" stroke-miterlimit="2" transform="rotate(90 84.72 702.34) scale(3.84)"><use fill-rule="evenodd" stroke="none" xlinkHref="#mfid256"/><defs><path id="mfid257" d="M9.921-2.193h8.78L16.771 0h-13.7l-1.93-2.193h8.78Z"/></defs></g><g stroke="#000" stroke-miterlimit="2"><g stroke-width=".26" transform="matrix(3.84 0 0 3.84 775.17 605.56)"><use fill-rule="evenodd" stroke="none" xlinkHref="#mfid257"/><defs><path id="mfid258" d="M9.921-2.193h8.78L16.771 0h-13.7l-1.93-2.193h8.78Zm9.922-.444H0"/></defs></g><g stroke-width=".13" transform="matrix(3.84 0 0 3.84 775.17 605.56)"><use xlinkHref="#mfid258"/><defs><path id="mfid259" d="M0 0h.984v-.984H0V0Zm0-2.953h.984v-.984H0v.984Z"/></defs></g></g><g stroke-miterlimit="2"><g stroke-width=".13" stroke="#000" transform="matrix(0 3.84 -3.84 0 781.71 149.52)"><use fill-rule="evenodd" stroke="none" xlinkHref="#mfid259"/><defs><path id="mfid260" d="M0 0h.984v-.984H0V0Zm0-2.953h.984v-.984H0v.984Z"/></defs></g><g stroke-width=".434" stroke="#658a82" transform="matrix(0 3.84 -3.84 0 781.71 149.52)"><use xlinkHref="#mfid260"/><defs><path id="mfid261" d="M0 0v-31.496h22.638V0H0Zm22.638 0h.984v-31.496h-.984V0Z"/></defs></g></g><g stroke-width=".434" stroke="#658a82" stroke-miterlimit="2" transform="matrix(0 3.84 -3.84 0 728.79 58.807)"><use fill-rule="evenodd" stroke="none" xlinkHref="#mfid261"/><defs><path id="mfid262" d="M0 0v-31.496h22.638V0H0Zm22.638-15.748h.984M22.638 0h.984v-31.496h-.984V0Z"/></defs><use xlinkHref="#mfid262"/><defs><path id="mfid263" d="M0 0h.984v-.984H0V0Zm0-2.953h.984v-.984H0v.984Z"/></defs></g><g stroke-width=".434" stroke="#658a82" stroke-miterlimit="2" transform="rotate(90 266.96 393.8) scale(3.84)"><use fill-rule="evenodd" stroke="none" xlinkHref="#mfid263"/><defs><path id="mfid264" d="M0 0h.984v-.984H0V0Zm0-2.953h.984v-.984H0v.984Z"/></defs><use xlinkHref="#mfid264"/><defs><path id="mfid265" d="M0 0v-31.496h16.732V0H0Zm16.732 0h.985v-31.496h-.985V0Z"/></defs></g><g stroke-width=".434" stroke="#658a82" stroke-miterlimit="2" transform="matrix(0 3.84 -3.84 0 607.85 58.807)"><use fill-rule="evenodd" stroke="none" xlinkHref="#mfid265"/><defs><path id="mfid266" d="M0 0v-31.496h16.732V0H0Zm16.732-15.748h.985M16.732 0h.985v-31.496h-.985V0Z"/></defs><use xlinkHref="#mfid266"/><defs><path id="mfid267" d="M3.003-7.825c-.587.035-1.42.002-1.968.199a1.284 1.284 0 0 0-.767.714c-.414.9-.246 2.505-.165 3.606.114 1.542.06 2.1.29 3.306H.7C.654-.566.554-.952.454-2.063c-.007-.069-.013-.14-.018-.21-.064-.787-.064-1.433-.09-2C.32-4.822.27-5.3.303-5.807c.03-.47.13-.967.4-1.283.407-.473 1.194-.537 2.07-.55l.23-.184Zm.007.123c.444-.626 1.383-.904 2.296-1.126l-.111.24a5.302 5.302 0 0 1-.975.361c-.09.026-.188.053-.28.082-.415.13-.685.295-.763.56l-.167-.117Zm.024-.008c.82-.018 1.693-.147 2.472.007l-.116.166c-.154.014-.242-.074-.625-.024l-.014.001-.021.001c-.744.009-.967-.12-1.697-.15Z"/></defs></g><g stroke-width=".434" stroke="#658a82" stroke-miterlimit="2" transform="matrix(3.84 0 0 3.84 1102.3 92.707)"><use fill-rule="evenodd" stroke="none" xlinkHref="#mfid267"/><defs><path id="mfid268" d="M3.003-7.825c-.587.035-1.42.002-1.968.199a1.284 1.284 0 0 0-.767.714c-.414.9-.246 2.505-.165 3.606.114 1.542.06 2.1.29 3.306H.7C.654-.566.554-.952.454-2.063c-.007-.069-.013-.14-.018-.21-.064-.787-.064-1.433-.09-2C.32-4.822.27-5.3.303-5.807c.03-.47.13-.967.4-1.283.407-.473 1.194-.537 2.07-.55l.23-.184Zm.007.123c.444-.626 1.383-.904 2.296-1.126l-.111.24a5.302 5.302 0 0 1-.975.361c-.09.026-.188.053-.28.082-.415.13-.685.295-.763.56l-.167-.117Zm.024-.008c.82-.018 1.693-.147 2.472.007l-.116.166c-.154.014-.242-.074-.625-.024l-.014.001-.021.001c-.744.009-.967-.12-1.697-.15Z"/></defs></g><g stroke-width=".083" stroke="#000" stroke-linecap="round" stroke-linejoin="round" transform="matrix(3.84 0 0 3.84 1102.3 92.707)"><use xlinkHref="#mfid268"/><defs><path id="mfid269" d="M0 0h3.839v-7.066a1.176 1.176 0 0 0-.903-.615.67.67 0 0 1-.326-.485v-.552H1.228v.552a.67.67 0 0 1-.326.486c-.383.044-.72.274-.902.614V0Z"/></defs></g><g stroke-width=".083" stroke="#000" stroke-linecap="round" stroke-linejoin="round" transform="matrix(3.84 0 0 3.84 1106.7 96.602)"><use fill-rule="evenodd" stroke="none" xlinkHref="#mfid269"/><defs><path id="mfid270" d="M0 0h3.839v-7.066a1.176 1.176 0 0 0-.903-.615.67.67 0 0 1-.326-.485v-.552H1.228v.552a.67.67 0 0 1-.326.486c-.383.044-.72.274-.902.614V0Z"/></defs><use xlinkHref="#mfid270"/></g><g stroke-width=".083" stroke="#000" stroke-linecap="round" stroke-linejoin="round" transform="matrix(3.84 0 0 3.84 1107.3 84.318)"><path stroke="none" d="M0-.984h3.531V0H0z"/><defs><path id="mfid271" d="M0 0h3.531v-.984H0V0Z"/></defs><use xlinkHref="#mfid271"/><defs><path id="mfid272" d="M0-.546c0-.302.305-.546.682-.546.376 0 .681.244.681.546 0 .301-.305.546-.681.546C.305 0 0-.245 0-.546Z"/></defs></g><g stroke-width=".083" stroke="#000" stroke-linecap="round" stroke-linejoin="round" transform="matrix(3.84 0 0 3.84 1111.5 66.24)"><use fill-rule="evenodd" stroke="none" xlinkHref="#mfid272"/><defs><path id="mfid273" d="M.61-.357.98-.75M0-.546c0-.302.305-.546.682-.546.376 0 .681.244.681.546 0 .301-.305.546-.681.546C.305 0 0-.245 0-.546Z"/></defs><use xlinkHref="#mfid273"/><defs><path id="mfid274" d="M0 0h31.496v-1.968H0V0Z"/></defs></g><g stroke-width=".083" stroke="#000" stroke-linecap="round" stroke-linejoin="round" transform="matrix(0 3.84 -3.84 0 430.21 950.78)"><use fill-rule="evenodd" stroke="none" xlinkHref="#mfid274"/><defs><path id="mfid275" d="M0 0h31.496v-1.968H0V0Z"/></defs><use xlinkHref="#mfid275"/></g><g stroke-width=".083" stroke-linecap="round" stroke-linejoin="round"><g stroke="#000" transform="matrix(3.84 0 0 3.84 942.71 1099.7)"><path stroke="none" d="M0-5.955h59.055V.05H0z"/><defs><path id="mfid276" d="M0 .05h59.055v-6.005H0V.05Z"/></defs></g><g stroke="#fff" transform="matrix(3.84 0 0 3.84 942.71 1099.7)"><use xlinkHref="#mfid276"/><defs><path id="mfid277" d="M0 0v-5.905h1.968V0H0Zm59.055 0v-5.905h-1.968V0h1.968Z"/></defs><use fill-rule="evenodd" stroke="none" xlinkHref="#mfid277"/><defs><path id="mfid278" d="M0 0v-5.905h1.968v1.968m0 1.968V0H0m59.055 0v-5.905h-1.968v1.968m0 1.968V0h1.968"/></defs></g><g stroke="#000" transform="matrix(3.84 0 0 3.84 942.71 1099.7)"><use xlinkHref="#mfid278"/><defs><path id="mfid279" d="M0-1.968h1.968V0H0v-1.968Zm55.118 0H53.15V0h1.968v-1.968Z"/></defs></g></g><g stroke-width=".083" stroke="#000" stroke-linecap="round" stroke-linejoin="round" transform="matrix(3.84 0 0 3.84 950.27 1092.1)"><use fill-rule="evenodd" stroke="none" xlinkHref="#mfid279"/><defs><path id="mfid280" d="M0-1.968h1.968V0H0v-1.968Zm55.118 0H53.15V0h1.968v-1.968Z"/></defs><use xlinkHref="#mfid280"/><defs><path id="mfid281" d="M0 0h51.181"/></defs></g><g stroke-width=".083" stroke="#000" stroke-linecap="round" stroke-linejoin="round" transform="matrix(3.84 0 0 3.84 957.83 1088.3)"><use xlinkHref="#mfid281"/><defs><path id="mfid282" d="M0 0v-5.905M59.055 0v-5.905"/></defs></g><g stroke-width=".083" stroke="#000" stroke-linecap="round" stroke-linejoin="round" transform="matrix(3.84 0 0 3.84 942.71 1099.7)"><use xlinkHref="#mfid282"/><defs><path id="mfid283" d="M0 .05h68.898v-6.005H0V.05Z"/></defs></g><g stroke-width=".083" stroke-linecap="round" stroke-linejoin="round"><g stroke="#000" transform="rotate(90 -18.91 179.94) scale(3.84)"><use fill-rule="evenodd" stroke="none" xlinkHref="#mfid283"/><defs><path id="mfid284" d="M0 .05h68.898v-6.005H0V.05Z"/></defs></g><g stroke="#fff" transform="rotate(90 -18.91 179.94) scale(3.84)"><use xlinkHref="#mfid284"/><defs><path id="mfid285" d="M0 0v-5.905h1.968V0H0Zm68.898 0v-5.905h-1.969V0h1.969Z"/></defs><use fill-rule="evenodd" stroke="none" xlinkHref="#mfid285"/><defs><path id="mfid286" d="M0 0v-5.905h1.968v1.968m0 1.968V0H0m68.898 0v-5.905h-1.969v1.968m0 1.968V0h1.969"/></defs></g><g stroke="#000" transform="rotate(90 -18.91 179.94) scale(3.84)"><use xlinkHref="#mfid286"/><defs><path id="mfid287" d="M0-1.968h1.968V0H0v-1.968Zm64.961 0h-1.969V0h1.969v-1.968Z"/></defs></g></g><g stroke-width=".083" stroke="#000" stroke-linecap="round" stroke-linejoin="round" transform="rotate(90 -18.91 187.5) scale(3.84)"><use fill-rule="evenodd" stroke="none" xlinkHref="#mfid287"/><defs><path id="mfid288" d="M0-1.968h1.968V0H0v-1.968Zm64.961 0h-1.969V0h1.969v-1.968Z"/></defs><use xlinkHref="#mfid288"/><defs><path id="mfid289" d="M0 0h61.024"/></defs></g><g stroke-width=".083" stroke="#000" stroke-linecap="round" stroke-linejoin="round" transform="rotate(90 -20.8 193.17) scale(3.84)"><use xlinkHref="#mfid289"/><defs><path id="mfid290" d="M0 0v-5.905M68.898 0v-5.905"/></defs></g><g stroke-width=".083" stroke="#000" stroke-linecap="round" stroke-linejoin="round" transform="rotate(90 -18.91 179.94) scale(3.84)"><use xlinkHref="#mfid290"/><defs><path id="mfid291" d="M0 .05h68.504v-6.005H0V.05Z"/></defs></g><g stroke-width=".083" stroke-linecap="round" stroke-linejoin="round"><g stroke="#000" transform="matrix(0 -3.84 3.84 0 183.71 874.43)"><use fill-rule="evenodd" stroke="none" xlinkHref="#mfid291"/><defs><path id="mfid292" d="M0 .05h68.504v-6.005H0V.05Z"/></defs></g><g stroke="#fff" transform="matrix(0 -3.84 3.84 0 183.71 874.43)"><use xlinkHref="#mfid292"/><defs><path id="mfid293" d="M0 0v-5.905h1.968V0H0Zm68.504 0v-5.905h-1.969V0h1.969Z"/></defs><use fill-rule="evenodd" stroke="none" xlinkHref="#mfid293"/><defs><path id="mfid294" d="M0 0v-5.905h1.968v1.968m0 1.968V0H0m68.504 0v-5.905h-1.969v1.968m0 1.968V0h1.969"/></defs></g><g stroke="#000" transform="matrix(0 -3.84 3.84 0 183.71 874.43)"><use xlinkHref="#mfid294"/><defs><path id="mfid295" d="M0-1.968h1.968V0H0v-1.968Zm64.567 0h-1.969V0h1.969v-1.968Z"/></defs></g></g><g stroke-width=".083" stroke="#000" stroke-linecap="round" stroke-linejoin="round" transform="matrix(0 -3.84 3.84 0 176.15 866.87)"><use fill-rule="evenodd" stroke="none" xlinkHref="#mfid295"/><defs><path id="mfid296" d="M0-1.968h1.968V0H0v-1.968Zm64.567 0h-1.969V0h1.969v-1.968Z"/></defs><use xlinkHref="#mfid296"/><defs><path id="mfid297" d="M0 0h60.63"/></defs></g><g stroke-width=".083" stroke="#000" stroke-linecap="round" stroke-linejoin="round" transform="matrix(0 -3.84 3.84 0 172.37 859.31)"><use xlinkHref="#mfid297"/><defs><path id="mfid298" d="M0 0v-5.905M68.504 0v-5.905"/></defs></g><g stroke-width=".083" stroke="#000" stroke-linecap="round" stroke-linejoin="round" transform="matrix(0 -3.84 3.84 0 183.71 874.43)"><use xlinkHref="#mfid298"/><defs><path id="mfid299" d="M-1.968.05h39.37v-6.005h-39.37V.05Z"/></defs></g><g stroke-width=".083" stroke-linecap="round" stroke-linejoin="round"><g stroke="#000" transform="matrix(0 -3.84 3.84 0 1232.9 234.93)"><use fill-rule="evenodd" stroke="none" xlinkHref="#mfid299"/><defs><path id="mfid300" d="M-1.968.05h39.37v-6.005h-39.37V.05Z"/></defs></g><g stroke="#fff" transform="matrix(0 -3.84 3.84 0 1232.9 234.93)"><use xlinkHref="#mfid300"/><defs><path id="mfid301" d="M39.37 0v-5.905h-1.968V0h1.968ZM0 0v-5.905h1.968V0H0Z"/></defs></g></g><g stroke-width=".083" stroke-linecap="round" stroke-linejoin="round"><g stroke="#fff" transform="matrix(0 -3.84 3.84 0 1232.9 242.49)"><use fill-rule="evenodd" stroke="none" xlinkHref="#mfid301"/><defs><path id="mfid302" d="M39.37 0v-5.905h-1.968v1.968m0 1.968V0h1.968M0 0v-5.905h1.968v1.968m0 1.968V0H0"/></defs></g><g stroke="#000" transform="matrix(0 -3.84 3.84 0 1232.9 242.49)"><use xlinkHref="#mfid302"/><defs><path id="mfid303" d="M35.433-1.968h-.787V0h.787v-1.968ZM0-1.968h.787V0H0v-1.968Z"/></defs></g></g><g stroke-width=".083" stroke="#000" stroke-linecap="round" stroke-linejoin="round" transform="matrix(0 -3.84 3.84 0 1225.3 234.93)"><use fill-rule="evenodd" stroke="none" xlinkHref="#mfid303"/><defs><path id="mfid304" d="M35.433-1.968h-.787V0h.787M0-1.968h.787V0H0"/></defs><use xlinkHref="#mfid304"/><defs><path id="mfid305" d="M39.37 0v-5.905M0 0v-5.905"/></defs></g><g stroke-width=".083" stroke="#000" stroke-linecap="round" stroke-linejoin="round" transform="matrix(0 -3.84 3.84 0 1232.9 242.49)"><use xlinkHref="#mfid305"/><defs><path id="mfid306" d="M0 0a35.431 35.431 0 0 1 9.073-23.678"/></defs></g><g stroke-width=".083" stroke="#000" stroke-linecap="round" stroke-linejoin="round" transform="matrix(0 -3.84 3.84 0 1210.2 234.93)"><use xlinkHref="#mfid306"/><defs><path id="mfid307" d="M0 0h35.433v-1.968H0V0Z"/></defs></g><g><g stroke-width=".083" stroke="#000" stroke-linecap="round" stroke-linejoin="round" transform="rotate(-48.067 792.461 -1158.714) scale(3.84)"><use fill-rule="evenodd" stroke="none" xlinkHref="#mfid307"/><defs><path id="mfid308" d="M0 0h35.433v-1.968H0V0Z"/></defs><use xlinkHref="#mfid308"/></g></g></g></g></svg></switch><path class="st1" d="M0 36.75h1015.99v920.494H0z"/></g><g id="shape1009-4" transform="translate(859.854 -147.875)"><path class="st1" d="M0 936.268h42.52v20.976H0z"/><text x="15.18" y="953.96" class="st2">1</text></g><g id="shape1011-7" transform="translate(668.515 -195.684)"><path class="st1" d="M0 936.268h42.52v20.976H0z"/><text x="15.18" y="953.96" class="st2">2</text></g><g id="shape1012-10" transform="translate(349.618 -147.875)"><path class="st1" d="M0 936.268h42.52v20.976H0z"/><text x="15.18" y="953.96" class="st2">3</text></g><g id="shape1013-13" transform="translate(158.279 -195.684)"><path class="st1" d="M0 936.268h42.52v20.976H0z"/><text x="15.18" y="953.96" class="st2">4</text></g><g id="shape1015-16" transform="translate(158.279 -462.851)"><path class="st1" d="M0 936.268h42.52v20.976H0z"/><text x="15.18" y="953.96" class="st2">5</text></g><g id="shape1016-19" transform="translate(349.618 -514.541)"><path class="st1" d="M0 936.268h42.52v20.976H0z"/><text x="15.18" y="953.96" class="st2">6</text></g><g id="shape1017-22" transform="translate(678.169 -466.016)"><path class="st1" d="M0 936.268h42.52v20.976H0z"/><text x="15.18" y="953.96" class="st2">7</text></g><g id="shape1018-25" transform="translate(678.169 -611.71)"><path class="st1" d="M0 936.268h42.52v20.976H0z"/><text x="15.18" y="953.96" class="st2">8</text></g><g id="shape1020-28" transform="translate(349.618 -558.898)"><path class="st1" d="M0 936.268h42.52v20.976H0z"/><text x="15.18" y="953.96" class="st2">9</text></g><g id="shape1021-31" transform="translate(158.279 -611.71)"><path class="st1" d="M0 936.268h42.52v20.976H0z"/><text x="9.1" y="953.96" class="st2">10</text></g></svg>