<svg xmlns="http://www.w3.org/2000/svg" width="938.835" height="1544.678" viewBox="0 0 704.126 1158.51" color-interpolation-filters="sRGB" class="st16" fill="none"><g id="group960-1" transform="rotate(-90 131.714 753.255)"><g id="group961-2" transform="translate(0 -365.669)"><g id="shape962-3"><path d="M-4.25 1154.26h515.9l-4.25 4.25H0l-4.25-4.25Z" class="st1"/></g><g id="shape963-6" transform="rotate(-135 .001 1158.51)"><path class="st2" d="M0 1158.08h6.013v.425H0z"/></g><g id="shape964-8" transform="rotate(135 256.707 1262.346)"><path class="st2" d="M0 1158.08h6.013v.425H0z"/></g><g id="shape966-12"><path d="M-4.25 1154.26h515.9M0 1158.51h507.4" class="st3"/></g></g><g id="group968-18" transform="rotate(90 436.536 1229.374)"><g id="shape969-19"><path d="M-4.25 1154.26h374.17l-4.25 4.25H0l-4.25-4.25Z" class="st1"/></g><g id="shape970-22" transform="rotate(-135 .001 1158.51)"><path class="st2" d="M0 1158.08h6.013v.425H0z"/></g><g id="shape971-24" transform="rotate(135 185.842 1232.993)"><path class="st2" d="M0 1158.08h6.013v.425H0z"/></g><g id="shape973-28"><path d="M-4.25 1154.26h374.17M0 1158.51h365.67" class="st3"/></g></g><g id="group975-34" transform="rotate(180 253.701 1158.505)"><g id="shape976-35"><path d="M-4.25 1154.26h515.9l-4.25 4.25H0l-4.25-4.25Z" class="st1"/></g><g id="shape977-38" transform="rotate(-135 .001 1158.51)"><path class="st2" d="M0 1158.08h6.013v.425H0z"/></g><g id="shape978-40" transform="rotate(135 256.707 1262.346)"><path class="st2" d="M0 1158.08h6.013v.425H0z"/></g><g id="shape980-44"><path d="M-4.25 1154.26h515.9M0 1158.51h507.4" class="st3"/></g></g><g id="group982-50" transform="rotate(-90 0 1158.51)"><g id="shape983-51"><path d="M-4.25 1154.26h374.17l-4.25 4.25H0l-4.25-4.25Z" class="st1"/></g><g id="shape984-54" transform="rotate(-135 .001 1158.51)"><path class="st2" d="M0 1158.08h6.013v.425H0z"/></g><g id="shape985-56" transform="rotate(135 185.842 1232.993)"><path class="st2" d="M0 1158.08h6.013v.425H0z"/></g><g id="shape987-60"><path d="M-4.25 1154.26h374.17M0 1158.51h365.67" class="st3"/></g></g></g><g id="group989-66" transform="rotate(45 778.751 1363.003)"><g id="shape990-67"><path d="M10.91 1115.06a157.589 157.613-180 0 0-.03 22.18 28.16 28.16-180 0 0 13.34 13.19h17.51a4.03 4.03 0 0 1 3.8 2.65h2.93a16.145 16.145-180 0 0 16.14-16.15v-21.53a16.137 16.137-180 0 0-16.14-16.14h-2.94a4.04 4.04 0 0 1-3.81 2.73H24.08a28.16 28.16-180 0 0-13.17 13.07Zm-.13 11.16a57.393 57.402 0 0 1 1.4-18.84 3.01 3.01-180 0 0-4.04-4.03 30.789 30.793-180 0 0-8.06 22.87 30.203 30.207-180 0 0 8.06 22.87 3.033 3.033-180 0 0 4.04-4.04 55.756 55.764 0 0 1-1.4-18.83Zm34.99 28.24a4.039 4.039-180 0 0-4.04-4.04H17.52a4.034 4.034-180 0 0-4.04 4.04 4.04 4.04-180 0 0 4.04 4.05h24.21a4.045 4.045-180 0 0 4.04-4.05Zm-.03-56.52a4.023 4.023-180 0 0-4.01-4.03H17.52a4.055 4.055-180 0 0-4.06 4.05 4.049 4.049-180 0 0 4.06 4.04h24.21a4.024 4.024-180 0 0 4.01-4.04v-.02Z" class="st4"/><path d="M10.91 1115.06a157.589 157.613-180 0 0-.03 22.18 28.16 28.16-180 0 0 13.34 13.19h17.51a4.03 4.03 0 0 1 3.8 2.65h2.93a16.145 16.145-180 0 0 16.14-16.15v-21.53a16.137 16.137-180 0 0-16.14-16.14h-2.94a4.04 4.04 0 0 1-3.81 2.73H24.08a28.16 28.16-180 0 0-13.17 13.07m-.13 11.16a57.393 57.402 0 0 1 1.4-18.84 3.01 3.01-180 0 0-4.04-4.03 30.789 30.793-180 0 0-8.06 22.87 30.203 30.207-180 0 0 8.06 22.87 3.033 3.033-180 0 0 4.04-4.04 55.756 55.764 0 0 1-1.4-18.83m34.99 28.24a4.039 4.039-180 0 0-4.04-4.04H17.52a4.034 4.034-180 0 0-4.04 4.04 4.04 4.04-180 0 0 4.04 4.05h24.21a4.045 4.045-180 0 0 4.04-4.05m-.03-56.52a4.023 4.023-180 0 0-4.01-4.03H17.52a4.055 4.055-180 0 0-4.06 4.05 4.049 4.049-180 0 0 4.06 4.04h24.21a4.024 4.024-180 0 0 4.01-4.04" class="st5"/></g></g><g id="group991-70" transform="rotate(-90 69.446 703.514)"><path d="M0 1021.03v137.48h134.94v-65.2H65.2v-72.28H0Z" class="st6" id="shape991-71"/></g><g id="group992-73" transform="rotate(180 262.22 869.075)"><g id="shape992-74"><path class="st6" d="M0 1100.69h65.197v57.818H0z"/><text x="-39.27" y="-1122.4" transform="rotate(180)" class="st7">3</text></g></g><g id="group993-77" transform="rotate(-135 173.955 840.19)"><g id="shape994-78" transform="rotate(180 20.805 1138.145)"><path class="st6" d="M0 1118.94h38.143v39.563H0z"/></g><g id="shape995-80" transform="rotate(180 30.052 1137.56)"><path class="st6" d="M0 1116.62h15.026v41.891H0z"/></g><g id="shape996-82" transform="rotate(180 19.65 1139.305)"><path d="m8.97 1158.51 10.85-3.85v-27.26l-10.85-3.8a235.919 233.239-180 0 0 0 34.91Zm10.85-3.85h18.44a91.622 90.962-180 0 0 0-27.26H19.82v27.26Zm-18.78 3.85h7.93a235.919 233.239 0 0 1 0-34.91H1.04a150.587 148.876-180 0 0 0 34.91Z" class="st6"/></g><g id="shape997-84" transform="rotate(-90 5.81 1117.51)"><path class="st8" d="M0 1158.22h1.164v.289H0z"/></g><g id="shape998-86" transform="rotate(-90 28.32 1129.03)"><path d="M2.62 1148.39h1.45v-1.44H2.62v1.44Zm1.74 0h1.46v-1.44H4.36v1.44Zm1.75 0h1.45v-1.44H6.11v1.44Zm1.74 0h1.46v-1.44H7.85v1.44Zm11.2 0h1.46v-1.44h-1.46v1.44Zm1.75 0h1.45v-1.44H20.8v1.44Zm1.75 0H24v-1.44h-1.45v1.44Zm1.74 0h1.46v-1.44h-1.46v1.44ZM0 1151.28h2.33v-1.44H0v1.44Zm2.62 0h1.45v-1.44H2.62v1.44Zm1.74 0h1.46v-1.44H4.36v1.44Zm1.75 0h1.45v-1.44H6.11v1.44Zm1.74 0h1.46v-1.44H7.85v1.44Zm1.75 0h1.45v-1.44H9.6v1.44Zm1.75 0h1.45v-1.44h-1.45v1.44Zm1.74 0h1.46v-1.44h-1.46v1.44Zm1.75 0h1.45v-1.44h-1.45v1.44Zm1.74 0h1.46v-1.44h-1.46v1.44Zm1.75 0h1.45v-1.44h-1.45v1.44Zm1.74 0h1.46v-1.44h-1.46v1.44Zm1.75 0h1.45v-1.44h-1.45v1.44Zm-19.2 1.81h1.45v-1.45H2.62v1.45Zm1.74 0h1.46v-1.45H4.36v1.45Zm1.75 0h1.45v-1.45H6.11v1.45Zm1.74 0h1.46v-1.45H7.85v1.45Zm1.75 0h1.45v-1.45H9.6v1.45Zm1.75 0h1.45v-1.45h-1.45v1.45Zm1.74 0h1.46v-1.45h-1.46v1.45Zm1.75 0h1.45v-1.45h-1.45v1.45Zm1.74 0h1.46v-1.45h-1.46v1.45Zm1.75 0h1.45v-1.45h-1.45v1.45Zm1.74 0h1.46v-1.45h-1.46v1.45Zm1.75 0h1.45v-1.45h-1.45v1.45Zm-19.2 1.81h1.45v-1.45H2.62v1.45Zm1.74 0h1.46v-1.45H4.36v1.45Zm1.75 0h1.45v-1.45H6.11v1.45Zm1.74 0h1.46v-1.45H7.85v1.45Zm1.75 0h1.45v-1.45H9.6v1.45Zm1.75 0h1.45v-1.45h-1.45v1.45Zm1.74 0h1.46v-1.45h-1.46v1.45Zm1.75 0h1.45v-1.45h-1.45v1.45Zm1.74 0h1.46v-1.45h-1.46v1.45Zm1.75 0h1.45v-1.45h-1.45v1.45Zm1.74 0h1.46v-1.45h-1.46v1.45Zm1.75 0h1.45v-1.45h-1.45v1.45Zm-19.2 1.8h1.45v-1.44H2.62v1.44Zm1.74 0h1.46v-1.44H4.36v1.44Zm1.75 0h1.45v-1.44H6.11v1.44Zm1.74 0h1.46v-1.44H7.85v1.44Zm1.75 0h1.45v-1.44H9.6v1.44Zm1.75 0h1.45v-1.44h-1.45v1.44Zm1.74 0h1.46v-1.44h-1.46v1.44Zm1.75 0h1.45v-1.44h-1.45v1.44Zm1.74 0h1.46v-1.44h-1.46v1.44Zm1.75 0h1.45v-1.44h-1.45v1.44Zm1.74 0h1.46v-1.44h-1.46v1.44Zm-13.96 1.81h11.93v-1.45H6.11v1.45Zm26.47 0h3.49v-1.45h-3.49v1.45Zm3.78 0h1.46v-1.45h-1.46v1.45Zm0-1.81h1.46v-1.44h-1.46v1.44Zm-1.89 0h1.46v-1.44h-1.46v1.44Zm-1.89 0h1.46v-1.44h-1.46v1.44Zm0-1.8h1.46v-1.45h-1.46v1.45Zm0-1.81h1.46v-1.45h-1.46v1.45Zm1.89 0h1.46v-1.45h-1.46v1.45Zm1.89 0h1.46v-1.45h-1.46v1.45Zm0 1.81h1.46v-1.45h-1.46v1.45Zm-1.89 0h1.46v-1.45h-1.46v1.45Z" class="st9"/></g><g id="shape999-88" transform="rotate(-90 28.32 1129.03)"><path d="M0 1148.39h1.45v-1.44H0v1.44Zm0 4.7h2.33v-1.45H0v1.45Zm0 1.81h2.33v-1.45H0v1.45Zm0 1.8h2.33v-1.44H0v1.44Zm0 1.81h2.33v-1.45H0v1.45Zm2.62 0h1.45v-1.45H2.62v1.45Zm1.74 0h1.46v-1.45H4.36v1.45Zm13.97 0h1.45v-1.45h-1.45v1.45Zm1.74 0h1.46v-1.45h-1.46v1.45Zm1.75 0h1.45v-1.45h-1.45v1.45Zm1.74 0h2.33v-1.45h-2.33v1.45Zm3.2 0h1.46v-1.45h-1.46v1.45Zm1.75 0h1.45v-1.45h-1.45v1.45Zm1.74 0h1.46v-1.45h-1.46v1.45Zm8 0h1.46v-3.18h-1.46v3.18Zm0-3.47h1.46v-3.4h-1.46v3.4Zm0-3.76h1.46v-1.44h-1.46v1.44Zm-1.89 0h1.46v-1.44h-1.46v1.44Zm-1.89 0h1.46v-1.44h-1.46v1.44Zm-1.89 0h1.46v-1.44h-1.46v1.44Zm-2.33 0h1.46v-1.44h-1.46v1.44Zm0 1.81h1.46v-1.45h-1.46v1.45Zm-1.74 3.61h1.45v-1.44h-1.45v1.44Zm-6.69-.02h4.07v-1.45h-4.07v1.45Zm1.74-1.83h2.33v-3.18h-2.33v3.18Zm3.2-1.76h1.46v-1.45h-1.46v1.45Zm1.75 0h1.45v-1.45h-1.45v1.45Zm0-1.81h1.45v-1.44h-1.45v1.44Zm-4.95 0h2.33v-1.44h-2.33v1.44Zm13.97-3.75h1.16v-.29h-1.16v.29Zm-1.75 0h1.17v-.29h-1.17v.29Zm-5.53.86h1.46v-1.44h-1.46v1.44Zm-1.74 0h1.45v-1.44h-1.45v1.44Zm-1.75 0h1.46v-1.44h-1.46v1.44Zm-10.76 0h1.45v-1.44H16v1.44Zm-1.75 0h1.46v-1.44h-1.46v1.44Zm-1.74 0h1.45v-1.44h-1.45v1.44Zm-1.75 0h1.46v-1.44h-1.46v1.44Zm16 2.89h1.46v-1.44h-1.46v1.44Z" class="st10"/></g></g><g id="group1000-90" transform="rotate(-179.835 262.653 966.064)"><path class="st6" d="M0 1152.84h137.482v5.669H0z" id="shape1000-93"/></g><g id="group1002-95" transform="rotate(-90 73.698 700.679)"><path class="st6" d="M0 1152.84h134.938v5.669H0z" id="shape1002-98"/></g><g id="group1004-100" transform="rotate(-90 6.229 633.21)"><path class="st6" d="M0 1152.84h57.818v5.669H0z" id="shape1004-103"/></g><g id="group1006-105" transform="scale(1 -1) rotate(45 2178.131 783.361)"><g id="shape1007-106"><path d="M10.91 1115.06a157.589 157.613-180 0 0-.03 22.18 28.16 28.16-180 0 0 13.34 13.19h17.51a4.03 4.03 0 0 1 3.8 2.65h2.93a16.145 16.145-180 0 0 16.14-16.15v-21.53a16.137 16.137-180 0 0-16.14-16.14h-2.94a4.04 4.04 0 0 1-3.81 2.73H24.08a28.16 28.16-180 0 0-13.17 13.07Zm-.13 11.16a57.393 57.402 0 0 1 1.4-18.84 3.01 3.01-180 0 0-4.04-4.03 30.789 30.793-180 0 0-8.06 22.87 30.203 30.207-180 0 0 8.06 22.87 3.033 3.033-180 0 0 4.04-4.04 55.756 55.764 0 0 1-1.4-18.83Zm34.99 28.24a4.039 4.039-180 0 0-4.04-4.04H17.52a4.034 4.034-180 0 0-4.04 4.04 4.04 4.04-180 0 0 4.04 4.05h24.21a4.045 4.045-180 0 0 4.04-4.05Zm-.03-56.52a4.023 4.023-180 0 0-4.01-4.03H17.52a4.055 4.055-180 0 0-4.06 4.05 4.049 4.049-180 0 0 4.06 4.04h24.21a4.024 4.024-180 0 0 4.01-4.04v-.02Z" class="st4"/><path d="M10.91 1115.06a157.589 157.613-180 0 0-.03 22.18 28.16 28.16-180 0 0 13.34 13.19h17.51a4.03 4.03 0 0 1 3.8 2.65h2.93a16.145 16.145-180 0 0 16.14-16.15v-21.53a16.137 16.137-180 0 0-16.14-16.14h-2.94a4.04 4.04 0 0 1-3.81 2.73H24.08a28.16 28.16-180 0 0-13.17 13.07m-.13 11.16a57.393 57.402 0 0 1 1.4-18.84 3.01 3.01-180 0 0-4.04-4.03 30.789 30.793-180 0 0-8.06 22.87 30.203 30.207-180 0 0 8.06 22.87 3.033 3.033-180 0 0 4.04-4.04 55.756 55.764 0 0 1-1.4-18.83m34.99 28.24a4.039 4.039-180 0 0-4.04-4.04H17.52a4.034 4.034-180 0 0-4.04 4.04 4.04 4.04-180 0 0 4.04 4.05h24.21a4.045 4.045-180 0 0 4.04-4.05m-.03-56.52a4.023 4.023-180 0 0-4.01-4.03H17.52a4.055 4.055-180 0 0-4.06 4.05 4.049 4.049-180 0 0 4.06 4.04h24.21a4.024 4.024-180 0 0 4.01-4.04" class="st5"/></g></g><g id="group1008-109" transform="matrix(0 1 1 0 -634.068 386.323)"><path d="M0 1021.03v137.48h134.94v-65.2H65.2v-72.28H0Z" class="st6" id="shape1008-110"/></g><g id="group1009-112" transform="matrix(1 0 0 -1 459.242 1680.33)"><g id="shape1009-113"><path class="st6" d="M0 1100.69h65.197v57.818H0z"/><text x="25.92" y="-1122.4" transform="scale(1 -1)" class="st7">2</text></g></g><g id="group1010-116" transform="scale(-1 1) rotate(45 629.019 159.677)"><g id="shape1011-117" transform="rotate(180 20.805 1138.145)"><path class="st6" d="M0 1118.94h38.143v39.563H0z"/></g><g id="shape1012-119" transform="rotate(180 30.052 1137.56)"><path class="st6" d="M0 1116.62h15.026v41.891H0z"/></g><g id="shape1013-121" transform="rotate(180 19.65 1139.305)"><path d="m8.97 1158.51 10.85-3.85v-27.26l-10.85-3.8a235.919 233.239-180 0 0 0 34.91Zm10.85-3.85h18.44a91.622 90.962-180 0 0 0-27.26H19.82v27.26Zm-18.78 3.85h7.93a235.919 233.239 0 0 1 0-34.91H1.04a150.587 148.876-180 0 0 0 34.91Z" class="st6"/></g><g id="shape1014-123" transform="rotate(-90 5.81 1117.51)"><path class="st8" d="M0 1158.22h1.164v.289H0z"/></g><g id="shape1015-125" transform="rotate(-90 28.32 1129.03)"><path d="M2.62 1148.39h1.45v-1.44H2.62v1.44Zm1.74 0h1.46v-1.44H4.36v1.44Zm1.75 0h1.45v-1.44H6.11v1.44Zm1.74 0h1.46v-1.44H7.85v1.44Zm11.2 0h1.46v-1.44h-1.46v1.44Zm1.75 0h1.45v-1.44H20.8v1.44Zm1.75 0H24v-1.44h-1.45v1.44Zm1.74 0h1.46v-1.44h-1.46v1.44ZM0 1151.28h2.33v-1.44H0v1.44Zm2.62 0h1.45v-1.44H2.62v1.44Zm1.74 0h1.46v-1.44H4.36v1.44Zm1.75 0h1.45v-1.44H6.11v1.44Zm1.74 0h1.46v-1.44H7.85v1.44Zm1.75 0h1.45v-1.44H9.6v1.44Zm1.75 0h1.45v-1.44h-1.45v1.44Zm1.74 0h1.46v-1.44h-1.46v1.44Zm1.75 0h1.45v-1.44h-1.45v1.44Zm1.74 0h1.46v-1.44h-1.46v1.44Zm1.75 0h1.45v-1.44h-1.45v1.44Zm1.74 0h1.46v-1.44h-1.46v1.44Zm1.75 0h1.45v-1.44h-1.45v1.44Zm-19.2 1.81h1.45v-1.45H2.62v1.45Zm1.74 0h1.46v-1.45H4.36v1.45Zm1.75 0h1.45v-1.45H6.11v1.45Zm1.74 0h1.46v-1.45H7.85v1.45Zm1.75 0h1.45v-1.45H9.6v1.45Zm1.75 0h1.45v-1.45h-1.45v1.45Zm1.74 0h1.46v-1.45h-1.46v1.45Zm1.75 0h1.45v-1.45h-1.45v1.45Zm1.74 0h1.46v-1.45h-1.46v1.45Zm1.75 0h1.45v-1.45h-1.45v1.45Zm1.74 0h1.46v-1.45h-1.46v1.45Zm1.75 0h1.45v-1.45h-1.45v1.45Zm-19.2 1.81h1.45v-1.45H2.62v1.45Zm1.74 0h1.46v-1.45H4.36v1.45Zm1.75 0h1.45v-1.45H6.11v1.45Zm1.74 0h1.46v-1.45H7.85v1.45Zm1.75 0h1.45v-1.45H9.6v1.45Zm1.75 0h1.45v-1.45h-1.45v1.45Zm1.74 0h1.46v-1.45h-1.46v1.45Zm1.75 0h1.45v-1.45h-1.45v1.45Zm1.74 0h1.46v-1.45h-1.46v1.45Zm1.75 0h1.45v-1.45h-1.45v1.45Zm1.74 0h1.46v-1.45h-1.46v1.45Zm1.75 0h1.45v-1.45h-1.45v1.45Zm-19.2 1.8h1.45v-1.44H2.62v1.44Zm1.74 0h1.46v-1.44H4.36v1.44Zm1.75 0h1.45v-1.44H6.11v1.44Zm1.74 0h1.46v-1.44H7.85v1.44Zm1.75 0h1.45v-1.44H9.6v1.44Zm1.75 0h1.45v-1.44h-1.45v1.44Zm1.74 0h1.46v-1.44h-1.46v1.44Zm1.75 0h1.45v-1.44h-1.45v1.44Zm1.74 0h1.46v-1.44h-1.46v1.44Zm1.75 0h1.45v-1.44h-1.45v1.44Zm1.74 0h1.46v-1.44h-1.46v1.44Zm-13.96 1.81h11.93v-1.45H6.11v1.45Zm26.47 0h3.49v-1.45h-3.49v1.45Zm3.78 0h1.46v-1.45h-1.46v1.45Zm0-1.81h1.46v-1.44h-1.46v1.44Zm-1.89 0h1.46v-1.44h-1.46v1.44Zm-1.89 0h1.46v-1.44h-1.46v1.44Zm0-1.8h1.46v-1.45h-1.46v1.45Zm0-1.81h1.46v-1.45h-1.46v1.45Zm1.89 0h1.46v-1.45h-1.46v1.45Zm1.89 0h1.46v-1.45h-1.46v1.45Zm0 1.81h1.46v-1.45h-1.46v1.45Zm-1.89 0h1.46v-1.45h-1.46v1.45Z" class="st9"/></g><g id="shape1016-127" transform="rotate(-90 28.32 1129.03)"><path d="M0 1148.39h1.45v-1.44H0v1.44Zm0 4.7h2.33v-1.45H0v1.45Zm0 1.81h2.33v-1.45H0v1.45Zm0 1.8h2.33v-1.44H0v1.44Zm0 1.81h2.33v-1.45H0v1.45Zm2.62 0h1.45v-1.45H2.62v1.45Zm1.74 0h1.46v-1.45H4.36v1.45Zm13.97 0h1.45v-1.45h-1.45v1.45Zm1.74 0h1.46v-1.45h-1.46v1.45Zm1.75 0h1.45v-1.45h-1.45v1.45Zm1.74 0h2.33v-1.45h-2.33v1.45Zm3.2 0h1.46v-1.45h-1.46v1.45Zm1.75 0h1.45v-1.45h-1.45v1.45Zm1.74 0h1.46v-1.45h-1.46v1.45Zm8 0h1.46v-3.18h-1.46v3.18Zm0-3.47h1.46v-3.4h-1.46v3.4Zm0-3.76h1.46v-1.44h-1.46v1.44Zm-1.89 0h1.46v-1.44h-1.46v1.44Zm-1.89 0h1.46v-1.44h-1.46v1.44Zm-1.89 0h1.46v-1.44h-1.46v1.44Zm-2.33 0h1.46v-1.44h-1.46v1.44Zm0 1.81h1.46v-1.45h-1.46v1.45Zm-1.74 3.61h1.45v-1.44h-1.45v1.44Zm-6.69-.02h4.07v-1.45h-4.07v1.45Zm1.74-1.83h2.33v-3.18h-2.33v3.18Zm3.2-1.76h1.46v-1.45h-1.46v1.45Zm1.75 0h1.45v-1.45h-1.45v1.45Zm0-1.81h1.45v-1.44h-1.45v1.44Zm-4.95 0h2.33v-1.44h-2.33v1.44Zm13.97-3.75h1.16v-.29h-1.16v.29Zm-1.75 0h1.17v-.29h-1.17v.29Zm-5.53.86h1.46v-1.44h-1.46v1.44Zm-1.74 0h1.45v-1.44h-1.45v1.44Zm-1.75 0h1.46v-1.44h-1.46v1.44Zm-10.76 0h1.45v-1.44H16v1.44Zm-1.75 0h1.46v-1.44h-1.46v1.44Zm-1.74 0h1.45v-1.44h-1.45v1.44Zm-1.75 0h1.46v-1.44h-1.46v1.44Zm16 2.89h1.46v-1.44h-1.46v1.44Z" class="st10"/></g></g><g id="group1017-129" transform="matrix(-1 .00288 .00288 1 522.523 -773.596)"><path class="st6" d="M0 1152.84h137.482v5.669H0z" id="shape1017-132"/></g><g id="group1019-134" transform="matrix(0 1 1 0 -626.981 384.906)"><path class="st6" d="M0 1152.84h134.938v5.669H0z" id="shape1019-137"/></g><g id="group1021-139" transform="matrix(0 1 1 0 -626.981 519.844)"><path class="st6" d="M0 1152.84h57.818v5.669H0z" id="shape1021-142"/></g><g id="group1023-144" transform="rotate(180 267.066 972.13)"><g id="shape1025-147" transform="translate(51.024 -39.685)"><path d="M0 1158.51h2.83v-2.84H0v2.84Zm0-8.51h2.83v-2.83H0v2.83Z" class="st11"/></g><g id="shape1026-149"><path d="M0 1158.51v-90.71h48.19v90.71H0Zm48.19 0h2.83v-90.71h-2.83v90.71Z" class="st12"/><path d="M0 1158.51v-90.71h48.19v90.71H0M48.19 1113.15h2.83M48.19 1158.51h2.83v-90.71h-2.83v90.71" class="st13"/></g></g><g id="group1046-154" transform="rotate(-135 27.425 755.991)"><g id="shape1047-155"><path d="M10.91 1115.06a157.589 157.613-180 0 0-.03 22.18 28.16 28.16-180 0 0 13.34 13.19h17.51a4.03 4.03 0 0 1 3.8 2.65h2.93a16.145 16.145-180 0 0 16.14-16.15v-21.53a16.137 16.137-180 0 0-16.14-16.14h-2.94a4.04 4.04 0 0 1-3.81 2.73H24.08a28.16 28.16-180 0 0-13.17 13.07Zm-.13 11.16a57.393 57.402 0 0 1 1.4-18.84 3.01 3.01-180 0 0-4.04-4.03 30.789 30.793-180 0 0-8.06 22.87 30.203 30.207-180 0 0 8.06 22.87 3.033 3.033-180 0 0 4.04-4.04 55.756 55.764 0 0 1-1.4-18.83Zm34.99 28.24a4.039 4.039-180 0 0-4.04-4.04H17.52a4.034 4.034-180 0 0-4.04 4.04 4.04 4.04-180 0 0 4.04 4.05h24.21a4.045 4.045-180 0 0 4.04-4.05Zm-.03-56.52a4.023 4.023-180 0 0-4.01-4.03H17.52a4.055 4.055-180 0 0-4.06 4.05 4.049 4.049-180 0 0 4.06 4.04h24.21a4.024 4.024-180 0 0 4.01-4.04v-.02Z" class="st4"/><path d="M10.91 1115.06a157.589 157.613-180 0 0-.03 22.18 28.16 28.16-180 0 0 13.34 13.19h17.51a4.03 4.03 0 0 1 3.8 2.65h2.93a16.145 16.145-180 0 0 16.14-16.15v-21.53a16.137 16.137-180 0 0-16.14-16.14h-2.94a4.04 4.04 0 0 1-3.81 2.73H24.08a28.16 28.16-180 0 0-13.17 13.07m-.13 11.16a57.393 57.402 0 0 1 1.4-18.84 3.01 3.01-180 0 0-4.04-4.03 30.789 30.793-180 0 0-8.06 22.87 30.203 30.207-180 0 0 8.06 22.87 3.033 3.033-180 0 0 4.04-4.04 55.756 55.764 0 0 1-1.4-18.83m34.99 28.24a4.039 4.039-180 0 0-4.04-4.04H17.52a4.034 4.034-180 0 0-4.04 4.04 4.04 4.04-180 0 0 4.04 4.05h24.21a4.045 4.045-180 0 0 4.04-4.05m-.03-56.52a4.023 4.023-180 0 0-4.01-4.03H17.52a4.055 4.055-180 0 0-4.06 4.05 4.049 4.049-180 0 0 4.06 4.04h24.21a4.024 4.024-180 0 0 4.01-4.04" class="st5"/></g></g><g id="group1048-158" transform="rotate(90 476.321 861.869)"><path d="M0 1021.03v137.48h134.94v-65.2H65.2v-72.28H0Z" class="st6" id="shape1048-159"/></g><g id="group1049-161" transform="rotate(180 122.442 839.78)"><g id="shape1049-162"><path class="st6" d="M0 1100.69h65.197v57.818H0z"/><text x="-39.27" y="-1122.4" transform="rotate(180)" class="st7">1</text></g></g><g id="group1050-165" transform="rotate(45 982.017 1009.245)"><g id="shape1051-166" transform="rotate(180 20.805 1138.145)"><path class="st6" d="M0 1118.94h38.143v39.563H0z"/></g><g id="shape1052-168" transform="rotate(180 30.052 1137.56)"><path class="st6" d="M0 1116.62h15.026v41.891H0z"/></g><g id="shape1053-170" transform="rotate(180 19.65 1139.305)"><path d="m8.97 1158.51 10.85-3.85v-27.26l-10.85-3.8a235.919 233.239-180 0 0 0 34.91Zm10.85-3.85h18.44a91.622 90.962-180 0 0 0-27.26H19.82v27.26Zm-18.78 3.85h7.93a235.919 233.239 0 0 1 0-34.91H1.04a150.587 148.876-180 0 0 0 34.91Z" class="st6"/></g><g id="shape1054-172" transform="rotate(-90 5.81 1117.51)"><path class="st8" d="M0 1158.22h1.164v.289H0z"/></g><g id="shape1055-174" transform="rotate(-90 28.32 1129.03)"><path d="M2.62 1148.39h1.45v-1.44H2.62v1.44Zm1.74 0h1.46v-1.44H4.36v1.44Zm1.75 0h1.45v-1.44H6.11v1.44Zm1.74 0h1.46v-1.44H7.85v1.44Zm11.2 0h1.46v-1.44h-1.46v1.44Zm1.75 0h1.45v-1.44H20.8v1.44Zm1.75 0H24v-1.44h-1.45v1.44Zm1.74 0h1.46v-1.44h-1.46v1.44ZM0 1151.28h2.33v-1.44H0v1.44Zm2.62 0h1.45v-1.44H2.62v1.44Zm1.74 0h1.46v-1.44H4.36v1.44Zm1.75 0h1.45v-1.44H6.11v1.44Zm1.74 0h1.46v-1.44H7.85v1.44Zm1.75 0h1.45v-1.44H9.6v1.44Zm1.75 0h1.45v-1.44h-1.45v1.44Zm1.74 0h1.46v-1.44h-1.46v1.44Zm1.75 0h1.45v-1.44h-1.45v1.44Zm1.74 0h1.46v-1.44h-1.46v1.44Zm1.75 0h1.45v-1.44h-1.45v1.44Zm1.74 0h1.46v-1.44h-1.46v1.44Zm1.75 0h1.45v-1.44h-1.45v1.44Zm-19.2 1.81h1.45v-1.45H2.62v1.45Zm1.74 0h1.46v-1.45H4.36v1.45Zm1.75 0h1.45v-1.45H6.11v1.45Zm1.74 0h1.46v-1.45H7.85v1.45Zm1.75 0h1.45v-1.45H9.6v1.45Zm1.75 0h1.45v-1.45h-1.45v1.45Zm1.74 0h1.46v-1.45h-1.46v1.45Zm1.75 0h1.45v-1.45h-1.45v1.45Zm1.74 0h1.46v-1.45h-1.46v1.45Zm1.75 0h1.45v-1.45h-1.45v1.45Zm1.74 0h1.46v-1.45h-1.46v1.45Zm1.75 0h1.45v-1.45h-1.45v1.45Zm-19.2 1.81h1.45v-1.45H2.62v1.45Zm1.74 0h1.46v-1.45H4.36v1.45Zm1.75 0h1.45v-1.45H6.11v1.45Zm1.74 0h1.46v-1.45H7.85v1.45Zm1.75 0h1.45v-1.45H9.6v1.45Zm1.75 0h1.45v-1.45h-1.45v1.45Zm1.74 0h1.46v-1.45h-1.46v1.45Zm1.75 0h1.45v-1.45h-1.45v1.45Zm1.74 0h1.46v-1.45h-1.46v1.45Zm1.75 0h1.45v-1.45h-1.45v1.45Zm1.74 0h1.46v-1.45h-1.46v1.45Zm1.75 0h1.45v-1.45h-1.45v1.45Zm-19.2 1.8h1.45v-1.44H2.62v1.44Zm1.74 0h1.46v-1.44H4.36v1.44Zm1.75 0h1.45v-1.44H6.11v1.44Zm1.74 0h1.46v-1.44H7.85v1.44Zm1.75 0h1.45v-1.44H9.6v1.44Zm1.75 0h1.45v-1.44h-1.45v1.44Zm1.74 0h1.46v-1.44h-1.46v1.44Zm1.75 0h1.45v-1.44h-1.45v1.44Zm1.74 0h1.46v-1.44h-1.46v1.44Zm1.75 0h1.45v-1.44h-1.45v1.44Zm1.74 0h1.46v-1.44h-1.46v1.44Zm-13.96 1.81h11.93v-1.45H6.11v1.45Zm26.47 0h3.49v-1.45h-3.49v1.45Zm3.78 0h1.46v-1.45h-1.46v1.45Zm0-1.81h1.46v-1.44h-1.46v1.44Zm-1.89 0h1.46v-1.44h-1.46v1.44Zm-1.89 0h1.46v-1.44h-1.46v1.44Zm0-1.8h1.46v-1.45h-1.46v1.45Zm0-1.81h1.46v-1.45h-1.46v1.45Zm1.89 0h1.46v-1.45h-1.46v1.45Zm1.89 0h1.46v-1.45h-1.46v1.45Zm0 1.81h1.46v-1.45h-1.46v1.45Zm-1.89 0h1.46v-1.45h-1.46v1.45Z" class="st9"/></g><g id="shape1056-176" transform="rotate(-90 28.32 1129.03)"><path d="M0 1148.39h1.45v-1.44H0v1.44Zm0 4.7h2.33v-1.45H0v1.45Zm0 1.81h2.33v-1.45H0v1.45Zm0 1.8h2.33v-1.44H0v1.44Zm0 1.81h2.33v-1.45H0v1.45Zm2.62 0h1.45v-1.45H2.62v1.45Zm1.74 0h1.46v-1.45H4.36v1.45Zm13.97 0h1.45v-1.45h-1.45v1.45Zm1.74 0h1.46v-1.45h-1.46v1.45Zm1.75 0h1.45v-1.45h-1.45v1.45Zm1.74 0h2.33v-1.45h-2.33v1.45Zm3.2 0h1.46v-1.45h-1.46v1.45Zm1.75 0h1.45v-1.45h-1.45v1.45Zm1.74 0h1.46v-1.45h-1.46v1.45Zm8 0h1.46v-3.18h-1.46v3.18Zm0-3.47h1.46v-3.4h-1.46v3.4Zm0-3.76h1.46v-1.44h-1.46v1.44Zm-1.89 0h1.46v-1.44h-1.46v1.44Zm-1.89 0h1.46v-1.44h-1.46v1.44Zm-1.89 0h1.46v-1.44h-1.46v1.44Zm-2.33 0h1.46v-1.44h-1.46v1.44Zm0 1.81h1.46v-1.45h-1.46v1.45Zm-1.74 3.61h1.45v-1.44h-1.45v1.44Zm-6.69-.02h4.07v-1.45h-4.07v1.45Zm1.74-1.83h2.33v-3.18h-2.33v3.18Zm3.2-1.76h1.46v-1.45h-1.46v1.45Zm1.75 0h1.45v-1.45h-1.45v1.45Zm0-1.81h1.45v-1.44h-1.45v1.44Zm-4.95 0h2.33v-1.44h-2.33v1.44Zm13.97-3.75h1.16v-.29h-1.16v.29Zm-1.75 0h1.17v-.29h-1.17v.29Zm-5.53.86h1.46v-1.44h-1.46v1.44Zm-1.74 0h1.45v-1.44h-1.45v1.44Zm-1.75 0h1.46v-1.44h-1.46v1.44Zm-10.76 0h1.45v-1.44H16v1.44Zm-1.75 0h1.46v-1.44h-1.46v1.44Zm-1.74 0h1.45v-1.44h-1.45v1.44Zm-1.75 0h1.46v-1.44h-1.46v1.44Zm16 2.89h1.46v-1.44h-1.46v1.44Z" class="st10"/></g></g><g id="group1057-178" transform="rotate(.165 268540.042 62568.586)"><path class="st6" d="M0 1152.84h137.482v5.669H0z" id="shape1057-181"/></g><g id="group1059-183" transform="rotate(90 473.49 857.62)"><path class="st6" d="M0 1152.84h134.938v5.669H0z" id="shape1059-186"/></g><g id="group1061-188" transform="rotate(90 406.02 925.09)"><path class="st6" d="M0 1152.84h57.818v5.669H0z" id="shape1061-191"/></g><g id="group1065-193" transform="translate(174.132 -279.209)"><g id="shape1067-196" transform="translate(57.818 -39.685)"><path d="M0 1158.51h2.83v-2.84H0v2.84Zm0-8.51h2.83v-2.83H0v2.83Z" class="st11"/></g><g id="shape1068-198"><path d="M0 1158.51v-90.71h54.98v90.71H0Zm54.98 0h2.84v-90.71h-2.84v90.71Z" class="st12"/><path d="M0 1158.51v-90.71h54.98v90.71H0M54.98 1113.15h2.84" class="st13"/><path d="M54.98 1158.51h2.84v-90.71h-2.84v90.71" class="st13"/></g></g><g id="group1093-203" transform="scale(-1 1) rotate(45 423.3 512.726)"><g id="shape1094-204"><path d="M10.91 1115.06a157.589 157.613-180 0 0-.03 22.18 28.16 28.16-180 0 0 13.34 13.19h17.51a4.03 4.03 0 0 1 3.8 2.65h2.93a16.145 16.145-180 0 0 16.14-16.15v-21.53a16.137 16.137-180 0 0-16.14-16.14h-2.94a4.04 4.04 0 0 1-3.81 2.73H24.08a28.16 28.16-180 0 0-13.17 13.07Zm-.13 11.16a57.393 57.402 0 0 1 1.4-18.84 3.01 3.01-180 0 0-4.04-4.03 30.789 30.793-180 0 0-8.06 22.87 30.203 30.207-180 0 0 8.06 22.87 3.033 3.033-180 0 0 4.04-4.04 55.756 55.764 0 0 1-1.4-18.83Zm34.99 28.24a4.039 4.039-180 0 0-4.04-4.04H17.52a4.034 4.034-180 0 0-4.04 4.04 4.04 4.04-180 0 0 4.04 4.05h24.21a4.045 4.045-180 0 0 4.04-4.05Zm-.03-56.52a4.023 4.023-180 0 0-4.01-4.03H17.52a4.055 4.055-180 0 0-4.06 4.05 4.049 4.049-180 0 0 4.06 4.04h24.21a4.024 4.024-180 0 0 4.01-4.04v-.02Z" class="st4"/><path d="M10.91 1115.06a157.589 157.613-180 0 0-.03 22.18 28.16 28.16-180 0 0 13.34 13.19h17.51a4.03 4.03 0 0 1 3.8 2.65h2.93a16.145 16.145-180 0 0 16.14-16.15v-21.53a16.137 16.137-180 0 0-16.14-16.14h-2.94a4.04 4.04 0 0 1-3.81 2.73H24.08a28.16 28.16-180 0 0-13.17 13.07m-.13 11.16a57.393 57.402 0 0 1 1.4-18.84 3.01 3.01-180 0 0-4.04-4.03 30.789 30.793-180 0 0-8.06 22.87 30.203 30.207-180 0 0 8.06 22.87 3.033 3.033-180 0 0 4.04-4.04 55.756 55.764 0 0 1-1.4-18.83m34.99 28.24a4.039 4.039-180 0 0-4.04-4.04H17.52a4.034 4.034-180 0 0-4.04 4.04 4.04 4.04-180 0 0 4.04 4.05h24.21a4.045 4.045-180 0 0 4.04-4.05m-.03-56.52a4.023 4.023-180 0 0-4.01-4.03H17.52a4.055 4.055-180 0 0-4.06 4.05 4.049 4.049-180 0 0 4.06 4.04h24.21a4.024 4.024-180 0 0 4.01-4.04" class="st5"/></g></g><g id="group1095-207" transform="matrix(0 -1 -1 0 1339.41 775.261)"><path d="M0 1021.03v137.48h134.94v-65.2H65.2v-72.28H0Z" class="st6" id="shape1095-208"/></g><g id="group1096-210" transform="matrix(1 0 0 -1 180.902 1740.45)"><g id="shape1096-211"><path class="st6" d="M0 1100.69h65.197v57.818H0z"/><text x="25.92" y="-1122.4" transform="scale(1 -1)" class="st7">4</text></g></g><g id="group1097-214" transform="scale(1 -1) rotate(45 2383.849 430.312)"><g id="shape1098-215" transform="rotate(180 20.805 1138.145)"><path class="st6" d="M0 1118.94h38.143v39.563H0z"/></g><g id="shape1099-217" transform="rotate(180 30.052 1137.56)"><path class="st6" d="M0 1116.62h15.026v41.891H0z"/></g><g id="shape1100-219" transform="rotate(180 19.65 1139.305)"><path d="m8.97 1158.51 10.85-3.85v-27.26l-10.85-3.8a235.919 233.239-180 0 0 0 34.91Zm10.85-3.85h18.44a91.622 90.962-180 0 0 0-27.26H19.82v27.26Zm-18.78 3.85h7.93a235.919 233.239 0 0 1 0-34.91H1.04a150.587 148.876-180 0 0 0 34.91Z" class="st6"/></g><g id="shape1101-221" transform="rotate(-90 5.81 1117.51)"><path class="st8" d="M0 1158.22h1.164v.289H0z"/></g><g id="shape1102-223" transform="rotate(-90 28.32 1129.03)"><path d="M2.62 1148.39h1.45v-1.44H2.62v1.44Zm1.74 0h1.46v-1.44H4.36v1.44Zm1.75 0h1.45v-1.44H6.11v1.44Zm1.74 0h1.46v-1.44H7.85v1.44Zm11.2 0h1.46v-1.44h-1.46v1.44Zm1.75 0h1.45v-1.44H20.8v1.44Zm1.75 0H24v-1.44h-1.45v1.44Zm1.74 0h1.46v-1.44h-1.46v1.44ZM0 1151.28h2.33v-1.44H0v1.44Zm2.62 0h1.45v-1.44H2.62v1.44Zm1.74 0h1.46v-1.44H4.36v1.44Zm1.75 0h1.45v-1.44H6.11v1.44Zm1.74 0h1.46v-1.44H7.85v1.44Zm1.75 0h1.45v-1.44H9.6v1.44Zm1.75 0h1.45v-1.44h-1.45v1.44Zm1.74 0h1.46v-1.44h-1.46v1.44Zm1.75 0h1.45v-1.44h-1.45v1.44Zm1.74 0h1.46v-1.44h-1.46v1.44Zm1.75 0h1.45v-1.44h-1.45v1.44Zm1.74 0h1.46v-1.44h-1.46v1.44Zm1.75 0h1.45v-1.44h-1.45v1.44Zm-19.2 1.81h1.45v-1.45H2.62v1.45Zm1.74 0h1.46v-1.45H4.36v1.45Zm1.75 0h1.45v-1.45H6.11v1.45Zm1.74 0h1.46v-1.45H7.85v1.45Zm1.75 0h1.45v-1.45H9.6v1.45Zm1.75 0h1.45v-1.45h-1.45v1.45Zm1.74 0h1.46v-1.45h-1.46v1.45Zm1.75 0h1.45v-1.45h-1.45v1.45Zm1.74 0h1.46v-1.45h-1.46v1.45Zm1.75 0h1.45v-1.45h-1.45v1.45Zm1.74 0h1.46v-1.45h-1.46v1.45Zm1.75 0h1.45v-1.45h-1.45v1.45Zm-19.2 1.81h1.45v-1.45H2.62v1.45Zm1.74 0h1.46v-1.45H4.36v1.45Zm1.75 0h1.45v-1.45H6.11v1.45Zm1.74 0h1.46v-1.45H7.85v1.45Zm1.75 0h1.45v-1.45H9.6v1.45Zm1.75 0h1.45v-1.45h-1.45v1.45Zm1.74 0h1.46v-1.45h-1.46v1.45Zm1.75 0h1.45v-1.45h-1.45v1.45Zm1.74 0h1.46v-1.45h-1.46v1.45Zm1.75 0h1.45v-1.45h-1.45v1.45Zm1.74 0h1.46v-1.45h-1.46v1.45Zm1.75 0h1.45v-1.45h-1.45v1.45Zm-19.2 1.8h1.45v-1.44H2.62v1.44Zm1.74 0h1.46v-1.44H4.36v1.44Zm1.75 0h1.45v-1.44H6.11v1.44Zm1.74 0h1.46v-1.44H7.85v1.44Zm1.75 0h1.45v-1.44H9.6v1.44Zm1.75 0h1.45v-1.44h-1.45v1.44Zm1.74 0h1.46v-1.44h-1.46v1.44Zm1.75 0h1.45v-1.44h-1.45v1.44Zm1.74 0h1.46v-1.44h-1.46v1.44Zm1.75 0h1.45v-1.44h-1.45v1.44Zm1.74 0h1.46v-1.44h-1.46v1.44Zm-13.96 1.81h11.93v-1.45H6.11v1.45Zm26.47 0h3.49v-1.45h-3.49v1.45Zm3.78 0h1.46v-1.45h-1.46v1.45Zm0-1.81h1.46v-1.44h-1.46v1.44Zm-1.89 0h1.46v-1.44h-1.46v1.44Zm-1.89 0h1.46v-1.44h-1.46v1.44Zm0-1.8h1.46v-1.45h-1.46v1.45Zm0-1.81h1.46v-1.45h-1.46v1.45Zm1.89 0h1.46v-1.45h-1.46v1.45Zm1.89 0h1.46v-1.45h-1.46v1.45Zm0 1.81h1.46v-1.45h-1.46v1.45Zm-1.89 0h1.46v-1.45h-1.46v1.45Z" class="st9"/></g><g id="shape1103-225" transform="rotate(-90 28.32 1129.03)"><path d="M0 1148.39h1.45v-1.44H0v1.44Zm0 4.7h2.33v-1.45H0v1.45Zm0 1.81h2.33v-1.45H0v1.45Zm0 1.8h2.33v-1.44H0v1.44Zm0 1.81h2.33v-1.45H0v1.45Zm2.62 0h1.45v-1.45H2.62v1.45Zm1.74 0h1.46v-1.45H4.36v1.45Zm13.97 0h1.45v-1.45h-1.45v1.45Zm1.74 0h1.46v-1.45h-1.46v1.45Zm1.75 0h1.45v-1.45h-1.45v1.45Zm1.74 0h2.33v-1.45h-2.33v1.45Zm3.2 0h1.46v-1.45h-1.46v1.45Zm1.75 0h1.45v-1.45h-1.45v1.45Zm1.74 0h1.46v-1.45h-1.46v1.45Zm8 0h1.46v-3.18h-1.46v3.18Zm0-3.47h1.46v-3.4h-1.46v3.4Zm0-3.76h1.46v-1.44h-1.46v1.44Zm-1.89 0h1.46v-1.44h-1.46v1.44Zm-1.89 0h1.46v-1.44h-1.46v1.44Zm-1.89 0h1.46v-1.44h-1.46v1.44Zm-2.33 0h1.46v-1.44h-1.46v1.44Zm0 1.81h1.46v-1.45h-1.46v1.45Zm-1.74 3.61h1.45v-1.44h-1.45v1.44Zm-6.69-.02h4.07v-1.45h-4.07v1.45Zm1.74-1.83h2.33v-3.18h-2.33v3.18Zm3.2-1.76h1.46v-1.45h-1.46v1.45Zm1.75 0h1.45v-1.45h-1.45v1.45Zm0-1.81h1.45v-1.44h-1.45v1.44Zm-4.95 0h2.33v-1.44h-2.33v1.44Zm13.97-3.75h1.16v-.29h-1.16v.29Zm-1.75 0h1.17v-.29h-1.17v.29Zm-5.53.86h1.46v-1.44h-1.46v1.44Zm-1.74 0h1.45v-1.44h-1.45v1.44Zm-1.75 0h1.46v-1.44h-1.46v1.44Zm-10.76 0h1.45v-1.44H16v1.44Zm-1.75 0h1.46v-1.44h-1.46v1.44Zm-1.74 0h1.45v-1.44h-1.45v1.44Zm-1.75 0h1.46v-1.44h-1.46v1.44Zm16 2.89h1.46v-1.44h-1.46v1.44Z" class="st10"/></g></g><g id="group1079-227" transform="rotate(180 209.31 1021.735)"><g id="shape1080-228"><path d="M-1.42 1158.65H99.21v-4.54H-1.42v4.54Z" class="st14"/></g><g id="shape1084-236" transform="translate(-1.417)"><path d="M100.63 1158.51v-4.25h-1.42v4.25h1.42Zm-100.63 0v-4.25h1.42v4.25H0Z" class="st4"/><path d="M100.63 1158.51v-4.25h-1.42v1.41m0 1.42v1.42h1.42m-100.63 0v-4.25h1.42v1.41m0 1.42v1.42H0" class="st5"/></g><g id="shape1085-239" transform="translate(0 -1.417)"><path d="M97.8 1157.09h-.57v1.42h.57v-1.42Zm-97.8 0h.57v1.42H0v-1.42Z" class="st4"/><path d="M97.8 1157.09h-.57v1.42h.57M0 1157.09h.57v1.42H0" class="st5"/></g><g id="shape1086-242" transform="translate(-1.417)"><path d="M100.63 1158.51v-4.25M0 1158.51v-4.25" class="st5"/></g><g id="shape1087-246" transform="translate(0 -4.252)"><path d="M0 1158.51a97.795 97.795 0 0 1 25.43-65.79" class="st5"/></g><g id="shape1088-249" transform="rotate(42.274 101.461 1155.672)"><path class="st6" d="M0 1157.09h97.795v1.417H0z"/></g><g id="shape1090-253" transform="rotate(-42.274 94.13 1157.09)"><path class="st15" d="M0 1157.09h97.795v1.417H0z"/></g></g><g id="group1069-257" transform="rotate(180 218.877 765.91)"><g id="shape1070-258"><path d="M0 1158.65h153.07v-4.54H0v4.54Z" class="st14"/></g><g id="shape1074-266"><path d="M0 1158.51v-4.25h1.42v4.25H0Zm153.07 0v-4.25h-1.42v4.25h1.42Z" class="st4"/><path d="M0 1158.51v-4.25h1.42v1.41m0 1.42v1.42H0m153.07 0v-4.25h-1.42v1.41m0 1.42v1.42h1.42" class="st5"/></g><g id="shape1075-269" transform="translate(1.417 -1.417)"><path d="M0 1157.09h1.42v1.42H0v-1.42Zm150.24 0h-1.42v1.42h1.42v-1.42Z" class="st6"/></g><g id="shape1076-271" transform="translate(2.835 -2.126)"><path d="M0 1158.51h147.4" class="st5"/></g><g id="shape1077-274"><path d="M0 1158.51v-4.25M153.07 1158.51v-4.25" class="st5"/></g></g></svg>